<svg xmlns="http://www.w3.org/2000/svg" viewBox="0 0 579.904 572.675">
  <g transform="matrix(1.33333 0 0 -1.33333 0 572.675)">
    <path d="M212.013 234.206c-4.616 3.649-11.73 1.942-17.105 1.524-7.684-.595-13.557-1.51-20.041-6.034-4.93-3.438-10.292-7.174-11.686-13.326-.693-3.047-.344-6.273-.504-9.363-.154-3.066-.536-5.7 1.309-8.306.814-1.151 2.726-.052 1.904 1.111-2.461 3.477-1.206 11.929-.586 15.972.904 5.878 7.482 9.783 11.943 12.894 5.017 3.499 10.384 4.635 16.406 4.777 4.859.114 12.605 2.511 16.8-.808 1.103-.872 2.675.679 1.56 1.559" fill="currentColor"/>
    <path d="M219.505 224.458c-3.684 2.665-9.994 1.512-14.207 1.307-5.93-.286-12.248-1.268-17.66-3.817-5.168-2.432-11.113-6.51-13.092-12.166-2.461-7.03.135-14.357.313-21.548.033-1.42 2.238-1.423 2.204 0-.13 5.26-1.37 10.409-1.437 15.666-.092 7.219 5.91 12.373 11.746 15.495 4.868 2.605 11.467 4.023 16.95 4.126 4.084.079 10.549 1.58 14.072-.966 1.154-.835 2.252 1.079 1.11 1.903" fill="currentColor"/>
    <path d="M221.7 216.742c-2.45-1.873-5.287-2.036-8.263-2.054-2.772-.017-6.33-1.638-9.008-2.407-5.156-1.483-9.642-3.937-12.963-8.238-7.084-9.176-4.479-20.28-1.137-30.432.443-1.343 2.57-.768 2.127.586-3.717 11.296-5.559 21.466 2.994 30.988 3.92 4.363 11.111 5.421 16.502 6.847 3.857 1.018 7.505.241 10.86 2.807 1.115.85.016 2.768-1.112 1.903" fill="currentColor"/>
    <path d="M243.491 209.139c-3.346 1.264-5.782.999-9.149-.018-4-1.205-8.065-1.75-12.134-2.691-6.399-1.478-10.867-4.77-14.723-10.002-4.187-5.68-6.595-13.061-7.23-20.026-.682-7.47 3.451-13.29 6.72-19.587.654-1.264 2.557-.15 1.903 1.11-2.944 5.672-6.223 10.46-6.463 17.082-.239 6.564 2.808 13.52 6.105 19.003 3.371 5.605 8.06 8.645 14.276 10.295 2.366.627 4.807.986 7.22 1.383 4.504.74 8.223 3.089 12.89 1.324 1.333-.504 1.903 1.629.585 2.127M231.035 146.64c-2.472 7.999-8.077 16.776-1.387 24.28.944 1.058-.61 2.623-1.558 1.56-7.394-8.295-1.98-17.363.818-26.425.417-1.355 2.547-.776 2.127.585M258.308 137.206c-6.747 7.12-7.387 15.219-7.393 24.573 0 1.421-2.205 1.421-2.205 0 .009-9.982.892-18.592 8.039-26.132.98-1.033 2.537.528 1.559 1.559M280.13 140.685c-7.023 3.442-5.053 12.515-4.965 18.89.02 1.422-2.185 1.421-2.205 0-.1-7.25-1.87-16.91 6.059-20.793 1.269-.624 2.389 1.28 1.11 1.903M302.399 153.74c-6.372 6.95-6.284 16.797-6.29 25.676 0 1.421-2.205 1.421-2.205 0 .006-9.53.125-19.807 6.936-27.235.965-1.05 2.519.513 1.559 1.56M326.933 174.197c-1.902 6.066-2.161 12.138-2.166 18.445 0 1.421-2.204 1.421-2.204 0 .005-6.51.282-12.777 2.243-19.03.424-1.352 2.554-.775 2.127.585M341.263 212.776c-.475 1.33-2.605.756-2.127-.585 2.236-6.263 6.357-11.576 6.574-18.446.045-1.419 2.25-1.423 2.205 0-.226 7.17-4.321 12.5-6.652 19.031M368.535 213.264c-3.712 3.768-8.267 8.62-7.432 14.359.203 1.39-1.922 1.99-2.128.586-.968-6.674 3.61-12.046 8.001-16.504 1-1.014 2.558.546 1.56 1.559M387.597 248.86c-.037 1.417-2.241 1.422-2.205 0 .137-5.243 2.069-10.197 2.205-15.434.037-1.418 2.24-1.422 2.205 0-.137 5.243-2.07 10.197-2.205 15.433M400.823 274.21c.16 1.413-2.049 1.398-2.203 0-.75-6.694 5.196-11.193 5.511-17.635.07-1.415 2.273-1.421 2.204 0-.315 6.413-6.235 11.16-5.512 17.636M414.013 276.709c-1.122 5.266-3.07 10.495-2.205 15.948.22 1.39-1.902 1.988-2.127.585-.937-5.913.986-11.392 2.205-17.12.297-1.39 2.422-.8 2.127.587M233.278 330.427c-.027 1.42-2.232 1.424-2.205 0 .156-7.941 2.156-15.623 3.346-23.44.215-1.402 2.338-.805 2.127.586-1.163 7.62-3.116 15.11-3.268 22.854M255.173 329.88c-3.354 4.924-3.151 11.359-3.156 17.08 0 1.422-2.204 1.422-2.204 0 .005-6.091-.115-12.95 3.458-18.19.796-1.167 2.705-.067 1.902 1.11M273.911 348.619c-3.037 5.605-2.117 12.064-2.053 18.184.015 1.422-2.189 1.42-2.205 0-.068-6.57-.895-13.295 2.356-19.295.675-1.25 2.58-.138 1.902 1.111M291.698 377.825v-16.534c0-1.42 2.205-1.42 2.205 0v16.534c0 1.421-2.205 1.421-2.205 0M315.798 368.46c-2.174 3.69-1.012 8.613-.951 12.672.02 1.423-2.184 1.42-2.205 0-.067-4.522-1.175-9.664 1.254-13.783.72-1.225 2.626-.117 1.902 1.11M337.994 380.03c-.034 1.418-2.239 1.422-2.204 0 .15-5.953 2.054-11.687 2.204-17.638.034-1.418 2.24-1.423 2.204 0-.15 5.953-2.053 11.687-2.204 17.637M349.056 365.992c-1.03-4.456-1.137-8.964-1.141-13.52 0-1.42 2.204-1.42 2.204 0 .005 4.36.076 8.666 1.064 12.935.318 1.382-1.807 1.97-2.127.585M210.454 255.15c-4.86-4.752-10.768-9.365-17.96-8.496-1.407.17-1.393-2.036 0-2.204 7.746-.939 14.272 4.012 19.52 9.14 1.016.996-.544 2.554-1.56 1.56M231.398 243.024c-7.032-6.515-14.864-4.243-23.471-4.086-1.422.026-1.422-2.179 0-2.204 9.422-.173 17.473-2.27 25.03 4.731 1.045.97-.518 2.524-1.56 1.56M259.884 239.494c-8.81-12.42-23.781-12.677-37.628-12.681-1.421 0-1.421-2.204 0-2.204 14.79.006 30.204.626 39.53 13.774.826 1.163-1.09 2.26-1.902 1.111" fill="currentColor"/>
    <path d="M281.778 257.677c-.568-26.267-23.514-40.605-47.397-42.988-1.4-.14-1.416-2.347 0-2.204 12.93 1.289 24.94 5.004 34.95 13.549 9.273 7.918 14.388 19.555 14.652 31.643.03 1.424-2.175 1.419-2.205 0" fill="currentColor"/>
    <path d="M287.29 243.348c-.414-19.406-16.168-33.79-35.273-34.171-1.42-.027-1.42-2.232 0-2.204 20.32.404 37.04 15.764 37.477 36.375.03 1.423-2.175 1.419-2.204 0M77.858 31.71c-.02 1.422-2.227 1.424-2.205 0 .064-4.598.996-9.42-.95-13.773-.579-1.286 1.32-2.407 1.901-1.111 2.15 4.8 1.326 9.796 1.254 14.885M105.415 25.098c-.014 1.42-2.218 1.423-2.205 0 .057-5.594 1.238-12.157-2.054-17.081-.792-1.185 1.117-2.286 1.904-1.111 3.541 5.296 2.416 12.18 2.355 18.192M136.24 29.799c-.263 1.397-2.388.804-2.128-.585.935-4.974-3.07-10.954-6.329-14.36-.982-1.027.573-2.587 1.56-1.56 3.882 4.06 8 10.646 6.896 16.505M159.427 38.324c-.005-7.518-.178-14.9-4.26-21.489-.75-1.212 1.156-2.317 1.905-1.112 4.288 6.92 4.554 14.68 4.558 22.601 0 1.422-2.203 1.422-2.203 0M182.573 52.654c-.02 1.421-2.226 1.423-2.204 0 .1-6.364 2.368-15.32-2.983-20.164-1.055-.956.507-2.51 1.558-1.559 5.942 5.376 3.74 14.681 3.63 21.723M199.07 72.788c-.35 1.378-2.478.792-2.128-.586 2.054-8.107 3.888-15.464 1.102-23.664-.456-1.35 1.671-1.925 2.127-.586 2.911 8.573 1.05 16.321-1.102 24.836M218.798 90.687c-.801 1.162-2.713.062-1.902-1.11 3.08-4.473 4.447-13.692-.707-17.233-1.164-.799-.065-2.71 1.11-1.903 6.188 4.252 5.34 14.674 1.499 20.246M232.956 109.65c-.945 1.064-2.498-.5-1.559-1.56 3.082-3.476 3.243-11.283.93-15.199-.726-1.227 1.18-2.334 1.902-1.11 2.856 4.828 2.502 13.61-1.273 17.868M250.915 120.995c-.018 1.421-2.223 1.423-2.205 0 .082-6.631 1.02-13.21 1.102-19.841.017-1.421 2.222-1.423 2.205 0-.082 6.631-1.02 13.21-1.102 19.841M70.142 155.166c-.045 1.418-2.252 1.423-2.204 0 .206-6.425 3.1-12.325 3.307-18.74.045-1.418 2.25-1.422 2.204 0-.206 6.426-3.1 12.326-3.307 18.74M88.88 175.007c-.04 1.419-2.244 1.423-2.204 0 .13-4.521 2.099-8.69 2.204-13.228.035-1.418 2.24-1.422 2.205 0-.105 4.543-2.075 8.726-2.205 13.228M106.517 199.257c-.023 1.42-2.23 1.423-2.204 0 .086-5.163 1.033-10.263 1.102-15.432.02-1.421 2.224-1.423 2.205 0-.07 5.169-1.017 10.269-1.103 15.432M125.255 215.79v-13.227c0-1.42 2.205-1.42 2.205 0v13.228c0 1.42-2.205 1.42-2.205 0M144.55 233.276c-1.158.827-2.261-1.085-1.111-1.903 1.494-1.066.84-6.472.816-8.035-.037-2.516-.234-5.03-.261-7.547-.014-1.424 2.19-1.42 2.204 0 .038 3.54.324 7.063.259 10.604-.043 2.143.06 5.48-1.907 6.881M162.733 249.96c-.018 1.422-2.223 1.425-2.205 0 .071-5.52.844-10.916-1.064-16.24-.479-1.341 1.65-1.914 2.127-.585 1.977 5.513 1.214 11.097 1.142 16.826M183.677 257.305c0 1.423-2.205 1.423-2.205 0v-.73c0-.028.013-.045.016-.071.074-3.644.535-8.511-1.898-11.274-.936-1.062.616-2.627 1.559-1.56 3.126 3.549 2.528 9.226 2.528 13.635" fill="currentColor"/>
  </g>
  <g transform="matrix(1.33333 0 0 -1.33333 0 572.675)">
    <path d="M39.532 178.837a5.026 5.026 0 0 1 1.816 2.097c19.53 22.596 34.507 35.66 56.055 56.237 12.7 12.125 25.274 24.31 37.358 37.04 5.154 5.428 13.203 8.444 19.593 12.229 4.962 2.94 9.998 6.28 15.317 8.807a36.966 36.966 0 0 0-2.998 3.882c-.909 1.346-1.505 2.676-1.863 3.977-16.448-7.725-32.114-18.39-43.819-30.713-23.586-24.845-42.33-40.165-66.508-64.443-7.685-7.716-16.563-16.276-24.633-25.583.113-.027.22-.08.334-.111C11.616 160.989-1.542 132.2 2.85 103.696 7.967 70.46 32.047 46.96 54.88 24.629c9.916-9.694 19.031-13.825 31.802-18.844 13.877-5.458 28.905-3.937 43.446-2.056 15.814 2.049 29.455 9.059 42.968 17.298 16.885 10.289 27.99 21.383 41.067 36.048 19.315 21.664 32.678 35.385 53.055 56.059 9.628 9.767 19.077 20.005 27.075 31.208-4.53-2.002-9.267-3.275-14.118-3.95-16.823-20.737-36.539-40.225-55.26-59.217-10.59-10.745-13.893-14.153-23.708-25.613-.928-.267-1.804-.833-2.472-1.828-6.38-9.481-20.439-18.794-29.998-25.038-11.256-7.36-23.932-13.71-37.23-15.965-12.327-2.091-27.425-3.59-39.382.384-13.8 4.584-23.428 10.336-33.769 20.447-9.58 9.37-20.97 18.443-28.48 29.63-6.928 10.314-13.422 23.104-16.94 34.956-8.218 27.686 6.094 58.23 24.455 78.939.107-.118.22-.232.33-.35.588.71 1.212 1.395 1.811 2.1" fill="currentColor"/>
    <path d="M39.532 178.837a5.026 5.026 0 0 1 1.816 2.097c19.53 22.596 34.507 35.66 56.055 56.237 12.7 12.125 25.274 24.31 37.358 37.04 5.154 5.428 13.203 8.444 19.593 12.229 4.962 2.94 9.998 6.28 15.317 8.807a36.966 36.966 0 0 0-2.998 3.882c-.909 1.346-1.505 2.676-1.863 3.977-16.448-7.725-32.114-18.39-43.819-30.713-23.586-24.845-42.33-40.165-66.508-64.443-7.685-7.716-16.563-16.276-24.633-25.583.113-.027.22-.08.334-.111C11.616 160.989-1.542 132.2 2.85 103.696 7.967 70.46 32.047 46.96 54.88 24.629c9.916-9.694 19.031-13.825 31.802-18.844 13.877-5.458 28.905-3.937 43.446-2.056 15.814 2.049 29.455 9.059 42.968 17.298 16.885 10.289 27.99 21.383 41.067 36.048 19.315 21.664 32.678 35.385 53.055 56.059 9.628 9.767 19.077 20.005 27.075 31.208-4.53-2.002-9.267-3.275-14.118-3.95-16.823-20.737-36.539-40.225-55.26-59.217-10.59-10.745-13.893-14.153-23.708-25.613-.928-.267-1.804-.833-2.472-1.828-6.38-9.481-20.439-18.794-29.998-25.038-11.256-7.36-23.932-13.71-37.23-15.965-12.327-2.091-27.425-3.59-39.382.384-13.8 4.584-23.428 10.336-33.769 20.447-9.58 9.37-20.97 18.443-28.48 29.63-6.928 10.314-13.422 23.104-16.94 34.956-8.218 27.686 6.094 58.23 24.455 78.939.107-.118.22-.232.33-.35.588.71 1.212 1.395 1.811 2.1z" fill="none" stroke="currentColor" stroke-width="4" stroke-miterlimit="10"/>
    <path d="M224.185 151.245a63.925 63.925 0 0 0-3.184-3.936c-6.786-7.68-14.755-14.284-22.065-21.449-9.794-9.599-11.71-12.544-21.362-22.288-8.328-8.4-17.026-16.484-26.965-22.952-11.973-7.791-23.898-6.965-37.088-3.089-20.607 6.051-39.545 24.458-36.197 47.079 2.982 20.163 18.52 36.354 32.236 50.093 16.5 16.529 25.182 26.246 41.732 42.767 7.43 7.415 15.215 15.554 25.297 19.134 14.599 5.185 28.248-3.267 38.34-13.756a154.467 154.467 0 0 0 5.926-6.491 106.594 106.594 0 0 1 7.035-4.861 13.675 13.675 0 0 0 5.623-1.412 57.908 57.908 0 0 0 3.955-2.18 55.325 55.325 0 0 1-2.482 4.311c-6.313 9.884-18.272 26.491-30.1 29.992-.338.684-.876 1.314-1.693 1.804-3.73 2.236-9.835 3.928-16.448 3.709-11.15-.371-20.795-5.74-29.263-12.485-23.655-18.848-35.614-35.722-56.881-57.027-15.843-15.871-30.443-34.418-32.556-57.521-2.176-23.799 18.84-41.776 38.763-50.047 25.578-10.623 45.465-1.975 65.082 15.34 12.338 10.89 16.094 15.952 27.509 27.777 10.674 11.061 22.672 20.825 32.45 32.73.299.362.554.747.842 1.113-2.881 1.109-5.725 2.283-8.506 3.645" fill="currentColor"/>
    <path d="M224.185 151.245a63.925 63.925 0 0 0-3.184-3.936c-6.786-7.68-14.755-14.284-22.065-21.449-9.794-9.599-11.71-12.544-21.362-22.288-8.328-8.4-17.026-16.484-26.965-22.952-11.973-7.791-23.898-6.965-37.088-3.089-20.607 6.051-39.545 24.458-36.197 47.079 2.982 20.163 18.52 36.354 32.236 50.093 16.5 16.529 25.182 26.246 41.732 42.767 7.43 7.415 15.215 15.554 25.297 19.134 14.599 5.185 28.248-3.267 38.34-13.756a154.467 154.467 0 0 0 5.926-6.491 106.594 106.594 0 0 1 7.035-4.861 13.675 13.675 0 0 0 5.623-1.412 57.908 57.908 0 0 0 3.955-2.18 55.325 55.325 0 0 1-2.482 4.311c-6.313 9.884-18.272 26.491-30.1 29.992-.338.684-.876 1.314-1.693 1.804-3.73 2.236-9.835 3.928-16.448 3.709-11.15-.371-20.795-5.74-29.263-12.485-23.655-18.848-35.614-35.722-56.881-57.027-15.843-15.871-30.443-34.418-32.556-57.521-2.176-23.799 18.84-41.776 38.763-50.047 25.578-10.623 45.465-1.975 65.082 15.34 12.338 10.89 16.094 15.952 27.509 27.777 10.674 11.061 22.672 20.825 32.45 32.73.299.362.554.747.842 1.113-2.881 1.109-5.725 2.283-8.506 3.645z" fill="none" stroke="currentColor" stroke-width="4" stroke-miterlimit="10"/>
    <path d="M168.84 307.322c20.983 25.76 32.907 35.273 56.886 58.171 7.549 7.206 15.034 14.45 22.418 21.8-1.914 1.513-3.761 3.113-5.593 4.73-.297.26-.597.521-.892.783-19.017-19.283-31.685-29.279-53.113-50.795-14.31-14.37-32.756-31.649-42.351-51.28 5.048 3.894 10.904 7.177 17.21 9.722a263.738 263.738 0 0 0 5.436 6.87" fill="currentColor"/>
    <path d="M168.84 307.322c20.983 25.76 32.907 35.273 56.886 58.171 7.549 7.206 15.034 14.45 22.418 21.8-1.914 1.513-3.761 3.113-5.593 4.73-.297.26-.597.521-.892.783-19.017-19.283-31.685-29.279-53.113-50.795-14.31-14.37-32.756-31.649-42.351-51.28 5.048 3.894 10.904 7.177 17.21 9.722a263.738 263.738 0 0 0 5.436 6.87z" fill="none" stroke="currentColor" stroke-width="4" stroke-miterlimit="10"/>
    <path d="M331.95 367.105c-15.412 5.52-32.852 3.312-49.787-8.232-23.65-16.123-27.627-26.709-47.5-46.604-2.959-2.96-5.83-6.052-8.625-9.21a35.984 35.984 0 0 0 9.068-3.065c2.833 3.031 5.71 5.96 8.514 8.77 15.011 15.04 16.05 18.375 31.706 32.73 12 10.998 26.253 20.862 43.476 18.597 16.97-2.23 36.25-17.908 42.082-34.06 6.366-17.626.527-36.718-11.56-50.402 0 0-37.683-37.987-37.69-37.996-8.329-8.402-17.025-16.484-26.967-22.954-11.972-7.79-23.895-6.965-37.085-3.089-11.734 3.45-22.913 10.91-29.759 20.864-2.166.497-4.348 1.631-6.395 3.587-2.54 2.423-4.718 3.648-7.775 4.454 5.158-16.692 21.502-29.27 37.214-35.794 25.581-10.622 45.467-1.977 65.081 15.342 6.693 5.905 52.05 52.121 54.223 54.766 15.388 18.731 16.103 45.437 3.134 65.73-8.375 13.111-19.238 22.226-31.356 26.566" fill="currentColor"/>
    <path d="M331.95 367.105c-15.412 5.52-32.852 3.312-49.787-8.232-23.65-16.123-27.627-26.709-47.5-46.604-2.959-2.96-5.83-6.052-8.625-9.21a35.984 35.984 0 0 0 9.068-3.065c2.833 3.031 5.71 5.96 8.514 8.77 15.011 15.04 16.05 18.375 31.706 32.73 12 10.998 26.253 20.862 43.476 18.597 16.97-2.23 36.25-17.908 42.082-34.06 6.366-17.626.527-36.718-11.56-50.402 0 0-37.683-37.987-37.69-37.996-8.329-8.402-17.025-16.484-26.967-22.954-11.972-7.79-23.895-6.965-37.085-3.089-11.734 3.45-22.913 10.91-29.759 20.864-2.166.497-4.348 1.631-6.395 3.587-2.54 2.423-4.718 3.648-7.775 4.454 5.158-16.692 21.502-29.27 37.214-35.794 25.581-10.622 45.467-1.977 65.081 15.342 6.693 5.905 52.05 52.121 54.223 54.766 15.388 18.731 16.103 45.437 3.134 65.73-8.375 13.111-19.238 22.226-31.356 26.566z" fill="none" stroke="currentColor" stroke-width="4" stroke-miterlimit="10"/>
    <path d="M243.12 301.602c-13.349 8.31-28.324 10.061-43.666 8.583-14.29-1.375-32.275-4.82-44.268-13.173-4.632-3.227-.304-10.915 4.356-7.67 11.812 8.228 29.3 11.005 43.363 12.36 17.471 1.678 33.871-4.18 46.953-15.8 5.012-4.45 11.323-6.774 16.38-11.315 6.716-6.034 12.03-13.603 17.187-20.945 3.978-5.66 9.897-12.252 12.34-18.763 1.335-3.564 3.187-6.8 5.533-9.773 3.52-4.457 9.717 1.83 6.235 6.234-3.614 4.586-4.622 10.46-8.314 15.071-5.736 7.17-10.295 15.227-16.039 22.41-11.014 13.754-25.223 23.541-40.06 32.781" fill="currentColor"/>
    <path d="M243.12 301.602c-13.349 8.31-28.324 10.061-43.666 8.583-14.29-1.375-32.275-4.82-44.268-13.173-4.632-3.227-.304-10.915 4.356-7.67 11.812 8.228 29.3 11.005 43.363 12.36 17.471 1.678 33.871-4.18 46.953-15.8 5.012-4.45 11.323-6.774 16.38-11.315 6.716-6.034 12.03-13.603 17.187-20.945 3.978-5.66 9.897-12.252 12.34-18.763 1.335-3.564 3.187-6.8 5.533-9.773 3.52-4.457 9.717 1.83 6.235 6.234-3.614 4.586-4.622 10.46-8.314 15.071-5.736 7.17-10.295 15.227-16.039 22.41-11.014 13.754-25.223 23.541-40.06 32.781z" fill="none" stroke="currentColor" stroke-width="4" stroke-miterlimit="10"/>
    <path d="M387.155 396.645c-14.26 13.347-32.023 24.04-51.158 28.412-38.217 8.74-69.735-6.75-96.533-33.155-4.052-3.99 2.187-10.224 6.234-6.235 12.218 12.036 25.508 22.816 41.697 28.976 17.117 6.515 36.522 4.722 53.834.013 18.871-5.127 35.06-19.452 48.572-32.799 12.684-12.527 27.04-23.047 32.127-41.036 2.254-7.968 1.48-17.557 1.774-25.789.341-9.525-.762-18.25-4.049-27.192-3.344-9.085-9.01-15.879-14.695-23.519-6.295-8.455-11.114-17.324-18.3-25.265-20.68-22.835-44.033-43.083-66.505-64.1-16.797-15.71-31.406-33.692-56.125-35.04-16.49-.897-28.73 6.708-42.907 13.525-14.43 6.936-27.359 19.16-38.618 30.422-6.905 6.906-14.149 13.535-19.744 21.595-3.777 5.441-4.549 11.966-8.51 17.05-3.492 4.477-9.687-1.81-6.236-6.235 1.443-1.855 2.413-6.943 3.456-9.163 1.69-3.585 4.164-7.178 6.635-10.259 6.231-7.76 13.518-14.579 20.545-21.608 14.256-14.254 29.563-25.298 47.572-34.147 7.534-3.703 12.8-6.304 21.044-8.343 7.453-1.842 15.27-1.96 22.855-1.17 29.89 3.117 44.746 26.646 64.843 44.855 25.225 22.861 51.788 45.038 71.391 73.185 10.334 14.835 23.936 30.861 25.62 49.788 1.536 17.248 2.083 37.565-5.247 53.62-8.04 17.59-25.772 30.703-39.572 43.614" fill="currentColor"/>
    <path d="M387.155 396.645c-14.26 13.347-32.023 24.04-51.158 28.412-38.217 8.74-69.735-6.75-96.533-33.155-4.052-3.99 2.187-10.224 6.234-6.235 12.218 12.036 25.508 22.816 41.697 28.976 17.117 6.515 36.522 4.722 53.834.013 18.871-5.127 35.06-19.452 48.572-32.799 12.684-12.527 27.04-23.047 32.127-41.036 2.254-7.968 1.48-17.557 1.774-25.789.341-9.525-.762-18.25-4.049-27.192-3.344-9.085-9.01-15.879-14.695-23.519-6.295-8.455-11.114-17.324-18.3-25.265-20.68-22.835-44.033-43.083-66.505-64.1-16.797-15.71-31.406-33.692-56.125-35.04-16.49-.897-28.73 6.708-42.907 13.525-14.43 6.936-27.359 19.16-38.618 30.422-6.905 6.906-14.149 13.535-19.744 21.595-3.777 5.441-4.549 11.966-8.51 17.05-3.492 4.477-9.687-1.81-6.236-6.235 1.443-1.855 2.413-6.943 3.456-9.163 1.69-3.585 4.164-7.178 6.635-10.259 6.231-7.76 13.518-14.579 20.545-21.608 14.256-14.254 29.563-25.298 47.572-34.147 7.534-3.703 12.8-6.304 21.044-8.343 7.453-1.842 15.27-1.96 22.855-1.17 29.89 3.117 44.746 26.646 64.843 44.855 25.225 22.861 51.788 45.038 71.391 73.185 10.334 14.835 23.936 30.861 25.62 49.788 1.536 17.248 2.083 37.565-5.247 53.62-8.04 17.59-25.772 30.703-39.572 43.614z" fill="none" stroke="currentColor" stroke-width="4" stroke-miterlimit="10"/>
  </g>
</svg>
