<svg xmlns="http://www.w3.org/2000/svg" viewBox="0 0 186.767 119.11">
  <defs>
    <clipPath id="a_envelope">
      <path d="M0 89.332h140.075V0H0z"/>
    </clipPath>
  </defs>
  <g clip-path="url(#a_envelope)" transform="matrix(1.33333 0 0 -1.33333 0 119.11)">
    <path d="M0 74.137c.932.81 1.714.516 2.636-.157 22.1-16.153 44.226-32.272 66.322-48.432.872-.639 1.388-.567 2.213.036 22.025 16.102 44.07 32.175 66.114 48.253.258.188.507.39.778.555 1.024.625 1.883.184 1.997-1.027.029-.317.007-.638.007-.957V2.118c0-2.118-.002-2.118-2.14-2.118C92.616 0 47.305-.003 1.995.023 1.33.023.665.365 0 .547z" fill="currentColor"/>
    <path d="M0 88.542c.6.246 1.192.519 1.806.724.246.082.543.014.816.014 44.95 0 89.902.002 134.853-.014.89 0 2.086.42 2.464-.851.362-1.214-.786-1.618-1.521-2.155-16.854-12.304-33.718-24.594-50.58-36.89-5.373-3.92-10.77-7.81-16.097-11.792-1.215-.908-2.056-.985-3.335-.05C48.558 52.068 28.67 66.552 8.79 81.049c-2.54 1.852-5.084 3.698-7.613 5.567-.43.318-.787.735-1.178 1.106z" fill="currentColor"/>
  </g>
</svg>
