<svg version="1.1" xmlns="http://www.w3.org/2000/svg" xmlns:xlink="http://www.w3.org/1999/xlink" viewBox="0 0 540.005 413.55" overflow="scroll">
  <g transform="matrix(1.33333 0 0 -1.33333 0 413.55)">
    <path d="M23.722 235.704c-3.937-3.156-5.877-8.449-7.843-12.939-2.26-5.158-4.483-10.363-5.482-15.927-.258-1.447 1.956-2.07 2.22-.612.872 4.865 2.727 9.253 4.597 13.798 1.916 4.654 4.051 10.78 8.134 14.056 1.156.927-.48 2.543-1.626 1.625m13.798 8.432c-5.649-5.869-11.299-13.483-14.094-21.203-3.079-8.504-7.26-18.024-7.705-27.135-.072-1.48 2.228-1.475 2.3 0 .401 8.24 4.246 16.735 6.882 24.481 2.766 8.122 8.356 16.114 14.241 22.232 1.03 1.068-.595 2.695-1.625 1.625M52.084 256.4c-3.434-3.74-5.636-8.026-7.422-12.745-2.755-7.286-6.03-14.285-8.97-21.486-4.954-12.144-11.215-23.806-12.307-37.097-.12-1.48 2.18-1.468 2.3 0 1.02 12.407 6.757 23.462 11.518 34.754 2.488 5.902 5.3 11.65 7.67 17.598 2.482 6.23 4.177 12.275 8.837 17.35 1 1.09-.622 2.72-1.626 1.626m19.396 16.276c-1.084-.46-1.58-.802-1.969-2.028-1.075-3.389-2.892-6.517-4.147-9.848-3.189-8.462-6.068-17.05-9.975-25.217-6.725-14.055-11.856-27.82-12.074-43.614-.02-1.483 2.278-1.482 2.3 0 .213 15.35 5.058 28.838 11.76 42.453 2.855 5.808 5.256 11.88 7.306 18.014a137.73 137.73 0 0 0 4.28 11.156c.483 1.106 2.414 6.56 3.676 7.1 1.362.578.19 2.56-1.158 1.984m18.162 8.252c-8.668-9.727-12.63-21.608-16.702-33.746-2.418-7.208-5.24-14.42-8.506-21.285-2.503-5.266-5.966-10.26-7.28-15.995-.33-1.443 1.884-2.056 2.217-.61 1.386 6.047 5.221 11.601 7.871 17.176 2.553 5.37 4.507 11.025 6.692 16.55 5.063 12.802 7.897 25.697 17.333 36.284.984 1.103-.638 2.736-1.625 1.626m19.75 10.5c-6.953-10.709-11.21-22.204-16.54-33.729-5.465-11.809-11.292-24.353-14.238-37.064-.333-1.444 1.884-2.056 2.22-.61 2.883 12.448 8.528 25.025 14.003 36.515 5.432 11.403 9.616 23.061 16.54 33.728.812 1.246-1.18 2.398-1.984 1.16m15.328 1.53c-6.245-9.134-8.267-20.894-11.722-31.263-1.988-5.963-3.95-12.068-6.768-17.696-2.147-4.28-4.464-8.066-6.154-12.633-.513-1.395 1.71-1.99 2.22-.61 1.805 4.89 4.433 9.117 6.752 13.746 2.333 4.66 3.658 9.763 5.51 14.612 4.105 10.751 5.572 23.07 12.147 32.685.84 1.226-1.155 2.376-1.985 1.16m13.21-8.198c-3.736-4.158-5.468-9.077-7.193-14.304-2.04-6.179-5.478-11.52-7.665-17.63-.5-1.398 1.72-1.997 2.218-.61 1.727 4.83 4.42 9.131 6.33 13.875 2.394 5.941 3.522 12.125 7.936 17.043.988 1.1-.633 2.731-1.626 1.626m2.73-6.945c-.118-1.016-.742-1.944-1.136-2.868-.293-.69-.35-1.408-.588-2.115-.7-2.092-1.536-4.07-2.719-5.935-.797-1.256 1.192-2.407 1.985-1.16 1.294 2.036 2.176 4.21 2.953 6.485.615 1.8 1.584 3.69 1.803 5.593.168 1.47-2.133 1.455-2.299 0m-21.42-89.373c-.727-1.907-2.06-3.493-2.783-5.393-.873-2.294-1.804-4.537-2.582-6.872-.47-1.41 1.751-2.008 2.218-.61.694 2.08 1.52 4.084 2.3 6.13.817 2.15 2.242 3.977 3.065 6.134.527 1.387-1.696 1.982-2.219.61m9.964-3.833c-.138-.983-.8-1.707-1.375-2.483-.579-.785-.723-1.71-1.246-2.51-1.224-1.874-1.942-3.8-2.019-6.04-.05-1.488 2.248-1.48 2.3 0 .038 1.095.231 2.054.671 3.06.373.85 1.462 1.871 1.588 2.762.245 1.753 2.046 2.796 2.3 4.6.202 1.447-2.013 2.075-2.219.61m14.86-.259c-3.187-3.996-5.585-7.82-5.702-13.075-.035-1.485 2.264-1.479 2.3 0 .103 4.612 2.24 7.952 5.028 11.45.914 1.148-.703 2.784-1.626 1.625m14.384 6.666c-2.779-4.7-5.229-9.667-7.016-14.837-.484-1.404 1.74-2.003 2.22-.61 1.72 4.98 4.102 9.756 6.78 14.288.757 1.28-1.229 2.434-1.984 1.16m12.914 11.223c-.34-1.138-.59-2.294-.863-3.45-.293-1.245-1.093-2.27-1.437-3.448-.724-2.494-.862-5.1-2.18-7.39-.746-1.286 1.245-2.443 1.984-1.16 1.287 2.238 1.613 4.665 2.184 7.145.255 1.11 1.044 2.276 1.427 3.38.49 1.396.682 2.896 1.104 4.313.425 1.422-1.796 2.027-2.219.61m22.524 5.106c-2.763-2.926-4.076-6.792-4.168-10.776-.033-1.485 2.266-1.48 2.3 0 .078 3.371 1.151 6.67 3.493 9.15 1.018 1.078-.606 2.706-1.625 1.626m13.616-7.132c-1.522-3.422-.79-7.34-2.298-10.73-.598-1.342 1.383-2.514 1.985-1.16 1.524 3.421.793 7.34 2.298 10.731.598 1.341-1.382 2.513-1.984 1.16m12.914-6.407c-1.04-3.617-3.712-6.346-3.873-10.27-.06-1.485 2.238-1.477 2.3 0 .147 3.595 2.827 6.304 3.792 9.66.41 1.426-1.81 2.033-2.22.61m9.924-2.605c-.055-3.04-.76-5.958-1.49-8.892-.358-1.44 1.858-2.05 2.22-.61.777 3.131 1.51 6.26 1.57 9.502.027 1.484-2.273 1.482-2.3 0m19.204-2.759c-.726-2.176-1.385-4.422-2.5-6.432-.88-1.58-1.924-2.76-2.14-4.606-.172-1.472 2.13-1.455 2.3 0 .21 1.8 1.94 3.494 2.652 5.146.746 1.717 1.313 3.507 1.908 5.28.47 1.41-1.75 2.01-2.22.612m12.99.46c-.21-1.95-2.373-3.369-2.965-5.267-.702-2.24-.86-4.664-.867-6.997-.002-1.482 2.297-1.482 2.3 0 .006 2.448.05 5.526 1.403 7.653 1.02 1.6 2.213 2.63 2.428 4.61.16 1.473-2.143 1.458-2.299 0m13.03-.766c-.089-1.263-.535-2.802-.935-4.008-.499-1.504-.577-3.148-1.209-4.61-.58-1.345 1.398-2.517 1.987-1.159.646 1.495.853 3.071 1.268 4.638.447 1.684 1.068 3.38 1.187 5.14.104 1.48-2.197 1.47-2.298 0m-5.207 101.755c-2.633-3.854-2.709-8.157-3.95-12.537-1.299-4.575-2.83-9.33-3.106-14.103-.088-1.48 2.213-1.47 2.298 0 .273 4.665 2.102 8.953 3.025 13.494.83 4.067 1.34 8.505 3.717 11.99.837 1.227-1.153 2.374-1.984 1.156m18.575 8.667c-6.116-6.89-5.454-17.192-8.41-25.652-1.68-4.818-3.165-10.509-5.59-14.966-.972-1.782-2.269-4.442-1.626-6.49.444-1.41 2.663-.809 2.218.61-.692 2.198 1.778 4.404 2.3 6.288 1.133 4.114 2.665 8.06 4.2 12.036 1.438 3.72 2.5 7.498 3.372 11.385 1.258 5.603 1.12 10.611 5.162 15.161.98 1.106-.64 2.738-1.626 1.628m13.618-5.6c-4.447-7.53-6.172-16.21-9.228-24.298-3.002-7.948-6.822-15.236-7.793-23.804-.17-1.473 2.133-1.455 2.298 0 .94 8.261 4.656 15.573 7.713 23.193 3.15 7.843 4.645 16.381 8.994 23.75.757 1.277-1.234 2.433-1.984 1.158m10.612-11.004c-.539-2.934-2.63-6.715-3.789-9.438-1.899-4.466-3.353-9.095-5.316-13.539-3.15-7.133-5.499-13.14-5.499-21.017 0-1.482 2.3-1.482 2.3 0 0 9.005 3.566 15.798 6.921 23.93 1.787 4.336 3.182 8.796 5.185 13.047.914 1.934 2.023 4.268 2.417 6.407.266 1.45-1.949 2.068-2.22.61m9.967-8.432c-3.555-9.117-5.855-18.586-8.583-28.02-1.42-4.906-5.18-14.679-2.032-19.62.794-1.246 2.784-.094 1.985 1.16-1.877 2.948-.068 7.19.44 10.291.735 4.532 2.234 8.95 3.51 13.35 2.185 7.54 4.053 14.932 6.9 22.23.538 1.38-1.689 1.975-2.22.61m14.68-11.225c-4.069-5.846-5.915-12.496-7.988-19.228-2.538-8.25-5.73-15.47-5.966-24.275-.04-1.484 2.26-1.48 2.3 0 .215 8.083 2.9 14.418 5.323 21.924 2.282 7.07 4.008 14.23 8.315 20.42.85 1.22-1.144 2.368-1.985 1.16m12.914-10.239c-3.276-8.187-6.312-16.53-9.913-24.583-2.82-6.294-5.208-12.442-5.457-19.41-.054-1.485 2.246-1.478 2.3 0 .27 7.562 3.341 13.514 6.091 20.388 3.066 7.666 6.13 15.33 9.2 22.996.55 1.38-1.674 1.968-2.22.61m9.923-11.803c-.432-3.805-2.27-7.418-3.025-11.192-.742-3.704-1.486-7.41-2.207-11.12-1.216-6.236-3.967-12.003-3.967-18.313 0-1.48 2.3-1.48 2.3 0 0 6.437 2.987 13.104 4.226 19.471.733 3.758 1.495 7.51 2.248 11.266.68 3.393 2.33 6.423 2.724 9.888.166 1.474-2.134 1.455-2.299 0m9.963-5.366c-.42-7.345-3.346-14.64-4.844-21.826-1.28-6.138-3.205-12.546-3.586-18.798-.089-1.482 2.21-1.472 2.3 0 .84 13.752 7.648 26.926 8.43 40.624.084 1.482-2.218 1.473-2.3 0m13.954-6.319c-5.373-11.277-7.054-23.718-10.846-35.53-.453-1.416 1.768-2.019 2.22-.613 3.728 11.612 5.33 23.9 10.61 34.984.637 1.33-1.345 2.498-1.984 1.16M82.446 132.485c-1.025-3.73-2.962-7.085-3.105-11.034-.054-1.485 2.246-1.477 2.3 0 .134 3.707 2.058 6.916 3.025 10.423.392 1.433-1.827 2.04-2.22.61m6.86-10.268c-.055-4.628-.843-9.09-2.26-13.49-.454-1.416 1.765-2.019 2.22-.613 1.476 4.596 2.28 9.275 2.34 14.103.016 1.484-2.283 1.482-2.3 0m9.197-3.067c-.16-4.698-2.14-9.085-2.3-13.795-.05-1.483 2.25-1.48 2.3 0 .16 4.7 2.14 9.088 2.3 13.796.048 1.486-2.25 1.48-2.3 0m10.73 6.133v-9.2c0-1.48 2.3-1.48 2.3 0v9.2c0 1.48-2.3 1.48-2.3 0m3.832-31.426c-.105-4.137-1.442-8.113-1.532-12.267-.03-1.48 2.268-1.478 2.3 0 .09 4.15 1.425 8.127 1.531 12.267.038 1.484-2.262 1.48-2.299 0m8.432-7.668c-.17-2.138-1.363-3.97-1.533-6.128-.2-2.52 0-5.14 0-7.667 0-1.482 2.3-1.482 2.3 0v6.874c0 2.45 1.34 4.5 1.533 6.922.116 1.48-2.183 1.47-2.3 0m6.133-6.898v-8.43c0-1.482 2.3-1.482 2.3 0v8.43c0 1.481-2.3 1.481-2.3 0m11.498 5.367v-5.366c0-1.483 2.3-1.483 2.3 0v5.366c0 1.482-2.3 1.482-2.3 0m7.056-28.548c-2.286-3.172-3.178-6.67-3.226-10.543-.018-1.484 2.283-1.482 2.3 0 .043 3.498.85 6.526 2.91 9.386.87 1.202-1.126 2.35-1.984 1.157m6.012-4.108c-.854-3.77-2.96-7.1-3.104-11.035-.055-1.484 2.244-1.477 2.298 0 .134 3.683 2.222 6.884 3.025 10.426.326 1.442-1.89 2.056-2.219.61m9.158-5.67v-10.73c0-1.485 2.3-1.485 2.3 0v10.73c0 1.481-2.3 1.481-2.3 0m9.355 2.878c-.89-1.897-.923-3.88-.923-5.945 0-1.483 2.3-1.483 2.3 0 0 1.602-.087 3.3.607 4.786.627 1.336-1.354 2.502-1.984 1.16m3.676-23.574v-8.433c0-1.48 2.3-1.48 2.3 0v8.432c0 1.482-2.3 1.482-2.3 0m9.178-13.533c.223 2.426.02 4.962.02 7.4 0 1.483-2.3 1.483-2.3 0 0-2.643.17-5.344-.074-7.975-.164-1.8-.53-3.615.115-5.36.511-1.377 2.734-.78 2.218.612-.624 1.682-.139 3.59.021 5.323m9.217-.263c.054 1.484-2.245 1.477-2.299 0-.099-2.71-1.469-5.232-.725-7.97.39-1.43 2.606-.822 2.217.611-.652 2.4.717 4.937.807 7.36m5.366 5.363v-6.899c0-1.483 2.3-1.483 2.3 0v6.9c0 1.481-2.3 1.481-2.3 0m21.421 5.672c-.75 2.395-.727 4.87-.727 7.357 0 1.483-2.298 1.483-2.298 0 0-2.684-.002-5.382.808-7.967.442-1.412 2.662-.81 2.217.61m9.2 1.53c-.617 1.934-.727 3.812-.73 5.827 0 1.483-2.297 1.483-2.297 0 .001-2.21.13-4.317.806-6.436.45-1.409 2.672-.808 2.22.61m6.686 6.342c.094 1.106.233 2.206.254 3.318.023 1.485-2.275 1.483-2.3 0-.043-2.472-.848-5.112.157-7.478.577-1.362 2.557-.189 1.985 1.16-.377.888-.172 2.071-.096 3m8.683 19.415V40.97c0-1.482 2.3-1.482 2.3 0v9.2c0 1.481-2.3 1.481-2.3 0m11.496-1.537c-.03 1.48-2.33 1.486-2.298 0 .046-2.074.704-4.07.767-6.13.046-1.48 2.348-1.486 2.3 0-.064 2.065-.723 4.056-.769 6.13m8.434 1.535v-5.367c0-1.483 2.298-1.483 2.298 0v5.367c0 1.482-2.298 1.482-2.298 0m11.835 27.64c-2.198-2.594-1.145-6.92-1.104-10.013.02-1.48 2.321-1.483 2.298 0-.016 1.392-.14 2.781-.18 4.173-.038 1.212-.239 3.212.611 4.213.95 1.123-.665 2.76-1.626 1.626m7.368-1.273c-1.222-3.52-2.998-7.157-1.414-10.848.58-1.36 2.56-.187 1.984 1.158-1.237 2.886.704 6.368 1.65 9.08.485 1.403-1.736 2.002-2.22.61m10.691-1.07c.06 1.482-2.24 1.476-2.3 0-.152-3.689-2.155-6.89-.61-10.548.576-1.362 2.557-.188 1.987 1.16-1.235 2.922.8 6.378.923 9.387m9.962 34.491v-13.03c0-1.485 2.3-1.485 2.3 0v13.03c0 1.483-2.3 1.483-2.3 0m10.576-8.618c-1.318 2.943-.65 6.274-.608 9.384.02 1.484-2.28 1.482-2.299 0-.053-3.62-.61-7.13.922-10.543.607-1.352 2.587-.182 1.985 1.16m7.664 3.83c-1.476 2.472-.638 5.887-.609 8.617.016 1.486-2.283 1.483-2.299 0-.037-3.24-.83-6.84.924-9.777.757-1.272 2.745-.116 1.984 1.16m-142.37 29.62c-.997-3-2.395-6.629-1.533-9.81.39-1.43 2.608-.823 2.22.611-.74 2.712.68 6.028 1.532 8.587.47 1.41-1.752 2.01-2.218.611m10.848-6.624c-1.37-1.819-1.16-4.164-.99-6.32.294-3.705-.61-7.417-.7-11.122-.04-1.484 2.26-1.48 2.298 0 .075 2.987.55 5.94.74 8.916.155 2.36-.894 5.33.637 7.368.894 1.183-1.105 2.327-1.985 1.158m9.041-19.742c-.05-4.355-.717-8.675-.766-13.03-.018-1.486 2.284-1.484 2.3 0 .05 4.355.715 8.675.765 13.03.017 1.485-2.28 1.481-2.3 0m44.456 37.557v-10.73c0-1.48 2.3-1.48 2.3 0v10.73c0 1.482-2.3 1.482-2.3 0m15.371-3.525c-.685-2.892-.804-5.774-.806-8.737 0-1.483 2.3-1.483 2.3 0 .003 2.756.085 5.43.725 8.126.342 1.442-1.874 2.055-2.22.61m13.757-1.07c-.15-2.079-.766-3.953-.766-6.06v-6.207c0-1.48 2.3-1.48 2.3 0v6.205c0 2.087.614 4.001.767 6.06.11 1.48-2.193 1.468-2.3 0m-31.428 92.747c-.025 1.482-2.326 1.484-2.3 0 .057-3.084.714-6.116.77-9.198.026-1.483 2.326-1.485 2.3 0-.057 3.082-.714 6.114-.77 9.198m12.305-1.994c-.84-2.572-1.52-5.254-1.572-7.972-.03-1.484 2.27-1.48 2.298 0 .05 2.515.714 4.982 1.493 7.361.462 1.411-1.757 2.013-2.218.611m12.99-2.605c-.058-3.082-.71-6.116-.768-9.198-.026-1.485 2.274-1.483 2.3 0 .058 3.082.71 6.116.766 9.198.026 1.484-2.273 1.482-2.3 0m42.16-43.69V174.34c0-1.482 2.3-1.482 2.3 0v11.497c0 1.482-2.3 1.482-2.3 0m13.953-3.255c-.685-1.482-.854-3.123-1.533-4.598-.615-1.337 1.365-2.506 1.984-1.159.683 1.483.855 3.122 1.534 4.6.618 1.335-1.365 2.503-1.985 1.157" fill="currentColor"/>
  </g>
  <g>
    <g transform="matrix(1.33333 0 0 -1.33333 0 413.55)">
      <path d="M282.82 182.91c-14.237-9.497-34.293-3.863-49.504-1.289-9.407 1.59-19.27 4.104-27.868 8.186-5.7 2.707-10.516 7.054-16.322 9.53a4.653 4.653 0 0 1-2.034 1.52 5.323 5.323 0 0 1-1.906.913c-2.262.565-3.999-.47-4.939-2.01-2.072-1.215-3.403-3.249-4.632-5.519-3.022-5.597-12.412-11.116-17.374-15.004-15.014-11.753-40.634-11.277-45.637 9.862-3.617 15.293 13.49 24.635 23.078 33.146 6.09 5.403 12.82 10.135 18.96 15.566 6.86 6.068 12.792 12.884 21.961 15.366 14.81 4.01 31.72 1.12 46.881 1.53 13 .354 27.395 2.926 40.438 1.18 2.425-3.594 9.318-1.622 8.316 3.511l-.296 1.504c-.43 2.188-2.124 3.306-4.164 3.704-17.506 3.42-37.814-.814-55.609-.94-15.645-.113-35.746 3.353-49.374-6.672-15.914-11.71-31.004-25.604-45.973-38.54-11.635-10.058-16.59-21.863-11.63-36.82 3.95-11.902 17.174-21.29 29.88-19.45 8.726 1.265 17.41 3.074 25.16 7.377 7.61 4.226 14.07 11.112 20.957 16.42 3.138 2.42 1.666 4.802 4.217 4.956 7.088-2.608 13.074-8.362 20.077-11.234 10.297-4.225 21.363-5.586 32.061-8.41 14.78-3.902 36.528-5.255 49.92 3.675 4.906 3.273.306 11.243-4.644 7.94m-177.51-71.97c-10.159-8.464-19.058 5.357-24.807 12.254-3.81 4.573-5.984 12.97-.88 17.225 1.006.837 1.612 2.013 1.842 3.258 2.87 2.822 5.658 5.94 9.184 7.644 6.48 3.128 14.35-4.173 18.194-8.252 4.228-4.49 6.775-10.317 8.345-16.214 1.48-5.583-7.947-12.64-11.878-15.915m10.598-2.392c5.016 5.41 10.966 9.1 10.49 17.41-.538 9.38-5.882 18.105-12.17 24.786-5.727 6.078-11.944 9.103-20.225 10.384-8.649 1.334-14.373-6.76-19.942-11.83a3.892 3.892 0 0 1-1.336-1.205c-.813-.788-1.228-1.682-1.327-2.59-.954-.355-2.26-2.7-2.654-3.74-1.307-3.466-1.503-6.314-1.26-9.99.49-7.43 4.98-14.194 9.56-19.692 5.455-6.546 10.998-11.373 19.68-12.53 8.603-1.144 13.523 2.894 19.184 8.997" fill="currentColor"/>
      <path d="M136.958 72.96c-10.154-8.465-19.054 5.356-24.805 12.253-3.808 4.573-5.984 12.97-.882 17.223 1.008.84 1.617 2.013 1.843 3.258 2.872 2.823 5.66 5.942 9.184 7.644 6.484 3.128 14.35-4.173 18.192-8.25 4.23-4.49 6.78-10.319 8.345-16.216 1.484-5.583-7.942-12.637-11.877-15.913m10.6-2.394c5.018 5.411 10.967 9.097 10.49 17.411-.536 9.383-5.88 18.106-12.173 24.783-5.725 6.08-11.94 9.107-20.22 10.387-8.65 1.335-14.373-6.758-19.942-11.83a3.824 3.824 0 0 1-1.336-1.204c-.815-.79-1.23-1.682-1.328-2.592-.953-.353-2.263-2.699-2.654-3.742-1.31-3.464-1.504-6.312-1.26-9.99.491-7.43 4.981-14.192 9.56-19.689 5.454-6.547 10.996-11.374 19.678-12.529 8.605-1.144 13.523 2.893 19.184 8.995" fill="currentColor"/>
      <path d="M167.213 40.342c-9.298-7.747-17.443 4.902-22.708 11.216-3.486 4.19-5.48 11.876-.81 15.767.922.772 1.482 1.842 1.686 2.984 2.632 2.581 5.183 5.435 8.41 6.997 5.933 2.865 13.14-3.819 16.655-7.555 3.87-4.109 6.203-9.44 7.638-14.843 1.358-5.108-7.273-11.567-10.87-14.566m9.7-2.19c4.593 4.951 10.04 8.326 9.604 15.938-.49 8.587-5.384 16.574-11.143 22.687-5.244 5.565-10.933 8.335-18.512 9.506-7.92 1.221-13.156-6.185-18.256-10.826a3.58 3.58 0 0 1-1.222-1.106c-.746-.719-1.125-1.539-1.213-2.37-.876-.325-2.072-2.473-2.432-3.423-1.197-3.175-1.38-5.78-1.154-9.148.45-6.802 4.56-12.994 8.75-18.023 4.998-5.998 10.07-10.412 18.018-11.472 7.876-1.047 12.38 2.65 17.56 8.237" fill="currentColor"/>
      <path d="M195.67 9.78c-8.577-7.146-16.09 4.53-20.943 10.353-3.222 3.863-5.058 10.955-.748 14.543.85.71 1.364 1.702 1.558 2.752 2.423 2.382 4.78 5.017 7.754 6.456 5.478 2.643 12.12-3.526 15.367-6.97 3.568-3.787 5.722-8.71 7.043-13.69 1.254-4.715-6.71-10.674-10.03-13.444m8.95-2.017c4.24 4.57 9.265 7.68 8.862 14.705-.45 7.92-4.97 15.29-10.28 20.927-4.837 5.133-10.085 7.692-17.078 8.77-7.305 1.13-12.138-5.705-16.844-9.987a3.246 3.246 0 0 1-1.123-1.02c-.69-.66-1.04-1.42-1.125-2.188-.805-.297-1.91-2.276-2.24-3.158-1.105-2.923-1.27-5.33-1.067-8.436.417-6.276 4.207-11.984 8.08-16.63 4.605-5.53 9.287-9.606 16.616-10.58 7.268-.97 11.42 2.442 16.2 7.597M78.5 154.134c-1.8 5.695-3.737 11.182-6.853 16.467-4.417 7.496-12.28 13.67-18.827 19.22-.54.456-1.077.906-1.61 1.352a816.24 816.24 0 0 1-7.902-5.792c2.093-1.576 4.12-3.01 5.596-4.258 11.704-9.917 17.844-20.185 22.387-34.76.817-2.626 4.24-4.546 6.757-2.75 2.56 1.83 3.143 3.15 3.427 6.27.22 2.417-1.196 3.817-2.974 4.251m80.077 99.063c-4.129 1.22-8.877 5.595-13.115 9.797a170.642 170.642 0 0 1-7.63-4.985c.663-.48 1.35-.929 2.058-1.343 6.115-3.616 9.19-10.257 16.244-12.34 5.702-1.685 8.121 7.194 2.443 8.87" fill="currentColor"/>
      <path d="M146.268 270.172c-.927-1.394-1.979-1.366-3.717-2.183-7.68-3.612-13.493-11.626-20.666-15.925-7.956-4.772-15.47-11.403-23.024-16.94-7.288-5.34-15.304-10.02-22.379-15.547-13.896-10.849-27.275-22.865-41.489-33.294-.337.398-.697.81-1.077 1.272-2.669 3.24-5.766 6.252-8.432 9.581-2.86 3.578-5.793 6.807-9.005 10.06-1.276 1.294-5.298 6.35-5.907 8.221a4.586 4.586 0 0 1-1.296 2.023c1.55 3.328 8.046 6.136 10.833 8.203 4.787 3.545 9.283 7.492 13.807 11.362 9.74 8.328 19.45 16.434 30.498 23.044 8.973 5.366 18.916 11.92 26.451 19.283 7.202 7.044 16.971 15.092 26.273 20.125 7.13-4.773 13.783-9.149 19.884-15.696 3.125-3.353 9.085-9.372 10.346-10.637 2.748-2.745.898.044-1.1-2.952m7.673 9.682c-.806 1.482-.724 1.65-.305.197-.063.04-.118.08-.185.118-1.767 3.77-7.288 7.458-9.924 10.097-6.516 6.518-13.057 11.194-20.285 16.12-.73 1.967-2.763 3.617-5.154 3.397-2.36 1.082-4.52-.292-5.466-2.325-9.142-4.968-17.772-12.586-25.393-19.152-10.552-9.089-22.187-16.775-33.897-24.315-10.532-6.78-19.65-15.122-29.139-23.236-5.715-4.889-11.819-8.998-17.85-13.418-3.1-2.273-5.21-4.429-6.173-8.087-.503-1.914.16-3.45 1.31-4.45a4.602 4.602 0 0 1 .222-1.825c.88-2.707 2.723-4.197 4.297-6.466 2.215-3.193 3.978-5.899 6.856-8.648 3.441-3.285 6.223-7.35 9.192-11.06 1.322-1.653 5.874-5.16 6.482-6.784.2-.527.49-1.015.856-1.443.38-1.883 1.862-3.468 4.346-3.468h.767c1.994 0 3.301 1.045 3.956 2.426 6.363 4.754 12.302 10.09 18.637 15.016 4 3.111 9.93 5.941 13.391 9.625 4.1 4.361 9.451 8.997 14.627 11.887 19.492 10.88 35.228 28.378 54.133 39.664 6.296 3.758 28.028 17.517 14.7 26.13m103.693-6.73c1.263 1.265 7.222 7.284 10.346 10.637 6.1 6.547 12.755 10.923 19.884 15.696 9.302-5.033 19.073-13.08 26.275-20.125 7.533-7.363 17.476-13.917 26.45-19.283 11.048-6.61 20.758-14.716 30.496-23.044 4.525-3.87 9.02-7.818 13.808-11.362 2.787-2.067 9.283-4.875 10.834-8.204a4.58 4.58 0 0 1-1.295-2.022c-.61-1.872-4.63-6.927-5.91-8.22-3.21-3.254-6.142-6.483-9.004-10.06-2.664-3.33-5.762-6.342-8.433-9.582-.38-.463-.738-.874-1.075-1.272-14.213 10.43-27.593 22.445-41.49 33.294-7.075 5.526-15.09 10.207-22.38 15.547-7.552 5.537-15.067 12.168-23.023 16.94-7.17 4.3-12.984 12.313-20.666 15.925-1.738.817-2.79.79-3.715 2.183-2 2.996-3.85.207-1.102 2.952m8.128-19.4c18.903-11.287 34.64-28.786 54.132-39.664 5.176-2.89 10.526-7.526 14.628-11.887 3.46-3.684 9.39-6.514 13.39-9.625 6.334-4.926 12.274-10.262 18.638-15.016.653-1.382 1.96-2.427 3.954-2.427h.77c2.482 0 3.963 1.585 4.344 3.47.342.405.642.87.855 1.442.61 1.624 5.16 5.13 6.483 6.783 2.97 3.711 5.752 7.776 9.19 11.061 2.88 2.75 4.642 5.454 6.857 8.648 1.574 2.27 3.418 3.76 4.298 6.466.213.657.27 1.262.223 1.825 1.15 1 1.813 2.536 1.31 4.45-.964 3.658-3.074 5.813-6.175 8.087-6.03 4.42-12.135 8.53-17.85 13.418-9.487 8.114-18.606 16.456-29.138 23.236-11.712 7.54-23.345 15.226-33.898 24.315-7.62 6.566-16.25 14.184-25.392 19.152-.946 2.033-3.105 3.407-5.466 2.325-2.39.22-4.425-1.43-5.153-3.397-7.23-4.926-13.77-9.602-20.285-16.12-2.636-2.639-8.158-6.329-9.926-10.097-.067-.038-.12-.078-.184-.118.418 1.453.5 1.285-.305-.198-13.33-8.612 8.403-22.372 14.7-26.129m62.68-118.538c-5.169 7.48-10.304 14.15-17.083 20.376-3.129 2.872-5.92 5.895-9.432 8.282-3.553 2.42-12.884 6.352-13.885 10.95-1.263 5.798-10.128 3.338-8.87-2.443 1.616-7.43 9.097-10.592 15.144-14.245 8.102-4.896 14.668-13.348 21.3-19.976 6.695-6.696 17.274-22.217 8.43-29.523-4.637-3.83-7.65-4.807-13.61-5.55-3.148-.394-4.86.394-7.688-1.395-1.316-.83-2.378-2.34-2.277-3.97.523-8.447 6.064-15.908-.568-23.81-6.86-8.176-14.626-2.828-22.045-2.828-3.366 0-7.076-3.003-6.706-6.705 1.553-15.55-9.235-25.67-24.646-20.478-2.969 1.002-5.675-1.608-5.82-4.434-.943-18.196-13.194-18.428-27.258-17.76-2.699 1.693-7.236.466-7.236-3.702v-.766c0-2.603 2.095-4.47 4.6-4.598 10.824-.543 19.321-.89 29.434 3.884 8.035 3.794 9.086 9.96 9.423 17.107 7.096-1.195 14.644-.24 20.464 4.343 3.534 2.783 7.338 6.304 8.695 10.78.554 1.83 2.155 7.973 1.855 11.233 10.927-3.375 24.37 4.002 29.911 13.183 3.46 5.736 2.13 14.36.365 20.406-.023.116-.064.224-.089.334.888.032 1.772.14 2.654.36 3.613.452 7.518.65 10.751 2.546 6.612 3.873 11.94 9.486 14.092 16.77 2.811 9.52-5.242 14.883-9.905 21.63" fill="currentColor"/>
      <path d="M360.26 186.603h-.769c-2.008 0-3.942-1.4-4.435-3.38-3.37-13.49-9.008-28.355-19.512-37.824-1.648-1.484-2.086-3.49-3.955-4.647-.864-.532-5.85-3.204-2.375-3.204-1.892 0-3.474-.962-4.495-2.404-4.858-1.018-4.51-9.093 1.05-9.093 3.025 0 4.4.88 5.87 2.866 6.397 2.405 13.545 11.91 16.496 16.273 7.03 10.408 11.95 21.372 15.198 33.404 2.542 2.48 1.53 8.01-3.074 8.01" fill="currentColor"/>
    </g>
  </g>
</svg>
