<svg xmlns="http://www.w3.org/2000/svg" viewBox="0 0 133.065 366.219"><defs><clipPath id="a"><path d="M1.678 48.63c0-23.643 19.236-42.878 42.878-42.878a42.64 42.64 0 0 1 17.486 3.73c-1.558 3.845-3.351 8.261-5.056 12.461a29.249 29.249 0 0 0-12.43-2.757c-16.235 0-29.442 13.209-29.442 29.444s13.207 29.443 29.442 29.443C60.792 78.073 74 64.865 74 48.63c0-3.608-.654-7.065-1.847-10.262l12.243-5.591a42.658 42.658 0 0 1 3.038 15.853c0 23.643-19.235 42.878-42.878 42.878-23.642 0-42.878-19.235-42.878-42.878"/></clipPath><linearGradient id="b" gradientTransform="scale(85.39954 -85.39954) rotate(29 1.613 -.247)" gradientUnits="userSpaceOnUse" x2="1"><stop offset="0" stop-color="#f5ce1f"/><stop offset=".18" stop-color="#fee860"/><stop offset=".196" stop-color="#fee860"/><stop offset=".458" stop-color="#fbde39"/><stop offset=".467" stop-color="#fbde39"/><stop offset=".748" stop-color="#fdf584"/><stop offset=".757" stop-color="#fdf584"/><stop offset=".969" stop-color="#ffff28"/><stop offset="1" stop-color="#ffff28"/></linearGradient><clipPath id="c"><path d="M1.678 48.63c0-23.643 19.236-42.878 42.878-42.878a42.64 42.64 0 0 1 17.486 3.73c-1.558 3.845-3.351 8.261-5.056 12.461a29.249 29.249 0 0 0-12.43-2.757c-16.235 0-29.442 13.209-29.442 29.444s13.207 29.443 29.442 29.443C60.792 78.073 74 64.865 74 48.63c0-3.608-.654-7.065-1.847-10.262l12.243-5.591a42.658 42.658 0 0 1 3.038 15.853c0 23.643-19.235 42.878-42.878 42.878-23.642 0-42.878-19.235-42.878-42.878"/></clipPath><linearGradient id="d" gradientTransform="scale(85.39954 -85.39954) rotate(29 1.613 -.247)" gradientUnits="userSpaceOnUse" x2="1"><stop offset="0" stop-color="#f5ce1f"/><stop offset=".18" stop-color="#fee860"/><stop offset=".196" stop-color="#fee860"/><stop offset=".458" stop-color="#fbde39"/><stop offset=".467" stop-color="#fbde39"/><stop offset=".748" stop-color="#fdf584"/><stop offset=".757" stop-color="#fdf584"/><stop offset=".969" stop-color="#ffff28"/><stop offset="1" stop-color="#ffff28"/></linearGradient><clipPath id="e"><path d="M0 99.799h274.664V0H0z"/></clipPath><clipPath id="f"><path d="M1.678 48.63c0-23.643 19.236-42.878 42.878-42.878a42.64 42.64 0 0 1 17.486 3.73c-1.558 3.845-3.351 8.261-5.056 12.461a29.249 29.249 0 0 0-12.43-2.757c-16.235 0-29.442 13.209-29.442 29.444s13.207 29.443 29.442 29.443C60.792 78.073 74 64.865 74 48.63c0-3.608-.654-7.065-1.847-10.262l12.243-5.591a42.658 42.658 0 0 1 3.038 15.853c0 23.643-19.235 42.878-42.878 42.878-23.642 0-42.878-19.235-42.878-42.878"/></clipPath><linearGradient id="g" gradientTransform="scale(85.39954 -85.39954) rotate(29 1.613 -.247)" gradientUnits="userSpaceOnUse" x2="1"><stop offset="0" stop-color="#46b1dd"/><stop offset=".918" stop-color="#0062ae"/><stop offset="1" stop-color="#0062ae"/></linearGradient><clipPath id="h"><path d="M1.678 48.63c0-.433.009-.864.022-1.295l.014-.386c.014-.31.028-.621.046-.929l.027-.405c.024-.347.053-.692.085-1.038.008-.078.013-.158.022-.237.042-.429.091-.856.147-1.281l.033-.238c.047-.347.099-.693.154-1.038l.055-.334c.058-.339.119-.676.185-1.013.015-.081.03-.163.047-.245.171-.85.367-1.693.587-2.525l.054-.198c.098-.362.199-.722.307-1.08l.053-.182a43.005 43.005 0 0 1 1.316-3.709l.04-.098a42.741 42.741 0 0 1 1.679-3.602l.006-.011c.207-.394.419-.783.637-1.169-.936 4.726 1.488 17.308 8.488 26.78 2.689 13.483 14.613 23.676 28.874 23.676 10.439 0 19.625-5.461 24.856-13.674 8.43-1.735 15.402-4.308 17.235-7.582-.06.307-.124.614-.189.919l-.002.006a42.435 42.435 0 0 1-2.201 7.083l-.005.013a42.76 42.76 0 0 1-3.319 6.467l-.04.065c-.149.238-.301.472-.453.706-.017.026-.035.051-.051.077a40.75 40.75 0 0 1-.471.7l-.027.039a42.977 42.977 0 0 1-2.715 3.536l-.044.051c-.169.198-.341.394-.514.589l-.117.131c-.163.183-.328.364-.495.544-.048.053-.098.105-.147.157-.164.177-.33.351-.496.523l-.15.154c-.171.174-.343.349-.516.52l-.121.117a42.973 42.973 0 0 1-2.468 2.243c-.05.042-.101.087-.153.129-.17.142-.342.281-.514.42l-.235.191a35.95 35.95 0 0 1-.491.383l-.274.21c-.161.122-.322.242-.483.362l-.291.212c-.162.117-.323.234-.487.349l-.297.207c-.164.112-.328.226-.494.338l-.289.19c-.58.382-1.17.751-1.769 1.105-.115.069-.229.138-.345.205-.154.089-.31.176-.464.263l-.389.218c-.151.083-.304.164-.456.246-.136.072-.273.145-.411.216-.149.078-.3.154-.45.231l-.428.213c-.148.073-.298.145-.447.216-.15.072-.299.142-.448.21-.147.068-.294.136-.441.202-.16.071-.321.142-.481.211-.139.06-.278.121-.418.18-.199.085-.402.167-.604.247a46.228 46.228 0 0 1-1.199.466c-.127.047-.255.091-.382.136-.184.066-.369.133-.556.196-.136.047-.274.092-.409.137-.18.059-.359.119-.539.175-.14.044-.28.088-.422.13-.179.055-.358.109-.538.161-.14.04-.283.082-.424.12a32.02 32.02 0 0 1-.553.151l-.415.109c-.196.049-.391.096-.587.143-.131.031-.259.063-.389.093-.228.053-.459.101-.688.15-.099.02-.197.043-.296.064a51.82 51.82 0 0 1-.984.189l-.257.043c-.248.043-.496.084-.745.124l-.375.054c-.212.032-.422.062-.636.09l-.411.051a55.25 55.25 0 0 1-1.033.113c-.203.019-.407.037-.611.054l-.421.033c-.211.015-.422.028-.633.04l-.403.023c-.232.011-.464.019-.697.026-.115.004-.229.009-.344.012-.346.008-.694.014-1.044.014-23.642 0-42.878-19.235-42.878-42.878"/></clipPath><linearGradient id="i" gradientTransform="scale(-21.42072 21.42072) rotate(-48.814 2.364 4.282)" gradientUnits="userSpaceOnUse" x2="1"><stop offset="0" stop-color="#46b1dd"/><stop offset=".918" stop-color="#0062ae"/><stop offset="1" stop-color="#0062ae"/></linearGradient><clipPath id="j"><path d="M67.718 66.789A29.296 29.296 0 0 0 74 48.63c0-3.608-.654-7.065-1.847-10.262l12.243-5.591a42.615 42.615 0 0 1 2.986 13.733l.003.049c.013.284.022.57.03.858a34.894 34.894 0 0 1 .015.894l.002.458-.005.461c-.004.228-.007.454-.014.681a43.189 43.189 0 0 1-2.124 12.113 62.224 62.224 0 0 1-.406 1.178c-.046.127-.094.253-.141.38a31.57 31.57 0 0 1-.283.743c-.003.009-.007.017-.009.026-3.566 9.015-10.106 16.543-18.4 21.368l-.247.144c-.191.109-.385.217-.578.323a36.69 36.69 0 0 1-.733.395l-.245.13a42.643 42.643 0 0 1-11.395 3.959c4.207-2.361 12.214-12.393 14.866-23.881"/></clipPath><linearGradient id="k" gradientTransform="matrix(0 40.9742 40.9742 0 70.142 48.406)" gradientUnits="userSpaceOnUse" x2="1"><stop offset="0" stop-color="#46b1dd"/><stop offset=".918" stop-color="#0062ae"/><stop offset="1" stop-color="#0062ae"/></linearGradient><clipPath id="l"><path d="M0 99.799h274.664V0H0z"/></clipPath><clipPath id="m"><path d="M58.163 35.871c-.104-.159-.188-.332-.281-.499l-.034-.6c1.009-2.5 11.814-29.094 12.645-31.183.243-.609.693-.933 1.311-1.098a1.27 1.27 0 0 1 .449-.004c.178.035.284.071.434.132.631.257 1.004.662 1.108 1.324.195 1.226.388 2.452.584 3.677l1.153 7.187c.154.982.313 1.964.454 2.946.031.198.109.257.302.271 2.929.256 5.86.516 8.789.774 1.775.156 3.545.326 5.321.46.911.069 1.475.528 1.79 1.338.219.419-.066 1.032-.212 1.243-.264.376-.689.569-1.057.737-1.659.756-25.694 11.734-27.853 12.719-.871.397-1.743.799-2.617 1.194-.19.085-.391.151-.587.224l-.394.003c-.526-.141-1-.371-1.305-.845"/></clipPath><linearGradient id="n" gradientTransform="matrix(-25.447 22.45324 22.45324 25.447 81.073 12.75)" gradientUnits="userSpaceOnUse" x2="1"><stop offset="0" stop-color="#465053"/><stop offset=".448" stop-color="#e0e0e0"/><stop offset=".573" stop-color="#e0e0e0"/><stop offset=".678" stop-color="#e0e0e0"/><stop offset="1" stop-color="#8b9298"/></linearGradient><clipPath id="o"><path d="M57.882 35.372c-.081-.269-.059-.36-.034-.6 1.009-2.5 11.814-29.094 12.645-31.183.243-.609.693-.933 1.311-1.098a1.27 1.27 0 0 1 .449-.004c.178.035.284.071.434.132.631.257 1.004.662 1.108 1.324.195 1.226.388 2.452.584 3.677l1.153 7.187c.154.982.313 1.964.454 2.946.031.198-.075.211.118.225l-17.6 18.304c-.317-.272-.529-.743-.622-.91"/></clipPath><linearGradient id="p" gradientTransform="scale(32.50861 -32.50861) rotate(60 1.713 1.27)" gradientUnits="userSpaceOnUse" x2="1"><stop offset="0" stop-color="#465053"/><stop offset=".448" stop-color="#e0e0e0"/><stop offset=".573" stop-color="#e0e0e0"/><stop offset=".678" stop-color="#e0e0e0"/><stop offset="1" stop-color="#8b9298"/></linearGradient><clipPath id="q"><path d="M0 99.799h274.664V0H0z"/></clipPath></defs><g clip-path="url(#a)" transform="matrix(1.33333 0 0 -1.33333 0 133.065)"><path d="M1.678 48.63c0-23.643 19.236-42.878 42.878-42.878a42.64 42.64 0 0 1 17.486 3.73c-1.558 3.845-3.351 8.261-5.056 12.461a29.249 29.249 0 0 0-12.43-2.757c-16.235 0-29.442 13.209-29.442 29.444s13.207 29.443 29.442 29.443C60.792 78.073 74 64.865 74 48.63c0-3.608-.654-7.065-1.847-10.262l12.243-5.591a42.658 42.658 0 0 1 3.038 15.853c0 23.643-19.235 42.878-42.878 42.878-23.642 0-42.878-19.235-42.878-42.878" fill="url(#b)"/></g><g clip-path="url(#c)" transform="matrix(1.33333 0 0 -1.33333 0 133.065)"><path d="M1.678 48.63c0-23.643 19.236-42.878 42.878-42.878a42.64 42.64 0 0 1 17.486 3.73c-1.558 3.845-3.351 8.261-5.056 12.461a29.249 29.249 0 0 0-12.43-2.757c-16.235 0-29.442 13.209-29.442 29.444s13.207 29.443 29.442 29.443C60.792 78.073 74 64.865 74 48.63c0-3.608-.654-7.065-1.847-10.262l12.243-5.591a42.658 42.658 0 0 1 3.038 15.853c0 23.643-19.235 42.878-42.878 42.878-23.642 0-42.878-19.235-42.878-42.878" fill="url(#d)"/></g><g clip-path="url(#e)" transform="matrix(1.33333 0 0 -1.33333 0 133.065)"><path d="M42.877 16.5c-16.234 0-29.442 13.207-29.442 29.442 0 16.236 13.208 29.444 29.442 29.444 16.235 0 29.443-13.208 29.443-29.444 0-3.607-.654-6.43-1.846-9.628 3.47-1.847 11.363-5.485 11.363-5.485s2.537 1.897 2.547 1.96c.811 5.597 1.371 8.274 1.371 13.153 0 23.643-19.234 42.878-42.878 42.878C19.234 88.82 0 69.585 0 45.942 0 22.3 19.234 3.065 42.877 3.065a42.64 42.64 0 0 1 17.486 3.73c.538.916 1.659 2.707 1.659 2.707s-5.43 6.587-6.715 9.753a29.285 29.285 0 0 0-12.43-2.756" fill="#00314c"/></g><g clip-path="url(#f)" transform="matrix(1.33333 0 0 -1.33333 0 133.065)"><path d="M1.678 48.63c0-23.643 19.236-42.878 42.878-42.878a42.64 42.64 0 0 1 17.486 3.73c-1.558 3.845-3.351 8.261-5.056 12.461a29.249 29.249 0 0 0-12.43-2.757c-16.235 0-29.442 13.209-29.442 29.444s13.207 29.443 29.442 29.443C60.792 78.073 74 64.865 74 48.63c0-3.608-.654-7.065-1.847-10.262l12.243-5.591a42.658 42.658 0 0 1 3.038 15.853c0 23.643-19.235 42.878-42.878 42.878-23.642 0-42.878-19.235-42.878-42.878" fill="url(#g)"/></g><g clip-path="url(#h)" transform="matrix(1.33333 0 0 -1.33333 0 133.065)"><path d="M1.678 48.63c0-.433.009-.864.022-1.295l.014-.386c.014-.31.028-.621.046-.929l.027-.405c.024-.347.053-.692.085-1.038.008-.078.013-.158.022-.237.042-.429.091-.856.147-1.281l.033-.238c.047-.347.099-.693.154-1.038l.055-.334c.058-.339.119-.676.185-1.013.015-.081.03-.163.047-.245.171-.85.367-1.693.587-2.525l.054-.198c.098-.362.199-.722.307-1.08l.053-.182a43.005 43.005 0 0 1 1.316-3.709l.04-.098a42.741 42.741 0 0 1 1.679-3.602l.006-.011c.207-.394.419-.783.637-1.169-.936 4.726 1.488 17.308 8.488 26.78 2.689 13.483 14.613 23.676 28.874 23.676 10.439 0 19.625-5.461 24.856-13.674 8.43-1.735 15.402-4.308 17.235-7.582-.06.307-.124.614-.189.919l-.002.006a42.435 42.435 0 0 1-2.201 7.083l-.005.013a42.76 42.76 0 0 1-3.319 6.467l-.04.065c-.149.238-.301.472-.453.706-.017.026-.035.051-.051.077a40.75 40.75 0 0 1-.471.7l-.027.039a42.977 42.977 0 0 1-2.715 3.536l-.044.051c-.169.198-.341.394-.514.589l-.117.131c-.163.183-.328.364-.495.544-.048.053-.098.105-.147.157-.164.177-.33.351-.496.523l-.15.154c-.171.174-.343.349-.516.52l-.121.117a42.973 42.973 0 0 1-2.468 2.243c-.05.042-.101.087-.153.129-.17.142-.342.281-.514.42l-.235.191a35.95 35.95 0 0 1-.491.383l-.274.21c-.161.122-.322.242-.483.362l-.291.212c-.162.117-.323.234-.487.349l-.297.207c-.164.112-.328.226-.494.338l-.289.19c-.58.382-1.17.751-1.769 1.105-.115.069-.229.138-.345.205-.154.089-.31.176-.464.263l-.389.218c-.151.083-.304.164-.456.246-.136.072-.273.145-.411.216-.149.078-.3.154-.45.231l-.428.213c-.148.073-.298.145-.447.216-.15.072-.299.142-.448.21-.147.068-.294.136-.441.202-.16.071-.321.142-.481.211-.139.06-.278.121-.418.18-.199.085-.402.167-.604.247a46.228 46.228 0 0 1-1.199.466c-.127.047-.255.091-.382.136-.184.066-.369.133-.556.196-.136.047-.274.092-.409.137-.18.059-.359.119-.539.175-.14.044-.28.088-.422.13-.179.055-.358.109-.538.161-.14.04-.283.082-.424.12a32.02 32.02 0 0 1-.553.151l-.415.109c-.196.049-.391.096-.587.143-.131.031-.259.063-.389.093-.228.053-.459.101-.688.15-.099.02-.197.043-.296.064a51.82 51.82 0 0 1-.984.189l-.257.043c-.248.043-.496.084-.745.124l-.375.054c-.212.032-.422.062-.636.09l-.411.051a55.25 55.25 0 0 1-1.033.113c-.203.019-.407.037-.611.054l-.421.033c-.211.015-.422.028-.633.04l-.403.023c-.232.011-.464.019-.697.026-.115.004-.229.009-.344.012-.346.008-.694.014-1.044.014-23.642 0-42.878-19.235-42.878-42.878" fill="url(#i)"/></g><g clip-path="url(#j)" transform="matrix(1.33333 0 0 -1.33333 0 133.065)"><path d="M67.718 66.789A29.296 29.296 0 0 0 74 48.63c0-3.608-.654-7.065-1.847-10.262l12.243-5.591a42.615 42.615 0 0 1 2.986 13.733l.003.049c.013.284.022.57.03.858a34.894 34.894 0 0 1 .015.894l.002.458-.005.461c-.004.228-.007.454-.014.681a43.189 43.189 0 0 1-2.124 12.113 62.224 62.224 0 0 1-.406 1.178c-.046.127-.094.253-.141.38a31.57 31.57 0 0 1-.283.743c-.003.009-.007.017-.009.026-3.566 9.015-10.106 16.543-18.4 21.368l-.247.144c-.191.109-.385.217-.578.323a36.69 36.69 0 0 1-.733.395l-.245.13a42.643 42.643 0 0 1-11.395 3.959c4.207-2.361 12.214-12.393 14.866-23.881" fill="url(#k)"/></g><g clip-path="url(#l)" transform="matrix(1.33333 0 0 -1.33333 0 133.065)"><path d="M57.963 35.496c.132-.004 1.752-1.102 1.884-1.105.194-.077.394-.147.583-.235.867-.41 1.73-.827 2.595-1.24 2.141-1.024 25.976-12.428 27.622-13.213.366-.174 1.317 1.712 1.573 1.33.142-.212-.112-2.917-.34-3.332-.329-.804-.9-1.253-1.813-1.306-1.778-.103-3.55-.24-5.328-.365-2.932-.206-5.868-.414-8.8-.618-.195-.01-.275-.068-.308-.267-.158-.979-.334-1.958-.507-2.937-.426-2.39-.854-4.777-1.28-7.164-.217-1.222-.432-2.444-.65-3.667A1.798 1.798 0 0 0 71.418 0c-1.6-.026-2.036.735-2.414 1.533-.962 2.031-10.273 26.554-11.237 29.072-.896 2.575-.35 3.8.196 4.891" fill="#2a3133"/></g><g clip-path="url(#m)" transform="matrix(1.33333 0 0 -1.33333 0 133.065)"><path d="M58.163 35.871c-.104-.159-.188-.332-.281-.499l-.034-.6c1.009-2.5 11.814-29.094 12.645-31.183.243-.609.693-.933 1.311-1.098a1.27 1.27 0 0 1 .449-.004c.178.035.284.071.434.132.631.257 1.004.662 1.108 1.324.195 1.226.388 2.452.584 3.677l1.153 7.187c.154.982.313 1.964.454 2.946.031.198.109.257.302.271 2.929.256 5.86.516 8.789.774 1.775.156 3.545.326 5.321.46.911.069 1.475.528 1.79 1.338.219.419-.066 1.032-.212 1.243-.264.376-.689.569-1.057.737-1.659.756-25.694 11.734-27.853 12.719-.871.397-1.743.799-2.617 1.194-.19.085-.391.151-.587.224l-.394.003c-.526-.141-1-.371-1.305-.845" fill="url(#n)"/></g><g clip-path="url(#o)" transform="matrix(1.33333 0 0 -1.33333 0 133.065)"><path d="M57.882 35.372c-.081-.269-.059-.36-.034-.6 1.009-2.5 11.814-29.094 12.645-31.183.243-.609.693-.933 1.311-1.098a1.27 1.27 0 0 1 .449-.004c.178.035.284.071.434.132.631.257 1.004.662 1.108 1.324.195 1.226.388 2.452.584 3.677l1.153 7.187c.154.982.313 1.964.454 2.946.031.198-.075.211.118.225l-17.6 18.304c-.317-.272-.529-.743-.622-.91" fill="url(#p)"/></g><g clip-path="url(#q)" fill="#12253f" transform="matrix(1.33333 0 0 -1.33333 0 133.065)"><text style="-inkscape-font-specification:Lato-Black" transform="matrix(1 0 0 -1 98.621 37.2)" font-weight="900" font-size="72.432" font-family="Lato Black"><tspan y="0" x="0 59.031754 128.56609">QMC</tspan></text><text style="-inkscape-font-specification:Lato-Regular" transform="matrix(1 0 0 -1 105.666 6.713)" font-weight="400" font-size="21.596" font-family="Lato"><tspan y="0" x="0 12.093592 24.122396 29.305365 39.606514 50.577129 56.105629 73.870255 86.115013 98.165413 109.28936 119.89285 125.42135 135.72249 140.81908 146.00204 156.30319">quick money click</tspan></text></g></svg>