<svg version="1.1" xmlns="http://www.w3.org/2000/svg" xmlns:xlink="http://www.w3.org/1999/xlink" viewBox="0 0 365.978 487.778" overflow="scroll">
  <defs>
    <path id="a4" d="M0 0h365.978v487.777H0z"/>
  </defs>
  <clipPath id="b3">
    <use xlink:href="#a4" overflow="visible"/>
  </clipPath>
  <g transform="matrix(1.33333 0 0 -1.33333 0 487.779)" clip-path="url(#b3)">
    <path d="M85.77 352.231c-6.65-1.19-12.129-4.392-17.393-8.534-7.46-5.876-14.903-11.677-21.9-18.117-14.395-13.252-26.28-29.292-39.397-43.78-.993-1.097.628-2.728 1.626-1.625 12.203 13.48 23.33 28.221 36.362 40.907 6.398 6.226 13.254 11.968 20.33 17.404 6.563 5.042 12.598 10.028 20.982 11.524 1.457.262.84 2.48-.61 2.22m35.642 8.048c-10.193-3.616-19.067-9.784-28.353-15.188-10.23-5.953-18.42-15.619-27.133-23.495-8.942-8.079-17.48-16.608-26.118-25.013-8.14-7.917-17.11-16.095-23.71-25.364-.862-1.21 1.135-2.355 1.986-1.158 6.478 9.097 15.384 17.1 23.35 24.896 8.103 7.932 16.136 16.001 24.55 23.604 17.067 15.42 33.84 31.627 56.038 39.5 1.39.49.79 2.715-.61 2.218m23.34-1.952c-.216-.87-2.163-.214-2.646-.347-2.017-.556-4.075-2.396-5.725-3.608-5.31-3.904-10.384-7.99-15.865-11.683-10.4-7.008-21.007-13.663-30.867-21.439-9.987-7.872-19.858-15.67-29.213-24.302-4.557-4.206-8.844-8.69-13.308-12.992-2.354-2.269-4.932-4.315-7.388-6.467-1.96-1.714-4.27-4.947-6.858-5.74-1.414-.434-.81-2.654.61-2.217 3.677 1.127 6.563 5.184 9.352 7.625 5.134 4.494 9.957 9.212 14.834 13.982 10.074 9.858 21.18 18.175 31.97 27.17 11.06 9.218 23.545 16.603 35.418 24.69 5.265 3.588 10.057 7.867 15.33 11.388 2.45 1.637 5.744-.023 6.575 3.33.355 1.437-1.862 2.048-2.218.61m19.504-.307c-4.463-.474-7.9-3.235-11.345-5.92-5.776-4.505-11.6-8.942-17.336-13.502-13.307-10.577-26.55-21.194-40.184-31.352-11.084-8.259-22.256-16.562-33.819-24.13-3.167-2.076-13.193-6.778-10.983-11.907.155-.359.627-.569.992-.569h1.151c1.481 0 1.481 2.3 0 2.3-1.872 0 .753 1.427 1.706 2.338 1.608 1.54 3.563 2.754 5.412 3.98 2.661 1.767 5.26 3.616 7.91 5.392 11.67 7.821 22.944 16.227 34.19 24.641 10.195 7.626 20.122 15.591 30.064 23.542 5.21 4.166 10.432 8.314 15.691 12.416 4.603 3.59 10.532 9.833 16.551 10.472 1.46.154 1.473 2.457 0 2.3m8.385-4.935c-2.684-2.628-5.8-4.68-8.54-7.332-3.968-3.841-8.376-7.203-12.48-10.897a7857.226 7857.226 0 0 0-23.917-21.454c-8.358-7.457-17.656-13.734-26.688-20.335-3.425-2.5-6.983-4.932-10.097-7.82-2.3-2.133-5.124-3.827-7.723-5.566-.819-.547-1.068-1.8-2.027-2.183-1.358-.545-.767-2.768.612-2.22 2.35.943 3.843 3.259 5.982 4.716 4.42 3.012 8.394 6.629 12.688 9.82 8.586 6.378 17.863 12.16 25.864 19.276 8.46 7.523 16.877 15.097 25.294 22.666 7.41 6.666 15.561 12.75 22.658 19.703 1.06 1.038-.566 2.66-1.626 1.626m15.454-3.154c-7.545-2.983-12.276-9.595-17.754-15.244-5.014-5.172-12.207-7.818-14.093-15.453-.354-1.44 1.864-2.05 2.218-.612 1.6 6.479 7.95 9.767 12.737 13.737 6.104 5.052 9.755 12.293 17.502 15.354 1.365.538.772 2.765-.61 2.219m18.122-2.417c-7.7-5.133-15.374-9.886-21.106-17.315-3.036-3.932-7.763-6.942-11.206-10.578-3.916-4.136-7.618-8.461-11.612-12.528-1.04-1.058.587-2.684 1.626-1.625 7.146 7.274 13.393 15.528 21.611 21.664 2.708 2.024 4.915 5.795 7.474 8.187 4.271 3.99 9.524 6.977 14.371 10.21 1.23.818.08 2.81-1.158 1.985m16.096-8.048c-7.246-3.92-12.728-11.116-18.285-17.044-7.927-8.452-16.925-16.063-26.123-23.114-.393-.064-.748-.295-.907-.707-.225-.171-.448-.354-.674-.525-.824-.626-.683-2.212.58-2.144 1.3.07 1.908.446 2.157 1.39a270.035 270.035 0 0 1 22.03 18.926c3.974 3.805 7.582 7.934 11.416 11.873 3.263 3.359 6.867 7.14 10.965 9.36 1.305.706.144 2.69-1.159 1.985m13.563-8.229c-2.688-2.688-5.91-5.27-8.228-8.282-3.433-4.452-8.32-8.099-11.497-12.646-3.357-4.803-7.394-8.84-11.623-12.863-4.249-4.042-9.209-7.077-13.492-11.049-1.089-1.01.542-2.63 1.626-1.626 3.83 3.55 8.307 6.073 12.068 9.693 3.8 3.661 7.804 7.203 11.017 11.412 6.424 8.416 14.27 16.247 21.756 23.736 1.05 1.05-.577 2.674-1.626 1.625m8.048-18.394c-11.23-9.028-21.978-18.584-32.192-28.744-1.054-1.047.574-2.672 1.625-1.625 10.217 10.159 20.963 19.716 32.193 28.743 1.156.929-.483 2.546-1.626 1.626m10.348-8.048c-2.237-2.62-4.08-5.371-6.7-7.653-3.134-2.733-6.81-4.744-9.78-7.638-5.72-5.572-13.807-10.4-18.192-17.137-.813-1.246 1.18-2.396 1.984-1.16 1.82 2.795 4.739 4.708 7.104 7.01 3.444 3.358 7.21 6.383 10.73 9.66 3.017 2.81 6.592 5.018 9.78 7.638 2.714 2.23 4.454 5.023 6.7 7.654.956 1.12-.663 2.754-1.626 1.626m2.3-16.097c-1.603-1.305-3.715-1.415-5.179-2.88-1.926-1.925-3.813-3.846-5.977-5.508-4.315-3.312-8.466-6.874-11.84-11.158-.907-1.15.71-2.792 1.626-1.625 3.83 4.86 8.65 8.754 13.564 12.466 1.55 1.168 2.876 2.823 4.253 4.2 1.288 1.288 3.694 1.665 5.18 2.88 1.147.938-.489 2.554-1.628 1.625M81.476 138.42c-4.303-.47-7.058-2.956-9.997-5.98-4.512-4.636-9.618-8.547-13.902-13.442-3.814-4.358-7.419-8.806-10.75-13.554-3.005-4.28-6.083-7.732-7.85-12.71-.497-1.4 1.724-1.998 2.218-.61 3.164 8.914 11.172 16.516 16.87 23.867 2.756 3.558 6.061 6.677 9.417 9.658 3.885 3.457 8.557 9.878 13.994 10.472 1.457.157 1.474 2.458 0 2.299m.337-16.435c-2.328-1.892-5.01-2.708-7.127-4.827-2.825-2.825-5.659-5.577-8.63-8.246-6-5.385-12.569-11.205-17.83-17.28-5.709-6.587-11.816-12.825-17.635-19.313-4.01-4.474-8.167-9.435-10.01-15.226-.45-1.417 1.77-2.019 2.217-.61 2.146 6.741 7.68 12.313 12.325 17.428 5.367 5.91 10.893 11.671 16.123 17.707 4.8 5.54 11.055 10.648 16.435 15.668 2.442 2.281 4.885 4.502 7.25 6.865 2.56 2.561 5.745 3.965 8.508 6.21 1.15.935-.487 2.552-1.626 1.624m5.983-15.914C73.428 96.164 61.86 82.402 50.77 69.096c-5.503-6.6-12.98-11.762-18.94-17.989-4.402-4.6-9.284-10.814-10.14-17.315-.137-1.043 1.32-1.455 1.962-.813l1.15 1.151c.643.641.28 1.496-.34 1.823 1.815 6.237 7.594 12.174 11.802 16.406 5.656 5.69 12.313 10.534 17.46 16.704 10.507 12.606 21.63 25.644 35.23 35.02 1.212.837.066 2.83-1.158 1.986m14.712-7.078c-7.059-6.569-14.03-13.494-21.333-19.786-7.356-6.34-14.842-12.525-21.219-19.885-6.366-7.348-10.875-16.483-16.166-24.61-2.267-3.48-4.818-6.765-7.059-10.255-1.952-3.04-4.554-8.444-8.449-9.099-1.46-.245-.839-2.46.611-2.217 5.187.873 8.48 8.117 11.035 12.027 6.112 9.348 12.252 18.692 18.34 28.065 5.906 9.095 14.89 16.104 23.047 23.071 7.83 6.693 15.281 14.045 22.82 21.064 1.085 1.012-.544 2.634-1.627 1.625m24.378 2.479c-3.079-1.72-4.23-3.84-6.162-6.73-2.829-4.232-6.2-8.05-9.202-12.163-6.667-9.126-13.256-18.22-20.734-26.711C84 48.156 76.883 40.733 71.285 32.074c-2.585-3.998-5.153-8.07-7.835-12.007-1.668-2.45-4.969-3.902-4.969-6.967 0-1.483 2.3-1.483 2.3 0 0 1.515 4.567 5.675 5.647 7.266 2.367 3.476 4.296 7.184 6.843 10.55 6.516 8.6 13.284 16.669 20.425 24.776 5.857 6.649 11.13 13.743 16.324 20.913 2.936 4.055 5.884 8.036 9.06 11.906 2.945 3.583 4.815 8.655 8.965 10.975 1.295.723.137 2.71-1.159 1.984m-8.282-36.97c-7.729-7.907-15.525-16.537-22.233-25.314-3.768-4.93-7.27-10.05-11.109-14.927-3.198-4.064-6.848-7.098-9.378-11.732-.712-1.3 1.277-2.46 1.986-1.16 2.731 4.996 6.82 8.47 10.273 12.86 3.104 3.947 5.98 8.077 8.958 12.123 6.811 9.247 15.088 18.298 23.13 26.524 1.036 1.06-.589 2.688-1.627 1.626m-2.594-23.502c-.709-4.625-6.144-8.88-8.975-12.59-4.469-5.85-7.473-12.535-12.575-17.947-1.017-1.077.607-2.705 1.625-1.625 4.8 5.089 8.08 11.184 11.925 16.979 3.016 4.545 9.351 8.912 10.217 14.57.22 1.453-1.994 2.075-2.218.613m17.542-8.691c-4.804-4.808-9.503-9.672-13.797-14.945-3.086-3.792-6.732-5.96-8.345-10.856-.464-1.413 1.756-2.011 2.22-.611 1.615 4.917 5.887 7.552 9.006 11.38 3.864 4.747 8.22 9.082 12.542 13.407 1.048 1.049-.578 2.676-1.626 1.626m11.318-4.833c-2.802-5.087-7.624-10.065-11.893-14.014-2.118-1.957-6.36-5.364-5.47-8.717.383-1.433 2.598-.824 2.218.611-.674 2.542 4.977 6.522 6.603 8.08 3.79 3.626 7.98 8.256 10.527 12.881.716 1.297-1.27 2.458-1.985 1.16m45.02 32.425c-8.105-8.105-15.253-17.198-22.136-26.37-3.81-5.08-6.633-11.566-11.099-16.074-2.573-2.595-4.552-5.296-5.044-8.957-.198-1.466 2.106-1.447 2.3 0 .606 4.515 5.533 8.506 8 12.273 3.23 4.93 6.422 9.861 10.058 14.508 6.221 7.948 12.41 15.858 19.546 22.994 1.05 1.05-.577 2.674-1.626 1.625m21.846-4.599c-3.088-2.955-8.3-5.794-10.528-9.43-2.843-4.633-5.952-9.051-9.198-13.411-3.47-4.66-6.21-9.968-9.198-14.95-2.003-3.338-6.135-5.994-7.014-9.854-.33-1.446 1.887-2.057 2.218-.611.483 2.119 2.064 3.29 3.562 4.576 1.468 1.255 2.238 3.095 3.22 4.73 2.683 4.47 5.364 8.94 8.047 13.415 2.347 3.909 5.518 7.455 8.048 11.27 3.42 5.155 8.065 8.427 12.468 12.64 1.074 1.027-.555 2.65-1.625 1.626m41.39 24.144c-5.194-5.336-9.43-11.372-14.255-17.019-5.141-6.02-10.114-12.163-14.61-18.683-5.066-7.348-11.448-13.634-17.288-20.36-5.088-5.864-8.558-12.923-13.633-18.67-.977-1.108.642-2.74 1.626-1.626 4.618 5.232 7.752 11.647 12.252 17.046 5.304 6.366 11.07 12.333 16.49 18.595 2.346 2.711 4.133 6.184 6.27 9.09 2.88 3.917 6.014 7.65 9.147 11.364 5.228 6.205 9.96 12.817 15.627 18.637 1.035 1.062-.59 2.69-1.626 1.626m3.072-17.753c-.283 1.455-2.5.836-2.22-.61.527-2.704-6.657-8.459-8.27-10.614-4.198-5.604-7.956-11.444-12.554-16.747-3.753-4.325-7.707-8.478-11.533-12.735-1.315-1.462-3.432-3.254-4.317-5.01-1.367-2.71-2.76-5.832-5.335-7.636-1.206-.84-.058-2.836 1.158-1.984 3.984 2.787 5.584 7.807 8.71 11.412 5.132 5.92 10.61 11.527 15.67 17.512 4.833 5.717 8.184 12.982 13.6 18.157 2.345 2.24 5.796 4.63 5.091 8.255m3.53-13.798c-.436-2.195-4.325-5.812-5.632-7.73-2.56-3.756-5.18-7.118-7.61-10.966-4.524-7.159-11.246-12.815-15.385-20.12-.732-1.292 1.256-2.452 1.985-1.16 2.181 3.848 5.354 6.765 8.174 10.113 2.627 3.12 4.943 6.624 7.21 10.008 2.488 3.71 5.03 7.317 7.611 10.965 1.906 2.691 5.203 4.944 5.866 8.281.287 1.447-1.93 2.064-2.219.61m4.894-14.439c-6.881-7.061-12.163-15.394-18.395-22.996-.93-1.136.686-2.772 1.626-1.625 6.23 7.6 11.516 15.938 18.396 22.994 1.036 1.064-.588 2.69-1.626 1.627m-95.608 63.002c-4.505-8.825-10.118-16.833-17.066-23.911-1.04-1.058.586-2.685 1.626-1.625 7.082 7.213 12.831 15.378 17.424 24.377.675 1.316-1.31 2.48-1.984 1.159m43.574 33.068c-1.092-3.683-5.686-7.63-8.27-10.332-2.658-2.775-4.589-5.412-6.669-8.667-5.018-7.859-9.708-15.918-14.782-23.74-4.448-6.858-10.47-12.382-14.51-19.36-1.849-3.193-3.857-6.172-5.943-9.208-.676-.983-3.256-5.998-3.905-6.03-1.476-.08-1.483-2.379 0-2.3 3.523.186 5.713 7.214 7.712 9.535 2.501 2.901 4.127 6.911 6.092 10.187 1.405 2.343 4.14 4.318 5.878 6.488 1.184 1.481 2.221 3.086 3.288 4.65 5.973 8.743 11.401 17.803 17.004 26.79 2.993 4.802 6.42 8.83 10.228 12.985 2.19 2.391 5.161 5.237 6.095 8.391.422 1.426-1.796 2.03-2.219.611m16.394-5.241c-5.275-5.566-8.754-12.205-12.468-18.85-2.21-3.95-5.134-7.11-7.993-10.585-2.98-3.625-5.892-7.313-8.665-11.1-.964-1.32-4.113-4.639-3.363-6.573.53-1.368 2.755-.773 2.217.612-.453 1.166 4.393 6.508 5.07 7.402 2.686 3.561 5.513 7.025 8.371 10.448 7.042 8.44 10.861 19.005 18.456 27.02 1.02 1.076-.605 2.704-1.626 1.626m10.168-9.431c-3.465-7.91-8.88-15.276-13.7-22.42-2.337-3.466-4.796-6.843-7.077-10.348-1.618-2.484-4.038-3.603-4.634-6.598-.287-1.448 1.93-2.065 2.22-.61.423 2.14 4.27 5.85 5.521 7.773 2.281 3.51 4.778 6.88 7.118 10.35 4.442 6.581 9.346 13.404 12.537 20.694.59 1.343-1.39 2.514-1.985 1.16m9.083-12.922c-2.418-6.006-6.01-11.283-10.509-15.866-3.027-3.082-5.744-6.286-6.739-10.578-.334-1.444 1.885-2.055 2.22-.61 1.328 5.734 6.22 9.431 10.001 13.603 3.218 3.547 5.467 8.43 7.244 12.84.553 1.377-1.67 1.967-2.218.611M36.444 181.185a24.997 24.997 0 0 1-6.547-6.544c-.84-1.227 1.154-2.377 1.985-1.159a22.107 22.107 0 0 0 5.72 5.72c1.217.83.068 2.824-1.158 1.983m13.796-7.664c-3.537-1.886-6.265-5.335-8.08-8.844-.68-1.313 1.306-2.478 1.986-1.159 1.646 3.181 4.044 6.305 7.252 8.018 1.31.696.15 2.681-1.158 1.984m12.616-8.077c-1.76-3.264-5.378-4.924-6.899-8.433-.584-1.344 1.397-2.516 1.986-1.157 1.507 3.472 5.131 5.153 6.898 8.431.704 1.305-1.282 2.466-1.985 1.16M78.6 154.358c-2.369-1.649-4.37-3.618-6.11-5.919-1.624-2.145-3.406-3.672-4.384-6.265-.524-1.39 1.7-1.984 2.22-.61.811 2.156 2.458 3.288 3.712 5.09a22.975 22.975 0 0 0 5.72 5.72c1.208.84.061 2.837-1.159 1.984m24.116-8.077a136.61 136.61 0 0 1-2.3-3.544c-.84-1.343-1.484-3.25-2.6-4.368-1.458-1.46-3.355-3.242-3.65-5.393-.197-1.449 2.02-2.075 2.22-.61.322 2.36 2.745 3.192 3.716 5.09 1.362 2.663 2.941 5.177 4.598 7.665.825 1.24-1.168 2.39-1.984 1.16m30.073-2.832c-3.182-3.392-4.284-8.065-7.08-11.733-.897-1.178 1.102-2.32 1.987-1.158 2.663 3.496 3.697 8.042 6.719 11.263 1.013 1.08-.608 2.71-1.626 1.628m27.058.946c-5.416-3.272-8.703-8.514-10.493-14.483-.426-1.426 1.795-2.029 2.22-.612 1.616 5.4 4.524 10.142 9.432 13.111 1.27.765.112 2.752-1.159 1.984m20.894 1.307c-.252-2.259-2.634-5.194-4.186-6.796-2.26-2.337-4.12-5.088-5.623-7.956-.69-1.31 1.295-2.47 1.985-1.157a39.35 39.35 0 0 0 2.78 4.501c1.085 1.53 2.687 2.772 3.616 4.383 1.376 2.387 3.407 4.153 3.727 7.025.164 1.474-2.137 1.457-2.3 0m24.864 6.178c-4.854-4.9-9.26-10.177-12.443-16.33-.68-1.315 1.304-2.477 1.985-1.16 3.095 5.985 7.363 11.096 12.084 15.864 1.044 1.053-.582 2.682-1.626 1.626m22.995 12.263c-1.696-1.992-2.983-4.414-4.132-6.747-1.682-3.405-4.245-6.404-6.598-9.35-.916-1.144.701-2.783 1.626-1.625 2.048 2.566 4.078 5.136 5.857 7.898 1.692 2.63 2.835 5.806 4.872 8.197.957 1.124-.662 2.757-1.625 1.627M92.974 243.046c-14.83 0-14.83-22.996 0-22.996s14.83 22.996 0 22.996m80.482 0c-14.83 0-14.83-22.996 0-22.996 14.829 0 14.829 22.996 0 22.996" fill="currentColor"/>
    <path d="M126.596 355.077c-29.39 0-60.136-1.546-84.636-19.994-32.99-24.841-34.205-68.727-31.992-92.672 1.23-13.29 4.291-27.873 9.64-45.898 3.76-12.662 14.497-26.398 28.727-36.74 2.09-1.518 4.117-3.116 6.145-4.717 3.741-2.948 7.61-6 11.841-8.494 8.474-4.999 18.331-7.348 26.854-8.986 15.891-3.056 31.285-3.304 48.32-3.304l7.326.003c43.252 0 72.546 9.92 89.548 30.321 11.1 13.317 16.275 26.902 17.87 46.89 1.266 15.83 1.964 31.654 2.075 47.032.091 12.74-.782 31.372-9.394 46.054-7.615 12.982-20.062 25.186-32.485 31.854-22.968 12.326-47.123 19.276-69.854 20.098l-.49.02-.353-.348c-.792-.776-1.819-1.17-3.05-1.17-2.64 0-5.297.011-7.965.025-2.697.011-5.407.026-8.127.026m3.706-230.397c-24.084 0-51.437 1.89-71.693 15.918-12.806 8.87-23.537 18.26-33.774 29.555-8.41 9.29-11.71 16.867-15.92 30.342-9.62 30.778-11.527 62.123-5.368 88.271 6.767 28.704 21.905 49.322 45 61.282 25.336 13.122 52.185 14.191 82.125 14.191l4.14-.004.333.32c.793.757 1.797 1.163 2.982 1.203 1.504.051 3.005.077 4.503.077 20.333 0 41.386-4.662 62.57-13.854 23.82-10.332 40.755-25.229 54.915-48.308 6.475-10.558 7.326-29.438 7.392-37.065.137-15.769.276-32.077-1.406-47.895-.303-2.84-.534-5.634-.76-8.388-.887-10.685-1.719-20.779-6.593-30.926-6.273-13.076-14.636-23.916-24.18-31.343-18.7-14.557-44.828-22.264-77.657-22.908-2.407-.048-4.866-.105-7.365-.165-6.23-.149-12.674-.303-19.244-.303" fill="currentColor"/>
    <path d="M27.213 259.362c-8.264 0-16.267.785-23.789 2.333-3.31.682-3.288 3.494-3.2 4.342.227 2.233 1.956 4.61 4.713 4.61a5.48 5.48 0 0 0 1.08-.113c6.811-1.404 14.136-2.115 21.77-2.115 17.076 0 35.814 3.363 58.966 10.583 14.582 4.546 25.66 9.394 35.82 19.487 2.07 2.06 4.923 3.752 7.684 5.392 1.9 1.127 3.861 2.29 5.568 3.574 6.273 4.714 12.112 9.416 17.35 13.977.296.258.622.476 1.023.682l.203.105.148.176c.98 1.163 2.544 1.887 4.083 1.887.945 0 3.206-.316 3.806-3.216 1.432-6.97 6.905-10.893 12.198-14.687a125.12 125.12 0 0 0 3.404-2.498c7.944-6.123 15.665-10.82 23.84-15.79 1.27-.77 2.548-1.577 3.837-2.386 7.965-5.005 16.204-10.184 25.86-10.392 4.581-.099 9.237-.437 13.74-.763 4.53-.332 9.214-.672 13.853-.772 3.082-.063 4.458-2.525 4.434-4.782-.023-2.199-1.348-4.418-4.256-4.418-2.487.046-4.974.068-7.462.067-9.342.03-19.93.062-28.375 2.435-7.73 2.174-14.25 6.045-21.155 10.145-2.66 1.578-5.409 3.213-8.224 4.732-6.263 3.384-11.948 7.61-17.447 11.691-3.763 2.792-7.652 5.683-11.745 8.326-3.564 2.302-6.38 5.207-8.37 8.638l-.682 1.176-1.045-.867c-6.242-5.164-12.8-10.173-19.14-15.014-4.49-3.427-9.129-6.97-13.619-10.539-9.868-7.844-21.662-11.967-32.937-15.249-18.25-5.32-39.882-10.757-61.934-10.757m76.402-166.917c-.736 0-1.475.074-2.193.222-11.343 2.291-15.373 14.978-18.93 26.176-1.146 3.601-2.226 7.003-3.497 9.926-.94 2.154-.161 3.877.387 4.712.978 1.493 2.687 2.498 4.254 2.498 1.415 0 2.513-.804 3.173-2.324 1.272-2.917 2.129-5.719 3.039-8.686.642-2.087 1.304-4.25 2.118-6.427 1.757-4.7 4.165-11.134 8.17-15.019 1.002-.973 2.2-1.464 3.562-1.464 3.903 0 8.206 4.22 10.774 6.74.499.488.928.91 1.267 1.212 2.113 1.885 4.042 4.282 6.086 6.82 3.783 4.697 7.698 9.555 12.79 10.934l.546.15.216.522c.784 1.898 2.706 2.574 4.244 2.574 1.673 0 3.838-.823 4.43-3.144l.099-.388.32-.245c3.794-2.863 7.086-6.386 10.57-10.116 4.372-4.674 8.889-9.507 14.479-12.925.853-.522 1.814-.784 2.86-.784 9.557 0 25.229 23.635 25.497 30.825.113 3.053 2.574 4.446 4.812 4.446 1.329 0 2.546-.473 3.339-1.297.74-.769 1.094-1.799 1.047-3.064-.411-11.082-9.724-22.07-16.693-29.372-.58-.607-1.208-1.3-1.885-2.046-3.873-4.264-9.176-10.107-14.498-10.107h-.001c-.634 0-1.26.085-1.866.254-8.042 2.233-13.654 7.585-19.593 13.251-2.252 2.148-4.581 4.371-7.05 6.405l-.421.347c-1.97 1.62-4.202 3.454-6.098 5.527l-.343.372h-.505c-3.487 0-5.857-3.879-7.761-6.999-.657-1.078-1.278-2.096-1.801-2.715-1.8-2.132-4.135-4.078-6.393-5.96-.833-.694-1.657-1.38-2.447-2.07-4.471-3.903-10.04-8.76-16.104-8.76" fill="currentColor"/>
    <path d="M158.511 100.093c-.286 5.017-2.315 10.073-3.229 15.019-1.079 5.829-9.942 3.352-8.87-2.444.575-3.115 1.852-6.51 2.51-9.768-3.615-.365-7.844.257-11.183.2-3.168-.054-6.31-.021-9.472.179-.08.005-.59.038-1.229.073.131.638.223 1.286.377 1.92.704 3.2 2.447 6.056 2.953 9.313.904 5.8-7.958 8.292-8.87 2.445-1.265-8.128-10.73-23.512 4.436-22.687 7.801.429 16.078-.383 23.954-.383 1.72 0 3.657.112 5.196 1.013.673.395 3.307 1.927.766.767.442.204.812.546 1.13.935.965.87 1.604 2.137 1.531 3.418" fill="currentColor"/>
    <path d="M160.186 74.032c-.316 4.064-1.615 8.146-2.414 12.143-.477 2.38-2.893 7.771-2.493 10.013 1.031 5.798-7.832 8.28-8.87 2.444-.817-4.6 1.033-7.59 1.92-12.025 1.513-7.586 2.77-14.792 3.184-22.539.198-3.714 2.765-14.565.297-17.442-3.268-3.809-6.357-7.559-10.568-10.399-.58-.389-2.189-.979-3.31-1.44-3.432 3.351-7.02 6.04-10.087 9.874.477-.596-4.349 5.261-4.759 3.621.717 2.88 1.43 5.744 2.203 8.623 1.867 6.935 1.55 14.581 3.08 21.638 1.374 6.343 2.995 12.806 3.698 19.25.644 5.891-8.56 5.828-9.198 0-.908-8.3-3.613-16.544-4.819-24.839-1.017-7-1.586-13.953-3.834-20.695-3.296-9.88 11.858-18.595 17.664-24.403.82-.819 1.727-1.22 2.625-1.32.697-1.085 1.918-1.778 3.692-1.559 8.576 1.06 24.194 14.018 24.194 22.85 0 8.403-1.543 17.736-2.205 26.205" fill="currentColor"/>
    <path d="M270.85 46.68c-.693 11.407-6.862 22.408-9.185 33.556-2.492 11.968-11.189 27.368-17.818 37.526-6.672 10.222-14.699 19.728-24.919 26.542-4.952 3.304-9.55-4.67-4.644-7.94 10.683-7.126 19.414-18.12 25.032-29.564 4.9-9.983 11.668-20.307 13.958-31.307 2.208-10.605 8.11-20.817 8.556-31.738.357-8.773 4.738-20.22 3.101-29.187-9.698-.305-19.44-2.39-29.125-2.403-12.903-.023-25.38-.234-38.22-1.473-18.266-1.763-36.462-1.458-54.75-1.433l-.04.003-1.035-.002-1.038.002c-.014 0-.026-.003-.026-.003-18.302-.025-36.495-.33-54.764 1.433-12.84 1.24-25.316 1.45-38.219 1.473-9.685.013-19.426 2.098-29.126 2.403-1.636 8.966 2.744 20.414 3.102 29.187.446 10.92 6.348 21.133 8.555 31.738 2.291 11 9.06 21.324 13.96 31.307 5.618 11.443 14.348 22.438 25.031 29.563 4.906 3.272.307 11.245-4.644 7.94-10.22-6.813-18.249-16.32-24.92-26.54-6.629-10.159-15.326-25.559-17.819-37.527-2.32-11.148-8.489-22.15-9.184-33.556-.673-11.1-6.074-26.19-2.313-37.105.53-1.536 1.593-2.446 2.807-2.873.74-.763 1.783-1.27 3.163-1.27 9.071 0 18.503-1.587 27.518-2.202 12.917-.882 25.717.243 38.638-1.32 19.77-2.385 39.464-1.869 59.28-1.849 19.814-.02 39.508-.537 59.275 1.848 12.921 1.563 25.721.438 38.638 1.32 9.016.615 18.447 2.2 27.52 2.2 1.38 0 2.423.509 3.161 1.272 1.215.427 2.277 1.337 2.807 2.873 3.761 10.916-1.639 26.005-2.313 37.105" fill="currentColor"/>
    <path d="M203.153 64.479c-4.545.393-9.067.987-13.6 1.505-.596.066-.967 1.464-1.194 3.053 14.07-.016 28.306-.242 42.327-1.295.085-.982.099-1.95-.04-2.872-9.24-.902-18.086-1.205-27.493-.39m36.224 7.636c-.175 2.676-2.174 4.13-4.265 4.38a5.207 5.207 0 0 1-1.103.22c-15.96 1.36-32.252 1.531-48.29 1.531-.524 0-.987-.095-1.42-.226-2.55.427-5.476-1.028-5.476-4.374 0-4.62.448-9.837 2.927-13.819 3.275-5.262 16.203-4.042 21.403-4.547 10.224-.994 22.016-1.866 32.078.903 6.234 1.715 4.435 11.516 4.146 15.932" fill="currentColor"/>
  </g>
</svg>
