<svg xmlns="http://www.w3.org/2000/svg" viewBox="0 0 20 16.133">
  <g transform="matrix(1.33333 0 0 -1.33333 0 16.133)">
    <path d="M15 10.7c-.6-.2-1.1-.4-1.8-.5.6.4 1.1 1 1.4 1.7-.6-.4-1.3-.6-2-.8-.6.6-1.4 1-2.3 1-1.7 0-3.1-1.4-3.1-3.1 0-.2 0-.5.1-.7-2.6.1-4.8 1.4-6.4 3.2-.3-.5-.4-1-.4-1.5 0-1.1.5-2 1.4-2.6-.5 0-1 .2-1.4.4 0-1.5 1.1-2.7 2.5-3-.3-.1-.5-.1-.8-.1-.2 0-.4 0-.6.1.4-1.2 1.5-2.1 2.9-2.1C3.4 1.9 2.1 1.4.7 1.4H0A8.637 8.637 0 0 1 4.7 0c5.7 0 8.8 4.7 8.8 8.8v.4c.6.3 1.1.8 1.5 1.5" fill="currentColor"/>
  </g>
</svg>
