<svg xmlns="http://www.w3.org/2000/svg" viewBox="0 0 12.667 21.968">
	<defs>
		<clipPath id="a7">
			<path d="M0 9.5h16.476V0H0z"/>
		</clipPath>
	</defs>
	<g clip-path="url(#a7)" transform="matrix(1.33333 0 0 -1.33333 0 12.667)">
		<path d="M15.875 0h-2.9c-.1 0-.2 0-.3.1-.2.1-.4.3-.5.5l-1.3 1.3-.4.4c-.1.1-.2.1-.3.1-.1 0-.2-.1-.3-.2l-.1-.3v-.6s0-.5-.1-.7l-.1-.3c-.1-.2-.2-.2-.4-.2h-2.3l-.4.1c-.7.3-1.3.8-1.9 1.4-.7.7-1.3 1.4-1.8 2.2-.8 1-1.5 2.1-2.1 3.2-.2.4-.4.8-.6 1.3-.1.2-.1.4 0 .7 0 .1 0 .1.1.2s.1.1.2.1h2.5c.2 0 .3-.1.4-.2.2-.2.3-.4.5-.7l.4-.8c.3-.6.6-1.1 1-1.7l.6-.8c.1-.1.2-.2.3-.2.1 0 .2.1.2.2v3c0 .2-.1.2-.3.3h-.2c-.2 0-.3.1-.3.3 0 .3.1.6.4.7l.4.1h2.5c.1 0 .3 0 .4-.1.3-.1.5-.3.5-.6V5.1c0-.2.2-.2.4-.1.5.3.8.8 1 1.3.2.5.4.9.6 1.4l.5 1.1c0 .1.1.2.2.3.1.1.1.1.2.1h3c.2 0 .4-.1.6-.3.1-.1.1-.1.1-.2.1-.4-.1-.7-.3-1.1l-.6-.9c-.5-.6-1-1.2-1.4-1.8l-.3-.5c-.1-.1-.1-.2 0-.3.2-.2.4-.4.6-.7l1.4-1.5.4-.5.1-.2c.6-.5.2-1.2-.3-1.2" fill="currentColor"/>
	</g>
</svg>