<svg version="1.1" xmlns="http://www.w3.org/2000/svg" xmlns:xlink="http://www.w3.org/1999/xlink" viewBox="0 0 502.547 524.7" overflow="scroll">
  <g transform="matrix(1.33333 0 0 -1.33333 0 524.701)">
    <path d="M35.111 46.944c-3.67-2.227-6.107-5.88-8.078-9.612-2.774-5.252-6.473-10.002-9.197-15.33-.674-1.316 1.308-2.48 1.986-1.16 2.26 4.426 4.803 8.658 7.523 12.812 2.63 4.014 4.67 8.722 8.924 11.305 1.268.767.113 2.755-1.158 1.985m18.162-15.51c-5.035-5.116-10.72-11.686-11.064-19.21-.07-1.481 2.23-1.475 2.298 0 .313 6.837 5.838 12.956 10.391 17.585 1.043 1.056-.582 2.683-1.625 1.625m27.594-1.532C74.412 24.822 70.06 17.469 69.801 9.16c-.047-1.485 2.255-1.48 2.298 0 .243 7.735 4.416 14.41 10.393 19.117 1.168.914-.473 2.53-1.625 1.625m28.83-2.042c-2.248-5.987-7.379-10.45-7.705-17.168-.07-1.482 2.228-1.476 2.301 0 .308 6.328 5.488 10.87 7.623 16.557.521 1.39-1.7 1.985-2.219.61m26.061 1.535c-1.646-5.17-2.09-12.185-5.834-16.357-.986-1.1.635-2.731 1.625-1.626 4.104 4.572 4.627 11.733 6.428 17.372.45 1.417-1.77 2.019-2.22.61m35.22-.304c-.407-7.91-7.323-13.604-9.157-21.158-.35-1.44 1.87-2.052 2.22-.612 1.9 7.829 8.811 13.469 9.237 21.77.076 1.482-2.223 1.475-2.3 0m27.636.305a34.54 34.54 0 0 1-1.53-8.763c-.103-2.07-.089-3.697-1.2-5.55-1.084-1.801-2.293-3.485-3.288-5.343-.697-1.306 1.288-2.467 1.987-1.157 1.138 2.127 4.752 5.816 4.756 8.242.004 4.128.257 7.992 1.492 11.96.441 1.419-1.778 2.024-2.217.61m32.192 0c-1.484-6.38-1.193-14.301-5.836-19.421-.996-1.096.627-2.726 1.625-1.626 5.027 5.54 4.822 13.533 6.43 20.437.334 1.442-1.883 2.055-2.22.61m24.528-3.067c-1.689-5.158-3.074-10.43-6.016-15.054-.796-1.257 1.192-2.407 1.987-1.16 3.045 4.79 4.498 10.259 6.248 15.604.461 1.412-1.76 2.013-2.219.61m24.824-4.092c-3.604-3.89-4.818-9.403-6.43-14.304-.463-1.413 1.758-2.013 2.22-.61 1.472 4.49 2.532 9.724 5.835 13.288 1.008 1.085-.615 2.715-1.625 1.626m28.79 2.256c-.167-4.328-2.526-7.945-4.44-11.687-.676-1.317 1.31-2.48 1.984-1.16 2.115 4.13 4.574 8.075 4.756 12.846.056 1.484-2.242 1.478-2.3 0m21.46 3.065c-.076-4.495-1.115-9.585-4.26-12.982-1.008-1.087.615-2.717 1.625-1.626 3.576 3.86 4.848 9.474 4.936 14.608.025 1.486-2.276 1.482-2.3 0m-63.284 71.714c-1.674-1.753-2.533-3.562-3.246-5.856-.547-1.755-.893-3.446-1.723-5.108-.59-1.188-.98-2.326-1.115-3.646-.152-1.476 2.148-1.46 2.3 0 .151 1.464.93 2.717 1.544 4.02.531 1.113.605 2.236.98 3.387.705 2.168 1.278 3.895 2.89 5.577 1.022 1.07-.603 2.698-1.63 1.626m16.097-3.45c-3.714-3.91-5.944-9.21-6.083-14.61-.04-1.485 2.26-1.48 2.297 0 .125 4.788 2.12 9.517 5.414 12.984 1.018 1.072-.602 2.704-1.627 1.626m15.8-1.658c-.236-1.345-1.05-1.613-1.596-2.714-.547-1.107-.41-2.402-.93-3.45-1.267-2.545-2.019-5.088-2.113-7.937-.05-1.486 2.248-1.48 2.297 0 .05 1.44.264 2.775.68 4.15.377 1.248 1.24 2.352 1.58 3.592.328 1.2.41 2.38 1.258 3.42.578.706.885 1.444 1.043 2.328.254 1.45-1.963 2.072-2.219.61m17.246-2.298c-.133-.847-.727-1.562-1.189-2.26-.58-.873-.846-1.79-1.332-2.691-1.254-2.314-3.03-4.124-3.268-6.85-.129-1.48 2.172-1.47 2.3 0 .124 1.444.973 2.632 1.747 3.806.506.768 1.512 1.855 1.66 2.784.27 1.71 2.023 2.85 2.301 4.6.224 1.45-1.989 2.074-2.219.61m18.395 0c-1.709-4.436-6.682-6.592-6.937-11.801-.073-1.482 2.226-1.476 2.298 0 .225 4.577 5.293 7.127 6.858 11.19.533 1.386-1.69 1.982-2.219.612m15.244.509c-1.482-1.488-2.928-2.962-4.08-4.722-1.586-2.425-.668-5.473-1.85-8.16-.59-1.343 1.39-2.515 1.987-1.16.951 2.163 1.261 4.266 1.304 6.615.041 2.212 2.84 4.373 4.264 5.8 1.05 1.05-.576 2.677-1.625 1.626M145.072 316.336c-1.928-2.793-4.234-5.276-6.3-7.96-.796-1.032-1.66-2.061-2.282-3.207-.609-1.13-.635-3.026-2.229-3.25-1.462-.21-.839-2.424.612-2.22 2.787.395 2.545 3.097 3.957 4.897 2.746 3.496 5.7 6.917 8.228 10.58.844 1.222-1.15 2.372-1.986 1.16m26.625 4.83c-5.682-5.685-11.375-11.435-15.127-18.628-.684-1.311 1.3-2.475 1.986-1.16 3.664 7.023 9.22 12.613 14.766 18.163 1.05 1.049-.576 2.675-1.625 1.626m29.713 7.817c-1.834-3.074-4.506-4.454-6.939-6.886-1.877-1.878-3.756-3.756-5.63-5.635-4.304-4.307-8.327-8.76-11.576-13.924-.792-1.258 1.2-2.411 1.985-1.16 3.47 5.515 7.887 10.126 12.47 14.714 3.846 3.856 8.862 7.02 11.674 11.73.764 1.276-1.226 2.432-1.984 1.16m29.736 8.618c-.523-6.696-6.027-11.814-9.703-17.085-3.356-4.81-7.676-9.008-11.805-13.144-1.049-1.051.576-2.678 1.625-1.626 4.703 4.708 9.31 9.512 13.123 14.984 3.76 5.39 8.522 10.004 9.06 16.87.116 1.48-2.185 1.469-2.3 0m20.125 2.143c-1.28.753-2.436-1.233-1.16-1.984 2.424-1.432-6.652-15.96-7.975-17.868-3.326-4.784-7.019-10.025-11.152-14.17-1.629-1.634-3.729-3.394-4.578-5.596-.139-.354.011-.875.293-1.12.064-.052.123-.105.183-.16 1.116-.968 2.746.652 1.625 1.627 1.7-1.478 17.916 21.522 19.057 23.968 1.37 2.945 8.234 12.633 3.707 15.303m24.715 5.907c-.379-8.762-5.293-17.1-9.79-24.432-4.413-7.195-9.67-13.848-14.198-20.978-.797-1.256 1.191-2.407 1.986-1.16 8.893 14 23.551 29.104 24.301 46.57.062 1.48-2.237 1.477-2.299 0m22.182 5.41l-1.15-1.15c-.395-.396-.41-.871-.215-1.26-4.016-7.34-7.832-14.882-12.612-21.74-2.892-4.15-5.45-8.54-8.048-12.874-2.192-3.65-4.604-6.474-5.866-10.621-.43-1.421 1.787-2.027 2.22-.612 1.39 4.575 4.364 7.96 6.78 11.987 2.571 4.278 5.196 8.513 8.05 12.61 4.837 6.943 8.523 14.88 12.646 22.268.636 1.138-.87 2.328-1.805 1.393m10.051-15.454c-1.7-4.863-5.826-8.667-7.637-13.45-3.123-8.26-6.722-16.31-10.642-24.22-.657-1.321 1.328-2.486 1.986-1.156 3.7 7.465 7.08 15.084 10.13 22.838 2.13 5.41 6.468 9.908 8.382 15.376.488 1.403-1.733 2.002-2.22.612M109.313 321.81c-2.253-5.412-5.587-10.318-6.897-16.097-.164-.721.336-1.455 1.11-1.455 1.673 0 1.958.336 3.11 1.488.945.942-.274 2.336-1.292 1.845 1.566 4.726 4.271 9.008 6.19 13.608.57 1.367-1.66 1.959-2.222.61m17.248 10.349c-.84-2.09-2.212-3.7-3.438-5.55-1.044-1.562-1.38-3.474-2.306-5.098-1.479-2.587-3.569-4.453-4.924-6.99-.467-.1-.869-.447-.869-1.064v-1.15c0-1.325 1.87-1.53 2.258-.305 1.142 3.616 4.191 6.018 6.031 9.248.947 1.654 1.326 3.5 2.408 5.13 1.154 1.73 2.276 3.222 3.06 5.168.551 1.377-1.673 1.967-2.22.61m15.063 8.324c-3.92-7.395-9.436-13.803-13.02-21.35-.494-.084-.935-.432-.935-1.076v-1.15c0-1.064 1.678-1.68 2.144-.58 3.52 8.285 9.592 15.063 13.797 22.995.694 1.31-1.289 2.47-1.986 1.16m17.13 11.223c-.175-.595-2.458-3.926-2.878-5.174-1.205-3.58-2.893-6.69-4.844-9.89-3.19-5.225-6.6-10.25-9.408-15.707-.678-1.315 1.307-2.477 1.986-1.157 3.08 5.982 6.848 11.51 10.348 17.245 1.412 2.313 2.537 4.656 3.524 7.174.953 2.437 2.76 4.432 3.492 6.898.42 1.425-1.797 2.03-2.22.61m16.626 8.736c-4.568-2.865-5.754-8.366-6.885-13.301-1.05-4.587-4.103-8.703-6.34-12.796-1.44-2.643-3.052-4.086-3.44-7.09-.19-1.466 2.11-1.446 2.298 0 .322 2.499 2.88 5.475 4.115 7.736 1.63 2.986 3.363 5.907 4.926 8.933 2.525 4.884 1.037 11.113 6.486 14.533 1.252.786.102 2.776-1.16 1.985m21.611 11.319c-5.178-5.58-7.785-12.493-10.9-19.317-3.16-6.93-8.06-14.097-13.245-19.776-.998-1.094.625-2.723 1.627-1.626 4.307 4.718 8.207 10.323 11.614 15.709 4.838 7.655 6.146 16.502 12.531 23.384 1.006 1.083-.615 2.715-1.627 1.626m13.461 2.634c0 1.486-2.283 1.482-2.299 0-.047-3.746-2.519-7.734-4.06-11.102-1.787-3.913-3.674-7.56-6.13-11.085-2.956-4.24-5.124-9.515-8.525-13.385-1.355-1.544-2.613-3.496-3.09-5.512-.339-1.44 1.877-2.054 2.217-.611.768 3.259 3.922 6.457 5.633 9.296 2.531 4.19 5.158 8.317 8.047 12.275 2.322 3.18 3.777 7.68 5.37 11.27 1.136 2.572 2.24 4.567 2.644 7.092.11.167.193.36.193.614v1.148zm22.994 10.348c-.957-8.37-7.473-17.037-11.65-24.11-1.938-3.277-4.196-6.386-6.315-9.544-1.193-1.78-11.578-14.578-9.29-16.598 1.107-.976 2.74.645 1.624 1.626.875-.773 1.211.874 1.938 2.06 1.033 1.68 2.12 3.325 3.203 4.974 2.49 3.797 5.037 7.557 7.564 11.33 2.055 3.075 3.97 6.19 5.858 9.37 3.685 6.2 8.533 13.59 9.367 20.892.17 1.472-2.133 1.455-2.299 0m9.2 1.15c-.577-8.66-6.706-17.72-9.927-25.753-1.962-4.892-4.122-9.59-7.163-13.908-1.883-2.667-3.258-5.387-3.607-8.627-.157-1.473 2.144-1.458 2.3 0 .495 4.587 4.22 8.538 6.4 12.406 2.04 3.62 3.513 7.586 5.058 11.432 3.113 7.76 8.677 15.988 9.238 24.45.097 1.48-2.2 1.473-2.3 0m3.604-13.218c-.709-1.647-1.119-2.997-1.287-4.782-.338-3.547-2.672-5.708-3.916-8.798-2.375-5.897-7.067-10.314-8.709-16.586-.375-1.436 1.844-2.043 2.22-.61 1.454 5.56 5.233 9.725 7.93 14.672 1.35 2.47 2.633 5.049 3.938 7.559 1.267 2.428.69 4.782 1.812 7.388.578 1.344-1.404 2.516-1.988 1.157m4.6-9.196c-1.803-2.635-3.74-5.097-5.014-8.047-1.447-3.347-1.443-6.97-3.033-10.35-.63-1.332 1.354-2.5 1.985-1.158 1.125 2.39 2.253 5.044 2.404 7.715.23 4.033 3.474 7.513 5.644 10.68.84 1.227-1.154 2.377-1.986 1.16M131.275 200.212c-1.99-4.55-6.375-7.68-9.012-11.89-3.099-4.934-7.004-9.173-9.383-14.555-.593-1.343 1.387-2.513 1.985-1.158 2.361 5.338 6.14 9.749 9.383 14.553 2.748 4.078 7.023 7.342 9.013 11.89.588 1.344-1.392 2.515-1.986 1.16m24.56-42.128c-6.68-4.655-10.733-11.68-16.33-17.426-1.036-1.06.59-2.69 1.624-1.626 5.44 5.584 9.377 12.544 15.863 17.068 1.21.84.06 2.835-1.158 1.984m112.44 94.099c-7.958-9.348-13.63-20.261-20.876-30.127-.879-1.197 1.12-2.342 1.986-1.157 7.127 9.703 12.688 20.463 20.516 29.658.957 1.123-.662 2.758-1.627 1.626m14.612-18.058c-.45-4.874-4.492-9.003-7.406-12.607-2.46-3.045-4.664-6.207-6.235-9.81-.586-1.345 1.395-2.516 1.987-1.158 3.545 8.128 13.107 14.426 13.953 23.575.14 1.477-2.164 1.464-2.3 0m20.694-10.35c-.217-2.124-1.51-4.262-2.713-5.984-.703-1.01-.918-2.68-1.275-3.836-1.053-3.43-3.344-6.073-5.05-9.144-.722-1.296 1.263-2.46 1.985-1.16 1.83 3.295 3.826 6.187 5.285 9.692.93 2.24 1.698 4.32 2.918 6.46.74 1.29 1.002 2.51 1.151 3.972.15 1.478-2.153 1.46-2.3 0M106.975 98.455c-.156 1.457-2.46 1.474-2.3 0 .84-7.737-4.526-14.71-7.89-21.265-.677-1.317 1.307-2.48 1.985-1.16 3.54 6.899 9.09 14.258 8.205 22.426m20.851-9.768c-1.52-3.248-2.162-7.265-4.139-10.234-2.252-3.386-4.353-6.84-6.207-10.461-.675-1.316 1.31-2.481 1.985-1.16 1.664 3.25 3.523 6.363 5.52 9.418 2.267 3.476 3.068 7.52 4.827 11.278.623 1.333-1.357 2.502-1.986 1.159" fill="currentColor"/>
  </g>
  <g>
    <g transform="matrix(1.33333 0 0 -1.33333 0 524.701)">
      <path d="M357.262 102.215c-7.186-4.15-13.688-4.562-21.736-4.562-13.983 0-27.99-.262-41.965.126-7.48.207-14.522 2.618-21.227 5.756-5.715 2.675-6.28 12-7.68 17.182-3.439 12.715-3.214 26.98-1.152 40.098.953 6.054.354 16.497 9.364 17.275 5.7.492 11.513 1.072 17.228 1.372 10.76.565 21.346.97 32.166.97 9.744 0 20.996-.611 29.96 4.025 9.704 5.018 11.546 8.24 14.29 17.328 1.344-3.877.633-8.7.633-12.558v-28.34c0-7.253-1.164-14.318-1.13-21.557.038-8.791 1.333-17.19 1.171-25.957-.715-.735-1.192-1.747-1.192-3.074 0-2.67-6.185-6.618-8.73-8.084m18.617 46.25c2.014 10.539.46 22.57.46 33.235 0 12.155 3.087 34.619-15.016 29.612a4.64 4.64 0 0 1-3.377-4.436v-1.15c0-.125.027-.233.035-.354-1.666-5.632-2.596-8.005-7.397-11.42-7.71-5.478-19.388-4.321-28.324-4.321-13.385 0-27.004.516-40.27-1.613-5.39-.865-13.373.448-18.345-2.465-4.51-2.64-6.442-8.457-7.623-13.154-1.723-6.834-2.305-14.433-2.63-21.455-.366-7.96-2.036-18.044.09-25.771 2.846-10.344 4.147-23.823 14.21-29.578 12.994-7.434 27.822-7.142 42.263-7.142 14.262 0 32.362-3.238 45.713 2.785 6.795 3.063 17.88 8.589 19.35 17.153.746.729 1.265 1.74 1.322 3.056.545 12.226-2.758 24.998-.46 37.018m-12.896 107.123c-.002 8.538-.158 19.103-3.695 26.844-5.573 12.188-18.9 18.385-31.576 20.324-7.354 1.128-14.99-.482-22.33-1.07-8.549-.685-17.348-.114-25.924-.114-18.303 0-36.518 1.532-54.84 1.532-38.809 0-150.16 1.533-188.93 1.533-10.309 0-26.408-6.74-31.648-15.812-3.129-5.423-2.362-13.217-2.149-19.147.297-8.26.071-16.563.071-24.827 0-5.93 9.2-5.93 9.2 0 0 12.129-1.595 25.358.282 37.336 1.088 6.942 13.264 10.15 18.746 12.239 8.104 3.088 19.936 1.015 28.494 1.015 29.547 0 131.897-1.536 161.54-1.536 28.413 0 56.728-2.286 85.157-1.417 15.42.47 28.745 3.149 41.606-8.017 6.48-5.616 6.797-20.567 6.797-28.997 0-5.933 9.2-5.933 9.2 0v.114z" fill="currentColor"/>
      <path d="M364.516 82.738c-.408 5.884-9.61 5.924-9.2 0 .786-11.29 5.013-48.706-.902-59.144-9.238-16.305-30.228-10.64-44.966-13.793-12.834-2.74-26.118-.49-38.936.766-7.387.726-13.553-.188-20.97-.214-7.694-.027-15.887-.32-23.76.38C211.494 12.005 123.732 9.2 109.273 9.2c-15.033 0-29.922 1.455-44.84 1.558-16.297.113-32.97 3.333-45.502 14.56-9.69 8.685-6.342 27.59-6.236 39.068.054 5.933-9.145 5.93-9.198 0-.11-12.09-2.14-26.53 3.594-37.76 6.39-12.517 21.774-20.45 35.043-23.394 6.748-1.495 15.264-1.33 22.3-1.673C72.177 1.184 79.62 0 87.414 0h31.058c10.246 0 93.336 2.1 103.475 1.876 9.525-.214 18.185-1.88 27.593-.72 7.803.96 16.774.626 24.614-.146 17.252-1.692 33.34.525 50.504.525 15.02 0 28.392 5.262 37.697 17.414 8.203 10.715 3.006 51.63 2.16 63.788" fill="currentColor"/>
      <path d="M12.693 63.242c-1.1 9.598-.607 40.517-1.447 50.118-1.098 12.56-1.998 24.538-.817 37.175 1.168 12.493 1.393 24.606 1.362 37.194-.014 6.26-2.008 12.022-1.729 18.398.342 7.802.332 30.532.332 38.344 0 5.93-9.199 5.93-9.199 0 0-10.918-2.797-40.12.166-50.66 3.254-11.58 1.853-27.604.363-39.395C.13 141.813.07 129.136 1.496 116.51c1.197-10.623.78-42.644 1.998-53.268.67-5.822 9.875-5.888 9.2 0m349.523 192.726c-.15 5.92-9.348 5.935-9.197 0 .187-7.495 1.148-14.917 1.148-22.423 0-7.932-1.148-30.641-1.148-38.512 0-5.931 9.197-5.931 9.197 0 0 6.824 1.148 28.559 1.148 35.466 0 8.532-.933 16.954-1.148 25.469M363.25 90.81c-.582 1.948.775 3.4 1.102 5.273.425 2.466-.622 4.945-3.213 5.658-2.237.615-5.23-.741-5.657-3.215-.168-.975-.648-1.838-1.03-2.756-.49-1.188-.585-2.89-.598-4.146-.032-2.444 1.347-4.595 1.462-6.966.29-5.905 9.49-5.932 9.2 0-.106 2.162-.655 4.098-1.266 6.153m-66.168 35.419c-.6.143-1.223.168-1.834.073-.18.032-.348.077-.537.092-2.38.155-6.477.92-8.395 2.472-1.623 1.313-2.033 5.203-2.4 7.108-1.56 8.05 2.957 11.959 10.945 12.367 2.89.147 6.256-1.987 7.854-4.326 1.623-2.377 4.664-4.887 4.61-7.924-.079-4.54-4.774-11.142-10.243-9.863m14.887 20.544c-2.018 1.87-2.928 4.35-5.192 6.124-2.718 2.124-5.363 3.6-8.744 4.339-12.13 2.65-23.748-5.593-23.72-17.94.011-5.107 1.376-11.751 4.6-15.798 3.556-4.472 10.357-5.943 15.798-6.302.273-.018.517.005.767.024 9.372-1.59 19.577 6.524 20.75 15.726.721 5.664.024 9.86-4.259 13.826m8.658 156.138c-2.078 2.144-2.396 6.712-3.414 9.468-1.76 4.763-3.268 11.77-4.313 16.76-1.785 8.52-2.214 18.503-9.226 24.493-6.31 5.393-18.17 1.39-25.213.094-6.05-1.116-11.31-3.955-17.494-4.792-5.942-.803-11.35-2.886-17.246-3.898-27.71-4.765-54.574-13.138-82.155-18.415-13.7-2.622-26.435-6.958-39.712-11.154-10.657-3.368-24.383-8.443-35.575-8.91-5.91-.248-5.933-9.444 0-9.198 9.22.383 17.647 3.985 26.516 6.2 11.926 2.983 23.38 7.187 35.12 10.766 25.206 7.684 52.124 10.683 77.554 17.69 11.123 3.066 23.217 5.35 34.492 7.582 10.852 2.146 21.23 5.008 32.193 6.77 9.756 1.566 8.803-6.883 10.153-12.306 1.457-5.86 3.232-11.572 4.742-17.372 1.72-6.61 2.06-15.115 7.076-20.282 4.137-4.262 10.635 2.248 6.502 6.503" fill="currentColor"/>
      <path d="M267.308 347.97c-1.703 2.734-2.6 9.382-3.559 12.696-1.318 4.565-2.986 8.484-5.023 12.77-2.147 4.53-6.996 18.3-12.732 19.655-3.038.72-5.086.637-7.973-.933-5.758-3.13-11.586-4.274-17.764-6.103-10.58-3.127-21.16-8.075-31.31-12.422-21.41-9.168-41.36-22.448-61.768-33.568-11.066-6.031-21.81-12.684-32.875-18.794-5.785-3.194-11.318-6.628-17.246-9.592-3.16-1.58-7.244-5.405-10.396-6.434-5.616-1.831-3.21-10.713 2.443-8.87 6.754 2.202 12.99 7.558 19.496 10.812 10.607 5.304 20.121 12.469 31.043 17.246 8.45 3.696 16.648 10.344 24.55 15.156 9.788 5.968 20.382 10.758 30.635 15.887 18.672 9.334 36.764 18.786 57.133 24.057 1.676.434 10.532 4.912 11.481 3.184 2.5-4.564 4.998-9.242 7.342-13.921 4.07-8.11 3.904-17.96 8.584-25.47 3.125-5.02 11.085-.406 7.94 4.644" fill="currentColor"/>
    </g>
  </g>
</svg>
