<svg xmlns="http://www.w3.org/2000/svg" viewBox="0 0 503.353 179.417">
  <defs>
    <clipPath id="a">
      <path d="M0 134.563h377.515V0H0z"/>
    </clipPath>
  </defs>
  <g clip-path="url(#a)" transform="matrix(1.33333 0 0 -1.33333 0 179.417)">
    <path d="M5.694 73.782c-.733-.779-1.29-1.699-1.921-2.56-.59-.802-1.195-1.615-1.664-2.495-.19-.354.35-.67.539-.314.438.821 1.004 1.557 1.54 2.315.626.882 1.205 1.824 1.947 2.613.275.293-.165.735-.441.441M5.853 67.48c-.6-1.097-1.547-1.86-2.32-2.82-.332-.413-.598-.876-.928-1.292-.293-.368-.356-.857-.655-1.234-.246-.31.192-.755.442-.44.685.864 1.092 1.914 1.798 2.792.74.92 1.627 1.626 2.202 2.68.193.352-.346.668-.54.314M5.694 61.719c-1.22-1.412-2.508-2.763-3.377-4.431-.186-.356.353-.672.539-.314.844 1.62 2.094 2.932 3.279 4.304.26.303-.178.747-.441.44M6.317 55.895c-1.272-1.272-2.523-2.556-3.584-4.015-.237-.326.304-.636.538-.314 1.03 1.413 2.254 2.654 3.487 3.888.285.285-.156.726-.44.441M6.11 51.111c-.514-.515-1.08-1.058-1.366-1.74-.343-.824-.734-1.753-1.339-2.419-.27-.296.17-.739.441-.442.526.58.808 1.272 1.178 1.951.198.362.32.75.542 1.104.26.413.642.762.984 1.106.284.285-.157.725-.44.44M8.972 47.305c-.793-1.06-1.569-2.132-2.385-3.172-.469-.598-.909-1.204-.985-1.977-.039-.401.585-.397.624 0 .082.836.813 1.537 1.297 2.174.67.88 1.324 1.776 1.988 2.66.242.322-.3.632-.539.315M12.557 45.29c-.61-.476-.926-1.245-1.336-1.88-.468-.723-.935-1.389-1.24-2.21-.14-.379.463-.54.602-.167.282.76.715 1.406 1.177 2.062.411.584.66 1.303 1.238 1.752.318.247-.127.684-.44.442M17.708 44.81c-.395-.571-.853-1.094-1.248-1.664-.44-.634-.868-1.251-1.407-1.81-.28-.288.16-.73.442-.44.467.484.872 1.007 1.253 1.56.478.698 1.018 1.345 1.499 2.039.23.332-.311.642-.54.315M22.124 44.872c-.688-.725-1.08-1.678-1.328-2.634-.1-.389.501-.554.602-.165.22.852.553 1.711 1.167 2.358.277.291-.163.734-.44.441M39.802 87.717c-1.254-1.422-2.863-2.486-4-4.016-.24-.322.301-.633.54-.314 1.1 1.482 2.685 2.51 3.901 3.889.265.3-.174.743-.44.44M39.595 82.517c-.698-.65-1.522-1.103-2.2-1.784a21.339 21.339 0 0 1-1.801-2.023c-.246-.32.297-.63.539-.314.567.736 1.215 1.406 1.87 2.064.618.62 1.395 1.022 2.033 1.617.295.274-.147.713-.441.44M38.298 74.55c-.405-.958-1.097-1.705-1.823-2.432-.285-.285.156-.726.44-.441.76.76 1.497 1.556 1.922 2.56.154.365-.383.683-.54.314M38.682 69.484c-.205-.727-.646-1.21-1.167-1.733-.514-.516-.936-1.143-1.457-1.664-.284-.287.157-.727.441-.442.623.622 1.138 1.337 1.751 1.961.49.498.844 1.038 1.034 1.712.11.39-.493.553-.602.166M38.922 62.695c-1.013-1.406-2.107-2.753-3.12-4.16-.235-.327.306-.638.539-.314 1.013 1.407 2.107 2.753 3.12 4.161.235.327-.306.637-.539.313M39.45 57.816c-.809-.384-1.272-1.109-1.765-1.822a12.445 12.445 0 0 0-2.603-2.754c-.315-.24-.005-.784.314-.539.894.687 1.554 1.498 2.316 2.313.71.758 1.067 1.795 2.052 2.263.363.172.047.71-.315.54M39.295 52.347c-.072-.71-.599-1.397-.96-1.997-.548-.912-1.122-1.794-1.86-2.565-.278-.292.162-.733.441-.442.775.81 1.379 1.735 1.959 2.69.435.72.957 1.46 1.044 2.314.04.4-.584.396-.624 0M41.418 46.889c-.333-.761-1.085-1.447-1.63-2.074a6.028 6.028 0 0 1-1.314-2.576c-.092-.391.51-.558.602-.165.256 1.085.818 1.972 1.584 2.773.464.486 1.025 1.105 1.297 1.728.16.364-.378.682-.539.314M45.95 45.691c-.061-.662-.515-1.199-.746-1.804-.255-.668-.701-1.384-1.083-1.99-.215-.342.326-.655.539-.314.45.716.856 1.498 1.207 2.267.279.613.645 1.155.708 1.841.036.401-.588.397-.624 0M51.241 46.536c-1.292-1.139-1.928-2.753-2.752-4.223-.197-.35.341-.666.538-.314.797 1.421 1.406 2.995 2.655 4.096.302.267-.14.706-.44.441M54.312 45.849a39.164 39.164 0 0 1-1.904-4.026c-.15-.373.453-.534.603-.165a37.756 37.756 0 0 0 1.84 3.877c.193.353-.346.668-.539.314M73.912 107.267c-1.576-1.222-2.677-2.86-3.951-4.368-.258-.305.18-.749.44-.44 1.275 1.507 2.376 3.145 3.952 4.367.318.246-.128.684-.441.441M74.903 102.42c-.569-.95-1.714-1.565-2.547-2.28-1.126-.967-2.073-2.137-3.02-3.272-.256-.307.183-.75.441-.44 1.041 1.246 2.091 2.473 3.327 3.534.798.685 1.784 1.22 2.338 2.143.206.346-.333.66-.539.315M73.912 94.58c-.585-.492-1.22-.792-1.752-1.351-.555-.583-1.035-1.226-1.603-1.798-.92-.922-1.823-1.931-2.133-3.228-.094-.391.508-.557.602-.165.35 1.459 1.51 2.456 2.504 3.5.476.502.89 1.059 1.368 1.56.399.422 1.007.664 1.455 1.042.309.258-.135.698-.441.44M72.801 86.966c-.8-.286-1.267-.973-1.708-1.665-.706-1.112-1.526-2.146-2.222-3.263-.214-.343.326-.655.538-.314.52.83 1.141 1.589 1.685 2.402.51.763.951 1.908 1.873 2.238.376.134.214.738-.166.602M72.823 80.582c-1.035-1.693-2.654-2.972-3.36-4.857-.14-.378.463-.54.603-.166.673 1.801 2.3 3.079 3.296 4.71.21.343-.33.657-.54.313M73.447 74.758c-1.374-1.83-3.016-3.717-3.952-5.823-.162-.364.376-.682.539-.314.936 2.106 2.578 3.99 3.952 5.823.24.322-.301.632-.54.314M74.743 68.167c-1.353-1.395-2.294-3.094-3.535-4.576-.256-.307.182-.75.441-.442 1.24 1.483 2.184 3.184 3.535 4.577.28.289-.16.73-.44.441M74.903 62.487c-.72-.952-1.448-1.896-2.08-2.91-.733-1.175-1.292-2.45-2.239-3.474-.273-.295.168-.737.441-.44.79.852 1.315 1.842 1.878 2.85.726 1.3 1.644 2.476 2.54 3.66.241.321-.3.631-.54.314M73.56 55.32c-.692-.407-1.043-1.024-1.444-1.696-.595-.994-1.249-1.963-1.789-2.99-.187-.357.351-.672.538-.316.401.762.886 1.471 1.311 2.218.442.776.908 1.78 1.697 2.245.346.204.033.744-.314.54M75.991 51.111c-.887-.939-1.55-2.027-2.3-3.072-.898-1.25-2.188-2.056-2.948-3.439-.194-.352.345-.667.54-.314.665 1.213 1.68 2.098 2.653 3.056.975.96 1.547 2.324 2.496 3.33.276.291-.164.732-.44.44M77.863 45.912a10.5 10.5 0 0 1-1.582-2.102c-.356-.624-.313-1.336-.578-1.987-.152-.373.453-.533.602-.166.197.483.212 1.012.354 1.511.24.848 1.052 1.69 1.645 2.304.28.288-.16.73-.441.44M82.39 46.265c-.45-.835-1.087-1.537-1.664-2.287-.49-.637-.652-1.587-1.04-2.288-.195-.353.344-.667.538-.315.376.677.6 1.38.937 2.079.437.902 1.283 1.6 1.768 2.498.191.352-.348.667-.539.313M87.142 45.982c-.29-1.58-1.39-2.85-1.872-4.367-.122-.385.48-.548.602-.166.483 1.518 1.58 2.78 1.872 4.367.072.394-.53.562-.602.166" fill="#12243e"/>
    <path d="M35.988 130.277c-.49-.156-.697-.497-.961-.929-.548-.902-1.207-1.756-1.818-2.616-1.284-1.809-3.234-3.548-3.834-5.72-.108-.389.494-.554.602-.166.5 1.812 2.274 3.62 3.402 5.073.453.584.864 1.2 1.282 1.81.268.39.978 1.782 1.493 1.946.382.122.219.725-.166.602M40.95 131.693c-1.478-2.04-2.958-4.134-4.58-6.066-1.4-1.667-2.976-3.648-3.72-5.707-.137-.379.466-.54.602-.166.837 2.316 2.752 4.431 4.281 6.304 1.392 1.704 2.666 3.54 3.955 5.321.236.326-.306.637-.539.314M44.493 130.246c-1.18-.549-1.805-1.695-2.604-2.667-1.074-1.306-2.08-2.665-3.18-3.95-.976-1.142-1.993-2.22-2.907-3.42-1.006-1.318-2.252-2.604-2.964-4.114-.171-.362.367-.679.539-.315.562 1.194 1.509 2.19 2.303 3.237.989 1.304 1.988 2.552 3.099 3.751 1.02 1.101 1.922 2.311 2.847 3.49.888 1.128 1.875 2.84 3.182 3.45.365.168.047.706-.315.538M48.437 128.261c-.334-.534-1.096-.978-1.518-1.496a18.393 18.393 0 0 0-2.163-2.232c-1.705-1.498-3.487-2.942-5.097-4.543-1.552-1.543-2.971-3.212-4.535-4.747-1.824-1.79-3.701-3.524-5.513-5.325-.286-.283.156-.725.44-.44 3.37 3.348 6.74 6.665 10.049 10.071 1.579 1.624 3.399 3.047 5.099 4.544a20.164 20.164 0 0 1 2.162 2.231c.477.571 1.223.997 1.615 1.623.213.341-.327.655-.54.314M53.459 127.001c-1.386-.433-2.633-1.79-3.772-2.648-1.521-1.147-2.957-2.386-4.405-3.622a56.255 56.255 0 0 1-4.198-3.989c-1.317-1.383-2.37-2.988-3.701-4.367-1.22-1.264-2.36-2.528-3.681-3.698-1.52-1.345-3.212-2.53-4.625-3.984-1.293-1.33-2.561-2.712-3.872-4.014-.587-.583-2.324-1.43-2.538-2.286-.097-.39.505-.554.603-.164.13.523 1.878 1.535 2.376 2.008 1.197 1.14 2.375 2.418 3.51 3.63 2.483 2.651 5.594 4.642 8.072 7.326 2.444 2.647 4.537 5.507 7.208 7.958a84.949 84.949 0 0 0 4.307 3.69c.857.685 1.74 1.337 2.62 1.994.706.528 1.405 1.296 2.262 1.564.382.12.219.722-.166.602M54.632 124.786c-4.782-3.325-9.048-7.35-13.075-11.544-1.951-2.033-4.037-3.989-5.9-6.099-.931-1.054-1.683-2.238-2.654-3.258-.902-.946-1.593-2.109-2.705-2.809-.24-.15-.171-.623.157-.58.26.032.33.07.533.247.024.02.035.043.05.066.473.31.938.667 1.2 1.17.602 1.151 1.778 1.987 2.542 3.038 1.869 2.571 4.323 4.561 6.424 6.926 4.043 4.551 8.747 8.831 13.742 12.304.329.228.017.77-.314.54" fill="#0062ae"/>
    <path d="M24.344 43.446c-1.373-.937-3.215-.473-4.776-.675-1.386-.179-2.604-.308-4.004-.308-3.582 0-4.673-.11-8.213.528-3.158.57-3.694 3.6-3.694 6.231 0 .08-.013.15-.022.223.01 2.298-.004 3.056-.082 5.38-.107 3.233-.312 2.52-.312 5.742v6.68c0 1.73-.12 3.155-.103 4.997.006.632 0 1.56.151 2.112.234 2.325 1.402 3.685 4.216 3.71 2.704.026 2.913 0 5.617 0h3.325c1.088 0 2.106-.416 3.121-.416 3.36 0 5.484-.323 5.511-4.263 0-2.748.428-3.067.57-5.802.185-3.637-.206-3.005-.13-6.643.076-3.73.267-3.582.306-7.355.023-2.307-.319-2.866-.327-5.168 0-.01-.003-.018-.003-.029v-.077c0-.458.114-2.359.057-2.62-.319-1.45.271-1.237-1.208-2.247m4.357 16.373c-.3 3.62.106 3.011.095 6.637-.012 3.107-.597 3.831-.597 6.931-.02 3.018-.713 5.816-3.872 6.957-1.65.597-3.478.02-5.069.664-1.71.692-4.344.178-6.136.178H8.577c-1.554 0-3.679.205-5.064-.706-2.84-1.868-3.39-3.873-3.39-7.093 0-.186.033-.349.081-.502-.337-1.32-.174-2.809-.096-4.127.233-3.89.014-1.296.014-5.195 0-3.58.415-3.088.415-6.659 0-2.067.406-2.26.057-4.354-.239-1.43-.13-2.705-.057-4.16.002-.04.013-.074.017-.112.097-2.786.691-4.672 2.86-6.827 2.49-2.477 5.191-2.083 8.404-2.107 3.73-.028 7.383.415 11.078.415 1.434 0 3.101.5 4.212 1.353.676.52 1.858 1.352 1.858 3.847 0 0 .034 2.306 0 4.407-.034 2.1-.019 2.883-.039 4.836-.034 3.323.046 2.342-.226 5.617M57.726 43.446c-1.373-.937-3.216-.473-4.777-.675-1.385-.179-2.604-.308-4.003-.308-3.582 0-4.673-.11-8.214.528-3.157.57-3.693 3.6-3.693 6.231 0 .08-.013.15-.022.223.01 2.298-.004 7.19-.082 9.513-.107 3.233-.312 7.72-.312 10.942v10.853c0 1.73-.121 3.155-.103 4.997.006.632 0 1.56.15 2.111.235 2.327 1.402 3.685 4.217 3.711 2.703.025 2.913 0 5.617 0h3.325c1.088 0 2.106-.416 3.12-.416 3.36 0 5.485-.323 5.512-4.264 0-2.747.428-3.066.568-5.802.187-3.636-.204-7.177-.13-10.816.079-3.73.269-8.78.307-12.556.023-2.305-.32-6.997-.327-9.299l-.002-.029v-.077c0-.458.113-2.359.056-2.62-.318-1.45.272-1.237-1.207-2.247m4.357 25.705c-.3 3.62.106 7.184.094 10.811-.011 3.106-.596 3.831-.596 6.93-.021 3.018-.713 5.816-3.872 6.958-1.65.597-3.478.02-5.07.663-1.71.692-4.343.18-6.135.18h-4.545c-1.554 0-3.68.204-5.064-.707-2.841-1.869-3.392-3.874-3.392-7.094 0-.186.035-.349.083-.5-.337-1.322-.174-2.81-.096-4.129.233-3.89.013-5.468.013-9.368 0-3.58.416-8.287.416-11.858 0-2.069.405-2.26.056-4.356-.24-1.43-.13-6.836-.056-8.29.002-.04.012-.075.017-.113.096-2.786.69-4.672 2.859-6.827 2.49-2.477 5.192-2.083 8.405-2.107 3.729-.028 7.383.415 11.078.415 1.434 0 3.1.5 4.21 1.353.677.52 1.86 1.352 1.86 3.847 0 0 .034 2.306 0 4.407-.035 2.1-.02 7.016-.04 8.968-.033 3.324.047 7.542-.225 10.817M91.363 43.31c-1.373-.937-3.216-.473-4.777-.675-1.385-.18-2.604-.307-4.003-.307-3.583 0-4.673-.11-8.214.528-3.157.568-3.693 3.599-3.693 6.23 0 .08-.013.15-.022.224.01 2.298.376 4.524.3 6.849-.109 3.232-.694 17.019-.694 20.242v19.046c0 1.73-.793 6.09.203 7.64.431.673.265 1.319-.155 1.756.234 2.326 1.401 3.685 4.216 3.71 2.703.026 2.913 0 5.617 0h3.325c1.087 0 2.106-.415 3.12-.415 3.361 0 5.485-.323 5.512-4.264 0-2.747.428-5.354.568-8.09.187-3.636-.204-15.37-.129-19.01.077-3.73.268-18.08.306-21.854.023-2.306-.318-4.334-.327-6.636l-.002-.03v-.076c0-.458.113-2.36.056-2.621-.318-1.45.272-1.236-1.207-2.247m4.357 32.342c-.3 3.619.106 15.377.094 19.004-.01 3.107-.596 6.118-.596 9.218-.02 3.018-.713 5.816-3.872 6.958-1.65.597-3.478.02-5.069.663-1.71.692-4.344.179-6.136.179h-4.545c-1.554 0-3.68.205-5.064-.706-2.84-1.87-3.392-3.874-3.392-7.094 0-.186.035-.35.083-.501-.337-1.321-.174-2.81-.096-4.127.233-3.892.013-15.952.013-19.85 0-3.581.416-17.587.416-21.158 0-2.068.405-3.73.056-5.824-.239-1.431-.13-2.704-.056-4.16.002-.04.012-.073.017-.111.096-2.787.69-4.672 2.86-6.827 2.49-2.477 5.19-2.083 8.404-2.107 3.73-.028 7.383.415 11.077.415 1.435 0 3.102.499 4.212 1.353.676.52 1.86 1.35 1.86 3.847 0 0 .033 2.306 0 4.407-.036 2.1-.02 4.35-.04 6.305-.034 3.323.046 16.84-.226 20.116" fill="#12243e"/>
    <path d="M55.963 121.462c-1.929-.798-4.387-.271-6.397-.204-.786.026-1.259-.434-1.431-1.007a1.587 1.587 0 0 1-.748-.598c-.715-1.034-.905-1.947-1.032-3.185-.218-2.138-1.892-3.926-3.059-5.62-2.29-3.32-5.81-5.533-9.314-7.464-3.153-1.737-7.762-3.943-11.421-4.166-1.344-.082-2.789-.445-4.119-.414-.271.007-.54.03-.807.065 1.443.693 2.676 1.889 4.036 2.767 2.029 1.309 4.007 2.973 5.756 4.637 1.787 1.699 2.731 3.833 4.028 5.875.527.829 1.138 1.649 1.457 2.59.308.912.913 3.218 1.534 3.858.457.47.527 1.019.371 1.498.09.848-.394 1.703-1.473 1.58-1.428-.164-2.801-.548-4.253-.57-4.226-.064-1.281 2.059.133 3.33.555.499.802 1.019 1.47 1.389.607.335 1.171.183 1.672.676 1.942 1.905 4.378 3.2 6.86 4.286 4.553 1.992 8.693-3.476 12.465-5.362 1.018-.51 1.814-.827 2.581-1.73.364-.427 2.406-1.934 1.691-2.231m1.654 3.483c-2.264 2.264-5.125 3.687-7.784 5.459-2.446 1.63-5.796 4.576-9.001 4.109-3.426-.5-7.258-2.745-9.839-4.992-.956-.831-2.358-.93-3.156-1.964-1.144-1.484-2.787-2.376-4.162-3.603-1.933-1.724-.258-3.818 1.394-4.771 1.977-1.14 3.773-1.16 5.709-.95-.208-.601-.387-1.226-.603-1.864-.685-2.022-2.156-4.076-3.27-5.897-1.359-2.22-3.602-3.397-5.48-5.062-.966-.856-1.962-1.497-3.051-2.165-.404-.248-.925-.772-1.411-1.163-.084-.001-.168 0-.256-.014-2.841-.43-5.525-3.858-2.061-5.622 1.227-.625 2.783-.738 4.138-.77 1.873-.043 4.481.217 6.239.888 2.874 1.097 6.075 1.626 8.752 3.166 2.659 1.53 5.249 3.059 7.775 4.81 2.151 1.49 3.49 3.357 4.95 5.473.868 1.259 1.723 2.463 2.401 3.839.671 1.363.311 2.97 1.179 4.227.009.012.012.024.021.037 2.716-.134 5.803-.536 8.155 1.067 2.153 1.467.733 4.39-.639 5.762" fill="#0062ae"/>
    <path d="M353.96 73.782c-.733-.78-1.29-1.699-1.922-2.56-.589-.802-1.195-1.615-1.664-2.495-.188-.354.35-.67.54-.314.437.821 1.004 1.557 1.54 2.314.625.883 1.204 1.825 1.946 2.614.276.293-.165.735-.44.441M354.118 67.48c-.6-1.097-1.548-1.86-2.319-2.82-.333-.413-.599-.876-.929-1.292-.293-.369-.356-.857-.655-1.234-.246-.31.191-.756.441-.44.685.864 1.093 1.914 1.8 2.792.74.92 1.626 1.626 2.2 2.68.193.352-.345.668-.538.314M353.96 61.719c-1.22-1.412-2.509-2.763-3.378-4.431-.186-.356.353-.672.538-.315.845 1.622 2.095 2.932 3.28 4.305.261.302-.177.747-.44.44M354.583 55.895c-1.272-1.272-2.523-2.556-3.585-4.016-.236-.324.305-.634.54-.312 1.027 1.412 2.253 2.653 3.486 3.887.285.285-.157.725-.44.441M354.375 51.111c-.513-.515-1.08-1.059-1.365-1.74-.343-.824-.734-1.753-1.339-2.419-.27-.297.17-.739.441-.442.526.58.808 1.272 1.177 1.951.198.362.32.75.542 1.104.26.413.642.762.984 1.106.285.284-.157.725-.44.44M357.237 47.305c-.793-1.06-1.569-2.132-2.385-3.172-.469-.598-.909-1.204-.985-1.977-.038-.401.586-.397.624 0 .082.836.813 1.537 1.298 2.174.67.88 1.323 1.776 1.987 2.66.242.322-.3.632-.539.315M360.822 45.29c-.61-.476-.926-1.245-1.336-1.88-.468-.723-.935-1.389-1.24-2.21-.14-.379.464-.54.602-.167.283.76.715 1.406 1.176 2.062.412.584.661 1.303 1.24 1.752.317.247-.128.684-.442.442M365.973 44.809c-.395-.57-.853-1.093-1.248-1.664-.44-.633-.867-1.25-1.406-1.808-.281-.29.16-.73.44-.441a12.04 12.04 0 0 1 1.254 1.56c.479.697 1.019 1.345 1.499 2.039.23.332-.311.642-.54.314M370.39 44.872c-.69-.725-1.081-1.678-1.328-2.634-.102-.389.5-.554.6-.165.222.852.554 1.711 1.168 2.358.278.291-.163.734-.44.441M322.124 87.717c-1.254-1.423-2.863-2.486-4-4.016-.24-.323.302-.633.54-.314 1.101 1.482 2.686 2.51 3.901 3.889.266.3-.173.743-.44.44M321.916 82.517c-.697-.65-1.52-1.103-2.198-1.784a21.339 21.339 0 0 1-1.802-2.023c-.246-.32.297-.63.538-.314.568.736 1.216 1.405 1.871 2.064.618.62 1.395 1.022 2.032 1.616.295.275-.146.714-.44.44M320.62 74.55c-.405-.958-1.097-1.705-1.823-2.432-.284-.285.156-.726.441-.441.76.76 1.496 1.556 1.92 2.56.155.365-.382.683-.538.314M321.004 69.484c-.204-.727-.646-1.21-1.168-1.733-.514-.516-.935-1.143-1.455-1.664-.285-.287.156-.727.441-.442.621.622 1.137 1.337 1.75 1.961.49.498.844 1.038 1.034 1.712.109.39-.493.553-.602.166M321.244 62.695c-1.014-1.407-2.107-2.753-3.12-4.16-.235-.327.306-.638.54-.315 1.012 1.408 2.106 2.754 3.118 4.161.236.328-.306.638-.538.314M321.772 57.816c-.808-.384-1.271-1.109-1.764-1.822a12.445 12.445 0 0 0-2.603-2.754c-.315-.24-.005-.784.314-.539.894.687 1.554 1.498 2.316 2.312.709.76 1.067 1.796 2.05 2.264.366.172.048.71-.313.54M321.616 52.347c-.07-.71-.598-1.397-.959-1.998-.548-.911-1.12-1.793-1.86-2.564-.279-.292.163-.733.441-.442.774.81 1.378 1.735 1.958 2.69.436.72.958 1.46 1.044 2.314.041.4-.583.396-.624 0M323.74 46.889c-.333-.761-1.085-1.447-1.632-2.074a6.026 6.026 0 0 1-1.312-2.576c-.092-.391.51-.558.602-.165.256 1.085.82 1.972 1.583 2.773.465.486 1.026 1.105 1.297 1.727.16.365-.378.683-.539.315M328.273 45.691c-.061-.662-.516-1.199-.747-1.804-.255-.668-.701-1.384-1.082-1.99-.215-.342.325-.655.538-.314.45.716.856 1.498 1.207 2.267.279.613.646 1.155.708 1.841.036.401-.588.397-.624 0M333.564 46.536c-1.291-1.139-1.93-2.753-2.753-4.224-.196-.35.342-.665.539-.313.797 1.421 1.406 2.995 2.654 4.096.303.267-.14.706-.44.441M336.634 45.849a38.949 38.949 0 0 1-1.903-4.026c-.152-.373.452-.534.602-.165a37.756 37.756 0 0 0 1.84 3.877c.193.353-.346.668-.54.314M289.056 107.267c-1.577-1.222-2.677-2.86-3.952-4.368-.258-.305.18-.749.44-.44 1.276 1.507 2.376 3.145 3.952 4.367.318.246-.127.684-.44.441M290.047 102.42c-.569-.95-1.714-1.566-2.547-2.28-1.127-.967-2.073-2.137-3.02-3.272-.256-.307.183-.75.441-.442 1.041 1.248 2.091 2.475 3.327 3.536.798.685 1.784 1.22 2.337 2.143.207.346-.332.66-.538.315M289.056 94.58c-.586-.492-1.221-.793-1.753-1.352-.554-.583-1.034-1.226-1.603-1.797-.92-.922-1.822-1.932-2.132-3.228-.095-.392.508-.557.6-.166.35 1.46 1.51 2.456 2.506 3.502.476.501.89 1.058 1.367 1.56.4.42 1.007.663 1.455 1.04.309.258-.134.698-.44.441M287.945 86.966c-.802-.287-1.267-.973-1.708-1.665-.706-1.112-1.526-2.146-2.223-3.263-.214-.343.327-.655.54-.314.518.83 1.14 1.588 1.684 2.402.51.763.951 1.908 1.872 2.237.377.135.214.739-.165.603M287.967 80.582c-1.036-1.693-2.655-2.972-3.36-4.857-.14-.379.463-.54.602-.166.674 1.801 2.3 3.079 3.296 4.709.21.344-.33.657-.538.314M288.59 74.758c-1.373-1.83-3.016-3.717-3.951-5.823-.161-.364.376-.682.539-.315.935 2.107 2.578 3.992 3.95 5.824.243.322-.3.632-.537.314M289.887 68.167c-1.353-1.395-2.294-3.094-3.535-4.577-.256-.306.182-.749.44-.441 1.24 1.483 2.185 3.184 3.536 4.577.28.288-.161.73-.441.441M290.047 62.487c-.721-.952-1.447-1.896-2.08-2.91-.733-1.175-1.291-2.45-2.239-3.474-.273-.295.168-.737.441-.44.79.852 1.315 1.842 1.878 2.85.727 1.3 1.644 2.476 2.538 3.66.243.321-.299.631-.538.314M288.703 55.32c-.69-.408-1.042-1.024-1.443-1.696-.595-.994-1.249-1.963-1.789-2.99-.188-.357.35-.672.538-.316.4.761.885 1.471 1.311 2.218.441.776.908 1.78 1.696 2.245.347.204.034.744-.313.54M291.135 51.111c-.887-.939-1.55-2.027-2.301-3.072-.897-1.25-2.187-2.056-2.947-3.439-.193-.352.345-.667.539-.314.666 1.213 1.68 2.098 2.654 3.056.975.96 1.547 2.324 2.496 3.33.277.291-.165.732-.441.44M293.007 45.912a10.528 10.528 0 0 1-1.582-2.102c-.357-.624-.313-1.336-.578-1.987-.153-.373.452-.533.6-.166.198.483.213 1.012.356 1.511.24.848 1.052 1.69 1.645 2.304.28.288-.161.73-.441.44M297.534 46.265c-.452-.835-1.088-1.538-1.664-2.288-.49-.636-.652-1.586-1.04-2.287-.195-.353.343-.667.538-.315.376.677.6 1.38.937 2.079.437.902 1.283 1.6 1.767 2.498.191.352-.347.667-.538.313M302.285 45.982c-.289-1.58-1.39-2.85-1.87-4.367-.124-.385.478-.548.6-.166.483 1.518 1.581 2.78 1.873 4.367.072.394-.53.562-.603.166" fill="#12243e"/>
    <path d="M328.116 131.757c-.257-.22-.534-.364-.757-.624a11.92 11.92 0 0 1-.54-.688c-.27-.37-.622-.667-.919-1.015-.207-.243-.219-.57-.435-.793-.19-.193-.055-.533.22-.533h.157c.227 0 .321.2.291.373.06.093.108.193.147.31.15.443.606.76.905 1.112.166.194.35.345.486.564.242.387.551.567.886.852.307.262-.136.7-.44.442M333.264 131.913c-.354-.326-.738-.611-1.092-.936-.304-.28-.587-.814-.828-1.155-.574-.81-1.305-1.59-1.717-2.496-.165-.363.373-.681.539-.315.363.798 1.027 1.522 1.53 2.23.28.398.598.742.855 1.155.276.44.776.728 1.154 1.076.297.273-.145.712-.441.44M336.852 130.197c-.747-.814-1.305-1.791-1.982-2.663-.753-.97-1.526-1.92-2.385-2.796-.282-.29.159-.73.44-.442.86.878 1.63 1.829 2.386 2.797.676.866 1.24 1.856 1.982 2.663.272.295-.168.738-.441.44M339.568 128.728c.013-.427-.402-.63-.614-.921-.447-.612-1.017-1.161-1.49-1.756-.956-1.201-1.817-2.474-2.796-3.654-.255-.307.183-.751.44-.441 1.17 1.409 2.202 2.925 3.355 4.349.542.669 1.757 1.476 1.73 2.423-.013.401-.637.403-.624 0M341.919 127.251c-1.132-2.938-4.031-4.682-5.428-7.414-.183-.357.356-.672.538-.314.689 1.346 1.971 2.508 2.915 3.682 1.002 1.243 1.995 2.367 2.577 3.88.145.376-.458.538-.602.166M345.538 125.298c-.945-1.864-2.804-3.657-4.229-5.174-.652-.695-1.17-1.525-1.699-2.313-.31-.465-.645-.683-.666-1.25-.015-.402.61-.401.624 0 .018.475.974 1.518 1.211 1.865.628.917 1.403 1.718 2.12 2.563 1.07 1.258 2.426 2.512 3.178 3.995.182.357-.357.673-.539.314M347.878 122.334c-1.054-2.112-2.829-3.334-4.211-5.147-1.392-1.824-3.121-3.375-4.368-5.304-.22-.339.321-.652.539-.315.623.965 1.36 1.8 2.146 2.631.895.943 1.614 2.054 2.535 2.97 1.492 1.483 2.95 2.949 3.898 4.851.179.359-.359.674-.539.314M350.11 120.058c-2.697-2.498-4.802-5.628-7.329-8.298-2.059-2.174-5.389-3.97-5.709-7.21-.039-.4.585-.396.624 0 .193 1.954 1.606 2.914 2.826 4.243 1.071 1.166 2.357 2.14 3.44 3.317 2.246 2.44 4.153 5.25 6.59 7.507.295.274-.147.714-.442.44M336.491 109.699c-.274-.448-.658-.79-.997-1.184-.313-.365-.537-.803-.878-1.145-.567-.57-1.063-1.168-1.276-1.957-.106-.388.497-.553.601-.165.253.936 1.018 1.424 1.53 2.187.466.697 1.124 1.237 1.558 1.95.21.344-.329.657-.538.314M352.763 116.782c-2.282-1.906-4.018-4.766-5.743-7.161-.967-1.342-1.967-2.65-2.82-4.068-.89-1.477-2.126-2.648-3.292-3.901-.274-.295.167-.737.44-.441.856.919 1.878 1.804 2.6 2.829.884 1.254 1.652 2.568 2.558 3.809 1.055 1.446 2.089 2.908 3.158 4.344 1.042 1.397 2.199 3.027 3.539 4.148.31.258-.134.697-.44.44M355.054 112.975c-1.847-2.578-4.106-4.816-6.202-7.19-.92-1.042-1.733-2.136-2.547-3.26-.802-1.112-1.763-2.175-2.326-3.433-.163-.364.374-.68.538-.314.563 1.257 1.523 2.323 2.327 3.431a54.212 54.212 0 0 0 3.199 3.986c1.885 2.145 3.884 4.138 5.549 6.465.235.328-.307.64-.538.315M357.286 110.387c-1.605-2.015-2.908-4.188-4.622-6.135-1.449-1.646-3.148-3.447-3.882-5.546-.133-.381.47-.543.602-.166.815 2.329 2.84 4.253 4.432 6.084 1.462 1.68 2.531 3.588 3.91 5.322.248.31-.189.755-.44.44" fill="#0062ae"/>
    <path d="M351.964 45.692c-.058.262.056 2.163.056 2.621v.077c0 .01-.003.018-.003.03-.007 2.301-.35 2.86-.326 5.167.038 3.773.228 3.625.305 7.355.076 3.638-.315 3.006-.129 6.643.141 2.735.568 3.054.568 5.801.028 3.941 2.152 4.264 5.512 4.264 1.014 0 2.033.416 3.121.416h3.325c2.704 0 2.914.025 5.617 0 2.814-.026 3.981-1.385 4.216-3.71.151-.552.144-1.48.151-2.112.018-1.842-.103-3.267-.103-4.997v-6.68c0-3.222-.205-2.509-.313-5.742a111.452 111.452 0 0 1-.081-5.38c-.01-.073-.022-.144-.022-.223 0-2.633-.537-5.662-3.694-6.23-3.541-.639-4.631-.529-8.214-.529-1.399 0-2.618.128-4.003.308-1.561.202-3.404-.263-4.776.675-1.479 1.01-.89.796-1.207 2.246m-3.376 8.51c-.02-1.953-.005-2.737-.039-4.836-.034-2.1 0-4.407 0-4.407 0-2.496 1.182-3.328 1.858-3.848 1.111-.853 2.778-1.352 4.212-1.352 3.694 0 7.349-.443 11.078-.415 3.213.024 5.913-.37 8.405 2.107 2.168 2.155 2.762 4.041 2.858 6.827.005.038.016.072.018.112.073 1.455.182 2.728-.057 4.158-.349 2.096.057 2.29.057 4.356 0 3.571.415 3.08.415 6.658 0 3.9-.219 1.305.013 5.195.079 1.32.242 2.808-.095 4.128.048.153.082.315.082.501 0 3.221-.55 5.225-3.392 7.094-1.384.911-3.509.706-5.063.706h-4.545c-1.792 0-4.425.514-6.136-.179-1.592-.643-3.419-.066-5.069-.663-3.159-1.142-3.851-3.939-3.872-6.958 0-3.099-.585-3.823-.596-6.93-.013-3.626.394-3.018.094-6.637-.272-3.275-.193-2.294-.226-5.618M318.582 45.692c-.057.262.057 2.163.057 2.621v.077c0 .01-.003.018-.003.03-.008 2.301-.35 6.993-.327 9.298.038 3.775.23 8.826.306 12.556.075 3.64-.315 7.18-.129 10.815.141 2.737.568 3.056.568 5.803.027 3.941 2.151 4.264 5.511 4.264 1.015 0 2.034.416 3.121.416h3.326c2.703 0 2.913.025 5.617 0 2.814-.026 3.981-1.385 4.216-3.71.151-.553.144-1.48.151-2.113.018-1.84-.104-3.266-.104-4.996V69.9c0-3.222-.205-7.709-.312-10.94-.077-2.326-.09-7.216-.082-9.514-.009-.073-.02-.144-.02-.223 0-2.633-.538-5.662-3.695-6.23-3.54-.639-4.63-.529-8.214-.529-1.399 0-2.618.128-4.004.308-1.56.202-3.403-.263-4.776.675-1.479 1.01-.889.796-1.207 2.246m-3.375 12.642c-.02-1.953-.005-6.869-.04-8.968-.033-2.1 0-4.407 0-4.407 0-2.496 1.183-3.328 1.86-3.848 1.11-.853 2.777-1.352 4.21-1.352 3.696 0 7.35-.443 11.078-.415 3.213.024 5.914-.37 8.405 2.107 2.17 2.155 2.763 4.041 2.86 6.827.004.038.015.072.016.112.074 1.455.182 6.861-.056 8.291-.35 2.095.056 2.287.056 4.356 0 3.571.416 8.278.416 11.858 0 3.9-.22 5.478.013 9.368.078 1.32.241 2.807-.096 4.128.05.152.083.315.083.501 0 3.22-.55 5.225-3.392 7.093-1.384.912-3.51.707-5.064.707h-4.544c-1.793 0-4.426.513-6.137-.179-1.59-.644-3.418-.066-5.068-.663-3.16-1.142-3.852-3.94-3.872-6.958 0-3.099-.585-3.824-.597-6.93-.012-3.627.394-7.19.095-10.81-.273-3.276-.193-7.495-.226-10.818M284.944 45.557c-.057.26.057 2.163.057 2.62v.078c0 .01-.003.018-.003.029-.008 2.302-.35 4.33-.327 6.636.038 3.775.23 18.124.306 21.855.075 3.638-.315 15.373-.129 19.01.141 2.735.568 5.342.568 8.089.027 3.94 2.152 4.264 5.512 4.264 1.015 0 2.033.416 3.12.416h3.326c2.703 0 2.913.025 5.617 0 2.814-.026 3.981-1.385 4.216-3.711-.42-.437-.587-1.084-.156-1.756.997-1.55.203-5.91.203-7.64V76.4c0-3.222-.584-17.01-.693-20.241-.077-2.325.29-4.551.3-6.85-.01-.072-.022-.143-.022-.222 0-2.633-.537-5.663-3.694-6.231-3.54-.638-4.63-.528-8.214-.528-1.399 0-2.618.127-4.003.307-1.56.202-3.404-.262-4.777.675-1.478 1.01-.889.797-1.207 2.247m-3.375 9.978c-.02-1.953-.005-4.205-.039-6.304-.034-2.101 0-4.407 0-4.407 0-2.496 1.182-3.328 1.858-3.847 1.111-.854 2.778-1.353 4.211-1.353 3.696 0 7.35-.443 11.078-.415 3.214.024 5.914-.37 8.405 2.107 2.17 2.155 2.762 4.04 2.86 6.827.004.038.015.072.017.112.073 1.455.182 2.728-.057 4.158-.349 2.096.057 3.757.057 5.825 0 3.57.415 17.577.415 21.158 0 3.898-.219 15.958.013 19.849.078 1.318.241 2.807-.096 4.128.05.152.083.315.083.5 0 3.22-.55 5.226-3.392 7.094-1.384.912-3.51.707-5.063.707h-4.545c-1.792 0-4.426.513-6.136-.18-1.592-.643-3.419-.065-5.069-.662-3.16-1.142-3.852-3.94-3.872-6.958 0-3.1-.585-6.111-.597-9.218-.012-3.627.394-15.385.095-19.004-.273-3.276-.193-16.793-.226-20.117" fill="#12243e"/>
    <path d="M360.647 106.54c-.766-.901-1.562-1.218-2.581-1.729-3.772-1.886-7.911-7.354-12.464-5.361-2.481 1.086-4.918 2.38-6.86 4.287-.501.491-1.065.34-1.671.675-.67.369-.916.89-1.471 1.388-1.414 1.273-4.358 3.394-.132 3.33 1.45-.022 2.824-.405 4.25-.569 1.08-.124 1.565.732 1.475 1.58.156.479.086 1.029-.37 1.498-.622.64-1.227 2.946-1.534 3.857-.32.942-.931 1.762-1.458 2.591-1.297 2.042-2.241 4.175-4.028 5.875-1.75 1.663-3.726 3.328-5.756 4.637-1.36.878-2.592 2.073-4.036 2.766.267.035.535.059.807.066 1.33.03 2.774-.332 4.119-.414 3.66-.224 8.268-2.429 11.42-4.166 3.506-1.931 7.025-4.144 9.315-7.465 1.168-1.694 2.84-3.481 3.059-5.619.127-1.239.317-2.152 1.032-3.185.208-.301.469-.492.748-.598.172-.573.645-1.033 1.43-1.008 2.012.068 4.469.595 6.398-.204.715-.296-1.327-1.803-1.692-2.232m3.985 4.512c-2.352 1.603-5.44 1.201-8.155 1.067-.01.013-.013.025-.02.037-.87 1.257-.508 2.863-1.18 4.226-.68 1.377-1.532 2.58-2.401 3.84-1.46 2.116-2.8 3.981-4.95 5.473-2.526 1.75-5.116 3.279-7.775 4.81-2.677 1.54-5.878 2.069-8.752 3.166-1.758.67-4.365.931-6.238.888-1.356-.033-2.911-.145-4.14-.77-3.463-1.764-.78-5.193 2.062-5.623.088-.013.17-.013.255-.013.487-.39 1.008-.915 1.412-1.163 1.088-.669 2.084-1.309 3.05-2.166 1.878-1.664 4.123-2.842 5.48-5.062 1.114-1.82 2.587-3.875 3.27-5.897.217-.638.396-1.263.605-1.863-1.937.208-3.734.191-5.71-.95-1.652-.954-3.327-3.047-1.394-4.771 1.375-1.228 3.019-2.12 4.16-3.603.8-1.036 2.203-1.133 3.158-1.965 2.58-2.247 6.413-4.492 9.84-4.992 3.204-.467 6.554 2.479 9 4.11 2.659 1.772 5.52 3.195 7.784 5.459 1.372 1.371 2.792 4.295.639 5.762M148.1 67.525c-.533-.739-2.033-1.277-1.84-2.385.06-.345.584-.199.525.145-.07.395.579.848.83 1.064.332.284.697.545.955.903.205.284-.267.555-.47.273M150.862 67.037c-.333-.357-.52-.808-.826-1.183-.225-.276-.479-.638-.523-1.004-.04-.347.503-.343.544 0 .035.293.384.634.552.864.226.307.376.657.637.938.24.257-.145.643-.384.385M154.852 65.95c-1.078-1.108-1.875-2.427-2.763-3.683-.202-.287.269-.557.47-.274.86 1.218 1.632 2.497 2.677 3.571.245.251-.14.637-.384.385M156.404 62.675c-.052-.474-.51-.774-.827-1.077-.223-.213-.412-.503-.62-.736-.418-.473-.852-.981-.91-1.632-.032-.35.513-.347.544 0 .065.735.86 1.332 1.294 1.877.429.54.982.83 1.063 1.568.038.349-.506.345-.544 0M157.71 59.73c-.683-.89-1.07-1.938-1.632-2.901-.177-.304.293-.578.47-.275.56.962.948 2.012 1.632 2.902.214.277-.26.547-.47.274M160.23 57.497c-.448-.077-.87-.65-1.07-1.032-.18-.342-.386-.669-.58-1.004-.168-.288-.252-.683-.464-.935-.225-.267.158-.654.385-.384.354.42.528 1.014.812 1.49.22.365.599 1.261 1.062 1.341.345.06.198.584-.145.524M163.792 55.476c-1.171-.837-1.694-2.191-2.455-3.362-.192-.295.279-.568.47-.274.698 1.075 1.183 2.398 2.259 3.166.283.2.012.674-.274.47M166.013 53.79c-.058-1.395-1.118-2.484-1.622-3.736-.13-.326.395-.466.525-.144.535 1.328 1.58 2.389 1.641 3.88.015.351-.529.349-.544 0M168.995 52.531c-.513-.552-.803-1.197-1.13-1.868-.37-.757-.87-1.427-1.116-2.24-.102-.338.423-.48.525-.146.23.761.694 1.413 1.06 2.111.326.622.559 1.235 1.046 1.76.238.255-.146.641-.385.383M186.945 49.812c-1.142-.98-2.017-2.235-2.246-3.746-.052-.344.472-.49.525-.146.217 1.43 1.026 2.58 2.106 3.507.266.23-.12.612-.385.384M191.896 49.673c-1.43-.67-2.144-2.594-2.663-3.971-.124-.328.402-.47.524-.144.467 1.238 1.143 3.05 2.414 3.645.317.149.04.617-.275.47M195.649 49.268c-.865-.903-1.312-2.031-1.855-3.138-.155-.313.315-.59.469-.274.522 1.06.94 2.16 1.77 3.028.244.253-.141.638-.384.384M199.595 49.213c-.283-.665-.932-1.294-1.377-1.866a21.216 21.216 0 0 1-1.343-1.942c-.182-.3.288-.573.47-.274.482.79 1.02 1.533 1.594 2.26.385.49.88.968 1.126 1.548.135.318-.332.596-.47.274M174.392 45.586c-.59-.91-.967-1.933-1.451-2.9-.156-.313.313-.59.47-.275.483.967.862 1.99 1.45 2.9.192.296-.28.568-.47.275M177.837 44.861c-.413-.767-1.217-1.226-1.632-1.995-.167-.309.302-.583.47-.275.412.767 1.216 1.225 1.631 1.996.166.308-.303.583-.47.274M180.376 44.498c-.295-.471-.343-1.192-.81-1.534-.28-.205-.01-.677.275-.47.596.437.635 1.141 1.004 1.73.187.298-.283.571-.47.274M206.165 44.554c-.298-.278-.664-.466-.927-.783-.33-.4-.516-.986-.748-1.448-.155-.313.314-.588.47-.275.226.45.411 1.034.733 1.423.233.28.591.449.857.698.257.24-.129.624-.385.385M209.567 44.317a7.348 7.348 0 0 0-.55-.703c-.162-.183-.414-.356-.537-.567-.24-.41-.664-.673-.906-1.087-.179-.304.292-.578.47-.275.12.207.291.37.46.538.184.185.32.411.502.594.38.381.727.781 1.032 1.226.199.29-.273.561-.47.274M213.11 44.959c-.993-.654-1.177-1.848-1.576-2.883-.126-.328.4-.469.525-.144.337.876.483 2.002 1.326 2.557.291.193.02.663-.275.47M217.509 52.884c-.062-.698-.532-1.35-.828-1.972a8.213 8.213 0 0 1-.613-1.764c-.077-.341.448-.487.525-.144.18.812.509 1.55.879 2.292.265.53.527.987.58 1.588.03.35-.513.346-.543 0M221.145 54.769c-.366-1.408-.562-2.878-1.423-4.105-.202-.29.27-.56.47-.275.904 1.289 1.097 2.768 1.478 4.235.088.34-.436.485-.525.145M224.4 57.235c-.027-.983-.36-1.924-.718-2.83-.128-.326.398-.467.526-.144.376.953.708 1.94.735 2.974.01.351-.535.35-.544 0M191.87 108.623c-1.624.225-3.425 1.041-2.41 2.889.783 1.429 2.513 1.529 3.921 1.567 1.21.032 2.782-.083 3.685-.948.46-.441.764-.896 1.308-1.258 1.172-.78 2.26 1.105 1.1 1.878-.519.345-1.053 1.198-1.633 1.609-1.016.721-2.584.902-3.813.897-2.702-.01-4.754-.421-6.448-2.646-1.485-1.953-.387-4.303 1.365-5.546 2.253-1.598 8.415.037 8.71-3.956.101-1.391 2.277-1.401 2.175 0-.305 4.143-4.468 5.03-7.96 5.514" fill="#0062ae"/>
    <path d="M192.203 107.778c.088 2.615-.14 5.228-.17 7.842-.017 1.402-2.192 1.404-2.176 0 .033-2.89.24-5.767.142-8.659-.043-1.287-.619-3.184.007-4.4.641-1.25 2.518-.149 1.88 1.097.154-.3.101.882.115 1.116.06 1.003.168 1.998.202 3.004M195.84 115.982c0 1.403-2.175 1.403-2.175 0 0-4.177.025-8.446.364-12.51.115-1.389 2.29-1.4 2.175 0-.345 4.145-.363 8.315-.363 12.51M161.672 114.604c-.194-.488-.653-.797-1.018-1.149-.4-.387-.704-.867-1.088-1.27-.242-.253.142-.639.385-.384.447.468.803 1.012 1.282 1.451.397.364.76.696.963 1.207.13.327-.396.467-.524.145M162.466 111.641l-1.746-1.746c-.43-.432-.817-.885-1.044-1.456-.129-.327.397-.467.525-.145.238.6.735 1.048 1.181 1.494l1.47 1.47c.247.247-.137.631-.386.383M162.648 108.559a6.26 6.26 0 0 1-1.289-1.385c-.18-.26-.318-.545-.473-.82-.185-.328-.452-.603-.638-.932-.172-.306.297-.58.47-.274.277.49.629.928.905 1.42.353.63.844 1.163 1.409 1.607.276.216-.112.598-.384.384M162.578 105.538c-.236-.607-.75-1.002-1.073-1.553-.308-.521-.731-.968-1.075-1.465-.201-.29.27-.56.469-.274.346.499.746.954 1.075 1.465.376.585.872 1.02 1.129 1.682.127.328-.4.468-.525.145M178.715 85.411c-.273-.946-1.586-1.217-1.642-2.248-.019-.35.526-.349.544 0 .023.416.532.705.817.945.373.315.67.685.806 1.158.097.338-.428.482-.525.145M181.698 83.98c-.028-.87-.794-1.335-1.08-2.105-.121-.33.405-.47.526-.143.142.383.433.677.677.997.28.369.406.793.42 1.25.012.353-.532.352-.543 0M186.087 82.213c-.312-.64-.546-1.324-1.045-1.85-.242-.253.142-.638.384-.383.536.562.796 1.273 1.13 1.959.153.313-.316.589-.47.274M197.744 69.02c-.034-.846-.51-1.596-.544-2.447-.014-.351.53-.35.544 0 .034.846.51 1.596.544 2.448.014.351-.53.35-.544 0M201.28 69.02c-.019-.912-.259-1.803-.272-2.72-.005-.35.54-.35.543 0 .015.917.254 1.807.273 2.72.007.353-.537.352-.544 0M205.632 68.205c-.023-.692-.473-1.183-.78-1.768-.161-.309.308-.585.47-.274.359.684.828 1.234.854 2.042.012.351-.532.35-.544 0M210.527 67.933c-.02-.513-.389-1.078-.736-1.44-.243-.252.141-.637.384-.384.452.47.87 1.16.896 1.824.015.352-.529.35-.544 0M216.59 87.436c-.633-.666-.622-1.5-.623-2.369 0-.35.544-.35.544 0 0 .706-.055 1.439.465 1.984.24.254-.143.639-.385.385M219.503 86.7c-.023-.886-.398-1.63-1.009-2.257-.245-.25.141-.636.385-.384.711.73 1.141 1.614 1.168 2.64.009.351-.535.35-.544 0M158.58 68.477c0-.634-.069-1.225-.263-1.832-.108-.335.417-.477.524-.145.21.652.281 1.296.282 1.977 0 .35-.544.35-.544 0M162.194 67.853c-.603-.658-.623-1.521-.624-2.368 0-.35.544-.35.544 0 .001.685-.028 1.446.465 1.984.236.258-.147.644-.385.384M166.195 65.757a4.938 4.938 0 0 0-.507-2.04c-.152-.313.317-.59.469-.273a5.57 5.57 0 0 1 .582 2.313c.007.352-.537.35-.544 0M228.216 97.923c-.242-.682-.73-1.207-1.061-1.84-.162-.31.308-.584.47-.273.355.676.856 1.237 1.115 1.968.119.332-.407.473-.524.145M231.67 84.514c-.973-.363-1.595-1.258-2.296-1.974-.246-.251.139-.635.385-.384.62.63 1.197 1.512 2.056 1.834.325.122.184.647-.145.524M232.286 82.62c-.007-.06-.27-.19-.319-.229-.152-.113-.214-.233-.305-.396-.172-.31-.408-.566-.656-.815-.248-.248.136-.633.384-.385.283.284.537.581.742.927.218.364.643.44.698.898.041.348-.503.343-.544 0M157.082 89.926c-.886-.58-1.834-1.052-2.72-1.632-.292-.191-.02-.662.274-.47.886.58 1.835 1.053 2.72 1.633.292.19.02.662-.274.469M156.266 86.39c-.543-.263-1.158-.49-1.767-.506-.35-.01-.35-.554 0-.544.71.02 1.408.274 2.041.58.316.154.04.623-.274.47" fill="#0062ae"/>
    <path d="M171.107 48.492c-6.819 2.271-15.294 6.214-17.009 14.108-.125.572-.562.8-1.009.778-.186.326-.542.53-.946.565-1.05.092-5.69 1.3-5.88 2.777-.242 1.906.077 4.088.077 6.017 0 2.143-.33 4.3-.477 6.437-.104 1.505-.094 1.426 1.129 1.693 1.154.252 2.309.375 3.445.703 3.764 1.086 4.884 3.033 5.308 6.828.591 5.284 1.194 10.34 4.176 14.76-.144.995-.264 2.01-.465 2.995a16.485 16.485 0 0 1-.819-1.025c-3.489-4.78-4.17-9.93-4.935-15.604a52.027 52.027 0 0 0-.548-3.205c-.388-1.963-2.563-2.439-4.203-2.913-1.73-.499-4.102.21-5.002-1.688-.91-1.924-.064-5.154.08-7.205.166-2.365.218-4.752.067-7.125-.22-3.454 4.29-5.104 7.35-5.539a1.15 1.15 0 0 1 .65-.215c2.073-8.446 10.967-12.754 18.433-15.24 1.334-.445 1.903 1.658.578 2.098M175.142 114.753c-.9-.356-1.798-.695-2.687-1.037l.034-.16c.02-.046.045-.086.054-.137.083-.402.154-.806.226-1.209.042-.205.08-.41.116-.615 1.26.475 2.54.931 3.82 1.438 1.843.73 3.751 1.21 5.69 1.5.107.72.22 1.44.326 2.16-2.558-.338-5.066-.946-7.579-1.94M234.241 79.41c-.098 1.95-.3 4.243-.723 6.125-.88 3.923-1.216 8.128-2.7 11.888-1.4 3.545-3.926 6.814-6.602 9.491-2.664 2.664-5.829 5.914-9.365 7.377-2.799 1.16-6.447 2.532-9.552 2.592.073-.74.198-1.483.387-2.204 2.312-.168 4.992-1.232 7.09-1.922 3.437-1.129 6.686-4.166 9.221-6.7 2.621-2.622 4.805-5.469 6.506-8.765 1.678-3.25 1.678-7.198 2.493-10.7 1.653-7.11 2.015-15.497-.122-22.54-1.254-4.136-3.997-7.439-7.478-10.049-.925-.693-2.06-1.285-2.872-2.096-.596-.597-2.59-1.926-3.47-1.926-1.403 0-1.403-2.175 0-2.175 2.144 0 4.354 2.076 5.99 3.231 1.722 1.215 3.128 2.66 4.753 3.983 1.74 1.42 2.783 3.23 3.978 5.117 2.062 3.26 2.322 8.257 2.626 12.02.194 2.397-.04 4.857-.16 7.253" fill="#0062ae"/>
    <path d="M184.054 48.168c0 1.403-2.175 1.403-2.175 0 0-1.451.17-3.024-.096-4.458-.229-1.227-4.233-.849-5.09-.878-1.787-.061-4.606.295-4.606 2.616 0 1.463.181 2.894.181 4.352 0 1.403-2.176 1.403-2.176 0 0-2.051-.84-4.784.344-6.619 1.22-1.891 3.4-2.325 5.495-2.517 1.44-.132 2.955.062 4.404.053.89-.006 2.021.225 2.676.88 1.596 1.596 1.043 4.557 1.043 6.571M216.835 50.27c-.155.463-.546.8-1.05.8h-.18c-1.102 0-1.334-1.339-.707-1.915.35-1.28.525-2.83.525-4.07 0-2.543-2.622-2.194-4.332-2.449-1.399-.21-5.692-.669-6.514.642-.78 1.242-1.08 3.456-1.12 4.89-.04 1.4-2.217 1.405-2.177 0 .058-2.014.362-5.545 2.137-6.902 2.275-1.738 6.092-.88 8.735-.72 1.787.11 4.683.477 5.227 2.62.582 2.293.192 4.899-.544 7.105" fill="#0062ae"/>
    <path d="M201.824 46.536c-3.45 0-6.889.141-10.336.182-1.274.014-2.539.181-3.807.181-.727 0-1.444 0-2.169.047-.277.018-1.756.362-1.414-.004-.96 1.027-2.496-.514-1.538-1.538.653-.698 1.395-.477 2.273-.547 1.584-.124 3.263-.315 4.842-.315 4.051 0 8.096-.182 12.15-.182 1.402 0 1.402 2.176 0 2.176M237.605 78.099c-.912.604-2.04.808-2.982 1.322-.168.278-.461.479-.886.479h-.182c-1.182 0-1.35-1.408-.55-2.028 1.166-.9 2.737-.928 3.837-1.96 1.769-1.658-1.591-2.333-2.743-2.358-1.4-.031-1.403-2.208 0-2.177 2.223.05 5.475.943 5.434 3.645-.02 1.258-.916 2.406-1.928 3.077M207.84 113.813c-2.802 4.203-6.983 6.586-11.998 7.113-5.656.596-10.143-.617-14.552-4.236-3.315-2.72-4.02-8.486-2.011-12.206.175-.554.52-1.015.952-1.446.624-.624 1.287-1.501 2.3-1.16.56.19.924.743.76 1.339-.12.435-.542.774-.992.8l-.104.114c-.158.17-.317.336-.481.5l-.034.035a1.145 1.145 0 0 1-.131.262c-.1.146-.178.296-.265.444a1.184 1.184 0 0 1-.265.485c-1.89 3.872.185 8.282 3.572 10.577 3.58 2.424 7.056 2.61 11.25 2.317 3.8-.264 8.188-2.655 10.12-6.037.917-1.603 1.303-3.125 1.303-4.981 0-1.242-1.003-2.132-1.57-3.173a1.102 1.102 0 0 1-.44-.421c-.018-.033-.026-.07-.042-.104a1.033 1.033 0 0 1-.306-.744c0-.56.497-1.131 1.088-1.088.453.033.862.192 1.103.603.019.032.026.069.042.104.06.06.11.13.156.204.12.11.223.251.292.431.608 1.58 1.853 2.329 1.853 4.188 0 2.212-.365 4.225-1.6 6.08" fill="#0062ae"/>
    <path d="M208.533 106.555c-.57 0-.908-.36-1.015-.784a3.268 3.268 0 0 1-.468-.753c-.123-.261-.326-.502-.466-.756-.14-.252-.348-.615-.543-.836a1.275 1.275 0 0 1-.274-.523c-1.03.009-2.06.025-3.089.028-3.19.01-6.378.124-9.568.166-3.318.045-6.638.012-9.955.012-.12 0-.73.037-1.5.097a1.226 1.226 0 0 1-.106.362 2.254 2.254 0 0 1-.393.533c-.124.134-.188.273-.298.464a2.552 2.552 0 0 1-.366.49c.36.679-.228 1.82-1.259 1.642-1.959-.338-5.796-2.697-2.759-4.782 1.917-1.316 4.456-.982 6.681-.982 3.318 0 6.637.018 9.955-.011 2.871-.025 5.742-.12 8.613-.158 1.605-.021 3.21-.012 4.815-.012.955 0 2.025-.185 2.907.33 2.47 1.447 2.567 5.473-.912 5.473M174.77 110.741c-1.055 3.153-2.583 5.067-5.177 7.19-2.032 1.662-5.473 3.854-8.242 2.356-6.232-3.37-2.433-13.237-1.714-18.756-.118-.61.223-1.324 1.028-1.324h.09c.542 0 1.157.498 1.088 1.088-.543 4.665-2.638 10.221-1.398 14.942 1.13 4.302 6.068 1.415 8.11-.253 2.04-1.67 3.283-3.328 4.115-5.82.443-1.325 2.545-.757 2.1.577" fill="#0062ae"/>
    <text style="-inkscape-font-specification:Circe" transform="matrix(1 0 0 -1 39.512 6.768)" font-weight="700" font-size="16" font-family="Circe" fill="#12243e">
      <tspan y="0" x="0 11.824 266.608 278.64001 287.63199 295.34399 303.96799">ДоПосле</tspan>
    </text>
  </g>
</svg>
