<svg xmlns="http://www.w3.org/2000/svg" viewBox="0 0 495.929 440.933">
  <defs>
    <clipPath id="a">
      <path d="M0 330.7h371.947V0H0z"/>
    </clipPath>
    <clipPath id="b">
      <path d="M0 330.7h371.947V0H0z"/>
    </clipPath>
  </defs>
  <g clip-path="url(#a)" transform="matrix(1.33333 0 0 -1.33333 0 440.933)">
    <path d="M146.565 246.152c-.895-.543-1.49-1.435-1.97-2.345-.677-1.28-1.58-2.44-2.244-3.74-.165-.32.32-.605.484-.282a34.056 34.056 0 0 0 1.835 3.125c.642.98 1.14 2.127 2.178 2.758.31.187.027.671-.283.484M150.996 242.368c-1.229-1.248-2.615-2.85-2.699-4.686-.017-.36.544-.36.561 0 .076 1.668 1.424 3.161 2.534 4.29.255.257-.142.654-.396.396M157.727 241.995c-1.575-1.24-2.636-3.033-2.7-5.06-.01-.362.551-.361.561 0 .06 1.887 1.077 3.516 2.535 4.664.285.223-.115.617-.396.396M164.76 241.497c-.547-1.46-1.8-2.549-1.88-4.188-.016-.362.545-.36.563 0 .075 1.543 1.339 2.652 1.859 4.04.127.337-.415.483-.541.148M171.118 241.871c-.402-1.26-.51-2.973-1.423-3.99-.24-.269.154-.667.396-.397 1.001 1.115 1.13 2.862 1.568 4.238.11.345-.432.492-.54.15M179.71 241.796c-.1-1.93-1.787-3.318-2.234-5.16-.086-.352.455-.502.541-.15.463 1.91 2.15 3.285 2.254 5.31.018.362-.543.36-.562 0M186.451 241.871a8.405 8.405 0 0 1-.373-2.138c-.025-.505-.022-.902-.293-1.354-.265-.439-.56-.85-.802-1.303-.17-.319.315-.602.485-.283.278.52 1.16 1.42 1.16 2.011.001 1.007.063 1.95.364 2.918.107.346-.434.494-.54.15M194.305 241.871c-.362-1.556-.291-3.489-1.424-4.738-.243-.267.153-.665.397-.397 1.226 1.352 1.176 3.302 1.568 4.986.082.352-.46.501-.541.15M200.288 241.123c-.412-1.258-.75-2.544-1.468-3.672-.194-.307.291-.587.485-.283.743 1.168 1.097 2.502 1.524 3.806.112.345-.429.49-.541.149M206.344 240.125c-.88-.95-1.176-2.294-1.568-3.49-.114-.344.428-.49.54-.15.36 1.096.619 2.373 1.424 3.242.247.265-.15.663-.396.397M213.367 240.674c-.04-1.056-.616-1.938-1.084-2.85-.164-.322.32-.606.484-.283.517 1.007 1.117 1.97 1.161 3.133.014.362-.547.361-.56 0M218.602 241.422c-.019-1.096-.272-2.338-1.039-3.167-.246-.265.15-.663.395-.396.873.94 1.183 2.31 1.205 3.563.006.363-.555.362-.56 0M203.164 258.916c-.408-.428-.618-.869-.792-1.429-.133-.428-.218-.84-.42-1.246a2.53 2.53 0 0 1-.272-.888c-.037-.36.524-.356.561 0 .037.357.227.663.377.98.129.271.148.545.239.826.172.53.312.95.704 1.362.25.26-.146.658-.397.396M207.092 258.075a5.432 5.432 0 0 1-1.484-3.564c-.01-.362.55-.36.56 0a4.848 4.848 0 0 0 1.32 3.168c.249.261-.146.66-.396.396M210.946 257.67c-.058-.328-.257-.394-.39-.662-.133-.27-.099-.586-.227-.84-.309-.623-.492-1.243-.515-1.937-.013-.363.548-.362.561 0 .011.35.064.676.165 1.012.093.304.302.573.385.876.081.292.101.58.307.834.142.173.216.352.255.568.062.354-.479.505-.54.15M215.153 257.11c-.032-.207-.178-.381-.29-.551-.142-.213-.207-.437-.325-.657-.306-.564-.739-1.006-.797-1.671-.032-.361.53-.358.56 0 .031.352.238.642.427.928.123.188.368.453.404.68.067.417.495.695.562 1.122.055.354-.485.506-.54.149M219.64 257.11c-.416-1.083-1.63-1.608-1.691-2.88-.019-.361.542-.36.56 0 .055 1.117 1.29 1.739 1.673 2.73.13.339-.412.484-.541.15M223.36 257.234c-.362-.363-.716-.723-.996-1.152-.388-.592-.163-1.335-.45-1.991-.146-.327.337-.613.483-.282.232.527.308 1.04.318 1.613.01.54.693 1.067 1.04 1.416.256.255-.14.652-.396.396M173.39 311.87c-.47-.681-1.033-1.287-1.537-1.941-.194-.252-.405-.503-.556-.783-.149-.276-.156-.738-.544-.793-.357-.051-.205-.591.149-.541.68.096.621.755.966 1.194.669.853 1.39 1.688 2.007 2.58.205.299-.281.58-.485.284M179.885 313.048c-1.386-1.387-2.775-2.79-3.69-4.544-.167-.32.317-.604.484-.283.894 1.713 2.25 3.077 3.602 4.431.256.255-.14.652-.396.396M187.134 314.955c-.447-.75-1.1-1.086-1.693-1.68l-1.373-1.374c-1.05-1.05-2.032-2.137-2.824-3.397-.193-.307.292-.589.484-.283.846 1.345 1.924 2.47 3.042 3.59.938.94 2.162 1.712 2.848 2.861.186.311-.3.593-.484.283M194.388 317.057c-.128-1.633-1.47-2.882-2.367-4.167-.82-1.174-1.872-2.198-2.88-3.207-.255-.256.14-.653.396-.397 1.148 1.148 2.272 2.321 3.203 3.655.917 1.316 2.078 2.441 2.21 4.116.028.361-.534.358-.562 0M199.298 317.58c-.313.184-.595-.3-.283-.484.59-.349-1.623-3.893-1.946-4.359-.811-1.167-1.712-2.446-2.72-3.457-.398-.398-.91-.827-1.117-1.365-.035-.086.003-.213.07-.273a.838.838 0 0 0 .046-.039c.272-.236.67.16.396.397.415-.36 4.37 5.25 4.649 5.847.335.718 2.009 3.082.905 3.733M205.326 319.021c-.092-2.138-1.29-4.171-2.388-5.96-1.077-1.755-2.359-3.378-3.464-5.118-.194-.306.291-.587.485-.283 2.17 3.416 5.745 7.1 5.93 11.361.013.361-.547.36-.563 0M210.737 320.34l-.28-.28a.256.256 0 0 1-.053-.307c-.979-1.79-1.91-3.631-3.076-5.304-.706-1.012-1.329-2.083-1.964-3.14-.534-.89-1.123-1.58-1.43-2.591-.105-.347.436-.495.54-.15.34 1.117 1.066 1.942 1.655 2.925a54.815 54.815 0 0 0 1.963 3.076c1.181 1.694 2.08 3.63 3.085 5.432.156.278-.21.568-.44.34M213.19 316.571c-.416-1.187-1.422-2.115-1.864-3.282a65.56 65.56 0 0 0-2.596-5.907c-.16-.323.324-.607.484-.283a70.791 70.791 0 0 1 2.472 5.572c.52 1.32 1.577 2.417 2.044 3.751.12.342-.422.488-.54.15M164.666 313.205c-.549-1.32-1.362-2.517-1.682-3.927-.04-.176.082-.355.27-.355.41 0 .478.082.76.363.23.23-.068.57-.316.45.382 1.153 1.042 2.198 1.51 3.32.14.334-.405.478-.542.15M168.874 315.73c-.205-.51-.54-.903-.839-1.355-.255-.38-.337-.847-.562-1.244-.36-.63-.87-1.086-1.202-1.704a.255.255 0 0 1-.21-.26v-.28c0-.324.454-.374.55-.075.278.882 1.022 1.468 1.471 2.256.23.404.323.853.587 1.251.282.423.555.786.746 1.261.135.336-.408.48-.54.15M172.549 317.76c-.956-1.804-2.302-3.367-3.177-5.208-.12-.021-.227-.105-.227-.262v-.281c0-.26.409-.41.523-.141.859 2.02 2.339 3.674 3.365 5.609.17.32-.314.602-.484.283M176.727 320.498c-.042-.145-.6-.958-.702-1.262-.294-.873-.706-1.633-1.182-2.413-.778-1.274-1.61-2.5-2.295-3.831-.165-.321.32-.605.485-.283.751 1.459 1.67 2.808 2.524 4.207.345.564.62 1.136.86 1.75.232.595.673 1.082.852 1.683.102.348-.439.495-.542.149M180.784 322.628c-1.115-.699-1.404-2.04-1.68-3.245-.256-1.119-1.001-2.123-1.547-3.12-.351-.646-.744-.998-.84-1.73-.045-.359.516-.354.562 0 .079.61.703 1.335 1.004 1.886.397.73.82 1.441 1.202 2.18.615 1.191.253 2.71 1.582 3.545.305.192.025.677-.283.484M186.056 325.39c-1.263-1.361-1.9-3.048-2.66-4.712-.77-1.691-1.965-3.44-3.23-4.825-.244-.266.152-.664.397-.396 1.05 1.15 2.002 2.518 2.833 3.832 1.18 1.867 1.499 4.026 3.056 5.705.247.264-.15.662-.396.396M189.339 326.032c0 .362-.557.362-.561 0-.01-.914-.614-1.887-.99-2.708-.436-.955-.896-1.844-1.496-2.705-.721-1.034-1.25-2.32-2.08-3.265-.33-.377-.636-.853-.753-1.344-.082-.352.458-.5.54-.149.189.795.958 1.575 1.375 2.267a41.45 41.45 0 0 0 1.963 2.995c.566.776.922 1.873 1.31 2.75.278.626.546 1.113.645 1.73a.27.27 0 0 1 .047.15zM194.95 328.557c-.235-2.042-1.824-4.156-2.844-5.881-.472-.8-1.023-1.558-1.54-2.33-.29-.433-2.824-3.555-2.266-4.048.27-.238.668.157.396.397.213-.19.295.213.473.502.252.41.516.812.781 1.214.607.926 1.228 1.843 1.846 2.764.501.75.967 1.509 1.428 2.285.9 1.513 2.081 3.316 2.286 5.097.041.359-.52.355-.56 0M197.192 328.837c-.14-2.112-1.635-4.323-2.42-6.283-.479-1.193-1.007-2.339-1.749-3.393-.459-.65-.794-1.314-.88-2.104-.038-.359.524-.356.562 0 .12 1.12 1.03 2.083 1.561 3.027.497.883.857 1.85 1.234 2.788.76 1.893 2.117 3.901 2.254 5.965.023.361-.538.36-.562 0M198.072 325.613a3.597 3.597 0 0 1-.314-1.167c-.082-.865-.652-1.392-.956-2.146-.579-1.438-1.723-2.516-2.125-4.046-.09-.35.451-.498.542-.15.355 1.358 1.277 2.374 1.935 3.58.33.603.643 1.232.961 1.845.31.592.168 1.166.441 1.802.142.327-.34.614-.484.282M199.194 323.37c-.44-.644-.913-1.244-1.224-1.964-.352-.816-.35-1.7-.739-2.525-.154-.324.33-.61.484-.282.274.583.55 1.23.586 1.882.056.984.848 1.832 1.377 2.605.205.3-.282.58-.484.283M170.024 283.541c-.485-1.11-1.555-1.874-2.198-2.9-.757-1.204-1.709-2.238-2.289-3.55-.145-.328.338-.613.484-.282.576 1.302 1.498 2.378 2.29 3.549.67.996 1.712 1.79 2.198 2.9.143.329-.34.615-.485.284M176.016 273.265c-1.63-1.136-2.618-2.85-3.984-4.251-.253-.26.143-.657.396-.397 1.327 1.362 2.287 3.06 3.87 4.164.295.205.014.692-.283.484M203.445 296.22c-1.94-2.28-3.325-4.942-5.093-7.35-.215-.292.274-.571.485-.282 1.74 2.367 3.095 4.992 5.004 7.236.234.273-.16.672-.396.396M207.01 291.815c-.11-1.19-1.097-2.196-1.807-3.075-.6-.743-1.138-1.515-1.521-2.393-.143-.328.34-.614.484-.283.865 1.983 3.198 3.519 3.405 5.75.034.36-.53.357-.561 0M212.058 289.29c-.053-.519-.368-1.04-.662-1.46-.171-.247-.224-.654-.311-.936-.257-.837-.817-1.481-1.233-2.23-.176-.316.31-.6.484-.284.447.805.934 1.51 1.29 2.365.227.546.413 1.054.711 1.576.181.315.245.612.282.969.036.36-.526.356-.562 0M164.096 258.718c-.038.355-.6.36-.56 0 .204-1.888-1.105-3.588-1.926-5.187-.165-.322.32-.606.485-.283.863 1.682 2.217 3.477 2.001 5.47M169.183 256.335c-.371-.792-.527-1.772-1.01-2.497a26.108 26.108 0 0 1-1.514-2.552c-.164-.32.319-.605.484-.283.406.793.86 1.553 1.347 2.298.553.848.748 1.834 1.177 2.751.153.325-.331.611-.484.283" fill="#12243e"/>
    <path d="M225.153 259.635c-1.753-1.012-3.339-1.113-5.303-1.113-3.41 0-6.827-.064-10.237.031-1.824.05-3.542.64-5.178 1.404-1.394.653-1.532 2.928-1.874 4.192-.839 3.101-.783 6.581-.28 9.781.232 1.477.086 4.025 2.284 4.215 1.39.12 2.81.261 4.202.334 2.625.138 5.208.237 7.848.237 2.377 0 5.122-.149 7.308.982 2.368 1.224 2.817 2.01 3.486 4.227.328-.946.155-2.123.155-3.063v-6.914c0-1.77-.284-3.493-.276-5.259.01-2.144.325-4.193.286-6.332a1.039 1.039 0 0 1-.29-.75c0-.65-1.51-1.615-2.13-1.972m4.541 11.283c.491 2.571.112 5.506.112 8.108 0 2.964.753 8.444-3.663 7.223a1.131 1.131 0 0 1-.824-1.082v-.28c0-.03.007-.057.01-.087-.407-1.374-.635-1.953-1.806-2.786-1.88-1.336-4.729-1.054-6.909-1.054-3.266 0-6.588.126-9.824-.393-1.315-.212-3.262.11-4.476-.602-1.099-.644-1.57-2.063-1.859-3.209-.42-1.667-.563-3.52-.642-5.234-.089-1.942-.496-4.402.023-6.286.694-2.524 1.011-5.812 3.465-7.216 3.17-1.813 6.788-1.742 10.311-1.742 3.478 0 7.894-.79 11.151.68 1.658.746 4.362 2.094 4.721 4.184.182.178.31.424.322.745.133 2.983-.673 6.1-.112 9.031M226.55 297.05c-.001 2.083-.04 4.66-.901 6.55-1.36 2.972-4.612 4.484-7.703 4.957-1.794.275-3.658-.118-5.448-.26-2.086-.168-4.232-.029-6.324-.029-4.465 0-8.908.373-13.378.373-9.468 0-36.632.374-46.09.374-2.514 0-6.442-1.644-7.72-3.857-.763-1.322-.576-3.224-.524-4.67.072-2.015.017-4.04.017-6.057 0-1.446 2.244-1.446 2.244 0 0 2.96-.388 6.186.069 9.108.266 1.694 3.236 2.476 4.573 2.986 1.977.753 4.864.247 6.952.247 7.208 0 32.175-.374 39.407-.374 6.93 0 13.839-.558 20.774-.346 3.762.115 7.012.768 10.15-1.956 1.58-1.37 1.658-5.017 1.658-7.074 0-1.447 2.244-1.447 2.244 0v.027z" fill="#12243e"/>
    <path d="M226.923 254.884c-.1 1.436-2.344 1.445-2.244 0 .19-2.754 1.223-11.881-.22-14.428-2.254-3.977-7.374-2.596-10.97-3.364-3.13-.67-6.371-.12-9.498.186-1.801.177-3.306-.046-5.116-.052-1.877-.007-3.875-.078-5.796.093-3.485.31-24.894-.374-28.422-.374-3.667 0-7.3.355-10.938.38-3.976.027-8.043.813-11.1 3.552-2.364 2.118-1.548 6.73-1.522 9.53.013 1.448-2.231 1.447-2.243 0-.027-2.95-.523-6.472.876-9.211 1.559-3.054 5.312-4.99 8.549-5.707 1.646-.365 3.724-.325 5.44-.408 1.889-.092 3.704-.381 5.606-.381h7.577c2.499 0 22.769.513 25.242.458 2.324-.052 4.436-.46 6.73-.175 1.904.234 4.093.152 6.006-.036 4.208-.413 8.133.128 12.32.128 3.664 0 6.926 1.284 9.197 4.248 2 2.614.733 12.596.526 15.56" fill="#12243e"/>
    <path d="M141.097 250.128c-.27 2.34-.148 9.884-.353 12.226-.268 3.064-.487 5.986-.2 9.069.285 3.048.34 6.003.333 9.074-.004 1.527-.49 2.932-.422 4.487.083 1.904.08 7.449.08 9.355 0 1.447-2.243 1.447-2.243 0 0-2.664-.682-9.787.04-12.36.794-2.824.452-6.733.089-9.61a38.76 38.76 0 0 1-.055-9.246c.292-2.592.189-10.403.487-12.995.163-1.42 2.409-1.436 2.244 0M226.362 297.144c-.037 1.444-2.28 1.448-2.243 0 .045-1.83.28-3.64.28-5.47 0-1.935-.28-7.475-.28-9.395 0-1.447 2.243-1.447 2.243 0 0 1.664.28 6.967.28 8.652 0 2.08-.227 4.136-.28 6.213M226.614 256.853c-.142.475.19.83.27 1.286.103.602-.153 1.206-.785 1.38-.546.15-1.275-.18-1.38-.784-.04-.238-.158-.448-.25-.673-.12-.289-.144-.704-.147-1.01-.008-.597.328-1.122.356-1.7.072-1.44 2.316-1.447 2.245 0-.026.527-.16 1-.309 1.501M210.473 265.494c-.161.039-.31.04-.447.019-.044.007-.085.018-.131.022-.581.038-1.58.224-2.048.603-.396.32-.496 1.269-.586 1.733-.381 1.964.722 2.918 2.67 3.018.705.036 1.526-.485 1.916-1.056.397-.58 1.138-1.192 1.125-1.933-.02-1.107-1.165-2.718-2.5-2.406m3.633 5.012c-.492.456-.714 1.06-1.267 1.493-.663.519-1.308.879-2.133 1.059-2.96.647-5.794-1.364-5.787-4.376.003-1.246.336-2.867 1.122-3.855.869-1.09 2.528-1.45 3.855-1.537.066-.004.126 0 .187.006 2.287-.387 4.776 1.592 5.062 3.837.176 1.382.006 2.405-1.04 3.373M216.217 308.595c-.507.523-.585 1.638-.833 2.31-.43 1.162-.797 2.87-1.052 4.088-.435 2.079-.541 4.514-2.251 5.976-1.54 1.315-4.432.339-6.15.022-1.477-.272-2.76-.964-4.27-1.168-1.448-.197-2.767-.705-4.206-.952-6.76-1.162-13.313-3.204-20.041-4.492-3.342-.64-6.45-1.697-9.688-2.721-2.6-.821-5.948-2.06-8.678-2.173-1.442-.061-1.448-2.304 0-2.244 2.249.093 4.305.972 6.468 1.512 2.909.728 5.704 1.754 8.568 2.627 6.149 1.874 12.715 2.606 18.919 4.316 2.713.747 5.664 1.304 8.414 1.849 2.648.523 5.18 1.22 7.854 1.65 2.38.383 2.147-1.678 2.476-3.001.356-1.43.789-2.823 1.157-4.238.419-1.612.503-3.687 1.727-4.947 1.009-1.04 2.594.548 1.586 1.586" fill="#12243e"/>
    <path d="M203.21 319.587c-.416.667-.635 2.289-.868 3.097-.322 1.113-.73 2.07-1.226 3.115-.523 1.106-1.707 4.464-3.106 4.795-.74.176-1.24.156-1.945-.227-1.405-.764-2.827-1.043-4.334-1.49-2.581-.762-5.162-1.97-7.638-3.03-5.222-2.236-10.09-5.476-15.068-8.19-2.7-1.47-5.32-3.092-8.02-4.583-1.411-.78-2.76-1.617-4.207-2.34-.771-.385-1.767-1.32-2.536-1.57-1.37-.446-.783-2.613.596-2.163 1.648.537 3.169 1.843 4.756 2.637 2.588 1.294 4.909 3.042 7.573 4.207 2.062.902 4.062 2.523 5.989 3.698 2.388 1.455 4.972 2.624 7.473 3.875 4.556 2.277 8.969 4.583 13.938 5.869.409.106 2.569 1.198 2.8.777.61-1.114 1.22-2.255 1.792-3.396.993-1.98.952-4.382 2.094-6.214.762-1.224 2.705-.1 1.937 1.133" fill="#12243e"/>
  </g>
  <text style="-inkscape-font-specification:Circe" transform="matrix(1.33333 0 0 1.33333 180.84 166.577)" font-weight="700" font-size="16" font-family="Circe" fill="#12243e">
    <tspan y="0" x="0 9.0719995 16.48 25.247999 33.952 40.848 49.599998 58.495998 65.903999 72.800003 80.816002 89.440002">Работодатель</tspan>
  </text>
  <g clip-path="url(#b)" transform="matrix(1.33333 0 0 -1.33333 0 440.933)">
    <path d="M8.565 47.152c-.895-.543-1.49-1.435-1.97-2.345-.677-1.28-1.58-2.44-2.244-3.74-.165-.32.32-.605.484-.282A34.056 34.056 0 0 0 6.67 43.91c.642.98 1.14 2.128 2.178 2.758.31.187.027.671-.283.484M12.996 43.368c-1.229-1.248-2.615-2.85-2.699-4.686-.017-.362.544-.36.561 0 .076 1.667 1.424 3.161 2.534 4.29.255.257-.142.654-.396.396M19.727 42.995c-1.575-1.239-2.636-3.033-2.7-5.06-.01-.363.551-.362.561 0 .06 1.887 1.077 3.515 2.535 4.664.285.222-.115.617-.396.396M26.76 42.497c-.547-1.46-1.8-2.55-1.88-4.188-.016-.362.545-.36.563 0 .075 1.543 1.339 2.652 1.859 4.04.127.337-.415.483-.541.148M33.118 42.871c-.402-1.26-.51-2.973-1.423-3.99-.24-.269.154-.666.396-.398 1.001 1.117 1.13 2.864 1.568 4.24.11.344-.432.492-.54.148M41.71 42.797c-.1-1.93-1.787-3.32-2.234-5.162-.086-.351.455-.5.541-.15.463 1.91 2.15 3.287 2.254 5.312.018.36-.543.359-.562 0M48.452 42.871a8.443 8.443 0 0 1-.374-2.138c-.024-.505-.021-.902-.292-1.354-.265-.44-.56-.85-.802-1.303-.17-.319.314-.602.485-.282.277.518 1.159 1.418 1.16 2.01 0 1.007.062 1.95.364 2.918.107.346-.434.494-.541.15M56.305 42.871c-.362-1.557-.291-3.489-1.424-4.738-.243-.268.153-.665.397-.397 1.226 1.352 1.176 3.302 1.568 4.986.082.351-.46.502-.541.15M62.288 42.123c-.412-1.259-.75-2.545-1.468-3.673-.194-.306.291-.587.485-.282.743 1.168 1.097 2.502 1.524 3.806.113.344-.429.491-.541.149M68.344 41.124c-.88-.948-1.175-2.294-1.568-3.489-.114-.345.428-.491.54-.149.36 1.095.619 2.372 1.424 3.242.246.264-.15.662-.396.396M75.367 41.675c-.041-1.056-.616-1.938-1.083-2.851-.165-.321.319-.605.484-.283.516 1.007 1.116 1.97 1.16 3.134.014.36-.546.36-.561 0M80.602 42.422c-.019-1.097-.272-2.338-1.039-3.167-.246-.265.15-.663.396-.396.873.94 1.183 2.31 1.205 3.563.005.362-.556.362-.562 0M65.165 59.917c-.41-.428-.619-.869-.793-1.429-.132-.428-.217-.841-.42-1.246a2.496 2.496 0 0 1-.271-.889c-.037-.361.524-.357.56 0 .037.357.226.663.376.98.13.271.148.546.24.826.171.529.311.95.704 1.361.25.261-.147.658-.397.397M69.091 59.075a5.437 5.437 0 0 1-1.484-3.564c-.01-.363.551-.36.56 0a4.842 4.842 0 0 0 1.321 3.168c.248.261-.147.66-.397.396M72.946 58.67c-.058-.327-.256-.393-.39-.661-.132-.271-.1-.586-.226-.842-.31-.621-.492-1.241-.515-1.936-.013-.363.548-.361.56 0 .012.35.064.676.166 1.012.092.305.302.574.385.876.08.293.1.58.307.834.14.173.216.353.255.569.062.353-.48.505-.542.149M77.153 58.11c-.033-.207-.177-.382-.29-.552-.142-.213-.207-.436-.325-.656-.306-.564-.739-1.007-.798-1.672-.03-.36.53-.357.561 0 .031.353.238.643.427.93.123.186.368.452.405.678.065.417.493.696.561 1.123.055.353-.485.505-.54.148M81.64 58.11c-.416-1.083-1.63-1.608-1.691-2.88-.018-.36.543-.36.56 0 .055 1.117 1.29 1.74 1.673 2.731.13.337-.412.483-.541.148M85.36 58.233c-.363-.362-.715-.722-.997-1.15-.386-.593-.163-1.336-.45-1.992-.145-.328.338-.614.484-.283.232.528.308 1.04.318 1.613.01.541.693 1.068 1.04 1.416.256.256-.14.653-.396.396M35.39 112.87c-.47-.682-1.033-1.287-1.537-1.942-.194-.252-.405-.502-.556-.783-.149-.275-.156-.738-.544-.793-.357-.05-.205-.59.149-.54.68.095.621.754.966 1.194.669.852 1.39 1.687 2.007 2.581.205.298-.281.578-.485.283M41.885 114.049c-1.386-1.388-2.775-2.79-3.69-4.545-.167-.32.317-.603.484-.283.894 1.714 2.25 3.077 3.602 4.43.256.256-.14.654-.396.398M49.134 115.955c-.447-.75-1.1-1.087-1.693-1.68l-1.373-1.375c-1.05-1.05-2.032-2.136-2.824-3.396-.193-.307.292-.588.484-.283.846 1.345 1.924 2.47 3.042 3.59.938.94 2.162 1.711 2.848 2.861.186.311-.3.594-.484.283M56.388 118.058c-.127-1.634-1.47-2.883-2.367-4.168-.82-1.174-1.872-2.197-2.88-3.207-.255-.256.14-.653.397-.396 1.147 1.148 2.27 2.32 3.2 3.655.919 1.315 2.08 2.44 2.21 4.116.03.36-.532.357-.56 0M61.297 118.58c-.312.184-.594-.3-.283-.484.591-.349-1.623-3.894-1.946-4.359-.81-1.167-1.712-2.445-2.72-3.457-.397-.398-.909-.828-1.117-1.365-.034-.086.003-.213.072-.273l.044-.039c.272-.236.67.16.397.397.414-.36 4.37 5.25 4.65 5.847.333.718 2.007 3.082.903 3.733M67.327 120.02c-.093-2.136-1.292-4.17-2.39-5.96-1.075-1.754-2.358-3.377-3.462-5.116-.194-.308.29-.589.484-.284 2.17 3.417 5.746 7.1 5.929 11.36.015.362-.546.36-.561 0M72.738 121.34l-.281-.28a.257.257 0 0 1-.052-.307c-.98-1.791-1.911-3.631-3.077-5.304-.705-1.012-1.33-2.083-1.963-3.14-.535-.89-1.123-1.58-1.431-2.591-.105-.347.436-.494.54-.15.34 1.117 1.066 1.943 1.656 2.925a54.251 54.251 0 0 0 1.963 3.076c1.18 1.694 2.08 3.63 3.085 5.432.156.278-.212.568-.44.34M75.19 117.571c-.416-1.187-1.422-2.114-1.864-3.28a65.33 65.33 0 0 0-2.596-5.909c-.16-.323.324-.607.484-.283a71.329 71.329 0 0 1 2.472 5.572c.52 1.32 1.578 2.417 2.045 3.751.12.341-.423.488-.542.15M26.666 114.205c-.549-1.32-1.362-2.518-1.682-3.927-.04-.176.082-.354.27-.354.41 0 .478.081.76.362.23.231-.068.57-.316.45.382 1.154 1.042 2.198 1.51 3.32.14.334-.405.478-.542.15M30.874 116.73c-.205-.51-.54-.903-.839-1.355-.255-.38-.337-.846-.562-1.243-.36-.632-.87-1.087-1.202-1.706a.253.253 0 0 1-.21-.258v-.282c0-.322.454-.372.55-.073.278.881 1.022 1.467 1.471 2.255.23.404.323.854.587 1.252.282.423.555.786.746 1.26.135.337-.408.48-.54.15M34.549 118.76c-.956-1.804-2.302-3.367-3.177-5.208-.12-.021-.227-.105-.227-.263v-.28c0-.26.409-.41.523-.142.859 2.022 2.339 3.675 3.365 5.61.17.32-.314.602-.484.283M38.727 121.498c-.042-.146-.6-.958-.702-1.263-.294-.873-.706-1.632-1.182-2.412-.778-1.275-1.61-2.501-2.295-3.832-.165-.321.32-.604.485-.282.751 1.459 1.67 2.808 2.524 4.207.345.563.62 1.136.86 1.75.232.594.673 1.081.852 1.683.102.347-.439.495-.542.149M42.784 123.628c-1.115-.698-1.404-2.04-1.68-3.244-.256-1.12-1.001-2.123-1.547-3.122-.351-.645-.744-.996-.84-1.73-.045-.357.516-.352.562 0 .079.61.703 1.336 1.004 1.888.397.729.82 1.44 1.202 2.179.615 1.19.253 2.71 1.582 3.545.305.192.025.677-.283.484M48.056 126.39c-1.263-1.361-1.9-3.048-2.66-4.713-.77-1.69-1.965-3.438-3.23-4.823-.244-.268.152-.665.397-.398 1.05 1.152 2.002 2.519 2.833 3.832 1.18 1.869 1.499 4.027 3.057 5.706.245.263-.15.662-.397.396M51.34 127.032c0 .362-.558.361-.562 0-.01-.914-.614-1.887-.99-2.708-.436-.955-.897-1.845-1.496-2.704-.72-1.035-1.25-2.32-2.079-3.266-.33-.377-.638-.852-.754-1.344-.083-.352.458-.5.541-.15.187.796.957 1.575 1.374 2.268a40.789 40.789 0 0 0 1.963 2.995c.566.775.921 1.874 1.31 2.75.277.627.546 1.113.645 1.73a.27.27 0 0 1 .047.15zM56.949 129.557c-.233-2.042-1.823-4.156-2.842-5.882-.473-.8-1.024-1.557-1.54-2.328-.292-.435-2.825-3.557-2.267-4.05.27-.237.669.158.397.398.213-.19.295.213.472.502.252.41.517.81.78 1.214.609.926 1.23 1.843 1.847 2.764.5.75.968 1.51 1.429 2.285.899 1.513 2.08 3.316 2.285 5.097.04.359-.52.355-.561 0M59.193 129.837c-.141-2.112-1.636-4.322-2.421-6.282-.48-1.194-1.006-2.34-1.748-3.393-.46-.65-.795-1.314-.88-2.104-.038-.36.523-.357.56 0 .122 1.119 1.03 2.083 1.563 3.026.497.883.856 1.85 1.233 2.788.759 1.894 2.117 3.9 2.254 5.965.023.36-.537.359-.561 0M60.072 126.612a3.585 3.585 0 0 1-.314-1.166c-.082-.865-.652-1.393-.955-2.147-.58-1.438-1.724-2.515-2.125-4.045-.091-.35.45-.499.54-.149.356 1.357 1.278 2.372 1.937 3.58.329.602.642 1.231.96 1.843.309.592.168 1.166.442 1.802.14.328-.342.614-.485.282M61.194 124.37c-.44-.644-.912-1.244-1.223-1.964-.353-.816-.352-1.7-.74-2.525-.153-.324.33-.61.484-.283.274.584.55 1.231.587 1.882.056.985.848 1.833 1.377 2.607.204.3-.282.58-.485.282M32.024 84.542c-.485-1.11-1.555-1.874-2.198-2.9-.757-1.204-1.709-2.239-2.289-3.552-.145-.327.338-.612.484-.282.576 1.302 1.498 2.378 2.29 3.55.67.995 1.712 1.791 2.198 2.901.143.327-.34.613-.485.283M38.016 74.265c-1.63-1.136-2.618-2.85-3.984-4.251-.252-.26.144-.656.397-.396 1.326 1.362 2.286 3.059 3.868 4.163.297.205.016.69-.281.484M65.445 97.22c-1.941-2.28-3.325-4.942-5.092-7.35-.215-.292.273-.571.484-.282 1.739 2.367 3.095 4.992 5.005 7.236.233.273-.162.672-.397.396M69.01 92.814c-.11-1.187-1.097-2.195-1.808-3.074-.6-.744-1.137-1.516-1.52-2.394-.143-.329.34-.614.484-.283.865 1.982 3.197 3.52 3.404 5.751.034.36-.528.358-.56 0M74.058 90.29c-.054-.519-.369-1.04-.663-1.46-.17-.247-.223-.654-.31-.936-.258-.836-.817-1.481-1.233-2.23-.176-.316.308-.601.484-.283.447.804.934 1.509 1.29 2.364.226.546.414 1.054.712 1.575.18.316.245.614.28.97.038.36-.524.356-.56 0M26.096 59.719c-.038.354-.6.358-.56 0 .204-1.888-1.105-3.59-1.926-5.188-.165-.322.32-.605.485-.283.863 1.683 2.217 3.478 2.001 5.47M31.183 57.335c-.371-.792-.527-1.771-1.01-2.496a26.108 26.108 0 0 1-1.514-2.552c-.164-.321.319-.605.484-.283.406.793.86 1.552 1.347 2.298.553.847.748 1.834 1.177 2.751.153.325-.331.61-.484.282" fill="#12243e"/>
    <path d="M87.153 60.636c-1.752-1.013-3.339-1.113-5.302-1.113-3.41 0-6.828-.065-10.238.03-1.824.05-3.542.639-5.178 1.404-1.394.654-1.532 2.928-1.874 4.192-.838 3.102-.783 6.582-.28 9.782.232 1.476.086 4.024 2.284 4.214 1.39.12 2.81.262 4.203.335 2.625.137 5.207.237 7.846.237 2.378 0 5.122-.15 7.31.98 2.367 1.225 2.816 2.01 3.485 4.229.328-.946.155-2.123.155-3.064v-6.913c0-1.77-.285-3.494-.276-5.26.01-2.144.325-4.193.285-6.331a1.044 1.044 0 0 1-.29-.75c0-.652-1.509-1.615-2.13-1.972m4.542 11.282c.491 2.572.112 5.506.112 8.108 0 2.964.753 8.445-3.663 7.223a1.131 1.131 0 0 1-.824-1.082v-.28c0-.03.007-.057.01-.086-.408-1.374-.635-1.953-1.806-2.786-1.88-1.337-4.729-1.055-6.91-1.055-3.265 0-6.587.126-9.823-.393-1.315-.211-3.263.109-4.475-.601-1.1-.644-1.572-2.063-1.86-3.21-.42-1.667-.562-3.52-.64-5.233-.09-1.942-.498-4.402.021-6.286.693-2.524 1.011-5.813 3.466-7.216 3.17-1.814 6.787-1.742 10.31-1.742 3.48 0 7.894-.79 11.151.679 1.658.747 4.362 2.095 4.721 4.184.182.179.31.425.322.746.133 2.982-.673 6.098-.112 9.03M88.55 98.05c0 2.083-.04 4.66-.902 6.549-1.36 2.973-4.61 4.485-7.702 4.958-1.794.275-3.658-.117-5.448-.261-2.086-.167-4.232-.027-6.324-.027-4.465 0-8.91.373-13.378.373-9.468 0-36.632.374-46.09.374-2.514 0-6.442-1.645-7.72-3.858-.763-1.322-.576-3.223-.524-4.67.072-2.015.017-4.041.017-6.057 0-1.446 2.244-1.446 2.244 0 0 2.959-.388 6.186.069 9.108.266 1.694 3.236 2.477 4.573 2.986 1.977.754 4.864.248 6.952.248 7.208 0 32.175-.375 39.407-.375 6.93 0 13.839-.558 20.774-.346 3.76.115 7.012.769 10.15-1.955 1.58-1.37 1.658-5.018 1.658-7.074 0-1.448 2.244-1.448 2.244 0v.026z" fill="#12243e"/>
    <path d="M88.923 55.884c-.1 1.436-2.344 1.445-2.244 0 .191-2.754 1.222-11.882-.22-14.428-2.254-3.977-7.375-2.595-10.97-3.365-3.13-.668-6.37-.12-9.498.188-1.802.176-3.306-.046-5.116-.053-1.877-.007-3.876-.078-5.796.093-3.486.31-24.895-.374-28.422-.374-3.668 0-7.299.355-10.939.379-3.975.029-8.043.814-11.1 3.553-2.364 2.118-1.547 6.73-1.52 9.53.012 1.448-2.232 1.447-2.245 0-.027-2.95-.522-6.471.877-9.211 1.56-3.053 5.311-4.99 8.548-5.708 1.646-.364 3.724-.324 5.44-.407 1.89-.092 3.705-.381 5.606-.381h7.577c2.5 0 22.77.513 25.242.458 2.324-.052 4.437-.46 6.732-.175 1.903.234 4.092.152 6.004-.036 4.21-.413 8.133.128 12.321.128 3.664 0 6.926 1.284 9.196 4.248 2.001 2.614.733 12.595.527 15.56" fill="#12243e"/>
    <path d="M3.097 51.128c-.27 2.342-.148 9.884-.353 12.227-.268 3.063-.487 5.985-.2 9.068.285 3.048.34 6.003.333 9.073-.004 1.528-.49 2.933-.422 4.488.083 1.904.08 7.449.08 9.355 0 1.446-2.243 1.446-2.243 0 0-2.664-.682-9.787.04-12.358.794-2.826.452-6.735.089-9.611a38.768 38.768 0 0 1-.055-9.248C.658 61.53.555 53.72.853 51.128c.163-1.42 2.409-1.437 2.244 0M88.362 98.144c-.037 1.444-2.28 1.447-2.244 0 .046-1.83.281-3.64.281-5.471 0-1.934-.28-7.474-.28-9.394 0-1.447 2.243-1.447 2.243 0 0 1.665.28 6.967.28 8.652 0 2.08-.228 4.136-.28 6.213M88.614 57.853c-.142.475.19.83.27 1.286.103.602-.153 1.206-.785 1.38-.546.15-1.276-.18-1.38-.783-.04-.237-.158-.448-.25-.672-.12-.29-.144-.705-.147-1.012-.008-.595.33-1.121.357-1.7.071-1.44 2.315-1.446 2.244 0-.026.528-.16 1-.309 1.502M72.473 66.494a1.16 1.16 0 0 1-.447.018c-.044.007-.085.018-.131.022-.581.038-1.58.225-2.048.604-.396.32-.496 1.268-.586 1.733-.38 1.964.722 2.917 2.67 3.017.705.036 1.526-.485 1.916-1.055.396-.58 1.138-1.193 1.125-1.934-.02-1.106-1.165-2.717-2.5-2.405m3.633 5.011c-.492.457-.715 1.061-1.267 1.494-.663.518-1.308.88-2.133 1.058-2.96.647-5.793-1.364-5.787-4.375.003-1.247.336-2.868 1.123-3.855.867-1.09 2.526-1.449 3.854-1.537.066-.004.126.001.187.006 2.286-.388 4.776 1.592 5.06 3.837.178 1.382.008 2.405-1.037 3.372M78.217 109.595c-.507.523-.585 1.638-.833 2.31-.43 1.162-.797 2.872-1.052 4.088-.436 2.079-.54 4.514-2.251 5.975-1.54 1.316-4.432.34-6.151.023-1.476-.272-2.76-.964-4.267-1.168-1.45-.197-2.77-.705-4.207-.952-6.76-1.162-13.314-3.205-20.042-4.492-3.342-.64-6.45-1.697-9.688-2.721-2.6-.822-5.948-2.06-8.678-2.173-1.442-.061-1.448-2.304 0-2.244 2.249.093 4.305.972 6.468 1.512 2.909.728 5.704 1.753 8.568 2.626 6.149 1.875 12.716 2.607 18.919 4.317 2.714.747 5.664 1.304 8.414 1.848 2.648.525 5.179 1.223 7.854 1.653 2.38.38 2.147-1.68 2.477-3.002.355-1.43.788-2.824 1.156-4.24.419-1.611.503-3.686 1.727-4.947 1.009-1.04 2.594.549 1.586 1.587" fill="#12243e"/>
    <path d="M65.21 120.587c-.417.667-.635 2.289-.869 3.098-.32 1.113-.729 2.069-1.225 3.115-.524 1.104-1.707 4.464-3.107 4.794-.74.176-1.24.155-1.945-.228-1.404-.763-2.826-1.042-4.333-1.488-2.58-.763-5.162-1.971-7.638-3.03-5.223-2.238-10.09-5.477-15.068-8.19-2.7-1.47-5.32-3.093-8.02-4.585-1.41-.778-2.76-1.616-4.207-2.34-.77-.384-1.767-1.318-2.536-1.57-1.37-.445-.783-2.612.596-2.163 1.647.537 3.17 1.844 4.756 2.638 2.588 1.294 4.908 3.042 7.573 4.207 2.061.902 4.061 2.523 5.988 3.697 2.388 1.456 4.972 2.625 7.474 3.876 4.555 2.277 8.97 4.583 13.937 5.869.41.106 2.57 1.197 2.801.777.61-1.114 1.22-2.255 1.791-3.397.993-1.978.953-4.381 2.094-6.213.763-1.224 2.705-.1 1.937 1.133" fill="#12243e"/>
    <text style="-inkscape-font-specification:Circe" transform="matrix(1 0 0 -1 3.614 6.768)" font-weight="700" font-size="16" font-family="Circe" fill="#12243e">
      <tspan y="0" x="0 13.424 22.351999 31.440001 40.063999 47.472 56.352001 63.759998 72.015999">Фрилансер</tspan>
    </text>
    <path d="M148.565 47.152c-.895-.543-1.49-1.435-1.97-2.345-.677-1.28-1.58-2.44-2.244-3.74-.165-.32.32-.605.484-.282a34.056 34.056 0 0 0 1.835 3.125c.642.98 1.14 2.128 2.178 2.758.31.187.027.671-.283.484M152.996 43.368c-1.229-1.248-2.615-2.85-2.699-4.686-.017-.362.544-.36.561 0 .076 1.667 1.424 3.161 2.534 4.29.255.257-.142.654-.396.396M159.727 42.995c-1.575-1.239-2.636-3.033-2.7-5.06-.01-.363.551-.362.561 0 .06 1.887 1.077 3.515 2.535 4.664.285.222-.115.617-.396.396M166.76 42.497c-.547-1.46-1.8-2.55-1.88-4.188-.016-.362.545-.36.563 0 .075 1.543 1.339 2.652 1.859 4.04.127.337-.415.483-.541.148M173.118 42.871c-.402-1.26-.51-2.973-1.423-3.99-.24-.269.154-.666.396-.398 1.001 1.117 1.13 2.864 1.568 4.24.11.344-.432.492-.54.148M181.71 42.797c-.1-1.93-1.787-3.32-2.234-5.162-.086-.351.455-.5.541-.15.463 1.91 2.15 3.287 2.254 5.312.018.36-.543.359-.562 0M188.451 42.871a8.398 8.398 0 0 1-.373-2.138c-.025-.505-.022-.902-.293-1.354-.265-.44-.56-.85-.802-1.303-.17-.319.315-.602.485-.282.278.518 1.16 1.418 1.16 2.01.001 1.007.063 1.95.364 2.918.107.346-.434.494-.54.15M196.305 42.871c-.362-1.557-.291-3.489-1.424-4.738-.243-.268.153-.665.397-.397 1.226 1.352 1.176 3.302 1.568 4.986.082.351-.46.502-.541.15M202.288 42.123c-.412-1.259-.75-2.545-1.468-3.673-.194-.306.291-.587.485-.282.743 1.168 1.097 2.502 1.524 3.806.112.344-.429.491-.541.149M208.344 41.124c-.88-.948-1.176-2.294-1.568-3.489-.114-.345.428-.491.54-.149.36 1.095.619 2.372 1.424 3.242.247.264-.15.662-.396.396M215.367 41.675c-.04-1.056-.616-1.938-1.084-2.851-.164-.321.32-.605.484-.283.517 1.007 1.117 1.97 1.161 3.134.014.36-.547.36-.56 0M220.602 42.422c-.019-1.097-.272-2.338-1.039-3.167-.246-.265.15-.663.395-.396.873.94 1.183 2.31 1.205 3.563.006.362-.555.362-.56 0M205.164 59.917c-.408-.428-.618-.869-.792-1.429-.133-.428-.218-.841-.42-1.246a2.537 2.537 0 0 1-.272-.889c-.037-.361.524-.357.561 0 .037.357.227.663.377.98.129.271.148.546.239.826.172.529.312.95.704 1.361.25.261-.146.658-.397.397M209.092 59.075a5.432 5.432 0 0 1-1.484-3.564c-.01-.363.55-.36.56 0a4.846 4.846 0 0 0 1.32 3.168c.249.261-.146.66-.396.396M212.946 58.67c-.058-.327-.257-.393-.39-.661-.133-.271-.099-.586-.227-.842-.309-.621-.492-1.241-.515-1.936-.013-.363.548-.361.561 0 .011.35.064.676.165 1.012.093.305.302.574.385.876.081.293.101.58.307.834.142.173.216.353.255.569.062.353-.479.505-.54.149M217.153 58.11c-.032-.207-.178-.382-.29-.552-.142-.213-.207-.436-.325-.656-.306-.564-.739-1.007-.797-1.672-.032-.36.53-.357.56 0 .031.353.238.643.427.93.123.186.368.452.404.678.067.417.495.696.562 1.123.055.353-.485.505-.54.148M221.64 58.11c-.416-1.083-1.63-1.608-1.691-2.88-.019-.36.542-.36.56 0 .055 1.117 1.29 1.74 1.673 2.731.13.337-.412.483-.541.148M225.36 58.233c-.362-.362-.716-.722-.996-1.15-.388-.593-.163-1.336-.45-1.992-.146-.328.337-.614.483-.283.232.528.308 1.04.318 1.613.01.541.693 1.068 1.04 1.416.256.256-.14.653-.396.396M175.39 112.87c-.47-.682-1.033-1.287-1.537-1.942-.194-.252-.405-.502-.556-.783-.149-.275-.156-.738-.544-.793-.357-.05-.205-.59.149-.54.68.095.621.754.966 1.194.669.852 1.39 1.687 2.007 2.581.205.298-.281.578-.485.283M181.885 114.049c-1.386-1.388-2.775-2.79-3.69-4.545-.167-.32.317-.603.484-.283.894 1.714 2.25 3.077 3.602 4.43.256.256-.14.654-.396.398M189.134 115.955c-.447-.75-1.1-1.087-1.693-1.68l-1.373-1.375c-1.05-1.05-2.032-2.136-2.824-3.396-.193-.307.292-.588.484-.283.846 1.345 1.924 2.47 3.042 3.59.938.94 2.162 1.711 2.848 2.861.186.311-.3.594-.484.283M196.388 118.058c-.128-1.634-1.47-2.883-2.367-4.168-.82-1.174-1.872-2.197-2.88-3.207-.255-.256.14-.653.396-.396 1.148 1.148 2.272 2.32 3.203 3.655.917 1.315 2.078 2.44 2.21 4.116.028.36-.534.357-.562 0M201.298 118.58c-.313.184-.595-.3-.283-.484.59-.349-1.623-3.894-1.946-4.359-.811-1.167-1.712-2.445-2.72-3.457-.398-.398-.91-.828-1.117-1.365-.035-.086.003-.213.07-.273.017-.013.03-.026.046-.039.272-.236.67.16.396.397.415-.36 4.37 5.25 4.649 5.847.335.718 2.009 3.082.905 3.733M207.326 120.02c-.092-2.136-1.29-4.17-2.388-5.96-1.077-1.754-2.359-3.377-3.464-5.116-.194-.308.291-.589.485-.284 2.17 3.417 5.745 7.1 5.93 11.36.013.362-.547.36-.563 0M212.737 121.34l-.28-.28a.256.256 0 0 1-.053-.307c-.979-1.791-1.91-3.631-3.076-5.304-.706-1.012-1.329-2.083-1.964-3.14-.534-.89-1.123-1.58-1.43-2.591-.105-.347.436-.494.54-.15.34 1.117 1.066 1.943 1.655 2.925a54.815 54.815 0 0 0 1.963 3.076c1.181 1.694 2.08 3.63 3.085 5.432.156.278-.21.568-.44.34M215.19 117.571c-.416-1.187-1.422-2.114-1.864-3.28a65.33 65.33 0 0 0-2.596-5.909c-.16-.323.324-.607.484-.283a70.956 70.956 0 0 1 2.472 5.572c.52 1.32 1.577 2.417 2.044 3.751.12.341-.422.488-.54.15M166.666 114.205c-.549-1.32-1.362-2.518-1.682-3.927-.04-.176.082-.354.27-.354.41 0 .478.081.76.362.23.231-.068.57-.316.45.382 1.154 1.042 2.198 1.51 3.32.14.334-.405.478-.542.15M170.874 116.73c-.205-.51-.54-.903-.839-1.355-.255-.38-.337-.846-.562-1.243-.36-.632-.87-1.087-1.202-1.706a.253.253 0 0 1-.21-.258v-.282c0-.322.454-.372.55-.073.278.881 1.022 1.467 1.471 2.255.23.404.323.854.587 1.252.282.423.555.786.746 1.26.135.337-.408.48-.54.15M174.549 118.76c-.956-1.804-2.302-3.367-3.177-5.208-.12-.021-.227-.105-.227-.263v-.28c0-.26.409-.41.523-.142.859 2.022 2.339 3.675 3.365 5.61.17.32-.314.602-.484.283M178.727 121.498c-.042-.146-.6-.958-.702-1.263-.294-.873-.706-1.632-1.182-2.412-.778-1.275-1.61-2.501-2.295-3.832-.165-.321.32-.604.485-.282.751 1.459 1.67 2.808 2.524 4.207.345.563.62 1.136.86 1.75.232.594.673 1.081.852 1.683.102.347-.439.495-.542.149M182.784 123.628c-1.115-.698-1.404-2.04-1.68-3.244-.256-1.12-1.001-2.123-1.547-3.122-.351-.645-.744-.996-.84-1.73-.045-.357.516-.352.562 0 .079.61.703 1.336 1.004 1.888.397.729.82 1.44 1.202 2.179.615 1.19.253 2.71 1.582 3.545.305.192.025.677-.283.484M188.056 126.39c-1.264-1.361-1.9-3.048-2.66-4.713-.77-1.69-1.965-3.438-3.23-4.823-.244-.268.152-.665.397-.398 1.05 1.152 2.002 2.519 2.833 3.832 1.18 1.869 1.499 4.027 3.056 5.706.247.263-.15.662-.396.396M191.339 127.032c0 .362-.557.361-.561 0-.01-.914-.614-1.887-.99-2.708-.436-.955-.896-1.845-1.496-2.704-.721-1.035-1.25-2.32-2.08-3.266-.33-.377-.637-.852-.753-1.344-.083-.352.458-.5.54-.15.189.796.958 1.575 1.375 2.268a41.45 41.45 0 0 0 1.963 2.995c.566.775.922 1.874 1.31 2.75.278.627.546 1.113.645 1.73a.27.27 0 0 1 .047.15zM196.95 129.557c-.235-2.042-1.824-4.156-2.844-5.882-.472-.8-1.023-1.557-1.54-2.328-.29-.435-2.824-3.557-2.266-4.05.27-.237.668.158.396.398.213-.19.295.213.473.502.252.41.516.81.781 1.214.607.926 1.228 1.843 1.846 2.764.501.75.967 1.51 1.428 2.285.9 1.513 2.081 3.316 2.286 5.097.041.359-.52.355-.56 0M199.192 129.837c-.14-2.112-1.635-4.322-2.42-6.282-.479-1.194-1.007-2.34-1.749-3.393-.459-.65-.794-1.314-.88-2.104-.038-.36.524-.357.562 0 .12 1.119 1.03 2.083 1.561 3.026.497.883.857 1.85 1.234 2.788.76 1.894 2.117 3.9 2.254 5.965.023.36-.538.359-.562 0M200.072 126.612a3.585 3.585 0 0 1-.314-1.166c-.082-.865-.652-1.393-.956-2.147-.579-1.438-1.723-2.515-2.125-4.045-.09-.35.451-.499.542-.149.355 1.357 1.277 2.372 1.935 3.58.33.602.643 1.231.961 1.843.31.592.168 1.166.441 1.802.142.328-.34.614-.484.282M201.194 124.37c-.44-.644-.913-1.244-1.224-1.964-.352-.816-.35-1.7-.739-2.525-.154-.324.33-.61.484-.283.274.584.55 1.231.586 1.882.056.985.848 1.833 1.377 2.607.205.3-.282.58-.484.282M172.024 84.542c-.485-1.11-1.555-1.874-2.198-2.9-.757-1.204-1.709-2.239-2.289-3.552-.145-.327.338-.612.484-.282.576 1.302 1.498 2.378 2.29 3.55.67.995 1.712 1.791 2.198 2.901.143.327-.34.613-.485.283M178.016 74.265c-1.63-1.136-2.618-2.85-3.984-4.251-.253-.26.143-.656.396-.396 1.327 1.362 2.287 3.059 3.87 4.163.295.205.014.69-.283.484M205.445 97.22c-1.94-2.28-3.325-4.942-5.093-7.35-.215-.292.274-.571.485-.282 1.74 2.367 3.095 4.992 5.004 7.236.234.273-.16.672-.396.396M209.01 92.814c-.11-1.187-1.097-2.195-1.807-3.074-.6-.744-1.138-1.516-1.521-2.394-.143-.329.34-.614.484-.283.865 1.982 3.198 3.52 3.405 5.751.034.36-.53.358-.561 0M214.058 90.29c-.053-.519-.368-1.04-.662-1.46-.171-.247-.224-.654-.311-.936-.257-.836-.817-1.481-1.233-2.23-.176-.316.31-.601.484-.283.447.804.934 1.509 1.29 2.364.227.546.413 1.054.711 1.575.181.316.245.614.282.97.036.36-.526.356-.562 0M166.096 59.719c-.038.354-.6.358-.56 0 .204-1.888-1.105-3.59-1.926-5.188-.165-.322.32-.605.485-.283.863 1.683 2.217 3.478 2.001 5.47M171.183 57.335c-.371-.792-.527-1.771-1.01-2.496a26.108 26.108 0 0 1-1.514-2.552c-.164-.321.319-.605.484-.283.406.793.86 1.552 1.347 2.298.553.847.748 1.834 1.177 2.751.153.325-.331.61-.484.282" fill="#12243e"/>
    <path d="M227.153 60.636c-1.753-1.013-3.339-1.113-5.303-1.113-3.41 0-6.827-.065-10.237.03-1.824.05-3.542.639-5.178 1.404-1.394.654-1.532 2.928-1.874 4.192-.839 3.102-.783 6.582-.28 9.782.232 1.476.086 4.024 2.284 4.214 1.39.12 2.81.262 4.202.335 2.625.137 5.208.237 7.848.237 2.377 0 5.122-.15 7.308.98 2.368 1.225 2.817 2.01 3.486 4.229.328-.946.155-2.123.155-3.064v-6.913c0-1.77-.284-3.494-.276-5.26.01-2.144.325-4.193.286-6.331a1.04 1.04 0 0 1-.29-.75c0-.652-1.51-1.615-2.13-1.972m4.541 11.282c.491 2.572.112 5.506.112 8.108 0 2.964.753 8.445-3.663 7.223a1.131 1.131 0 0 1-.824-1.082v-.28c0-.03.007-.057.01-.086-.407-1.374-.635-1.953-1.806-2.786-1.88-1.337-4.729-1.055-6.909-1.055-3.266 0-6.588.126-9.824-.393-1.315-.211-3.262.109-4.476-.601-1.099-.644-1.57-2.063-1.859-3.21-.42-1.667-.563-3.52-.642-5.233-.089-1.942-.496-4.402.023-6.286.694-2.524 1.011-5.813 3.465-7.216 3.17-1.814 6.788-1.742 10.311-1.742 3.478 0 7.894-.79 11.151.679 1.658.747 4.362 2.095 4.721 4.184.182.179.31.425.322.746.133 2.982-.673 6.098-.112 9.03M228.55 98.05c-.001 2.083-.04 4.66-.901 6.549-1.36 2.973-4.612 4.485-7.703 4.958-1.794.275-3.658-.117-5.448-.261-2.086-.167-4.232-.027-6.324-.027-4.465 0-8.908.373-13.378.373-9.468 0-36.632.374-46.09.374-2.514 0-6.442-1.645-7.72-3.858-.763-1.322-.576-3.223-.524-4.67.072-2.015.017-4.041.017-6.057 0-1.446 2.244-1.446 2.244 0 0 2.959-.388 6.186.069 9.108.266 1.694 3.236 2.477 4.573 2.986 1.977.754 4.864.248 6.952.248 7.208 0 32.175-.375 39.407-.375 6.93 0 13.839-.558 20.774-.346 3.762.115 7.012.769 10.15-1.955 1.58-1.37 1.658-5.018 1.658-7.074 0-1.448 2.244-1.448 2.244 0v.026z" fill="#12243e"/>
    <path d="M228.923 55.884c-.1 1.436-2.344 1.445-2.244 0 .19-2.754 1.223-11.882-.22-14.428-2.254-3.977-7.374-2.595-10.97-3.365-3.13-.668-6.371-.12-9.498.188-1.801.176-3.306-.046-5.116-.053-1.877-.007-3.875-.078-5.796.093-3.485.31-24.894-.374-28.422-.374-3.667 0-7.3.355-10.938.379-3.976.029-8.043.814-11.1 3.553-2.364 2.118-1.548 6.73-1.522 9.53.013 1.448-2.231 1.447-2.243 0-.027-2.95-.523-6.471.876-9.211 1.559-3.053 5.312-4.99 8.549-5.708 1.646-.364 3.724-.324 5.44-.407 1.889-.092 3.704-.381 5.606-.381h7.577c2.499 0 22.769.513 25.242.458 2.324-.052 4.436-.46 6.73-.175 1.904.234 4.093.152 6.006-.036 4.208-.413 8.133.128 12.32.128 3.664 0 6.926 1.284 9.197 4.248 2 2.614.733 12.595.526 15.56" fill="#12243e"/>
    <path d="M143.097 51.128c-.27 2.342-.148 9.884-.353 12.227-.268 3.063-.487 5.985-.2 9.068.285 3.048.34 6.003.333 9.073-.004 1.528-.49 2.933-.422 4.488.083 1.904.08 7.449.08 9.355 0 1.446-2.243 1.446-2.243 0 0-2.664-.682-9.787.04-12.358.794-2.826.452-6.735.089-9.611a38.768 38.768 0 0 1-.055-9.248c.292-2.591.189-10.402.487-12.994.163-1.42 2.409-1.437 2.244 0M228.362 98.144c-.037 1.444-2.28 1.447-2.243 0 .045-1.83.28-3.64.28-5.471 0-1.934-.28-7.474-.28-9.394 0-1.447 2.243-1.447 2.243 0 0 1.665.28 6.967.28 8.652 0 2.08-.227 4.136-.28 6.213M228.614 57.853c-.142.475.19.83.27 1.286.103.602-.153 1.206-.785 1.38-.546.15-1.275-.18-1.38-.783-.04-.237-.158-.448-.25-.672-.12-.29-.144-.705-.147-1.012-.008-.595.328-1.121.356-1.7.072-1.44 2.316-1.446 2.245 0-.026.528-.16 1-.309 1.502M212.473 66.494a1.16 1.16 0 0 1-.447.018c-.044.007-.085.018-.131.022-.581.038-1.58.225-2.048.604-.396.32-.496 1.268-.586 1.733-.381 1.964.722 2.917 2.67 3.017.705.036 1.526-.485 1.916-1.055.397-.58 1.138-1.193 1.125-1.934-.02-1.106-1.165-2.717-2.5-2.405m3.633 5.011c-.492.457-.714 1.061-1.267 1.494-.663.518-1.308.88-2.133 1.058-2.96.647-5.794-1.364-5.787-4.375.003-1.247.336-2.868 1.122-3.855.869-1.09 2.528-1.449 3.855-1.537.066-.004.126.001.187.006 2.287-.388 4.776 1.592 5.062 3.837.176 1.382.006 2.405-1.04 3.372M218.217 109.595c-.507.523-.585 1.638-.833 2.31-.43 1.162-.797 2.872-1.052 4.088-.435 2.079-.541 4.514-2.251 5.975-1.54 1.316-4.432.34-6.15.023-1.477-.272-2.76-.964-4.27-1.168-1.448-.197-2.767-.705-4.206-.952-6.76-1.162-13.313-3.205-20.041-4.492-3.342-.64-6.45-1.697-9.688-2.721-2.6-.822-5.948-2.06-8.678-2.173-1.442-.061-1.448-2.304 0-2.244 2.249.093 4.305.972 6.468 1.512 2.909.728 5.704 1.753 8.568 2.626 6.149 1.875 12.715 2.607 18.919 4.317 2.713.747 5.664 1.304 8.414 1.848 2.648.525 5.18 1.223 7.854 1.653 2.38.38 2.147-1.68 2.476-3.002.356-1.43.789-2.824 1.157-4.24.419-1.611.503-3.686 1.727-4.947 1.009-1.04 2.594.549 1.586 1.587" fill="#12243e"/>
    <path d="M205.21 120.587c-.416.667-.635 2.289-.868 3.098-.322 1.113-.73 2.069-1.226 3.115-.523 1.104-1.707 4.464-3.106 4.794-.74.176-1.24.155-1.945-.228-1.405-.763-2.827-1.042-4.334-1.488-2.581-.763-5.162-1.971-7.637-3.03-5.223-2.238-10.09-5.477-15.07-8.19-2.698-1.47-5.32-3.093-8.02-4.585-1.41-.778-2.76-1.616-4.206-2.34-.771-.384-1.767-1.318-2.536-1.57-1.37-.445-.783-2.612.596-2.163 1.648.537 3.169 1.844 4.756 2.638 2.588 1.294 4.909 3.042 7.573 4.207 2.062.902 4.062 2.523 5.989 3.697 2.388 1.456 4.972 2.625 7.473 3.876 4.556 2.277 8.969 4.583 13.938 5.869.409.106 2.569 1.197 2.8.777.61-1.114 1.22-2.255 1.792-3.397.993-1.978.952-4.381 2.094-6.213.762-1.224 2.705-.1 1.937 1.133" fill="#12243e"/>
    <text style="-inkscape-font-specification:Circe" transform="matrix(1 0 0 -1 148.439 6.768)" font-weight="700" font-size="16" font-family="Circe" fill="#12243e">
      <tspan y="0" x="0 12.096 21.184 28.736 36.144001 45.231998 54.112 62.368">Дизайнер</tspan>
    </text>
    <path d="M288.565 47.152c-.896-.543-1.49-1.435-1.97-2.345-.677-1.28-1.58-2.44-2.244-3.74-.165-.32.318-.605.485-.282a33.377 33.377 0 0 0 1.834 3.125c.642.98 1.14 2.128 2.177 2.758.31.187.03.671-.282.484M292.996 43.368c-1.229-1.248-2.615-2.85-2.699-4.686-.018-.362.544-.36.56 0 .076 1.667 1.425 3.161 2.535 4.29.254.257-.141.654-.396.396M299.727 42.995c-1.575-1.239-2.637-3.033-2.699-5.06-.012-.363.55-.362.56 0 .06 1.887 1.077 3.515 2.535 4.664.286.222-.115.617-.396.396M306.76 42.497c-.548-1.46-1.8-2.55-1.88-4.188-.016-.362.545-.36.563 0 .075 1.543 1.339 2.652 1.859 4.04.127.337-.415.483-.541.148M313.118 42.871c-.4-1.26-.51-2.973-1.424-3.99-.24-.269.155-.666.397-.398 1.001 1.117 1.13 2.864 1.568 4.24.11.344-.432.492-.54.148M321.71 42.797c-.1-1.93-1.787-3.32-2.234-5.162-.085-.351.456-.5.542-.15.463 1.91 2.149 3.287 2.253 5.312.018.36-.542.359-.561 0M328.451 42.871a8.398 8.398 0 0 1-.373-2.138c-.025-.505-.022-.902-.293-1.354-.265-.44-.56-.85-.802-1.303-.17-.319.315-.602.485-.282.278.518 1.16 1.418 1.16 2.01.001 1.007.063 1.95.364 2.918.107.346-.434.494-.54.15M336.305 42.871c-.362-1.557-.291-3.489-1.424-4.738-.243-.268.153-.665.397-.397 1.226 1.352 1.176 3.302 1.568 4.986.082.351-.46.502-.541.15M342.288 42.123c-.412-1.259-.75-2.545-1.468-3.673-.194-.306.291-.587.485-.282.743 1.168 1.097 2.502 1.524 3.806.112.344-.429.491-.541.149M348.344 41.124c-.88-.948-1.176-2.294-1.568-3.489-.114-.345.428-.491.54-.149.36 1.095.619 2.372 1.424 3.242.247.264-.15.662-.396.396M355.367 41.675c-.04-1.056-.616-1.938-1.084-2.851-.164-.321.32-.605.484-.283.517 1.007 1.117 1.97 1.161 3.134.014.36-.547.36-.56 0M360.602 42.422c-.019-1.097-.272-2.338-1.039-3.167-.246-.265.15-.663.395-.396.873.94 1.183 2.31 1.205 3.563.006.362-.555.362-.56 0M345.164 59.917c-.408-.428-.618-.869-.792-1.429-.133-.428-.218-.841-.42-1.246a2.537 2.537 0 0 1-.272-.889c-.037-.361.524-.357.561 0 .037.357.227.663.377.98.129.271.148.546.239.826.172.529.312.95.704 1.361.25.261-.146.658-.397.397M349.092 59.075a5.432 5.432 0 0 1-1.484-3.564c-.01-.363.55-.36.56 0a4.846 4.846 0 0 0 1.32 3.168c.249.261-.146.66-.396.396M352.946 58.67c-.058-.327-.257-.393-.39-.661-.133-.271-.099-.586-.227-.842-.309-.621-.492-1.241-.515-1.936-.013-.363.548-.361.561 0 .011.35.064.676.165 1.012.093.305.302.574.385.876.081.293.101.58.307.834.142.173.216.353.255.569.062.353-.479.505-.54.149M357.153 58.11c-.032-.207-.178-.382-.29-.552-.142-.213-.207-.436-.325-.656-.306-.564-.739-1.007-.797-1.672-.032-.36.53-.357.56 0 .031.353.238.643.427.93.123.186.368.452.404.678.067.417.495.696.562 1.123.055.353-.485.505-.54.148M361.64 58.11c-.417-1.083-1.63-1.608-1.692-2.88-.018-.36.543-.36.56 0 .055 1.117 1.291 1.74 1.673 2.731.13.337-.412.483-.54.148M365.36 58.233c-.362-.362-.716-.722-.996-1.15-.388-.593-.163-1.336-.45-1.992-.146-.328.337-.614.483-.283.232.528.308 1.04.318 1.613.01.541.693 1.068 1.04 1.416.256.256-.14.653-.396.396M315.39 112.87c-.47-.682-1.033-1.287-1.537-1.942-.194-.252-.405-.502-.557-.783-.148-.275-.155-.738-.544-.793-.356-.05-.205-.59.15-.54.68.095.621.754.965 1.194.67.852 1.39 1.687 2.007 2.581.206.298-.28.578-.484.283M321.886 114.049c-1.387-1.388-2.775-2.79-3.69-4.545-.167-.32.316-.603.484-.283.893 1.714 2.249 3.077 3.602 4.43.256.256-.14.654-.396.398M329.134 115.955c-.447-.75-1.1-1.087-1.693-1.68l-1.373-1.375c-1.05-1.05-2.032-2.136-2.824-3.396-.193-.307.292-.588.484-.283.846 1.345 1.924 2.47 3.042 3.59.938.94 2.162 1.711 2.848 2.861.186.311-.3.594-.484.283M336.388 118.058c-.128-1.634-1.47-2.883-2.367-4.168-.82-1.174-1.872-2.197-2.88-3.207-.255-.256.14-.653.396-.396 1.148 1.148 2.272 2.32 3.203 3.655.917 1.315 2.078 2.44 2.21 4.116.028.36-.534.357-.562 0M341.298 118.58c-.313.184-.595-.3-.283-.484.59-.349-1.623-3.894-1.946-4.359-.811-1.167-1.712-2.445-2.72-3.457-.398-.398-.91-.828-1.117-1.365-.035-.086.003-.213.07-.273.017-.013.03-.026.046-.039.272-.236.67.16.396.397.415-.36 4.37 5.25 4.649 5.847.335.718 2.009 3.082.905 3.733M347.326 120.02c-.092-2.136-1.29-4.17-2.388-5.96-1.077-1.754-2.359-3.377-3.464-5.116-.194-.308.291-.589.485-.284 2.17 3.417 5.745 7.1 5.93 11.36.013.362-.547.36-.563 0M352.737 121.34l-.28-.28a.256.256 0 0 1-.053-.307c-.979-1.791-1.91-3.631-3.076-5.304-.706-1.012-1.329-2.083-1.964-3.14-.534-.89-1.123-1.58-1.43-2.591-.105-.347.436-.494.54-.15.34 1.117 1.066 1.943 1.655 2.925a54.815 54.815 0 0 0 1.963 3.076c1.181 1.694 2.08 3.63 3.085 5.432.156.278-.21.568-.44.34M355.19 117.571c-.416-1.187-1.422-2.114-1.864-3.28a65.33 65.33 0 0 0-2.596-5.909c-.16-.323.324-.607.484-.283a70.956 70.956 0 0 1 2.472 5.572c.52 1.32 1.577 2.417 2.044 3.751.12.341-.422.488-.54.15M306.667 114.205c-.55-1.32-1.363-2.518-1.683-3.927-.04-.176.082-.354.27-.354.409 0 .478.081.76.362.23.231-.068.57-.316.45.383 1.154 1.042 2.198 1.51 3.32.14.334-.404.478-.541.15M310.874 116.73c-.204-.51-.54-.903-.84-1.355-.253-.38-.335-.846-.561-1.243-.361-.632-.87-1.087-1.202-1.706a.253.253 0 0 1-.211-.258v-.282c0-.322.456-.372.55-.073.28.881 1.023 1.467 1.472 2.255.23.404.323.854.588 1.252.28.423.555.786.746 1.26.135.337-.408.48-.542.15M314.549 118.76c-.956-1.804-2.302-3.367-3.177-5.208-.12-.021-.227-.105-.227-.263v-.28c0-.26.409-.41.523-.142.859 2.022 2.34 3.675 3.365 5.61.169.32-.314.602-.484.283M318.727 121.498c-.043-.146-.6-.958-.702-1.263-.294-.873-.705-1.632-1.182-2.412-.778-1.275-1.609-2.501-2.295-3.832-.165-.321.32-.604.485-.282.752 1.459 1.671 2.808 2.524 4.207.345.563.62 1.136.86 1.75.232.594.673 1.081.852 1.683.102.347-.438.495-.542.149M322.783 123.628c-1.114-.698-1.403-2.04-1.68-3.244-.256-1.12-1-2.123-1.546-3.122-.35-.645-.745-.996-.839-1.73-.046-.357.515-.352.56 0 .08.61.703 1.336 1.004 1.888.397.729.821 1.44 1.202 2.179.616 1.19.253 2.71 1.582 3.545.306.192.025.677-.283.484M328.056 126.39c-1.264-1.361-1.9-3.048-2.66-4.713-.77-1.69-1.966-3.438-3.231-4.823-.243-.268.154-.665.398-.398 1.05 1.152 2.002 2.519 2.833 3.832 1.18 1.869 1.499 4.027 3.056 5.706.247.263-.15.662-.396.396M331.339 127.032c0 .362-.557.361-.561 0-.01-.914-.614-1.887-.99-2.708-.436-.955-.896-1.845-1.496-2.704-.721-1.035-1.25-2.32-2.08-3.266-.33-.377-.637-.852-.753-1.344-.083-.352.458-.5.54-.15.189.796.958 1.575 1.375 2.268a41.45 41.45 0 0 0 1.963 2.995c.566.775.922 1.874 1.31 2.75.278.627.546 1.113.645 1.73a.27.27 0 0 1 .047.15zM336.95 129.557c-.235-2.042-1.824-4.156-2.844-5.882-.472-.8-1.023-1.557-1.54-2.328-.29-.435-2.824-3.557-2.266-4.05.27-.237.668.158.396.398.213-.19.295.213.473.502.252.41.516.81.781 1.214.607.926 1.228 1.843 1.846 2.764.501.75.967 1.51 1.428 2.285.9 1.513 2.081 3.316 2.286 5.097.041.359-.52.355-.56 0M339.192 129.837c-.14-2.112-1.635-4.322-2.42-6.282-.479-1.194-1.007-2.34-1.749-3.393-.459-.65-.794-1.314-.88-2.104-.038-.36.524-.357.562 0 .12 1.119 1.03 2.083 1.561 3.026.497.883.857 1.85 1.234 2.788.76 1.894 2.117 3.9 2.254 5.965.023.36-.538.359-.562 0M340.072 126.612a3.585 3.585 0 0 1-.314-1.166c-.082-.865-.652-1.393-.956-2.147-.579-1.438-1.723-2.515-2.125-4.045-.09-.35.451-.499.542-.149.355 1.357 1.277 2.372 1.935 3.58.33.602.643 1.231.961 1.843.31.592.168 1.166.441 1.802.142.328-.34.614-.484.282M341.194 124.37c-.44-.644-.913-1.244-1.224-1.964-.352-.816-.35-1.7-.739-2.525-.154-.324.33-.61.484-.283.274.584.55 1.231.586 1.882.056.985.848 1.833 1.377 2.607.205.3-.282.58-.484.282M312.024 84.542c-.485-1.11-1.555-1.874-2.198-2.9-.756-1.204-1.709-2.239-2.289-3.552-.145-.327.338-.612.484-.282.576 1.302 1.497 2.378 2.29 3.55.67.995 1.712 1.791 2.197 2.901.144.327-.339.613-.484.283M318.015 74.265c-1.63-1.136-2.618-2.85-3.983-4.251-.253-.26.143-.656.396-.396 1.326 1.362 2.287 3.059 3.87 4.163.295.205.015.69-.282.484M345.445 97.22c-1.94-2.28-3.325-4.942-5.093-7.35-.215-.292.274-.571.485-.282 1.74 2.367 3.095 4.992 5.004 7.236.234.273-.16.672-.396.396M349.01 92.814c-.11-1.187-1.097-2.195-1.807-3.074-.6-.744-1.138-1.516-1.521-2.394-.143-.329.34-.614.484-.283.865 1.982 3.198 3.52 3.405 5.751.034.36-.53.358-.561 0M354.058 90.29c-.053-.519-.368-1.04-.662-1.46-.171-.247-.224-.654-.311-.936-.256-.836-.816-1.481-1.232-2.23-.176-.316.309-.601.484-.283.447.804.934 1.509 1.289 2.364.228.546.414 1.054.712 1.575.18.316.244.614.281.97.036.36-.526.356-.562 0M306.097 59.719c-.038.354-.601.358-.562 0 .206-1.888-1.104-3.59-1.924-5.188-.165-.322.319-.605.484-.283.864 1.683 2.218 3.478 2.002 5.47M311.183 57.335c-.37-.792-.527-1.771-1.01-2.496a25.91 25.91 0 0 1-1.514-2.552c-.165-.321.32-.605.484-.283.405.793.86 1.552 1.347 2.298.552.847.748 1.834 1.177 2.751.152.325-.33.61-.485.282" fill="#12243e"/>
    <path d="M367.153 60.636c-1.753-1.013-3.339-1.113-5.303-1.113-3.41 0-6.827-.065-10.237.03-1.824.05-3.542.639-5.178 1.404-1.394.654-1.532 2.928-1.874 4.192-.839 3.102-.783 6.582-.28 9.782.232 1.476.086 4.024 2.284 4.214 1.39.12 2.81.262 4.202.335 2.625.137 5.208.237 7.848.237 2.377 0 5.122-.15 7.308.98 2.368 1.225 2.817 2.01 3.486 4.229.328-.946.155-2.123.155-3.064v-6.913c0-1.77-.284-3.494-.276-5.26.01-2.144.325-4.193.286-6.331a1.04 1.04 0 0 1-.29-.75c0-.652-1.51-1.615-2.13-1.972m4.541 11.282c.491 2.572.112 5.506.112 8.108 0 2.964.753 8.445-3.663 7.223a1.131 1.131 0 0 1-.824-1.082v-.28c0-.03.007-.057.01-.086-.407-1.374-.635-1.953-1.806-2.786-1.88-1.337-4.729-1.055-6.909-1.055-3.266 0-6.588.126-9.824-.393-1.315-.211-3.262.109-4.476-.601-1.099-.644-1.57-2.063-1.859-3.21-.42-1.667-.563-3.52-.642-5.233-.089-1.942-.496-4.402.023-6.286.694-2.524 1.011-5.813 3.465-7.216 3.17-1.814 6.788-1.742 10.311-1.742 3.478 0 7.894-.79 11.151.679 1.658.747 4.362 2.095 4.721 4.184.182.179.31.425.322.746.133 2.982-.673 6.098-.112 9.03M368.55 98.05c-.001 2.083-.04 4.66-.901 6.549-1.36 2.973-4.612 4.485-7.703 4.958-1.794.275-3.658-.117-5.448-.261-2.086-.167-4.232-.027-6.324-.027-4.465 0-8.908.373-13.378.373-9.468 0-36.632.374-46.09.374-2.514 0-6.441-1.645-7.72-3.858-.763-1.322-.576-3.223-.524-4.67.072-2.015.017-4.041.017-6.057 0-1.446 2.244-1.446 2.244 0 0 2.959-.39 6.186.069 9.108.266 1.694 3.236 2.477 4.573 2.986 1.977.754 4.864.248 6.952.248 7.208 0 32.175-.375 39.407-.375 6.93 0 13.839-.558 20.774-.346 3.762.115 7.012.769 10.15-1.955 1.58-1.37 1.658-5.018 1.658-7.074 0-1.448 2.244-1.448 2.244 0v.026z" fill="#12243e"/>
    <path d="M368.923 55.884c-.1 1.436-2.344 1.445-2.244 0 .19-2.754 1.223-11.882-.22-14.428-2.254-3.977-7.374-2.595-10.97-3.365-3.13-.668-6.371-.12-9.498.188-1.801.176-3.306-.046-5.116-.053-1.877-.007-3.875-.078-5.796.093-3.485.31-24.894-.374-28.422-.374-3.667 0-7.3.355-10.938.379-3.976.029-8.043.814-11.101 3.553-2.364 2.118-1.547 6.73-1.521 9.53.013 1.448-2.231 1.447-2.243 0-.027-2.95-.523-6.471.877-9.211 1.558-3.053 5.31-4.99 8.547-5.708 1.647-.364 3.724-.324 5.44-.407 1.89-.092 3.706-.381 5.606-.381h7.578c2.499 0 22.769.513 25.242.458 2.324-.052 4.436-.46 6.73-.175 1.904.234 4.093.152 6.006-.036 4.208-.413 8.133.128 12.32.128 3.664 0 6.926 1.284 9.197 4.248 2 2.614.733 12.595.526 15.56" fill="#12243e"/>
    <path d="M283.097 51.128c-.27 2.342-.148 9.884-.354 12.227-.267 3.063-.487 5.985-.2 9.068.286 3.048.34 6.003.334 9.073-.004 1.528-.49 2.933-.422 4.488.083 1.904.08 7.449.08 9.355 0 1.446-2.243 1.446-2.243 0 0-2.664-.682-9.787.04-12.358.794-2.826.452-6.735.089-9.611a38.82 38.82 0 0 1-.055-9.248c.292-2.591.189-10.402.487-12.994.163-1.42 2.409-1.437 2.244 0M368.362 98.144c-.037 1.444-2.28 1.447-2.243 0 .045-1.83.28-3.64.28-5.471 0-1.934-.28-7.474-.28-9.394 0-1.447 2.243-1.447 2.243 0 0 1.665.28 6.967.28 8.652 0 2.08-.227 4.136-.28 6.213M368.614 57.853c-.142.475.19.83.27 1.286.103.602-.153 1.206-.785 1.38-.546.15-1.275-.18-1.38-.783-.04-.237-.158-.448-.25-.672-.12-.29-.144-.705-.147-1.012-.008-.595.328-1.121.356-1.7.072-1.44 2.316-1.446 2.245 0-.026.528-.16 1-.309 1.502M352.473 66.494a1.16 1.16 0 0 1-.447.018c-.044.007-.085.018-.131.022-.581.038-1.58.225-2.048.604-.396.32-.496 1.268-.586 1.733-.381 1.964.722 2.917 2.67 3.017.705.036 1.526-.485 1.916-1.055.397-.58 1.138-1.193 1.125-1.934-.02-1.106-1.165-2.717-2.5-2.405m3.633 5.011c-.492.457-.714 1.061-1.267 1.494-.663.518-1.308.88-2.133 1.058-2.96.647-5.794-1.364-5.787-4.375.003-1.247.336-2.868 1.122-3.855.869-1.09 2.528-1.449 3.855-1.537.066-.004.126.001.187.006 2.287-.388 4.776 1.592 5.062 3.837.176 1.382.006 2.405-1.04 3.372M358.217 109.595c-.507.523-.585 1.638-.833 2.31-.43 1.162-.797 2.872-1.052 4.088-.435 2.079-.541 4.514-2.251 5.975-1.54 1.316-4.432.34-6.15.023-1.477-.272-2.76-.964-4.27-1.168-1.448-.197-2.767-.705-4.206-.952-6.76-1.162-13.313-3.205-20.041-4.492-3.343-.64-6.45-1.697-9.687-2.721-2.6-.822-5.948-2.06-8.68-2.173-1.44-.061-1.446-2.304 0-2.244 2.25.093 4.306.972 6.47 1.512 2.909.728 5.703 1.753 8.567 2.626 6.149 1.875 12.715 2.607 18.919 4.317 2.713.747 5.664 1.304 8.414 1.848 2.648.525 5.18 1.223 7.854 1.653 2.38.38 2.147-1.68 2.476-3.002.356-1.43.789-2.824 1.157-4.24.419-1.611.503-3.686 1.727-4.947 1.009-1.04 2.594.549 1.586 1.587" fill="#12243e"/>
    <path d="M345.21 120.587c-.416.667-.635 2.289-.868 3.098-.322 1.113-.73 2.069-1.226 3.115-.523 1.104-1.707 4.464-3.106 4.794-.74.176-1.24.155-1.945-.228-1.405-.763-2.827-1.042-4.334-1.488-2.581-.763-5.162-1.971-7.637-3.03-5.224-2.238-10.09-5.477-15.07-8.19-2.698-1.47-5.32-3.093-8.018-4.585-1.411-.778-2.762-1.616-4.207-2.34-.772-.384-1.768-1.318-2.536-1.57-1.37-.445-.784-2.612.595-2.163 1.648.537 3.169 1.844 4.756 2.638 2.588 1.294 4.908 3.042 7.574 4.207 2.06.902 4.06 2.523 5.988 3.697 2.388 1.456 4.972 2.625 7.473 3.876 4.556 2.277 8.969 4.583 13.938 5.869.409.106 2.569 1.197 2.8.777.61-1.114 1.22-2.255 1.792-3.397.993-1.978.952-4.381 2.094-6.213.762-1.224 2.705-.1 1.937 1.133" fill="#12243e"/>
    <text style="-inkscape-font-specification:Circe" transform="matrix(1 0 0 -1 286.758 6.768)" font-weight="700" font-size="16" font-family="Circe" fill="#12243e">
      <tspan y="0" x="0 9.5200005 16.639999 25.568001 34.560001 43.647999 50.543999 58.560001 67.183998">Строитель</tspan>
    </text>
    <path d="M291.835 181.903c-.245-.21-.511-.349-.724-.597a12.031 12.031 0 0 1-.516-.658c-.26-.354-.596-.639-.88-.972-.198-.232-.21-.545-.416-.758-.181-.185-.052-.51.21-.51h.15c.218 0 .308.191.279.357.057.09.103.184.14.297.145.423.58.727.867 1.063.16.186.333.33.464.54.232.37.528.542.849.815.293.251-.131.671-.423.423M296.76 182.052c-.338-.312-.706-.584-1.045-.896-.29-.267-.56-.778-.792-1.105-.55-.774-1.247-1.52-1.642-2.387-.158-.348.357-.652.515-.3.348.762.983 1.454 1.463 2.133.269.38.573.708.819 1.103.264.423.744.697 1.104 1.03.284.261-.14.682-.422.422M300.192 180.41c-.715-.777-1.248-1.712-1.896-2.546-.72-.928-1.46-1.836-2.283-2.676-.269-.276.154-.698.423-.423.822.84 1.56 1.75 2.281 2.677.647.827 1.19 1.775 1.897 2.547.26.282-.16.706-.422.422M302.79 179.005c.014-.409-.384-.603-.587-.88-.426-.586-.972-1.112-1.425-1.68-.914-1.149-1.737-2.368-2.674-3.497-.245-.294.175-.718.42-.422 1.12 1.348 2.107 2.8 3.209 4.161.52.64 1.683 1.413 1.656 2.318-.012.384-.61.386-.598 0M305.04 177.593c-1.082-2.811-3.856-4.48-5.192-7.092-.175-.342.339-.644.515-.301.657 1.287 1.884 2.398 2.788 3.52.958 1.19 1.908 2.267 2.465 3.714.139.36-.438.514-.576.159M308.503 175.724c-.904-1.783-2.683-3.498-4.046-4.95-.623-.665-1.12-1.46-1.625-2.213-.298-.444-.617-.653-.638-1.195-.014-.385.582-.384.597 0 .018.454.932 1.452 1.159 1.784.6.877 1.34 1.643 2.029 2.452 1.02 1.203 2.32 2.403 3.039 3.82.174.344-.341.646-.515.302M310.741 172.889c-1.009-2.021-2.707-3.19-4.029-4.925-1.33-1.744-2.986-3.23-4.178-5.074-.21-.323.307-.623.515-.301.596.924 1.302 1.722 2.054 2.516.855.903 1.543 1.967 2.424 2.842 1.428 1.419 2.822 2.82 3.73 4.64.171.344-.344.646-.516.302M312.877 170.71c-2.58-2.39-4.594-5.384-7.012-7.939-1.968-2.08-5.155-3.797-5.462-6.896-.037-.384.56-.38.597 0 .186 1.87 1.537 2.787 2.704 4.058 1.026 1.115 2.255 2.05 3.29 3.173 2.15 2.335 3.975 5.024 6.305 7.183.283.261-.14.682-.422.421M299.848 160.8c-.262-.428-.63-.754-.954-1.133-.3-.35-.514-.767-.84-1.095-.543-.544-1.018-1.118-1.222-1.872-.1-.372.476-.53.577-.158.242.896.973 1.363 1.462 2.093.448.666 1.076 1.183 1.493 1.865.2.329-.316.629-.516.3M315.414 167.577c-2.183-1.824-3.844-4.56-5.494-6.851-.925-1.284-1.881-2.534-2.697-3.892-.852-1.413-2.035-2.534-3.151-3.732-.262-.281.159-.705.423-.422.818.88 1.795 1.726 2.486 2.707.846 1.199 1.58 2.456 2.448 3.645 1.009 1.382 1.998 2.78 3.021 4.154.996 1.337 2.103 2.897 3.386 3.969.296.247-.129.667-.422.422M317.606 163.935c-1.767-2.467-3.929-4.607-5.935-6.88-.878-.995-1.657-2.042-2.435-3.12-.767-1.061-1.687-2.078-2.226-3.281-.156-.35.358-.653.515-.301.54 1.202 1.458 2.222 2.227 3.282a52.104 52.104 0 0 0 3.06 3.814c1.803 2.052 3.716 3.96 5.31 6.185.224.314-.294.61-.516.3M319.742 161.458c-1.536-1.928-2.782-4.006-4.422-5.869-1.387-1.575-3.01-3.297-3.714-5.306-.127-.364.45-.519.576-.158.78 2.228 2.718 4.068 4.241 5.819 1.398 1.61 2.42 3.434 3.741 5.092.237.298-.182.723-.422.422" fill="#0062ae"/>
    <path d="M322.957 157.778c-.733-.862-1.494-1.165-2.47-1.653-3.607-1.805-7.568-7.036-11.924-5.13-2.374 1.04-4.705 2.277-6.562 4.101-.481.471-1.02.326-1.6.646-.64.353-.876.851-1.407 1.33-1.352 1.216-4.17 3.246-.126 3.185 1.388-.022 2.702-.389 4.068-.545 1.033-.119 1.496.7 1.41 1.51.149.46.082.985-.355 1.435-.595.611-1.173 2.818-1.468 3.69-.305.9-.89 1.685-1.394 2.478-1.24 1.953-2.144 3.994-3.854 5.62-1.672 1.592-3.565 3.184-5.505 4.436-1.303.84-2.482 1.984-3.862 2.647.255.033.512.057.772.063 1.27.03 2.654-.318 3.94-.396 3.5-.214 7.91-2.324 10.927-3.986 3.352-1.847 6.72-3.965 8.91-7.14 1.117-1.622 2.718-3.332 2.927-5.377.12-1.185.302-2.059.987-3.048.199-.287.448-.47.716-.57.164-.55.617-.99 1.369-.965 1.923.065 4.273.57 6.12-.195.684-.284-1.27-1.726-1.62-2.136m3.814 4.316c-2.251 1.534-5.204 1.15-7.802 1.021-.008.013-.012.024-.02.036-.832 1.202-.486 2.74-1.13 4.043-.647 1.317-1.465 2.468-2.296 3.673-1.396 2.025-2.677 3.81-4.735 5.236-2.417 1.675-4.894 3.137-7.438 4.602-2.562 1.473-5.624 1.98-8.373 3.03-1.682.64-4.177.89-5.97.848-1.296-.03-2.784-.138-3.96-.737-3.312-1.687-.744-4.967 1.973-5.379.084-.012.165-.012.246-.012.464-.374.963-.875 1.349-1.113 1.042-.64 1.994-1.252 2.919-2.072 1.797-1.592 3.944-2.719 5.243-4.843 1.065-1.74 2.473-3.707 3.128-5.64.207-.61.378-1.21.577-1.784-1.852.2-3.571.183-5.461-.909-1.582-.912-3.183-2.915-1.334-4.564 1.316-1.174 2.887-2.028 3.98-3.447.766-.99 2.106-1.083 3.02-1.879 2.47-2.15 6.136-4.298 9.414-4.777 3.066-.446 6.27 2.372 8.61 3.932 2.544 1.695 5.282 3.057 7.448 5.223 1.313 1.312 2.67 4.11.612 5.512M75.767 181.903c.246-.21.511-.349.724-.597.176-.205.358-.442.516-.658.26-.354.596-.639.88-.972.198-.232.209-.545.417-.758.18-.185.051-.51-.211-.51h-.15c-.218 0-.307.191-.279.357-.057.09-.103.184-.141.297-.143.423-.579.727-.866 1.063-.159.186-.333.33-.464.54-.232.37-.528.542-.848.815-.294.251.13.671.422.423M70.842 182.052c.338-.312.707-.584 1.045-.896.29-.267.56-.778.793-1.105.548-.774 1.247-1.52 1.64-2.387.159-.348-.355-.652-.514-.3-.347.762-.982 1.454-1.463 2.133-.268.38-.572.708-.818 1.103-.265.423-.744.697-1.104 1.03-.285.261.138.682.42.422M67.41 180.41c.715-.777 1.249-1.712 1.897-2.546.72-.928 1.459-1.836 2.282-2.676.269-.276-.153-.698-.423-.423-.822.84-1.558 1.75-2.281 2.677-.647.827-1.188 1.775-1.897 2.547-.26.282.16.706.422.422M64.81 179.005c-.012-.409.386-.603.588-.88.427-.586.973-1.112 1.426-1.68.914-1.149 1.737-2.368 2.675-3.497.244-.294-.176-.718-.422-.422-1.12 1.348-2.106 2.8-3.208 4.161-.52.64-1.683 1.413-1.655 2.318.012.384.609.386.597 0M62.562 177.593c1.083-2.811 3.857-4.48 5.193-7.092.175-.342-.34-.644-.516-.301-.657 1.287-1.884 2.398-2.788 3.52-.958 1.19-1.908 2.267-2.465 3.714-.138.36.439.514.576.159M59.1 175.724c.903-1.783 2.681-3.498 4.044-4.95.625-.665 1.122-1.46 1.627-2.213.296-.444.616-.653.636-1.195.016-.385-.581-.384-.596 0-.018.454-.932 1.452-1.16 1.784-.6.877-1.34 1.643-2.027 2.452-1.022 1.203-2.32 2.403-3.04 3.82-.173.344.342.646.516.302M56.86 172.889c1.01-2.021 2.708-3.19 4.03-4.925 1.33-1.744 2.986-3.23 4.179-5.074.209-.323-.307-.623-.516-.301-.596.924-1.302 1.722-2.054 2.516-.855.903-1.543 1.967-2.424 2.842-1.427 1.419-2.822 2.82-3.73 4.64-.171.344.344.646.516.302M54.725 170.71c2.581-2.39 4.594-5.384 7.012-7.939 1.969-2.08 5.155-3.797 5.462-6.896.037-.384-.56-.38-.597 0-.185 1.87-1.537 2.787-2.704 4.058-1.026 1.115-2.255 2.05-3.29 3.173-2.15 2.335-3.974 5.024-6.305 7.183-.284.261.14.682.422.421M67.755 160.8c.262-.428.629-.754.954-1.133.298-.35.514-.767.839-1.095.543-.544 1.018-1.118 1.222-1.872.1-.372-.476-.53-.576-.158-.242.896-.974 1.363-1.462 2.093-.448.666-1.076 1.183-1.493 1.865-.2.329.316.629.516.3M52.188 167.577c2.183-1.824 3.844-4.56 5.494-6.851.925-1.284 1.88-2.534 2.698-3.892.85-1.413 2.034-2.534 3.15-3.732.262-.281-.16-.705-.423-.422-.818.88-1.794 1.726-2.486 2.707-.846 1.199-1.58 2.456-2.447 3.645-1.01 1.382-2 2.78-3.022 4.154-.996 1.337-2.103 2.897-3.386 3.969-.296.247.129.667.422.422M49.996 163.935c1.767-2.467 3.928-4.607 5.934-6.88.879-.995 1.657-2.042 2.436-3.12.767-1.061 1.687-2.078 2.226-3.281.156-.35-.358-.653-.515-.301-.54 1.202-1.458 2.222-2.227 3.282a52.117 52.117 0 0 1-3.061 3.814c-1.802 2.052-3.715 3.96-5.308 6.185-.225.314.293.61.515.3M47.86 161.458c1.536-1.928 2.782-4.006 4.422-5.869 1.387-1.575 3.011-3.297 3.714-5.306.127-.364-.45-.519-.576-.158-.78 2.228-2.718 4.068-4.24 5.819-1.399 1.61-2.42 3.434-3.742 5.092-.237.298.182.723.422.422" fill="#0062ae"/>
    <path d="M43.026 159.914c1.846.765 4.197.26 6.12.195.752-.025 1.205.415 1.37.964.266.101.516.284.715.571.684.99.866 1.863.987 3.048.21 2.046 1.81 3.756 2.927 5.376 2.191 3.177 5.558 5.294 8.91 7.141 3.017 1.663 7.426 3.772 10.927 3.986 1.286.078 2.67.426 3.94.396.26-.006.517-.03.772-.062-1.38-.663-2.56-1.807-3.86-2.648-1.942-1.252-3.834-2.844-5.508-4.435-1.709-1.627-2.613-3.667-3.853-5.62-.504-.794-1.089-1.579-1.394-2.48-.295-.87-.873-3.078-1.468-3.689-.437-.45-.504-.975-.355-1.434-.086-.81.377-1.629 1.41-1.51 1.366.155 2.68.522 4.067.544 4.044.061 1.227-1.969-.125-3.186-.532-.477-.768-.975-1.408-1.329-.58-.32-1.119-.175-1.599-.645-1.858-1.825-4.188-3.063-6.562-4.102-4.356-1.906-8.317 3.325-11.925 5.13-.975.488-1.736.791-2.469 1.653-.349.41-2.303 1.852-1.619 2.136m-1.583-3.332c2.166-2.166 4.904-3.527 7.448-5.223 2.34-1.559 5.545-4.378 8.611-3.93 3.277.477 6.944 2.625 9.413 4.775.914.796 2.256.89 3.02 1.88 1.093 1.418 2.665 2.272 3.981 3.446 1.85 1.65.247 3.653-1.334 4.565-1.89 1.091-3.609 1.108-5.462.908.2.575.37 1.173.577 1.783.656 1.935 2.063 3.9 3.13 5.642 1.298 2.124 3.445 3.25 5.241 4.842.925.821 1.878 1.433 2.92 2.073.386.237.884.738 1.35 1.112.08.001.16 0 .244.013 2.718.411 5.286 3.692 1.973 5.38-1.175.597-2.663.705-3.96.735-1.792.041-4.287-.208-5.968-.849-2.75-1.049-5.813-1.555-8.373-3.028-2.544-1.465-5.022-2.928-7.439-4.603-2.058-1.426-3.339-3.21-4.736-5.235-.83-1.205-1.648-2.357-2.296-3.674-.643-1.304-.298-2.84-1.129-4.043-.008-.012-.012-.023-.02-.036-2.598.13-5.55.513-7.802-1.02-2.059-1.404-.7-4.2.611-5.513M180.94 161.054c-2.927 0-6.123.398-8.997-.183-.408-.083-.756-.467-.859-.86-.827-3.138 3.26-5.69 5.307-7.516 2.303-2.054 5.29-5.304 8.66-5.036 3.953.315 8.132 4.24 11.2 6.435 1.866 1.336 6.522 3.59 6.791 6.242.058.578-.433.996-.904 1.187-2.53 1.026-6.013-.792-7.772 1.83-.683 1.02-.337 4.042-.49 5.41a169.623 169.623 0 0 1-.627 4.818c-.952 6.679-1.609 13.786-4.412 19.983-.57 1.26-2.155.419-2.294-.621-.775-5.802-.717-11.314-2.364-17.047-1.5-5.223-3.323-10.324-4.456-15.647-.329-1.545 2.043-2.206 2.374-.654 1.252 5.879 3.364 11.492 4.914 17.289 1.445 5.405 1.265 10.599 1.994 16.059l-2.294-.622c3.191-7.052 3.844-15.942 4.702-23.558.335-2.974-.834-7.972 2.478-9.155.621-.221 2.883-.25 3.718-.13 1.253-.438 2.24-.12 2.962.957-.876-.684-1.752-1.37-2.627-2.052-2.85-2.162-5.81-4.576-8.986-6.24-2.997-1.571-5.584-2.021-8.337.176a62.797 62.797 0 0 0-3.696 3.219c-.775.725-2.468 1.736-2.152 2.772.325 1.064 5.055.483 6.166.483 1.584 0 1.586 2.46 0 2.46" fill="#0062ae"/>
    <path d="M190.588 182.595a37.491 37.491 0 0 1-4.055-2.544c-.34-.244-.012-.814.33-.567a37.687 37.687 0 0 0 4.056 2.544c.372.201.04.768-.331.567M190.793 179.341a14.627 14.627 0 0 0-4.764-2.309c-.406-.112-.233-.746.175-.632a15.114 15.114 0 0 1 4.92 2.375c.338.246.01.816-.331.566M190.937 176.283a27.97 27.97 0 0 1-5.464-3.348c-.332-.26.136-.72.465-.465a27.261 27.261 0 0 0 5.331 3.247c.383.177.05.743-.332.566M191.186 173.203a34.846 34.846 0 0 0-6.662-3.02c-.399-.134-.228-.769.175-.635a35.732 35.732 0 0 1 6.818 3.088c.364.213.034.781-.33.567M192.39 169.833a216.662 216.662 0 0 0-10.172-4.493c-.386-.159-.217-.794.174-.633a218.695 218.695 0 0 1 10.329 4.56c.382.18.049.746-.331.566M192.406 166.243c-1.968-1.018-4.065-1.545-6.15-2.242-1.718-.573-3.333-1.55-5.133-1.8-.417-.056-.239-.69.174-.632 2.052.284 3.914 1.42 5.88 2.039 1.903.599 3.782 1.148 5.56 2.068.375.194.044.76-.33.567M189.868 162.352c-4.79-1.908-9.569-3.84-14.339-5.796-.386-.157-.217-.793.174-.633 4.77 1.956 9.55 3.888 14.34 5.796.387.154.22.789-.175.633" fill="#0062ae"/>
    <path d="M192.945 163.662a9.082 9.082 0 0 0-2.93-1.07c-.415-.075-.239-.708.175-.632 1.094.2 2.123.58 3.086 1.135.366.21.036.778-.33.567M177.612 153.804c3.717 1.665 7.482 3.314 11.46 4.262 2.294.546 4.868.452 6.525 2.324.28.315-.182.78-.464.465-2.022-2.284-7.006-2.257-9.777-3.187-2.758-.926-5.422-2.11-8.076-3.297-.384-.172-.05-.738.332-.567M180.135 151.083a177.169 177.169 0 0 0 21 8.956c.395.14.225.774-.175.634a178.767 178.767 0 0 1-21.156-9.024c-.377-.19-.045-.756.331-.566M182.916 149.498a29.155 29.155 0 0 0 9.59 3.495c.414.074.24.707-.175.633a29.604 29.604 0 0 1-9.746-3.562c-.366-.211-.036-.779.331-.566" fill="#0062ae"/>
  </g>
</svg>
