<svg xmlns="http://www.w3.org/2000/svg" viewBox="0 0 710.559 382.369">
  <defs>
    <clipPath id="a_4_1">
      <path d="M0 286.776h532.919V0H0z"/>
    </clipPath>
    <clipPath id="b_4_1">
      <path d="M0 286.776h532.919V0H0z"/>
    </clipPath>
  </defs>
  <g clip-path="url(#a_4_1)" transform="matrix(1.33333 0 0 -1.33333 0 382.37)">
    <path d="M17.575 202.228c-.895-.543-1.49-1.435-1.971-2.345-.676-1.28-1.58-2.44-2.243-3.74-.165-.32.319-.605.484-.282a34.056 34.056 0 0 0 1.835 3.125c.642.98 1.14 2.127 2.178 2.758.309.187.027.671-.283.484M22.005 198.444c-1.229-1.248-2.615-2.85-2.699-4.686-.017-.36.544-.36.561 0 .076 1.668 1.424 3.161 2.534 4.29.255.257-.142.654-.396.396M28.737 198.07c-1.575-1.238-2.636-3.032-2.7-5.06-.011-.361.55-.36.56 0 .06 1.888 1.078 3.517 2.536 4.665.285.223-.115.617-.396.396M35.77 197.573c-.548-1.46-1.8-2.549-1.88-4.188-.017-.362.544-.36.562 0 .075 1.543 1.339 2.652 1.859 4.04.127.337-.415.483-.541.148M42.127 197.947c-.402-1.26-.51-2.973-1.423-3.99-.24-.269.154-.667.396-.397 1.001 1.115 1.13 2.862 1.568 4.238.11.345-.432.492-.54.15M50.719 197.873c-.1-1.93-1.786-3.318-2.233-5.161-.086-.351.455-.501.54-.15.464 1.91 2.15 3.285 2.255 5.31.018.362-.543.36-.562 0M57.46 197.947a8.45 8.45 0 0 1-.373-2.138c-.024-.505-.021-.902-.292-1.354-.265-.439-.56-.85-.802-1.303-.17-.319.314-.602.485-.283.277.52 1.159 1.42 1.16 2.011 0 1.007.062 1.95.364 2.918.107.346-.434.494-.541.15M65.314 197.947c-.362-1.556-.291-3.489-1.424-4.738-.243-.267.153-.665.397-.397 1.226 1.352 1.176 3.302 1.568 4.986.082.352-.459.501-.541.15M71.297 197.199c-.412-1.258-.75-2.544-1.468-3.672-.194-.307.291-.587.485-.283.743 1.168 1.097 2.502 1.524 3.806.113.345-.429.49-.54.149M77.353 196.2c-.879-.948-1.175-2.293-1.568-3.488-.114-.345.428-.491.541-.15.359 1.096.618 2.373 1.423 3.242.246.265-.149.663-.396.397M84.376 196.75c-.041-1.056-.616-1.938-1.083-2.85-.165-.322.319-.606.484-.283.516 1.007 1.116 1.97 1.161 3.133.013.362-.547.361-.562 0M89.611 197.498c-.019-1.096-.272-2.338-1.039-3.167-.246-.265.15-.663.396-.396.873.941 1.183 2.311 1.205 3.563.005.363-.556.362-.562 0M74.174 214.993c-.41-.428-.618-.87-.792-1.43-.133-.427-.218-.84-.42-1.245a2.49 2.49 0 0 1-.272-.89c-.037-.36.524-.355.56 0 .038.358.227.664.377.982.13.27.148.545.239.826.172.529.312.95.705 1.36.25.262-.147.659-.397.397M78.1 214.151a5.437 5.437 0 0 1-1.483-3.564c-.01-.362.55-.36.56 0a4.844 4.844 0 0 0 1.32 3.168c.249.261-.146.66-.396.396M81.955 213.747c-.058-.328-.256-.394-.389-.662-.133-.27-.1-.586-.227-.841-.309-.622-.492-1.242-.515-1.936-.013-.363.548-.362.56 0 .012.35.064.676.166 1.012.092.304.302.573.385.876.08.292.1.58.307.834.141.173.216.352.255.568.062.354-.48.505-.542.149M86.163 213.186c-.033-.207-.177-.381-.291-.551-.141-.213-.206-.437-.324-.657-.306-.564-.74-1.006-.798-1.671-.031-.361.53-.358.56 0 .032.352.239.642.428.928.123.188.368.453.405.68.065.417.493.695.56 1.122.056.354-.484.506-.54.149M90.65 213.186c-.417-1.083-1.63-1.608-1.692-2.879-.018-.362.543-.36.56 0 .055 1.116 1.29 1.738 1.673 2.73.13.338-.412.483-.541.149M94.369 213.31c-.362-.363-.714-.723-.996-1.152-.386-.592-.163-1.335-.451-1.991-.144-.327.339-.613.485-.282.232.527.308 1.04.318 1.613.01.54.693 1.067 1.04 1.416.256.255-.14.652-.396.396M44.4 267.946c-.47-.681-1.034-1.287-1.538-1.941-.194-.252-.405-.503-.556-.783-.149-.276-.156-.738-.544-.793-.357-.051-.205-.591.15-.541.68.096.62.755.965 1.194.67.853 1.39 1.688 2.007 2.58.205.299-.28.58-.485.284M50.895 269.125c-1.387-1.387-2.776-2.79-3.69-4.544-.167-.32.317-.604.484-.283.894 1.713 2.249 3.077 3.602 4.43.256.255-.14.652-.396.396M58.143 271.031c-.447-.75-1.099-1.086-1.693-1.68l-1.373-1.374c-1.05-1.05-2.032-2.137-2.824-3.397-.193-.307.292-.589.484-.283.846 1.345 1.924 2.47 3.042 3.59.938.94 2.162 1.712 2.848 2.861.186.311-.299.593-.484.283M65.397 273.133c-.127-1.633-1.47-2.882-2.367-4.167-.819-1.174-1.872-2.198-2.88-3.207-.255-.256.141-.653.397-.397 1.147 1.148 2.271 2.321 3.201 3.655.918 1.316 2.079 2.441 2.21 4.116.029.361-.533.358-.561 0M70.307 273.656c-.312.184-.594-.3-.283-.484.59-.349-1.623-3.893-1.946-4.359-.811-1.167-1.712-2.446-2.72-3.457-.397-.398-.91-.827-1.117-1.365-.034-.086.003-.213.072-.273.015-.013.03-.025.044-.039.272-.236.67.16.397.397.414-.36 4.37 5.25 4.649 5.847.334.718 2.008 3.082.904 3.733M76.336 275.097c-.093-2.138-1.292-4.17-2.39-5.96-1.075-1.755-2.358-3.378-3.462-5.118-.194-.306.29-.587.484-.283 2.17 3.416 5.746 7.1 5.929 11.361.015.361-.546.36-.561 0M81.747 276.417l-.28-.28a.257.257 0 0 1-.053-.308c-.979-1.79-1.91-3.631-3.077-5.304-.705-1.012-1.329-2.083-1.963-3.14-.535-.89-1.123-1.579-1.43-2.591-.106-.347.435-.495.54-.149.34 1.116 1.065 1.941 1.655 2.924a54.251 54.251 0 0 0 1.963 3.076c1.18 1.694 2.08 3.63 3.085 5.432.156.278-.212.568-.44.34M84.199 272.647c-.415-1.187-1.421-2.115-1.863-3.282a65.56 65.56 0 0 0-2.596-5.907c-.16-.323.324-.607.484-.283a71.163 71.163 0 0 1 2.472 5.572c.519 1.32 1.578 2.417 2.045 3.751.119.342-.423.488-.542.15M35.676 269.281c-.55-1.32-1.362-2.517-1.682-3.927-.04-.176.082-.355.27-.355.409 0 .478.082.76.363.23.23-.068.57-.316.45.382 1.153 1.042 2.198 1.51 3.32.139.334-.405.478-.542.15M39.884 271.806c-.205-.51-.54-.902-.84-1.354-.254-.381-.336-.847-.561-1.244-.361-.631-.871-1.086-1.202-1.704a.255.255 0 0 1-.211-.26v-.281c0-.323.455-.373.55-.074.279.882 1.023 1.468 1.472 2.256.23.404.323.853.587 1.25.282.424.555.787.746 1.262.135.336-.408.48-.541.149M43.558 273.836c-.956-1.804-2.302-3.367-3.177-5.208-.12-.021-.227-.105-.227-.262v-.281c0-.26.41-.41.523-.141.86 2.02 2.34 3.674 3.365 5.609.17.32-.314.602-.484.283M47.737 276.574c-.042-.145-.6-.958-.702-1.262-.294-.873-.706-1.633-1.182-2.413-.778-1.274-1.61-2.5-2.295-3.831-.165-.321.319-.605.485-.283.75 1.459 1.67 2.808 2.524 4.207.345.564.619 1.136.859 1.75.233.595.674 1.082.853 1.683.102.348-.44.495-.542.149M51.793 278.705c-1.115-.7-1.404-2.041-1.68-3.245-.256-1.12-1.001-2.123-1.547-3.121-.351-.645-.744-.997-.839-1.73-.046-.358.515-.353.561 0 .079.61.703 1.336 1.004 1.887.397.729.82 1.44 1.202 2.18.615 1.19.253 2.71 1.582 3.545.305.192.025.677-.283.484M57.065 281.466c-1.263-1.361-1.9-3.048-2.66-4.712-.77-1.691-1.965-3.44-3.23-4.825-.244-.266.152-.664.397-.396 1.05 1.15 2.002 2.518 2.833 3.832 1.18 1.867 1.499 4.026 3.057 5.705.245.264-.15.662-.397.396M60.349 282.108c0 .362-.557.362-.561 0-.011-.914-.614-1.887-.99-2.708-.436-.955-.897-1.844-1.496-2.705-.721-1.034-1.25-2.32-2.08-3.265-.33-.377-.637-.853-.753-1.344-.083-.352.458-.5.54-.149.188.795.958 1.575 1.375 2.267a40.789 40.789 0 0 0 1.963 2.995c.566.776.92 1.873 1.31 2.75.277.626.546 1.113.645 1.73a.27.27 0 0 1 .047.15zM65.958 284.633c-.233-2.042-1.823-4.156-2.842-5.881-.473-.8-1.024-1.558-1.54-2.33-.292-.433-2.825-3.555-2.267-4.048.27-.238.669.157.397.397.213-.19.295.213.472.502.252.41.517.812.781 1.214.608.926 1.229 1.843 1.846 2.764.501.75.968 1.509 1.429 2.285.899 1.513 2.081 3.316 2.285 5.097.041.359-.52.355-.561 0M68.202 284.913c-.14-2.112-1.636-4.323-2.42-6.283-.48-1.193-1.007-2.339-1.749-3.393-.459-.65-.795-1.314-.88-2.104-.038-.358.523-.355.561 0 .121 1.12 1.03 2.084 1.562 3.028.497.883.856 1.85 1.233 2.788.76 1.893 2.117 3.9 2.254 5.965.023.36-.537.359-.56 0M69.081 281.689a3.597 3.597 0 0 1-.314-1.167c-.082-.865-.652-1.392-.955-2.146-.58-1.438-1.724-2.516-2.125-4.046-.09-.35.45-.498.541-.15.355 1.358 1.277 2.374 1.936 3.58.33.603.642 1.232.96 1.845.31.592.168 1.166.442 1.802.141.327-.342.614-.485.282M70.203 279.445c-.439-.643-.912-1.243-1.223-1.963-.353-.816-.352-1.7-.74-2.525-.153-.324.33-.61.484-.282.274.583.55 1.23.587 1.882.056.984.848 1.832 1.377 2.605.204.3-.282.58-.485.283M41.034 239.618c-.485-1.11-1.555-1.874-2.198-2.9-.757-1.204-1.71-2.238-2.29-3.551-.144-.328.339-.613.485-.282.576 1.302 1.498 2.378 2.289 3.549.67.996 1.713 1.79 2.199 2.9.143.329-.34.615-.485.284M47.025 229.34c-1.63-1.135-2.618-2.848-3.984-4.25-.252-.26.144-.657.397-.397 1.327 1.362 2.287 3.06 3.869 4.164.296.205.015.692-.282.484M74.454 252.296c-1.94-2.28-3.325-4.942-5.092-7.35-.215-.292.273-.571.484-.282 1.74 2.367 3.095 4.992 5.005 7.236.233.273-.162.672-.397.396M78.019 247.89c-.11-1.188-1.096-2.195-1.807-3.074-.6-.743-1.137-1.515-1.521-2.393-.142-.328.34-.614.485-.283.865 1.983 3.197 3.519 3.404 5.75.034.36-.528.358-.561 0M83.067 245.366c-.053-.519-.368-1.04-.662-1.46-.171-.247-.224-.654-.311-.936-.257-.837-.816-1.48-1.232-2.23-.176-.316.308-.6.484-.284.447.805.934 1.51 1.29 2.365.226.546.414 1.054.712 1.576.179.315.244.612.28.97.037.36-.525.355-.561 0M35.105 214.794c-.037.355-.6.36-.56 0 .204-1.888-1.105-3.588-1.926-5.187-.164-.322.32-.606.486-.283.863 1.682 2.217 3.477 2 5.47M40.192 212.412c-.37-.792-.527-1.772-1.01-2.497a26.108 26.108 0 0 1-1.514-2.552c-.164-.321.32-.605.484-.283.406.793.86 1.553 1.347 2.298.553.848.748 1.834 1.177 2.75.153.326-.33.612-.484.284" fill="#12243e"/>
    <path d="M96.163 215.711c-1.752-1.012-3.34-1.113-5.302-1.113-3.411 0-6.828-.064-10.238.031-1.824.05-3.542.64-5.178 1.404-1.394.653-1.532 2.928-1.874 4.192-.838 3.101-.783 6.581-.281 9.781.233 1.477.087 4.025 2.285 4.215 1.39.12 2.809.261 4.203.334 2.625.138 5.207.237 7.846.237 2.378 0 5.122-.149 7.309.982 2.368 1.224 2.817 2.01 3.486 4.227.328-.946.155-2.123.155-3.063v-6.914c0-1.77-.285-3.493-.276-5.259.01-2.144.325-4.193.285-6.332a1.042 1.042 0 0 1-.29-.75c0-.65-1.51-1.615-2.13-1.972m4.542 11.283c.49 2.571.112 5.506.112 8.108 0 2.964.753 8.444-3.663 7.223a1.131 1.131 0 0 1-.824-1.082v-.28c0-.03.007-.057.009-.087-.407-1.374-.634-1.953-1.805-2.786-1.88-1.336-4.73-1.054-6.91-1.054-3.265 0-6.587.126-9.823-.393-1.315-.212-3.263.11-4.475-.602-1.1-.644-1.572-2.063-1.86-3.209-.42-1.667-.562-3.52-.641-5.234-.09-1.942-.497-4.402.022-6.286.693-2.524 1.01-5.812 3.466-7.216 3.17-1.813 6.787-1.742 10.31-1.742 3.479 0 7.894-.79 11.15.68 1.659.746 4.363 2.094 4.722 4.184.182.178.309.424.322.745.133 2.983-.673 6.1-.112 9.031M97.56 253.126c0 2.083-.04 4.66-.903 6.55-1.359 2.972-4.61 4.484-7.702 4.957-1.794.275-3.658-.118-5.448-.26-2.086-.168-4.232-.029-6.324-.029-4.465 0-8.909.373-13.378.373-9.468 0-36.632.374-46.089.374-2.515 0-6.443-1.644-7.72-3.857-.764-1.322-.577-3.224-.525-4.67.072-2.015.017-4.04.017-6.057 0-1.446 2.244-1.446 2.244 0 0 2.96-.388 6.186.07 9.108.265 1.694 3.235 2.476 4.572 2.986 1.977.753 4.864.247 6.952.247 7.208 0 32.175-.374 39.407-.374 6.931 0 13.84-.558 20.774-.346 3.761.115 7.012.768 10.15-1.956 1.58-1.37 1.658-5.017 1.658-7.074 0-1.447 2.244-1.447 2.244 0v.027z" fill="#12243e"/>
    <path d="M97.933 210.96c-.1 1.436-2.344 1.445-2.244 0 .19-2.754 1.222-11.881-.22-14.428-2.254-3.977-7.375-2.596-10.97-3.364-3.131-.67-6.371-.12-9.498.186-1.802.177-3.306-.046-5.116-.052-1.877-.007-3.876-.078-5.796.093-3.486.31-24.895-.374-28.422-.374-3.668 0-7.3.355-10.94.38-3.974.027-8.042.813-11.1 3.552-2.363 2.118-1.546 6.73-1.52 9.53.013 1.448-2.231 1.447-2.244 0-.027-2.95-.522-6.472.877-9.211 1.559-3.054 5.31-4.99 8.548-5.707 1.646-.365 3.724-.325 5.44-.408 1.89-.092 3.705-.381 5.606-.381h7.577c2.5 0 22.769.513 25.242.458 2.324-.052 4.437-.46 6.732-.175 1.903.234 4.092.152 6.004-.036 4.209-.413 8.133.128 12.32.128 3.665 0 6.927 1.284 9.197 4.248 2 2.614.733 12.596.527 15.56" fill="#12243e"/>
    <path d="M12.106 206.204c-.269 2.341-.148 9.884-.353 12.226-.268 3.064-.487 5.986-.199 9.07.284 3.047.34 6.002.332 9.073-.004 1.527-.49 2.932-.422 4.487.083 1.904.081 7.45.081 9.355 0 1.447-2.244 1.447-2.244 0 0-2.664-.682-9.787.04-12.359.794-2.825.452-6.734.089-9.61a38.76 38.76 0 0 1-.055-9.247c.292-2.592.189-10.403.487-12.995.163-1.42 2.409-1.436 2.244 0M97.372 253.22c-.037 1.444-2.28 1.448-2.244 0 .046-1.83.28-3.64.28-5.47 0-1.935-.28-7.475-.28-9.395 0-1.447 2.244-1.447 2.244 0 0 1.664.28 6.967.28 8.652 0 2.08-.228 4.136-.28 6.213M97.624 212.93c-.142.475.189.83.269 1.286.104.602-.152 1.206-.784 1.38-.546.15-1.276-.18-1.38-.784-.041-.238-.158-.448-.251-.673-.12-.29-.143-.704-.146-1.011-.008-.596.329-1.121.357-1.7.07-1.44 2.315-1.446 2.244 0-.027.528-.16 1-.31 1.502M81.482 221.57c-.161.039-.31.04-.447.019-.044.007-.085.018-.131.022-.581.038-1.58.224-2.048.603-.396.32-.496 1.269-.586 1.733-.38 1.964.722 2.918 2.67 3.018.705.036 1.526-.485 1.916-1.056.396-.58 1.138-1.192 1.125-1.933-.02-1.107-1.165-2.718-2.5-2.406m3.633 5.012c-.492.456-.715 1.06-1.267 1.493-.663.519-1.308.879-2.133 1.059-2.96.647-5.793-1.364-5.787-4.376.003-1.246.336-2.867 1.123-3.855.867-1.09 2.526-1.45 3.854-1.537.066-.004.126 0 .187.006 2.286-.387 4.776 1.592 5.06 3.837.178 1.382.008 2.405-1.037 3.373M87.226 264.67c-.507.524-.585 1.639-.833 2.31-.429 1.163-.797 2.872-1.052 4.089-.436 2.079-.54 4.514-2.25 5.976-1.54 1.315-4.433.339-6.152.022-1.476-.272-2.759-.964-4.267-1.168-1.449-.197-2.769-.705-4.207-.952-6.76-1.162-13.314-3.204-20.042-4.492-3.342-.64-6.449-1.697-9.688-2.721-2.599-.821-5.948-2.06-8.678-2.173-1.442-.061-1.448-2.304 0-2.244 2.25.093 4.305.972 6.468 1.512 2.91.728 5.704 1.754 8.568 2.627 6.15 1.874 12.716 2.606 18.92 4.316 2.713.747 5.663 1.304 8.413 1.849 2.648.523 5.18 1.22 7.854 1.65 2.38.383 2.147-1.678 2.477-3.001.355-1.43.788-2.823 1.156-4.238.42-1.612.503-3.687 1.727-4.947 1.01-1.04 2.594.548 1.586 1.586" fill="#12243e"/>
    <path d="M74.219 275.663c-.416.667-.634 2.29-.868 3.097-.321 1.113-.73 2.07-1.225 3.115-.524 1.106-1.707 4.464-3.107 4.795-.74.176-1.24.156-1.945-.227-1.404-.764-2.826-1.043-4.333-1.489-2.581-.763-5.162-1.97-7.638-3.03-5.223-2.237-10.09-5.477-15.068-8.19-2.7-1.47-5.321-3.093-8.02-4.584-1.411-.779-2.761-1.617-4.207-2.34-.771-.385-1.767-1.319-2.536-1.57-1.37-.446-.783-2.613.596-2.163 1.647.537 3.169 1.843 4.756 2.637 2.588 1.294 4.908 3.042 7.573 4.207 2.06.902 4.06 2.523 5.988 3.698 2.388 1.455 4.972 2.624 7.474 3.875 4.555 2.277 8.969 4.583 13.937 5.87.41.105 2.57 1.197 2.8.776.61-1.114 1.22-2.255 1.792-3.396.993-1.979.953-4.382 2.094-6.214.763-1.224 2.705-.099 1.937 1.133" fill="#12243e"/>
    <text style="-inkscape-font-specification:Circe" transform="matrix(1 0 0 -1 0 157.844)" font-weight="700" font-size="16" font-family="Circe" fill="#12243e">
      <tspan y="0" x="0 11.44 19.68 27.92 35.327999 43.375999 52.256001 59.375999 62.768002 70.800003 74.192001 87.295998 101.712">Аккаунт в QMC</tspan>
    </text>
  </g>
  <text style="-inkscape-font-specification:Circe" transform="matrix(1.33333 0 0 1.33333 213.173 171.911)" font-weight="700" font-size="16" font-family="Circe" fill="#12243e">
    <tspan y="0" x="0 5.888 14.144 23.024 31.280001 40.208 47.616001 54.512001 63.504002">Генератор</tspan><tspan y="19.2" x="6.2719998 19.375999 29.903999 33.296001 41.104 49.855999 58.751999">QR кода</tspan><tspan y="0" x="138.416 151.52 158.64 167.44 176.368 183.776 191.808 198.864 205.75999">Отправьте</tspan><tspan y="19.2" x="130.12801 138.368 147.29601 156.384 165.18401 172.08 181.07201 188.48 197.37601 206.304 214.51199">криптоадрес</tspan><tspan y="38.4" x="133.168 141.968 150.96001 159.12 167.168 175.968 183.37601 190.272 198.28799 206.912">покупателю</tspan><tspan y="0" x="273.98401 286.01599 295.008 303.168 311.216 320.01599 327.42401 334.32001 342.336 350.95999">Покупатель</tspan><tspan y="19.2" x="275.45599 284.448 293.24799 301.87201 309.28 317.13599 326.224 334.25601 341.664 349.84">оплачивает</tspan>
  </text>
  <g clip-path="url(#b_4_1)" transform="matrix(1.33333 0 0 -1.33333 0 382.37)">
    <text style="-inkscape-font-specification:Circe" transform="matrix(1 0 0 -1 419.272 119.444)" font-weight="700" font-size="16" font-family="Circe" fill="#12243e">
      <tspan y="0" x="0 8.0319996 11.424 19.664 28.591999 37.68 46.48 53.375999 62.368 70.400002 77.807999 86.431999 98.4944 105.3904">в криптовалюте</tspan>
    </text>
    <path d="M352.003 197.57c-2.539.012-5.069.03-7.519.05-3.367.026-6.588.05-9.496.05-1.179 0-2.308-.005-3.373-.015-.618-.004-1.267-.007-1.944-.007-6.6 0-15.29.24-21.136.582-1.417.083-2.882.094-4.255.094l-1.824-.002c-2.654 0-5.46.044-8.016.555-.23.047-.927.186-.836 1.113.053.549.48 1.417 1.39 1.417.105 0 .214-.01.327-.033 2.63-.527 5.401-.594 7.52-.594 1.016 0 2.035.017 3.051.033.995.019 1.986.035 2.965.035 1.228 0 2.232-.027 3.162-.083 7.25-.441 18.521-.476 21.803-.476 2.62 0 5.676-.023 8.96-.05 2.587-.018 5.316-.04 8.084-.05.312-.897.658-1.785 1.137-2.618" fill="#12243e"/>
    <path d="M296.239 198.786c-.065 0-.135.003-.206.012-.5.062-1.004.106-1.514.15-2.33.202-4.341.376-5.442 2.277-.944 1.63-1.495 3.789-1.593 6.24-.013.369-.008 54.216.15 56.28.079.625.135 1.264.19 1.892.179 2.04.333 3.805 1.354 5.549.97 1.662 2.946 2.404 6.4 2.404l.435-.004c1.2-.018 1.253-1.144 1.25-1.37-.002-.296-.092-1.263-1.181-1.263h-.18c-1.727 0-3.078-.474-4.011-1.41-1.626-1.625-1.621-4.172-1.62-6.633v-5.558c-.008-13.511-.027-49.406-.021-50.058.01-.984.077-2.275.487-3.56.725-2.267 2.88-2.273 3.699-2.273l.823.01c.156 0 .307-.002.446-.02 1.064-.132 1.39-1.125 1.35-1.76-.036-.601-.311-.905-.816-.905M383.467 207.43c-.163 5.036-.548 10.061-.548 15.097 0 .084-.01.16-.024.235-.209 25.073-.298 38.772-.19 39.545.486 3.53.151 6.166-1.056 8.298-1.042 1.844-4.243 2.67-6.952 2.67-.223 0-.44-.006-.646-.017-1.05-.057-1.308-.974-1.293-1.507.01-.34.131-1.13 1.148-1.129h.004c.212.01.417.016.614.016 1.794 0 3.12-.458 4.052-1.399 1.537-1.548 1.518-3.93 1.497-6.235l-.002-.774c0-.566.262-40.3.262-40.3l.044-.025c.025-3.784.262-7.55.456-11.332.095-1.83.143-3.69.104-5.523-.055-2.568-2.554-3.17-4.48-3.974-1.843-.769-3.977-.394-5.93-.416-2.226-.025-4.452-.103-6.677-.14-2.15-.037-4.294.053-6.443.06-2.31.007-4.577-.515-6.884-.585-1.64-.05-1.646-2.6 0-2.55 2.31.07 4.574.53 6.884.584 2.782.064 5.57-.082 8.354-.024 2.46.052 4.93.181 7.39.095 2.287-.079 3.93.504 6.045 1.331 3.73 1.457 4.39 4.31 4.271 8" fill="#12243e"/>
    <path d="M307.49 270.836c-2.312 0-4.14.054-6.075.111-1.577.044-3.186.093-5.103.11-1.19.01-1.244 1.125-1.243 1.35 0 .3.093 1.283 1.2 1.283 1.919-.018 3.512-.063 5.076-.11 1.952-.056 3.796-.11 6.146-.11 1.17 0 1.23-1.098 1.23-1.317 0-.22-.06-1.317-1.23-1.317M373.841 270.396c-2.749.207-9.169.223-11.07.223-1.172 0-1.232 1.096-1.232 1.317 0 .218.06 1.315 1.232 1.315 1.877 0 8.207-.015 10.873-.214 1.081-.082 1.333-1.035 1.312-1.584-.015-.396-.16-1.062-.979-1.062z" fill="#12243e"/>
    <path d="M353.153 270.674c-7.817 0-14.436.09-21.443.182-7.464.1-15.185.201-24.892.201-1.171 0-1.233 1.097-1.233 1.317 0 .22.062 1.316 1.233 1.316 9.689 0 17.399-.102 24.856-.202 7.015-.092 13.643-.18 21.479-.18 3.3 0 6.802.015 10.603.054 1.126 0 1.217-.982 1.218-1.282 0-.224-.055-1.34-1.243-1.35-3.794-.04-7.287-.056-10.578-.056" fill="#12243e"/>
    <path d="M334.373 238.001c-3.368 0-6.947 3.104-10.406 6.106-2.26 1.96-4.394 3.813-6.508 4.838-3.43 1.665-6.679 4.227-9.82 6.707l-.437.342c-1.33 1.051-2.755 1.98-4.132 2.878-1.97 1.286-11.778 8.851-13.373 10.382-.389.374-.492.772-.313 1.217.221.555.822.988 1.367.988.302 0 .58-.125.849-.38 3.119-2.99 14.9-11.71 18.617-14.004 2.687-1.66 5.467-3.376 7.847-5.264 1.31-1.039 2.74-1.998 4.12-2.925 1.096-.737 2.232-1.499 3.276-2.28.542-.409 1.195-.973 1.888-1.57 2.077-1.797 4.433-3.832 6.616-4.21.35-.062.715-.093 1.09-.093 4.964 0 11.19 5.414 14.183 8.016 1.186 1.031 2.447 1.892 3.782 2.802 1.023.7 2.083 1.424 3.11 2.232 1.697 1.341 3.622 2.576 5.661 3.885 3.087 1.985 12.19 9.161 14.67 11.677l.203.208.098.272c.181.506.563.761 1.133.761h.33c.67 0 .978-.372 1.12-.684a1.53 1.53 0 0 0-.252-1.63c-1.628-1.873-9.859-8.458-12.102-9.872-.59-.37-1.172-.738-1.736-1.108-2.379-1.56-4.695-3.277-6.937-4.937-1.495-1.108-2.987-2.215-4.506-3.28-1.514-1.066-3.023-2.27-4.482-3.437-4.424-3.532-8.997-7.185-14.542-7.62a4.759 4.759 0 0 0-.414-.017M297.714 211.244c-.597 0-1.23.444-1.448 1.013-.508 1.326 7.864 7.2 8.913 7.945.973.69 1.952 1.377 2.93 2.063 3.271 2.297 6.655 4.67 9.835 7.16.28.217.582.328.902.328.742 0 1.39-.551 1.566-1.062.08-.23.11-.543-.367-.916-3.519-2.754-7.026-5.232-10.74-7.855l-1.755-1.24c-2.238-1.587-4.78-3.43-6.622-5.241l-.333-.333c-.543-.546-1.105-1.11-1.673-1.443a1.286 1.286 0 0 0-.29-.118l-.154-.045-.139-.081a1.2 1.2 0 0 0-.625-.175M369.834 211.244c.598 0 1.232.444 1.448 1.013.51 1.326-7.863 7.2-8.912 7.945a856.05 856.05 0 0 1-2.929 2.063c-3.271 2.297-6.656 4.67-9.836 7.16a1.45 1.45 0 0 1-.901.328c-.742 0-1.39-.551-1.566-1.062-.08-.23-.111-.543.367-.916 3.518-2.754 7.026-5.232 10.74-7.855l1.755-1.24c2.238-1.587 4.78-3.43 6.62-5.241l.335-.333c.543-.546 1.105-1.11 1.672-1.443.075-.044.172-.083.29-.118l.154-.045.14-.081c.199-.118.404-.175.624-.175M448.426 271.169c.975-22.143 1.41-44.303 1.308-66.467-.002-.51.38-1.07.897-1.18l2.627-.557c1.535-.325 2.191 2.032.65 2.359-3.202.679-1.714 10.988-1.732 14.044-.033 5.867-.105 11.733-.217 17.599a1368.916 1368.916 0 0 1-1.088 34.202c-.069 1.567-2.514 1.576-2.445 0" fill="#12243e"/>
    <path d="M449.89 270.758c2.903.295 5.808.397 8.725.308 1.574-.048 1.573 2.398 0 2.445a66.02 66.02 0 0 1-8.725-.308c-1.55-.157-1.567-2.605 0-2.445" fill="#12243e"/>
    <path d="M459.978 272.444c.297 2.774-.156 6.998 2.869 8.289l1.82.072c1.308.66 1.901.429 1.78-.7.601-.89.434-3.025.598-4.165.558-3.882.381-5.09 4.277-5.244 2.81-.11 3.452.106 3.935 2.857.572 3.252-.273 6.783 3.642 7.759 2.546.635 1.979-.23 2.801-1.697.931-1.667.637-4.595.877-6.478.195-1.54 2.643-1.56 2.445 0-.301 2.366-.065 8.008-1.604 9.78-1.284 1.48-3.586.898-5.384.807-1.548-.078-3.133.036-4.062-1.343-1.583-2.35.84-8.45-2.65-9.24-2.924-.661-1.663 7.403-2.868 9.088-.959 1.34-2.154 1.06-3.787 1.02-1.738-.04-4.349.347-5.702-1.032-1.714-1.747-1.191-7.512-1.432-9.773-.167-1.563 2.279-1.551 2.445 0" fill="#12243e"/>
    <path d="M483.42 271.713c4.263-1.796 8.627-3.797 10.353-8.443 1.545-4.163.873-12.639-3.656-14.923-1.405-.709-.169-2.819 1.235-2.112 5.081 2.563 6.23 10.476 5.372 15.57-1.144 6.783-6.833 9.814-12.655 12.266-1.448.61-2.08-1.755-.649-2.358" fill="#12243e"/>
    <path d="M489.775 247.751l-1.247-.81c-.346-.226-.746-.43-1.027-.734a1.419 1.419 0 0 1-.198-1.675c.406-.692 1.165-.74 1.832-.458.609.258.743 1.155.44 1.673-.37.63-1.063.697-1.673.44-.026-.013-.052-.023-.078-.034h1.234l-.082.052.562-.73-.032.097v-.65l.038.095-.315-.54c-.194-.205.156.107.222.15l.545.354c.338.22.675.44 1.013.658.553.36.784 1.084.439 1.673-.322.55-1.117.8-1.673.44" fill="#12243e"/>
    <path d="M488.51 243.542c6.45-.681 10.676-2.86 13.794-8.698 2.595-4.86 4.4-10.405 3.555-15.956-.74-4.856-3.468-9.347-7.548-12.14-4.649-3.181-10.108-2.955-15.474-2.593-1.57.106-1.564-2.34 0-2.445 6.527-.44 12.795-.328 18.09 3.957 4.18 3.382 6.931 8.43 7.493 13.774.697 6.624-1.83 13.71-5.485 19.178-3.546 5.307-8.29 6.72-14.425 7.368-1.562.165-1.55-2.281 0-2.445" fill="#12243e"/>
    <path d="M453.002 202.886c.079-.04 2.108-.734 2.175-.815.773-.947-.247-6.606-.297-7.925-.025-.7.584-1.17 1.223-1.223 3.368-.279 7.816-1.55 8.826 2.492.455 1.822-.208 7.431 3.195 6.222 2.11-.75.55-6.806.886-8.765.073-.428.476-.722.854-.854 2.02-.706 8.348-1.569 10.058-.024 2.366 2.14.729 8.101 1.708 10.88l-1.504-.855c1.456-.458 1.539-.417 3.04-.172 1.55.252.893 2.61-.65 2.358l-1.741.172c-.662.21-1.291-.248-1.503-.854-.81-2.295-.32-4.293-.844-6.552-.445-1.91-.346-2.517-2.707-3.008-1.958-.407-3.66.03-4.33 2.213-.771 2.521 1.504 6.168-1.288 7.722-1.31.73-5.446.743-6.61-.464-.971-1.009-.59-2.84-.82-4.054-.248-1.302-.397-3.575-1.953-4.235-.898-.38-3.666.144-4.617.223l1.222-1.222c.073 1.91 1.183 7.518.083 9.221-.8 1.238-1.968 1.03-3.172 1.631-1.404.701-2.644-1.408-1.234-2.112" fill="#12243e"/>
    <path d="M454.515 202.557c1.573 0 1.576 2.445 0 2.445-1.573 0-1.576-2.445 0-2.445M461.585 260.99c3.53.975 9.828 1.627 13.321.066 7.455-3.332 1.457-9.663-3.444-10.453-1.64-.264-3.3-.215-4.955-.228-.603-.006-4.314-.508-4.552-.346-.525.358.036 5.247.065 5.972.078 1.991.226 3.974.403 5.958.14 1.567-2.307 1.557-2.445 0-.33-3.698-1.148-8.254-.468-11.93.247-1.332.526-1.769 1.828-2.112 2.653-.699 6.93-.124 9.654.151 2.512.254 4.946.95 6.832 2.711 2.785 2.6 4.987 8.54 1.338 11.373-1.98 1.54-5.069 1.515-7.445 1.792-3.674.43-7.207.391-10.782-.597-1.515-.419-.872-2.778.65-2.358M463.4 236.25c7.413 1.084 14.995.22 21.85-2.884 4.202-1.903 8.789-5.192 7.34-10.484-1.228-4.487-5.722-6.712-9.942-7.434-3.345-.572-6.74-.36-10.117-.265-2.573.072-8.89-.794-10.391 1.22-1.513 2.03-.2 7.703-.07 10.226l.569 11.145c.08 1.573-2.364 1.569-2.445 0-.316-6.191-.673-12.381-.95-18.574-.115-2.6-.416-4.978 2.295-6.07 1.895-.762 4.989-.221 7.053-.28 3.079-.088 6.167-.257 9.247-.23 4.407.04 8.946.63 12.598 3.3 5.902 4.317 6.53 12.42.62 16.939-7.755 5.928-18.963 7.115-28.306 5.749-1.552-.227-.893-2.584.649-2.358" fill="#12243e"/>
    <path d="M462.495 236.374c1.574 0 1.576 2.445 0 2.445-1.573 0-1.576-2.445 0-2.445M463.35 278.012a32.35 32.35 0 0 1-5.103-4.223c-.293-.3.167-.76.462-.462a31.444 31.444 0 0 0 4.97 4.122c.347.232.021.797-.329.563M454.308 271.033c-1.987-.645-3.604-1.963-4.692-3.741-.22-.36.343-.687.563-.33 1 1.633 2.478 2.85 4.303 3.442.397.129.227.759-.174.629M452.837 265.791c-.866-.251-1.562-.802-2.035-1.567-.222-.358.343-.685.563-.329a2.836 2.836 0 0 0 1.646 1.268c.402.116.23.746-.174.628M454.304 262.8c-1.357-.295-2.57-.905-3.645-1.782-.326-.266.138-.725.461-.462a7.897 7.897 0 0 0 3.358 1.615c.41.09.236.718-.174.63M452.631 256.112a4.03 4.03 0 0 1-1.34-1.729c-.162-.387.47-.556.628-.174a3.22 3.22 0 0 0 1.041 1.34c.333.248.008.814-.329.563M453.83 210.088a8.638 8.638 0 0 0-1.11-1.634c-.275-.315.185-.779.46-.46a9.313 9.313 0 0 1 1.213 1.765c.197.371-.366.701-.562.33M457.822 207.458c-.567.048-1.05-.242-1.324-.73-.206-.367.357-.696.563-.33.17.304.419.437.76.408.42-.035.417.617 0 .652M458.903 200.339c-1.1-.747-1.896-1.77-2.394-3-.157-.39.474-.558.629-.173a5.732 5.732 0 0 0 2.094 2.61c.346.234.02.8-.33.563M461.2 197.681a57.631 57.631 0 0 1-3.38-3.12c-.297-.297.164-.758.46-.462a57.622 57.622 0 0 0 3.38 3.121c.32.273-.142.732-.46.461M462.319 195.081c.419 0 .42.652 0 .652s-.421-.652 0-.652M466.78 205.907a7.315 7.315 0 0 0-1.116-1.761c-.274-.316.186-.78.46-.461a7.866 7.866 0 0 1 1.219 1.893c.173.379-.388.71-.562.329M470.735 205.344c-.35-.239-.697-.479-1.046-.718-.344-.237-.017-.802.329-.563l1.046.718c.344.236.018.801-.33.563M453.384 206.784a39.719 39.719 0 0 1-3.45-2.513c-.326-.265.137-.724.461-.462a38.287 38.287 0 0 0 3.318 2.412c.351.228.024.792-.329.563M473.75 201.186a17.583 17.583 0 0 1-2.695-2.593c-.269-.32.19-.783.461-.462.806.96 1.704 1.826 2.695 2.594.331.256-.134.715-.46.461M475.253 198.05a20.518 20.518 0 0 1-5.35-4.377c-.275-.315.184-.778.46-.46a19.98 19.98 0 0 0 5.22 4.273c.364.207.036.771-.33.563M477.084 195.714a29.398 29.398 0 0 1-2.938-2.198c-.32-.272.142-.732.46-.461a28.2 28.2 0 0 0 2.807 2.096c.35.229.024.794-.329.563" fill="#12243e"/>
    <path d="M456.394 206.529l-1.944-2.133c-.283-.31.177-.772.461-.461l1.945 2.133c.282.31-.178.772-.462.46M458.086 203.545a1.263 1.263 0 0 1-.893-.372c-.305-.288.157-.75.462-.461a.493.493 0 0 0 .431.18c.42.01.42.664 0 .653M484.771 205.316l-.793-.558c-.341-.24-.016-.805.329-.563l.793.558c.341.24.016.805-.329.563M490.14 205.768c-.442-.069-.77-.324-.99-.708-.208-.365.355-.693.563-.329.144.252.316.364.6.41.412.063.237.691-.174.627M494.635 205.534l-.929-.974c-.289-.304.171-.766.461-.461l.93.974c.29.303-.172.765-.462.46M464.665 241.186a30.384 30.384 0 0 1-2.505-1.687c-.332-.249-.008-.815.329-.563a30.384 30.384 0 0 0 2.505 1.687c.358.216.03.78-.33.563M468.845 240.376a2.889 2.889 0 0 1-1.337-.779c-.296-.298.165-.759.461-.46.304.305.632.5 1.05.61.404.108.232.737-.174.63M475.498 240.233l-.527-.284c-.369-.198-.04-.762.33-.563l.527.284c.37.199.04.762-.33.563M479.875 238.953l-.793-.42c-.371-.197-.042-.76.329-.563l.793.42c.37.197.042.76-.33.563M484.209 237.517a2.53 2.53 0 0 1-1.127-.824c-.254-.328.204-.793.46-.46.229.293.489.518.84.656.387.15.219.781-.173.628M489.149 234.877l-1.874-1.218c-.351-.227-.024-.792.329-.563l1.874 1.218c.35.228.025.793-.33.563M493.103 232.25a2.798 2.798 0 0 1-.992-.749c-.272-.317.188-.78.461-.461.246.288.514.491.86.647.382.172.051.734-.329.563M459.84 273.365l-.397-.418c-.29-.305.171-.767.46-.46l.398.417c.288.305-.172.767-.462.461M476.32 278.696a4.01 4.01 0 0 1-1.536-2.252c-.108-.406.52-.579.629-.173.198.75.607 1.401 1.236 1.862.336.245.01.811-.33.563M475.58 275.317l-2.248-2.512c-.28-.31.18-.774.46-.46l2.25 2.511c.279.312-.181.774-.461.461M463.733 264.644a4.421 4.421 0 0 1-1.821-1.814c-.2-.369.362-.699.563-.33a3.787 3.787 0 0 0 1.587 1.581c.37.196.042.759-.33.563M471.276 264.074l-1.058-.698c-.35-.23-.022-.796.329-.563l1.058.698c.349.23.023.795-.33.563M468.172 265.272l-.794-.837c-.288-.305.172-.767.461-.461l.794.837c.288.305-.172.767-.46.46" fill="#12243e"/>
    <path d="M472.737 264.9a3.046 3.046 0 0 1-1.048-.948c-.243-.343.32-.669.563-.329.218.307.483.533.814.714.368.201.039.764-.33.563M476.172 264.209a2.576 2.576 0 0 1-1.04-.958c-.226-.355.34-.683.562-.329.207.325.463.553.807.724.376.187.046.75-.329.563M480.074 262.483l-1.354-1.073c-.328-.261.136-.72.462-.461l1.353 1.073c.329.26-.136.719-.461.46M490.92 263.597l-1.322-1.117c-.322-.27.142-.73.461-.46l1.322 1.116c.321.271-.142.73-.46.461M490.264 261.19l-.792-.285c-.392-.14-.223-.77.174-.629l.791.285c.392.141.223.772-.173.63M490.97 259.76a2.022 2.022 0 0 1-1.574-.292c-.35-.23-.024-.795.33-.563.332.219.674.307 1.07.226.41-.083.585.546.174.629M501.176 220.185l-.526-1.675c-.126-.402.503-.574.63-.174l.525 1.676c.126.401-.503.572-.629.173M501.58 218.555l-.713-2.261c-.127-.401.503-.572.629-.173l.713 2.26c.127.402-.502.573-.628.174" fill="#12243e"/>
    <path d="M502.34 217.986a23.414 23.414 0 0 1-1.754-5.04c-.092-.409.537-.584.63-.173a22.642 22.642 0 0 0 1.686 4.884c.181.376-.38.707-.563.33M453.888 211.407l-.529-.56c-.288-.303.172-.765.461-.46.176.187.352.373.53.559.288.304-.173.766-.462.46M151.283 265.948l.448-7.947c.132-2.348-.285-5.726.448-7.948.47-1.433.53-1.673 2.046-2.11 3.18-.916 8.02-.14 11.373-.182 3.896-.048 8.324-.712 12.146.062.414.084.738.465.852.853.682 2.313.029 5.134-.106 7.524l-.513 9.08c-.22 3.905.848 6.9-3.32 7.497-6.368.91-14.328 1.406-20.68.379-3.615-.585-3.172-2.795-3.385-5.916-.108-1.568 2.333-1.562 2.44 0 .123 1.798-.471 2.467 1.416 3.517 1.057.588 3.656.124 4.815.14a153.4 153.4 0 0 0 10.594-.216c4.485-.246 5.426-.908 5.679-5.4l.564-9.99c.05-.866.549-3.315.227-4.01-.74-1.591-2.953-1.176-4.283-1.16l-10.128.127c-1.453.018-3.216-.282-4.604.057-2.557.626-2.493 1.58-2.917 3.722-.744 3.762-.455 8.093-.671 11.92-.088 1.563-2.53 1.573-2.441 0M210.653 265.948L211.1 258c.132-2.348-.285-5.726.447-7.948.472-1.433.53-1.673 2.047-2.11 3.18-.916 8.02-.14 11.373-.182 3.895-.048 8.324-.712 12.146.062.414.084.738.465.852.853.68 2.313.029 5.134-.106 7.524l-.513 9.08c-.22 3.905.848 6.9-3.321 7.497-6.367.91-14.328 1.406-20.68.379-3.614-.585-3.171-2.795-3.385-5.916-.107-1.568 2.334-1.562 2.44 0 .124 1.798-.47 2.467 1.417 3.517 1.057.588 3.656.124 4.815.14 3.532.05 7.065-.022 10.593-.216 4.486-.246 5.427-.908 5.68-5.4l.564-9.99c.049-.866.549-3.315.226-4.01-.738-1.591-2.952-1.176-4.282-1.16l-10.13.127c-1.451.018-3.214-.282-4.602.057-2.557.626-2.493 1.58-2.917 3.722-.744 3.762-.456 8.093-.671 11.92-.088 1.563-2.53 1.573-2.441 0M152.414 214.96l.448-7.948c.132-2.348-.285-5.725.448-7.948.47-1.432.53-1.673 2.046-2.11 3.18-.916 8.02-.14 11.373-.18 3.896-.05 8.324-.714 12.146.061.414.084.738.464.852.853.682 2.313.029 5.133-.106 7.523l-.513 9.081c-.22 3.905.848 6.9-3.32 7.496-6.368.912-14.328 1.407-20.68.38-3.615-.586-3.172-2.796-3.385-5.917-.108-1.568 2.333-1.56 2.44 0 .123 1.798-.471 2.467 1.416 3.518 1.057.588 3.656.124 4.815.14 3.533.05 7.066-.023 10.594-.217 4.485-.246 5.426-.907 5.679-5.4l.564-9.989c.05-.866.549-3.315.227-4.01-.74-1.592-2.953-1.176-4.283-1.16l-10.128.126c-1.453.018-3.216-.28-4.604.058-2.557.625-2.493 1.58-2.917 3.721-.744 3.762-.455 8.094-.671 11.921-.088 1.562-2.53 1.572-2.441 0" fill="#12243e"/>
    <path d="M155.7 247.228c.35-.907.63-1.83.712-2.804.062-.727-.056-1.452.093-2.168.083-.406.462-.749.852-.853 1.076-.286 2.315-.046 3.401.113 1.323.193 2.382.174 3.7.066.394-.032.88.25 1.053.605.86 1.758.567 4.449.492 6.355-.06 1.566-2.502 1.574-2.44 0 .035-.918.048-1.833.013-2.751-.023-.636.108-1.799-.172-2.372l1.053.604c-.993.082-1.805.228-2.827.087-1.067-.148-2.559-.636-3.624-.353l.852-.852c-.152.732.01 1.611-.105 2.377a12.082 12.082 0 0 1-.699 2.595c-.56 1.45-2.92.82-2.354-.649" fill="#12243e"/>
    <path d="M163.595 242.384c-.056-6.967-.2-13.931-.432-20.894-.052-1.571 2.389-1.57 2.44 0a822.32 822.32 0 0 1 .432 20.894c.013 1.57-2.427 1.573-2.44 0" fill="#12243e"/>
    <path d="M164.862 229.76a97.748 97.748 0 0 1 18-.657c1.562.087 1.573 2.529 0 2.44a97.748 97.748 0 0 0-18 .659c-1.553.2-1.54-2.242 0-2.441M165.529 238.813c6.065.07 12.127-.001 18.189-.215 1.57-.057 1.569 2.384 0 2.44-6.062.213-12.124.285-18.19.215-1.568-.018-1.573-2.458 0-2.44" fill="#12243e"/>
    <path d="M182.473 239.263a79.537 79.537 0 0 0-.464-8.15c-.169-1.559 2.273-1.547 2.441 0 .294 2.71.45 5.424.464 8.15.01 1.571-2.432 1.573-2.44 0M178.064 262.993c4.583.23 9.168.353 13.757.372 1.57.006 1.574 2.447 0 2.44a299.119 299.119 0 0 1-13.757-.372c-1.563-.078-1.572-2.519 0-2.44M196.345 270.863l17.245.215c1.57.02 1.573 2.46 0 2.44l-17.245-.214c-1.57-.02-1.574-2.461 0-2.441" fill="#12243e"/>
    <path d="M193.33 272.188c-.762-3.345-.934-6.503-1.089-9.944-.07-1.571 2.37-1.567 2.441 0 .144 3.192.294 6.186 1.002 9.295.348 1.529-2.005 2.183-2.354.649" fill="#12243e"/>
    <path d="M191.943 261.742c.13-.756.257-1.512.386-2.269.463-.862.104-1.062-1.075-.596-1.283-.275-3.08.14-4.406.178-3.149.09-6.298.088-9.448.024-1.569-.032-1.574-2.473 0-2.44 2.73.055 5.46.066 8.19.007 2.227-.048 5.347-.766 7.537-.26 2.908.67 1.527 3.906 1.17 6.005-.264 1.545-2.616.89-2.354-.649" fill="#12243e"/>
    <path d="M193.99 263.144l17.149.495c1.568.046 1.574 2.486 0 2.441l-17.15-.495c-1.566-.045-1.573-2.486 0-2.441M177.497 219.078c3.482-.045 7.405.418 10.837-.139l.245.593a33.91 33.91 0 0 1-.052-1.315 28.635 28.635 0 0 1 .014-2.193c.044-.847.66-3.199.448-3.744l.853.852c-1.648-.368-3.712.074-5.39.15l-5.442.242c-1.571.07-1.567-2.37 0-2.44l5.897-.264c1.505-.068 3.365-.412 4.86-.188 2.787.417 1.31 3.506 1.215 5.392-.09 1.765.839 4.627-1.338 5.3-1.494.461-3.7.086-5.251.106-2.298.03-4.597.06-6.896.088-1.571.021-1.572-2.42 0-2.44" fill="#12243e"/>
    <path d="M188.919 210.91l.29-10.242c.053-1.84-.213-3.469 1.873-3.859 2.812-.525 6.58-.464 9.404-.004 1.472.24 2.355.973 2.078 2.537-.275 1.544-2.627.89-2.354-.649-.157.883-.593.481-1.496.441a63.52 63.52 0 0 0-2.545-.064c-1.644-.007-3.631-.205-5.216.274l.853-.853c-.577 1.864-.216 4.33-.272 6.273l-.174 6.145c-.045 1.567-2.486 1.574-2.441 0" fill="#12243e"/>
    <path d="M189.56 219.431c2.397-.032 4.791-.104 7.184-.255 3.58-.227 3.471-1.806 3.427-5.103a1062.45 1062.45 0 0 0-.33-15.563c-.044-1.572 2.397-1.57 2.441 0 .113 4.034.21 8.068.277 12.104.043 2.52 1.038 7.12-.04 9.308-.527 1.071-.69 1.01-1.796 1.382-3.147 1.056-7.906.524-11.163.568-1.57.02-1.572-2.42 0-2.44M211.108 249.142c.533-2.892.893-5.8 1-8.74.08-2.134-.393-4.536.129-6.59a1.22 1.22 0 0 1 .852-.852c2.43-.647 5.363-.313 7.865-.311 1.486.002 4.133-.6 5.074.919.916 1.478-.48 3.978-.795 5.502-.69 3.33-.841 6.693-.636 10.08.095 1.569-2.345 1.563-2.44 0-.186-3.05-.076-6.084.419-9.102.21-1.281 1.305-3.663 1.118-4.84-.103-.65.038-.312-.982-.107-.854.173-2.077-.013-2.93-.008-.96.005-3.932-.452-4.687.087-1.045.747-.495 3.469-.53 4.652-.093 3.35-.497 6.666-1.103 9.959-.285 1.542-2.637.889-2.354-.65" fill="#12243e"/>
    <path d="M212.083 235.022c-3.587-.04-7.976.524-11.45-.414a1.216 1.216 0 0 1-.853-.852c-.502-2.043 0-4.42.116-6.52.116-2.063-.255-5.034.418-7.015.337-.992.739-1.147 1.71-1.328 2.284-.426 5.527.29 7.856.412 1.309.069 4.39-.33 5.523.49 1.085.788.738 1.869.667 3.034-.268 4.444 1.06 8.634-1.256 12.737-.772 1.368-2.881.139-2.107-1.231 1.158-2.052 1.235-4.167 1.103-6.463-.054-.936-.162-1.87-.193-2.807-.007-.197.192-3.303.15-3.347-.038-.038-1.867.134-2.204.116-.935-.05-1.87-.098-2.806-.147-2.073-.108-4.799-.717-6.824-.314l.853-.852c-.605 1.774-.314 4.295-.418 6.159-.108 1.937-.696 4.549-.234 6.427l-.852-.852c3.252.877 7.436.289 10.801.326 1.57.018 1.574 2.459 0 2.44" fill="#12243e"/>
    <path d="M214.912 218.7c4.928.104 9.859.265 14.788.301 1.274.01 4.299.4 5.493-.069 1.573-.616 3.297-4.862 2.19-6.48-1.42-2.076-10.087-.814-12.617-.793-1.706.014-6.296-.753-7.73.09-3.058 1.8-1.632 6.39-.98 8.938.39 1.522-1.963 2.172-2.353.65-.73-2.846-2.602-10.713 1.24-11.976 3.464-1.139 9.055-.142 12.72-.162 3.458-.019 7.979-.792 11.309.14.39.108.767.441.853.851.416 1.996.19 6.863-.421 8.847-.383 1.243-.41 1.422-1.573 2.018-2.357 1.207-7.36.4-9.963.36-4.32-.068-8.638-.183-12.956-.276-1.568-.033-1.574-2.474 0-2.44M211.615 250.433c-6.032-.1-12.064-.19-18.096-.283-1.569-.025-1.573-2.465 0-2.441 6.032.094 12.064.184 18.096.284 1.57.025 1.574 2.466 0 2.44" fill="#12243e"/>
    <path d="M191.416 248.7c.298-2.794.643-5.59.883-8.39.201-2.344-.337-5.005.111-7.26.081-.407.465-.746.852-.852 2.32-.635 5.211-.298 7.603-.294 1.57.002 1.573 2.442 0 2.44-1.303-.001-4.014-.484-5.231.087-.982.462-.65.336-.722 1.512-.056.905 0 1.82-.051 2.73-.188 3.348-.649 6.693-1.004 10.027-.165 1.546-2.608 1.562-2.441 0M160.724 264.852c2.769.131 5.553.002 8.293-.385.06-.009.126-.019.17-.058.065-.054.069-.143.068-.223l-.071-8.48c-.001-.171-.012-.363-.148-.479-.136-.116-.344-.111-.53-.096-2.557.206-5.12 1.01-7.641.558-.142-.025-.292-.054-.43-.011-.277.088-.355.41-.384.679-.31 2.849-.097 5.721.116 8.577.04.077.195-.021.13-.083" fill="#12243e"/>
    <path d="M160.724 263.631c2.476.097 5.755.405 8.14-.399l-.852.852c.289-.972.002-2.356-.006-3.368-.01-1.027-.017-2.056-.026-3.084-.001-.11-.005-1.927-.016-1.927.18.216.362.431.543.646l-.698.07c-.92.32-2.161.33-3.137.454-.933.118-1.84.113-2.773.147-.318.012-.52-.11-.695.048-.155.14-.068 1.205-.075 1.427-.064 2.15.099 4.296.258 6.437l-1.22-1.22.104.01c-.392.3-.784.597-1.176.896l.025-.094c.423-1.51 2.779-.869 2.354.65l-.026.093c-.133.473-.65.948-1.177.896-.035-.004-.07-.008-.104-.01-.696-.07-1.168-.506-1.221-1.22-.158-2.142-.322-4.289-.258-6.438.035-1.18-.17-3.209 1.132-3.873.587-.3 1.274-.115 1.897-.067 1.24.094 2.446-.048 3.675-.23 1.2-.178 3.144-.89 4.26-.154 1.077.711.76 2.376.769 3.46.017 2.105.444 4.655.032 6.715-.27 1.354-1.374 1.345-2.56 1.481-2.383.275-4.773.336-7.17.243-1.564-.06-1.572-2.502 0-2.44M220.941 264.852c2.77.131 5.553.002 8.293-.385.061-.009.126-.019.172-.058.063-.054.067-.143.066-.223l-.07-8.48c-.002-.171-.012-.363-.149-.479-.136-.116-.344-.111-.528-.096-2.559.206-5.122 1.01-7.643.558-.142-.025-.292-.054-.429-.011-.278.088-.356.41-.385.679-.309 2.849-.097 5.721.116 8.577.04.077.195-.021.131-.083" fill="#12243e"/>
    <path d="M220.941 263.631c2.476.097 5.755.405 8.14-.399l-.852.852c.29-.972.003-2.356-.006-3.368l-.026-3.084c0-.11-.005-1.927-.016-1.927l.544.646-.699.07c-.92.32-2.16.33-3.137.454-.933.118-1.839.113-2.773.147-.318.012-.519-.11-.695.048-.155.14-.068 1.205-.075 1.427-.064 2.15.1 4.296.26 6.437l-1.222-1.22.104.01c-.392.3-.784.597-1.176.896l.026-.094c.423-1.51 2.778-.869 2.353.65l-.026.093c-.132.473-.65.948-1.177.896a3.315 3.315 0 0 0-.104-.01c-.695-.07-1.168-.506-1.22-1.22-.159-2.142-.322-4.289-.259-6.438.035-1.18-.168-3.209 1.132-3.873.588-.3 1.274-.115 1.897-.067 1.241.094 2.446-.048 3.675-.23 1.2-.178 3.144-.89 4.26-.154 1.078.711.76 2.376.77 3.46.017 2.105.443 4.655.032 6.715-.27 1.354-1.374 1.345-2.56 1.481-2.384.275-4.773.336-7.17.243-1.565-.06-1.573-2.502 0-2.44M162.004 213.517c2.77.132 5.553.002 8.294-.385.06-.009.125-.019.17-.058.064-.054.068-.143.067-.223l-.07-8.48c-.002-.17-.012-.363-.148-.479-.137-.116-.345-.11-.53-.096-2.558.206-5.121 1.01-7.642.558-.142-.025-.292-.054-.43-.01-.277.087-.355.41-.384.68-.31 2.847-.097 5.72.116 8.575.04.077.195-.02.13-.083" fill="#12243e"/>
    <path d="M162.004 212.297c2.476.096 5.755.404 8.14-.4l-.852.853c.29-.972.003-2.357-.006-3.368-.01-1.028-.017-2.056-.026-3.084-.001-.111-.005-1.927-.015-1.927l.543.646-.698.069c-.921.32-2.162.33-3.138.454-.933.118-1.84.114-2.773.148-.318.01-.52-.111-.695.047-.155.14-.068 1.205-.075 1.428-.064 2.148.1 4.296.259 6.436-.408-.406-.814-.813-1.221-1.22l.104.01-1.176.896.026-.093c.423-1.511 2.778-.87 2.353.648l-.026.094c-.132.474-.65.949-1.177.896l-.104-.011c-.695-.07-1.168-.504-1.22-1.22-.16-2.14-.322-4.288-.26-6.436.037-1.181-.167-3.21 1.133-3.873.588-.3 1.274-.115 1.897-.068 1.24.095 2.446-.048 3.675-.23 1.2-.178 3.144-.89 4.26-.153 1.078.71.76 2.376.769 3.459.018 2.106.444 4.655.033 6.716-.271 1.354-1.374 1.344-2.56 1.48-2.384.276-4.773.337-7.17.243-1.565-.061-1.573-2.502 0-2.44M181.068 263.765a15.267 15.267 0 0 1-2.903-2.769c-.26-.324.198-.787.46-.46a14.715 14.715 0 0 0 2.772 2.667c.333.246.01.811-.329.562M186.173 263.774a72.319 72.319 0 0 0-7.524-5.713c-.349-.23-.023-.794.328-.562a73.642 73.642 0 0 1 7.656 5.815c.317.275-.145.733-.46.46M191.416 263.982c-1.233-.805-2.31-1.762-3.205-2.937-.515-.677-.982-1.302-1.699-1.784-.547-.367-1.105-.654-1.589-1.109-.305-.288.156-.747.461-.46.903.85 2.03 1.241 2.812 2.242 1.068 1.368 2.079 2.527 3.548 3.486.35.228.024.791-.328.562M193.525 261.691c-.835-.06-1.434-.526-1.951-1.16-.67-.824-1.268-1.717-1.895-2.574-.248-.339.317-.664.562-.329.477.652.952 1.307 1.43 1.958.472.638.99 1.392 1.854 1.454.415.03.418.681 0 .651M199.812 271.9a41.433 41.433 0 0 1-6.512-6.618c-.255-.326.202-.79.461-.46a41.385 41.385 0 0 0 6.511 6.619c.325.264-.138.722-.46.46M203.199 271.13a170.527 170.527 0 0 1-6.038-6.79c-.268-.319.19-.782.46-.46a171.231 171.231 0 0 0 6.038 6.79c.287.305-.172.766-.46.46M208.517 271.171a78.408 78.408 0 0 0-6.722-6.687c-.314-.278.148-.737.461-.46a78.54 78.54 0 0 1 6.721 6.687c.278.312-.18.773-.46.46M211.243 269.06a29.426 29.426 0 0 1-2.693-2.987c-.255-.326.202-.789.461-.46a29.416 29.416 0 0 0 2.692 2.986c.302.292-.159.752-.46.46M160.945 248.41c-1.532-.63-2.898-1.516-4.062-2.698-.294-.3.166-.76.46-.461a11.264 11.264 0 0 0 3.775 2.53c.382.158.215.788-.173.629M163.499 247.955a42.679 42.679 0 0 0-6.468-4.736c-.359-.215-.032-.778.329-.562a43.548 43.548 0 0 1 6.599 4.838c.314.279-.148.738-.46.46M169.746 239.199a36.387 36.387 0 0 1-5.167-3.298c-.328-.251-.004-.816.329-.562a36.33 36.33 0 0 0 5.167 3.298c.37.195.042.757-.33.562M174.751 239.283c-3.896-1.467-7.448-3.913-11.037-5.997-.36-.21-.034-.773.33-.562 3.525 2.048 7.053 4.49 10.88 5.93.39.148.22.777-.173.629M178.25 239.172a100.867 100.867 0 0 0-12.204-7.872c-.367-.2-.039-.763.33-.562a100.934 100.934 0 0 1 12.202 7.872c.331.25.007.814-.328.562M182.573 238.873c-2.9-2.864-6.571-4.962-8.778-8.475-.224-.356.339-.683.562-.328 2.173 3.457 5.822 5.523 8.676 8.343.299.293-.161.753-.46.46M182.638 234.499a62.754 62.754 0 0 0-3.839-4c-.304-.29.156-.75.46-.461a62.495 62.495 0 0 1 3.84 4c.274.314-.184.775-.46.46M198.82 248.482a64.707 64.707 0 0 1-6.234-5.438c-.298-.296.162-.756.46-.46a63.425 63.425 0 0 0 6.104 5.336c.328.251.004.817-.33.562M203.378 248.706a171.87 171.87 0 0 1-11.164-8.965c-.315-.277.146-.736.46-.46a169.82 169.82 0 0 0 11.033 8.862c.333.246.009.811-.33.562M207.57 248.337a171.975 171.975 0 0 1-13.88-11.251c-.313-.281.15-.74.46-.46a170.368 170.368 0 0 0 13.748 11.149c.336.244.011.809-.328.562M212.29 248.857A94.359 94.359 0 0 0 196.1 234.31c-.339-.24-.015-.806.328-.562 5.995 4.26 11.453 9.131 16.32 14.65.276.312-.182.773-.46.46M211.835 244.06a89.687 89.687 0 0 1-4.813-4.539c-1.609-1.64-3.217-4.228-5.395-5.096-.385-.154-.217-.783.172-.628 1.999.797 3.227 2.688 4.667 4.21a88.423 88.423 0 0 0 5.829 5.592c.315.277-.147.736-.46.46M211.49 239.393c-.25-.989-1.624-1.868-2.352-2.543l-2.495-2.317c-.307-.285.154-.744.461-.46l3.05 2.831c.714.664 1.712 1.321 1.962 2.316.102.406-.525.58-.627.173M206.303 233.808c-.983-.994-2.32-1.534-3.376-2.452-1.117-.97-2.076-2.06-3.568-2.43-.406-.1-.234-.728.173-.627 1.325.328 2.278 1.153 3.26 2.057 1.232 1.134 2.803 1.811 3.971 2.992.295.298-.165.758-.46.46M213.41 233.237a1299.747 1299.747 0 0 1-12.33-6.976c-.363-.208-.036-.771.329-.562 4.097 2.348 8.208 4.673 12.33 6.976.366.204.038.767-.328.562M213.6 230.32c-3.464-2.568-7.637-4.28-11.46-6.24-.374-.19-.045-.752.327-.562 3.824 1.96 7.997 3.672 11.461 6.24.333.246.008.811-.329.561M214.456 227.428a65.882 65.882 0 0 0-13.676-5.494c-.403-.112-.232-.74.173-.628a66.598 66.598 0 0 1 13.832 5.56c.368.199.04.76-.329.562M213.559 224.378a25.81 25.81 0 0 0-4.391-2.58c-.38-.175-.05-.736.329-.562a25.849 25.849 0 0 1 4.39 2.58c.336.245.01.81-.328.562M219.372 219.934a41.998 41.998 0 0 1-6.234-4.646c-.312-.282.149-.74.46-.46a41.015 41.015 0 0 0 6.103 4.544c.357.218.03.781-.33.562M224.385 219.62c-3.878-.994-7.024-3.986-9.976-6.545-.317-.275.145-.734.46-.46 2.865 2.484 5.923 5.413 9.689 6.377.406.104.234.732-.173.628M226.578 219.16l-10.165-7.429c-.335-.245-.01-.81.329-.562l10.165 7.428c.335.245.01.81-.33.562M230.353 219.911a166.09 166.09 0 0 0-6.732-8.788c-.264-.322.194-.785.46-.46a169.078 169.078 0 0 1 6.834 8.92c.244.341-.32.666-.562.328M233.902 218.992l-5.757-8.264c-.24-.344.323-.67.562-.328l5.757 8.264c.24.344-.324.67-.562.328M236.852 217.707c-.021-1.293-1.394-2.675-2.136-3.671a85.84 85.84 0 0 0-2.623-3.331c-.264-.321.194-.784.46-.46a87.253 87.253 0 0 1 3.045 3.896c.78 1.063 1.883 2.183 1.905 3.566.007.419-.644.419-.651 0M177.693 215.315c.978.017 1.658.57 2.401 1.148l3.635 2.825c.33.257-.134.714-.46.46l-2.544-1.977c-.884-.686-1.856-1.785-3.032-1.805-.418-.007-.42-.658 0-.651M180.171 212.25c3.712 1.259 5.632 4.768 8.793 6.84.35.23.023.794-.328.563-3.09-2.027-5.023-5.55-8.638-6.775-.394-.134-.225-.763.173-.628M186.556 212.936a11.996 11.996 0 0 1 3.223 1.957c.32.272-.142.73-.46.46a11.032 11.032 0 0 0-2.936-1.79c-.382-.157-.215-.787.173-.627M190.863 214.95a41.03 41.03 0 0 1 5.753 4.054c.32.27-.141.729-.46.46a40.08 40.08 0 0 0-5.621-3.952c-.362-.211-.035-.774.328-.562M191.16 209.079l9.891 6.118c.356.22.03.783-.329.562-3.297-2.04-6.594-4.08-9.892-6.118-.355-.22-.028-.783.33-.562M191.561 205.075a31.053 31.053 0 0 1 5.142 3.265c.976.77 1.875 1.307 3.032 1.79.61.252 1.103.448 1.634.86.331.254-.133.712-.46.46-1.256-.97-2.892-1.242-4.179-2.258-1.734-1.369-3.528-2.55-5.498-3.555-.373-.19-.044-.752.33-.562M191.685 201.27c1.42.17 2.582 1.134 3.804 1.833 1.71.98 3.454 1.842 5.34 2.431.399.125.229.754-.172.629a24.517 24.517 0 0 1-4.126-1.736c-1.458-.77-3.186-2.308-4.846-2.505-.411-.05-.416-.701 0-.651M193.902 198.611a27.958 27.958 0 0 0 6.062 3.311c.386.152.218.781-.172.627a28.692 28.692 0 0 1-6.219-3.376c-.337-.242-.012-.807.33-.562M215.1 245.703a19.523 19.523 0 0 0 2.47 1.78c.357.217.03.78-.329.561a20.63 20.63 0 0 1-2.602-1.88c-.32-.272.142-.73.46-.46" fill="#12243e"/>
    <path d="M214.398 245.273c.26.446.612.77 1.063 1.019.367.2.04.764-.329.562a3.326 3.326 0 0 1-1.296-1.252c-.212-.363.351-.691.562-.33M213.685 240.785c1.57.601 2.774 1.605 4.064 2.652a31.61 31.61 0 0 0 5.79 3.73c.373.187.043.75-.33.561-1.696-.852-3.315-1.822-4.83-2.968-1.587-1.2-2.976-2.623-4.867-3.348-.387-.148-.219-.777.173-.627M215.356 236.469c2.651 1.275 5.014 2.979 7.03 5.124.285.305-.174.766-.462.46-1.979-2.105-4.295-3.771-6.897-5.022-.377-.182-.047-.743.33-.562M218.602 233.612a22.308 22.308 0 0 1 5.764 3.697c.314.278-.148.737-.461.46a21.717 21.717 0 0 0-5.632-3.595c-.382-.17-.051-.73.329-.562M294.243 207.057c-1.461-2.11-2.89-4.232-3.997-6.553-.132-.278.28-.522.414-.242 1.108 2.32 2.536 4.443 3.997 6.554.177.255-.24.493-.414.24M301.116 205.139c-1.164-1.674-2.231-3.397-3.037-5.275-.12-.281.293-.526.415-.242.805 1.877 1.872 3.6 3.037 5.275.177.255-.24.494-.415.242M309.786 205.027a20.432 20.432 0 0 1-3.714-4.524c-.162-.265.254-.505.414-.242a20.019 20.019 0 0 0 3.64 4.428c.229.207-.111.546-.34.338M318.258 205.348c-1.466-1.78-3.01-3.495-4.476-5.275-.195-.237.143-.578.338-.34 1.468 1.78 3.011 3.495 4.478 5.276.194.236-.143.578-.34.339M325.415 204.82c-1.044-2.02-2.474-3.788-3.836-5.596-.186-.248.23-.486.413-.24 1.362 1.806 2.793 3.574 3.837 5.593.142.274-.271.517-.414.242M334.724 204.228c-1.574-1.583-3.046-3.241-4.193-5.164-.16-.266.255-.507.413-.241 1.128 1.887 2.574 3.512 4.12 5.066.217.22-.122.559-.34.339M342.2 205.139c-1.041-2.305-2.723-4.224-3.996-6.394-.157-.267.257-.508.413-.242 1.274 2.17 2.957 4.089 3.997 6.394.126.28-.287.523-.414.242M346.515 203.86c-1-1.681-1.939-3.397-2.877-5.115-.148-.272.267-.513.414-.242.938 1.717 1.876 3.434 2.878 5.116.158.265-.256.507-.415.24M352.945 204.722c-.665-.352-.925-1.01-1.162-1.69a105.313 105.313 0 0 0-1.336-3.564c-.12-.307.374-.438.492-.136.368.942.664 1.92 1.076 2.844.33.738.4 1.689 1.188 2.106.29.153.033.594-.258.44M360.375 204.852c-1.14-1.291-1.265-3.222-2.25-4.643-.188-.271.254-.526.44-.257.465.671.756 1.426 1.088 2.167.362.805.475 1.684 1.083 2.372.218.246-.141.608-.36.361M367.444 205.012c-.072-.76-.665-1.442-.956-2.136-.332-.795-.846-1.39-.914-2.285-.026-.33.484-.326.51 0 .124 1.609 1.716 2.813 1.87 4.42.03.329-.48.326-.51 0M374.28 204.46c-.957-1.579-1.682-3.366-1.734-5.23-.01-.33.5-.329.509 0 .05 1.775.755 3.471 1.666 4.972.17.282-.27.54-.44.258M377.852 205.31c-.75-1.033-.715-2.48-.716-3.7 0-.329.51-.329.511 0 0 1.137-.053 2.48.645 3.443.194.267-.25.522-.44.258" fill="#12243e"/>
    <path d="M134.665 228.903c0-2.66-.361-5.566.167-8.179.075-.37.425-.688.78-.78 2.699-.712 4.724 2.505 6.338 4.272 1.979 2.167 5.335 5.181 5.077 8.426-.288 3.611-3.92 7.48-5.915 10.264-1.272 1.775-3.16 5.845-5.612 6.093-.526.054-.905-.393-1.08-.82-.945-2.334.799-5.59-1.813-7.078-2.095-1.193-6.697-.654-9.224-1.014-6.05-.865-12.478-1.462-18.094-4.003-1.146-.518-.381-1.959.564-2.085 5.202-.695 10.162-.633 15.3-2.094 4.819-1.37 9.52-3.053 14.426-4.108 1.405-.302 2.005 1.856.595 2.16-5.478 1.177-10.705 3.162-16.12 4.571-4.787 1.247-9.37 1.063-14.201 1.71l.565-2.086c6.266 2.834 14.062 3.412 20.826 4.205 2.745.321 7.625-.746 8.898 2.173.236.543.163 6.765-.731 6.223.348.211 6.984-9.499 7.428-10.384 1.19-2.378 1.958-4.356.587-6.907-.723-1.346-2.026-2.535-3.06-3.663-.7-.765-2.144-3.077-3.463-2.338-.415.234 0 5.02 0 5.442 0 1.44-2.238 1.442-2.238 0" fill="#0062ae"/>
    <path d="M115.08 237.676a34.154 34.154 0 0 1 2.312-3.687c.222-.309.74-.01.515.301a34.146 34.146 0 0 0-2.312 3.687c-.183.338-.699.037-.516-.3M118.037 237.862a13.268 13.268 0 0 0 2.1-4.33c.102-.37.678-.214.575.158a13.782 13.782 0 0 1-2.159 4.473c-.224.308-.743.01-.516-.3M120.818 237.994a25.421 25.421 0 0 1 3.044-4.968c.236-.303.656.123.422.422a24.82 24.82 0 0 0-2.951 4.847c-.161.348-.676.046-.515-.3M123.619 238.22a31.71 31.71 0 0 0 2.747-6.057c.12-.362.697-.207.576.16a32.479 32.479 0 0 1-2.808 6.198c-.194.331-.71.032-.515-.3M126.682 239.314a196.186 196.186 0 0 0 4.085-9.249c.144-.35.722-.197.576.16a198.63 198.63 0 0 1-4.146 9.39c-.164.347-.679.045-.515-.3M129.947 239.33c.925-1.79 1.404-3.697 2.038-5.594.521-1.56 1.41-3.029 1.636-4.666.053-.379.628-.218.576.16-.258 1.864-1.292 3.557-1.854 5.343-.545 1.732-1.044 3.44-1.88 5.057-.178.341-.693.04-.516-.3M133.485 237.022c1.735-4.354 3.492-8.701 5.27-13.038.143-.35.72-.198.575.158a1414.182 1414.182 0 0 0-5.27 13.038c-.14.352-.717.198-.575-.159" fill="#0062ae"/>
    <path d="M132.294 239.82c.48-.835.799-1.718.972-2.665.069-.377.644-.217.575.16a8.742 8.742 0 0 1-1.031 2.805c-.192.333-.708.033-.516-.3M141.256 225.878c-1.513 3.38-3.013 6.803-3.874 10.419-.497 2.087-.41 4.427-2.114 5.935-.286.253-.71-.167-.422-.422 2.077-1.84 2.052-6.371 2.897-8.89.842-2.51 1.918-4.931 2.998-7.343.157-.35.671-.047.515.3M143.731 228.172a161.352 161.352 0 0 0-8.144 19.093c-.127.36-.704.205-.575-.158a162.289 162.289 0 0 1 8.204-19.236c.173-.344.688-.042.515.301M145.172 230.701a26.526 26.526 0 0 0-3.178 8.718c-.067.378-.642.218-.575-.158a26.917 26.917 0 0 1 3.238-8.86c.192-.334.708-.033.515.3M270.665 228.903c0-2.66-.361-5.566.167-8.179.074-.37.425-.688.78-.78 2.699-.712 4.724 2.505 6.337 4.272 1.98 2.167 5.336 5.181 5.077 8.426-.287 3.611-3.918 7.48-5.914 10.264-1.272 1.775-3.16 5.845-5.612 6.093-.525.054-.905-.393-1.08-.82-.945-2.334.799-5.59-1.813-7.078-2.095-1.193-6.697-.654-9.224-1.014-6.05-.865-12.478-1.462-18.094-4.003-1.146-.518-.381-1.959.564-2.085 5.202-.695 10.162-.633 15.3-2.094 4.819-1.37 9.52-3.053 14.426-4.108 1.404-.302 2.005 1.856.595 2.16-5.478 1.177-10.705 3.162-16.12 4.571-4.787 1.247-9.37 1.063-14.201 1.71l.565-2.086c6.266 2.834 14.062 3.412 20.826 4.205 2.745.321 7.625-.746 8.898 2.173.236.543.163 6.765-.732 6.223.349.211 6.985-9.499 7.429-10.384 1.19-2.378 1.959-4.356.587-6.907-.723-1.346-2.026-2.535-3.06-3.663-.7-.765-2.143-3.077-3.463-2.338-.415.234 0 5.02 0 5.442 0 1.44-2.238 1.442-2.238 0" fill="#0062ae"/>
    <path d="M251.08 237.676a34.154 34.154 0 0 1 2.312-3.687c.222-.309.74-.01.515.301a34.146 34.146 0 0 0-2.312 3.687c-.183.338-.699.037-.516-.3M254.037 237.862a13.268 13.268 0 0 0 2.1-4.33c.102-.37.678-.214.575.158a13.782 13.782 0 0 1-2.159 4.473c-.224.308-.743.01-.516-.3M256.818 237.994a25.421 25.421 0 0 1 3.044-4.968c.236-.303.656.123.422.422a24.82 24.82 0 0 0-2.951 4.847c-.161.348-.676.046-.515-.3M259.619 238.22a31.71 31.71 0 0 0 2.747-6.057c.12-.362.697-.207.576.16a32.479 32.479 0 0 1-2.808 6.198c-.194.331-.71.032-.515-.3M262.682 239.314a196.186 196.186 0 0 0 4.085-9.249c.144-.35.723-.197.576.16a198.63 198.63 0 0 1-4.146 9.39c-.164.347-.679.045-.515-.3M265.947 239.33c.925-1.79 1.405-3.697 2.038-5.594.521-1.56 1.41-3.029 1.636-4.666.052-.379.627-.218.576.16-.258 1.864-1.292 3.557-1.854 5.343-.545 1.732-1.044 3.44-1.88 5.057-.178.341-.693.04-.516-.3M269.485 237.022c1.735-4.354 3.49-8.701 5.27-13.038.143-.35.72-.198.575.158a1414.182 1414.182 0 0 0-5.27 13.038c-.14.352-.718.198-.575-.159" fill="#0062ae"/>
    <path d="M268.294 239.82a8.279 8.279 0 0 0 .972-2.665c.068-.377.643-.217.575.16a8.744 8.744 0 0 1-1.032 2.805c-.192.333-.707.033-.515-.3M277.256 225.878c-1.513 3.38-3.014 6.803-3.874 10.419-.496 2.087-.41 4.427-2.113 5.935-.287.253-.71-.167-.423-.422 2.076-1.84 2.052-6.371 2.897-8.89.841-2.51 1.918-4.931 2.997-7.343.158-.35.672-.047.516.3M279.731 228.172a161.352 161.352 0 0 0-8.144 19.093c-.127.36-.704.205-.576-.158a162.62 162.62 0 0 1 8.204-19.236c.174-.344.689-.042.516.301M281.172 230.701a26.528 26.528 0 0 0-3.179 8.718c-.066.378-.642.218-.575-.158a26.962 26.962 0 0 1 3.238-8.86c.193-.334.708-.033.516.3M429.665 228.903c0-2.66-.361-5.566.167-8.179.074-.37.425-.688.78-.78 2.699-.712 4.724 2.505 6.337 4.272 1.98 2.167 5.336 5.181 5.077 8.426-.287 3.611-3.918 7.48-5.914 10.264-1.272 1.775-3.16 5.845-5.612 6.093-.525.054-.905-.393-1.08-.82-.945-2.334.799-5.59-1.813-7.078-2.095-1.193-6.697-.654-9.224-1.014-6.05-.865-12.478-1.462-18.095-4.003-1.145-.518-.381-1.959.565-2.085 5.202-.695 10.162-.633 15.3-2.094 4.82-1.37 9.52-3.053 14.426-4.108 1.404-.302 2.005 1.856.595 2.16-5.478 1.177-10.705 3.162-16.12 4.571-4.787 1.247-9.37 1.063-14.201 1.71l.565-2.086c6.266 2.834 14.062 3.412 20.825 4.205 2.746.321 7.626-.746 8.899 2.173.236.543.163 6.765-.732 6.223.349.211 6.985-9.499 7.429-10.384 1.19-2.378 1.959-4.356.587-6.907-.723-1.346-2.026-2.535-3.06-3.663-.7-.765-2.143-3.077-3.463-2.338-.415.234 0 5.02 0 5.442 0 1.44-2.238 1.442-2.238 0" fill="#0062ae"/>
    <path d="M410.079 237.676a34.31 34.31 0 0 1 2.313-3.687c.222-.309.74-.01.515.301a34.302 34.302 0 0 0-2.312 3.687c-.183.338-.7.037-.516-.3M413.038 237.862a13.308 13.308 0 0 0 2.099-4.33c.102-.37.678-.214.576.158a13.764 13.764 0 0 1-2.16 4.473c-.224.308-.743.01-.515-.3M415.818 237.994a25.421 25.421 0 0 1 3.044-4.968c.236-.303.656.123.423.422a24.723 24.723 0 0 0-2.951 4.847c-.162.348-.677.046-.516-.3M418.619 238.22a31.71 31.71 0 0 0 2.747-6.057c.12-.362.697-.207.575.16a32.41 32.41 0 0 1-2.806 6.198c-.195.331-.711.032-.516-.3M421.682 239.314a196.186 196.186 0 0 0 4.085-9.249c.144-.35.723-.197.576.16a199.646 199.646 0 0 1-4.145 9.39c-.164.347-.679.045-.516-.3M424.947 239.33c.926-1.79 1.405-3.697 2.038-5.594.522-1.56 1.41-3.029 1.637-4.666.052-.379.627-.218.575.16-.258 1.864-1.291 3.557-1.854 5.343-.544 1.732-1.043 3.44-1.88 5.057-.177.341-.692.04-.516-.3M428.485 237.022c1.735-4.354 3.49-8.701 5.27-13.038.143-.35.72-.198.575.158a1414.182 1414.182 0 0 0-5.27 13.038c-.14.352-.718.198-.575-.159" fill="#0062ae"/>
    <path d="M427.294 239.82a8.279 8.279 0 0 0 .972-2.665c.068-.377.643-.217.575.16a8.744 8.744 0 0 1-1.032 2.805c-.192.333-.707.033-.515-.3M436.256 225.878c-1.513 3.38-3.014 6.803-3.874 10.419-.496 2.087-.41 4.427-2.113 5.935-.287.253-.71-.167-.423-.422 2.076-1.84 2.052-6.371 2.897-8.89.841-2.51 1.918-4.931 2.997-7.343.158-.35.672-.047.516.3M438.731 228.172a161.352 161.352 0 0 0-8.144 19.093c-.127.36-.704.205-.576-.158a162.62 162.62 0 0 1 8.204-19.236c.174-.344.689-.042.516.301M440.172 230.701a26.528 26.528 0 0 0-3.179 8.718c-.066.378-.642.218-.575-.158a26.962 26.962 0 0 1 3.238-8.86c.193-.334.708-.033.516.3M53.595 98.652l.106-49.847c.017-7.967.341-16.01-.347-23.958-.288-3.33-.755-6.608-.632-9.96.158-4.259.881-8.369.51-12.65-.185-2.12 3.126-2.109 3.31 0 .371 4.288-.353 8.38-.51 12.65-.123 3.351.337 6.633.632 9.96.703 7.944.363 15.992.346 23.958l-.105 49.847c-.005 2.13-3.314 2.133-3.31 0M474.798 98.52c1.312-15.827.626-31.824.524-47.688l-.316-49.224c-.014-2.131 3.296-2.133 3.31 0l.316 49.225c.102 15.863.788 31.86-.524 47.688-.175 2.106-3.486 2.125-3.31 0" fill="#0062ae"/>
    <path d="M475.095 1.844h-420" fill="none" stroke="#0062ae" stroke-width="3.687" stroke-miterlimit="10"/>
    <path d="M54.235 99.272a195.499 195.499 0 0 0-7.785-16.004c-.923-1.695 1.667-3.212 2.591-1.514a195.027 195.027 0 0 1 7.784 16.003c.757 1.755-1.826 3.285-2.59 1.515" fill="#0062ae"/>
    <path d="M54.173 99.2c1.517-6.476 4.623-12.263 9.132-17.147 1.312-1.422 3.43.704 2.121 2.121-4.172 4.52-6.958 9.837-8.36 15.824-.44 1.88-3.334 1.083-2.893-.798" fill="#0062ae"/>
  </g>
  <text style="-inkscape-font-specification:Circe" transform="matrix(1.33333 0 0 1.33333 184.087 363.911)" font-weight="400" font-size="14" font-family="Circe" fill="#12243e">
    <tspan y="0" x="0 9.8699999 16.785999 22.7346 30.6446 38.344601 45.624599 53.4086 60.688599 67.604599 75.262604 82.808601 85.958603 92.930603 100.7146 108.6246 116.3246 122.2746 130.1846 137.1006 143.5406 150.9886 161.3766 167.53661 176.5246 179.67461 186.59061 189.7406 200.25459 207.9406 218.28661 221.4366 229.3466 232.4966 240.5466 251.06059">Автоперевод криптовалюты в USD и EUR</tspan>
  </text>
</svg>
