<svg xmlns="http://www.w3.org/2000/svg" viewBox="0 0 441.655 185.105">
  <defs>
    <clipPath id="a_4_2">
      <path d="M0 138.829h331.241V0H0z"/>
    </clipPath>
  </defs>
  <g clip-path="url(#a_4_2)" transform="matrix(1.33333 0 0 -1.33333 0 185.105)">
    <path d="M.001 119.093A1366.54 1366.54 0 0 0 1.31 52.626c-.002-.51.38-1.07.898-1.18l2.627-.556c1.534-.326 2.19 2.03.65 2.357-3.202.68-1.715 10.99-1.732 14.045-.034 5.867-.105 11.734-.217 17.599a1364.137 1364.137 0 0 1-1.089 34.202c-.069 1.567-2.514 1.576-2.445 0" fill="#12243e"/>
    <path d="M1.465 118.682c2.904.295 5.808.397 8.726.308 1.573-.048 1.572 2.398 0 2.445a66.036 66.036 0 0 1-8.726-.308c-1.55-.157-1.566-2.605 0-2.445" fill="#12243e"/>
    <path d="M11.554 120.368c.296 2.774-.156 6.998 2.87 8.289l1.819.072c1.308.66 1.9.429 1.78-.7.602-.89.434-3.025.598-4.165.558-3.882.38-5.09 4.277-5.244 2.81-.11 3.452.106 3.935 2.857.572 3.252-.273 6.783 3.642 7.759 2.546.635 1.979-.23 2.8-1.697.932-1.667.638-4.595.878-6.478.195-1.54 2.643-1.56 2.445 0-.301 2.366-.065 8.008-1.603 9.78-1.285 1.48-3.587.898-5.386.807-1.548-.078-3.132.036-4.061-1.343-1.583-2.35.839-8.45-2.65-9.24-2.924-.661-1.663 7.403-2.868 9.088-.96 1.34-2.154 1.06-3.787 1.02-1.738-.04-4.35.347-5.702-1.032-1.714-1.747-1.191-7.512-1.432-9.773-.167-1.563 2.279-1.551 2.445 0" fill="#12243e"/>
    <path d="M34.995 119.637c4.265-1.796 8.628-3.797 10.354-8.443 1.546-4.163.873-12.639-3.655-14.923-1.407-.709-.17-2.819 1.233-2.112 5.082 2.563 6.232 10.476 5.373 15.57-1.143 6.783-6.833 9.814-12.654 12.266-1.449.61-2.082-1.755-.65-2.358" fill="#12243e"/>
    <path d="M41.35 95.675l-1.246-.81c-.346-.226-.746-.43-1.028-.734a1.417 1.417 0 0 1-.197-1.675c.405-.692 1.164-.74 1.832-.458.608.258.742 1.155.439 1.673-.368.63-1.062.697-1.673.44-.026-.013-.051-.023-.077-.034h1.234l-.082.052.562-.73-.032.097v-.65l.037.095-.314-.54c-.194-.205.155.107.221.15l.546.354 1.012.658c.554.36.784 1.084.439 1.673-.322.55-1.117.8-1.673.44" fill="#12243e"/>
    <path d="M40.086 91.465c6.45-.68 10.675-2.859 13.793-8.698 2.596-4.859 4.401-10.405 3.555-15.956-.74-4.856-3.467-9.347-7.548-12.139-4.649-3.18-10.108-2.956-15.474-2.593-1.57.105-1.564-2.34 0-2.447 6.528-.439 12.795-.328 18.09 3.958 4.18 3.381 6.931 8.431 7.494 13.774.697 6.624-1.83 13.71-5.485 19.178-3.547 5.307-8.29 6.72-14.425 7.368-1.563.165-1.552-2.28 0-2.445" fill="#12243e"/>
    <path d="M4.577 50.81c.08-.04 2.108-.735 2.175-.816.773-.947-.247-6.606-.297-7.925-.026-.699.584-1.169 1.223-1.223 3.368-.277 7.816-1.55 8.825 2.493.455 1.822-.207 7.431 3.196 6.222 2.111-.75.551-6.806.886-8.766.074-.428.476-.72.854-.854 2.02-.706 8.348-1.569 10.058-.023 2.366 2.14.73 8.101 1.707 10.878l-1.503-.853c1.456-.458 1.54-.417 3.041-.173 1.55.253.892 2.61-.65 2.358l-1.74.173c-.663.208-1.292-.249-1.505-.854-.809-2.296-.319-4.294-.844-6.552-.445-1.912-.346-2.518-2.707-3.008-1.958-.407-3.66.028-4.329 2.212-.772 2.522 1.503 6.17-1.289 7.723-1.309.728-5.446.743-6.609-.464-.972-1.01-.589-2.842-.82-4.055-.249-1.302-.398-3.574-1.954-4.234-.898-.382-3.666.144-4.617.222l1.223-1.222c.071 1.91 1.182 7.518.082 9.221-.799 1.238-1.968 1.031-3.172 1.631-1.404.701-2.644-1.408-1.234-2.11" fill="#12243e"/>
    <path d="M6.09 50.481c1.575 0 1.577 2.445 0 2.445-1.572 0-1.575-2.445 0-2.445M13.16 108.913c3.53.976 9.83 1.628 13.322.067 7.456-3.332 1.458-9.663-3.444-10.453-1.64-.264-3.3-.215-4.954-.228-.603-.006-4.315-.508-4.552-.346-.526.358.036 5.247.064 5.972.078 1.991.226 3.974.403 5.958.14 1.567-2.307 1.557-2.445 0-.33-3.698-1.148-8.254-.468-11.93.247-1.332.527-1.769 1.828-2.112 2.654-.699 6.93-.124 9.655.151 2.51.254 4.946.95 6.832 2.711 2.785 2.6 4.986 8.54 1.338 11.373-1.982 1.54-5.07 1.515-7.446 1.792-3.674.43-7.207.391-10.782-.597-1.515-.419-.871-2.778.65-2.358M14.976 84.173c7.413 1.084 14.994.22 21.85-2.884 4.201-1.902 8.788-5.191 7.34-10.483-1.229-4.487-5.723-6.713-9.943-7.435-3.344-.571-6.74-.36-10.117-.264-2.573.072-8.889-.794-10.39 1.219-1.515 2.03-.2 7.703-.07 10.227l.57 11.144c.08 1.573-2.366 1.569-2.447 0-.316-6.191-.673-12.381-.949-18.574-.116-2.6-.417-4.977 2.294-6.07 1.895-.762 4.99-.221 7.054-.28 3.078-.087 6.166-.257 9.246-.23 4.407.04 8.945.63 12.598 3.302 5.902 4.316 6.531 12.42.621 16.937-7.756 5.929-18.963 7.116-28.308 5.749-1.55-.227-.891-2.584.65-2.358" fill="#12243e"/>
    <path d="M14.07 84.298c1.574 0 1.577 2.445 0 2.445-1.573 0-1.575-2.445 0-2.445M14.925 125.936a32.298 32.298 0 0 1-5.102-4.223c-.294-.3.166-.761.461-.462a31.49 31.49 0 0 0 4.97 4.122c.348.232.022.797-.329.563M5.884 118.957c-1.988-.645-3.604-1.963-4.693-3.741-.22-.36.344-.687.563-.33 1 1.633 2.478 2.85 4.303 3.442.398.129.228.759-.173.629M4.413 113.715c-.867-.251-1.562-.802-2.035-1.567-.221-.358.343-.685.563-.33a2.837 2.837 0 0 0 1.645 1.269c.403.116.232.746-.173.628M5.88 110.724c-1.357-.295-2.571-.905-3.645-1.782-.325-.266.139-.725.46-.462a7.894 7.894 0 0 0 3.358 1.615c.41.09.237.718-.173.63M4.207 104.036a4.037 4.037 0 0 1-1.34-1.729c-.162-.387.468-.556.629-.174.223.533.577.994 1.041 1.34.332.248.007.814-.33.563M5.406 58.013a8.574 8.574 0 0 0-1.11-1.634c-.275-.316.184-.78.46-.461a9.254 9.254 0 0 1 1.213 1.766c.196.37-.367.7-.563.329M9.398 55.382c-.567.048-1.05-.241-1.325-.73-.206-.367.357-.696.563-.33.172.304.42.437.762.408.418-.035.416.617 0 .652M10.479 48.263c-1.101-.746-1.897-1.77-2.394-3-.157-.39.473-.558.629-.173a5.727 5.727 0 0 0 2.094 2.61c.345.235.019.799-.33.563M12.776 45.605a57.304 57.304 0 0 1-3.38-3.12c-.297-.298.164-.759.46-.462a57.33 57.33 0 0 0 3.38 3.121c.32.274-.142.733-.46.462M13.895 43.005c.419 0 .42.652 0 .652s-.42-.652 0-.652M18.356 53.831a7.302 7.302 0 0 0-1.117-1.762c-.273-.316.186-.779.461-.46a7.876 7.876 0 0 1 1.22 1.893c.171.38-.39.711-.564.33M22.31 53.268l-1.045-.718c-.344-.236-.018-.802.329-.563l1.045.719c.344.236.018.8-.329.562M4.96 54.708a39.826 39.826 0 0 1-3.45-2.514c-.326-.264.137-.723.46-.461a38.23 38.23 0 0 0 3.318 2.412c.351.227.025.792-.329.563M25.326 49.11a17.577 17.577 0 0 1-2.694-2.594c-.27-.319.19-.783.46-.46a17.622 17.622 0 0 0 2.695 2.592c.33.257-.133.716-.461.461M26.829 45.974a20.502 20.502 0 0 1-5.351-4.377c-.274-.314.185-.777.461-.461a19.984 19.984 0 0 0 5.219 4.275c.365.207.037.77-.329.563M28.66 43.638a29.514 29.514 0 0 1-2.938-2.198c-.32-.273.143-.732.46-.461a28.21 28.21 0 0 0 2.807 2.097c.35.228.024.792-.329.562" fill="#12243e"/>
    <path d="M7.97 54.453L6.025 52.32c-.282-.309.178-.772.461-.462.65.711 1.297 1.422 1.945 2.133.282.31-.178.773-.46.462M9.662 51.469a1.265 1.265 0 0 1-.893-.371c-.304-.29.158-.75.462-.462.117.134.26.194.43.18.42.01.422.664 0 .653M36.347 53.24l-.794-.559c-.34-.239-.015-.804.33-.562l.793.558c.341.24.015.804-.329.563M41.714 53.692c-.44-.068-.769-.324-.988-.708-.209-.364.354-.693.563-.329.143.252.315.364.598.408.414.066.238.693-.173.63M46.21 53.457l-.928-.974c-.29-.303.17-.765.462-.461l.928.974c.289.304-.171.766-.461.461M16.24 89.11a30.384 30.384 0 0 1-2.505-1.687c-.332-.25-.008-.815.33-.563a30.384 30.384 0 0 0 2.504 1.687c.36.216.031.78-.329.563M20.42 88.3a2.885 2.885 0 0 1-1.336-.779c-.297-.298.164-.759.461-.46.303.305.632.5 1.048.61.406.108.234.737-.173.63M27.074 88.157c-.176-.095-.35-.19-.527-.284-.369-.198-.04-.762.33-.563l.526.284c.37.199.041.762-.329.563M31.45 86.877l-.793-.42c-.37-.197-.042-.76.33-.563l.792.42c.371.197.042.76-.329.563M35.784 85.441a2.535 2.535 0 0 1-1.126-.824c-.254-.328.204-.793.46-.46.228.293.488.517.839.655.387.15.219.781-.173.63M40.724 82.802l-1.873-1.218c-.352-.228-.025-.793.328-.563.625.406 1.25.81 1.874 1.218.352.227.025.792-.328.563M44.679 80.174a2.798 2.798 0 0 1-.992-.75c-.271-.316.188-.78.46-.46.247.288.515.49.86.647.383.172.052.734-.328.563M11.415 121.29l-.396-.419c-.29-.305.171-.767.46-.46.133.138.266.277.398.417.288.305-.173.767-.462.461M27.896 126.62a4.017 4.017 0 0 1-1.537-2.252c-.107-.406.52-.579.629-.173.199.75.607 1.401 1.237 1.862.335.245.01.811-.33.563M27.156 123.241l-2.249-2.512c-.279-.31.181-.774.461-.46l2.25 2.511c.278.312-.182.774-.462.461M15.308 112.568a4.421 4.421 0 0 1-1.821-1.814c-.2-.37.363-.7.563-.33a3.792 3.792 0 0 0 1.587 1.58c.372.197.042.76-.329.564M22.851 111.998l-1.058-.698c-.348-.231-.022-.796.329-.563l1.058.698c.349.23.023.795-.329.563M19.747 113.195l-.793-.837c-.289-.305.171-.767.46-.46l.794.836c.29.305-.17.767-.46.461" fill="#12243e"/>
    <path d="M24.312 112.824a3.052 3.052 0 0 1-1.047-.948c-.244-.343.32-.669.563-.329.218.307.483.533.813.714.369.201.04.764-.33.563M27.748 112.133a2.563 2.563 0 0 1-1.041-.958c-.225-.355.339-.683.563-.33.206.326.463.554.807.725.376.187.046.75-.329.563M31.65 110.407l-1.354-1.073c-.329-.261.135-.72.461-.461l1.353 1.073c.33.26-.135.719-.46.46M42.496 111.521l-1.323-1.117c-.32-.271.142-.73.461-.461l1.323 1.117c.321.271-.142.73-.46.461M41.84 109.114l-.792-.285c-.392-.14-.223-.77.173-.629l.792.285c.392.141.223.772-.173.63M42.546 107.684a2.025 2.025 0 0 1-1.575-.292c-.35-.23-.023-.795.329-.563.334.219.676.307 1.073.226.409-.083.585.546.173.629M52.752 68.11l-.526-1.677c-.126-.4.503-.572.629-.173l.526 1.675c.126.402-.503.573-.63.174M53.156 66.478l-.713-2.26c-.127-.402.502-.573.628-.174l.714 2.262c.126.4-.503.571-.63.172" fill="#12243e"/>
    <path d="M53.916 65.91a23.341 23.341 0 0 1-1.753-5.04c-.092-.409.536-.583.628-.174a22.581 22.581 0 0 0 1.688 4.885c.18.377-.381.708-.563.33M5.464 59.33l-.53-.558c-.288-.304.173-.766.462-.46l.529.557c.289.305-.172.767-.461.461" fill="#12243e"/>
    <path d="M139.867 94.966c-.904-.413-1.482-1.196-2.162-1.887-.18-.183.102-.465.282-.28.655.666 1.207 1.425 2.08 1.824.234.106.03.45-.2.343M138.575 91.082c-.044-.418-.59-.78-.87-1.052-.373-.364-.784-.676-1.091-1.102-.151-.207.195-.406.343-.2.332.462.813.823 1.228 1.209.336.312.738.663.788 1.145.027.256-.371.253-.398 0M138.867 87.47c-.694-1.085-2.062-1.944-2.407-3.23-.066-.248.318-.353.384-.105.173.647.716 1.13 1.121 1.645.404.513.891.935 1.246 1.49.138.216-.206.415-.344.2M139.47 83.166c-.79-.551-1.587-1.328-1.949-2.24-.094-.239.29-.341.384-.106.317.801 1.075 1.522 1.764 2.003.21.146.01.49-.2.343M140.326 80.046c-.577-.952-1.591-1.524-2.121-2.52-.121-.226.223-.426.343-.2.528.99 1.544 1.566 2.12 2.519.135.22-.21.42-.342.2M141.325 77.598c-.382-.275-.657-.626-.92-1.013-.155-.227-.258-.483-.41-.716a3.555 3.555 0 0 1-.353-.643c-.094-.24.291-.342.384-.107.146.37.418.673.596 1.027.213.427.515.828.904 1.108.206.149.007.494-.2.344M143.215 74.642c-.006-.955-1.059-1.46-1.43-2.286-.106-.233.237-.435.342-.2.234.519.666.886 1.03 1.313.32.375.453.682.456 1.173.002.257-.396.257-.398 0M145.204 73.316c-.068-.62-.735-1.218-1.151-1.646-.426-.44-.823-.873-.964-1.484-.056-.249.327-.355.385-.105.295 1.29 1.979 1.872 2.128 3.235.028.255-.37.252-.398 0M147.723 73.316c0-.335-.128-.615-.227-.93-.105-.335-.222-.66-.409-.959-.136-.218.208-.418.344-.2.204.328.332.687.45 1.054.113.36.238.652.24 1.035.001.256-.397.256-.398 0M149.413 65.532c-.356-.232-.665-.707-.836-1.086-.248-.55-.661-.984-.959-1.504-.128-.223.215-.423.343-.2.252.438.608.811.846 1.26.203.383.429.94.806 1.187.214.14.015.485-.2.343M150.667 62.544c-.669-1.084-1.074-2.296-1.856-3.314-.157-.204.19-.401.343-.201.782 1.018 1.187 2.23 1.857 3.315.135.219-.21.419-.344.2M152.377 59.852c-.394-.127-.588-.357-.709-.747-.194-.62-.58-1.15-.756-1.778-.07-.247.314-.353.384-.106.125.448.347.846.563 1.255.194.367.165.845.623.992.244.079.14.463-.105.384M155.029 58.394c-.445-.175-.66-.501-.914-.888-.318-.481-.653-.944-.816-1.506-.071-.247.313-.351.384-.105.129.443.377.822.634 1.202.228.336.419.757.818.913.236.092.133.478-.106.384M159.523 59.527c-.023-.459-.357-.668-.546-1.048a10.37 10.37 0 0 1-.508-1.153c-.086-.242.3-.346.384-.106.156.442.346.944.636 1.318.248.32.41.573.432.99.013.255-.385.254-.398 0M163.243 58.52c-.256-.736-.493-1.547-.908-2.208-.136-.217.208-.416.344-.2.434.692.68 1.532.948 2.302.084.242-.3.346-.384.105M167.24 58.036c-.398-.89-1.01-1.655-1.457-2.519-.12-.227.225-.428.343-.2.448.864 1.059 1.627 1.458 2.52.104.23-.24.433-.343.2M171.646 57.679c-.748-.743-1.486-1.424-1.774-2.474-.069-.248.315-.353.383-.106.27.979.977 1.608 1.672 2.299.183.18-.098.462-.28.28M176.37 58.122c-.135-.357-.363-.674-.577-.985-.2-.296-.342-.697-.658-.885-.22-.13-.02-.476.2-.344.368.22.501.588.732.926.258.378.525.751.686 1.182.09.241-.295.343-.384.106M180.339 59.395c-.038-.896-.77-1.536-1.166-2.287-.12-.226.224-.427.344-.2.438.831 1.178 1.494 1.22 2.486.01.257-.386.256-.398 0M185.14 62.81c-.54-.915-.58-2.036-1.193-2.917-.148-.211.198-.41.343-.2.617.885.656 2.003 1.193 2.917.13.22-.213.42-.343.2M189.09 65.361c-.01-.949-.164-1.853-.523-2.73-.097-.239.288-.342.383-.108.373.913.528 1.855.537 2.838.003.257-.394.256-.397 0M192.537 68.676c-.001-.791-.031-1.558-.37-2.287-.109-.231.235-.433.343-.2.372.799.424 1.617.424 2.487.001.256-.396.256-.397 0M175.858 105.104c-.253-.363-.603-.704-.768-1.121-.068-.171-.257-.332-.369-.481a3.844 3.844 0 0 1-.32-.52c-.12-.226.223-.427.342-.2.18.343.472.603.663.928.245.419.517.794.796 1.194.147.211-.198.409-.344.2M178.807 105.144c-.367-.387-.66-.833-.95-1.28-.287-.446-.654-.832-.7-1.38-.021-.255.378-.253.398 0 .037.446.412.819.647 1.18.272.418.542.835.886 1.2.176.185-.104.467-.281.28M180.87 105.269c-.008-.843-.12-1.725-.636-2.419-.153-.206.192-.404.343-.2.555.746.682 1.712.69 2.619.002.257-.395.256-.397 0M183.794 106.117c-.145-.352-.195-.728-.338-1.083-.164-.414-.25-.85-.437-1.256-.108-.23.235-.433.342-.2.18.388.28.797.419 1.201.068.193.163.361.219.558.066.227.088.454.179.675.096.237-.288.34-.384.105M191.172 78.322c-.187-.36-.412-.674-.425-1.095-.008-.257.39-.256.398 0 .009.338.22.604.37.895.117.227-.226.43-.343.2M193.191 78.362c-.454-.505-.455-1.289-.456-1.93 0-.257.398-.257.398 0 0 .52-.032 1.237.34 1.65.17.19-.109.471-.282.28M188.984 98.409c-.24-.53-.226-1.121-.227-1.691 0-.256.4-.256.4 0 0 .488-.036 1.035.17 1.49.105.232-.238.434-.343.2M190.945 97.314c-.005.256-.403.257-.397 0 .003-.174.03-.345.054-.518.02-.126.096-.422.004-.534-.162-.197.118-.48.281-.282.3.364.068.914.058 1.334M193.134 94.928c-.014-.471-.187-.921-.2-1.392-.006-.257.39-.256.398 0 .013.47.187.92.199 1.392.007.257-.39.256-.397 0M152.562 110.043c-.006.255-.404.256-.398 0 .01-.418.173-.906-.14-1.252-.172-.19.108-.472.281-.281.411.454.27.977.257 1.532M154.153 110.043c-.02-.559-.376-1.029-.397-1.592-.01-.256.387-.255.397 0 .021.559.376 1.029.398 1.592.01.256-.388.254-.398 0M168.698 113.523l-.596-1.193c-.114-.229.228-.43.343-.2l.597 1.193c.114.228-.229.43-.344.2M171.654 112.827c-.008-.12-.129-.287-.196-.397-.1-.161-.21-.32-.342-.457-.178-.184.102-.465.281-.281.155.16.285.349.404.538.113.177.237.382.251.597.017.256-.38.254-.398 0M173.444 112.031c0-.33.034-.833-.299-1.02-.223-.128-.022-.472.2-.345.481.272.496.876.497 1.365 0 .256-.398.256-.398 0M179.212 110.44c-.022-.425-.374-.757-.397-1.193-.014-.256.383-.255.397 0 .023.425.375.757.397 1.193.014.256-.383.255-.397 0M181.201 110.241c-.009-.375-.15-.829-.498-1.02-.225-.126-.024-.47.2-.345.472.261.685.85.695 1.365.006.257-.392.256-.397 0" fill="#0062ae"/>
    <path d="M147.195 62.545c.735-1.684 1.49-4.685 3.084-5.758 1.29-.87 2.44-2.936 4.322-2.642 1.823.285 2.418 1.714 3.067 3.274.396.95-1.117 1.448-1.508.508-.562-1.351-1.984-2.56-3.402-1.318-.763.669-1.786 1.626-2.262 2.498-.988 1.81-3.454 6.2-1.462 7.78 1.05.83 2.5 1.023 3.742 1.402 1.424.436 2.88.71 4.347.955.759.127 4.518.972 3.897-.881-.117-.345-.94-2.02-1.213-2.195-.854-.55-.138-1.973.726-1.416 1.118.72 1.773 2.443 2.185 3.67.504 1.506-.542 2.465-1.895 2.709-2.296.414-5.454-.511-7.654-1.065-2.078-.523-4.393-1.036-5.913-2.65-1.02-1.082-.582-3.68-.061-4.871M192.957 102.172l-1.188-.993c.481-.907.822-1.896 1.425-2.733 2.463-3.415 3.63-7.324 4.267-11.446.35-2.265-.107-4.588-.442-6.828-.303-2.04-.504-4.079-.742-6.122-.482-4.152-3.723-7.38-6.548-10.129-1.41-1.373-2.952-2.255-4.602-3.334-1.642-1.075-3.678-2.324-5.54-2.957-1.917-.65-4.125-1.122-6.147-1.22-1.837-.09-3.503-.635-5.388-.462-1.881.173-3.831.586-5.708.862-1.692.248-3.196 1.18-4.909 1.348-1.024.1-1.119-1.488-.101-1.588 1.878-.185 3.639-1.162 5.53-1.44 2.083-.306 4.217-.768 6.322-.85 1.888-.077 3.77.447 5.634.66 2.088.24 4.656.676 6.486 1.74 1.882 1.096 3.803 1.993 5.63 3.203.742.491 1.563.852 2.288 1.371.92.658 1.622 1.526 2.421 2.324 2.799 2.794 5.33 5.79 6.107 9.787.426 2.19.53 4.487.856 6.705.358 2.433.726 4.8.411 7.254-.529 4.113-1.82 8.397-4.33 11.754-.7.936-1.181 2.036-1.732 3.094" fill="#0062ae"/>
    <path d="M185.09 97.063a11.35 11.35 0 0 1-1.254-.894c.485-.679.929-1.389 1.177-1.96.445-1.022.649-2.434 1.382-3.29.867-1.013.799-3.065.916-4.316.298-3.2.725-6.214-.178-9.366-.83-2.892-1.57-5.436-3.888-7.496-2.12-1.88-4.304-3.721-6.914-4.888-2.905-1.298-6.425-1.125-9.512-.989-1.284.057-2.59.165-3.846.468-.236.057-1.845.439-1.985.565-.044.041-.08.071-.112.096l-.001.004c-.208 1.004-1.766.681-1.557-.324.39-1.878 3.487-1.908 5.01-2.179 3.304-.586 6.85-.426 10.142.174 3.377.614 6.078 2.67 8.64 4.83a39.69 39.69 0 0 1 3.059 2.871c.885.923 1.426 2.755 1.829 3.923.556 1.613.896 3.37 1.216 5.046.383 2.002-.226 3.884-.133 5.883.07 1.516-.363 3.248-.606 4.743-.263 1.61-1.296 2.961-1.86 4.471-.35.94-.916 1.8-1.525 2.628" fill="#0062ae"/>
    <path d="M193.783 100.649c-1.274 3.919-5.354 2.436-7.904.748-1.414-.936-3.8-4.316-1.889-5.712.275-.903 1.736-.574 1.533.402-.066.319-.166.534-.365.7a1.332 1.332 0 0 0-.148.347c-.3 1.352 1.036 2.476 2.04 3.14 1.401.929 4.383 2.488 5.175.05.314-.964 1.875-.65 1.558.325M187.976 109.688c-.735 1.684-1.49 4.685-3.084 5.758-1.291.869-2.44 2.936-4.321 2.642-1.824-.285-2.42-1.714-3.068-3.275-.395-.95 1.118-1.447 1.508-.506.562 1.35 1.984 2.559 3.402 1.317.761-.669 1.785-1.626 2.261-2.498.988-1.811 3.454-6.201 1.461-7.78-1.048-.831-2.5-1.023-3.74-1.403-1.425-.435-2.88-.709-4.348-.954-.759-.127-4.518-.972-3.896.88.116.346.94 2.02 1.212 2.196.853.55.138 1.973-.726 1.416-1.118-.72-1.773-2.443-2.184-3.671-.505-1.504.541-2.464 1.894-2.708 2.296-.414 5.453.511 7.654 1.065 2.078.523 4.393 1.035 5.913 2.65 1.02 1.082.583 3.678.062 4.871" fill="#0062ae"/>
    <path d="M142.214 70.06l1.188.993c-.481.908-.822 1.897-1.426 2.735-2.463 3.414-3.63 7.323-4.266 11.445-.35 2.265.107 4.588.44 6.828.305 2.04.506 4.078.743 6.122.483 4.15 3.724 7.38 6.549 10.129 1.409 1.373 2.952 2.255 4.602 3.334 1.64 1.074 3.677 2.324 5.539 2.957 1.917.65 4.126 1.122 6.147 1.22 1.838.092 3.503.635 5.389.462 1.88-.173 3.83-.586 5.707-.862 1.693-.25 3.196-1.18 4.909-1.348 1.025-.101 1.12 1.488.102 1.588-1.878.184-3.64 1.162-5.53 1.44-2.083.306-4.217.768-6.322.852-1.888.075-3.771-.45-5.634-.663-2.09-.24-4.656-.675-6.486-1.74-1.883-1.095-3.804-1.993-5.631-3.202-.741-.491-1.563-.851-2.287-1.371-.92-.658-1.622-1.526-2.421-2.324-2.8-2.794-5.33-5.79-6.107-9.787-.426-2.19-.53-4.487-.856-6.705-.36-2.432-.726-4.8-.411-7.253.529-4.115 1.819-8.398 4.33-11.754.699-.937 1.18-2.037 1.732-3.095" fill="#0062ae"/>
    <path d="M150.08 75.17c.444.277.869.572 1.254.895-.485.678-.928 1.388-1.176 1.959-.446 1.022-.65 2.434-1.383 3.29-.866 1.012-.799 3.065-.915 4.316-.298 3.2-.726 6.215.178 9.366.83 2.892 1.569 5.437 3.888 7.495 2.119 1.88 4.304 3.723 6.914 4.889 2.905 1.299 6.424 1.125 9.511.989 1.285-.057 2.591-.166 3.846-.468.237-.057 1.846-.44 1.986-.565.043-.04.08-.071.112-.097v-.003c.209-1.004 1.766-.681 1.557.324-.389 1.878-3.486 1.909-5.01 2.179-3.304.585-6.85.426-10.141-.174-3.378-.614-6.079-2.67-8.641-4.83a39.715 39.715 0 0 1-3.059-2.871c-.884-.923-1.426-2.755-1.828-3.923-.556-1.614-.896-3.37-1.217-5.046-.382-2.001.226-3.884.133-5.883-.07-1.516.363-3.248.607-4.743.262-1.61 1.296-2.96 1.859-4.471.35-.94.916-1.801 1.525-2.628" fill="#0062ae"/>
    <path d="M141.387 71.584c1.274-3.92 5.354-2.436 7.904-.748 1.414.936 3.8 4.316 1.89 5.712-.276.903-1.737.573-1.534-.402.066-.319.165-.534.365-.702.063-.114.122-.227.148-.344.301-1.353-1.036-2.477-2.039-3.141-1.402-.929-4.384-2.488-5.176-.051-.314.965-1.875.651-1.558-.324" fill="#0062ae"/>
    <text style="-inkscape-font-specification:Circe" transform="matrix(1 0 0 -1 104.391 6.768)" font-weight="700" font-size="16" font-family="Circe" fill="#12243e">
      <tspan y="0" x="0 11.44 19.472 26.368 35.360001 43.167999 52.16 61.040001 69.071999 77.328003 85.968002 93.087997 100.496 109.552 118.64">Автоконвертация</tspan>
    </text>
    <path d="M287.295 116.883h-.31c-.275 0-.293-.388-.06-.448a22.25 22.25 0 0 0-1.651-2.789c-.17-.246-1.125-1.28-.513-1.513.279-.106.399.34.123.444.254-.096.073-.264.248.034.104.178.226.347.343.517.216.312.438.62.639.941.504.806.964 1.602 1.38 2.468.075.153-.012.346-.2.346M288.918 112.356c-.103-1.952-2.072-3.197-2.164-5.219-.014-.297.45-.296.464 0 .092 2.009 2.059 3.23 2.164 5.219.015.296-.448.295-.464 0M291.09 106.585c-.358-1.232-1.487-2.105-1.553-3.438-.015-.297.45-.296.464 0 .062 1.245 1.195 2.144 1.537 3.315.083.287-.364.408-.447.123M294.483 104.068c-.062-.544-.345-1.117-.66-1.541-.403-.541-.659-1.141-.878-1.774-.097-.282.351-.402.448-.123.268.777.6 1.45 1.177 2.047.157.162.097.472.157.679.071.247.191.454.22.712.033.294-.43.292-.464 0M299.894 101.156v1.07c0 .297-.464.297-.464 0 0-.704.098-1.362-.305-1.97-.296-.452-.57-.862-.622-1.407-.028-.296.436-.293.463 0 .063.644.595 1.176.897 1.726.088.16.03.407.03.581M304.076 100.752c-.346-1.236-1.122-2.27-1.832-3.322-.167-.247.234-.477.4-.232.735 1.085 1.523 2.155 1.88 3.431.078.287-.369.41-.448.123M309.323 99.463c-.056-1.088-.927-2.086-1.514-2.954-.167-.247.235-.477.401-.232.643.952 1.516 1.991 1.577 3.186.015.297-.449.295-.464 0M313.72 100.854c-.215-.216-.4-.426-.541-.697-.145-.277-.113-.592-.276-.862-.387-.644-.834-1.206-1.097-1.92-.104-.278.345-.398.447-.122.226.614.593 1.128.956 1.665.104.152.276.355.288.545.03.465.235.748.55 1.065.212.211-.116.537-.327.326M318.745 103.515c-.052.292-.499.168-.447-.122.228-1.292-1.496-2.382-1.856-3.562-.086-.284.362-.405.448-.122.409 1.343 2.126 2.268 1.855 3.806M322.927 105.91c-.134-1.803-1.017-3.227-1.823-4.795-.136-.264.264-.497.4-.232.865 1.683 1.743 3.097 1.887 5.027.022.296-.442.294-.464 0M301.351 128.71c-1.034-1.033-2.019-2.094-2.829-3.312-.368-.551-.633-1.126-.867-1.741-.279-.73-.433-1.823-.94-2.428-.19-.226.136-.554.327-.326.812.967.9 2.489 1.492 3.61.777 1.477 1.974 2.7 3.146 3.872.21.21-.116.537-.328.326M305.605 132.002c-.854-1.13-1.78-2.233-2.504-3.454-.686-1.16-1.35-2.302-2.134-3.404-.77-1.089-1.527-2.175-2.174-3.344a15.567 15.567 0 0 1-.717-1.476c-.149-.355-.196-.987-.435-1.283-.184-.229.142-.558.328-.326.144.178.191.374.262.592.217.66.461 1.281.775 1.905.6 1.192 1.36 2.287 2.13 3.373a39.82 39.82 0 0 1 2.167 3.386c.77 1.354 1.765 2.558 2.702 3.8.18.236-.223.465-.4.231M307.892 131.97c-.886-.576-1.395-1.331-1.958-2.204-.844-1.304-1.603-2.661-2.426-3.978a87.81 87.81 0 0 0-2.296-3.491c-.766-1.104-1.687-2.12-2.332-3.302a.233.233 0 0 1 .262-.338l.464.115c.261.065.186.426-.04.448.504.776 1.122 1.457 1.644 2.224.7 1.026 1.41 2.037 2.06 3.094.723 1.173 1.45 2.343 2.156 3.525.748 1.249 1.445 2.694 2.698 3.51.25.162.018.56-.233.397M309.663 131.427c-.551-1.154-1.386-2.056-2.085-3.11-.837-1.261-1.598-2.573-2.415-3.848-.697-1.087-1.47-2.126-2.224-3.172-.37-.513-.658-1.06-1.031-1.571-.265-.362-.569-1.371-.973-1.57-.268-.13-.033-.528.234-.396.264.128.338.293.458.568.294.666.734 1.21 1.133 1.816.756 1.146 1.569 2.268 2.35 3.407.856 1.247 1.615 2.558 2.42 3.837.819 1.302 1.866 2.409 2.533 3.807.127.267-.272.5-.4.232M311.67 129.517c-.771-.822-1.302-1.817-1.973-2.717-.565-.757-1.234-1.56-1.564-2.45-.104-.28.346-.398.447-.122.329.887 1.099 1.806 1.679 2.546.618.788 1.047 1.68 1.739 2.417.204.217-.123.544-.328.326M313.41 128.71c-1.389-1.428-2.378-3.147-3.515-4.766-.172-.244.231-.473.401-.232 1.114 1.586 2.08 3.272 3.441 4.673.207.214-.12.54-.328.326M316.008 128.286c-1.88-1.33-3.196-3.166-4.49-5.032-.17-.245.232-.475.4-.232 1.246 1.796 2.514 3.584 4.323 4.867.242.17.01.57-.233.397M317.167 127.25c-.273-.164-.428-.353-.61-.612-.434-.619-.96-1.167-1.411-1.773-.373-.5-.862-.97-1.193-1.495-.255-.407-.551-.67-.891-.99-.158-.148-.691-1.075-.464-.806-.19-.226.136-.553.328-.325.646.767 1.217 1.6 1.855 2.388.437.538.842 1.1 1.28 1.64.333.412.876 1.297 1.339 1.577.256.153.023.55-.233.397M317.815 125.603c-1.376-1.381-2.193-3.179-3.283-4.767-.168-.245.234-.475.4-.232 1.068 1.555 1.862 3.321 3.211 4.673.21.212-.118.537-.328.326M304.678 120.722c-.686-1.19-1.587-2.286-1.771-3.685-.038-.293.426-.29.464 0 .17 1.297 1.074 2.352 1.707 3.453.149.258-.252.489-.4.232M306.07 119.34c-.37-.545-.759-1.075-1.075-1.653-.29-.53-.628-1.043-.805-1.625-.086-.285.361-.406.447-.122.183.6.564 1.161.865 1.711.28.51.64.976.967 1.457.168.246-.234.477-.4.232M308.424 118.811c-1.092-.972-2.044-1.968-2.378-3.44-.065-.288.382-.411.447-.122.318 1.398 1.222 2.314 2.259 3.236.224.2-.105.523-.328.326M310.51 118.351c-.936-.957-1.634-2.084-2.237-3.27-.135-.264.264-.497.4-.232.586 1.151 1.255 2.247 2.166 3.176.208.213-.12.54-.328.326M311.486 117.267c-.059-.593-.628-1.21-.928-1.714a15.78 15.78 0 0 0-1.322-1.922c-.188-.228.14-.556.327-.325.574.704 1.068 1.461 1.53 2.241.334.564.79 1.05.857 1.72.03.295-.435.293-.464 0M314.105 116.74c-2.174-2.18-3.959-4.656-5.912-7.022-.847-1.027-1.754-2.039-2.442-3.18-.503-.83-1.52-1.584-1.676-2.563-.047-.29.4-.415.447-.122.104.646.555.856.903 1.326.336.453.612.937.902 1.418.755 1.25 1.84 2.356 2.76 3.486 1.753 2.147 3.382 4.361 5.345 6.331.211.211-.117.536-.327.325M315.612 115.473c-.108-.124-.146-.185-.17-.31-.27-.437-.778-.846-1.11-1.187-.556-.572-1.059-1.17-1.572-1.78-.948-1.132-1.894-2.26-2.753-3.46-.757-1.055-1.403-2.116-2.09-3.209-.584-.924-1.4-1.532-1.755-2.588-.095-.282.352-.402.447-.122.357 1.068 1.291 1.82 1.89 2.765.694 1.105 1.38 2.184 2.143 3.251.908 1.268 1.95 2.44 2.948 3.638.731.877 1.965 1.72 2.41 2.778.09.215-.242.391-.388.224M317.06 114.45c-.172-.41-.841-1.066-1.1-1.38-.403-.485-.802-.963-1.19-1.461-.745-.956-1.526-1.884-2.262-2.847-.828-1.083-1.548-2.245-2.346-3.35-.44-.607-.794-1.264-1.274-1.846-.238-.29-.51-.387-.64-.741-.102-.28.346-.4.448-.123.122.335.58.565.788.867.366.532.683 1.1 1.077 1.61.834 1.083 1.531 2.255 2.347 3.35.793 1.065 1.668 2.066 2.474 3.12.644.842 1.717 1.704 2.124 2.68.115.274-.333.392-.447.122M317.523 112.609c-.14-.472-.682-.86-.96-1.245-.406-.567-.823-1.124-1.236-1.686-.794-1.083-1.787-2.003-2.533-3.115-.167-.248.235-.478.4-.232.741 1.104 1.725 2.053 2.534 3.114.57.747 1.084 1.558 1.72 2.249.232.253.424.46.522.792.085.286-.362.407-.447.123M298.046 113.3c-.304-.732-.55-1.484-.815-2.23-.213-.597-.286-1.291-.553-1.86-.125-.266.274-.5.4-.231.244.517.316 1.12.489 1.666.268.852.583 1.708.926 2.532.115.275-.334.393-.447.123M300.425 113.516c-.907-.86-1.418-1.957-2.008-3.04-.474-.87-.967-2.006-1.075-2.993-.031-.295.433-.292.464 0 .1.932.74 2.264 1.183 3.075.518.951.964 1.873 1.763 2.633.217.205-.111.53-.327.325M302.28 112.48c-1.237-1.487-2.456-3.4-3.006-5.288a.205.205 0 0 1-.077-.17v-.114c0-.26.39-.314.455-.061.488 1.858 1.732 3.838 2.955 5.308.19.227-.138.555-.328.326M303.495 110.882c-.087-.372-.373-.562-.556-.866-.3-.496-.593-.996-.87-1.506-.445-.819-1.041-1.534-1.24-2.462-.063-.29.385-.414.447-.123.21.978.896 1.805 1.367 2.674.379.698 1.117 1.383 1.299 2.16.069.29-.379.412-.447.123M305.582 110.191c-.08-.243-.458-.668-.593-.912-.215-.39-.507-.748-.774-1.105-.514-.682-.855-1.56-1.276-2.302-.147-.259.253-.49.4-.232.486.854.892 1.792 1.483 2.578a9.1 9.1 0 0 1 .72 1.105c.159.29.384.43.487.746.092.283-.356.404-.447.122M292.736 130.966c-.138-.25-.385-.42-.58-.626a1.3 1.3 0 0 1-.379-.872c-.01-.296.452-.295.464 0 .021.567.645.81.895 1.266.144.26-.256.493-.4.232M295.055 131.196c-.26-.49-.695-.917-.727-1.497-.016-.297.448-.295.464 0 .026.466.453.868.663 1.265.14.262-.26.495-.4.232M321.002 118.25c-.233-.698-.455-1.394-.472-2.134-.007-.297.456-.296.463 0 .017.698.237 1.355.456 2.01.095.284-.353.404-.447.124M323.576 117.383a8.214 8.214 0 0 1-.95-1.896c-.098-.283.35-.403.446-.123.221.644.527 1.221.903 1.787.166.25-.235.48-.399.232M325.167 116.116c0-.566.04-1.198-.2-1.726-.122-.268.277-.502.4-.232.28.613.264 1.298.264 1.958 0 .297-.464.297-.464 0" fill="#12243e"/>
    <path d="M312.267 105.299c-.015 1.187-1.869 1.188-1.855 0 .01-.854.134-1.756-.683-2.346-.566-.408-1.517-.306-2.175-.304-1.84.007-2.707 1.153-2.707 2.88 0 1.188-1.855 1.188-1.855 0 0-2.455 1.428-4.704 4.173-4.72 1.33-.007 2.68-.038 3.8.77 1.225.884 1.318 2.348 1.302 3.72M314.55 115.85c-.107.013-.103-.01.24-.057-.028.01-.058.018-.088.026-.05.01-.101.017-.152.03" fill="#12243e"/>
    <path d="M307.862 123.141c.94.111 2.931-.145 3.366-1.216.007-.208.051-.384.155-.55.073-.198.176-.379.315-.54.523-.78 1.54-1.127 2.41-1.345 1.854-.464 5.727-.21 5.768 2.443.035 2.265-.073 4.13-1.77 5.875-1.744 1.794-5.088 2.346-7.462 2.354-1.197.004-1.196-1.837 0-1.84 2.323-.009 7.207-.879 7.32-3.973.02-.57.157-1.073.1-1.668-.133-1.38-1.448-1.465-2.499-1.465-.303 0-2.335.144-2.385.544a.904.904 0 0 1-.088.373.996.996 0 0 1-.046.216c-.776 2.31-3.524 2.83-5.704 2.572-.97-.114-2.269-.83-2.715-1.728-.36-.724-.88-2.216-.088-2.89 2.383-2.028 5.562-2.446 8.328-3.748a.927.927 0 0 1 .43-.288c.408-.135.827-.312 1.252-.418.04-.004.094-.015.153-.03.077-.015.154-.035.231-.045l-.142.02a.58.58 0 0 0 .182-.096c.465-.39.983-.894 1.61-1.395 1.912-1.532 1.485-4.827-.046-6.362-1.072-1.074-3.029-1.629-4.594-1.705-.547.207-1.299-.065-1.299-.822v-.115c0-.502.422-.92.927-.92 4.308 0 8.883 2.85 8.083 7.611-.549 3.273-2.604 4.824-5.126 5.788a8.762 8.762 0 0 1-1.898.841c-1.867.56-3.719 1.322-5.49 2.124-1.59.72-.924 2.203.722 2.398M299.981 118.692c.107-.014.103.009-.242.056a.996.996 0 0 1 .09-.026c.05-.011.101-.018.152-.03" fill="#12243e"/>
    <path d="M306.669 111.4c-.941-.111-2.931.145-3.366 1.216a1.074 1.074 0 0 1-.156.55 1.744 1.744 0 0 1-.315.54c-.522.78-1.54 1.127-2.41 1.344-1.854.465-5.727.21-5.767-2.442-.035-2.265.072-4.13 1.77-5.875 1.743-1.794 5.087-2.347 7.462-2.355 1.196-.004 1.195 1.838 0 1.842-2.324.008-7.208.878-7.32 3.972-.02.569-.158 1.073-.101 1.668.134 1.38 1.449 1.464 2.499 1.464.304 0 2.335-.143 2.386-.543 0-.132.034-.255.088-.373.006-.07.02-.141.045-.217.776-2.31 3.525-2.83 5.704-2.571.97.114 2.269.83 2.715 1.728.36.724.88 2.216.088 2.89-2.383 2.028-5.561 2.445-8.328 3.748a.924.924 0 0 1-.43.288c-.407.135-.826.312-1.251.418a.999.999 0 0 0-.154.03c-.077.015-.154.035-.231.045l.142-.02a.625.625 0 0 0-.182.095c-.465.39-.983.895-1.61 1.396-1.911 1.532-1.484 4.827.047 6.362 1.07 1.074 3.028 1.629 4.594 1.705.546-.207 1.299.065 1.299.822v.115a.933.933 0 0 1-.928.92c-4.307 0-8.882-2.85-8.083-7.611.55-3.273 2.605-4.824 5.127-5.788a8.72 8.72 0 0 1 1.898-.841c1.867-.56 3.719-1.322 5.49-2.124 1.59-.72.924-2.203-.722-2.398" fill="#12243e"/>
    <path d="M311.746 129.415c-.121 1.199.02 2.369-.932 3.313-1.022 1.015-2.593 1.249-3.966 1.227-1.232-.02-3.067-.21-3.99-1.126-.862-.856-.909-2.402-.909-3.53 0-1.187 1.855-1.187 1.855 0 0 1.838.646 2.73 2.608 2.763.835.015 1.483.06 2.305-.197 1.206-.38 1.072-1.44 1.174-2.45.118-1.17 1.974-1.182 1.855 0" fill="#12243e"/>
    <path d="M328.298 116.054c-.05-1.028-.545-1.838-.64-2.832-.157-1.651-.288-3.223-.756-4.826-.79-2.7-3.412-5.268-5.796-6.69-2.642-1.572-4.908-2.99-7.998-3.566-2.761-.514-6.28-.668-9.04-.157-2.723.506-5.615 1.629-8.227 2.559-3.182 1.13-5.91 2.828-7.877 5.634-.67.957-.883 2.306-1.363 3.376-.668 1.488-1.017 3.436-1.186 5.046-.317 3.028-.177 5.83.404 8.808.28 1.437.726 2.474 1.529 3.693.865 1.312 1.004 2.675 2.12 3.897 2.227 2.438 4.819 3.26 7.75 4.52 2.585 1.113 5.338 1.007 8.046 1.428a.91.91 0 0 1 .529-.171c2.306 0 4.456-.24 6.734-.452 1.4-.132 2.409-.877 3.686-1.357.593-.223 2.848-1.088 3.272-1.65 1.289-1.705 3.726-2.145 4.985-3.913 1.393-1.956 2.535-3.85 3.268-6.14.802-2.505.683-4.616.56-7.207m1.8 5.829c-.72 2.43-1.41 4.542-2.867 6.607-1.45 2.052-2.356 3.422-4.58 4.783-.317.195-1.356.695-1.565.972-.18.237-.398.627-.68.79-1.283.747-2.784 1.304-4.15 1.91-3.25 1.445-6.35 1.65-9.855 1.668a1.007 1.007 0 0 1-.691.195.986.986 0 0 1-.395.004c-2.841-.525-5.72-.28-8.451-1.454-3.11-1.337-5.697-2.15-8.19-4.538-1.91-1.83-3.047-4.474-4.087-6.863-1.185-2.725-1.377-6.016-1.136-8.937.417-5.028 1.17-12.001 5.874-15.114 2.45-1.622 4.656-2.686 7.44-3.633 3.015-1.026 6.284-2.263 9.492-2.351 6.086-.168 11.783.919 16.655 4.746 2.013 1.58 3.865 3.372 5.116 5.62 1.439 2.588 1.11 5.639 2.01 8.36.347 1.05.167 2.427.242 3.52.088 1.265.182 2.489-.181 3.715M319.6 73.685c-.978 1.174-2.134 2.279-3.414 3.124-.448.295-1.085.394-1.597.564-.72.243-1.39.396-2.136.536-1.51.284-2.998.369-4.537.4-.7.014-1.412-.17-2.1-.273-.762-.116-1.538-.212-2.274-.446a25.225 25.225 0 0 1-3.88-1.57c-1.172-.601-2.126-1.775-2.809-2.868a8.15 8.15 0 0 1-1.158-3.172.32.32 0 0 1-.135-.273c0-.288.018-.58-.04-.864-.045-.21-.096-.41-.12-.618a.351.351 0 0 1-.018-.106v-.088c0-.457.695-.453.711 0 .01.249.081.482.133.724.045.216.05.438.047.659a.356.356 0 0 1 .087.206c.246 2.473 1.906 4.93 4.157 5.988.607.285 1.17.577 1.805.82.54.207 1.093.38 1.644.556 1.186.377 2.71.584 3.95.618 1.34.037 2.767-.051 4.078-.32.534-.11 1.087-.16 1.606-.325.576-.182 1.141-.435 1.725-.583 1.222-.31 2.346-1.641 3.196-2.532 1.014-1.063 1.548-2.131 1.575-3.604.008-.455.72-.456.711 0-.024 1.31-.358 2.424-1.208 3.447" fill="#12243e"/>
    <path d="M295.732 67.19h-.018a.828.828 0 0 0-.832.84c0 .173.013.255.038.34.003.09.041.256.078.428l.032.147c.037.177.034.378.031.59v.173a.84.84 0 0 0 .163.503 8.645 8.645 0 0 0 1.205 3.206c.92 1.471 1.932 2.497 3.006 3.047a25.74 25.74 0 0 0 3.955 1.603c.683.217 1.386.32 2.067.422l.283.04c.186.03.374.063.562.098.526.093 1.086.193 1.624.181 1.351-.027 2.955-.097 4.62-.409.627-.118 1.38-.276 2.203-.552.144-.049.3-.09.46-.134.41-.11.873-.237 1.252-.488 1.24-.816 2.424-1.9 3.523-3.222.875-1.053 1.295-2.248 1.323-3.757.008-.477-.35-.842-.834-.85-.488.008-.869.357-.877.832-.023 1.275-.439 2.223-1.437 3.268l-.309.328c-.762.814-1.709 1.827-2.648 2.064-.37.094-.733.227-1.095.361-.219.082-.438.162-.658.232-.308.098-.637.151-.986.21-.19.031-.38.062-.57.102-1.178.241-2.554.347-3.963.308-1.309-.034-2.77-.263-3.812-.593l-.11-.036a26.408 26.408 0 0 1-1.506-.511c-.46-.176-.88-.379-1.31-.586l-.462-.22c-2.049-.963-3.642-3.259-3.873-5.585a.845.845 0 0 0-.084-.3c-.002-.19-.013-.4-.058-.618l-.045-.195c-.034-.147-.072-.29-.077-.445a.842.842 0 0 0-.86-.823" fill="#12243e"/>
    <path d="M320.198 70.684c-.16-.52-.097-1.025-.53-1.433-.485-.454-1.129-.574-1.755-.703-1.186-.244-3.22-.376-3.608 1.165-.112.442-.797.254-.686-.187.385-1.53 2.325-2.063 3.726-1.836.863.14 1.818.342 2.55.83.776.518.742 1.184.99 1.977.133.436-.553.62-.687.187" fill="#12243e"/>
    <path d="M316.68 67.137c-1.565 0-3.167.764-3.546 2.267-.115.46.16.915.63 1.034.469.117.91-.141 1.026-.602.308-1.22 2.216-.965 3.023-.8.619.129 1.147.238 1.513.58.174.164.214.35.277.693.03.172.063.347.118.523.09.294.32.51.616.576a.897.897 0 0 0 .85-.256.813.813 0 0 0 .175-.803c-.053-.171-.091-.333-.13-.49-.146-.613-.297-1.245-1.06-1.754-.808-.54-1.842-.763-2.746-.908a4.634 4.634 0 0 0-.746-.06M295.827 68.295h-1.755c-.509 0-.979.119-1.493.056-1.052-.13-1.02-1.066-1.02-1.896 0-.66-.086-1.98.773-2.204 1.016-.265 2.092-.281 3.14-.281.458 0 .458.707 0 .707-.602 0-1.182.053-1.779.088a5.778 5.778 0 0 0-.996.12c-.56.129-.426 1.167-.426 1.57 0 .387-.14 1.135.494 1.213.305.037.6-.022.902-.056.708-.08 1.448-.023 2.16-.023.458 0 .458.706 0 .706" fill="#12243e"/>
    <path d="M295.472 63.47c-1.12 0-2.211.022-3.266.298-1.17.304-1.155 1.748-1.147 2.523v.164c0 .872-.002 2.213 1.46 2.392.366.044.69.013 1.008-.017.179-.017.36-.035.546-.035h1.754a.83.83 0 0 0 .844-.853.83.83 0 0 0-.844-.853c-.204 0-.411-.005-.62-.01-.52-.011-1.06-.024-1.595.037l-.203.025c-.217.027-.408.052-.582.03-.082-.073-.068-.378-.062-.51l.007-.206-.006-.227c-.008-.185-.03-.75.075-.873.277-.052.576-.073.882-.091l.46-.03c.429-.03.853-.057 1.289-.057a.83.83 0 0 0 .844-.853.831.831 0 0 0-.844-.854M308.249 66.618c-.033.775-.51 1.73-1.385 1.76-1.36.042-2.771.261-4.121-.007-.45-.09-.26-.77.189-.682.785.157 1.633.076 2.43.076.928 0 2.043 0 2.176-1.147.039-.34.012-.699-.001-1.04-.026-.793-.676-.946-1.321-.99-.98-.068-1.985-.007-2.97 0a.357.357 0 0 1-.231.09h-.267a.359.359 0 0 1-.355-.355c0-.192.162-.353.355-.353h.122a.333.333 0 0 1 .234-.088c1.418 0 2.876-.109 4.28.132 1.023.176.894 1.917.865 2.604" fill="#12243e"/>
    <path d="M305.132 63.357c-.345 0-.687.006-1.027.013-.335.006-.668.011-1 .011a.867.867 0 0 0-.384.088.855.855 0 0 0 .027 1.707h.267a.86.86 0 0 0 .38-.09c.249-.003.499-.009.75-.014.675-.017 1.372-.03 2.037.014.84.058.848.287.855.508l.008.186a5.06 5.06 0 0 1-.004.78c-.07.6-.5.705-1.678.705-.206 0-.414.005-.623.01-.576.014-1.176.03-1.711-.076a.856.856 0 0 0-.818.274.902.902 0 0 0-.182.863c.093.27.323.466.617.525 1.059.211 2.133.141 3.172.072.356-.022.71-.046 1.062-.056 1.153-.038 1.823-1.18 1.869-2.238l-.5-.02.504-.078c.038-.83.128-2.777-1.284-3.02-.775-.133-1.561-.164-2.337-.164M295.827 62.48h-1.755c-.509 0-.979.12-1.493.057-1.052-.13-1.02-1.067-1.02-1.897 0-.66-.086-1.98.773-2.203 1.016-.266 2.092-.28 3.14-.28.458 0 .458.705 0 .705-.602 0-1.182.054-1.779.088a5.88 5.88 0 0 0-.996.122c-.56.127-.426 1.166-.426 1.568 0 .388-.14 1.135.494 1.213.305.037.6-.022.902-.056.708-.08 1.448-.022 2.16-.022.458 0 .458.705 0 .705" fill="#12243e"/>
    <path d="M295.472 57.656c-1.121 0-2.215.022-3.266.298-1.17.303-1.155 1.747-1.147 2.522v.164c0 .872-.001 2.213 1.46 2.392.364.047.69.014 1.009-.017.179-.017.359-.035.545-.035h1.754a.83.83 0 0 0 .844-.853.83.83 0 0 0-.844-.853c-.204 0-.41-.005-.617-.01-.525-.01-1.064-.023-1.6.037l-.203.025c-.217.028-.405.055-.581.031-.081-.074-.067-.379-.061-.509l.007-.208-.006-.227c-.008-.185-.03-.748.075-.873a7.25 7.25 0 0 1 .882-.09l.488-.032c.419-.028.834-.056 1.26-.056a.83.83 0 0 0 .845-.852.831.831 0 0 0-.844-.854M308.249 60.804c-.033.775-.51 1.73-1.385 1.759-1.36.044-2.771.262-4.121-.006-.45-.09-.26-.77.189-.681.785.156 1.633.075 2.43.075.928 0 2.043 0 2.176-1.147.039-.341.012-.7-.001-1.04-.026-.793-.676-.946-1.321-.99-.98-.067-1.985-.007-2.97-.001a.357.357 0 0 1-.231.09h-.267a.359.359 0 0 1-.355-.354c0-.192.162-.352.355-.352h.122a.329.329 0 0 1 .234-.09c1.418 0 2.876-.108 4.28.133 1.023.176.894 1.917.865 2.604" fill="#12243e"/>
    <path d="M305.132 57.543c-.345 0-.687.006-1.027.013-.335.006-.668.011-1 .011a.855.855 0 0 0-.385.089.856.856 0 0 0-.827.853c0 .471.384.853.855.853h.267a.847.847 0 0 0 .38-.09c.249-.003.498-.009.748-.014.675-.016 1.374-.03 2.039.014.84.057.848.287.855.508l.008.186c.012.265.024.539-.004.781-.068.598-.5.704-1.677.704-.207 0-.415.005-.625.011-.577.015-1.177.029-1.711-.076a.869.869 0 0 0-1.025.695.803.803 0 0 0 .643.966c1.06.211 2.135.14 3.174.073.356-.023.71-.047 1.06-.057 1.153-.038 1.823-1.181 1.869-2.238l-.5-.021.504-.076c.038-.831.128-2.778-1.284-3.021-.775-.133-1.561-.164-2.337-.164M296.347 62.214c-.055.707-.164 1.393-.164 2.109 0 .455-.711.455-.711 0 0-.78.13-1.521.178-2.295.027-.451.71-.46.71 0v.088a.374.374 0 0 1-.013.098" fill="#12243e"/>
    <path d="M296.015 61.187a.852.852 0 0 0-.865.812c-.019.291-.049.581-.079.87-.049.468-.1.952-.1 1.455 0 .478.368.84.856.84.487 0 .855-.362.855-.84 0-.45.046-.889.094-1.352.023-.224.047-.449.065-.676l.02-.18c0-.553-.352-.915-.817-.929h-.029M302.481 64.323v-1.635c0-.16-.069-.319-.089-.483-.053-.452.658-.446.712 0 .014.123.09.224.09.352v1.766c0 .455-.713.455-.713 0" fill="#12243e"/>
    <path d="M302.706 61.368a.942.942 0 0 0-.106.006.787.787 0 0 0-.705.89c.012.09.033.18.055.268a.894.894 0 0 1 .031.156v1.635c0 .48.369.841.856.841.488 0 .856-.36.856-.84v-1.767c0-.159-.046-.284-.076-.366-.076-.548-.501-.823-.911-.823M314.349 69.99c-.132.137-.191.337-.266.508-.113.253-.466.546-.653.755-.449.502-1.36.608-1.963.84-1.245.474-2.856.433-4.157.31-1.21-.116-2.476-.33-3.534-.964-1.045-.626-1.256-2.087-1.256-3.159 0-.504.788-.504.788 0 0 .677.015 1.248.392 1.84.415.652.81.846 1.55 1.106.944.333 2.005.443 2.999.443 1.034 0 2.009-.06 3.01-.332.584-.159 1.42-.42 1.812-.858.23-.258.366-.573.56-.845a.364.364 0 0 1 .374-.31h.066c.347 0 .513.422.277.666" fill="#12243e"/>
    <path d="M313.99 69.643zm-11.076-2.24a.91.91 0 0 0-.595.215.856.856 0 0 0-.299.663c0 1.76.52 3 1.5 3.588 1.181.707 2.555.919 3.742 1.032 1.882.179 3.315.067 4.384-.342.16-.062.343-.112.532-.166.567-.16 1.207-.34 1.625-.807.048-.053.11-.113.173-.177.21-.207.446-.442.564-.708l.053-.13c.036-.087.08-.196.116-.235a.889.889 0 0 0 .177-.97.885.885 0 0 0-.816-.543c-.455 0-.782.236-.899.599-.065.096-.124.196-.184.296-.087.148-.172.298-.29.429-.333.373-1.264.625-1.569.709-1.018.275-2.027.312-2.879.312-1.103 0-2.056-.138-2.833-.413-.674-.237-.96-.378-1.295-.903-.292-.46-.314-.9-.314-1.571 0-.501-.383-.878-.893-.878M319.6 52.912c-.978-1.175-2.134-2.28-3.414-3.124-.448-.295-1.085-.394-1.597-.565a15.41 15.41 0 0 0-2.136-.535c-1.51-.284-2.998-.37-4.537-.4-.7-.014-1.412.17-2.1.272-.762.116-1.538.212-2.274.447a25.125 25.125 0 0 0-3.88 1.57c-1.172.6-2.126 1.775-2.809 2.868a8.14 8.14 0 0 0-1.158 3.171.323.323 0 0 0-.135.273c0 .29.018.58-.04.864-.045.21-.096.41-.12.62a.345.345 0 0 0-.018.104v.09c0 .455.695.452.711 0 .01-.25.081-.483.133-.725.045-.216.05-.438.047-.659a.36.36 0 0 0 .087-.206c.246-2.474 1.906-4.93 4.157-5.988.607-.285 1.17-.577 1.805-.82.54-.208 1.093-.38 1.644-.557 1.186-.377 2.71-.584 3.95-.618 1.34-.037 2.767.052 4.078.32.534.11 1.087.16 1.606.325.576.183 1.141.435 1.725.584 1.222.31 2.346 1.641 3.196 2.532 1.014 1.063 1.548 2.13 1.575 3.604.008.455.72.456.711 0-.024-1.31-.358-2.424-1.208-3.447" fill="#12243e"/>
    <path d="M307.842 47.787c-.525 0-1.038.093-1.534.183-.191.034-.38.068-.567.096l-.287.043c-.68.1-1.383.204-2.063.421a25.58 25.58 0 0 0-3.955 1.602c-1.074.55-2.086 1.575-3.006 3.05a8.61 8.61 0 0 0-1.205 3.203.833.833 0 0 0-.164.504v.172c.004.212.007.414-.031.59l-.032.15a5.035 5.035 0 0 0-.094.51.44.44 0 0 0-.021.166c0 .56.357.921.832.93.474.003.86-.345.879-.822.005-.154.043-.299.077-.445l.045-.194a3.21 3.21 0 0 0 .058-.62.86.86 0 0 0 .085-.303c.23-2.323 1.823-4.62 3.872-5.582l.46-.219c.429-.206.85-.41 1.31-.586.48-.186.972-.342 1.462-.497l.156-.05c1.04-.33 2.5-.559 3.812-.595 1.41-.044 2.782.067 3.963.311.189.038.38.07.57.101.35.057.679.111.985.21.22.07.44.15.66.232.362.132.724.265 1.093.36.939.237 1.886 1.25 2.648 2.062l.31.33c.996 1.046 1.413 1.993 1.437 3.268a.832.832 0 0 0 .877.833.825.825 0 0 0 .834-.85c-.028-1.51-.448-2.705-1.323-3.758-1.1-1.322-2.285-2.406-3.523-3.223-.38-.249-.843-.375-1.251-.486-.16-.044-.316-.086-.462-.135a15.79 15.79 0 0 0-2.203-.552c-1.663-.313-3.268-.383-4.62-.409h-.084" fill="#12243e"/>
    <path d="M320.198 55.913c-.16.52-.097 1.024-.53 1.433-.485.453-1.129.574-1.755.703-1.186.243-3.22.376-3.608-1.165-.112-.442-.797-.255-.686.187.385 1.53 2.325 2.062 3.726 1.835.863-.139 1.818-.342 2.55-.83.776-.517.742-1.183.99-1.976.133-.436-.553-.622-.687-.187" fill="#12243e"/>
    <path d="M320.532 55.166a.84.84 0 0 0-.812.6 4.479 4.479 0 0 0-.118.522c-.062.343-.102.529-.278.693-.364.342-.894.451-1.454.566-.863.177-2.775.432-3.079-.785a.828.828 0 0 0-1.028-.603.848.848 0 0 0-.629 1.034c.44 1.744 2.516 2.497 4.292 2.206.95-.153 1.941-.37 2.747-.907.762-.509.913-1.141 1.06-1.754.037-.157.075-.32.128-.489a.81.81 0 0 0-.175-.804.9.9 0 0 0-.654-.279" fill="#12243e"/>
    <path d="M314.349 56.606c-.132-.138-.191-.338-.266-.508-.113-.253-.466-.546-.653-.755-.449-.502-1.36-.608-1.963-.839-1.245-.476-2.856-.434-4.157-.31-1.21.115-2.476.33-3.534.963-1.045.625-1.256 2.087-1.256 3.16 0 .503.788.503.788 0 0-.679.015-1.249.392-1.84.415-.654.81-.847 1.55-1.107.944-.333 2.005-.443 2.999-.443 1.034 0 2.009.06 3.01.331.584.16 1.42.422 1.812.858.23.26.366.574.56.846.03.165.156.311.374.311h.066c.347 0 .513-.424.277-.667" fill="#12243e"/>
    <path d="M308.872 53.614c-.496 0-1.031.027-1.609.082-1.187.113-2.56.324-3.744 1.032-.98.586-1.499 1.827-1.499 3.588 0 .501.384.878.894.878s.894-.377.894-.878c0-.672.021-1.112.313-1.57.334-.528.62-.666 1.295-.904.778-.275 1.731-.415 2.833-.415.852 0 1.86.038 2.879.314.306.083 1.237.337 1.57.71.116.13.202.28.289.427.06.1.119.2.184.297a.853.853 0 0 0 .834.598c.423 0 .743-.213.883-.543a.893.893 0 0 0-.179-.97 1.047 1.047 0 0 1-.115-.235l-.053-.127c-.119-.267-.355-.502-.563-.709-.065-.064-.126-.124-.174-.179-.418-.466-1.059-.647-1.625-.807-.19-.054-.373-.105-.533-.165-.74-.283-1.656-.424-2.774-.424M301.088 75.23c-2.465-3.253-4.387-7.166-7.246-10.075-.23-.233.129-.592.359-.36 2.898 2.95 4.83 6.886 7.325 10.178.199.26-.243.514-.438.256M305.582 77.291c-3.254-4.237-6.36-8.576-9.595-12.813-.198-.26.242-.514.439-.257 1.29 1.69 2.718 3.242 3.95 5.042a178.125 178.125 0 0 0 5.644 7.771c.2.26-.242.513-.438.257M307.726 77.242c-2.616-1.56-4.02-5.384-5.493-7.92-2.284-3.934-5.796-6.92-8.724-10.367-.21-.248.148-.609.36-.359 2.294 2.702 5.084 5.085 7.195 7.922 2.185 2.936 3.677 8.352 6.92 10.285.28.168.025.607-.257.44M310.179 77.209c-1.054-1.851-2.43-3.485-3.743-5.154-.2-.255.157-.617.359-.36 1.339 1.701 2.748 3.37 3.822 5.257.163.285-.276.541-.438.257M313.105 76.45c-.306-.67-1.066-1.3-1.568-1.836a46.052 46.052 0 0 0-1.748-1.76c-.238-.226.122-.586.36-.359a45.327 45.327 0 0 1 1.935 1.961c.477.516 1.166 1.092 1.46 1.736.135.295-.302.554-.439.257M315.119 75.651a16.394 16.394 0 0 0-2.602-3.61c-.225-.239.133-.598.36-.36a16.93 16.93 0 0 1 2.68 3.713c.155.288-.285.546-.438.257M317.571 74.315c-.419-1.253-1.38-1.669-2.296-2.484-.689-.614-1.196-1.396-1.665-2.183-.168-.282.272-.538.44-.257.714 1.203 1.498 2 2.616 2.832.684.51 1.126 1.152 1.395 1.957.104.311-.386.445-.49.135M318.614 73.156c-.706-.829-1.412-1.658-2.163-2.446-.643-.674-1.332-1.294-1.895-2.04-.197-.262.245-.515.44-.257.598.794 1.361 1.45 2.038 2.176a61.544 61.544 0 0 1 1.938 2.208c.212.247-.146.608-.358.36M319.412 71.475l-2.002-2.236c-.218-.243.141-.604.359-.36.667.745 1.335 1.49 2.002 2.237.218.242-.14.603-.359.359M304.062 67.593c-1.572-1.088-2.656-2.837-3.916-4.258-1.483-1.673-3.032-3.286-4.579-4.9-.227-.235.132-.595.36-.36 1.392 1.454 2.785 2.905 4.131 4.4 1.367 1.52 2.574 3.513 4.261 4.68.267.184.014.625-.257.438M306.576 67.814c-2.425-4.883-5.97-8.421-9.809-12.198-.234-.231.126-.59.36-.36 3.896 3.833 7.43 7.352 9.887 12.302.145.291-.292.55-.438.255" fill="#12243e"/>
    <path d="M306.741 61.836a66.722 66.722 0 0 1-8.399-8.206c-.212-.247.145-.608.36-.36a66.859 66.859 0 0 0 8.398 8.207c.253.208-.108.565-.359.359M304.248 55.605c-1.529-1.081-3.165-2.3-4.12-3.945-.165-.283.274-.54.438-.256.907 1.56 2.489 2.737 3.939 3.763.264.187.012.628-.257.439M305.726 54.397c-.326-.597-.885-1.067-1.237-1.666-.39-.663-.736-1.355-1.099-2.033-.153-.29.285-.546.44-.257.362.679.708 1.37 1.097 2.033.355.603.907 1.062 1.237 1.666.158.287-.28.544-.438.257M307.695 53.998c-.676-1.673-1.663-3.46-1.9-5.263-.044-.323.464-.32.507 0 .231 1.747 1.227 3.504 1.883 5.128.122.303-.369.435-.49.135M311.577 54.727c-.359-.446-.626-.951-.98-1.396-.414-.516-.942-.898-1.425-1.341-.9-.825-1.654-1.776-2.298-2.81-.174-.277.266-.533.438-.256a13.073 13.073 0 0 0 2.487 2.945c.896.787 1.396 1.58 2.137 2.499.203.252-.154.613-.359.359M316.542 58.096c-.985-3.305-3.255-5.863-5.543-8.354-.221-.24.138-.6.359-.36 2.35 2.558 4.663 5.187 5.674 8.579.094.314-.396.448-.49.135M319.195 57.883c-.498-1.577-1.463-2.6-2.283-3.981-.655-1.105-.967-2.334-1.938-3.232-.24-.223.12-.581.36-.36 1.003.927 1.338 2.189 2.017 3.335.835 1.409 1.83 2.509 2.334 4.102.1.313-.39.447-.49.136M293.611 75.783l-.419-.324c-.258-.2.105-.558.36-.36.14.11.28.216.418.325.258.2-.103.557-.359.36M294.054 74.384a6.9 6.9 0 0 1-3.03-1.222c-.263-.188-.01-.63.258-.438a6.567 6.567 0 0 0 2.908 1.17c.322.048.184.537-.136.49M287.376 59.292a11.897 11.897 0 0 1-1.347-2.141c-.141-.293.296-.55.44-.256.35.723.77 1.405 1.266 2.038.2.255-.157.617-.36.359M288.506 56.922a22.303 22.303 0 0 1-1.861-3.525c-.127-.301.364-.433.49-.135a21.575 21.575 0 0 0 1.809 3.403c.18.276-.26.53-.438.257M290.595 52.916a3.076 3.076 0 0 1-1.378-1.952c-.071-.319.419-.455.489-.136a2.567 2.567 0 0 0 1.145 1.649c.275.175.02.616-.256.439M293.767 50.096a4.442 4.442 0 0 1-.512-1.626c-.038-.324.47-.321.508 0 .059.49.207.936.442 1.37.157.287-.283.544-.438.256M297.126 48.237l-1.805-1.689c-.24-.225.12-.583.36-.36l1.804 1.69c.24.223-.12.583-.36.36M302.712 46.05a9.527 9.527 0 0 1-2.413-1.595c-.243-.22.117-.578.359-.36a9.114 9.114 0 0 0 2.31 1.518c.297.136.039.575-.256.438M308.691 45.696l-2.313-1.778c-.52-.4-1.13-.748-1.362-1.392-.11-.309.381-.44.49-.136.238.666 1.22 1.16 1.76 1.574l1.681 1.294c.256.196.003.637-.256.438M312.585 45.13l-.836-1.59c-.152-.29.286-.546.439-.256l.836 1.589c.153.289-.286.547-.44.257M322.822 65.657l-.946-1.063c-.217-.245.14-.605.36-.36l.945 1.064c.217.243-.14.604-.359.36M326.081 64.943l-.425-.316c-.26-.194-.007-.635.256-.439l.425.317c.26.193.007.634-.256.438" fill="#12243e"/>
    <path d="M325.068 64.38a13.043 13.043 0 0 1-1.969-2.26c-.186-.27.254-.524.44-.256.545.793 1.175 1.51 1.888 2.158.243.22-.118.579-.359.359" fill="#12243e"/>
    <path d="M329.179 62.054c-.05-1.028-.545-1.838-.64-2.832-.157-1.651-.288-3.223-.756-4.826-.788-2.7-3.412-5.268-5.796-6.69-2.642-1.572-4.908-2.991-7.998-3.566-2.761-.515-6.28-.668-9.04-.157-2.723.506-5.615 1.63-8.227 2.558-3.182 1.132-5.91 2.828-7.877 5.635-.67.957-.883 2.307-1.363 3.376-.668 1.488-1.017 3.436-1.186 5.047-.317 3.027-.177 5.829.404 8.807.28 1.437.726 2.474 1.529 3.693.865 1.31 1.004 2.675 2.12 3.896 2.227 2.439 4.819 3.262 7.75 4.523 2.585 1.11 5.338 1.005 8.046 1.426a.91.91 0 0 1 .529-.171c2.306 0 4.456-.24 6.734-.452 1.4-.131 2.409-.877 3.686-1.357.593-.223 2.848-1.088 3.272-1.65 1.289-1.705 3.726-2.145 4.985-3.912 1.393-1.956 2.535-3.85 3.268-6.14.802-2.506.683-4.617.56-7.208m1.8 5.829c-.72 2.432-1.41 4.542-2.867 6.607-1.45 2.052-2.356 3.422-4.58 4.783-.317.194-1.356.695-1.565.972-.18.237-.398.626-.68.79-1.283.747-2.784 1.303-4.15 1.91-3.25 1.445-6.35 1.65-9.855 1.668-.192.15-.445.213-.691.195-.121.026-.253.03-.395.004-2.841-.526-5.72-.28-8.451-1.454-3.11-1.337-5.697-2.151-8.19-4.538-1.91-1.83-3.047-4.474-4.087-6.863-1.185-2.725-1.377-6.016-1.136-8.937.417-5.028 1.17-12.001 5.874-15.114 2.45-1.622 4.656-2.686 7.44-3.633 3.015-1.027 6.284-2.263 9.492-2.352 6.086-.167 11.783.92 16.655 4.747 2.013 1.58 3.866 3.372 5.116 5.62 1.439 2.588 1.11 5.639 2.01 8.36.347 1.05.167 2.427.242 3.52.088 1.265.182 2.49-.181 3.715" fill="#12243e"/>
  </g>
</svg>
