<svg xmlns="http://www.w3.org/2000/svg" viewBox="0 0 517.684 232.135">
  <defs>
    <clipPath id="a_4_3">
      <path d="M0 174.101h388.263V0H0z"/>
    </clipPath>
    <clipPath id="b_4_3">
      <path d="M0 174.101h388.263V0H0z"/>
    </clipPath>
    <clipPath id="c_4_3">
      <path d="M0 174.101h388.263V0H0z"/>
    </clipPath>
  </defs>
  <g clip-path="url(#a_4_3)" transform="matrix(1.33333 0 0 -1.33333 0 232.135)">
    <path d="M17.575 89.553c-.895-.543-1.49-1.435-1.971-2.345-.676-1.281-1.58-2.44-2.243-3.74-.165-.32.319-.605.484-.282a34.056 34.056 0 0 0 1.835 3.125c.642.979 1.14 2.128 2.178 2.758.309.187.027.67-.283.484M22.005 85.769c-1.229-1.248-2.615-2.851-2.699-4.686-.017-.362.544-.36.561 0 .076 1.667 1.424 3.16 2.534 4.29.255.257-.142.654-.396.396M28.737 85.395c-1.575-1.238-2.636-3.032-2.7-5.06-.011-.363.55-.362.56 0 .06 1.887 1.078 3.515 2.536 4.664.285.223-.115.618-.396.397M35.77 84.897c-.548-1.46-1.8-2.55-1.88-4.188-.017-.362.544-.36.562 0 .075 1.543 1.339 2.652 1.859 4.04.127.337-.415.483-.541.148M42.127 85.272c-.402-1.262-.51-2.974-1.423-3.99-.24-.27.154-.666.396-.398 1.001 1.117 1.13 2.864 1.568 4.239.11.345-.432.493-.54.149M50.719 85.197c-.1-1.93-1.786-3.319-2.233-5.162-.086-.35.455-.5.54-.149.464 1.91 2.15 3.286 2.255 5.311.018.361-.543.36-.562 0M57.46 85.272a8.443 8.443 0 0 1-.373-2.139c-.024-.504-.021-.901-.292-1.353-.265-.44-.56-.85-.802-1.304-.17-.318.314-.601.485-.281.277.518 1.159 1.418 1.16 2.01 0 1.007.062 1.95.364 2.918.107.346-.434.494-.541.149M65.314 85.272c-.362-1.558-.291-3.49-1.424-4.739-.243-.267.153-.664.397-.396 1.226 1.351 1.176 3.301 1.568 4.985.082.352-.459.503-.541.15M71.297 84.523c-.412-1.259-.75-2.545-1.468-3.673-.194-.306.291-.587.485-.282.743 1.168 1.097 2.502 1.524 3.806.113.344-.429.491-.54.15M77.353 83.524c-.879-.948-1.175-2.294-1.568-3.489-.114-.345.428-.49.541-.149.359 1.095.618 2.372 1.423 3.242.246.264-.149.662-.396.396M84.376 84.075c-.041-1.056-.616-1.938-1.083-2.85-.165-.322.319-.606.484-.284.516 1.007 1.116 1.97 1.161 3.134.013.361-.547.36-.562 0M89.611 84.822c-.019-1.097-.272-2.338-1.039-3.167-.246-.265.15-.663.396-.396.873.941 1.183 2.311 1.205 3.563.005.362-.556.362-.562 0M74.174 102.317c-.41-.428-.618-.869-.792-1.429-.133-.428-.218-.84-.42-1.246a2.496 2.496 0 0 1-.272-.889c-.037-.36.524-.357.56 0 .038.357.227.663.377.98.13.271.148.546.239.826.172.53.312.95.705 1.361.25.261-.147.658-.397.397M78.1 101.476a5.437 5.437 0 0 1-1.483-3.564c-.01-.363.55-.361.56 0a4.842 4.842 0 0 0 1.32 3.168c.249.26-.146.659-.396.396M81.955 101.071c-.058-.328-.256-.394-.389-.662-.133-.27-.1-.586-.227-.842-.309-.62-.492-1.24-.515-1.936-.013-.363.548-.36.56 0 .012.351.064.676.166 1.012.092.305.302.574.385.876.08.293.1.58.307.834.141.173.216.353.255.57.062.352-.48.504-.542.148M86.163 100.51c-.033-.206-.177-.381-.291-.551-.141-.213-.206-.436-.324-.656-.306-.564-.74-1.007-.798-1.672-.031-.36.53-.357.56 0 .032.353.239.643.428.929.123.187.368.453.405.679.065.417.493.696.56 1.123.056.353-.484.505-.54.148M90.65 100.51c-.417-1.082-1.63-1.607-1.692-2.88-.018-.36.543-.36.56 0 .055 1.118 1.29 1.74 1.673 2.732.13.337-.412.483-.541.148M94.369 100.634c-.362-.362-.714-.722-.996-1.151-.386-.592-.163-1.335-.451-1.991-.144-.328.339-.614.485-.283.232.528.308 1.04.318 1.613.01.54.693 1.068 1.04 1.416.256.256-.14.653-.396.396M44.4 155.27c-.47-.681-1.034-1.287-1.538-1.941-.194-.252-.405-.503-.556-.783-.149-.276-.156-.738-.544-.793-.357-.051-.205-.591.15-.541.68.096.62.755.965 1.194.67.853 1.39 1.688 2.007 2.581.205.298-.28.579-.485.283M50.895 156.449c-1.387-1.387-2.776-2.79-3.69-4.544-.167-.32.317-.604.484-.283.894 1.713 2.249 3.077 3.602 4.43.256.256-.14.653-.396.397M58.143 158.356c-.447-.75-1.099-1.086-1.693-1.68l-1.373-1.374c-1.05-1.051-2.032-2.137-2.824-3.397-.193-.307.292-.59.484-.283.846 1.345 1.924 2.47 3.042 3.589.938.94 2.162 1.713 2.848 2.862.186.31-.299.593-.484.283M65.397 160.458c-.127-1.633-1.47-2.882-2.367-4.167-.819-1.174-1.872-2.198-2.88-3.207-.255-.256.141-.653.397-.397 1.147 1.148 2.271 2.32 3.201 3.655.918 1.316 2.079 2.44 2.21 4.116.029.36-.533.358-.561 0M70.307 160.98c-.312.185-.594-.3-.283-.483.59-.35-1.623-3.894-1.946-4.36-.811-1.167-1.712-2.446-2.72-3.457-.397-.398-.91-.827-1.117-1.365-.034-.086.003-.213.072-.273.015-.013.03-.025.044-.039.272-.235.67.16.397.398.414-.362 4.37 5.25 4.649 5.846.334.718 2.008 3.082.904 3.733M76.336 162.421c-.093-2.138-1.292-4.17-2.39-5.96-1.075-1.755-2.358-3.378-3.462-5.118-.194-.306.29-.587.484-.283 2.17 3.416 5.746 7.1 5.929 11.361.015.361-.546.36-.561 0M81.747 163.741l-.28-.28a.257.257 0 0 1-.053-.308c-.979-1.79-1.91-3.63-3.077-5.304-.705-1.012-1.329-2.083-1.963-3.14-.535-.89-1.123-1.579-1.43-2.59-.106-.348.435-.496.54-.15.34 1.116 1.065 1.941 1.655 2.924a54.251 54.251 0 0 0 1.963 3.076c1.18 1.694 2.08 3.63 3.085 5.432.156.278-.212.568-.44.34M84.199 159.972c-.415-1.187-1.421-2.115-1.863-3.282a65.56 65.56 0 0 0-2.596-5.907c-.16-.323.324-.607.484-.283a71.163 71.163 0 0 1 2.472 5.572c.519 1.319 1.578 2.417 2.045 3.75.119.343-.423.489-.542.15M35.676 156.606c-.55-1.32-1.362-2.517-1.682-3.927-.04-.176.082-.355.27-.355.409 0 .478.082.76.363.23.23-.068.57-.316.45.382 1.153 1.042 2.198 1.51 3.32.139.334-.405.478-.542.149M39.884 159.13c-.205-.51-.54-.902-.84-1.354-.254-.381-.336-.847-.561-1.244-.361-.631-.871-1.086-1.202-1.704a.255.255 0 0 1-.211-.26v-.281c0-.323.455-.373.55-.074.279.882 1.023 1.468 1.472 2.256.23.404.323.853.587 1.25.282.424.555.787.746 1.262.135.336-.408.48-.541.149M43.558 161.16c-.956-1.804-2.302-3.367-3.177-5.208-.12-.02-.227-.105-.227-.262v-.28c0-.26.41-.41.523-.142.86 2.02 2.34 3.674 3.365 5.61.17.32-.314.601-.484.282M47.737 163.898c-.042-.145-.6-.958-.702-1.262-.294-.873-.706-1.633-1.182-2.413-.778-1.274-1.61-2.5-2.295-3.831-.165-.321.319-.605.485-.283.75 1.459 1.67 2.808 2.524 4.207.345.564.619 1.136.859 1.75.233.595.674 1.082.853 1.683.102.348-.44.495-.542.149M51.793 166.029c-1.115-.7-1.404-2.041-1.68-3.245-.256-1.12-1.001-2.123-1.547-3.121-.351-.645-.744-.997-.839-1.73-.046-.358.515-.353.561 0 .079.61.703 1.336 1.004 1.887.397.729.82 1.44 1.202 2.18.615 1.19.253 2.71 1.582 3.545.305.192.025.677-.283.484M57.065 168.79c-1.263-1.361-1.9-3.048-2.66-4.712-.77-1.691-1.965-3.439-3.23-4.825-.244-.266.152-.664.397-.396 1.05 1.151 2.002 2.518 2.833 3.832 1.18 1.867 1.499 4.026 3.057 5.705.245.264-.15.662-.397.396M60.349 169.433c0 .362-.557.362-.561 0-.011-.914-.614-1.887-.99-2.708-.436-.955-.897-1.844-1.496-2.705-.721-1.034-1.25-2.321-2.08-3.265-.33-.377-.637-.853-.753-1.344-.083-.352.458-.501.54-.15.188.796.958 1.576 1.375 2.268a40.789 40.789 0 0 0 1.963 2.995c.566.776.92 1.873 1.31 2.749.277.627.546 1.114.645 1.73a.27.27 0 0 1 .047.15zM65.958 171.957c-.233-2.042-1.823-4.156-2.842-5.881-.473-.8-1.024-1.558-1.54-2.329-.292-.434-2.825-3.556-2.267-4.049.27-.238.669.157.397.397.213-.189.295.213.472.502.252.41.517.812.781 1.214.608.926 1.229 1.843 1.846 2.764.501.75.968 1.509 1.429 2.285.899 1.513 2.081 3.316 2.285 5.097.041.359-.52.355-.561 0M68.202 172.238c-.14-2.112-1.636-4.323-2.42-6.283-.48-1.193-1.007-2.34-1.749-3.393-.459-.65-.795-1.314-.88-2.104-.038-.36.523-.356.561 0 .121 1.119 1.03 2.083 1.562 3.027.497.883.856 1.85 1.233 2.788.76 1.893 2.117 3.9 2.254 5.965.023.36-.537.359-.56 0M69.081 169.013a3.597 3.597 0 0 1-.314-1.167c-.082-.865-.652-1.392-.955-2.146-.58-1.438-1.724-2.516-2.125-4.046-.09-.35.45-.498.541-.149.355 1.357 1.277 2.373 1.936 3.58.33.602.642 1.231.96 1.844.31.592.168 1.166.442 1.802.141.327-.342.614-.485.282M70.203 166.77c-.439-.644-.912-1.244-1.223-1.964-.353-.816-.352-1.7-.74-2.525-.153-.324.33-.61.484-.282.274.583.55 1.23.587 1.882.056.984.848 1.832 1.377 2.605.204.3-.282.58-.485.283M41.034 126.942c-.485-1.11-1.555-1.874-2.198-2.9-.757-1.204-1.71-2.238-2.29-3.552-.144-.327.339-.612.485-.282.576 1.303 1.498 2.378 2.289 3.55.67.996 1.713 1.79 2.199 2.9.143.329-.34.615-.485.284M47.025 116.665c-1.63-1.136-2.618-2.85-3.984-4.251-.252-.259.144-.656.397-.396 1.327 1.362 2.287 3.059 3.869 4.163.296.205.015.691-.282.484M74.454 139.62c-1.94-2.28-3.325-4.942-5.092-7.35-.215-.292.273-.57.484-.282 1.74 2.367 3.095 4.992 5.005 7.236.233.273-.162.672-.397.396M78.019 135.215c-.11-1.19-1.096-2.196-1.807-3.075-.6-.743-1.137-1.515-1.521-2.393-.142-.328.34-.614.485-.283.865 1.983 3.197 3.519 3.404 5.75.034.36-.528.358-.561 0M83.067 132.69c-.053-.519-.368-1.04-.662-1.46-.171-.247-.224-.654-.311-.936-.257-.837-.816-1.48-1.232-2.23-.176-.316.308-.6.484-.284.447.805.934 1.51 1.29 2.365.226.546.414 1.054.712 1.576.179.315.244.612.28.97.037.36-.525.355-.561 0M35.105 102.12c-.037.353-.6.357-.56 0 .204-1.889-1.105-3.59-1.926-5.189-.164-.322.32-.605.486-.283.863 1.683 2.217 3.478 2 5.471M40.192 99.735c-.37-.792-.527-1.77-1.01-2.496a26.108 26.108 0 0 1-1.514-2.552c-.164-.32.32-.605.484-.283.406.793.86 1.552 1.347 2.298.553.847.748 1.834 1.177 2.751.153.325-.33.61-.484.282" fill="#12243e"/>
    <path d="M96.163 103.036c-1.752-1.013-3.34-1.113-5.302-1.113-3.411 0-6.828-.065-10.238.031-1.824.05-3.542.638-5.178 1.403-1.394.654-1.532 2.928-1.874 4.192-.838 3.102-.783 6.582-.281 9.782.233 1.476.087 4.024 2.285 4.214 1.39.12 2.809.262 4.203.335 2.625.137 5.207.237 7.846.237 2.378 0 5.122-.149 7.309.981 2.368 1.225 2.817 2.011 3.486 4.228.328-.946.155-2.123.155-3.064v-6.913c0-1.77-.285-3.494-.276-5.259.01-2.145.325-4.194.285-6.332a1.044 1.044 0 0 1-.29-.75c0-.652-1.51-1.615-2.13-1.972m4.542 11.282c.49 2.572.112 5.506.112 8.108 0 2.965.753 8.445-3.663 7.224a1.133 1.133 0 0 1-.824-1.083v-.28c0-.03.007-.057.009-.086-.407-1.374-.634-1.953-1.805-2.786-1.88-1.337-4.73-1.054-6.91-1.054-3.265 0-6.587.125-9.823-.394-1.315-.21-3.263.11-4.475-.6-1.1-.645-1.572-2.064-1.86-3.21-.42-1.668-.562-3.52-.641-5.234-.09-1.942-.497-4.402.022-6.286.693-2.524 1.01-5.813 3.466-7.216 3.17-1.814 6.787-1.742 10.31-1.742 3.479 0 7.894-.79 11.15.68 1.659.746 4.363 2.094 4.722 4.183.182.18.309.425.322.746.133 2.982-.673 6.098-.112 9.03M97.56 140.45c0 2.084-.04 4.66-.903 6.55-1.359 2.973-4.61 4.485-7.702 4.958-1.794.275-3.658-.118-5.448-.261-2.086-.167-4.232-.028-6.324-.028-4.465 0-8.909.373-13.378.373-9.468 0-36.632.374-46.089.374-2.515 0-6.443-1.644-7.72-3.857-.764-1.322-.577-3.224-.525-4.67.072-2.015.017-4.041.017-6.057 0-1.446 2.244-1.446 2.244 0 0 2.959-.388 6.186.07 9.108.265 1.694 3.235 2.476 4.572 2.986 1.977.753 4.864.247 6.952.247 7.208 0 32.175-.374 39.407-.374 6.931 0 13.84-.558 20.774-.346 3.761.115 7.012.768 10.15-1.956 1.58-1.37 1.658-5.017 1.658-7.074 0-1.447 2.244-1.447 2.244 0v.027z" fill="#12243e"/>
    <path d="M97.933 98.284c-.1 1.436-2.344 1.445-2.244 0 .19-2.754 1.222-11.882-.22-14.428-2.254-3.977-7.375-2.595-10.97-3.365-3.131-.668-6.371-.119-9.498.188-1.802.176-3.306-.046-5.116-.053-1.877-.007-3.876-.078-5.796.093-3.486.31-24.895-.374-28.422-.374-3.668 0-7.3.355-10.94.38-3.974.028-8.042.813-11.1 3.552-2.363 2.118-1.546 6.731-1.52 9.53.013 1.448-2.231 1.447-2.244 0-.027-2.95-.522-6.47.877-9.21 1.559-3.054 5.31-4.99 8.548-5.709 1.646-.364 3.724-.324 5.44-.407 1.89-.092 3.705-.38 5.606-.38h7.577c2.5 0 22.769.512 25.242.457 2.324-.052 4.437-.459 6.732-.175 1.903.234 4.092.152 6.004-.036 4.209-.413 8.133.128 12.32.128 3.665 0 6.927 1.284 9.197 4.248 2 2.614.733 12.595.527 15.561" fill="#12243e"/>
    <path d="M12.106 93.528c-.269 2.342-.148 9.884-.353 12.227-.268 3.063-.487 5.985-.199 9.068.284 3.048.34 6.003.332 9.073-.004 1.528-.49 2.933-.422 4.488.083 1.904.081 7.45.081 9.355 0 1.447-2.244 1.447-2.244 0 0-2.664-.682-9.787.04-12.359.794-2.825.452-6.734.089-9.61a38.768 38.768 0 0 1-.055-9.248c.292-2.59.189-10.402.487-12.994.163-1.42 2.409-1.437 2.244 0M97.372 140.544c-.037 1.444-2.28 1.448-2.244 0 .046-1.83.28-3.64.28-5.47 0-1.935-.28-7.475-.28-9.395 0-1.447 2.244-1.447 2.244 0 0 1.664.28 6.967.28 8.652 0 2.08-.228 4.136-.28 6.213M97.624 100.254c-.142.475.189.829.269 1.286.104.602-.152 1.206-.784 1.38-.546.15-1.276-.181-1.38-.784-.041-.237-.158-.448-.251-.672-.12-.29-.143-.705-.146-1.012-.008-.595.329-1.121.357-1.7.07-1.44 2.315-1.446 2.244 0-.027.528-.16 1-.31 1.502M81.482 108.894a1.16 1.16 0 0 1-.447.018c-.044.007-.085.018-.131.022-.581.039-1.58.226-2.048.605-.396.318-.496 1.267-.586 1.732-.38 1.965.722 2.918 2.67 3.018.705.035 1.526-.486 1.916-1.056.396-.58 1.138-1.193 1.125-1.934-.02-1.106-1.165-2.717-2.5-2.405m3.633 5.011c-.492.457-.715 1.061-1.267 1.494-.663.518-1.308.88-2.133 1.058-2.96.647-5.793-1.364-5.787-4.375.003-1.247.336-2.868 1.123-3.855.867-1.09 2.526-1.449 3.854-1.537.066-.004.126.001.187.006 2.286-.388 4.776 1.592 5.06 3.837.178 1.382.008 2.405-1.037 3.372M87.226 151.995c-.507.523-.585 1.638-.833 2.31-.429 1.162-.797 2.871-1.052 4.088-.436 2.08-.54 4.514-2.25 5.976-1.54 1.315-4.433.34-6.152.022-1.476-.272-2.759-.964-4.267-1.168-1.449-.197-2.769-.705-4.207-.952-6.76-1.162-13.314-3.204-20.042-4.492-3.342-.639-6.449-1.697-9.688-2.72-2.599-.822-5.948-2.06-8.678-2.174-1.442-.06-1.448-2.304 0-2.244 2.25.093 4.305.972 6.468 1.512 2.91.728 5.704 1.754 8.568 2.627 6.15 1.874 12.716 2.606 18.92 4.316 2.713.747 5.663 1.304 8.413 1.85 2.648.522 5.18 1.22 7.854 1.65 2.38.382 2.147-1.679 2.477-3.002.355-1.43.788-2.823 1.156-4.238.42-1.612.503-3.687 1.727-4.947 1.01-1.04 2.594.548 1.586 1.586" fill="#12243e"/>
    <path d="M74.219 162.987c-.416.667-.634 2.29-.868 3.097-.321 1.113-.73 2.07-1.225 3.115-.524 1.106-1.707 4.464-3.107 4.795-.74.176-1.24.156-1.945-.227-1.404-.764-2.826-1.043-4.333-1.489-2.581-.763-5.162-1.97-7.638-3.03-5.223-2.237-10.09-5.477-15.068-8.19-2.7-1.47-5.321-3.093-8.02-4.584-1.411-.779-2.761-1.617-4.207-2.34-.771-.385-1.767-1.319-2.536-1.57-1.37-.446-.783-2.613.596-2.163 1.647.537 3.169 1.843 4.756 2.637 2.588 1.294 4.908 3.042 7.573 4.207 2.06.902 4.06 2.523 5.988 3.698 2.388 1.455 4.972 2.624 7.474 3.875 4.555 2.277 8.969 4.583 13.937 5.87.41.105 2.57 1.197 2.8.776.61-1.114 1.22-2.255 1.792-3.396.993-1.979.953-4.382 2.094-6.214.763-1.224 2.705-.099 1.937 1.133" fill="#12243e"/>
    <text style="-inkscape-font-specification:Circe" transform="matrix(1 0 0 -1 0 45.168)" font-weight="700" font-size="16" font-family="Circe" fill="#12243e">
      <tspan class="lang" data-key="scheme-4_3-1" y="0" x="0 11.44 19.68 27.92 35.327999 43.375999 52.256001 59.375999 62.768002 70.800003 74.192001 87.295998 101.712">Аккаунт в QMC</tspan>
    </text>
  </g>
  <text style="-inkscape-font-specification:Circe" transform="matrix(1.33333 0 0 1.33333 185.482 171.91)" font-weight="700" font-size="16" font-family="Circe" fill="#12243e">
    <tspan class="lang" data-key="scheme-4_3-2" y="0" x="0 9.3599997 16.768 24.688 32.720001 40.959999 48.368 51.759998 60.639999 68.047997 71.440002 79.472 90.288002 98.32 107.072">Заявка на вывод</tspan><tspan class="lang" data-key="scheme-4_3-3" y="19.2" x="7.2639999 19.280001 28.128 39.984001 43.375999 52.464001 61.088001 70.176003 73.568001 82.767998 94.783997 105.312">USD или EUR</tspan>
  </text>
  <g clip-path="url(#b_4_3)" transform="matrix(1.33333 0 0 -1.33333 0 232.135)">
    <text style="-inkscape-font-specification:Circe" transform="matrix(1 0 0 -1 137.463 6.768)" font-weight="700" font-size="16" font-family="Circe" fill="#12243e">
      <tspan class="lang" data-key="scheme-4_3-4" y="0" x="0 8.8800001 16.288 19.68 27.92 36.848 45.936001 54.736 61.632 70.624001 78.031998 86.928001 95.856003 104.064 111.472">на криптоадресс</tspan>
    </text>
  </g>
  <text style="-inkscape-font-specification:Circe" transform="matrix(1.33333 0 0 1.33333 401.887 171.91)" font-weight="700" font-size="16" font-family="Circe" fill="#12243e">
    <tspan class="lang" data-key="scheme-4_3-5" y="0" x="0 12.032 20.959999 29.712 38.608002 46.015999 54.048 62.304001">Продавец</tspan><tspan class="lang" data-key="scheme-4_3-6" y="19.2" x="3.296 12.096 20.848 29.472 37.52 45.375999 52.784 60.959999">получает</tspan>
  </text>
  <g clip-path="url(#c_4_3)" transform="matrix(1.33333 0 0 -1.33333 0 232.135)">
    <text style="-inkscape-font-specification:Circe" transform="matrix(1 0 0 -1 285.928 6.768)" font-weight="700" font-size="16" font-family="Circe" fill="#12243e">
      <tspan class="lang" data-key="scheme-4_3-7" y="0" x="0 8.2399998 17.167999 26.256001 35.056 41.952 50.944 58.976002 66.384003 75.008003 87.071999 94.2864">криптовалюту</tspan>
    </text>
    <path d="M165.523 85.417c-2.165-1.895-3.867-4.218-4.82-6.945-.096-.272.336-.388.431-.118.927 2.653 2.6 4.905 4.705 6.748.217.189-.1.503-.316.315M173.01 83.368c-2.008-1.468-3.593-3.292-4.843-5.437-.145-.25.241-.475.386-.226 1.21 2.077 2.738 3.855 4.682 5.277.23.168.008.556-.225.386M181.895 83.929c-1.585-1.638-2.7-3.624-3.607-5.701-.114-.261.271-.488.385-.225.892 2.042 1.978 3.999 3.537 5.61.201.207-.115.523-.315.316M189.301 83.586c-1.19-1.787-2.38-3.572-3.572-5.358-.16-.241.226-.463.385-.225 1.191 1.785 2.382 3.57 3.572 5.357.161.24-.227.464-.385.226M198.231 83.884c-1.431-2.003-2.861-4.01-4.43-5.908-.182-.22.132-.538.316-.317 1.592 1.93 3.046 3.965 4.5 5.999.168.235-.22.458-.386.226M207.756 84.478c-1.128-2.205-2.56-4.292-4.133-6.205-.18-.22.133-.539.316-.316 1.598 1.944 3.056 4.054 4.203 6.297.131.254-.255.481-.386.224M217.018 85.12c-1.736-2.044-3.323-4.208-5.06-6.252-.185-.218.13-.535.316-.315 1.736 2.044 3.323 4.208 5.06 6.251.185.218-.129.536-.316.315M225.948 85.12c-1.488-1.824-2.665-3.843-3.606-6-.115-.26.27-.488.385-.225.925 2.12 2.072 4.115 3.537 5.91.18.22-.133.538-.316.314M230.973 84.478c-1.216-1.868-2.1-3.91-2.976-5.952-.112-.263.272-.49.385-.226.877 2.044 1.761 4.084 2.978 5.954.157.242-.23.464-.387.224M235.439 84.478a61.201 61.201 0 0 0-2.978-5.952c-.142-.25.245-.476.386-.226a61.42 61.42 0 0 1 2.977 5.954c.113.26-.272.488-.385.224M207.726 101.63c-.029-2.522-.575-4.946-1.183-7.382-.07-.28.361-.397.43-.118.618 2.475 1.17 4.938 1.2 7.5.002.288-.444.288-.447 0M212.927 105.56c-.074.277-.506.16-.432-.12.548-2.05.57-4.098.29-6.19-.038-.285.41-.282.448 0 .283 2.13.25 4.225-.306 6.31M217.548 110.263c0-1.595-.028-3.19-.588-4.703-.099-.272.332-.387.431-.12.572 1.552.602 3.189.603 4.823 0 .288-.446.288-.446 0M222.617 115.382c-.307-2.14-.662-4.241-1.488-6.251-.11-.266.322-.381.43-.118.827 2.009 1.182 4.112 1.489 6.25.04.282-.39.403-.431.119M226.18 118.597v-5.655c0-.287.447-.287.447 0v5.655c0 .288-.447.288-.447 0M230.95 122.525c-.288-1.875-.304-3.779-.595-5.655-.043-.282.387-.403.43-.119.29 1.876.308 3.78.598 5.656.042.282-.387.402-.432.118M234.217 126.634v-5.953c0-.288.446-.288.446 0v5.953c0 .288-.446.288-.446 0M238.086 129.908c0-2.09-.02-4.175-.297-6.25-.038-.285.408-.282.446 0 .278 2.075.297 4.16.298 6.25 0 .288-.447.288-.447 0M241.063 132.587v-5.357c0-.29.446-.29.446 0v5.357c0 .288-.446.288-.446 0M244.04 134.67c-.021-1.79-.276-3.567-.298-5.358-.003-.288.444-.288.447 0 .023 1.791.276 3.567.298 5.358.003.29-.443.288-.447 0M213.195 170.583a15.544 15.544 0 0 1-5.438-5.438c-.148-.25.239-.473.385-.225a15.095 15.095 0 0 0 5.278 5.277c.247.147.022.533-.225.386M213.71 165.442c-1.45-2.013-3.017-3.94-4.466-5.953-.169-.234.22-.456.386-.225 1.448 2.014 3.015 3.939 4.464 5.953.17.234-.219.456-.385.225M214.007 157.405c-1.51-2.693-3.216-5.265-5.06-7.739-.173-.23.214-.453.385-.225 1.845 2.474 3.55 5.046 5.061 7.738.14.252-.245.477-.386.226M214.34 150.307c-1.307-1.67-2.356-3.515-3.31-5.403-.129-.256.255-.482.385-.225.936 1.85 1.96 3.675 3.24 5.313.174.224-.139.542-.316.315M217.876 146.69c-.554-1.092-1.189-2.136-1.51-3.327-.076-.278.355-.397.43-.12.31 1.154.93 2.165 1.466 3.222.13.256-.255.482-.385.225M224.46 147.33a9.865 9.865 0 0 1-3.034-3.968c-.112-.265.32-.38.43-.119a9.46 9.46 0 0 0 2.92 3.771c.227.176-.092.49-.317.316M230.756 147.365c-1.286-.991-2.222-2.273-3.057-3.652-.15-.247.237-.471.385-.225.792 1.306 1.678 2.55 2.897 3.492.224.173.004.56-.225.385M236.332 148.177c-.891-1.21-1.544-2.533-2.106-3.922-.108-.267.324-.382.43-.119.549 1.354 1.195 2.637 2.06 3.816.173.232-.215.454-.384.225" fill="#12243e"/>
    <path d="M224.14 76.737c-2.234 0-14.942.02-17.14.04-2.095.017-4.138.032-6.07.032-.743 0-3.54-.013-3.54-.013-4.2 0-24.43.158-28.488.396-.949.057-1.936.064-2.858.064l-1.274-.002c-1.812 0-3.729.031-5.492.383-.56.113-.849.5-.793 1.063.046.471.421 1.22 1.226 1.22.087 0 .181-.01.275-.03 1.77-.354 3.636-.4 5.063-.4.69 0 1.381.014 2.07.025l.188.003c.613.01 1.225.02 1.83.02.733 0 1.46-.015 2.168-.059 5.15-.313 28.706-.32 28.943-.32 1.848 0 3.853-.018 5.938-.037 2.261-.02 15.088-.04 17.437-.04 5.268 0 9.193.107 12.353.34h.008c.68 0 1.033-.373 1.056-.998.018-.51-.274-1.297-1.154-1.362-3.05-.22-6.783-.325-11.746-.325" fill="#12243e"/>
    <path d="M160.382 77.581a28.73 28.73 0 0 1-1.022.1c-1.927.168-3.15.365-3.918 1.687-.666 1.151-1.054 2.663-1.122 4.377-.009.623-.027 79.881.106 82.005.05.374.084.788.121 1.194.13 1.48.236 2.707.963 3.95.717 1.227 2.137 1.774 4.604 1.774l.303-.003c1.097-.016 1.12-1.094 1.12-1.217-.002-.116-.04-1.138-1.086-1.138-.768 0-1.868-.092-2.65-.876-1.025-1.023-1.022-2.695-1.02-4.312 0-3.307-.019-81.033-.015-81.479.008-.65.05-1.5.316-2.338.433-1.349 1.71-1.349 2.256-1.349l.561.005c.108 0 .223-.003.33-.016.917-.113 1.198-.956 1.165-1.493-.02-.33-.158-.883-.838-.883-.055 0-.112.004-.174.012M239.512 140.844l-.002 8.579c.571.06 1.213.092 1.94.092.163 0 .331-.002.496-.004l.012-8.667zM235.733 77.009c-.682 0-.818.552-.838.882-.034.54.249 1.38 1.164 1.496.107.013.219.016.337.016l.559-.008c.565 0 1.822.01 2.25 1.349.268.838.31 1.689.318 2.336.002.193-.002 16.105-.007 40.429.79.407 1.585.808 2.38 1.208l.074.04c.012-20.71.01-40.99-.002-41.583-.068-1.704-.455-3.216-1.121-4.364-.768-1.324-1.994-1.522-3.922-1.69a22.636 22.636 0 0 1-1.015-.1 1.614 1.614 0 0 0-.177-.011" fill="#12243e"/>
    <path d="M201.284 169.823c-1.838 0-3.67.038-5.5.076-1.841.037-3.672.074-5.507.074l-2.378-.005-3.91.025c-5.131.036-15.812.112-17.352.183-2 .092-4.03.187-6.034.205-1.1.01-1.126 1.077-1.124 1.2 0 .12.036 1.156 1.1 1.156 1.812-.015 3.628-.108 5.385-.197 1.998-.1 4.138-.21 6.214-.212h14.547c5.04 0 10.082.021 15.122.043l12.212.018c-.004-.848-.005-1.69.004-2.537-5.083-.017-10.601-.029-12.78-.029M240.637 149.413c-.47 0-.84.212-1.098.63-2.6 4.185-7.447 7.493-11.72 10.41-.845.578-1.66 1.136-2.426 1.677-3.002 2.127-7.392 5.302-10.846 8.32-.444.388-.4.704-.313.936.194.522.822.946 1.397.946.305 0 .591-.115.852-.342 1.673-1.464 5.79-4.558 7.098-5.526 1.114-.823 2.25-1.613 3.383-2.404 1.665-1.156 3.385-2.353 4.984-3.628l1.341-1.06c3.195-2.516 6.498-5.116 8.536-8.397.282-.453.193-.725.1-.891-.217-.39-.759-.671-1.286-.671z" fill="#12243e"/>
    <path d="M238.187 147.623c-1.881 0-3.794.07-5.642.135-1.871.069-3.806.138-5.728.138-.403 0-.808-.003-1.212-.009-.372-.007-.763-.018-1.171-.03a68.827 68.827 0 0 0-2.088-.041c-2.254 0-5.047.188-6.655 1.643-1.512 1.368-1.533 3.097-1.559 5.286-.007.5-.013 1.006-.037 1.518-.194 4.002-.182 8.087-.175 12.038l.004 2.542c0 .902.68 1.036 1.087 1.036.504 0 1.36-.265 1.36-1.258 0-1.206-.015-2.417-.032-3.628-.031-2.669-.066-5.429.065-8.144.028-.593.012-1.202-.002-1.805-.063-2.567-.156-6.446 4.554-6.661 5.421-.246 9.855-.361 13.953-.361 1.841 0 3.678.022 5.512.075.821 0 .99-.541.995-.995.007-.489-.252-1.423-1.286-1.451a66.34 66.34 0 0 0-1.942-.028zM207.199 91.64c-.44 0-.936.388-1.147.903-.205.493-.112.94.276 1.328l2.995 2.999c6.229 6.242 12.67 12.695 19.268 18.76 3.93 3.614 7.64 7.278 11.063 10.7.633.634 1.318 1.25 2.01 1.87 1.15 1.039 2.343 2.113 3.344 3.299.373.442.837.993.765 1.726-.067.679-.525 1.046-.896 1.34-.17.137-.392.313-.655.575-.21.21-.425.447-.65.689-1.1 1.19-2.465 2.672-4.262 2.672-1.023 0-1.991-.485-2.877-1.438-.733-.79-1.511-1.478-2.336-2.206-.341-.302-.684-.605-1.027-.92-2.276-2.077-4.544-4.237-6.736-6.325a613.763 613.763 0 0 0-4.846-4.581c-5.997-5.586-11.86-11.491-17.533-17.202-1.717-1.728-3.431-3.456-5.152-5.177-.233-.232-.462-.345-.704-.345-.442 0-.935.388-1.15.902-.204.495-.11.942.279 1.329 5.75 5.749 11.703 11.483 17.46 17.027 4.532 4.362 9.214 8.872 13.774 13.366a73.13 73.13 0 0 1 1.924 2.004c2.434 2.6 5.463 5.839 8.395 6.387.165.03.325.044.488.044 2.197 0 4.74-2.545 5.96-3.77.227-.225.468-.456.718-.697 1.953-1.87 3.173-3.216 2.355-4.837-1.405-2.785-4.162-5.237-6.827-7.608-1.108-.986-2.152-1.915-3.107-2.87-4.995-4.994-10.188-9.967-15.21-14.775-5.031-4.821-10.236-9.806-15.255-14.822-.231-.233-.462-.346-.704-.346" fill="#12243e"/>
    <path d="M198.197 98.09c-.062-.191-.123-.386-.2-.575-.251-.637-.377-1.252-.5-1.846-.107-.525-.208-1.021-.386-1.45l-1.014-2.432 2.49.745c.463.145.938.296 1.388.343.343.038.675.064 1.006.09.605.049 1.232.1 1.868.21l2.31.4-1.646 1.668a118.067 118.067 0 0 0-3.205 3.414l-1.422 1.563zm-2.405-8.348c-1.276 0-1.763.386-1.93 1.532-.114.782.12 1.386.42 2.15.258.653.548 1.394.622 2.302.077.98.429 1.978.802 3.035.336.956.685 1.94.856 2.996.16.985 1.053 1.13 1.325 1.152l.268.023.234.13c.204.115.414.175.613.175.29 0 .549-.127.792-.39.598-.641 1.174-1.294 1.752-1.945.899-1.017 1.829-2.068 2.83-3.07.226-.226.487-.468.76-.721.944-.876 2.118-1.966 2.28-2.942.122-.747.008-1.311-.364-1.78-1.226-1.545-4.926-1.788-6.318-1.88-.618-.04-1.325-.19-2.076-.35-.931-.195-1.986-.417-2.866-.417" fill="#12243e"/>
    <path d="M193.015 87.491c-.365 0-.729.152-.95.396-.513.561-.323 1.333.117 1.77l2.193 2.237c.243.243.568.281.741.281.363 0 .728-.153.95-.396.512-.56.323-1.33-.117-1.77l-2.192-2.238c-.244-.243-.57-.28-.742-.28M210.47 151.333c-6.676 0-13.3.147-19.956.677-6.835.544-13.716.1-20.56.082-1.307-.004-1.308-2.027 0-2.027h.252c.008 0 .015.003.023.003 6.764.027 13.527.368 20.285-.085a298.498 298.498 0 0 1 19.956-.677c1.307 0 1.307 2.026 0 2.026M221.613 138.924c-1.898-.1-3.663-.287-5.571-.095-2.056.208-3.937.453-6.015.369-2.098-.084-4.101.006-6.191.178-2.343.193-4.683-.046-7.024.272-8.727 1.183-17.824.55-26.605.543-1.307-.002-1.307-2.028 0-2.026 9.108.009 18.164.116 27.247-.631 4.127-.34 8.438-.556 12.573-.361 2.04.095 3.996-.114 6.015-.37 1.9-.24 3.679-.003 5.57.095 1.3.068 1.307 2.094 0 2.026M221.49 127.873a1.85 1.85 0 0 0-.283-.043c-.565-.049-1.135-.056-1.701-.067-1.558-.031-3.118-.003-4.674.024-3.84.066-7.678.205-11.514.343-3.5.126-6.941.156-10.447-.002-7.475-.337-14.93-.346-22.411-.346-1.307 0-1.307-2.026 0-2.026 11.406 0 22.816.706 34.21.3 4.01-.143 8.024-.278 12.039-.322 1.129-.013 5.63-.669 6.285.777.469 1.036-.818 1.956-1.504 1.362M209.205 115.12c-6.247 0-12.716.562-18.93-.102-3.454-.369-6.986.302-10.445.355-3.462.054-6.921.232-10.383.254-1.306.008-1.305-2.018 0-2.027 6.62-.04 13.272-.78 19.879-.663 6.623.12 13.243.158 19.879.158 1.307 0 1.307 2.025 0 2.025M199.265 102.965c-4.962-.076-9.752.325-14.688.76-5.229.46-10.463.028-15.7 0-1.306-.007-1.307-2.033 0-2.026 5.361.03 10.953.767 16.274-.101 4.64-.758 9.434-.73 14.114-.658 1.305.019 1.307 2.045 0 2.025" fill="#12243e"/>
    <path d="M192.997 89.544c-1.855.058-3.662.437-5.508.579-2.202.168-4.44-.048-6.647-.073-2.025-.022-4.052 0-6.077 0-.924 0-5.133-.524-5.615-.043-.924.925-2.357-.508-1.432-1.433.827-.827 1.875-.55 2.995-.55h8.103c2.261 0 4.515.073 6.774.112 2.492.043 4.921-.541 7.407-.618 1.308-.04 1.303 1.985 0 2.026M308.426 156.493c.975-22.143 1.41-44.303 1.308-66.467-.002-.51.38-1.069.897-1.179l2.627-.557c1.535-.326 2.191 2.031.65 2.357-3.202.68-1.714 10.99-1.732 14.045a1306.76 1306.76 0 0 1-.217 17.6 1368.916 1368.916 0 0 1-1.088 34.201c-.069 1.567-2.514 1.576-2.445 0" fill="#12243e"/>
    <path d="M309.89 156.083c2.903.295 5.808.397 8.725.308 1.574-.048 1.573 2.398 0 2.445a66.02 66.02 0 0 1-8.725-.309c-1.55-.156-1.567-2.604 0-2.444" fill="#12243e"/>
    <path d="M319.978 157.768c.297 2.774-.156 6.998 2.869 8.29l1.82.071c1.308.661 1.901.43 1.78-.699.601-.89.434-3.026.598-4.166.558-3.882.381-5.09 4.277-5.244 2.81-.11 3.452.106 3.935 2.857.572 3.252-.273 6.783 3.642 7.76 2.546.634 1.979-.23 2.801-1.698.931-1.667.637-4.595.877-6.478.195-1.54 2.643-1.56 2.445 0-.301 2.366-.065 8.008-1.604 9.78-1.284 1.481-3.586.898-5.384.807-1.548-.078-3.133.036-4.062-1.343-1.583-2.35.84-8.449-2.65-9.239-2.924-.662-1.663 7.402-2.868 9.087-.959 1.341-2.154 1.06-3.787 1.021-1.738-.04-4.349.346-5.702-1.033-1.714-1.747-1.191-7.512-1.432-9.773-.167-1.563 2.279-1.55 2.445 0" fill="#12243e"/>
    <path d="M343.42 157.038c4.263-1.796 8.627-3.797 10.353-8.443 1.545-4.163.873-12.64-3.656-14.923-1.405-.71-.169-2.82 1.235-2.112 5.081 2.563 6.23 10.476 5.372 15.57-1.144 6.783-6.833 9.814-12.655 12.266-1.448.61-2.08-1.755-.649-2.358" fill="#12243e"/>
    <path d="M349.775 133.076l-1.247-.811c-.346-.225-.746-.43-1.027-.733a1.419 1.419 0 0 1-.198-1.675c.406-.692 1.165-.741 1.832-.458.609.258.743 1.155.44 1.673-.37.629-1.063.697-1.673.439l-.078-.033h1.234l-.082.052.562-.73-.032.097v-.65l.038.095-.315-.54c-.194-.205.156.107.222.149l.545.355 1.013.658c.553.36.784 1.084.439 1.673-.322.55-1.117.8-1.673.439" fill="#12243e"/>
    <path d="M348.51 128.866c6.45-.681 10.676-2.86 13.794-8.698 2.595-4.86 4.4-10.405 3.555-15.956-.74-4.856-3.468-9.347-7.548-12.14-4.649-3.18-10.108-2.955-15.474-2.592-1.57.105-1.564-2.34 0-2.447 6.527-.44 12.795-.328 18.09 3.958 4.18 3.38 6.931 8.43 7.493 13.774.697 6.624-1.83 13.71-5.485 19.179-3.546 5.306-8.29 6.719-14.425 7.367-1.562.165-1.55-2.281 0-2.445" fill="#12243e"/>
    <path d="M313.002 88.21c.079-.04 2.108-.734 2.175-.815.773-.947-.247-6.606-.297-7.925-.025-.7.584-1.17 1.223-1.223 3.368-.278 7.816-1.55 8.826 2.492.455 1.823-.208 7.432 3.195 6.223 2.11-.75.55-6.806.886-8.766.073-.428.476-.721.854-.854 2.02-.706 8.348-1.57 10.058-.023 2.366 2.139.729 8.1 1.708 10.878l-1.504-.853c1.456-.458 1.539-.417 3.04-.173 1.55.253.893 2.61-.65 2.358l-1.741.173c-.662.208-1.291-.25-1.503-.854-.81-2.296-.32-4.294-.844-6.552-.445-1.912-.346-2.518-2.707-3.008-1.958-.407-3.66.028-4.33 2.212-.771 2.522 1.504 6.169-1.288 7.723-1.31.728-5.446.743-6.61-.464-.971-1.01-.59-2.842-.82-4.055-.248-1.302-.397-3.574-1.953-4.234-.898-.382-3.666.144-4.617.222l1.222-1.222c.073 1.91 1.183 7.518.083 9.22-.8 1.239-1.968 1.032-3.172 1.632-1.404.7-2.644-1.408-1.234-2.111" fill="#12243e"/>
    <path d="M314.515 87.882c1.573 0 1.576 2.445 0 2.445-1.573 0-1.576-2.445 0-2.445M321.585 146.314c3.53.976 9.828 1.628 13.321.067 7.455-3.332 1.457-9.663-3.444-10.453-1.64-.264-3.3-.215-4.955-.228-.603-.006-4.314-.508-4.552-.346-.525.357.036 5.246.065 5.971.078 1.992.226 3.975.403 5.959.14 1.567-2.307 1.557-2.445 0-.33-3.698-1.148-8.254-.468-11.93.247-1.333.526-1.77 1.828-2.113 2.653-.699 6.93-.124 9.654.151 2.512.255 4.946.95 6.832 2.712 2.785 2.6 4.987 8.539 1.338 11.373-1.98 1.54-5.069 1.515-7.445 1.792-3.674.429-7.207.39-10.782-.597-1.515-.42-.872-2.778.65-2.358M323.4 121.573c7.413 1.084 14.995.221 21.85-2.884 4.202-1.902 8.789-5.19 7.34-10.483-1.228-4.487-5.722-6.713-9.942-7.435-3.345-.57-6.74-.359-10.117-.264-2.573.072-8.89-.794-10.391 1.22-1.513 2.03-.2 7.702-.07 10.226l.569 11.144c.08 1.573-2.364 1.57-2.445 0-.316-6.19-.673-12.38-.95-18.574-.115-2.6-.416-4.977 2.295-6.069 1.895-.763 4.989-.222 7.053-.28 3.079-.088 6.167-.258 9.247-.23 4.407.04 8.946.63 12.598 3.301 5.902 4.316 6.53 12.42.62 16.937-7.755 5.93-18.963 7.116-28.306 5.75-1.552-.227-.893-2.585.649-2.359" fill="#12243e"/>
    <path d="M322.495 121.698c1.574 0 1.576 2.445 0 2.445-1.573 0-1.576-2.445 0-2.445M323.35 163.336a32.35 32.35 0 0 1-5.103-4.223c-.293-.3.167-.76.462-.462a31.444 31.444 0 0 0 4.97 4.122c.347.232.021.797-.329.563M314.308 156.357c-1.987-.645-3.604-1.963-4.692-3.741-.22-.36.343-.687.563-.33 1 1.633 2.478 2.85 4.303 3.442.397.129.227.759-.174.629M312.837 151.115c-.866-.25-1.562-.802-2.035-1.567-.222-.358.343-.685.563-.329a2.836 2.836 0 0 0 1.646 1.268c.402.116.23.746-.174.628M314.304 148.125c-1.357-.295-2.57-.905-3.645-1.782-.326-.266.138-.725.461-.462a7.897 7.897 0 0 0 3.358 1.615c.41.089.236.718-.174.629M312.631 141.436a4.03 4.03 0 0 1-1.34-1.729c-.162-.387.47-.556.628-.174a3.22 3.22 0 0 0 1.041 1.34c.333.248.008.814-.329.563M313.83 95.413a8.574 8.574 0 0 0-1.11-1.634c-.275-.316.185-.779.46-.46a9.25 9.25 0 0 1 1.213 1.765c.197.37-.366.7-.562.33M317.822 92.782c-.567.048-1.05-.24-1.324-.73-.206-.367.357-.696.563-.33.17.304.419.437.76.408.42-.035.417.617 0 .652M318.903 85.663c-1.1-.746-1.896-1.77-2.394-3-.157-.389.474-.558.629-.173a5.74 5.74 0 0 0 2.094 2.611c.346.234.02.798-.33.562M321.2 83.006a57.304 57.304 0 0 1-3.38-3.121c-.297-.297.164-.758.46-.461a57.969 57.969 0 0 0 3.38 3.12c.32.274-.142.733-.46.462M322.319 80.405c.419 0 .42.652 0 .652s-.421-.652 0-.652M326.78 91.231a7.302 7.302 0 0 0-1.116-1.762c-.274-.316.186-.779.46-.46a7.872 7.872 0 0 1 1.219 1.893c.173.38-.388.711-.562.33M330.735 90.668l-1.046-.718c-.344-.236-.017-.802.329-.563l1.046.719c.344.236.018.801-.33.562M313.384 92.108a39.521 39.521 0 0 1-3.45-2.514c-.326-.264.137-.723.461-.46a38.078 38.078 0 0 0 3.318 2.411c.351.227.024.792-.329.563M333.75 86.51a17.583 17.583 0 0 1-2.695-2.593c-.269-.32.19-.783.461-.461a17.583 17.583 0 0 0 2.695 2.593c.331.257-.134.716-.46.46M335.253 83.374a20.502 20.502 0 0 1-5.35-4.377c-.275-.314.184-.777.46-.461a19.984 19.984 0 0 0 5.22 4.275c.364.207.036.77-.33.563M337.084 81.038a29.398 29.398 0 0 1-2.938-2.198c-.32-.273.142-.732.46-.46a28.21 28.21 0 0 0 2.807 2.096c.35.228.024.792-.329.562" fill="#12243e"/>
    <path d="M316.394 91.853l-1.944-2.132c-.283-.31.177-.773.461-.463l1.945 2.134c.282.31-.178.772-.462.461M318.086 88.87a1.266 1.266 0 0 1-.893-.372c-.305-.289.157-.75.462-.462a.493.493 0 0 0 .431.181c.42.01.42.663 0 .652M344.771 90.64l-.793-.558c-.341-.24-.016-.804.329-.562.265.185.528.372.793.558.341.239.016.804-.329.563M350.14 91.093c-.442-.068-.77-.324-.99-.708-.208-.364.355-.693.563-.33.144.253.316.365.6.409.412.066.237.693-.174.629M354.635 90.857l-.929-.974c-.289-.303.171-.765.461-.46l.93.973c.29.304-.172.766-.462.461M324.665 126.51a30.384 30.384 0 0 1-2.505-1.687c-.332-.249-.008-.815.329-.563a30.384 30.384 0 0 0 2.505 1.687c.358.216.03.78-.33.563M328.845 125.7a2.889 2.889 0 0 1-1.337-.778c-.296-.298.165-.76.461-.461.304.306.632.5 1.05.61.404.109.232.738-.174.63M335.498 125.557l-.527-.284c-.369-.198-.04-.762.33-.563.176.095.35.19.527.284.37.2.04.762-.33.563M339.875 124.277l-.793-.42c-.371-.196-.042-.76.329-.563l.793.421c.37.196.042.76-.33.562M344.209 122.842a2.538 2.538 0 0 1-1.127-.824c-.254-.328.204-.793.46-.461.229.294.489.518.84.656.387.15.219.78-.173.629M349.149 120.202l-1.874-1.218c-.351-.228-.024-.793.329-.563l1.874 1.218c.35.227.025.792-.33.563M353.103 117.574a2.798 2.798 0 0 1-.992-.749c-.272-.317.188-.78.461-.46.246.287.514.49.86.646.382.172.051.734-.329.563M319.84 158.69l-.397-.418c-.29-.305.171-.767.46-.461l.398.417c.288.305-.172.767-.462.461M336.32 164.02a4.01 4.01 0 0 1-1.536-2.252c-.108-.406.52-.579.629-.173.198.75.607 1.401 1.236 1.862.336.245.01.811-.33.563M335.58 160.642l-2.248-2.512c-.28-.311.18-.774.46-.461l2.25 2.512c.279.312-.181.774-.461.46M323.733 149.968a4.421 4.421 0 0 1-1.821-1.814c-.2-.369.362-.699.563-.33a3.787 3.787 0 0 0 1.587 1.581c.37.196.042.76-.33.563M331.276 149.398l-1.058-.698c-.35-.23-.022-.796.329-.563l1.058.698c.349.23.023.795-.33.563M328.172 150.596l-.794-.837c-.288-.305.172-.767.461-.461l.794.837c.288.305-.172.767-.46.46" fill="#12243e"/>
    <path d="M332.737 150.225a3.046 3.046 0 0 1-1.048-.948c-.243-.343.32-.67.563-.33.218.308.483.534.814.715.368.2.039.764-.33.563M336.172 149.533a2.576 2.576 0 0 1-1.04-.958c-.226-.355.34-.683.562-.329.207.325.463.553.807.724.376.187.046.75-.329.563M340.074 147.807l-1.354-1.073c-.328-.26.136-.719.462-.46l1.353 1.072c.329.261-.136.72-.461.461M350.92 148.921l-1.322-1.117c-.322-.27.142-.73.461-.46l1.322 1.116c.321.271-.142.73-.46.461M350.264 146.515l-.792-.285c-.392-.14-.223-.771.174-.63.264.097.527.19.791.286.392.14.223.772-.173.629M350.97 145.084a2.022 2.022 0 0 1-1.574-.292c-.35-.23-.024-.795.33-.563.332.219.674.307 1.07.226.41-.083.585.546.174.629M361.176 105.51l-.526-1.676c-.126-.401.503-.572.63-.173.174.559.35 1.117.525 1.675.126.402-.503.573-.629.174M361.58 103.879l-.713-2.261c-.127-.401.503-.572.629-.173l.713 2.26c.127.402-.502.573-.628.174" fill="#12243e"/>
    <path d="M362.34 103.31a23.395 23.395 0 0 1-1.754-5.04c-.092-.408.537-.582.63-.173a22.632 22.632 0 0 0 1.686 4.884c.181.378-.38.709-.563.33M313.888 96.73l-.529-.557c-.288-.305.172-.767.461-.462.176.187.352.374.53.559.288.305-.173.767-.462.46" fill="#12243e"/>
    <path d="M133.976 114.168c0-2.66-.36-5.566.167-8.179.074-.371.425-.688.781-.782 2.698-.71 4.722 2.508 6.337 4.274 1.98 2.166 5.335 5.181 5.076 8.426-.287 3.611-3.918 7.479-5.914 10.264-1.272 1.775-3.159 5.845-5.612 6.093-.526.054-.905-.393-1.079-.821-.946-2.333.798-5.589-1.814-7.077-2.095-1.193-6.697-.654-9.224-1.014-6.05-.865-12.478-1.462-18.095-4.002-1.145-.519-.38-1.96.565-2.086 5.202-.696 10.162-.633 15.301-2.094 4.818-1.37 9.52-3.053 14.425-4.107 1.405-.303 2.005 1.854.595 2.158-5.478 1.178-10.705 3.164-16.119 4.573-4.788 1.246-9.37 1.062-14.202 1.708l.565-2.086c6.266 2.835 14.062 3.413 20.826 4.206 2.745.321 7.625-.746 8.898 2.173.236.543.163 6.765-.732 6.223.35.211 6.985-9.498 7.43-10.384 1.19-2.378 1.957-4.356.586-6.907-.723-1.345-2.026-2.535-3.059-3.663-.7-.765-2.145-3.077-3.464-2.337-.415.232 0 5.019 0 5.441 0 1.44-2.238 1.442-2.238 0" fill="#0062ae"/>
    <path d="M114.39 122.94a34.252 34.252 0 0 1 2.314-3.687c.222-.308.74-.01.515.302a34.212 34.212 0 0 0-2.313 3.687c-.183.338-.7.037-.515-.302M117.349 123.127a13.299 13.299 0 0 0 2.099-4.331c.103-.369.679-.213.576.159a13.797 13.797 0 0 1-2.16 4.474c-.224.306-.742.01-.515-.302M120.13 123.259a25.421 25.421 0 0 1 3.043-4.968c.236-.303.656.123.422.422a24.798 24.798 0 0 0-2.95 4.848c-.162.347-.677.045-.516-.302M122.93 123.485a31.812 31.812 0 0 0 2.748-6.058c.12-.362.697-.207.575.16a32.503 32.503 0 0 1-2.807 6.2c-.195.33-.711.03-.516-.302M125.994 124.58a196.643 196.643 0 0 0 4.085-9.25c.144-.35.722-.197.576.158a199.24 199.24 0 0 1-4.146 9.392c-.164.347-.68.045-.515-.3M129.258 124.594c.926-1.788 1.405-3.696 2.04-5.593.52-1.561 1.408-3.03 1.634-4.666.053-.38.628-.218.576.158-.258 1.867-1.29 3.559-1.854 5.345-.545 1.732-1.043 3.44-1.88 5.057-.177.342-.692.04-.516-.301M132.796 122.286c1.735-4.354 3.491-8.7 5.27-13.038.143-.35.721-.196.575.16a1414.182 1414.182 0 0 0-5.269 13.037c-.14.353-.719.198-.576-.159" fill="#0062ae"/>
    <path d="M131.606 125.084a8.282 8.282 0 0 0 .972-2.663c.069-.378.644-.218.575.158a8.72 8.72 0 0 1-1.032 2.806c-.192.333-.708.033-.516-.301M140.568 111.143c-1.513 3.38-3.014 6.804-3.874 10.42-.497 2.086-.412 4.426-2.114 5.934-.286.253-.71-.167-.422-.422 2.076-1.84 2.052-6.371 2.897-8.89.84-2.51 1.918-4.931 2.998-7.343.156-.35.67-.047.515.3M143.042 113.436a161.437 161.437 0 0 0-8.144 19.094c-.127.36-.704.205-.575-.159a162.449 162.449 0 0 1 8.203-19.236c.174-.343.69-.04.516.301M144.483 115.966a26.517 26.517 0 0 0-3.178 8.718c-.067.378-.642.218-.576-.158a26.955 26.955 0 0 1 3.24-8.862c.191-.332.707-.032.514.302M284.976 114.168c0-2.66-.36-5.566.166-8.179.075-.371.426-.688.782-.782 2.698-.71 4.723 2.508 6.336 4.274 1.98 2.166 5.336 5.181 5.077 8.426-.287 3.611-3.918 7.479-5.914 10.264-1.272 1.775-3.16 5.845-5.612 6.093-.525.054-.905-.393-1.079-.821-.946-2.333.798-5.589-1.815-7.077-2.094-1.193-6.696-.654-9.223-1.014-6.05-.865-12.478-1.462-18.095-4.002-1.145-.519-.38-1.96.565-2.086 5.202-.696 10.162-.633 15.3-2.094 4.82-1.37 9.521-3.053 14.426-4.107 1.404-.303 2.005 1.854.595 2.158-5.478 1.178-10.705 3.164-16.119 4.573-4.788 1.246-9.37 1.062-14.202 1.708l.565-2.086c6.266 2.835 14.062 3.413 20.825 4.206 2.745.321 7.626-.746 8.9 2.173.235.543.162 6.765-.733 6.223.35.211 6.985-9.498 7.43-10.384 1.19-2.378 1.957-4.356.586-6.907-.723-1.345-2.027-2.535-3.059-3.663-.7-.765-2.145-3.077-3.464-2.337-.416.232 0 5.019 0 5.441 0 1.44-2.238 1.442-2.238 0" fill="#0062ae"/>
    <path d="M265.39 122.94a34.41 34.41 0 0 1 2.313-3.687c.222-.308.741-.01.515.302a34.204 34.204 0 0 0-2.312 3.687c-.183.338-.699.037-.516-.302M268.348 123.127a13.281 13.281 0 0 0 2.1-4.331c.102-.369.678-.213.575.159a13.777 13.777 0 0 1-2.159 4.474c-.224.306-.743.01-.516-.302M271.13 123.259a25.373 25.373 0 0 1 3.043-4.968c.236-.303.656.123.422.422a24.745 24.745 0 0 0-2.95 4.848c-.162.347-.677.045-.516-.302M273.93 123.485a31.746 31.746 0 0 0 2.747-6.058c.12-.362.697-.207.575.16a32.437 32.437 0 0 1-2.806 6.2c-.195.33-.71.03-.516-.302M276.994 124.58a197.686 197.686 0 0 0 4.085-9.25c.144-.35.722-.197.576.158a199.225 199.225 0 0 1-4.145 9.392c-.164.347-.68.045-.516-.3M280.258 124.594c.926-1.788 1.405-3.696 2.038-5.593.522-1.561 1.41-3.03 1.637-4.666.052-.38.627-.218.575.158-.258 1.867-1.29 3.559-1.854 5.345-.544 1.732-1.043 3.44-1.88 5.057-.177.342-.693.04-.516-.301M283.796 122.286c1.735-4.354 3.491-8.7 5.27-13.038.143-.35.721-.196.575.16a1442.957 1442.957 0 0 0-5.27 13.037c-.139.353-.718.198-.575-.159" fill="#0062ae"/>
    <path d="M282.605 125.084c.48-.834.8-1.717.973-2.663.068-.378.643-.218.575.158a8.744 8.744 0 0 1-1.032 2.806c-.192.333-.707.033-.516-.301M291.568 111.143c-1.513 3.38-3.014 6.804-3.874 10.42-.496 2.086-.411 4.426-2.114 5.934-.286.253-.71-.167-.422-.422 2.076-1.84 2.052-6.371 2.897-8.89.84-2.51 1.917-4.931 2.997-7.343.158-.35.672-.047.516.3M294.043 113.436a161.105 161.105 0 0 0-8.144 19.094c-.127.36-.704.205-.576-.159a162.62 162.62 0 0 1 8.204-19.236c.173-.342.689-.04.516.302M295.484 115.966a26.52 26.52 0 0 0-3.18 8.718c-.066.378-.641.218-.574-.158a26.976 26.976 0 0 1 3.238-8.862c.193-.332.708-.032.516.302" fill="#0062ae"/>
  </g>
</svg>
