<svg xmlns="http://www.w3.org/2000/svg" viewBox="0 0 483.645 316.312">
  <defs>
    <clipPath id="a_3_2">
      <path d="M0 237.234h362.734V0H0z"/>
    </clipPath>
  </defs>
  <g clip-path="url(#a_3_2)" transform="matrix(1.33333 0 0 -1.33333 0 316.312)">
    <path d="M22.279 97.152c-.895-.543-1.49-1.435-1.971-2.345-.676-1.28-1.58-2.44-2.243-3.74-.165-.32.319-.605.484-.282a34.056 34.056 0 0 0 1.835 3.125c.642.98 1.14 2.128 2.178 2.758.309.187.027.671-.283.484M26.71 93.368c-1.23-1.248-2.616-2.85-2.7-4.686-.017-.362.544-.36.561 0 .076 1.667 1.424 3.161 2.534 4.29.255.257-.142.654-.396.396M33.44 92.995c-1.574-1.239-2.635-3.033-2.7-5.06-.01-.363.552-.362.562 0 .059 1.887 1.077 3.515 2.535 4.664.285.222-.115.617-.396.396M40.474 92.497c-.548-1.46-1.8-2.55-1.88-4.188-.017-.362.544-.36.562 0 .075 1.543 1.34 2.652 1.86 4.04.126.337-.416.483-.542.148M46.831 92.871c-.402-1.26-.51-2.973-1.423-3.99-.24-.269.154-.666.396-.398 1.001 1.117 1.13 2.864 1.568 4.24.11.344-.432.492-.54.148M55.423 92.797c-.1-1.93-1.786-3.32-2.233-5.162-.086-.351.455-.5.54-.15.464 1.91 2.15 3.287 2.255 5.312.018.36-.543.359-.562 0M62.165 92.871a8.443 8.443 0 0 1-.374-2.138c-.024-.505-.021-.902-.292-1.354-.265-.44-.56-.85-.802-1.303-.17-.319.314-.602.485-.282.277.518 1.159 1.418 1.16 2.01.001 1.007.062 1.95.364 2.918.107.346-.434.494-.541.15M70.018 92.871c-.362-1.557-.29-3.489-1.424-4.738-.243-.268.153-.665.397-.397 1.226 1.352 1.176 3.302 1.568 4.986.082.351-.459.502-.54.15M76.001 92.123c-.412-1.259-.75-2.545-1.468-3.673-.194-.306.291-.587.485-.282.743 1.168 1.097 2.502 1.524 3.806.113.344-.429.491-.54.149M82.057 91.124c-.879-.948-1.175-2.294-1.568-3.489-.114-.345.428-.491.541-.149.36 1.095.618 2.372 1.423 3.242.246.264-.149.662-.396.396M89.08 91.675c-.04-1.056-.616-1.938-1.083-2.851-.165-.321.32-.605.484-.283.516 1.007 1.116 1.97 1.161 3.134.013.36-.547.36-.562 0M94.315 92.422c-.019-1.097-.272-2.338-1.039-3.167-.246-.265.15-.663.396-.396.873.94 1.183 2.31 1.205 3.563.005.362-.556.362-.562 0M78.878 109.917c-.41-.428-.618-.869-.792-1.429-.133-.428-.218-.841-.42-1.246a2.496 2.496 0 0 1-.272-.889c-.037-.361.524-.357.56 0 .038.357.227.663.377.98.13.271.148.546.239.826.172.529.312.95.705 1.361.25.261-.147.658-.397.397M82.805 109.075a5.437 5.437 0 0 1-1.484-3.564c-.01-.363.55-.36.56 0a4.842 4.842 0 0 0 1.32 3.168c.249.261-.146.66-.396.396M86.66 108.67c-.059-.327-.257-.393-.39-.661-.133-.271-.1-.586-.227-.842-.309-.621-.492-1.241-.515-1.936-.013-.363.548-.361.56 0 .012.35.064.676.166 1.012.092.305.302.574.385.876.08.293.1.58.307.834.141.173.216.353.255.569.062.353-.48.505-.542.149M90.867 108.11c-.033-.207-.177-.382-.291-.552-.141-.213-.206-.436-.324-.656-.306-.564-.74-1.007-.798-1.672-.031-.36.53-.357.56 0 .032.353.239.643.428.93.123.186.368.452.405.678.065.417.493.696.56 1.123.056.353-.484.505-.54.148M95.354 108.11c-.417-1.083-1.63-1.608-1.692-2.88-.018-.36.543-.36.56 0 .055 1.117 1.291 1.74 1.673 2.731.13.337-.412.483-.541.148M99.073 108.233c-.362-.362-.714-.722-.996-1.15-.386-.593-.163-1.336-.451-1.992-.144-.328.339-.614.485-.283.232.528.308 1.04.318 1.613.01.541.693 1.068 1.04 1.416.256.256-.14.653-.396.396M49.103 162.87c-.47-.681-1.033-1.287-1.537-1.941-.194-.252-.405-.503-.556-.783-.148-.276-.155-.738-.543-.793-.357-.051-.205-.591.149-.541.68.096.62.755.966 1.194.669.853 1.39 1.688 2.007 2.58.205.299-.281.58-.485.284M55.599 164.048c-1.386-1.387-2.775-2.79-3.69-4.544-.167-.32.317-.604.484-.283.894 1.713 2.249 3.077 3.602 4.431.256.255-.14.652-.396.396M62.847 165.955c-.447-.75-1.099-1.086-1.693-1.68l-1.373-1.374c-1.05-1.05-2.032-2.137-2.824-3.397-.193-.307.292-.589.484-.283.846 1.345 1.924 2.47 3.042 3.59.938.94 2.162 1.712 2.848 2.861.186.311-.299.593-.484.283M70.101 168.057c-.127-1.633-1.47-2.882-2.367-4.167-.819-1.174-1.872-2.198-2.88-3.207-.255-.256.141-.653.397-.397 1.147 1.148 2.271 2.321 3.201 3.655.918 1.316 2.08 2.441 2.21 4.116.03.361-.533.358-.56 0M75.01 168.58c-.311.184-.593-.3-.282-.484.59-.349-1.623-3.893-1.946-4.359-.811-1.167-1.712-2.446-2.72-3.457-.397-.398-.91-.827-1.117-1.365-.034-.086.003-.213.072-.273.015-.013.03-.025.044-.039.272-.236.67.16.397.397.414-.36 4.37 5.25 4.649 5.847.334.718 2.008 3.082.904 3.733M81.04 170.021c-.093-2.138-1.292-4.171-2.389-5.96-1.076-1.755-2.359-3.378-3.463-5.118-.194-.306.29-.587.484-.283 2.17 3.416 5.746 7.1 5.929 11.361.015.361-.546.36-.561 0M86.451 171.34l-.28-.28a.257.257 0 0 1-.053-.307c-.979-1.79-1.91-3.631-3.077-5.304-.705-1.012-1.329-2.083-1.963-3.14-.535-.89-1.123-1.58-1.43-2.591-.106-.347.435-.495.54-.15.34 1.117 1.065 1.942 1.655 2.925a54.251 54.251 0 0 0 1.963 3.076c1.18 1.694 2.08 3.63 3.085 5.432.156.278-.212.568-.44.34M88.903 167.571c-.415-1.187-1.421-2.115-1.863-3.282a65.56 65.56 0 0 0-2.596-5.907c-.16-.323.324-.607.484-.283a71.163 71.163 0 0 1 2.472 5.572c.519 1.32 1.578 2.417 2.045 3.751.119.342-.423.488-.542.15M40.38 164.205c-.55-1.32-1.362-2.517-1.682-3.927-.04-.176.082-.355.27-.355.409 0 .478.082.76.363.23.23-.068.57-.316.45.382 1.153 1.042 2.198 1.51 3.32.139.334-.405.478-.542.15M44.588 166.73c-.205-.51-.54-.902-.84-1.354-.254-.382-.336-.848-.561-1.245-.361-.63-.871-1.086-1.202-1.704a.255.255 0 0 1-.211-.26v-.28c0-.324.455-.374.55-.075.279.882 1.023 1.468 1.472 2.256.23.404.323.853.587 1.251.282.423.555.786.746 1.261.135.336-.408.48-.541.15M48.262 168.76c-.956-1.804-2.302-3.367-3.177-5.208-.12-.021-.227-.105-.227-.262v-.281c0-.26.41-.41.523-.141.86 2.02 2.34 3.674 3.365 5.609.17.32-.314.602-.484.283M52.44 171.498c-.041-.145-.6-.958-.701-1.262-.294-.873-.706-1.633-1.182-2.413-.778-1.274-1.61-2.5-2.295-3.831-.165-.321.319-.605.485-.283.75 1.459 1.67 2.808 2.524 4.207.345.564.619 1.136.859 1.75.233.595.674 1.082.853 1.683.102.348-.44.495-.542.149M56.497 173.628c-1.115-.699-1.404-2.04-1.68-3.245-.256-1.119-1-2.123-1.547-3.12-.35-.646-.744-.998-.839-1.73-.046-.359.515-.354.561 0 .08.61.703 1.335 1.004 1.886.397.73.82 1.441 1.202 2.18.615 1.191.253 2.71 1.582 3.545.305.192.025.677-.283.484M61.769 176.39c-1.263-1.361-1.899-3.048-2.659-4.712-.771-1.691-1.966-3.44-3.231-4.825-.244-.266.152-.664.397-.396 1.05 1.15 2.002 2.518 2.833 3.832 1.18 1.867 1.499 4.026 3.057 5.705.245.264-.15.662-.397.396M65.053 177.032c0 .362-.557.362-.561 0-.011-.914-.614-1.887-.99-2.708-.436-.955-.897-1.844-1.496-2.705-.721-1.034-1.25-2.32-2.08-3.265-.33-.377-.637-.853-.753-1.344-.083-.352.458-.5.54-.149.188.795.958 1.575 1.375 2.267a40.789 40.789 0 0 0 1.963 2.995c.566.776.92 1.873 1.31 2.75.277.626.546 1.113.645 1.73a.27.27 0 0 1 .047.15zM70.662 179.557c-.233-2.042-1.823-4.156-2.842-5.881-.473-.8-1.024-1.558-1.54-2.33-.292-.433-2.825-3.555-2.267-4.048.27-.238.67.157.397.397.213-.19.295.213.472.502.252.41.517.812.781 1.214.608.926 1.23 1.843 1.846 2.764.501.75.968 1.509 1.43 2.285.898 1.513 2.08 3.316 2.284 5.097.041.359-.52.355-.56 0M72.906 179.837c-.14-2.112-1.636-4.323-2.42-6.283-.48-1.193-1.007-2.339-1.749-3.393-.459-.65-.795-1.314-.88-2.104-.038-.359.523-.356.561 0 .121 1.12 1.03 2.083 1.562 3.027.497.883.856 1.85 1.233 2.788.76 1.893 2.117 3.901 2.254 5.965.023.361-.537.36-.56 0M73.785 176.613a3.597 3.597 0 0 1-.314-1.167c-.082-.865-.652-1.392-.955-2.146-.58-1.438-1.724-2.516-2.125-4.046-.09-.35.45-.498.541-.15.355 1.358 1.277 2.374 1.936 3.58.33.603.642 1.232.96 1.845.31.592.168 1.166.442 1.802.141.327-.342.614-.485.282M74.907 174.37c-.439-.644-.912-1.244-1.223-1.964-.353-.816-.352-1.7-.74-2.525-.153-.324.33-.61.484-.282.274.583.55 1.23.587 1.882.056.984.848 1.832 1.377 2.605.204.3-.282.58-.485.283M45.738 134.542c-.485-1.11-1.555-1.874-2.198-2.9-.757-1.204-1.71-2.238-2.29-3.551-.144-.328.339-.613.485-.282.576 1.302 1.498 2.378 2.289 3.549.67.996 1.713 1.79 2.199 2.9.143.329-.34.615-.485.284M51.729 124.265c-1.629-1.136-2.618-2.85-3.984-4.251-.252-.26.144-.656.397-.396 1.327 1.362 2.287 3.059 3.869 4.163.296.205.015.69-.282.484M79.158 147.22c-1.94-2.28-3.325-4.942-5.092-7.35-.215-.292.273-.571.484-.282 1.74 2.367 3.095 4.992 5.005 7.236.233.273-.162.672-.397.396M82.723 142.815c-.11-1.19-1.096-2.196-1.807-3.075-.6-.743-1.137-1.515-1.521-2.393-.142-.328.34-.614.485-.283.865 1.983 3.197 3.519 3.404 5.75.034.36-.528.358-.561 0M87.771 140.29c-.053-.519-.368-1.04-.662-1.46-.171-.247-.224-.654-.311-.936-.257-.837-.816-1.481-1.232-2.23-.176-.316.308-.6.484-.284.447.805.934 1.51 1.29 2.365.226.546.414 1.054.712 1.576.179.315.244.612.28.969.037.36-.525.356-.561 0M39.81 109.719c-.038.354-.6.358-.561 0 .205-1.888-1.104-3.59-1.925-5.188-.165-.322.319-.605.485-.283.863 1.683 2.217 3.478 2 5.47M44.897 107.335c-.371-.792-.527-1.771-1.01-2.496a26.108 26.108 0 0 1-1.514-2.552c-.164-.321.319-.605.484-.283.406.793.86 1.552 1.347 2.298.553.847.748 1.834 1.177 2.751.153.325-.331.61-.484.282" fill="#12243e"/>
    <path d="M100.867 110.636c-1.752-1.013-3.34-1.113-5.302-1.113-3.411 0-6.828-.065-10.238.03-1.824.05-3.542.639-5.178 1.404-1.394.654-1.532 2.928-1.874 4.192-.838 3.102-.783 6.582-.281 9.782.233 1.477.087 4.024 2.285 4.214 1.39.12 2.809.262 4.203.335 2.625.137 5.207.237 7.846.237 2.378 0 5.122-.15 7.309.98 2.368 1.226 2.817 2.012 3.486 4.229.328-.946.155-2.123.155-3.064v-6.913c0-1.77-.285-3.494-.276-5.26.01-2.144.325-4.193.285-6.331a1.044 1.044 0 0 1-.29-.75c0-.652-1.51-1.615-2.13-1.972m4.542 11.282c.49 2.572.112 5.507.112 8.108 0 2.965.753 8.445-3.663 7.224a1.133 1.133 0 0 1-.824-1.083v-.28c0-.031.007-.057.009-.086-.407-1.374-.634-1.953-1.805-2.786-1.88-1.337-4.73-1.054-6.91-1.054-3.265 0-6.587.125-9.823-.394-1.315-.211-3.263.11-4.475-.601-1.1-.644-1.572-2.063-1.86-3.21-.42-1.666-.562-3.52-.641-5.233-.09-1.942-.497-4.402.022-6.286.693-2.524 1.01-5.813 3.466-7.216 3.17-1.814 6.787-1.742 10.31-1.742 3.479 0 7.894-.79 11.15.679 1.659.747 4.363 2.095 4.722 4.184.182.179.309.425.322.746.133 2.982-.673 6.098-.112 9.03M102.263 148.05c0 2.083-.039 4.66-.902 6.55-1.359 2.972-4.61 4.484-7.702 4.957-1.794.275-3.658-.118-5.448-.26-2.086-.168-4.232-.029-6.324-.029-4.465 0-8.909.373-13.378.373-9.468 0-36.632.374-46.089.374-2.515 0-6.443-1.644-7.72-3.857-.764-1.322-.577-3.224-.525-4.67.072-2.015.017-4.04.017-6.057 0-1.446 2.244-1.446 2.244 0 0 2.96-.388 6.186.07 9.108.265 1.694 3.235 2.476 4.572 2.986 1.977.753 4.864.247 6.952.247 7.208 0 32.175-.374 39.407-.374 6.931 0 13.84-.558 20.774-.346 3.761.115 7.012.768 10.15-1.956 1.58-1.37 1.658-5.017 1.658-7.074 0-1.447 2.244-1.447 2.244 0v.027z" fill="#12243e"/>
    <path d="M102.637 105.884c-.1 1.436-2.344 1.445-2.244 0 .19-2.754 1.222-11.882-.22-14.428-2.254-3.977-7.375-2.595-10.97-3.365-3.131-.668-6.371-.12-9.498.188-1.802.176-3.306-.046-5.116-.053-1.877-.007-3.876-.078-5.796.093-3.486.31-24.895-.374-28.422-.374-3.668 0-7.3.355-10.94.379-3.974.029-8.042.814-11.1 3.553-2.363 2.118-1.546 6.73-1.52 9.53.013 1.448-2.231 1.447-2.244 0-.027-2.95-.522-6.471.877-9.211 1.559-3.053 5.31-4.99 8.548-5.708 1.646-.364 3.724-.324 5.44-.407 1.89-.092 3.705-.381 5.606-.381h7.577c2.5 0 22.769.513 25.242.458 2.324-.052 4.437-.46 6.732-.175 1.903.234 4.092.152 6.004-.036 4.209-.413 8.133.128 12.32.128 3.665 0 6.927 1.284 9.197 4.248 2 2.614.733 12.595.527 15.56" fill="#12243e"/>
    <path d="M16.81 101.128c-.269 2.342-.148 9.884-.353 12.227-.268 3.063-.487 5.985-.199 9.068.284 3.048.34 6.003.332 9.074-.004 1.527-.49 2.932-.422 4.487.083 1.904.081 7.449.081 9.355 0 1.447-2.244 1.447-2.244 0 0-2.664-.682-9.787.04-12.36.794-2.824.452-6.733.09-9.61a38.768 38.768 0 0 1-.056-9.247c.292-2.591.19-10.402.487-12.994.163-1.42 2.41-1.437 2.244 0M102.076 148.144c-.037 1.444-2.28 1.448-2.244 0 .046-1.83.28-3.64.28-5.47 0-1.935-.28-7.475-.28-9.395 0-1.447 2.244-1.447 2.244 0 0 1.664.28 6.967.28 8.652 0 2.08-.228 4.136-.28 6.213M102.328 107.853c-.142.476.189.83.269 1.287.104.601-.152 1.205-.784 1.38-.546.15-1.276-.182-1.38-.785-.041-.237-.158-.448-.251-.672-.12-.29-.143-.705-.146-1.012-.008-.595.329-1.12.357-1.699.07-1.44 2.315-1.447 2.244 0-.026.527-.16 1-.31 1.501M86.186 116.494a1.16 1.16 0 0 1-.447.018c-.044.007-.085.018-.131.022-.581.038-1.58.225-2.048.604-.396.32-.496 1.268-.586 1.733-.38 1.964.722 2.917 2.67 3.017.705.036 1.526-.485 1.916-1.055.396-.58 1.138-1.193 1.125-1.934-.02-1.106-1.165-2.717-2.499-2.405m3.632 5.011c-.492.457-.715 1.061-1.267 1.494-.663.518-1.308.88-2.133 1.058-2.959.647-5.793-1.364-5.787-4.375.003-1.247.336-2.868 1.123-3.855.867-1.09 2.526-1.449 3.854-1.537.066-.004.126.001.187.006 2.286-.388 4.776 1.592 5.061 3.837.177 1.382.007 2.405-1.038 3.372M91.93 159.595c-.507.523-.585 1.638-.833 2.31-.429 1.162-.797 2.87-1.052 4.088-.436 2.079-.54 4.514-2.25 5.976-1.54 1.315-4.433.339-6.152.022-1.476-.272-2.759-.964-4.267-1.168-1.449-.197-2.769-.705-4.207-.952-6.76-1.162-13.314-3.204-20.042-4.492-3.342-.64-6.449-1.697-9.688-2.721-2.599-.821-5.948-2.06-8.678-2.173-1.442-.061-1.448-2.304 0-2.244 2.25.093 4.305.972 6.468 1.512 2.91.728 5.704 1.754 8.568 2.627 6.15 1.874 12.716 2.606 18.92 4.316 2.713.747 5.663 1.304 8.413 1.849 2.648.523 5.18 1.22 7.854 1.65 2.38.383 2.147-1.678 2.477-3.001.355-1.43.788-2.823 1.156-4.238.42-1.612.503-3.687 1.727-4.947 1.01-1.04 2.594.548 1.586 1.586" fill="#12243e"/>
    <path d="M78.923 170.587c-.416.667-.634 2.289-.868 3.097-.321 1.113-.73 2.07-1.225 3.115-.524 1.106-1.707 4.464-3.107 4.795-.74.176-1.24.156-1.945-.227-1.404-.764-2.826-1.043-4.333-1.49-2.581-.762-5.162-1.97-7.638-3.03-5.223-2.236-10.09-5.476-15.068-8.19-2.7-1.47-5.321-3.092-8.02-4.583-1.411-.78-2.761-1.617-4.207-2.34-.771-.385-1.767-1.32-2.536-1.57-1.37-.446-.783-2.613.596-2.163 1.647.537 3.169 1.843 4.756 2.637 2.588 1.294 4.908 3.042 7.573 4.207 2.06.902 4.06 2.523 5.988 3.698 2.388 1.455 4.972 2.624 7.474 3.875 4.555 2.277 8.969 4.583 13.937 5.869.41.106 2.57 1.198 2.8.777.61-1.114 1.22-2.255 1.792-3.396.993-1.98.953-4.382 2.094-6.214.763-1.224 2.705-.1 1.937 1.133" fill="#12243e"/>
    <text style="-inkscape-font-specification:Circe" transform="matrix(1 0 0 -1 0 52.768)" font-weight="700" font-size="16" font-family="Circe" fill="#12243e">
      <tspan y="0" x="0 14.416 22.672001 31.6 39.456001 46.863998 55.743999 62.863998 66.255997 73.664001 81.903999 90.143997 97.552002 105.6 114.48">Мерчант аккаунт</tspan><tspan y="46" x="178.864 188.896 197.888 209.536 217.552 226.17599 233.64799 241.888 250.976 254.368 262.57599 271.20001 280.28799 288.54401 297.42401 304.32001 313.31201 321.34399 324.73599 337.84 352.25601">Кошельки клиентов QMC</tspan>
    </text>
    <path d="M245.997 180.869c-.597-.362-.993-.957-1.313-1.563-.452-.854-1.053-1.627-1.496-2.494-.11-.214.212-.403.323-.188.368.72.78 1.408 1.223 2.083.428.653.76 1.419 1.45 1.839.208.125.02.448-.187.323M248.95 178.346c-.817-.833-1.742-1.9-1.798-3.124-.012-.24.362-.24.373 0 .05 1.111.95 2.106 1.69 2.86.17.171-.094.436-.264.264M253.438 178.097c-1.05-.826-1.757-2.021-1.799-3.373-.008-.242.366-.241.373 0 .04 1.258.719 2.343 1.691 3.109.19.149-.078.41-.265.264M258.127 177.765c-.366-.974-1.2-1.7-1.253-2.792-.012-.24.362-.24.374 0 .05 1.03.893 1.768 1.24 2.692.084.226-.277.323-.36.1M262.366 178.014c-.268-.84-.34-1.98-.95-2.66-.16-.179.104-.444.265-.264.667.743.752 1.908 1.045 2.825.074.23-.287.328-.36.1M268.093 177.965c-.066-1.287-1.19-2.212-1.489-3.441-.057-.234.303-.334.361-.1.31 1.273 1.433 2.19 1.502 3.54.013.242-.36.24-.374 0M272.587 178.014a5.614 5.614 0 0 1-.249-1.425c-.017-.337-.014-.6-.194-.903-.177-.293-.373-.567-.536-.869-.113-.212.21-.4.324-.188.185.346.772.946.773 1.341.001.671.042 1.3.243 1.945.072.23-.289.33-.36.1M277.823 178.014c-.241-1.037-.193-2.326-.948-3.159-.162-.177.1-.443.263-.264.818.901.785 2.201 1.046 3.324.055.234-.306.334-.361.1M281.812 177.516c-.274-.84-.5-1.696-.979-2.448-.128-.205.195-.392.324-.19.495.78.731 1.669 1.016 2.538.075.23-.286.328-.361.1M285.85 176.85c-.587-.633-.784-1.529-1.047-2.326-.075-.23.286-.328.361-.1.24.731.413 1.582.95 2.161.164.177-.1.442-.265.265M290.532 177.217c-.027-.704-.411-1.292-.723-1.9-.11-.215.213-.404.324-.19.343.673.743 1.314.773 2.09.009.24-.365.24-.374 0M294.022 177.715c-.013-.73-.182-1.559-.693-2.112-.164-.177.1-.44.264-.264.581.628.788 1.541.803 2.376.004.242-.37.241-.374 0M283.73 189.378c-.272-.285-.412-.58-.528-.952-.089-.286-.146-.561-.281-.831a1.695 1.695 0 0 1-.181-.593c-.025-.24.349-.237.374 0 .025.238.151.442.252.654.086.18.097.364.159.55.114.353.208.634.47.908.166.174-.098.438-.265.264M286.348 188.817a3.622 3.622 0 0 1-.99-2.376c-.006-.242.368-.24.374 0 .02.778.345 1.547.88 2.111.166.175-.098.44-.264.265M288.918 188.547c-.038-.219-.171-.262-.26-.44-.09-.182-.066-.392-.151-.562a3.07 3.07 0 0 1-.344-1.29c-.008-.243.366-.242.374 0 .008.233.043.45.11.674.062.202.203.382.257.584.054.195.068.387.205.556a.781.781 0 0 1 .169.38c.042.235-.318.336-.36.098M291.722 188.174c-.02-.138-.118-.254-.193-.368-.095-.142-.138-.291-.217-.438-.204-.376-.492-.67-.53-1.113-.023-.241.352-.24.373 0 .02.234.158.428.284.619.082.125.246.3.27.452.043.279.328.464.374.748.036.236-.324.338-.36.1M294.713 188.174c-.277-.722-1.086-1.072-1.128-1.92-.012-.241.362-.24.374 0 .036.745.86 1.16 1.115 1.82.087.225-.275.323-.36.1M297.193 188.256c-.241-.242-.477-.482-.663-.768-.26-.395-.11-.89-.301-1.327-.097-.218.226-.409.322-.189.156.352.205.694.213 1.076.006.36.462.711.694.943.17.171-.094.436-.265.265M263.88 224.68c-.313-.454-.688-.858-1.024-1.294-.13-.168-.27-.335-.372-.522-.099-.184-.103-.492-.362-.529-.238-.034-.137-.394.1-.36.453.063.413.503.642.796.448.568.927 1.125 1.34 1.721.136.198-.188.385-.324.188M268.21 225.466c-.924-.924-1.85-1.86-2.46-3.03-.11-.213.211-.402.323-.188.596 1.142 1.5 2.05 2.402 2.954.17.17-.094.435-.265.264M273.043 226.737c-.298-.5-.732-.725-1.13-1.12l-.915-.916c-.7-.7-1.354-1.425-1.883-2.265-.129-.204.196-.392.323-.189.564.897 1.283 1.647 2.028 2.393.626.627 1.441 1.142 1.9 1.908.124.208-.2.396-.323.19M277.878 228.139c-.085-1.09-.979-1.921-1.578-2.78-.545-.781-1.248-1.464-1.92-2.137-.17-.17.094-.435.265-.264.764.766 1.513 1.547 2.134 2.437.612.877 1.386 1.627 1.473 2.744.02.24-.354.239-.374 0M281.152 228.487c-.21.123-.396-.2-.188-.322.393-.233-1.083-2.596-1.297-2.906-.541-.778-1.142-1.631-1.815-2.305-.264-.266-.606-.552-.744-.91a.182.182 0 0 1 .048-.182l.029-.026c.182-.158.447.106.265.264.276-.24 2.914 3.5 3.098 3.899.223.478 1.34 2.054.604 2.488M285.171 229.448c-.062-1.425-.86-2.781-1.593-3.974-.718-1.17-1.572-2.252-2.308-3.411-.13-.204.193-.392.323-.19 1.446 2.278 3.83 4.735 3.952 7.575.01.24-.364.24-.374 0M288.779 230.328l-.187-.187a.17.17 0 0 1-.036-.205c-.652-1.193-1.273-2.421-2.05-3.536-.471-.675-.886-1.39-1.31-2.093-.355-.594-.748-1.053-.953-1.728-.07-.231.29-.33.36-.1.227.745.71 1.295 1.104 1.95a35.93 35.93 0 0 0 1.308 2.05c.787 1.13 1.387 2.42 2.057 3.622.103.185-.142.379-.293.227M290.414 227.815c-.277-.791-.948-1.41-1.242-2.188a43.488 43.488 0 0 0-1.732-3.938c-.106-.215.217-.405.324-.188a47.473 47.473 0 0 1 1.647 3.714c.347.88 1.052 1.61 1.363 2.5.079.228-.281.326-.36.1M258.065 225.57c-.366-.88-.91-1.678-1.122-2.618-.026-.117.055-.236.18-.236.273 0 .319.054.506.242.154.153-.044.38-.21.3.255.768.695 1.465 1.006 2.213.093.222-.27.318-.36.1M260.87 227.253c-.137-.34-.36-.602-.56-.902-.17-.255-.223-.566-.375-.83-.24-.42-.58-.724-.8-1.136-.076-.017-.141-.073-.141-.174v-.187c0-.215.304-.249.367-.049.186.588.682.98.98 1.504.155.27.217.57.392.834.188.282.37.524.498.841.09.224-.272.32-.361.1M263.319 228.607c-.637-1.203-1.534-2.245-2.117-3.472-.08-.014-.153-.07-.153-.175v-.187c0-.173.274-.273.35-.094.572 1.347 1.56 2.449 2.243 3.74.114.212-.21.4-.323.188M266.105 230.432c-.028-.097-.399-.639-.468-.84-.196-.584-.47-1.09-.788-1.61-.518-.85-1.073-1.667-1.53-2.554-.11-.214.213-.403.323-.188.501.972 1.114 1.871 1.684 2.804.229.376.412.757.572 1.167.155.396.449.721.568 1.121.069.232-.292.331-.361.1M268.81 231.852c-.744-.466-.937-1.36-1.12-2.163-.172-.746-.668-1.416-1.03-2.08-.236-.43-.498-.666-.56-1.154-.032-.239.342-.235.372 0 .053.406.47.89.67 1.258.265.487.547.962.801 1.454.411.794.17 1.807 1.054 2.363.205.128.017.452-.188.323M272.324 233.693c-.842-.907-1.266-2.032-1.772-3.142-.515-1.127-1.312-2.292-2.155-3.215-.162-.179.102-.444.265-.265.7.767 1.335 1.68 1.889 2.555.787 1.245 1 2.684 2.038 3.803.164.176-.1.441-.265.264M274.513 234.122c0 .242-.37.241-.374 0-.008-.609-.41-1.258-.66-1.806-.29-.636-.598-1.229-.997-1.802-.48-.69-.833-1.548-1.387-2.178-.22-.25-.425-.568-.503-.896-.055-.234.306-.334.361-.099.125.53.638 1.05.916 1.511.413.682.84 1.353 1.31 1.997.377.517.613 1.25.872 1.833.185.418.364.743.431 1.153a.18.18 0 0 1 .031.1zM278.252 235.805c-.155-1.361-1.215-2.771-1.895-3.921-.315-.533-.682-1.038-1.027-1.552-.193-.29-1.883-2.371-1.51-2.7.18-.158.445.106.264.265.142-.126.196.142.314.335.168.273.345.54.522.809.405.618.82 1.229 1.23 1.843.334.5.645 1.006.953 1.524.6 1.008 1.387 2.21 1.523 3.397.027.24-.347.237-.374 0M279.748 235.992c-.094-1.409-1.09-2.882-1.614-4.188-.32-.796-.67-1.56-1.165-2.263-.306-.433-.53-.876-.587-1.403-.026-.239.348-.237.374 0 .082.747.687 1.39 1.042 2.018.332.59.57 1.234.822 1.86.507 1.261 1.412 2.6 1.503 3.976.016.241-.358.24-.374 0M280.334 233.842a2.395 2.395 0 0 1-.209-.778c-.055-.576-.435-.928-.637-1.43-.386-.959-1.149-1.678-1.417-2.698-.06-.234.3-.332.362-.099.237.904.852 1.581 1.29 2.386.22.402.428.821.64 1.23.207.394.113.777.295 1.201.095.218-.227.41-.323.188M281.082 232.347c-.293-.43-.608-.83-.815-1.31-.236-.543-.235-1.132-.494-1.682-.102-.216.221-.407.324-.188.182.388.366.82.39 1.254.037.656.566 1.222.918 1.738.137.199-.187.386-.323.188M261.636 205.795c-.323-.74-1.036-1.25-1.466-1.934-.504-.802-1.138-1.492-1.525-2.367-.097-.22.225-.408.322-.188.385.868 1 1.585 1.526 2.366.448.664 1.143 1.195 1.466 1.935.096.218-.226.408-.323.188M265.63 198.943c-1.086-.757-1.745-1.899-2.655-2.834-.169-.173.095-.437.263-.265.885.91 1.526 2.04 2.58 2.776.197.137.01.461-.188.323M283.916 214.247c-1.294-1.52-2.217-3.295-3.395-4.9-.143-.195.182-.38.324-.188 1.16 1.578 2.063 3.328 3.336 4.823.157.183-.107.45-.264.265M286.293 211.31c-.074-.792-.73-1.464-1.205-2.05-.4-.495-.759-1.01-1.014-1.596-.095-.218.227-.409.323-.188.577 1.322 2.132 2.346 2.27 3.834.023.24-.352.238-.373 0M289.659 209.627c-.035-.345-.246-.693-.441-.973-.115-.165-.15-.436-.207-.624-.172-.558-.544-.987-.823-1.487-.117-.211.206-.4.324-.189.297.536.622 1.006.859 1.576.15.364.276.703.475 1.051.12.21.163.408.187.646.024.24-.351.238-.374 0M257.684 189.246c-.025.237-.399.24-.374 0 .137-1.259-.736-2.393-1.283-3.458-.11-.215.213-.404.323-.189.576 1.122 1.48 2.318 1.334 3.647M261.076 187.657c-.247-.528-.352-1.182-.673-1.665a17.42 17.42 0 0 1-1.01-1.7c-.11-.215.213-.404.323-.189.27.528.573 1.034.898 1.532.368.564.499 1.222.785 1.834.1.216-.22.406-.323.188" fill="#12243e"/>
    <path d="M298.39 189.857c-1.17-.675-2.227-.742-3.536-.742-2.274 0-4.552-.043-6.825.02-1.216.034-2.362.426-3.453.936-.928.435-1.02 1.952-1.249 2.795-.558 2.068-.522 4.388-.186 6.521.154.985.058 2.683 1.522 2.81.927.08 1.872.174 2.802.223 1.75.091 3.472.158 5.232.158 1.585 0 3.415-.1 4.872.654 1.578.816 1.878 1.34 2.324 2.818.22-.63.102-1.415.102-2.042V199.4c0-1.18-.188-2.329-.183-3.506.007-1.43.217-2.796.19-4.222a.693.693 0 0 1-.193-.5c0-.434-1.006-1.076-1.42-1.314m3.027 7.521c.328 1.714.076 3.671.076 5.406 0 1.976.501 5.63-2.443 4.816a.756.756 0 0 1-.549-.722v-.187c0-.02.004-.038.006-.058-.27-.915-.423-1.3-1.203-1.857-1.254-.89-3.153-.703-4.606-.703-2.177 0-4.392.084-6.549-.262-.877-.14-2.175.073-2.985-.4-.733-.43-1.046-1.376-1.239-2.14-.28-1.11-.375-2.347-.428-3.489-.059-1.295-.33-2.935.015-4.192.463-1.682.675-3.874 2.311-4.81 2.113-1.209 4.525-1.16 6.874-1.16 2.32 0 5.262-.528 7.434.452 1.105.498 2.907 1.396 3.147 2.79a.72.72 0 0 1 .215.496c.088 1.99-.449 4.066-.076 6.02M299.32 214.8c0 1.39-.025 3.107-.601 4.367-.906 1.982-3.074 2.989-5.135 3.305-1.197.183-2.438-.08-3.632-.174-1.39-.111-2.821-.018-4.216-.018-2.977 0-5.938.249-8.92.249-6.31 0-24.42.249-30.725.249-1.676 0-4.294-1.096-5.147-2.572-.51-.882-.384-2.15-.35-3.113.049-1.344.012-2.694.012-4.04 0-.962 1.496-.962 1.496 0 0 1.974-.26 4.126.046 6.074.177 1.129 2.157 1.65 3.049 1.99 1.318.502 3.242.165 4.634.165 4.805 0 21.45-.25 26.27-.25 4.622 0 9.228-.371 13.85-.23 2.509.077 4.676.512 6.767-1.304 1.054-.913 1.106-3.344 1.106-4.716 0-.964 1.496-.964 1.496 0v.018z" fill="#12243e"/>
    <path d="M299.569 186.69c-.066.957-1.562.963-1.496 0 .128-1.836.815-7.921-.147-9.62-1.503-2.651-4.916-1.73-7.313-2.242-2.087-.446-4.247-.08-6.332.125-1.201.117-2.204-.031-3.41-.035-1.252-.005-2.584-.053-3.864.062-2.324.206-16.597-.25-18.95-.25-2.443 0-4.865.237-7.291.253-2.65.019-5.362.542-7.4 2.369-1.576 1.412-1.031 4.486-1.015 6.353.01.965-1.486.964-1.495 0-.017-1.966-.35-4.314.584-6.141 1.04-2.036 3.54-3.326 5.699-3.804 1.098-.243 2.483-.217 3.627-.273 1.259-.061 2.47-.253 3.738-.253h5.05c1.666 0 15.18.342 16.828.305 1.55-.035 2.958-.306 4.489-.117 1.268.156 2.727.102 4.003-.024 2.805-.275 5.422.086 8.213.086 2.443 0 4.618.855 6.13 2.832 1.334 1.742.49 8.396.352 10.374" fill="#12243e"/>
    <path d="M242.351 183.519c-.179 1.561-.099 6.589-.235 8.151-.179 2.042-.326 3.991-.133 6.046.19 2.032.226 4.001.222 6.049-.002 1.018-.328 1.955-.282 2.992.056 1.269.054 4.965.054 6.236 0 .964-1.496.964-1.496 0 0-1.776-.455-6.525.027-8.239.53-1.883.302-4.489.06-6.407a25.895 25.895 0 0 1-.038-6.165c.195-1.727.127-6.935.325-8.663.11-.947 1.606-.958 1.496 0M299.195 214.863c-.024.962-1.521.965-1.495 0 .03-1.22.186-2.426.186-3.647 0-1.29-.186-4.983-.186-6.263 0-.965 1.495-.965 1.495 0 0 1.11.187 4.644.187 5.768 0 1.388-.152 2.757-.187 4.142M299.363 188.003c-.095.316.126.553.18.857.069.4-.102.804-.523.92-.364.1-.85-.12-.92-.523-.027-.158-.105-.298-.168-.448-.08-.193-.094-.47-.097-.674-.005-.398.219-.747.238-1.133.047-.96 1.543-.965 1.496 0-.018.352-.106.667-.206 1M288.602 193.763a.78.78 0 0 1-.298.012c-.029.005-.056.012-.088.015-.386.025-1.053.15-1.365.402-.264.213-.33.846-.39 1.155-.255 1.31.481 1.946 1.78 2.012.47.024 1.017-.323 1.277-.703.264-.387.76-.795.75-1.289-.013-.738-.776-1.812-1.666-1.604m2.421 3.341c-.328.304-.476.707-.844.996-.442.345-.873.585-1.423.705-1.972.432-3.862-.909-3.857-2.917.002-.83.224-1.91.748-2.57.578-.727 1.684-.966 2.57-1.024a.733.733 0 0 1 .124.004c1.525-.259 3.184 1.061 3.374 2.557.118.921.004 1.604-.692 2.25M292.431 222.497c-.338.349-.39 1.092-.556 1.54-.286.775-.53 1.915-.7 2.726-.29 1.385-.36 3.009-1.5 3.983-1.027.877-2.956.227-4.1.016-.986-.182-1.84-.643-2.847-.78-.966-.131-1.846-.47-2.805-.634-4.506-.775-8.875-2.136-13.36-2.995-2.229-.426-4.3-1.131-6.459-1.814-1.733-.547-3.965-1.373-5.785-1.448-.96-.041-.965-1.536 0-1.496 1.5.062 2.87.648 4.312 1.008 1.94.485 3.802 1.168 5.711 1.75 4.1 1.25 8.478 1.738 12.613 2.878 1.81.498 3.776.87 5.61 1.233 1.764.349 3.453.814 5.235 1.1 1.587.255 1.432-1.12 1.652-2.001.237-.953.525-1.881.771-2.825.28-1.074.335-2.458 1.15-3.298.673-.693 1.73.365 1.058 1.057" fill="#12243e"/>
    <path d="M283.76 229.825c-.277.444-.423 1.525-.579 2.064-.215.743-.485 1.38-.817 2.078-.349.736-1.138 2.976-2.07 3.196-.495.117-.828.103-1.298-.152-.936-.509-1.883-.695-2.888-.993-1.72-.508-3.442-1.313-5.092-2.02-3.483-1.49-6.727-3.65-10.046-5.459-1.8-.98-3.547-2.063-5.347-3.056-.94-.52-1.84-1.078-2.804-1.56-.514-.257-1.178-.879-1.69-1.047-.914-.298-.523-1.742.397-1.442 1.097.358 2.112 1.23 3.171 1.758 1.724.863 3.271 2.028 5.047 2.805 1.374.601 2.708 1.682 3.994 2.465 1.591.97 3.314 1.75 4.982 2.583 3.036 1.518 5.978 3.056 9.291 3.913.272.071 1.713.8 1.867.518.407-.743.814-1.504 1.194-2.264.663-1.319.635-2.92 1.396-4.142.51-.817 1.804-.066 1.292.755M245.997 110.868c-.597-.36-.993-.956-1.313-1.562-.452-.855-1.053-1.627-1.496-2.495-.11-.214.212-.403.323-.187.368.72.78 1.407 1.223 2.083.428.652.76 1.42 1.45 1.84.208.124.02.446-.187.321M248.95 108.346c-.817-.832-1.742-1.9-1.798-3.124-.012-.241.362-.24.373 0 .05 1.112.95 2.107 1.69 2.86.17.17-.094.436-.264.264M253.438 108.097c-1.05-.826-1.757-2.021-1.799-3.373-.008-.241.366-.241.373 0 .04 1.258.719 2.344 1.691 3.109.19.149-.078.41-.265.264M258.127 107.765c-.366-.974-1.2-1.7-1.253-2.792-.012-.241.362-.24.374 0 .05 1.029.893 1.769 1.24 2.693.084.226-.277.323-.36.099M262.366 108.015c-.268-.841-.34-1.981-.95-2.66-.16-.18.104-.444.265-.265.667.743.752 1.908 1.045 2.825.074.23-.287.329-.36.1M268.093 107.965c-.066-1.286-1.19-2.213-1.489-3.441-.057-.234.303-.333.361-.1.31 1.273 1.433 2.19 1.502 3.54.013.242-.36.24-.374 0M272.587 108.015a5.621 5.621 0 0 1-.249-1.426c-.017-.336-.014-.6-.194-.902-.177-.293-.373-.567-.536-.87-.113-.211.21-.401.324-.188.185.347.772.947.773 1.34.001.673.042 1.3.243 1.946.072.23-.289.329-.36.1M277.823 108.015c-.241-1.038-.193-2.326-.948-3.16-.162-.177.1-.443.263-.264.818.902.785 2.2 1.046 3.324.055.235-.306.334-.361.1M281.812 107.516c-.274-.84-.5-1.696-.979-2.448-.128-.204.195-.392.324-.19.495.78.731 1.669 1.016 2.538.075.23-.286.329-.361.1M285.85 106.85c-.587-.632-.784-1.53-1.047-2.326-.075-.23.286-.327.361-.1.24.73.413 1.582.95 2.162.164.176-.1.442-.265.264M290.532 107.217c-.027-.704-.411-1.292-.723-1.9-.11-.215.213-.404.324-.19.343.672.743 1.314.773 2.09.009.24-.365.24-.374 0M294.022 107.715c-.013-.73-.182-1.56-.693-2.111-.164-.177.1-.442.264-.265.581.628.788 1.54.803 2.376.004.242-.37.24-.374 0M283.73 119.378c-.272-.285-.412-.58-.528-.952-.089-.285-.146-.561-.281-.831a1.701 1.701 0 0 1-.181-.593c-.025-.24.349-.237.374 0 .025.238.151.442.252.654.086.18.097.364.159.55.114.354.208.634.47.907.166.175-.098.44-.265.265M286.348 118.817a3.624 3.624 0 0 1-.99-2.376c-.006-.242.368-.24.374 0 .02.778.345 1.548.88 2.111.166.175-.098.44-.264.265M288.918 118.548c-.038-.22-.171-.263-.26-.441-.09-.181-.066-.391-.151-.562a3.065 3.065 0 0 1-.344-1.291c-.008-.241.366-.24.374 0 .008.234.043.45.11.675.062.203.203.383.257.585.054.194.068.387.205.555a.79.79 0 0 1 .169.379c.042.236-.318.337-.36.1M291.722 118.174c-.02-.138-.118-.254-.193-.367-.095-.143-.138-.292-.217-.44-.204-.375-.492-.67-.53-1.113-.023-.24.352-.238.373 0 .02.235.158.429.284.619.082.125.246.302.27.453.043.279.328.464.374.748.036.237-.324.337-.36.1M294.713 118.174c-.277-.722-1.086-1.072-1.128-1.92-.012-.241.362-.24.374 0 .036.745.86 1.159 1.115 1.82.087.226-.275.323-.36.1M297.193 118.256c-.241-.241-.477-.481-.663-.768-.26-.394-.11-.89-.301-1.327-.097-.218.226-.41.322-.188.156.35.205.693.213 1.076.006.359.462.71.694.943.17.17-.094.435-.265.264M263.88 154.68c-.313-.454-.688-.858-1.024-1.294-.13-.168-.27-.335-.372-.522-.099-.184-.103-.492-.362-.529-.238-.034-.137-.394.1-.36.453.063.413.503.642.796.448.568.927 1.125 1.34 1.721.136.198-.188.385-.324.188M268.21 155.466c-.924-.924-1.85-1.86-2.46-3.03-.11-.213.211-.402.323-.188.596 1.142 1.5 2.05 2.402 2.954.17.17-.094.435-.265.264M273.043 156.737c-.298-.5-.732-.725-1.13-1.12l-.915-.916c-.7-.7-1.354-1.425-1.883-2.265-.129-.204.196-.392.323-.189.564.897 1.283 1.647 2.028 2.393.626.627 1.441 1.142 1.9 1.908.124.208-.2.396-.323.19M277.878 158.139c-.085-1.09-.979-1.921-1.578-2.78-.545-.781-1.248-1.464-1.92-2.137-.17-.17.094-.435.265-.264.764.766 1.513 1.547 2.134 2.437.612.877 1.386 1.627 1.473 2.744.02.24-.354.239-.374 0M281.152 158.487c-.21.123-.396-.2-.188-.322.393-.233-1.083-2.596-1.297-2.906-.541-.778-1.142-1.631-1.815-2.305-.264-.266-.606-.552-.744-.91a.182.182 0 0 1 .048-.182l.029-.026c.182-.158.447.106.265.264.276-.24 2.914 3.5 3.098 3.899.223.478 1.34 2.054.604 2.488M285.171 159.448c-.062-1.425-.86-2.781-1.593-3.974-.718-1.17-1.572-2.252-2.308-3.411-.13-.204.193-.392.323-.19 1.446 2.278 3.83 4.735 3.952 7.575.01.24-.364.24-.374 0M288.779 160.328l-.187-.187a.17.17 0 0 1-.036-.205c-.652-1.193-1.273-2.421-2.05-3.536-.471-.675-.886-1.39-1.31-2.093-.355-.594-.748-1.053-.953-1.728-.07-.231.29-.33.36-.1.227.745.71 1.295 1.104 1.95a35.93 35.93 0 0 0 1.308 2.05c.787 1.13 1.387 2.42 2.057 3.622.103.185-.142.379-.293.227M290.414 157.815c-.277-.791-.948-1.41-1.242-2.188a43.488 43.488 0 0 0-1.732-3.938c-.106-.215.217-.405.324-.188a47.473 47.473 0 0 1 1.647 3.714c.347.88 1.052 1.61 1.363 2.5.079.228-.281.326-.36.1M258.065 155.57c-.366-.88-.91-1.678-1.122-2.618-.026-.117.055-.236.18-.236.273 0 .319.054.506.242.154.153-.044.38-.21.3.255.768.695 1.465 1.006 2.213.093.222-.27.318-.36.1M260.87 157.253c-.137-.34-.36-.602-.56-.902-.17-.255-.223-.566-.375-.83-.24-.42-.58-.724-.8-1.136-.076-.017-.141-.073-.141-.174v-.187c0-.215.304-.249.367-.049.186.588.682.98.98 1.504.155.27.217.57.392.834.188.282.37.524.498.841.09.224-.272.32-.361.1M263.319 158.607c-.637-1.203-1.534-2.245-2.117-3.472-.08-.014-.153-.07-.153-.175v-.187c0-.173.274-.273.35-.094.572 1.347 1.56 2.449 2.243 3.74.114.212-.21.4-.323.188M266.105 160.432c-.028-.097-.399-.639-.468-.84-.196-.584-.47-1.09-.788-1.61-.518-.85-1.073-1.667-1.53-2.554-.11-.214.213-.403.323-.188.501.972 1.114 1.871 1.684 2.804.229.376.412.757.572 1.167.155.396.449.721.568 1.121.069.232-.292.331-.361.1M268.81 161.852c-.744-.466-.937-1.36-1.12-2.163-.172-.746-.668-1.416-1.03-2.08-.236-.43-.498-.666-.56-1.154-.032-.239.342-.235.372 0 .053.406.47.89.67 1.258.265.487.547.962.801 1.454.411.794.17 1.807 1.054 2.363.205.128.017.452-.188.323M272.324 163.693c-.842-.907-1.266-2.032-1.772-3.142-.515-1.127-1.312-2.292-2.155-3.215-.162-.179.102-.444.265-.265.7.767 1.335 1.68 1.889 2.555.787 1.245 1 2.684 2.038 3.803.164.176-.1.441-.265.264M274.513 164.122c0 .242-.37.241-.374 0-.008-.609-.41-1.258-.66-1.806-.29-.636-.598-1.229-.997-1.802-.48-.69-.833-1.548-1.387-2.178-.22-.25-.425-.568-.503-.896-.055-.234.306-.334.361-.099.125.53.638 1.05.916 1.511.413.682.84 1.353 1.31 1.997.377.517.613 1.25.872 1.833.185.418.364.743.431 1.153a.18.18 0 0 1 .031.1zM278.252 165.805c-.155-1.361-1.215-2.771-1.895-3.921-.315-.533-.682-1.038-1.027-1.552-.193-.29-1.883-2.371-1.51-2.7.18-.158.445.106.264.265.142-.126.196.142.314.335.168.273.345.54.522.809.405.618.82 1.229 1.23 1.843.334.5.645 1.006.953 1.524.6 1.008 1.387 2.21 1.523 3.397.027.24-.347.237-.374 0M279.748 165.992c-.094-1.409-1.09-2.882-1.614-4.188-.32-.796-.67-1.56-1.165-2.263-.306-.433-.53-.876-.587-1.403-.026-.239.348-.237.374 0 .082.747.687 1.39 1.042 2.018.332.59.57 1.234.822 1.86.507 1.261 1.412 2.6 1.503 3.976.016.241-.358.24-.374 0M280.334 163.842a2.395 2.395 0 0 1-.209-.778c-.055-.576-.435-.928-.637-1.43-.386-.959-1.149-1.678-1.417-2.698-.06-.234.3-.332.362-.099.237.904.852 1.581 1.29 2.386.22.402.428.821.64 1.23.207.394.113.777.295 1.201.095.218-.227.41-.323.188M281.082 162.347c-.293-.43-.608-.83-.815-1.31-.236-.543-.235-1.132-.494-1.682-.102-.216.221-.407.324-.188.182.388.366.82.39 1.254.037.656.566 1.222.918 1.738.137.199-.187.386-.323.188M261.636 135.795c-.323-.74-1.036-1.25-1.466-1.934-.504-.802-1.138-1.492-1.525-2.367-.097-.22.225-.408.322-.188.385.868 1 1.585 1.526 2.366.448.664 1.143 1.195 1.466 1.935.096.218-.226.408-.323.188M265.63 128.943c-1.086-.757-1.745-1.899-2.655-2.834-.169-.173.095-.437.263-.265.885.91 1.526 2.04 2.58 2.776.197.137.01.461-.188.323M283.916 144.247c-1.294-1.52-2.217-3.295-3.395-4.9-.143-.195.182-.38.324-.188 1.16 1.578 2.063 3.328 3.336 4.823.157.183-.107.45-.264.265M286.293 141.31c-.074-.792-.73-1.464-1.205-2.05-.4-.495-.759-1.01-1.014-1.596-.095-.218.227-.409.323-.188.577 1.322 2.132 2.346 2.27 3.834.023.24-.352.238-.373 0M289.659 139.627c-.035-.345-.246-.693-.441-.973-.115-.165-.15-.436-.207-.624-.172-.558-.544-.987-.823-1.487-.117-.211.206-.4.324-.189.297.536.622 1.006.859 1.576.15.364.276.703.475 1.051.12.21.163.408.187.646.024.24-.351.238-.374 0M257.684 119.246c-.025.236-.399.24-.374 0 .137-1.259-.736-2.393-1.283-3.459-.11-.214.213-.403.323-.188.576 1.122 1.48 2.32 1.334 3.647M261.076 117.657c-.247-.528-.352-1.182-.673-1.664a17.54 17.54 0 0 1-1.01-1.7c-.11-.216.213-.406.323-.19.27.53.573 1.034.898 1.532.368.565.499 1.222.785 1.834.1.216-.22.407-.323.188" fill="#12243e"/>
    <path d="M298.39 119.857c-1.17-.675-2.227-.742-3.536-.742-2.274 0-4.552-.043-6.825.02-1.216.034-2.362.426-3.453.937-.928.434-1.02 1.951-1.249 2.794-.558 2.068-.522 4.388-.186 6.521.154.985.058 2.683 1.522 2.81.927.08 1.872.174 2.802.223 1.75.091 3.472.158 5.232.158 1.585 0 3.415-.1 4.872.654 1.578.816 1.878 1.34 2.324 2.818.22-.63.102-1.415.102-2.042V129.4c0-1.18-.188-2.329-.183-3.506.007-1.43.217-2.796.19-4.222a.693.693 0 0 1-.193-.5c0-.434-1.006-1.076-1.42-1.314m3.027 7.521c.328 1.714.076 3.671.076 5.406 0 1.976.501 5.63-2.443 4.816a.756.756 0 0 1-.549-.722v-.187c0-.02.004-.038.006-.058-.27-.915-.423-1.3-1.203-1.857-1.254-.89-3.153-.703-4.606-.703-2.177 0-4.392.084-6.549-.262-.877-.14-2.175.073-2.985-.4-.733-.43-1.046-1.376-1.239-2.14-.28-1.11-.375-2.347-.428-3.489-.059-1.295-.33-2.935.015-4.192.463-1.68.675-3.874 2.311-4.81 2.113-1.209 4.525-1.16 6.874-1.16 2.32 0 5.262-.528 7.434.452 1.105.498 2.907 1.396 3.147 2.79a.72.72 0 0 1 .215.496c.088 1.988-.449 4.066-.076 6.02M299.32 144.8c0 1.39-.025 3.107-.601 4.367-.906 1.982-3.074 2.989-5.135 3.305-1.197.183-2.438-.08-3.632-.174-1.39-.111-2.821-.018-4.216-.018-2.977 0-5.938.249-8.92.249-6.31 0-24.42.249-30.725.249-1.676 0-4.294-1.096-5.147-2.572-.51-.882-.384-2.15-.35-3.113.049-1.344.012-2.694.012-4.04 0-.962 1.496-.962 1.496 0 0 1.974-.26 4.126.046 6.074.177 1.129 2.157 1.65 3.049 1.99 1.318.502 3.242.165 4.634.165 4.805 0 21.45-.25 26.27-.25 4.622 0 9.228-.371 13.85-.23 2.509.077 4.676.512 6.767-1.304 1.054-.913 1.106-3.344 1.106-4.716 0-.964 1.496-.964 1.496 0v.018z" fill="#12243e"/>
    <path d="M299.569 116.69c-.066.956-1.562.963-1.496 0 .128-1.837.815-7.922-.147-9.619-1.503-2.652-4.916-1.73-7.313-2.242-2.087-.447-4.247-.08-6.332.124-1.201.117-2.204-.032-3.41-.035-1.252-.005-2.584-.053-3.864.061-2.324.208-16.597-.248-18.95-.248-2.443 0-4.865.236-7.291.253-2.65.018-5.362.542-7.4 2.368-1.576 1.411-1.031 4.486-1.015 6.353.01.965-1.486.965-1.495 0-.017-1.966-.35-4.314.584-6.14 1.04-2.037 3.54-3.327 5.699-3.806 1.098-.243 2.483-.216 3.627-.272 1.259-.06 2.47-.253 3.738-.253h5.05c1.666 0 15.18.342 16.828.305 1.55-.036 2.958-.306 4.489-.118 1.268.157 2.727.102 4.003-.023 2.805-.274 5.422.086 8.213.086 2.443 0 4.618.855 6.13 2.831 1.334 1.743.49 8.397.352 10.374" fill="#12243e"/>
    <path d="M242.351 113.519c-.179 1.562-.099 6.59-.235 8.15-.179 2.044-.326 3.992-.133 6.047.19 2.032.226 4.002.222 6.049-.002 1.018-.328 1.955-.282 2.992.056 1.269.054 4.966.054 6.236 0 .965-1.496.965-1.496 0 0-1.775-.455-6.524.027-8.24.53-1.882.302-4.488.06-6.406a25.894 25.894 0 0 1-.038-6.165c.195-1.727.127-6.934.325-8.663.11-.946 1.606-.957 1.496 0M299.195 144.863c-.024.962-1.521.965-1.495 0 .03-1.22.186-2.426.186-3.647 0-1.29-.186-4.983-.186-6.263 0-.965 1.495-.965 1.495 0 0 1.11.187 4.644.187 5.768 0 1.388-.152 2.757-.187 4.142M299.363 118.003c-.095.316.126.553.18.857.069.4-.102.804-.523.92-.364.1-.85-.12-.92-.522-.027-.16-.105-.3-.168-.448-.08-.194-.094-.47-.097-.675-.005-.398.219-.747.238-1.133.047-.96 1.543-.965 1.496 0-.018.352-.106.667-.206 1M288.602 123.763a.801.801 0 0 1-.298.013c-.029.005-.056.01-.088.014-.386.026-1.053.15-1.365.403-.264.213-.33.845-.39 1.155-.255 1.31.481 1.945 1.78 2.012.47.024 1.017-.324 1.277-.704.264-.387.76-.795.75-1.29-.013-.737-.776-1.811-1.666-1.603m2.421 3.34c-.328.306-.476.709-.844.997-.442.346-.873.586-1.423.706-1.972.43-3.862-.91-3.857-2.918.002-.831.224-1.911.748-2.57.578-.726 1.684-.965 2.57-1.024.044-.003.083 0 .124.004 1.525-.26 3.184 1.06 3.374 2.558.118.92.004 1.603-.692 2.248M292.431 152.497c-.338.349-.39 1.092-.556 1.54-.286.775-.53 1.915-.7 2.726-.29 1.385-.36 3.009-1.5 3.983-1.027.877-2.956.227-4.1.016-.986-.182-1.84-.643-2.847-.78-.966-.131-1.846-.47-2.805-.634-4.506-.775-8.875-2.136-13.36-2.995-2.229-.426-4.3-1.131-6.459-1.814-1.733-.547-3.965-1.373-5.785-1.448-.96-.041-.965-1.536 0-1.496 1.5.062 2.87.648 4.312 1.008 1.94.485 3.802 1.168 5.711 1.75 4.1 1.25 8.478 1.738 12.613 2.878 1.81.498 3.776.87 5.61 1.233 1.764.349 3.453.814 5.235 1.1 1.587.255 1.432-1.12 1.652-2.001.237-.953.525-1.881.771-2.825.28-1.074.335-2.458 1.15-3.298.673-.693 1.73.365 1.058 1.057" fill="#12243e"/>
    <path d="M283.76 159.825c-.277.444-.423 1.525-.579 2.064-.215.743-.485 1.38-.817 2.078-.349.736-1.138 2.976-2.07 3.196-.495.117-.828.103-1.298-.152-.936-.509-1.883-.695-2.888-.993-1.72-.508-3.442-1.313-5.092-2.02-3.483-1.49-6.727-3.65-10.046-5.459-1.8-.98-3.547-2.063-5.347-3.056-.94-.52-1.84-1.078-2.804-1.56-.514-.257-1.178-.879-1.69-1.047-.914-.298-.523-1.742.397-1.442 1.097.358 2.112 1.23 3.171 1.758 1.724.863 3.271 2.028 5.047 2.805 1.374.601 2.708 1.682 3.994 2.465 1.591.97 3.314 1.75 4.982 2.583 3.036 1.518 5.978 3.056 9.291 3.913.272.071 1.713.8 1.867.518.407-.743.814-1.504 1.194-2.264.663-1.319.635-2.92 1.396-4.142.51-.817 1.804-.066 1.292.755M245.997 36.868c-.597-.36-.993-.956-1.313-1.562-.452-.855-1.053-1.627-1.496-2.495-.11-.214.212-.403.323-.187.368.72.78 1.407 1.223 2.083.428.652.76 1.42 1.45 1.84.208.124.02.446-.187.321M248.95 34.346c-.817-.832-1.742-1.9-1.798-3.124-.012-.241.362-.24.373 0 .05 1.112.95 2.107 1.69 2.86.17.17-.094.436-.264.264M253.438 34.097c-1.05-.826-1.757-2.021-1.799-3.373-.008-.241.366-.241.373 0 .04 1.258.719 2.344 1.691 3.109.19.149-.078.41-.265.264M258.127 33.765c-.366-.974-1.2-1.7-1.253-2.792-.012-.241.362-.24.374 0 .05 1.029.893 1.769 1.24 2.693.084.226-.277.323-.36.099M262.366 34.015c-.268-.841-.34-1.981-.95-2.66-.16-.18.104-.444.265-.265.667.743.752 1.908 1.045 2.825.074.23-.287.329-.36.1M268.093 33.965c-.066-1.286-1.19-2.213-1.489-3.441-.057-.234.303-.333.361-.1.31 1.273 1.433 2.19 1.502 3.54.013.242-.36.24-.374 0M272.587 34.015a5.621 5.621 0 0 1-.249-1.426c-.017-.336-.014-.6-.194-.902-.177-.293-.373-.567-.536-.87-.113-.211.21-.401.324-.188.185.347.772.947.773 1.34.001.673.042 1.3.243 1.946.072.23-.289.329-.36.1M277.823 34.015c-.241-1.038-.193-2.326-.948-3.16-.162-.177.1-.443.263-.264.818.902.785 2.2 1.046 3.324.055.235-.306.334-.361.1M281.812 33.516c-.274-.84-.5-1.696-.979-2.448-.128-.204.195-.392.324-.19.495.78.731 1.669 1.016 2.538.075.23-.286.329-.361.1M285.85 32.85c-.587-.632-.784-1.53-1.047-2.326-.075-.23.286-.327.361-.1.24.73.413 1.582.95 2.162.164.176-.1.442-.265.264M290.532 33.217c-.027-.704-.411-1.292-.723-1.9-.11-.215.213-.404.324-.19.343.672.743 1.314.773 2.09.009.24-.365.24-.374 0M294.022 33.715c-.013-.73-.182-1.56-.693-2.111-.164-.177.1-.442.264-.265.581.628.788 1.54.803 2.376.004.242-.37.24-.374 0M283.73 45.378c-.272-.285-.412-.58-.528-.952-.089-.285-.146-.561-.281-.831a1.701 1.701 0 0 1-.181-.593c-.025-.24.349-.237.374 0 .025.238.151.442.252.654.086.18.097.364.159.55.114.354.208.634.47.907.166.175-.098.44-.265.265M286.348 44.817a3.624 3.624 0 0 1-.99-2.376c-.006-.242.368-.24.374 0 .02.778.345 1.548.88 2.111.166.175-.098.44-.264.265M288.918 44.548c-.038-.22-.171-.263-.26-.441-.09-.181-.066-.391-.151-.562a3.065 3.065 0 0 1-.344-1.291c-.008-.241.366-.24.374 0 .008.234.043.45.11.675.062.203.203.383.257.585.054.194.068.387.205.555a.79.79 0 0 1 .169.379c.042.236-.318.337-.36.1M291.722 44.174c-.02-.138-.118-.254-.193-.367-.095-.143-.138-.292-.217-.44-.204-.375-.492-.67-.53-1.113-.023-.24.352-.238.373 0 .02.235.158.429.284.619.082.125.246.302.27.453.043.279.328.464.374.748.036.237-.324.337-.36.1M294.713 44.174c-.277-.722-1.086-1.072-1.128-1.92-.012-.241.362-.24.374 0 .036.745.86 1.159 1.115 1.82.087.226-.275.323-.36.1M297.193 44.256c-.241-.241-.477-.481-.663-.768-.26-.394-.11-.89-.301-1.327-.097-.218.226-.41.322-.188.156.35.205.693.213 1.076.006.359.462.71.694.943.17.17-.094.435-.265.264M263.88 80.68c-.313-.454-.688-.857-1.024-1.294-.13-.168-.27-.335-.372-.521-.099-.184-.103-.493-.362-.53-.238-.033-.137-.393.1-.36.453.064.413.504.642.796.448.569.927 1.125 1.34 1.72.136.2-.188.386-.324.19M268.21 81.466c-.924-.925-1.85-1.86-2.46-3.03-.11-.213.211-.402.323-.188.596 1.142 1.5 2.05 2.402 2.953.17.17-.094.436-.265.265M273.043 82.737c-.298-.5-.732-.725-1.13-1.12l-.915-.916c-.7-.7-1.354-1.425-1.883-2.265-.129-.205.196-.392.323-.188.564.896 1.283 1.646 2.028 2.392.626.627 1.441 1.142 1.9 1.91.124.206-.2.394-.323.187M277.878 84.139c-.085-1.09-.979-1.922-1.578-2.778-.545-.783-1.248-1.465-1.92-2.138-.17-.171.094-.436.265-.265.764.766 1.513 1.547 2.134 2.437.612.877 1.386 1.627 1.473 2.744.02.24-.354.238-.374 0M281.152 84.487c-.21.122-.396-.2-.188-.323.393-.233-1.083-2.596-1.297-2.906-.541-.778-1.142-1.63-1.815-2.304-.264-.266-.606-.552-.744-.91a.18.18 0 0 1 .048-.182l.029-.026c.182-.158.447.105.265.264.276-.24 2.914 3.5 3.098 3.898.223.48 1.34 2.054.604 2.49M285.171 85.447c-.062-1.425-.86-2.78-1.593-3.973-.718-1.17-1.572-2.253-2.308-3.412-.13-.204.193-.39.323-.188 1.446 2.277 3.83 4.733 3.952 7.573.01.241-.364.24-.374 0M288.779 86.327l-.187-.187a.17.17 0 0 1-.036-.205c-.652-1.193-1.273-2.42-2.05-3.536-.471-.675-.886-1.388-1.31-2.093-.355-.593-.748-1.053-.953-1.727-.07-.23.29-.33.36-.1.227.744.71 1.295 1.104 1.95.418.695.844 1.384 1.308 2.05.787 1.13 1.387 2.42 2.057 3.622.103.185-.142.378-.293.226M290.414 83.814c-.277-.79-.948-1.408-1.242-2.187a43.612 43.612 0 0 0-1.732-3.939c-.106-.215.217-.404.324-.188a47.618 47.618 0 0 1 1.647 3.713c.347.88 1.052 1.612 1.363 2.501.079.23-.281.326-.36.1M258.065 81.57c-.366-.88-.91-1.678-1.122-2.617-.026-.118.055-.237.18-.237.273 0 .319.054.506.242.154.153-.044.38-.21.3.255.768.695 1.464 1.006 2.212.093.223-.27.32-.36.1M260.87 83.254c-.137-.34-.36-.602-.56-.903-.17-.254-.223-.565-.375-.83-.24-.42-.58-.723-.8-1.136a.168.168 0 0 1-.141-.173v-.187c0-.215.304-.25.367-.05.186.589.682.979.98 1.505.155.268.217.569.392.834.188.28.37.524.498.84.09.224-.272.32-.361.1M263.319 84.607c-.637-1.203-1.534-2.245-2.117-3.473-.08-.013-.153-.07-.153-.174v-.188c0-.173.274-.272.35-.094.572 1.348 1.56 2.45 2.243 3.74.114.213-.21.402-.323.19M266.105 86.433c-.028-.098-.399-.64-.468-.842-.196-.582-.47-1.088-.788-1.608-.518-.85-1.073-1.667-1.53-2.555-.11-.214.213-.402.323-.188.501.973 1.114 1.872 1.684 2.804.229.376.412.758.572 1.167.155.397.449.72.568 1.122.069.232-.292.33-.361.1M268.81 87.853c-.744-.466-.937-1.36-1.12-2.163-.172-.746-.668-1.415-1.03-2.081-.236-.43-.498-.664-.56-1.152-.032-.24.342-.237.372 0 .053.405.47.889.67 1.257.265.486.547.96.801 1.452.411.795.17 1.808 1.054 2.364.205.128.017.452-.188.323M272.324 89.693c-.842-.907-1.266-2.03-1.772-3.142-.515-1.127-1.312-2.292-2.155-3.215-.162-.178.102-.444.265-.265.7.768 1.335 1.68 1.889 2.555.787 1.245 1 2.683 2.038 3.802.164.177-.1.442-.265.265M274.513 90.122c0 .241-.37.241-.374 0-.008-.609-.41-1.258-.66-1.806-.29-.636-.598-1.229-.997-1.802-.48-.69-.833-1.548-1.387-2.177-.22-.25-.425-.569-.503-.897-.055-.234.306-.334.361-.099.125.53.638 1.05.916 1.511.413.682.84 1.353 1.31 1.997.377.517.613 1.25.872 1.833.185.42.364.743.431 1.153a.18.18 0 0 1 .031.1zM278.252 91.805c-.155-1.361-1.215-2.771-1.895-3.921-.315-.533-.682-1.038-1.027-1.552-.193-.29-1.883-2.371-1.51-2.7.18-.158.445.106.264.265.142-.126.196.142.314.335.168.273.345.54.522.809.405.618.82 1.229 1.23 1.843.334.5.645 1.006.953 1.524.6 1.008 1.387 2.21 1.523 3.397.027.239-.347.237-.374 0M279.748 91.992c-.094-1.408-1.09-2.882-1.614-4.188-.32-.796-.67-1.56-1.165-2.262-.306-.435-.53-.876-.587-1.404-.026-.239.348-.237.374 0 .082.747.687 1.39 1.042 2.018.332.59.57 1.233.822 1.86.507 1.261 1.412 2.6 1.503 3.976.016.24-.358.24-.374 0M280.334 89.842a2.396 2.396 0 0 1-.209-.777c-.055-.577-.435-.93-.637-1.431-.386-.96-1.149-1.678-1.417-2.697-.06-.234.3-.333.362-.1.237.904.852 1.582 1.29 2.387.22.4.428.82.64 1.228.207.396.113.779.295 1.203.095.218-.227.409-.323.187M281.082 88.347c-.293-.43-.608-.83-.815-1.31-.236-.544-.235-1.132-.494-1.682-.102-.217.221-.406.324-.19.182.39.366.822.39 1.256.037.656.566 1.222.918 1.738.137.199-.187.386-.323.188M261.636 61.795c-.323-.74-1.036-1.25-1.466-1.934-.504-.802-1.138-1.492-1.525-2.367-.097-.22.225-.41.322-.188.385.868 1 1.585 1.526 2.367.448.663 1.143 1.193 1.466 1.934.096.217-.226.409-.323.188M265.63 54.943c-1.086-.757-1.745-1.899-2.655-2.834-.169-.173.095-.437.263-.265.885.91 1.526 2.04 2.58 2.777.197.135.01.461-.188.322M283.916 70.247c-1.294-1.52-2.217-3.295-3.395-4.899-.143-.196.182-.38.324-.189 1.16 1.578 2.063 3.328 3.336 4.823.157.183-.107.45-.264.265M286.293 67.31c-.074-.792-.73-1.464-1.205-2.05-.4-.496-.759-1.01-1.014-1.596-.095-.218.227-.41.323-.188.577 1.322 2.132 2.347 2.27 3.835.023.238-.352.236-.373 0M289.659 65.627c-.035-.346-.246-.693-.441-.974-.115-.164-.15-.435-.207-.623-.172-.558-.544-.988-.823-1.487-.117-.211.206-.4.324-.188.297.535.622 1.005.859 1.576.15.364.276.702.475 1.05.12.21.163.409.187.646.024.24-.351.237-.374 0M257.684 45.246c-.025.236-.399.24-.374 0 .137-1.259-.736-2.393-1.283-3.459-.11-.214.213-.403.323-.188.576 1.122 1.48 2.32 1.334 3.647M261.076 43.657c-.247-.528-.352-1.182-.673-1.664a17.54 17.54 0 0 1-1.01-1.7c-.11-.216.213-.406.323-.19.27.53.573 1.034.898 1.532.368.565.499 1.222.785 1.834.1.216-.22.407-.323.188" fill="#12243e"/>
    <path d="M298.39 45.857c-1.17-.675-2.227-.742-3.536-.742-2.274 0-4.552-.043-6.825.02-1.216.034-2.362.426-3.453.937-.928.434-1.02 1.951-1.249 2.794-.558 2.068-.522 4.387-.186 6.521.154.985.058 2.683 1.522 2.81.927.08 1.872.174 2.802.223 1.75.091 3.472.158 5.232.158 1.585 0 3.415-.1 4.872.654 1.578.816 1.878 1.34 2.324 2.818.22-.63.102-1.415.102-2.043V55.4c0-1.18-.188-2.329-.183-3.506.007-1.43.217-2.796.19-4.222a.693.693 0 0 1-.193-.5c0-.434-1.006-1.076-1.42-1.314m3.027 7.521c.328 1.714.076 3.671.076 5.406 0 1.976.501 5.63-2.443 4.815a.755.755 0 0 1-.549-.72v-.188c0-.02.004-.038.006-.058-.27-.916-.423-1.3-1.203-1.857-1.254-.89-3.153-.702-4.606-.702-2.177 0-4.392.084-6.549-.263-.877-.14-2.175.073-2.985-.4-.733-.43-1.046-1.376-1.239-2.14-.28-1.11-.375-2.348-.428-3.489-.059-1.295-.33-2.935.015-4.192.463-1.68.675-3.874 2.311-4.81 2.113-1.209 4.525-1.16 6.874-1.16 2.32 0 5.262-.528 7.434.452 1.105.498 2.907 1.396 3.147 2.79a.72.72 0 0 1 .215.496c.088 1.988-.449 4.065-.076 6.02M299.32 70.8c0 1.39-.025 3.107-.601 4.366-.906 1.983-3.074 2.99-5.135 3.306-1.197.183-2.438-.078-3.632-.174-1.39-.111-2.821-.018-4.216-.018-2.977 0-5.938.249-8.92.249-6.31 0-24.42.249-30.725.249-1.676 0-4.294-1.096-5.147-2.572-.51-.882-.384-2.15-.35-3.114.049-1.343.012-2.693.012-4.037 0-.965 1.496-.965 1.496 0 0 1.973-.26 4.124.046 6.072.177 1.129 2.157 1.65 3.049 1.99 1.318.502 3.242.165 4.634.165 4.805 0 21.45-.25 26.27-.25 4.622 0 9.228-.372 13.85-.23 2.509.076 4.676.512 6.767-1.304 1.054-.913 1.106-3.344 1.106-4.716 0-.964 1.496-.964 1.496 0v.018z" fill="#12243e"/>
    <path d="M299.569 42.69c-.066.957-1.562.964-1.496 0 .128-1.836.815-7.921-.147-9.618-1.503-2.654-4.916-1.732-7.313-2.244-2.087-.446-4.247-.08-6.332.125-1.201.118-2.204-.031-3.41-.034-1.252-.005-2.584-.053-3.864.06-2.324.208-16.597-.248-18.95-.248-2.443 0-4.865.236-7.291.253-2.65.018-5.362.542-7.4 2.368-1.576 1.412-1.031 4.487-1.015 6.354.01.963-1.486.963-1.495 0-.017-1.968-.35-4.316.584-6.142 1.04-2.035 3.54-3.325 5.699-3.804 1.098-.243 2.483-.216 3.627-.272 1.259-.061 2.47-.253 3.738-.253h5.05c1.666 0 15.18.342 16.828.305 1.55-.036 2.958-.306 4.489-.118 1.268.157 2.727.102 4.003-.023 2.805-.275 5.422.085 8.213.085 2.443 0 4.618.856 6.13 2.832 1.334 1.743.49 8.397.352 10.374" fill="#12243e"/>
    <path d="M242.351 39.519c-.179 1.562-.099 6.59-.235 8.15-.179 2.044-.326 3.992-.133 6.047.19 2.032.226 4.002.222 6.049-.002 1.019-.328 1.955-.282 2.992.056 1.269.054 4.966.054 6.237 0 .963-1.496.963-1.496 0 0-1.777-.455-6.526.027-8.24.53-1.883.302-4.49.06-6.407a25.895 25.895 0 0 1-.038-6.165c.195-1.727.127-6.934.325-8.663.11-.946 1.606-.957 1.496 0M299.195 70.862c-.024.963-1.521.966-1.495 0 .03-1.219.186-2.426.186-3.646 0-1.29-.186-4.984-.186-6.263 0-.965 1.495-.965 1.495 0 0 1.11.187 4.644.187 5.767 0 1.388-.152 2.757-.187 4.142M299.363 44.003c-.095.316.126.553.18.857.069.4-.102.804-.523.92-.364.1-.85-.12-.92-.522-.027-.16-.105-.3-.168-.448-.08-.194-.094-.47-.097-.675-.005-.398.219-.747.238-1.133.047-.96 1.543-.965 1.496 0-.018.352-.106.667-.206 1M288.602 49.763a.801.801 0 0 1-.298.013c-.029.005-.056.01-.088.014-.386.026-1.053.15-1.365.403-.264.213-.33.845-.39 1.155-.255 1.31.481 1.945 1.78 2.012.47.023 1.017-.324 1.277-.704.264-.387.76-.795.75-1.29-.013-.737-.776-1.811-1.666-1.603m2.421 3.34c-.328.306-.476.709-.844.997-.442.346-.873.586-1.423.706-1.972.43-3.862-.91-3.857-2.918.002-.83.224-1.911.748-2.57.578-.726 1.684-.965 2.57-1.024.044-.003.083 0 .124.004 1.525-.26 3.184 1.06 3.374 2.558.118.92.004 1.603-.692 2.248M292.431 78.497c-.338.35-.39 1.092-.556 1.54-.286.774-.53 1.914-.7 2.726-.29 1.385-.36 3.008-1.5 3.983-1.027.877-2.956.226-4.1.015-.986-.18-1.84-.643-2.847-.78-.966-.13-1.846-.468-2.805-.633-4.506-.775-8.875-2.137-13.36-2.996-2.229-.425-4.3-1.13-6.459-1.813-1.733-.548-3.965-1.373-5.785-1.449-.96-.04-.965-1.536 0-1.496 1.5.062 2.87.648 4.312 1.008 1.94.486 3.802 1.17 5.711 1.751 4.1 1.25 8.478 1.738 12.613 2.877 1.81.498 3.776.871 5.61 1.233 1.764.35 3.453.814 5.235 1.101 1.587.255 1.432-1.119 1.652-2 .237-.954.525-1.883.771-2.827.28-1.074.335-2.458 1.15-3.298.673-.693 1.73.366 1.058 1.058" fill="#12243e"/>
    <path d="M283.76 85.825c-.277.444-.423 1.525-.579 2.064-.215.743-.485 1.38-.817 2.078-.349.736-1.138 2.975-2.07 3.196-.495.117-.828.103-1.298-.15-.936-.51-1.883-.697-2.888-.995-1.72-.507-3.442-1.313-5.092-2.019-3.483-1.49-6.727-3.652-10.046-5.46-1.8-.98-3.547-2.063-5.347-3.057-.94-.518-1.84-1.077-2.804-1.559-.514-.257-1.178-.879-1.69-1.046-.914-.298-.523-1.743.397-1.444 1.097.36 2.112 1.23 3.171 1.76 1.724.861 3.271 2.027 5.047 2.804 1.374.601 2.708 1.682 3.994 2.465 1.591.97 3.314 1.75 4.982 2.584 3.036 1.517 5.978 3.054 9.291 3.912.272.07 1.713.8 1.867.517.407-.742.814-1.503 1.194-2.263.663-1.32.635-2.92 1.396-4.142.51-.816 1.804-.066 1.292.755" fill="#12243e"/>
    <path d="M152.833 190.606c.15-.287.226-.576.42-.839.162-.217.351-.447.527-.65.287-.33.49-.723.751-1.074.183-.245.486-.325.647-.575.141-.217.486-.164.544.093l.033.145c.05.213-.117.343-.286.351a1.327 1.327 0 0 1-.257.204c-.38.234-.58.726-.844 1.081-.146.197-.247.398-.423.573-.309.308-.41.635-.606 1.008-.179.342-.683.022-.506-.317M153.784 195.44c.23-.398.413-.818.641-1.217.195-.343.634-.721.901-1.02.633-.706 1.204-1.554 1.962-2.131.304-.231.714.202.408.435-.667.509-1.2 1.282-1.755 1.902-.31.345-.563.716-.894 1.044-.353.35-.513.879-.758 1.305-.19.335-.695.016-.505-.317M156.149 198.421c.6-.87 1.392-1.599 2.06-2.416.745-.909 1.466-1.832 2.102-2.82.208-.324.714-.007.505.318-.635.988-1.358 1.91-2.101 2.82-.663.814-1.466 1.553-2.061 2.416-.217.316-.724 0-.505-.318M158.097 200.643c.401-.08.502-.51.73-.77.474-.545.864-1.194 1.32-1.763.915-1.146 1.92-2.22 2.811-3.385.232-.304.74.01.505.316-1.065 1.39-2.259 2.677-3.34 4.055-.509.648-1.005 1.954-1.893 2.129-.378.074-.512-.508-.133-.582M159.975 202.52c2.499-1.68 3.508-4.757 5.759-6.64.294-.247.703.188.407.435-1.107.928-1.918 2.372-2.812 3.503-.946 1.199-1.784 2.364-3.07 3.229-.321.215-.6-.313-.284-.526M162.568 205.48c1.537-1.278 2.813-3.394 3.925-5.046.51-.756 1.173-1.417 1.796-2.077.367-.389.5-.747 1.023-.887.373-.1.504.482.133.582-.44.117-1.208 1.231-1.481 1.527-.722.78-1.304 1.673-1.94 2.523-.945 1.264-1.826 2.796-3.048 3.814-.295.245-.704-.189-.408-.436M165.83 207.032c1.746-1.433 2.507-3.35 3.904-5.024 1.405-1.686 2.483-3.63 4.017-5.204.27-.276.675.16.408.436-.767.787-1.389 1.653-1.996 2.563-.69 1.034-1.573 1.942-2.23 2.996-1.066 1.707-2.123 3.379-3.695 4.669-.297.243-.706-.192-.408-.436M168.429 208.629c1.755-3.048 4.227-5.677 6.179-8.603 1.589-2.382 2.555-5.872 5.508-6.86.365-.122.495.46.133.582-1.781.596-2.375 2.119-3.355 3.539-.86 1.248-1.496 2.654-2.361 3.914-1.798 2.616-4.014 4.993-5.6 7.745-.191.335-.696.016-.504-.317M175.19 193.72c.359-.35.596-.782.893-1.182.274-.369.633-.672.88-1.062.41-.65.864-1.24 1.553-1.608.34-.18.622.346.283.526-.82.436-1.112 1.253-1.714 1.892-.551.584-.915 1.312-1.488 1.87-.275.27-.682-.168-.407-.436M172.048 210.405c1.293-2.534 3.59-4.762 5.456-6.881 1.046-1.188 2.053-2.398 3.194-3.496 1.19-1.145 2.018-2.547 2.938-3.902.217-.318.723-.002.506.318-.676.994-1.283 2.134-2.086 3.026-.982 1.092-2.043 2.088-3.009 3.198-1.123 1.292-2.267 2.567-3.378 3.87-1.08 1.269-2.355 2.695-3.115 4.184-.176.344-.68.023-.506-.317M176.087 211.731c2.012-2.271 3.617-4.855 5.386-7.316.775-1.079 1.622-2.07 2.5-3.069.863-.984 1.65-2.107 2.704-2.901.305-.23.715.204.408.435-1.053.794-1.843 1.916-2.705 2.902a51.627 51.627 0 0 0-3.036 3.833c-1.6 2.214-3.033 4.503-4.849 6.552-.256.289-.66-.15-.408-.436M178.977 213.262c1.537-1.927 3.287-3.604 4.738-5.617 1.227-1.703 2.544-3.67 4.346-4.802.326-.205.605.323.282.526-1.998 1.256-3.36 3.555-4.729 5.43-1.258 1.721-2.809 3.123-4.13 4.78-.239.298-.746-.016-.507-.317" fill="#0062ae"/>
    <path d="M183.28 215.578c.678-.907.804-1.716 1.063-2.775.957-3.92 5.174-8.945 2.347-12.767-1.542-2.084-3.267-4.081-5.46-5.485-.565-.364-.544-.922-.985-1.416-.487-.545-1.026-.664-1.61-1.076-1.486-1.048-4.092-3.342-3.132.586.329 1.349.979 2.548 1.436 3.844.345.98-.35 1.614-1.16 1.71-.414.249-.941.3-1.477-.026-.728-.443-3.008-.516-3.923-.61-.947-.097-1.842-.492-2.727-.807-2.181-.775-4.371-1.201-6.337-2.506-1.924-1.276-3.897-2.767-5.55-4.38-1.11-1.083-2.487-1.978-3.441-3.176.025.257.06.512.11.766.256 1.247.902 2.518 1.265 3.754.987 3.366 4.026 7.194 6.317 9.765 2.547 2.858 5.36 5.669 8.946 7.098 1.828.729 3.85 1.908 5.892 1.656 1.183-.145 2.074-.162 3.19.285.325.13.559.332.717.57.572.038 1.102.382 1.246 1.12.364 1.89.395 4.294 1.55 5.923.43.604 1.402-1.621 1.724-2.053m-3.36 4.678c-1.996-1.853-2.28-4.818-2.732-7.38-.013-.005-.025-.006-.04-.011-1.356-.542-2.777.136-4.192-.2-1.428-.34-2.733-.88-4.092-1.421-2.285-.912-4.31-1.764-6.16-3.452-2.17-1.984-4.147-4.073-6.141-6.228-2.007-2.168-3.182-5.042-4.817-7.488-1-1.498-1.797-3.873-2.156-5.63-.26-1.271-.485-2.746-.163-4.025.907-3.605 4.677-1.832 5.683.726.03.079.048.157.066.236.468.37 1.068.744 1.386 1.069.855.873 1.664 1.665 2.67 2.384 1.952 1.397 3.528 3.239 5.888 4.033 1.934.65 4.164 1.586 6.196 1.794.64.066 1.263.1 1.866.166-.606-1.761-.972-3.44-.33-5.527.538-1.745 2.134-3.752 4.154-2.316 1.438 1.02 2.62 2.363 4.247 3.114 1.135.524 1.524 1.81 2.504 2.526 2.645 1.928 5.556 5.025 6.752 8.114 1.118 2.889-.917 6.64-1.917 9.27-1.086 2.857-1.804 5.829-3.434 8.422-.986 1.572-3.411 3.519-5.238 1.824M154.206 74.012c.205.25.338.519.583.735.201.18.434.368.647.53.35.266.627.608.954.899.23.203.541.22.75.432.182.184.508.06.514-.201l.003-.15c.004-.218-.185-.311-.35-.285a1.394 1.394 0 0 0-.295-.148c-.42-.151-.716-.592-1.046-.887-.183-.162-.323-.34-.53-.474-.366-.24-.532-.54-.799-.865-.244-.298-.673.117-.43.414M154.155 69.085c.305.345.57.718.874 1.062.262.295.768.578 1.09.815.763.563 1.495 1.277 2.354 1.688.345.165.658-.342.311-.508-.756-.363-1.435-1.011-2.104-1.505-.375-.276-.697-.587-1.088-.841-.417-.273-.68-.757-1.007-1.124-.256-.29-.684.125-.43.413M155.865 65.686c.764.73 1.688 1.282 2.509 1.946.913.74 1.806 1.497 2.63 2.336.27.274.7-.14.43-.415-.823-.838-1.718-1.592-2.63-2.333-.815-.664-1.752-1.224-2.51-1.948-.276-.266-.708.146-.43.413M157.32 63.115c.41-.004.597.397.87.605.577.44 1.09.995 1.652 1.458 1.13.937 2.332 1.786 3.44 2.745.29.25.724-.162.432-.413-1.326-1.146-2.756-2.162-4.096-3.29-.63-.533-1.38-1.71-2.285-1.702-.384.004-.398.602-.012.597M158.778 60.895c2.789 1.138 4.4 3.944 6.988 5.332.338.182.65-.327.31-.509-1.273-.683-2.36-1.93-3.464-2.858-1.171-.982-2.228-1.952-3.663-2.538-.358-.146-.524.428-.171.573M160.716 57.47c1.764.939 3.444 2.752 4.869 4.144.652.636 1.436 1.149 2.18 1.669.438.306.64.63 1.182.66.385.023.395-.574.012-.596-.454-.026-1.433-.96-1.761-1.194-.865-.62-1.617-1.373-2.412-2.077-1.182-1.045-2.356-2.367-3.76-3.115-.338-.18-.65.328-.31.51M163.595 55.288c2 1.05 3.135 2.771 4.844 4.127 1.718 1.364 3.169 3.05 4.989 4.278.32.216.629-.295.312-.509-.911-.615-1.696-1.336-2.475-2.104-.886-.873-1.935-1.582-2.793-2.48-1.391-1.456-2.765-2.877-4.566-3.82-.34-.179-.652.33-.311.508M165.815 53.196c2.338 2.628 5.292 4.7 7.798 7.17 2.04 2.01 3.694 5.228 6.787 5.597.382.045.39-.553.012-.597-1.866-.223-2.757-1.593-4.004-2.784-1.096-1.048-2.004-2.295-3.108-3.353-2.291-2.195-4.944-4.073-7.055-6.446-.257-.289-.686.126-.43.413M175.464 66.42c.423.27.741.646 1.113.977.344.305.758.529 1.078.86.535.555 1.098 1.04 1.848 1.26.37.107.54-.465.17-.574-.892-.26-1.343-1-2.063-1.503-.658-.46-1.162-1.1-1.835-1.53-.326-.206-.636.304-.31.51M168.999 50.723c1.78 2.218 4.48 3.933 6.74 5.629 1.266.95 2.496 1.93 3.837 2.774 1.397.879 2.493 2.084 3.67 3.224.275.267.706-.146.43-.414-.864-.836-1.69-1.83-2.656-2.54-1.185-.87-2.426-1.63-3.597-2.52-1.363-1.036-2.74-2.052-4.095-3.103-1.316-1.023-2.853-2.16-3.9-3.464-.24-.301-.67.116-.43.414M172.683 48.603c2.431 1.814 4.528 4.02 6.76 6.068.978.9 2.01 1.7 3.07 2.498 1.047.788 2.046 1.728 3.238 2.291.346.163.66-.345.312-.509-1.192-.563-2.193-1.5-3.238-2.29a52.518 52.518 0 0 1-3.752-3.137c-2.016-1.843-3.885-3.794-6.078-5.43-.31-.23-.618.28-.312.51M175.202 46.518c1.896 1.573 3.95 2.86 5.78 4.537 1.547 1.418 3.237 3.075 5.23 3.818.363.134.529-.44.17-.573-2.211-.823-4.012-2.798-5.734-4.354-1.58-1.431-3.383-2.49-5.015-3.842-.294-.243-.727.167-.431.414" fill="#0062ae"/>
    <path d="M176.841 41.715c-.8 1.83-.344 4.19-.316 6.114.01.753-.44 1.197-.992 1.35a1.512 1.512 0 0 1-.586.704c-1.002.665-1.878.829-3.066.927-2.049.168-3.79 1.734-5.432 2.819-3.22 2.128-5.404 5.452-7.317 8.768-1.722 2.982-3.919 7.348-4.202 10.844-.104 1.285-.479 2.66-.475 3.933.001.259.02.517.047.772.691-1.367 1.858-2.523 2.724-3.808 1.29-1.915 2.92-3.776 4.544-5.417 1.66-1.677 3.718-2.54 5.696-3.74.803-.49 1.6-1.058 2.506-1.345.877-.278 3.095-.813 3.718-1.395.458-.427.985-.484 1.441-.326.813-.07 1.621.409 1.482 1.44-.183 1.362-.577 2.669-.625 4.055-.142 4.04 1.944 1.266 3.188-.062.487-.522.99-.748 1.355-1.381.332-.573.2-1.115.678-1.586 1.861-1.821 3.146-4.127 4.232-6.48 1.991-4.317-3.16-8.38-4.893-12.024-.469-.984-.756-1.751-1.603-2.502-.404-.356-1.807-2.34-2.104-1.66m3.363-1.516c2.122 2.208 3.43 4.973 5.074 7.549 1.513 2.37 4.267 5.632 3.76 8.688-.544 3.267-2.764 6.89-4.963 9.316-.814.899-.933 2.237-1.939 2.982-1.44 1.065-2.325 2.62-3.525 3.912-1.686 1.816-3.657.174-4.538-1.424-1.053-1.912-1.036-3.631-.799-5.48-.579.189-1.18.348-1.794.542-1.948.618-3.94 1.986-5.703 3.016-2.149 1.257-3.318 3.382-4.946 5.145-.838.909-1.469 1.849-2.13 2.878-.245.382-.756.87-1.139 1.328-.002.08-.003.16-.017.244-.465 2.71-3.796 5.212-5.417 1.865-.575-1.187-.653-2.676-.658-3.974-.005-1.792.293-4.281.967-5.95 1.104-2.727 1.671-5.78 3.195-8.31 1.515-2.515 3.026-4.963 4.75-7.346 1.466-2.03 3.276-3.275 5.328-4.631 1.221-.807 2.388-1.601 3.718-2.224 1.317-.616 2.847-.241 4.065-1.048.012-.007.023-.011.036-.02-.078-2.6-.403-5.56 1.175-7.78 1.445-2.03 4.214-.616 5.5.722M185.359 123.82c0-2.926-.397-6.122.184-8.995.082-.408.467-.757.859-.86 3.139-.827 5.69 3.26 7.517 5.307 2.054 2.304 5.303 5.29 5.036 8.66-.315 3.953-4.242 8.132-6.436 11.2-1.336 1.866-3.59 6.522-6.241 6.791-.58.06-.996-.433-1.188-.904-1.026-2.53.792-6.013-1.831-7.772-1.018-.683-4.041-.337-5.408-.49-1.61-.183-3.215-.399-4.818-.627-6.68-.952-13.787-1.609-19.984-4.412-1.26-.57-.418-2.154.622-2.294 5.8-.774 11.313-.717 17.047-2.364 5.222-1.5 10.324-3.322 15.647-4.456 1.545-.329 2.205 2.043.654 2.374-5.88 1.252-11.492 3.365-17.29 4.914-5.404 1.445-10.598 1.265-16.058 1.994l.62-2.294c7.053 3.191 15.943 3.844 23.56 4.702 2.974.335 7.972-.834 9.154 2.478.222.622.25 2.883.13 3.717.439 1.254.12 2.241-.957 2.962.685-.875 1.369-1.75 2.052-2.626 2.163-2.85 4.577-5.81 6.24-8.986 1.57-2.996 2.022-5.584-.175-8.336a62.865 62.865 0 0 0-3.22-3.697c-.725-.775-1.736-2.467-2.771-2.152-1.065.325-.483 5.055-.483 6.166 0 1.584-2.462 1.587-2.462 0" fill="#0062ae"/>
    <path d="M163.818 133.47a37.647 37.647 0 0 1 2.544-4.056c.244-.34.814-.012.567.331a37.491 37.491 0 0 0-2.544 4.055c-.201.372-.768.041-.567-.33M167.072 133.674a14.632 14.632 0 0 0 2.309-4.763c.112-.407.746-.235.632.174a15.119 15.119 0 0 1-2.375 4.92c-.246.338-.816.01-.566-.331M170.13 133.819a27.94 27.94 0 0 1 3.348-5.464c.26-.332.722.135.464.464a27.26 27.26 0 0 0-3.245 5.332c-.178.382-.744.049-.567-.332M173.21 134.067a34.907 34.907 0 0 0 3.021-6.662c.132-.399.767-.227.633.175a35.707 35.707 0 0 1-3.088 6.82c-.213.363-.78.033-.566-.333M176.58 135.27a215.626 215.626 0 0 0 4.493-10.172c.158-.385.794-.216.633.175a218.73 218.73 0 0 1-4.56 10.33c-.18.38-.746.048-.566-.332M180.17 135.287c1.018-1.967 1.545-4.064 2.242-6.151.573-1.717 1.55-3.331 1.8-5.132.057-.417.69-.24.632.175-.283 2.052-1.42 3.913-2.038 5.878-.6 1.904-1.149 3.783-2.07 5.562-.193.375-.76.043-.566-.332M184.062 132.749c1.908-4.789 3.84-9.569 5.795-14.339.158-.386.794-.217.633.174-1.955 4.77-3.887 9.55-5.795 14.34-.154.387-.79.218-.633-.175" fill="#0062ae"/>
    <path d="M182.751 135.826a9.1 9.1 0 0 0 1.07-2.929c.075-.415.707-.239.632.174a9.633 9.633 0 0 1-1.135 3.087c-.21.366-.778.036-.567-.332M192.609 120.493c-1.664 3.718-3.314 7.482-4.261 11.46-.546 2.294-.452 4.868-2.325 6.526-.315.28-.781-.183-.464-.464 2.283-2.022 2.257-7.007 3.186-9.777.926-2.759 2.109-5.423 3.298-8.076.17-.385.738-.052.566.331M195.33 123.017a177.34 177.34 0 0 0-8.956 21c-.14.395-.773.225-.633-.175a178.68 178.68 0 0 1 9.023-21.157c.19-.377.757-.045.567.332M196.916 125.798a29.151 29.151 0 0 0-3.496 9.588c-.073.416-.706.24-.633-.174a29.665 29.665 0 0 1 3.561-9.746c.212-.365.78-.035.567.332" fill="#0062ae"/>
  </g>
</svg>
