<svg xmlns="http://www.w3.org/2000/svg" viewBox="0 0 560.893 419.6">
  <defs>
    <clipPath id="a">
      <path d="M0 314.7h420.67V0H0z"/>
    </clipPath>
  </defs>
  <g clip-path="url(#a)" transform="matrix(1.33333 0 0 -1.33333 0 419.6)">
    <path d="M37.91 230.152c-.894-.543-1.49-1.435-1.97-2.345-.676-1.28-1.58-2.44-2.243-3.74-.165-.32.319-.605.484-.282a34.056 34.056 0 0 0 1.835 3.125c.642.98 1.14 2.127 2.178 2.758.309.187.027.671-.283.484M42.341 226.368c-1.229-1.248-2.615-2.85-2.699-4.686-.017-.36.544-.36.561 0 .076 1.668 1.424 3.161 2.534 4.29.255.257-.142.654-.396.396M49.073 225.995c-1.575-1.24-2.636-3.033-2.7-5.06-.011-.362.55-.361.56 0 .06 1.887 1.078 3.516 2.536 4.664.285.223-.115.617-.396.396M56.106 225.497c-.548-1.46-1.8-2.549-1.88-4.188-.017-.362.544-.36.562 0 .075 1.543 1.339 2.652 1.859 4.04.127.337-.415.483-.541.148M62.463 225.871c-.402-1.26-.51-2.973-1.423-3.99-.24-.269.154-.667.396-.397 1.001 1.115 1.13 2.862 1.568 4.238.11.345-.432.492-.54.15M71.055 225.796c-.1-1.93-1.786-3.318-2.233-5.16-.086-.352.455-.502.54-.15.464 1.91 2.15 3.285 2.255 5.31.018.362-.543.36-.562 0M77.797 225.871a8.45 8.45 0 0 1-.374-2.138c-.024-.505-.021-.902-.292-1.354-.265-.439-.56-.85-.802-1.303-.17-.319.314-.602.485-.283.277.52 1.159 1.42 1.16 2.011 0 1.007.062 1.95.364 2.918.107.346-.434.494-.541.15M85.65 225.871c-.362-1.556-.291-3.489-1.424-4.738-.243-.267.153-.665.397-.397 1.226 1.352 1.176 3.302 1.568 4.986.082.352-.46.501-.541.15M91.633 225.123c-.412-1.258-.75-2.544-1.468-3.672-.194-.307.291-.587.485-.283.743 1.168 1.097 2.502 1.524 3.806.113.345-.429.49-.54.149M97.689 224.125c-.879-.95-1.175-2.294-1.568-3.49-.114-.344.428-.49.541-.15.359 1.096.618 2.373 1.423 3.242.246.265-.149.663-.396.397M104.712 224.674c-.041-1.056-.616-1.938-1.083-2.85-.165-.322.319-.606.484-.283.516 1.007 1.116 1.97 1.16 3.133.014.362-.546.361-.561 0M109.947 225.422c-.019-1.096-.272-2.338-1.039-3.167-.246-.265.15-.663.396-.396.873.94 1.183 2.31 1.205 3.563.005.363-.556.362-.562 0M94.51 242.917c-.41-.428-.618-.87-.792-1.43-.133-.427-.218-.84-.42-1.245a2.49 2.49 0 0 1-.272-.89c-.037-.36.524-.356.56 0 .038.357.227.663.377.981.13.271.148.545.239.826.172.53.312.95.705 1.361.25.261-.147.658-.397.396M98.436 242.075a5.437 5.437 0 0 1-1.484-3.564c-.01-.362.552-.36.56 0a4.844 4.844 0 0 0 1.322 3.168c.247.261-.148.66-.398.396M102.291 241.67c-.058-.328-.256-.394-.389-.662-.133-.27-.1-.586-.227-.84-.309-.623-.492-1.243-.515-1.937-.013-.363.548-.362.56 0 .012.35.064.676.166 1.012.092.304.302.573.385.876.08.292.1.58.307.834.141.173.216.352.255.568.062.354-.48.505-.542.15M106.499 241.11c-.033-.207-.177-.381-.291-.551-.141-.213-.206-.437-.324-.657-.306-.564-.74-1.006-.798-1.671-.031-.361.53-.358.56 0 .032.352.239.642.428.928.123.188.368.453.405.68.065.417.493.695.56 1.122.056.354-.484.506-.54.149M110.986 241.11c-.417-1.083-1.63-1.608-1.692-2.88-.018-.361.543-.36.56 0 .055 1.117 1.29 1.739 1.673 2.73.13.339-.412.484-.541.15M114.705 241.234c-.362-.363-.714-.723-.996-1.152-.386-.592-.163-1.335-.451-1.991-.144-.327.339-.613.485-.282.232.527.308 1.04.318 1.613.01.54.693 1.067 1.04 1.416.256.255-.14.652-.396.396M64.735 295.87c-.47-.681-1.033-1.287-1.537-1.941-.194-.252-.405-.503-.556-.783-.149-.276-.156-.738-.544-.793-.357-.051-.205-.591.15-.541.68.096.62.755.965 1.194.67.853 1.39 1.688 2.007 2.58.205.299-.28.58-.485.284M71.23 297.048c-1.385-1.387-2.774-2.79-3.69-4.544-.166-.32.318-.604.485-.283.893 1.713 2.248 3.077 3.601 4.431.257.255-.14.652-.395.396M78.479 298.955c-.447-.75-1.099-1.086-1.693-1.68l-1.373-1.374c-1.05-1.05-2.032-2.137-2.824-3.397-.193-.307.292-.589.484-.283.846 1.345 1.924 2.47 3.042 3.59.938.94 2.162 1.712 2.848 2.861.186.311-.299.593-.484.283M85.733 301.057c-.127-1.633-1.47-2.882-2.367-4.167-.82-1.174-1.872-2.198-2.88-3.207-.255-.256.14-.653.397-.397 1.147 1.148 2.27 2.321 3.2 3.655.919 1.316 2.08 2.441 2.21 4.116.03.361-.532.358-.56 0M90.643 301.58c-.312.184-.594-.3-.283-.484.59-.349-1.623-3.893-1.946-4.359-.811-1.167-1.712-2.446-2.72-3.457-.397-.398-.91-.827-1.117-1.365-.034-.086.003-.213.072-.273.015-.013.03-.025.044-.039.272-.236.67.16.397.397.414-.36 4.37 5.25 4.649 5.847.334.718 2.008 3.082.904 3.733M96.672 303.021c-.093-2.138-1.292-4.171-2.39-5.96-1.075-1.755-2.358-3.378-3.462-5.118-.194-.306.29-.587.484-.283 2.17 3.416 5.746 7.1 5.929 11.361.015.361-.546.36-.561 0M102.083 304.34l-.281-.28a.257.257 0 0 1-.052-.307c-.979-1.79-1.911-3.631-3.077-5.304-.705-1.012-1.329-2.083-1.963-3.14-.535-.89-1.123-1.58-1.431-2.591-.105-.347.436-.495.541-.15.34 1.117 1.065 1.942 1.655 2.925a54.251 54.251 0 0 0 1.963 3.076c1.18 1.694 2.08 3.63 3.085 5.432.156.278-.212.568-.44.34M104.535 300.571c-.415-1.187-1.421-2.115-1.863-3.282a65.56 65.56 0 0 0-2.596-5.907c-.16-.323.324-.607.484-.283a71.163 71.163 0 0 1 2.472 5.572c.519 1.32 1.578 2.417 2.045 3.751.119.342-.423.488-.542.15M56.012 297.205c-.55-1.32-1.362-2.517-1.682-3.927-.04-.176.082-.355.27-.355.409 0 .478.082.76.363.23.23-.068.57-.316.45.382 1.153 1.042 2.198 1.51 3.32.139.334-.405.478-.542.15M60.22 299.73c-.205-.51-.54-.903-.84-1.355-.254-.38-.336-.847-.561-1.244-.361-.63-.871-1.086-1.202-1.704a.255.255 0 0 1-.211-.26v-.28c0-.324.455-.374.55-.075.279.882 1.023 1.468 1.472 2.256.23.404.323.853.587 1.251.282.423.555.786.746 1.261.135.336-.408.48-.541.15M63.894 301.76c-.956-1.804-2.302-3.367-3.177-5.208-.12-.021-.227-.105-.227-.262v-.281c0-.26.409-.41.523-.141.859 2.02 2.339 3.674 3.365 5.609.17.32-.314.602-.484.283M68.073 304.498c-.042-.145-.6-.958-.702-1.262-.294-.873-.706-1.633-1.182-2.413-.778-1.274-1.61-2.5-2.295-3.831-.165-.321.319-.605.485-.283.75 1.459 1.67 2.808 2.524 4.207.345.564.619 1.136.859 1.75.233.595.674 1.082.853 1.683.102.348-.44.495-.542.149M72.129 306.628c-1.115-.699-1.404-2.04-1.68-3.245-.256-1.119-1.001-2.123-1.547-3.12-.351-.646-.744-.998-.84-1.73-.045-.359.516-.354.562 0 .079.61.703 1.335 1.004 1.886.397.73.82 1.441 1.202 2.18.615 1.191.253 2.71 1.582 3.545.305.192.025.677-.283.484M77.4 309.39c-1.262-1.361-1.898-3.048-2.658-4.712-.771-1.691-1.966-3.44-3.231-4.825-.244-.266.152-.664.397-.396 1.05 1.15 2.002 2.518 2.833 3.832 1.18 1.867 1.499 4.026 3.057 5.705.245.264-.15.662-.397.396M80.685 310.032c0 .362-.557.362-.561 0-.011-.914-.614-1.887-.99-2.708-.436-.955-.897-1.844-1.496-2.705-.721-1.034-1.25-2.32-2.08-3.265-.33-.377-.637-.853-.753-1.344-.083-.352.458-.5.54-.149.188.795.958 1.575 1.375 2.267a40.789 40.789 0 0 0 1.963 2.995c.566.776.92 1.873 1.31 2.75.277.626.546 1.113.645 1.73a.27.27 0 0 1 .047.15zM86.294 312.557c-.233-2.042-1.823-4.156-2.842-5.881-.473-.8-1.024-1.558-1.54-2.33-.292-.433-2.825-3.555-2.267-4.048.27-.238.669.157.397.397.213-.19.295.213.472.502.252.41.517.812.78 1.214.609.926 1.23 1.843 1.847 2.764.5.75.968 1.509 1.429 2.285.899 1.513 2.08 3.316 2.285 5.097.04.359-.52.355-.561 0M88.538 312.837c-.14-2.112-1.636-4.323-2.42-6.283-.48-1.193-1.007-2.339-1.749-3.393-.459-.65-.795-1.314-.88-2.104-.038-.359.523-.356.561 0 .121 1.12 1.03 2.083 1.562 3.027.497.883.856 1.85 1.233 2.788.76 1.893 2.117 3.901 2.254 5.965.023.361-.537.36-.56 0M89.417 309.613a3.597 3.597 0 0 1-.314-1.167c-.082-.865-.652-1.392-.955-2.146-.58-1.438-1.724-2.516-2.125-4.046-.091-.35.45-.498.541-.15.355 1.358 1.277 2.374 1.936 3.58.329.603.642 1.232.96 1.845.309.592.168 1.166.442 1.802.141.327-.342.614-.485.282M90.54 307.37c-.44-.644-.913-1.244-1.224-1.964-.353-.816-.352-1.7-.74-2.525-.153-.324.33-.61.484-.282.274.583.55 1.23.587 1.882.056.984.848 1.832 1.377 2.605.204.3-.282.58-.485.283M61.37 267.541c-.485-1.11-1.555-1.874-2.198-2.9-.757-1.204-1.71-2.238-2.29-3.55-.144-.328.339-.613.485-.282.576 1.302 1.498 2.378 2.289 3.549.67.996 1.713 1.79 2.199 2.9.143.329-.34.615-.485.284M67.36 257.265c-1.628-1.136-2.617-2.85-3.983-4.251-.252-.26.144-.657.397-.397 1.327 1.362 2.287 3.06 3.869 4.164.296.205.015.692-.282.484M94.79 280.22c-1.941-2.28-3.325-4.942-5.092-7.35-.215-.292.273-.571.484-.282 1.739 2.367 3.095 4.992 5.005 7.236.233.273-.162.672-.397.396M98.355 275.815c-.11-1.19-1.097-2.196-1.808-3.075-.6-.743-1.136-1.515-1.52-2.393-.143-.328.34-.614.484-.283.866 1.983 3.198 3.519 3.405 5.75.033.36-.529.357-.562 0M103.403 273.29c-.053-.519-.368-1.04-.662-1.46-.171-.247-.224-.654-.311-.936-.257-.837-.816-1.481-1.232-2.23-.176-.316.308-.6.484-.284.447.805.934 1.51 1.29 2.365.226.546.414 1.054.712 1.576.179.315.244.612.28.969.037.36-.525.356-.561 0M55.441 242.718c-.038.355-.6.36-.56 0 .204-1.888-1.105-3.588-1.926-5.187-.165-.322.32-.606.485-.283.863 1.682 2.217 3.477 2.001 5.47M60.528 240.335c-.37-.792-.527-1.772-1.01-2.497a26.108 26.108 0 0 1-1.514-2.552c-.164-.32.32-.605.484-.283.406.793.86 1.553 1.347 2.298.553.848.748 1.834 1.177 2.751.153.325-.33.611-.484.283" fill="#12243e"/>
    <path d="M116.499 243.635c-1.752-1.012-3.34-1.113-5.302-1.113-3.411 0-6.828-.064-10.238.031-1.824.05-3.542.64-5.178 1.404-1.394.653-1.532 2.928-1.874 4.192-.838 3.101-.783 6.581-.281 9.781.233 1.477.087 4.025 2.285 4.215 1.39.12 2.809.261 4.203.334 2.625.138 5.207.237 7.846.237 2.378 0 5.122-.149 7.309.982 2.368 1.224 2.817 2.01 3.486 4.227.328-.946.155-2.123.155-3.063v-6.914c0-1.77-.285-3.493-.276-5.259.01-2.144.325-4.193.285-6.332a1.042 1.042 0 0 1-.29-.75c0-.65-1.51-1.615-2.13-1.972m4.542 11.283c.49 2.571.112 5.506.112 8.108 0 2.964.753 8.444-3.663 7.223a1.131 1.131 0 0 1-.824-1.082v-.28c0-.03.007-.057.009-.087-.407-1.374-.634-1.953-1.805-2.786-1.88-1.336-4.73-1.054-6.91-1.054-3.265 0-6.587.126-9.823-.393-1.315-.212-3.263.11-4.475-.602-1.1-.644-1.572-2.063-1.86-3.209-.42-1.667-.562-3.52-.641-5.234-.09-1.942-.497-4.402.022-6.286.693-2.524 1.01-5.812 3.466-7.216 3.17-1.813 6.787-1.742 10.31-1.742 3.479 0 7.894-.79 11.15.68 1.659.746 4.363 2.094 4.722 4.184.182.178.309.424.322.745.133 2.983-.673 6.1-.112 9.031M117.895 281.05c0 2.083-.039 4.66-.902 6.55-1.359 2.972-4.61 4.484-7.702 4.957-1.794.275-3.658-.118-5.448-.26-2.086-.168-4.232-.029-6.324-.029-4.465 0-8.909.373-13.378.373-9.468 0-36.632.374-46.089.374-2.515 0-6.443-1.644-7.721-3.857-.763-1.322-.576-3.224-.524-4.67.072-2.015.017-4.04.017-6.057 0-1.446 2.244-1.446 2.244 0 0 2.96-.388 6.186.069 9.108.266 1.694 3.236 2.476 4.573 2.986 1.977.753 4.864.247 6.952.247 7.208 0 32.175-.374 39.407-.374 6.931 0 13.839-.558 20.774-.346 3.761.115 7.012.768 10.15-1.956 1.58-1.37 1.658-5.017 1.658-7.074 0-1.447 2.244-1.447 2.244 0v.027z" fill="#12243e"/>
    <path d="M118.269 238.884c-.1 1.436-2.344 1.445-2.244 0 .19-2.754 1.222-11.881-.22-14.428-2.254-3.977-7.375-2.596-10.97-3.364-3.131-.67-6.371-.12-9.498.186-1.802.177-3.306-.046-5.116-.052-1.877-.007-3.876-.078-5.796.093-3.486.31-24.895-.374-28.422-.374-3.668 0-7.3.355-10.94.38-3.974.027-8.042.813-11.1 3.552-2.363 2.118-1.546 6.73-1.52 9.53.013 1.448-2.231 1.447-2.244 0-.027-2.95-.522-6.472.877-9.211 1.559-3.054 5.31-4.99 8.548-5.707 1.646-.365 3.724-.325 5.44-.408 1.89-.092 3.705-.381 5.606-.381h7.577c2.5 0 22.769.513 25.242.458 2.324-.052 4.437-.46 6.732-.175 1.903.234 4.092.152 6.004-.036 4.209-.413 8.133.128 12.32.128 3.665 0 6.927 1.284 9.197 4.248 2 2.614.733 12.596.527 15.56" fill="#12243e"/>
    <path d="M32.442 234.128c-.27 2.34-.148 9.884-.353 12.226-.268 3.064-.487 5.986-.2 9.069.285 3.048.34 6.003.333 9.074-.004 1.527-.49 2.932-.422 4.487.083 1.904.08 7.449.08 9.355 0 1.447-2.243 1.447-2.243 0 0-2.664-.682-9.787.04-12.36.794-2.824.452-6.733.089-9.61a38.76 38.76 0 0 1-.055-9.246c.292-2.592.189-10.403.487-12.995.163-1.42 2.409-1.436 2.244 0M117.707 281.144c-.036 1.444-2.28 1.448-2.243 0 .045-1.83.28-3.64.28-5.47 0-1.935-.28-7.475-.28-9.395 0-1.447 2.243-1.447 2.243 0 0 1.664.28 6.967.28 8.652 0 2.08-.227 4.136-.28 6.213M117.96 240.853c-.142.475.189.83.269 1.286.104.602-.152 1.206-.784 1.38-.546.15-1.276-.18-1.38-.784-.041-.238-.158-.448-.251-.673-.12-.289-.143-.704-.146-1.01-.009-.596.328-1.121.356-1.7.072-1.44 2.316-1.447 2.245 0-.027.527-.16 1-.31 1.501M101.818 249.494c-.161.039-.31.04-.447.019-.044.007-.085.018-.131.022-.581.038-1.58.224-2.048.603-.396.32-.496 1.269-.586 1.733-.38 1.964.722 2.918 2.67 3.018.705.036 1.526-.485 1.916-1.056.396-.58 1.138-1.192 1.125-1.933-.02-1.107-1.165-2.718-2.5-2.406m3.633 5.012c-.492.456-.715 1.06-1.267 1.493-.663.519-1.308.879-2.133 1.059-2.96.647-5.793-1.364-5.787-4.376.003-1.246.336-2.867 1.123-3.855.867-1.09 2.526-1.45 3.854-1.537.066-.004.126 0 .187.006 2.286-.387 4.776 1.592 5.06 3.837.178 1.382.008 2.405-1.037 3.373M107.562 292.595c-.507.523-.585 1.638-.833 2.31-.429 1.162-.797 2.87-1.052 4.088-.436 2.079-.54 4.514-2.251 5.976-1.539 1.315-4.432.339-6.151.022-1.476-.272-2.759-.964-4.267-1.168-1.449-.197-2.769-.705-4.207-.952-6.76-1.162-13.314-3.204-20.042-4.492-3.342-.64-6.449-1.697-9.688-2.721-2.599-.821-5.948-2.06-8.678-2.173-1.442-.061-1.448-2.304 0-2.244 2.249.093 4.305.972 6.468 1.512 2.909.728 5.704 1.754 8.568 2.627 6.149 1.874 12.716 2.606 18.919 4.316 2.714.747 5.664 1.304 8.414 1.849 2.648.523 5.179 1.22 7.854 1.65 2.38.383 2.147-1.678 2.477-3.001.355-1.43.788-2.823 1.156-4.238.419-1.612.503-3.687 1.727-4.947 1.009-1.04 2.594.548 1.586 1.586" fill="#12243e"/>
    <path d="M94.555 303.587c-.416.667-.634 2.289-.868 3.097-.321 1.113-.73 2.07-1.225 3.115-.524 1.106-1.707 4.464-3.107 4.795-.74.176-1.24.156-1.945-.227-1.404-.764-2.826-1.043-4.333-1.49-2.581-.762-5.162-1.97-7.638-3.03-5.223-2.236-10.09-5.476-15.068-8.19-2.7-1.47-5.321-3.092-8.02-4.583-1.411-.78-2.761-1.617-4.207-2.34-.771-.385-1.767-1.32-2.536-1.57-1.37-.446-.783-2.613.596-2.163 1.647.537 3.169 1.843 4.756 2.637 2.588 1.294 4.908 3.042 7.573 4.207 2.06.902 4.06 2.523 5.988 3.698 2.388 1.455 4.972 2.624 7.474 3.875 4.555 2.277 8.969 4.583 13.937 5.869.41.106 2.57 1.198 2.8.777.61-1.114 1.22-2.255 1.792-3.396.993-1.98.953-4.382 2.094-6.214.763-1.224 2.705-.1 1.937 1.133M317.91 230.152c-.895-.543-1.49-1.435-1.97-2.345-.676-1.28-1.58-2.44-2.243-3.74-.165-.32.318-.605.485-.282a33.377 33.377 0 0 0 1.834 3.125c.642.98 1.14 2.127 2.177 2.758.31.187.029.671-.282.484M322.341 226.368c-1.229-1.248-2.615-2.85-2.699-4.686-.018-.36.544-.36.56 0 .076 1.668 1.425 3.161 2.535 4.29.254.257-.14.654-.396.396M329.073 225.995c-1.575-1.24-2.637-3.033-2.7-5.06-.011-.362.55-.361.56 0 .06 1.887 1.078 3.516 2.536 4.664.286.223-.115.617-.396.396M336.106 225.497c-.549-1.46-1.8-2.549-1.88-4.188-.017-.362.544-.36.562 0 .075 1.543 1.339 2.652 1.859 4.04.127.337-.415.483-.541.148M342.463 225.871c-.4-1.26-.51-2.973-1.424-3.99-.24-.269.155-.667.397-.397 1.001 1.115 1.13 2.862 1.568 4.238.11.345-.432.492-.54.15M351.055 225.796c-.1-1.93-1.787-3.318-2.234-5.16-.085-.352.456-.502.542-.15.463 1.91 2.15 3.285 2.253 5.31.018.362-.542.36-.56 0M357.796 225.871a8.405 8.405 0 0 1-.373-2.138c-.025-.505-.022-.902-.293-1.354-.265-.439-.56-.85-.802-1.303-.17-.319.315-.602.485-.283.278.52 1.16 1.42 1.16 2.011.001 1.007.063 1.95.364 2.918.107.346-.434.494-.54.15M365.65 225.871c-.362-1.556-.291-3.489-1.424-4.738-.243-.267.153-.665.397-.397 1.226 1.352 1.176 3.302 1.568 4.986.082.352-.46.501-.541.15M371.633 225.123c-.412-1.258-.75-2.544-1.468-3.672-.194-.307.291-.587.485-.283.743 1.168 1.097 2.502 1.524 3.806.112.345-.429.49-.54.149M377.689 224.125c-.879-.95-1.176-2.294-1.568-3.49-.114-.344.428-.49.541-.15.359 1.096.618 2.373 1.423 3.242.247.265-.15.663-.396.397M384.712 224.674c-.04-1.056-.616-1.938-1.084-2.85-.164-.322.32-.606.484-.283.517 1.007 1.117 1.97 1.161 3.133.014.362-.547.361-.56 0M389.948 225.422c-.02-1.096-.272-2.338-1.04-3.167-.245-.265.15-.663.396-.396.873.94 1.183 2.31 1.205 3.563.006.363-.555.362-.561 0M374.51 242.917c-.409-.428-.619-.87-.793-1.43-.133-.427-.218-.84-.42-1.245a2.53 2.53 0 0 1-.272-.89c-.037-.36.524-.356.561 0 .037.357.227.663.377.981.13.271.148.545.24.826.171.53.311.95.703 1.361.25.261-.146.658-.397.396M378.437 242.075a5.432 5.432 0 0 1-1.484-3.564c-.01-.362.55-.36.56 0a4.848 4.848 0 0 0 1.32 3.168c.249.261-.146.66-.396.396M382.291 241.67c-.058-.328-.257-.394-.39-.662-.133-.27-.099-.586-.227-.84-.308-.623-.491-1.243-.514-1.937-.013-.363.548-.362.56 0 .011.35.064.676.165 1.012.094.304.303.573.386.876.08.292.1.58.307.834.142.173.216.352.255.568.062.354-.48.505-.541.15M386.498 241.11c-.032-.207-.178-.381-.29-.551-.142-.213-.207-.437-.325-.657-.306-.564-.739-1.006-.797-1.671-.032-.361.53-.358.56 0 .031.352.238.642.427.928.123.188.368.453.404.68.067.417.495.695.562 1.122.055.354-.485.506-.54.149M390.986 241.11c-.417-1.083-1.63-1.608-1.692-2.88-.018-.361.543-.36.56 0 .055 1.117 1.29 1.739 1.673 2.73.13.339-.412.484-.541.15M394.705 241.234c-.361-.363-.715-.723-.995-1.152-.388-.592-.163-1.335-.451-1.991-.145-.327.338-.613.484-.282.232.527.308 1.04.318 1.613.01.54.693 1.067 1.04 1.416.256.255-.14.652-.396.396M344.736 295.87c-.471-.681-1.033-1.287-1.537-1.941-.194-.252-.405-.503-.557-.783-.148-.276-.155-.738-.544-.793-.356-.051-.205-.591.15-.541.679.096.62.755.965 1.194.669.853 1.39 1.688 2.007 2.58.206.299-.281.58-.484.284M351.231 297.048c-1.387-1.387-2.775-2.79-3.69-4.544-.167-.32.316-.604.484-.283.893 1.713 2.249 3.077 3.602 4.431.256.255-.14.652-.396.396M358.479 298.955c-.447-.75-1.1-1.086-1.693-1.68l-1.373-1.374c-1.05-1.05-2.032-2.137-2.824-3.397-.193-.307.292-.589.484-.283.846 1.345 1.924 2.47 3.042 3.59.938.94 2.162 1.712 2.848 2.861.186.311-.299.593-.484.283M365.733 301.057c-.128-1.633-1.47-2.882-2.367-4.167-.82-1.174-1.872-2.198-2.88-3.207-.255-.256.14-.653.396-.397 1.148 1.148 2.272 2.321 3.203 3.655.917 1.316 2.078 2.441 2.21 4.116.028.361-.534.358-.562 0M370.643 301.58c-.313.184-.595-.3-.283-.484.591-.349-1.623-3.893-1.946-4.359-.81-1.167-1.712-2.446-2.72-3.457-.398-.398-.91-.827-1.117-1.365-.035-.086.003-.213.071-.273a.838.838 0 0 0 .045-.039c.272-.236.67.16.396.397.415-.36 4.371 5.25 4.65 5.847.334.718 2.008 3.082.904 3.733M376.671 303.021c-.092-2.138-1.29-4.171-2.388-5.96-1.077-1.755-2.359-3.378-3.464-5.118-.194-.306.291-.587.485-.283 2.17 3.416 5.745 7.1 5.93 11.361.013.361-.547.36-.563 0M382.082 304.34l-.28-.28a.256.256 0 0 1-.053-.307c-.979-1.79-1.91-3.631-3.076-5.304-.706-1.012-1.329-2.083-1.964-3.14-.534-.89-1.123-1.58-1.43-2.591-.104-.347.437-.495.54-.15.34 1.117 1.066 1.942 1.655 2.925a54.815 54.815 0 0 0 1.963 3.076c1.181 1.694 2.08 3.63 3.085 5.432.156.278-.21.568-.44.34M384.535 300.571c-.415-1.187-1.421-2.115-1.863-3.282a65.56 65.56 0 0 0-2.596-5.907c-.16-.323.324-.607.484-.283a70.791 70.791 0 0 1 2.472 5.572c.52 1.32 1.577 2.417 2.044 3.751.119.342-.422.488-.541.15M336.012 297.205c-.55-1.32-1.363-2.517-1.683-3.927-.04-.176.082-.355.271-.355.408 0 .477.082.76.363.23.23-.069.57-.317.45.383 1.153 1.042 2.198 1.51 3.32.14.334-.404.478-.54.15M340.22 299.73c-.205-.51-.54-.903-.84-1.355-.254-.38-.336-.847-.562-1.244-.36-.63-.87-1.086-1.202-1.704a.255.255 0 0 1-.21-.26v-.28c0-.324.455-.374.55-.075.28.882 1.022 1.468 1.471 2.256.231.404.323.853.588 1.251.281.423.555.786.746 1.261.135.336-.408.48-.542.15M343.894 301.76c-.956-1.804-2.302-3.367-3.177-5.208-.12-.021-.227-.105-.227-.262v-.281c0-.26.409-.41.523-.141.859 2.02 2.34 3.674 3.365 5.609.169.32-.314.602-.484.283M348.073 304.498c-.043-.145-.6-.958-.702-1.262-.294-.873-.705-1.633-1.182-2.413-.778-1.274-1.61-2.5-2.295-3.831-.165-.321.319-.605.485-.283.752 1.459 1.67 2.808 2.524 4.207.345.564.619 1.136.859 1.75.233.595.674 1.082.853 1.683.102.348-.438.495-.542.149M352.128 306.628c-1.114-.699-1.403-2.04-1.68-3.245-.256-1.119-1-2.123-1.546-3.12-.35-.646-.745-.998-.839-1.73-.046-.359.515-.354.56 0 .08.61.703 1.335 1.004 1.886.397.73.821 1.441 1.202 2.18.616 1.191.253 2.71 1.582 3.545.306.192.025.677-.283.484M357.4 309.39c-1.263-1.361-1.898-3.048-2.658-4.712-.771-1.691-1.967-3.44-3.232-4.825-.243-.266.154-.664.398-.396 1.05 1.15 2.002 2.518 2.833 3.832 1.18 1.867 1.499 4.026 3.056 5.705.247.264-.15.662-.396.396M360.684 310.032c0 .362-.557.362-.56 0-.01-.914-.615-1.887-.99-2.708-.437-.955-.897-1.844-1.497-2.705-.72-1.034-1.249-2.32-2.079-3.265-.33-.377-.638-.853-.754-1.344-.083-.352.458-.5.541-.149.188.795.957 1.575 1.374 2.267a41.45 41.45 0 0 0 1.963 2.995c.566.776.922 1.873 1.311 2.75.277.626.545 1.113.644 1.73a.27.27 0 0 1 .047.15zM366.294 312.557c-.234-2.042-1.823-4.156-2.843-5.881-.472-.8-1.023-1.558-1.54-2.33-.29-.433-2.824-3.555-2.266-4.048.27-.238.668.157.396.397.213-.19.295.213.473.502.252.41.516.812.781 1.214.607.926 1.228 1.843 1.846 2.764.501.75.967 1.509 1.428 2.285.9 1.513 2.081 3.316 2.286 5.097.041.359-.52.355-.56 0M368.538 312.837c-.14-2.112-1.635-4.323-2.421-6.283-.478-1.193-1.006-2.339-1.748-3.393-.46-.65-.794-1.314-.88-2.104-.038-.359.524-.356.562 0 .12 1.12 1.029 2.083 1.56 3.027.498.883.858 1.85 1.235 2.788.759 1.893 2.117 3.901 2.254 5.965.023.361-.538.36-.562 0M369.418 309.613a3.597 3.597 0 0 1-.314-1.167c-.082-.865-.652-1.392-.956-2.146-.58-1.438-1.724-2.516-2.126-4.046-.09-.35.451-.498.542-.15.355 1.358 1.277 2.374 1.935 3.58.33.603.643 1.232.961 1.845.31.592.168 1.166.441 1.802.142.327-.34.614-.484.282M370.54 307.37c-.44-.644-.913-1.244-1.224-1.964-.352-.816-.351-1.7-.74-2.525-.153-.324.33-.61.485-.282.274.583.549 1.23.586 1.882.056.984.848 1.832 1.377 2.605.205.3-.282.58-.484.283M341.37 267.541c-.485-1.11-1.555-1.874-2.198-2.9-.756-1.204-1.71-2.238-2.29-3.55-.144-.328.339-.613.485-.282.576 1.302 1.497 2.378 2.289 3.549.67.996 1.713 1.79 2.198 2.9.144.329-.34.615-.484.284M347.36 257.265c-1.63-1.136-2.617-2.85-3.982-4.251-.253-.26.143-.657.396-.397 1.326 1.362 2.287 3.06 3.869 4.164.295.205.015.692-.282.484M374.79 280.22c-1.94-2.28-3.325-4.942-5.093-7.35-.215-.292.274-.571.485-.282 1.74 2.367 3.095 4.992 5.004 7.236.235.273-.16.672-.395.396M378.355 275.815c-.11-1.19-1.097-2.196-1.807-3.075-.6-.743-1.138-1.515-1.521-2.393-.143-.328.341-.614.484-.283.865 1.983 3.198 3.519 3.405 5.75.034.36-.529.357-.561 0M383.403 273.29c-.053-.519-.368-1.04-.662-1.46-.171-.247-.224-.654-.311-.936-.256-.837-.816-1.481-1.232-2.23-.176-.316.309-.6.484-.284.447.805.934 1.51 1.289 2.365.228.546.414 1.054.712 1.576.18.315.245.612.282.969.036.36-.526.356-.562 0M335.442 242.718c-.038.355-.601.36-.562 0 .206-1.888-1.104-3.588-1.924-5.187-.165-.322.319-.606.484-.283.864 1.682 2.218 3.477 2.002 5.47M340.528 240.335c-.37-.792-.527-1.772-1.01-2.497a25.91 25.91 0 0 1-1.513-2.552c-.165-.32.319-.605.484-.283.405.793.859 1.553 1.347 2.298.552.848.748 1.834 1.177 2.751.152.325-.331.611-.485.283" fill="#12243e"/>
    <path d="M396.498 243.635c-1.753-1.012-3.339-1.113-5.303-1.113-3.41 0-6.827-.064-10.237.031-1.824.05-3.542.64-5.178 1.404-1.394.653-1.532 2.928-1.874 4.192-.839 3.101-.783 6.581-.28 9.781.232 1.477.086 4.025 2.284 4.215 1.39.12 2.81.261 4.202.334 2.625.138 5.208.237 7.848.237 2.377 0 5.122-.149 7.308.982 2.368 1.224 2.817 2.01 3.486 4.227.328-.946.155-2.123.155-3.063v-6.914c0-1.77-.284-3.493-.276-5.259.01-2.144.325-4.193.286-6.332a1.039 1.039 0 0 1-.29-.75c0-.65-1.51-1.615-2.13-1.972m4.541 11.283c.491 2.571.112 5.506.112 8.108 0 2.964.753 8.444-3.663 7.223a1.131 1.131 0 0 1-.824-1.082v-.28c0-.03.007-.057.01-.087-.407-1.374-.635-1.953-1.806-2.786-1.88-1.336-4.729-1.054-6.909-1.054-3.266 0-6.588.126-9.824-.393-1.315-.212-3.262.11-4.476-.602-1.099-.644-1.57-2.063-1.859-3.209-.42-1.667-.563-3.52-.642-5.234-.089-1.942-.496-4.402.023-6.286.694-2.524 1.011-5.812 3.465-7.216 3.17-1.813 6.788-1.742 10.311-1.742 3.478 0 7.894-.79 11.151.68 1.658.746 4.362 2.094 4.721 4.184.182.178.31.424.322.745.133 2.983-.673 6.1-.112 9.031M397.895 281.05c-.001 2.083-.039 4.66-.901 6.55-1.36 2.972-4.612 4.484-7.703 4.957-1.794.275-3.658-.118-5.448-.26-2.086-.168-4.232-.029-6.324-.029-4.465 0-8.908.373-13.378.373-9.468 0-36.632.374-46.09.374-2.514 0-6.441-1.644-7.719-3.857-.764-1.322-.577-3.224-.525-4.67.072-2.015.017-4.04.017-6.057 0-1.446 2.244-1.446 2.244 0 0 2.96-.389 6.186.069 9.108.266 1.694 3.236 2.476 4.573 2.986 1.977.753 4.864.247 6.952.247 7.208 0 32.175-.374 39.407-.374 6.931 0 13.839-.558 20.774-.346 3.762.115 7.012.768 10.15-1.956 1.581-1.37 1.658-5.017 1.658-7.074 0-1.447 2.244-1.447 2.244 0v.027z" fill="#12243e"/>
    <path d="M398.268 238.884c-.1 1.436-2.344 1.445-2.244 0 .191-2.754 1.223-11.881-.22-14.428-2.254-3.977-7.374-2.596-10.97-3.364-3.13-.67-6.37-.12-9.498.186-1.8.177-3.306-.046-5.116-.052-1.877-.007-3.875-.078-5.796.093-3.485.31-24.894-.374-28.422-.374-3.667 0-7.299.355-10.938.38-3.976.027-8.043.813-11.1 3.552-2.365 2.118-1.548 6.73-1.522 9.53.013 1.448-2.23 1.447-2.243 0-.027-2.95-.523-6.472.877-9.211 1.558-3.054 5.311-4.99 8.547-5.707 1.647-.365 3.724-.325 5.441-.408 1.89-.092 3.705-.381 5.605-.381h7.578c2.5 0 22.77.513 25.242.458 2.324-.052 4.436-.46 6.731-.175 1.903.234 4.092.152 6.005-.036 4.208-.413 8.133.128 12.32.128 3.664 0 6.926 1.284 9.197 4.248 2.001 2.614.733 12.596.526 15.56" fill="#12243e"/>
    <path d="M312.442 234.128c-.27 2.34-.148 9.884-.354 12.226-.267 3.064-.487 5.986-.2 9.069.286 3.048.34 6.003.334 9.074-.004 1.527-.49 2.932-.422 4.487.083 1.904.08 7.449.08 9.355 0 1.447-2.243 1.447-2.243 0 0-2.664-.682-9.787.04-12.36.794-2.824.452-6.733.089-9.61a38.812 38.812 0 0 1-.055-9.246c.292-2.592.189-10.403.487-12.995.163-1.42 2.409-1.436 2.244 0M397.707 281.144c-.037 1.444-2.28 1.448-2.243 0 .045-1.83.28-3.64.28-5.47 0-1.935-.28-7.475-.28-9.395 0-1.447 2.243-1.447 2.243 0 0 1.664.28 6.967.28 8.652 0 2.08-.227 4.136-.28 6.213M397.96 240.853c-.142.475.189.83.269 1.286.104.602-.152 1.206-.784 1.38-.546.15-1.275-.18-1.38-.784-.041-.238-.158-.448-.251-.673-.12-.289-.143-.704-.146-1.01-.008-.596.328-1.121.356-1.7.072-1.44 2.316-1.447 2.245 0-.026.527-.16 1-.31 1.501M381.818 249.494c-.161.039-.31.04-.447.019-.044.007-.085.018-.131.022-.581.038-1.58.224-2.048.603-.396.32-.496 1.269-.586 1.733-.381 1.964.722 2.918 2.67 3.018.705.036 1.526-.485 1.916-1.056.397-.58 1.138-1.192 1.125-1.933-.02-1.107-1.165-2.718-2.5-2.406m3.633 5.012c-.492.456-.714 1.06-1.267 1.493-.663.519-1.308.879-2.133 1.059-2.96.647-5.794-1.364-5.787-4.376.003-1.246.336-2.867 1.122-3.855.869-1.09 2.528-1.45 3.855-1.537.066-.004.126 0 .187.006 2.287-.387 4.776 1.592 5.062 3.837.176 1.382.006 2.405-1.04 3.373M387.562 292.595c-.507.523-.585 1.638-.833 2.31-.43 1.162-.797 2.87-1.052 4.088-.435 2.079-.541 4.514-2.251 5.976-1.54 1.315-4.432.339-6.15.022-1.477-.272-2.76-.964-4.269-1.168-1.449-.197-2.768-.705-4.207-.952-6.759-1.162-13.313-3.204-20.041-4.492-3.343-.64-6.449-1.697-9.687-2.721-2.6-.821-5.948-2.06-8.679-2.173-1.441-.061-1.447-2.304 0-2.244 2.249.093 4.305.972 6.469 1.512 2.909.728 5.703 1.754 8.567 2.627 6.149 1.874 12.715 2.606 18.919 4.316 2.713.747 5.664 1.304 8.414 1.849 2.648.523 5.18 1.22 7.854 1.65 2.38.383 2.147-1.678 2.476-3.001.356-1.43.789-2.823 1.157-4.238.419-1.612.503-3.687 1.727-4.947 1.009-1.04 2.594.548 1.586 1.586" fill="#12243e"/>
    <path d="M374.555 303.587c-.416.667-.635 2.289-.868 3.097-.322 1.113-.729 2.07-1.226 3.115-.523 1.106-1.707 4.464-3.106 4.795-.74.176-1.24.156-1.945-.227-1.405-.764-2.827-1.043-4.334-1.49-2.58-.762-5.162-1.97-7.637-3.03-5.224-2.236-10.09-5.476-15.069-8.19-2.699-1.47-5.32-3.092-8.019-4.583-1.41-.78-2.762-1.617-4.207-2.34-.772-.385-1.768-1.32-2.536-1.57-1.37-.446-.784-2.613.595-2.163 1.648.537 3.17 1.843 4.756 2.637 2.588 1.294 4.908 3.042 7.574 4.207 2.06.902 4.061 2.523 5.988 3.698 2.388 1.455 4.972 2.624 7.473 3.875 4.556 2.277 8.97 4.583 13.938 5.869.41.106 2.57 1.198 2.801.777.61-1.114 1.22-2.255 1.791-3.396.993-1.98.952-4.382 2.094-6.214.762-1.224 2.705-.1 1.937 1.133M114.915 103.473c-.486-.202-1.123-.194-1.727-.161-.1.027-.206.047-.325.047-10.364.008-20.718 1.88-31.09 1.077-10.996-.852-22.028-.046-33.02-.932-2.696-.217-5.402-.145-8.104-.145-1.115 0-8.15-.711-6.337 1.529.545.674 1.765 1.064 2.488 1.54 1.024.673 1.924 1.503 2.967 2.156 1.84 1.154 4.011 1.807 5.893 2.909 4.7 2.753 8.816 6.19 13.33 9.19 2.472 1.645 4.975 3.018 7.79 3.966.916.308 1.77.674 2.588 1.128.093.037.186.084.28.153 2.123 1.59 4.631 2.456 7.18 1.629 2.64-.856 5.055-1.162 7.525-2.586 2.425-1.397 4.925-2.824 7.036-4.682 1.476-1.3 3.141-3.142 4.896-4.042 1.92-.984 3.639-2.463 5.517-3.562a93.665 93.665 0 0 0 6.423-4.13c1.542-1.08 3.303-1.704 4.997-2.495.547-.256 3.13-1.99 1.694-2.59m1.257 3.435c-1.561 1.593-4.271 2.149-6.162 3.225-1.588.903-3.168 2.153-4.633 3.255-1.36 1.023-3.144 1.732-4.61 2.62-2.63 1.59-4.688 3.822-7.193 5.53-2.946 2.008-5.73 4.104-8.835 5.894-2.75 1.586-5.99 2.112-9.028 2.869-2.4.599-5.372-.97-7.227-2.36-1.317-.776-2.893-1.13-4.322-1.745-2.877-1.24-5.471-2.912-8.067-4.658-4.84-3.252-9.14-7.042-14.5-9.49-2.397-1.095-4.301-2.518-6.482-3.953-1.375-.903-2.977-1.475-3.464-3.262-1.25-4.59 5.493-3.802 7.893-3.802 5.847 0 11.757.016 17.587.474 6.333.498 12.682-.054 19.025.229 6.618.298 13.229 1 19.834.07 2.63-.371 5.306.06 7.925-.365 2.753-.445 5.609-.412 8.397-.408 1.316-.03 4.098-.294 4.797 1.273.76 1.706.347 3.294-.935 4.604M33.2 38.182c13.889.504 27.659.626 41.539-.145 13.832-.766 27.835 2.018 41.57.093 1.505-.211 2.155 2.09.636 2.304-13.361 1.872-26.826-.772-40.254-.113-14.55.712-28.931.778-43.491.25-1.532-.056-1.54-2.446 0-2.39" fill="#12243e"/>
    <path d="M36.697 101.42c-2.516-20.127-.78-40.853-.312-61.071.036-1.534 2.425-1.54 2.389 0-.468 20.218-2.204 40.944.312 61.072.19 1.52-2.201 1.508-2.39 0M110.12 101.691c-.899-20.379.728-40.78-.29-61.127-.076-1.536 2.312-1.532 2.39 0 1.017 20.346-.61 40.748.288 61.127.068 1.537-2.32 1.533-2.389 0M47.9 41.145c-.095 12.32-.191 24.64-.288 36.957-.02 2.68-.624 6.116-.067 8.753.722 3.427 5.612 2.847 8.693 3.07 5.8.42 11.625.302 17.435.178a968.041 968.041 0 0 0 17.377-.525c1.423-.056 8.939.47 9.65-.427 1.197-1.51.199-7.162.218-9.08l.38-38.918c.016-1.536 2.404-1.54 2.389 0l-.312 31.931-.078 7.984c-.023 2.394.52 5.675-.078 7.982-.388 1.494-.377 1.738-1.744 2.388-1.162.552-3.384.228-4.635.284a970.523 970.523 0 0 1-23.167.77c-9.281.197-18.521.237-27.663-1.568-.506-.099-.881-.656-.877-1.15l.379-48.629c.012-1.536 2.4-1.54 2.389 0" fill="#12243e"/>
    <path d="M47.743 83.342c9.04 1.438 17.95 1.523 27.049.753 9.023-.764 17.937-.397 26.96.195 2.036.133 2.05 3.319 0 3.185-9.657-.634-19.071-.822-28.718-.037-8.771.715-17.445.358-26.138-1.026-2.018-.32-1.161-3.39.847-3.07M47.55 78.303c17.657 1.558 35.457.758 53.153.497 2.05-.03 2.05 3.154 0 3.185-17.696.26-35.496 1.06-53.152-.496-2.025-.18-2.044-3.366 0-3.186M100.178 57.677l-11.837.332c-2.128.06-5.666.94-7.595-.22-1.764-1.061-1.336-3.675-1.37-5.43-.08-4.004-.04-8.008.077-12.013.06-2.045 3.246-2.053 3.185 0-.08 2.753-.128 5.505-.12 8.259.005 1.25.055 2.504.043 3.755a5.946 5.946 0 0 1-.052 2.066c-.324.869.14 1.044 1.393.523 2.27.382 5.09-.143 7.398-.208l8.878-.25c2.05-.057 2.049 3.128 0 3.186" fill="#12243e"/>
    <path d="M79.581 57.724l-11.714.177c-2.023.03-5.623.864-7.369-.276-1.103-.717-1.027-1.846-.959-2.972.26-4.32.645-8.275.021-12.608-.288-2.005 2.78-2.871 3.071-.846.342 2.375.587 4.748.587 7.15 0 1.27-.909 5.322-.078 6.124 1.112 1.07 6.042.224 7.655.199l8.786-.134c2.05-.031 2.051 3.155 0 3.186" fill="#12243e"/>
    <path d="M82.567 58.843c-.038 2.307.04 4.59.328 6.882.382 3.035.37 4.674 3.714 5.06 4.617.534 9.648-.052 14.273-.278 2.05-.101 2.044 3.085 0 3.185-3.698.18-7.397.293-11.1.297-1.999.003-6.109.75-7.942-.526-1.563-1.09-1.603-4.06-1.865-5.692-.477-2.96-.64-5.933-.593-8.928.033-2.048 3.218-2.054 3.185 0" fill="#12243e"/>
    <path d="M84.055 56.735c5.67 4.544 12.825 6.687 18.115 11.78 1.48 1.424-.775 3.674-2.253 2.251-5.248-5.052-12.459-7.247-18.114-11.779-1.599-1.28.667-3.523 2.252-2.252" fill="#12243e"/>
    <path d="M82.853 69.465c2.748-2.086 4.767-4.815 7.647-6.796 3.084-2.122 6.204-4.194 9.306-6.291 1.704-1.151 3.299 1.608 1.609 2.75-3.103 2.096-6.239 4.149-9.308 6.29-2.853 1.992-4.897 4.71-7.646 6.797-1.633 1.24-3.22-1.524-1.608-2.75M100.653 55.669c-3.412-1.59-6.604-3.506-9.559-5.843-3.13-2.474-5.686-5.785-9.365-7.465-1.862-.85-.245-3.595 1.608-2.75 3.375 1.54 5.66 4.293 8.432 6.662 3.181 2.72 6.704 4.88 10.491 6.645 1.857.865.241 3.61-1.607 2.75" fill="#12243e"/>
    <path d="M80.89 53.299c4.258-1.742 7.026-5.517 10.516-8.333 2.958-2.386 6.227-4.078 9.804-5.322 1.94-.674 2.773 2.4.847 3.07-4.825 1.679-8.49 4.43-12.149 7.92-2.498 2.386-4.95 4.418-8.17 5.735-1.897.776-2.723-2.303-.848-3.07" fill="#12243e"/>
    <path d="M63.36 39.934c3.884 2.228 7.622 4.687 11.379 7.117 2.534 1.638 6.009 3.13 7.314 6.018.838 1.853-1.906 3.474-2.75 1.607-1.245-2.752-5.727-4.588-8.198-6.186-3.084-1.994-6.166-3.98-9.351-5.806-1.778-1.02-.176-3.773 1.607-2.75" fill="#12243e"/>
    <path d="M61.325 53.643c2.924-1.263 5.35-4.143 8.062-5.896 3.438-2.221 6.473-4.817 9.238-7.83 1.388-1.513 3.636.744 2.252 2.252-2.675 2.915-5.633 5.509-8.927 7.706-3.02 2.016-5.692 5.082-9.018 6.518-1.862.804-3.486-1.94-1.607-2.75M62.416 117.067c.318-1.447.623-2.899.955-4.344.261-1.138.6-2.247 1.8-2.694 1.068-.398 2.492-.17 3.598-.066 1.054.1 2.094.247 2.656 1.27.586 1.064.409 2.626.477 3.794.07 1.191.422 2.7-.134 3.82-.543 1.095-1.68 1.24-2.764 1.384-1.405.19-2.801.244-4.217.178-2.04-.097-2.052-3.282 0-3.186 1.508.072 2.95-.042 4.445-.224-.555.067-.22.646-.412-.215-.081-.363-.047-.799-.07-1.172-.042-.755-.33-1.919-.151-2.635-.055-.369-.029-.389.076-.06.178.238.125.308-.16.21-.19.092-.791-.053-1.015-.062-.305-.013-.72-.09-1.018-.02-.31.004-.338.001-.087-.009.216-.066.25.021.107.261.13.505-.363 1.652-.478 2.173l-.537 2.444c-.44 2.001-3.511 1.154-3.071-.847M74.141 118.343c.58-1.588 1.042-3.21 1.31-4.881.198-1.24.175-2.557 1.213-3.445.995-.85 2.3-.834 3.536-.842 1.191-.007 2.836-.292 3.743.705.946 1.039.37 2.893.24 4.127-.168 1.603-.157 3.36-.529 4.929-.655 2.76-4.757 1.813-6.8 1.535-2.022-.275-1.16-3.345.846-3.071 1.146.156 2.671.389 3.803.076l-.952.732c.184-.29.146-1.326.177-1.627l.202-1.93c.124-1.176.413-2.467.294-3.645l.79 1.375c.207.148-.262-.02-.506-.021a89.218 89.218 0 0 0-1.636 0c-1.099.009-1.105.269-1.256 1.324a27.331 27.331 0 0 1-1.404 5.506c-.696 1.91-3.775 1.085-3.07-.847M55.702 79.583a222.483 222.483 0 0 0-8.33-7.953c-.304-.276.147-.726.45-.45a224.04 224.04 0 0 1 8.33 7.953c.29.29-.16.741-.45.45M58.634 78.872c-1.74-2.639-4.821-4.607-7.115-6.758-1.685-1.58-3.835-3.155-4.331-5.532-.084-.4.53-.57.614-.17.584 2.802 4.053 5.18 6.074 7.007 1.805 1.631 3.956 3.081 5.308 5.132.226.342-.325.662-.55.321M62.987 79.561c-6.403-5.663-9.337-14.338-16.472-19.25-.336-.23-.017-.784.32-.55 7.2 4.956 10.153 13.645 16.602 19.35.308.271-.144.721-.45.45M67.097 79.086c-6.812-7.801-11.733-17.498-20.33-23.384-.337-.23-.019-.782.321-.55 8.782 6.013 13.528 15.546 20.46 23.483.268.307-.18.76-.45.45M72.791 79.377c-4.816-3.967-7.128-9.368-11.191-13.981-4.809-5.46-10.076-10.566-15.351-15.567-.298-.283.152-.732.45-.45C51.981 54.386 57.2 59.514 62.05 64.945c4.047 4.531 6.418 10.049 11.191 13.982.317.261-.136.709-.45.45M79.067 79.712c-5.648-2.67-10.162-9.541-13.635-14.53-5.173-7.427-9.747-13.571-17.944-17.94-.362-.192-.04-.743.321-.55 5.962 3.178 10.96 7.494 14.804 13.073 4.351 6.312 9.542 15.978 16.776 19.397.37.175.047.725-.322.55M48.019 41.791c3.893 3.086 7.7 6.723 12.21 8.879.37.177.047.725-.321.55-4.548-2.174-8.42-5.871-12.34-8.978-.32-.255.133-.703.45-.451M52.105 41.136a24.584 24.584 0 0 1 8.94 7.106c.25.319-.197.773-.45.45a24.208 24.208 0 0 0-8.812-7.006c-.37-.174-.048-.724.321-.55M65.833 57.58c1.455 1.668 3.395 2.643 4.827 4.351 1.218 1.452 2.219 3.117 3.357 4.632 3.173 4.23 6.754 8.103 10.621 11.703.3.28-.151.73-.451.451-3.534-3.29-6.824-6.806-9.792-10.617-1.048-1.345-2.009-2.75-3.02-4.122-1.777-2.41-4.092-3.769-5.992-5.948-.269-.307.18-.76.45-.45M72.44 57.866a29.162 29.162 0 0 1 7.896 9.376c.193.361-.356.684-.55.321a28.76 28.76 0 0 0-7.796-9.246c-.323-.25.13-.699.45-.45M85.868 73.559a37.806 37.806 0 0 1 5.666 4.688c.29.292-.162.743-.45.452a36.853 36.853 0 0 0-5.537-4.59c-.338-.23-.02-.78.321-.55M92.79 73.748a16.985 16.985 0 0 0 3.86 4.503c.317.261-.136.709-.451.45a17.462 17.462 0 0 1-3.96-4.632c-.208-.353.343-.675.55-.321M97.951 73.009l4.02 4.298c.278.299-.17.75-.452.45l-4.018-4.298c-.28-.3.17-.75.45-.45M311.079 38.889a1452.574 1452.574 0 0 1 87.316-.596c1.55.036 1.556 2.45 0 2.413a1451.745 1451.745 0 0 0-87.316.596c-1.553.057-1.55-2.355 0-2.413M311.54 99.72c28.837.157 57.668-.48 86.47-1.916 1.552-.077 1.548 2.336 0 2.413a1566.18 1566.18 0 0 1-86.47 1.916c-1.552-.01-1.556-2.422 0-2.413" fill="#12243e"/>
    <path d="M398.998 101.015l-8.776 13.665c-.837 1.302-2.926.094-2.083-1.218 2.924-4.555 5.85-9.11 8.776-13.665.836-1.303 2.926-.094 2.083 1.218M312.877 100.976c2.971 4.327 6.533 8.127 10.6 11.44 1.203.982-.513 2.68-1.707 1.706a56.723 56.723 0 0 1-10.976-11.928c-.88-1.283 1.21-2.491 2.083-1.218" fill="#12243e"/>
    <path d="M323.153 112.578c21.923-.279 43.848-.286 65.77-.02 1.55.02 1.556 2.432 0 2.414a2636.193 2636.193 0 0 0-65.77.02c-1.553.02-1.554-2.393 0-2.414M310.377 101.247c-1.173-6.33 2.652-10.356 8.584-11.388 3.061-.532 6.575-.902 9.172 1.16 2.666 2.117 3.14 5.581 3.452 8.746.152 1.544-2.26 1.533-2.412 0-.268-2.714-.61-5.523-3.099-7.035-2.217-1.345-5.156-.897-7.607-.333-4.037.931-6.572 3.842-5.764 8.208.281 1.518-2.043 2.17-2.326.642" fill="#12243e"/>
    <path d="M329.227 99.76c-.137-6.66 5.328-10.332 11.463-11.03 7.382-.84 10.648 3.867 11.978 10.448.307 1.517-2.018 2.165-2.326.642-.948-4.692-2.607-8.96-8.289-8.794-5.185.15-10.532 2.953-10.413 8.735.032 1.553-2.38 1.553-2.413 0" fill="#12243e"/>
    <path d="M350.522 99.228c-.303-2.953-.39-6.24 2.045-8.364 2.517-2.199 6.909-2.736 10.075-3.207 8.359-1.244 12.234 4.285 12.425 12.087.038 1.552-2.375 1.551-2.413 0-.079-3.248-.43-7.049-3.52-8.997-2.512-1.583-5.52-.861-8.154-.315-1.503.311-3.073.604-4.525 1.105-3.446 1.19-3.844 4.527-3.521 7.69.158 1.544-2.256 1.532-2.412 0" fill="#12243e"/>
    <path d="M372.346 98.856c2.308-7.093 9.481-9.87 16.656-10.49 7.45-.643 9.22 5.38 9.861 11.674.156 1.543-2.257 1.532-2.413 0-.26-2.563-.558-7.034-3.099-8.595-2.123-1.303-4.899-.588-7.114-.073-4.998 1.159-9.807 2.725-11.565 8.126-.478 1.47-2.808.84-2.326-.642M314.665 91.457l.719-49.937c.022-1.551 2.435-1.555 2.413 0l-.72 49.937c-.021 1.552-2.434 1.556-2.412 0" fill="#12243e"/>
    <path d="M393.617 88.425c1.552 0 1.555 2.412 0 2.412-1.553 0-1.556-2.412 0-2.412" fill="#12243e"/>
    <path d="M393.681 89.917l-.255-48.649c-.008-1.554 2.405-1.555 2.413 0l.255 48.649c.008 1.553-2.405 1.555-2.413 0M388.463 40.114c.41 6.422-.073 12.786-.46 19.195-.346 5.714.472 11.534.078 17.178-.154 2.213-.86 3.814-3.014 4.563-2.674.93-6.856.185-9.689.176-3.316-.009-6.632-.02-9.947-.03-1.552-.005-1.555-2.418 0-2.413l13.926.043c3.633.011 5.56.098 6.252-4.183.325-2.008-.326-4.622-.334-6.698-.03-9.302 1.371-18.519.775-27.83-.1-1.55 2.314-1.545 2.413 0" fill="#12243e"/>
    <path d="M363.574 80c.68-13.292 2.053-26.721-.3-39.917-.27-1.519 2.054-2.17 2.326-.642 2.396 13.432 1.078 27.029.387 40.559-.08 1.546-2.492 1.555-2.413 0M355.968 80.832c-10.885.074-21.77.132-32.654.188-1.554.009-1.555-2.404 0-2.412 10.884-.057 21.77-.115 32.654-.189 1.554-.01 1.555 2.402 0 2.413" fill="#12243e"/>
    <path d="M322.05 79.082c1.226-7.905.244-16.487.156-24.472-.016-1.553 2.397-1.554 2.413 0 .09 8.212 1.02 16.977-.243 25.114-.237 1.529-2.562.879-2.327-.642" fill="#12243e"/>
    <path d="M324.258 52.578c5.292.291 10.488-.644 15.77-.675 5.542-.034 10.991.911 16.538.338 1.543-.16 1.531 2.254 0 2.412-5.55.574-10.994-.37-16.539-.338-5.28.033-10.479.966-15.769.676-1.545-.085-1.555-2.499 0-2.413" fill="#12243e"/>
    <path d="M358.145 53.932c-1.107 3.937-.009 8.074.173 12.07.191 4.232-.027 8.417-.506 12.623-.174 1.525-2.589 1.542-2.413 0 .552-4.85.742-9.691.392-14.565-.265-3.68-.989-7.157.027-10.77.42-1.492 2.748-.858 2.327.642M367.642 49.459a511.366 511.366 0 0 1 19.065-.319c1.553.003 1.556 2.415 0 2.413a511.366 511.366 0 0 0-19.065.319c-1.553.055-1.55-2.358 0-2.413M316.217 100.441a32.97 32.97 0 0 1-3.794-2.913c-.31-.275.147-.73.455-.455a31.7 31.7 0 0 0 3.664 2.812c.344.227.023.785-.325.556M318.41 100.382c-.166-1.11-1.801-1.823-2.495-2.68-.736-.908-1.304-1.915-2.242-2.64-.327-.253.13-.705.455-.455 1.113.86 1.684 2.129 2.655 3.117.783.798 2.065 1.265 2.248 2.487.06.405-.56.58-.62.17M321.984 100.235a129.39 129.39 0 0 1-6.317-6.68c-.273-.31.18-.767.455-.456a129.822 129.822 0 0 0 6.317 6.681c.295.291-.16.746-.455.455M325.311 100.352a40.406 40.406 0 0 1-7.229-8.762c-.217-.354.339-.677.555-.325a39.84 39.84 0 0 0 7.129 8.633c.307.28-.149.733-.455.454M329.628 100.348a104.33 104.33 0 0 0-8.757-9.34c-.303-.284.153-.738.455-.455a104.33 104.33 0 0 1 8.757 9.34c.263.315-.19.773-.455.455M356.592 100.138a22.475 22.475 0 0 1-6.633-6.058c-.244-.335.315-.656.556-.324 1.726 2.37 3.89 4.315 6.401 5.826.355.213.031.77-.324.556M360.64 99.618a61.808 61.808 0 0 1-8.782-7.598c-.286-.298.168-.755.455-.455a60.896 60.896 0 0 0 8.65 7.497c.334.24.014.797-.324.556M365.824 99.939c-3.25-3.143-6.517-6.268-9.8-9.375-.301-.285.154-.74.455-.455 3.283 3.107 6.55 6.232 9.8 9.375.298.289-.157.743-.455.455M370.318 99.65c-1.42-1.934-3.49-3.432-5.15-5.164a66.11 66.11 0 0 1-4.413-5.132c-.25-.323.202-.78.456-.455a65.59 65.59 0 0 0 4.938 5.674c1.557 1.586 3.406 2.957 4.725 4.752.245.335-.313.656-.556.325M373.104 98.15a37.15 37.15 0 0 0-4.529-4.654c-.746-.64-1.575-1.209-2.217-1.958-.551-.642-.902-1.403-1.575-1.94-.324-.259.134-.712.455-.455.523.418.799.887 1.184 1.42.724 1.001 1.679 1.683 2.608 2.478a37.21 37.21 0 0 1 4.528 4.653c.262.318-.191.775-.454.455M340.17 71.028l-2.716-2.263c-.318-.265.14-.718.455-.455.906.754 1.81 1.51 2.714 2.263.318.266-.139.72-.454.455M342.737 71.193l-5.623-4.21c-.328-.246-.008-.805.324-.557 1.874 1.405 3.749 2.808 5.623 4.211.328.245.007.805-.324.556M342.285 68.902a9.09 9.09 0 0 0-2.164-1.36c-.376-.172-.05-.727.325-.557a9.723 9.723 0 0 1 2.294 1.462c.316.268-.141.722-.455.455" fill="#12243e"/>
    <path d="M370.729 50.195a119.738 119.738 0 0 0-5.729-4.51c-.331-.244-.01-.802.324-.556a120.524 120.524 0 0 1 5.86 4.612c.317.266-.14.72-.455.454M373.021 49.837a150.466 150.466 0 0 0-8.019-5.588c-.346-.224-.024-.782.325-.556a151.874 151.874 0 0 1 8.019 5.588c.328.245.007.804-.325.556M377.402 50.044c-1.665-2.03-3.88-3.32-6.05-4.735-2.095-1.367-3.967-2.976-5.823-4.647-.31-.277.147-.731.455-.455 2.185 1.967 4.432 3.735 6.908 5.32 1.835 1.174 3.573 2.364 4.965 4.062.26.317-.192.775-.455.455M382.31 50.215a103.518 103.518 0 0 0-10.8-11.154c-.31-.277.147-.73.455-.455a103.613 103.613 0 0 1 10.8 11.154c.263.316-.19.773-.456.455M386.272 48.817a144.756 144.756 0 0 1-7.771-10.183c-.237-.339.321-.662.555-.324a143.43 143.43 0 0 0 7.671 10.053c.264.315-.189.772-.455.454M386.525 44.669a87.367 87.367 0 0 0-4.388-5.2c-.278-.306.176-.762.455-.455a86.992 86.992 0 0 1 4.388 5.2c.25.322-.201.78-.455.455" fill="#12243e"/>
    <path d="M165.751 251.203h-.315c-.282 0-.3-.4-.062-.461a23.003 23.003 0 0 0-1.687-2.87c-.175-.252-1.149-1.315-.525-1.555.286-.11.408.349.126.457.26-.1.075-.272.254.035.106.183.231.357.35.53.22.322.447.638.653.969.515.83.984 1.648 1.41 2.539.076.158-.014.356-.204.356M167.41 246.546c-.106-2.008-2.118-3.29-2.21-5.368-.015-.306.46-.305.473 0 .092 2.065 2.103 3.322 2.21 5.368.016.305-.458.304-.474 0M169.628 240.61c-.367-1.269-1.52-2.167-1.587-3.537-.016-.305.459-.304.474 0 .062 1.281 1.22 2.205 1.57 3.41.085.294-.372.418-.457.126M173.093 238.02c-.064-.56-.352-1.149-.674-1.584-.412-.558-.673-1.175-.896-1.827-.1-.289.358-.413.456-.126.274.8.613 1.493 1.202 2.106.16.167.099.485.16.7.075.253.195.466.226.732.034.303-.44.3-.474 0M178.618 235.025v1.101c0 .305-.474.305-.474 0 0-.724.1-1.4-.312-2.028-.303-.463-.582-.885-.635-1.446-.028-.304.445-.3.474 0 .063.663.607 1.21.915 1.775.09.165.032.42.032.598M182.89 234.61c-.354-1.271-1.147-2.336-1.872-3.417-.17-.254.24-.491.41-.238.75 1.115 1.554 2.216 1.918 3.529.082.295-.375.42-.457.126M188.248 233.284c-.056-1.12-.946-2.146-1.546-3.039-.17-.253.24-.49.409-.238.657.98 1.549 2.048 1.611 3.277.015.305-.458.304-.474 0M192.738 234.714c-.22-.222-.408-.438-.552-.717-.148-.285-.116-.609-.282-.886-.395-.663-.852-1.24-1.12-1.975-.107-.287.351-.41.456-.126.23.631.606 1.16.977 1.713.105.156.281.365.293.561.031.478.24.77.563 1.095.215.217-.12.552-.335.335M197.87 237.452c-.052.3-.509.172-.457-.126.234-1.328-1.527-2.451-1.894-3.663-.088-.293.37-.418.457-.126.417 1.38 2.172 2.333 1.894 3.915M202.142 239.915c-.137-1.855-1.04-3.32-1.862-4.933-.138-.271.27-.511.409-.238.884 1.732 1.779 3.186 1.927 5.171.022.305-.452.302-.474 0M180.107 263.369c-1.057-1.063-2.062-2.155-2.89-3.407-.375-.568-.646-1.16-.885-1.792-.285-.751-.442-1.875-.96-2.497-.195-.233.138-.57.334-.335.828.994.92 2.56 1.522 3.713.795 1.519 2.017 2.778 3.214 3.983.215.217-.119.552-.335.335M184.451 266.754c-.873-1.163-1.819-2.297-2.557-3.552-.7-1.195-1.38-2.368-2.179-3.503-.788-1.119-1.56-2.237-2.22-3.439a15.582 15.582 0 0 1-.733-1.518c-.152-.365-.2-1.015-.444-1.32-.188-.235.145-.573.335-.335.147.183.194.385.267.61.222.676.471 1.316.793 1.96.611 1.224 1.388 2.351 2.174 3.468a40.87 40.87 0 0 1 2.213 3.483c.786 1.392 1.803 2.631 2.76 3.907.184.244-.228.481-.409.24M186.786 266.721c-.905-.593-1.424-1.369-2-2.267-.86-1.342-1.635-2.737-2.476-4.092a88.44 88.44 0 0 0-2.345-3.59c-.783-1.136-1.723-2.18-2.38-3.397a.239.239 0 0 1 .266-.348c.158.04.316.08.474.118.266.067.19.437-.04.461.513.798 1.145 1.5 1.678 2.288.714 1.055 1.438 2.095 2.104 3.182.738 1.207 1.48 2.41 2.202 3.626.764 1.285 1.475 2.771 2.756 3.61.254.166.017.577-.239.41M188.595 266.162c-.562-1.187-1.415-2.114-2.129-3.198-.855-1.298-1.632-2.647-2.466-3.958-.712-1.119-1.5-2.187-2.272-3.263-.378-.528-.672-1.09-1.053-1.616-.27-.374-.58-1.41-.993-1.614-.274-.136-.034-.544.238-.41.27.133.345.303.468.585.3.685.75 1.246 1.157 1.87.772 1.178 1.603 2.331 2.401 3.503.873 1.283 1.65 2.631 2.47 3.947.837 1.34 1.907 2.477 2.59 3.916.128.274-.28.514-.41.238M190.645 264.198c-.789-.846-1.33-1.87-2.016-2.795-.576-.778-1.258-1.604-1.596-2.52-.106-.287.353-.41.457-.125.335.912 1.121 1.857 1.714 2.618.63.81 1.068 1.728 1.776 2.487.209.223-.125.559-.334.335M192.421 263.369c-1.418-1.47-2.428-3.238-3.589-4.903-.175-.251.235-.487.41-.238 1.137 1.63 2.124 3.365 3.514 4.806.212.22-.123.555-.335.335M195.075 262.932c-1.92-1.369-3.264-3.257-4.584-5.176-.174-.253.236-.49.408-.239 1.272 1.848 2.567 3.686 4.415 5.006.246.176.01.587-.24.41M196.258 261.867c-.279-.17-.436-.365-.622-.631-.443-.635-.98-1.2-1.44-1.823-.382-.515-.88-1-1.22-1.54-.26-.416-.562-.688-.91-1.016-.16-.153-.705-1.106-.474-.83-.194-.232.14-.568.335-.334.66.789 1.243 1.647 1.895 2.456.446.554.86 1.133 1.307 1.688.34.424.895 1.334 1.368 1.62.261.159.023.569-.239.41M196.92 260.172c-1.404-1.42-2.238-3.27-3.351-4.903-.173-.253.238-.49.409-.24 1.089 1.6 1.9 3.417 3.278 4.808.215.217-.12.552-.335.335M183.504 255.15c-.7-1.223-1.62-2.35-1.809-3.79-.039-.301.435-.297.474 0 .174 1.334 1.096 2.419 1.744 3.552.152.266-.258.504-.409.239M184.925 253.73c-.378-.56-.774-1.105-1.098-1.7-.297-.545-.64-1.073-.82-1.672-.089-.293.368-.418.456-.126.186.618.575 1.194.883 1.76.286.525.654 1.005.988 1.499.171.254-.24.49-.409.239M187.33 253.186c-1.115-.999-2.088-2.024-2.429-3.539-.067-.296.39-.423.457-.125.324 1.439 1.248 2.38 2.307 3.329.228.204-.108.538-.335.335M189.461 252.712c-.958-.984-1.669-2.144-2.287-3.364-.137-.27.271-.51.41-.238.598 1.184 1.282 2.311 2.212 3.267.213.22-.122.554-.335.335M190.458 251.598c-.06-.611-.642-1.245-.947-1.763a16.349 16.349 0 0 0-1.351-1.977c-.191-.235.142-.572.335-.335.586.725 1.089 1.503 1.562 2.306.34.58.807 1.08.875 1.769.03.304-.444.3-.474 0M193.132 251.055c-2.22-2.242-4.042-4.788-6.038-7.223-.864-1.056-1.79-2.096-2.494-3.27-.513-.855-1.551-1.63-1.712-2.636-.047-.3.41-.427.457-.126.106.664.567.88.923 1.364.343.465.624.964.92 1.459.77 1.285 1.88 2.423 2.82 3.585 1.79 2.208 3.454 4.486 5.459 6.512.215.217-.12.552-.335.335M194.671 249.752c-.11-.127-.149-.189-.174-.318-.277-.45-.795-.871-1.133-1.221-.568-.589-1.082-1.204-1.606-1.832-.968-1.164-1.935-2.324-2.812-3.558-.773-1.086-1.432-2.177-2.135-3.301-.596-.951-1.43-1.576-1.792-2.662-.097-.291.361-.414.457-.126.366 1.098 1.32 1.871 1.93 2.845.71 1.135 1.41 2.246 2.19 3.343.927 1.305 1.991 2.509 3.01 3.742.746.902 2.007 1.769 2.461 2.858.091.221-.246.401-.396.23M196.15 248.7c-.176-.422-.859-1.097-1.124-1.42-.412-.5-.82-.99-1.216-1.502-.76-.984-1.558-1.938-2.31-2.93-.845-1.114-1.58-2.308-2.396-3.445-.448-.624-.81-1.301-1.3-1.9-.244-.296-.522-.397-.654-.761-.104-.288.354-.411.457-.126.125.344.593.58.805.89.375.549.7 1.133 1.101 1.658.852 1.113 1.563 2.319 2.396 3.446.81 1.095 1.704 2.124 2.527 3.208.657.867 1.754 1.754 2.17 2.757.117.282-.34.404-.457.126M196.623 246.806c-.143-.485-.697-.884-.98-1.28-.416-.584-.841-1.157-1.263-1.735-.811-1.113-1.825-2.06-2.588-3.204-.169-.255.241-.492.409-.239.757 1.136 1.761 2.112 2.589 3.204.581.768 1.106 1.601 1.755 2.313.238.26.434.473.535.815.086.293-.37.418-.457.126M176.731 247.517c-.311-.753-.561-1.526-.833-2.293-.217-.615-.291-1.33-.564-1.914-.128-.274.28-.515.409-.238.249.532.321 1.153.498 1.714.275.876.596 1.757.947 2.605.117.282-.342.404-.457.126M179.16 247.74c-.926-.887-1.447-2.014-2.05-3.127-.485-.896-.988-2.064-1.098-3.08-.033-.303.441-.3.474 0 .103.96.757 2.33 1.208 3.163.53.978.984 1.927 1.801 2.708.221.211-.114.546-.335.335M181.055 246.674c-1.263-1.53-2.508-3.498-3.07-5.44a.215.215 0 0 1-.078-.174v-.12c0-.266.398-.322.465-.061.499 1.91 1.769 3.947 3.018 5.46.193.233-.141.57-.335.335M182.296 245.03c-.089-.382-.38-.578-.568-.891a38.236 38.236 0 0 1-.889-1.548c-.454-.843-1.062-1.58-1.267-2.534-.063-.298.393-.424.457-.126.215 1.006.915 1.856 1.397 2.75.387.719 1.14 1.424 1.327 2.224.07.296-.388.422-.457.125M184.427 244.32c-.08-.25-.468-.688-.604-.939-.22-.403-.519-.77-.792-1.137-.524-.7-.873-1.605-1.303-2.368-.15-.266.26-.504.41-.239.495.88.91 1.844 1.514 2.653.272.364.517.737.734 1.136.163.297.393.441.498.768.094.291-.364.415-.457.125M171.309 265.689c-.141-.258-.393-.434-.593-.644a1.334 1.334 0 0 1-.386-.897c-.012-.305.462-.304.473 0 .022.583.659.833.915 1.302.146.268-.263.507-.41.239M173.677 265.925c-.266-.505-.71-.942-.743-1.54-.016-.305.457-.304.473 0 .026.48.464.893.679 1.302.142.27-.267.51-.41.238M200.175 252.608c-.238-.716-.464-1.433-.482-2.194-.007-.306.466-.305.474 0 .016.717.24 1.393.465 2.068.096.29-.36.414-.457.126M202.804 251.717a8.404 8.404 0 0 1-.97-1.951c-.1-.29.358-.413.456-.126.224.662.538 1.256.923 1.839.17.256-.242.492-.409.238M204.43 250.414c0-.582.041-1.232-.205-1.775-.125-.276.283-.517.41-.24.284.632.268 1.337.268 2.015 0 .305-.474.305-.474 0" fill="#0062ae"/>
    <path d="M191.255 239.287c-.014 1.22-1.91 1.222-1.895 0 .01-.878.138-1.806-.697-2.413-.578-.42-1.548-.315-2.22-.313-1.88.008-2.766 1.186-2.766 2.963 0 1.22-1.894 1.22-1.894 0 0-2.526 1.459-4.84 4.263-4.855 1.355-.007 2.735-.04 3.879.79 1.25.91 1.347 2.417 1.33 3.828M193.586 250.139c-.11.014-.105-.01.247-.058-.031.01-.061.02-.091.028-.052.01-.104.017-.156.03" fill="#0062ae"/>
    <path d="M186.756 257.64c.96.115 2.993-.15 3.438-1.25.008-.214.052-.396.159-.566.073-.204.179-.391.32-.557.535-.801 1.574-1.158 2.462-1.382 1.893-.478 5.849-.216 5.89 2.512.036 2.33-.073 4.247-1.807 6.044-1.78 1.845-5.195 2.413-7.62 2.422-1.222.004-1.222-1.89 0-1.895 2.373-.008 7.36-.903 7.474-4.085.02-.586.162-1.104.103-1.717-.135-1.42-1.48-1.506-2.551-1.506-.31 0-2.385.148-2.436.559a.953.953 0 0 1-.09.384 1.077 1.077 0 0 1-.048.223c-.792 2.376-3.6 2.91-5.824 2.645-.992-.118-2.318-.854-2.773-1.778-.367-.744-.9-2.28-.09-2.972 2.433-2.086 5.68-2.516 8.505-3.856a.952.952 0 0 1 .438-.296c.417-.14.845-.32 1.28-.43.04-.004.096-.015.156-.03.079-.016.158-.037.237-.047l-.146.019a.585.585 0 0 0 .186-.097c.475-.402 1.004-.92 1.643-1.435 1.953-1.576 1.517-4.965-.047-6.544-1.094-1.105-3.092-1.676-4.691-1.755-.558.214-1.326-.066-1.326-.844v-.12c0-.515.43-.946.947-.946 4.399 0 9.07 2.93 8.254 7.829-.56 3.367-2.66 4.963-5.235 5.954a8.888 8.888 0 0 1-1.94.866c-1.905.576-3.797 1.359-5.605 2.184-1.624.74-.944 2.267.737 2.467M178.708 253.063c.109-.014.104.009-.247.058a.846.846 0 0 1 .09-.027c.053-.011.105-.018.157-.031" fill="#0062ae"/>
    <path d="M185.538 245.562c-.961-.114-2.993.149-3.438 1.251a1.082 1.082 0 0 1-.16.565 1.742 1.742 0 0 1-.32.557c-.535.802-1.573 1.158-2.461 1.382-1.893.478-5.85.216-5.891-2.511-.035-2.331.074-4.248 1.808-6.045 1.78-1.845 5.195-2.413 7.62-2.422 1.222-.004 1.222 1.891 0 1.895-2.373.008-7.361.903-7.474 4.085-.021.586-.162 1.104-.104 1.717.136 1.419 1.48 1.506 2.552 1.506.31 0 2.385-.148 2.436-.559a.92.92 0 0 1 .09-.384c.007-.071.022-.145.048-.223.792-2.375 3.598-2.91 5.824-2.645.99.118 2.318.854 2.773 1.778.367.744.899 2.279.09 2.973-2.434 2.085-5.68 2.515-8.505 3.855a.952.952 0 0 1-.438.296c-.417.139-.846.321-1.28.43a1.037 1.037 0 0 0-.156.031c-.08.016-.158.036-.237.046l.146-.019a.585.585 0 0 0-.186.097c-.476.402-1.004.92-1.643 1.435-1.953 1.576-1.518 4.965.046 6.544 1.095 1.106 3.093 1.676 4.692 1.755.558-.214 1.326.066 1.326.844v.119a.956.956 0 0 1-.947.947c-4.4 0-9.071-2.931-8.254-7.829.56-3.367 2.659-4.963 5.235-5.954a8.85 8.85 0 0 1 1.938-.865c1.907-.576 3.799-1.36 5.606-2.185 1.624-.741.944-2.266-.736-2.467" fill="#0062ae"/>
    <path d="M190.723 264.092c-.124 1.233.02 2.438-.951 3.408-1.045 1.045-2.65 1.285-4.052 1.262-1.258-.02-3.131-.215-4.074-1.158-.881-.88-.928-2.47-.928-3.63 0-1.222 1.894-1.222 1.894 0 0 1.89.659 2.808 2.664 2.842.852.014 1.515.062 2.353-.203 1.232-.39 1.095-1.48 1.199-2.52.12-1.205 2.016-1.216 1.895 0" fill="#0062ae"/>
    <path d="M207.626 250.35c-.05-1.058-.557-1.892-.653-2.914-.16-1.698-.294-3.315-.773-4.964-.803-2.777-3.483-5.419-5.918-6.88-2.699-1.619-5.012-3.077-8.17-3.67-2.819-.529-6.412-.687-9.229-.16-2.783.52-5.736 1.675-8.404 2.631-3.249 1.164-6.037 2.91-8.044 5.796-.685.984-.902 2.372-1.393 3.472-.683 1.531-1.039 3.534-1.21 5.191-.325 3.114-.182 5.996.411 9.06.286 1.478.741 2.544 1.562 3.798.883 1.35 1.025 2.752 2.164 4.01 2.276 2.507 4.923 3.354 7.916 4.65 2.64 1.143 5.451 1.034 8.217 1.467a.928.928 0 0 1 .541-.176c2.354 0 4.55-.245 6.876-.465 1.431-.135 2.461-.902 3.765-1.395.606-.229 2.908-1.119 3.342-1.697 1.316-1.755 3.805-2.207 5.091-4.026 1.423-2.01 2.59-3.959 3.338-6.314.82-2.578.697-4.75.571-7.415m1.84 5.996c-.737 2.501-1.44 4.672-2.93 6.796-1.48 2.111-2.405 3.52-4.676 4.92-.324.2-1.386.715-1.599 1-.182.243-.407.644-.695.813-1.31.768-2.843 1.34-4.238 1.965-3.32 1.486-6.485 1.696-10.065 1.715-.196.154-.454.22-.706.2a1.006 1.006 0 0 1-.402.005c-2.902-.54-5.84-.287-8.631-1.496-3.175-1.375-5.818-2.212-8.364-4.668-1.95-1.882-3.112-4.602-4.174-7.059-1.211-2.803-1.406-6.188-1.16-9.193.426-5.17 1.195-12.345 6-15.547 2.5-1.668 4.754-2.763 7.597-3.737 3.08-1.056 6.418-2.328 9.694-2.418 6.215-.173 12.034.945 17.01 4.882 2.055 1.626 3.947 3.47 5.224 5.782 1.47 2.661 1.134 5.8 2.052 8.6.354 1.078.171 2.495.248 3.62.09 1.3.185 2.56-.186 3.82M253.612 262.313c-.997 1.208-2.178 2.345-3.485 3.213-.457.304-1.11.406-1.63.581a15.59 15.59 0 0 1-2.182.55c-1.544.293-3.061.381-4.634.412-.715.014-1.442-.173-2.146-.28-.778-.119-1.57-.219-2.322-.459a25.575 25.575 0 0 1-3.961-1.615c-1.2-.618-2.173-1.827-2.87-2.95a8.374 8.374 0 0 1-1.182-3.263.329.329 0 0 1-.14-.28c0-.297.02-.596-.04-.889-.045-.215-.096-.421-.123-.636a.372.372 0 0 1-.017-.109v-.091c0-.47.71-.467.726 0 .009.256.083.496.136.745.046.222.05.45.048.677.048.055.08.125.089.212.25 2.545 1.946 5.072 4.245 6.16.62.293 1.195.593 1.843.844.55.213 1.118.391 1.679.572 1.21.387 2.768.6 4.035.636 1.368.038 2.827-.053 4.163-.329.546-.113 1.112-.164 1.642-.334.588-.189 1.165-.449 1.76-.6 1.25-.319 2.397-1.689 3.265-2.605 1.036-1.094 1.58-2.192 1.609-3.708.009-.468.734-.469.725 0-.024 1.349-.365 2.494-1.233 3.546" fill="#0062ae"/>
    <path d="M253.612 262.313c-.997 1.208-2.178 2.345-3.485 3.213-.457.304-1.11.406-1.63.581a15.59 15.59 0 0 1-2.182.55c-1.544.293-3.061.381-4.634.412-.715.014-1.442-.173-2.146-.28-.778-.119-1.57-.219-2.322-.459a25.575 25.575 0 0 1-3.961-1.615c-1.2-.618-2.173-1.827-2.87-2.95a8.374 8.374 0 0 1-1.182-3.263.329.329 0 0 1-.14-.28c0-.297.02-.596-.04-.889-.045-.215-.096-.421-.123-.636a.372.372 0 0 1-.017-.109v-.091c0-.47.71-.467.726 0 .009.256.083.496.136.745.046.222.05.45.048.677.048.055.08.125.089.212.25 2.545 1.946 5.072 4.245 6.16.62.293 1.195.593 1.843.844.55.213 1.118.391 1.679.572 1.21.387 2.768.6 4.035.636 1.368.038 2.827-.053 4.163-.329.546-.113 1.112-.164 1.642-.334.588-.189 1.165-.449 1.76-.6 1.25-.319 2.397-1.689 3.265-2.605 1.036-1.094 1.58-2.192 1.609-3.708.009-.468.734-.469.725 0-.024 1.349-.365 2.494-1.233 3.546z" fill="none" stroke="#0062ae" stroke-width="1.302" stroke-miterlimit="10"/>
    <path d="M254.223 259.226c-.164-.534-.098-1.054-.542-1.474-.494-.466-1.152-.59-1.79-.722-1.212-.252-3.29-.388-3.686 1.197-.114.455-.814.262-.7-.192.393-1.573 2.374-2.122 3.805-1.888.881.143 1.855.351 2.604.854.792.532.758 1.217 1.01 2.032.138.45-.563.64-.7.193" fill="#0062ae"/>
    <path d="M254.223 259.226c-.164-.534-.098-1.054-.542-1.474-.494-.466-1.152-.59-1.79-.722-1.212-.252-3.29-.388-3.686 1.197-.114.455-.814.262-.7-.192.393-1.573 2.374-2.122 3.805-1.888.881.143 1.855.351 2.604.854.792.532.758 1.217 1.01 2.032.138.45-.563.64-.7.193z" fill="none" stroke="#0062ae" stroke-width="1.302" stroke-miterlimit="10"/>
    <path d="M229.333 256.77h-1.792c-.52 0-1 .122-1.525.057-1.074-.133-1.04-1.097-1.04-1.95 0-.68-.09-2.037.788-2.267 1.04-.272 2.136-.29 3.207-.29.467 0 .467.727 0 .727-.615 0-1.207.056-1.817.09a6.027 6.027 0 0 0-1.017.126c-.574.13-.435 1.2-.435 1.614 0 .398-.143 1.167.505 1.247.311.039.612-.022.92-.057.724-.082 1.478-.024 2.206-.024.47 0 .47.727 0 .727" fill="#0062ae"/>
    <path d="M229.333 256.77h-1.792c-.52 0-1 .122-1.525.057-1.074-.133-1.04-1.097-1.04-1.95 0-.68-.09-2.037.788-2.267 1.04-.272 2.136-.29 3.207-.29.467 0 .467.727 0 .727-.615 0-1.207.056-1.817.09a6.027 6.027 0 0 0-1.017.126c-.574.13-.435 1.2-.435 1.614 0 .398-.143 1.167.505 1.247.311.039.612-.022.92-.057.724-.082 1.478-.024 2.206-.024.47 0 .47.727 0 .727z" fill="none" stroke="#0062ae" stroke-width="1.302" stroke-miterlimit="10"/>
    <path d="M242.02 255.044c-.033.798-.521 1.78-1.414 1.81-1.389.044-2.831.27-4.209-.007-.459-.092-.265-.792.192-.7.802.16 1.668.077 2.483.077.947 0 2.087.001 2.221-1.18.04-.35.012-.719 0-1.07-.027-.815-.69-.973-1.35-1.018-.999-.069-2.027-.008-3.031 0a.36.36 0 0 1-.237.09h-.272a.366.366 0 0 1-.363-.363c0-.198.165-.363.363-.363h.123a.341.341 0 0 1 .24-.09c1.447 0 2.938-.112 4.37.136 1.045.18.914 1.971.884 2.678" fill="#0062ae"/>
    <path d="M242.02 255.044c-.033.798-.521 1.78-1.414 1.81-1.389.044-2.831.27-4.209-.007-.459-.092-.265-.792.192-.7.802.16 1.668.077 2.483.077.947 0 2.087.001 2.221-1.18.04-.35.012-.719 0-1.07-.027-.815-.69-.973-1.35-1.018-.999-.069-2.027-.008-3.031 0a.36.36 0 0 1-.237.09h-.272a.366.366 0 0 1-.363-.363c0-.198.165-.363.363-.363h.123a.341.341 0 0 1 .24-.09c1.447 0 2.938-.112 4.37.136 1.045.18.914 1.971.884 2.678z" fill="none" stroke="#0062ae" stroke-width="1.302" stroke-miterlimit="10"/>
    <path d="M229.333 250.789h-1.792c-.52 0-1 .123-1.525.058-1.074-.133-1.04-1.097-1.04-1.95 0-.68-.09-2.038.788-2.268 1.04-.272 2.136-.29 3.207-.29.467 0 .467.728 0 .728-.615 0-1.207.055-1.817.09-.35.02-.67.047-1.017.126-.574.13-.435 1.199-.435 1.614 0 .397-.143 1.166.505 1.246.311.039.612-.022.92-.057.724-.082 1.478-.023 2.206-.023.47 0 .47.726 0 .726" fill="#0062ae"/>
    <path d="M229.333 250.789h-1.792c-.52 0-1 .123-1.525.058-1.074-.133-1.04-1.097-1.04-1.95 0-.68-.09-2.038.788-2.268 1.04-.272 2.136-.29 3.207-.29.467 0 .467.728 0 .728-.615 0-1.207.055-1.817.09-.35.02-.67.047-1.017.126-.574.13-.435 1.199-.435 1.614 0 .397-.143 1.166.505 1.246.311.039.612-.022.92-.057.724-.082 1.478-.023 2.206-.023.47 0 .47.726 0 .726z" fill="none" stroke="#0062ae" stroke-width="1.302" stroke-miterlimit="10"/>
    <path d="M242.02 249.064c-.033.797-.521 1.78-1.414 1.809-1.389.045-2.831.269-4.209-.006-.459-.092-.265-.792.192-.701.802.161 1.668.078 2.483.078.947 0 2.087.001 2.221-1.18.04-.351.012-.719 0-1.07-.027-.815-.69-.973-1.35-1.018-.999-.069-2.027-.008-3.031-.001a.36.36 0 0 1-.237.091h-.272a.366.366 0 0 1-.363-.363c0-.198.165-.363.363-.363h.123a.337.337 0 0 1 .24-.091c1.447 0 2.938-.111 4.37.137 1.045.18.914 1.97.884 2.678" fill="#0062ae"/>
    <path d="M242.02 249.064c-.033.797-.521 1.78-1.414 1.809-1.389.045-2.831.269-4.209-.006-.459-.092-.265-.792.192-.701.802.161 1.668.078 2.483.078.947 0 2.087.001 2.221-1.18.04-.351.012-.719 0-1.07-.027-.815-.69-.973-1.35-1.018-.999-.069-2.027-.008-3.031-.001a.36.36 0 0 1-.237.091h-.272a.366.366 0 0 1-.363-.363c0-.198.165-.363.363-.363h.123a.337.337 0 0 1 .24-.091c1.447 0 2.938-.111 4.37.137 1.045.18.914 1.97.884 2.678z" fill="none" stroke="#0062ae" stroke-width="1.302" stroke-miterlimit="10"/>
    <path d="M229.865 250.515c-.057.727-.168 1.432-.168 2.169 0 .468-.726.468-.726 0 0-.802.132-1.565.18-2.36.029-.464.728-.472.728 0v.09c0 .037-.006.07-.014.1" fill="#0062ae"/>
    <path d="M229.865 250.515c-.057.727-.168 1.432-.168 2.169 0 .468-.726.468-.726 0 0-.802.132-1.565.18-2.36.029-.464.728-.472.728 0v.09c0 .037-.006.07-.014.1z" fill="none" stroke="#0062ae" stroke-width="1.302" stroke-miterlimit="10"/>
    <path d="M236.13 252.684v-1.681c0-.166-.07-.33-.09-.498-.056-.464.671-.46.726 0 .014.127.091.232.091.364v1.815c0 .468-.727.468-.727 0" fill="#0062ae"/>
    <path d="M236.13 252.684v-1.681c0-.166-.07-.33-.09-.498-.056-.464.671-.46.726 0 .014.127.091.232.091.364v1.815c0 .468-.727.468-.727 0z" fill="none" stroke="#0062ae" stroke-width="1.302" stroke-miterlimit="10"/>
    <path d="M248.25 258.513c-.135.141-.195.347-.271.522-.115.261-.476.562-.666.776-.46.516-1.39.626-2.005.863-1.272.49-2.917.448-4.245.32-1.237-.119-2.53-.339-3.61-.99-1.067-.644-1.283-2.147-1.283-3.25 0-.518.805-.518.805 0 0 .697.014 1.284.399 1.892.424.672.829.87 1.584 1.138.963.343 2.047.455 3.063.455 1.055 0 2.05-.06 3.073-.34.597-.164 1.452-.434 1.85-.883.237-.266.374-.589.574-.87a.372.372 0 0 1 .38-.32h.068c.356 0 .525.436.284.687" fill="#0062ae"/>
    <path d="M248.25 258.513c-.135.141-.195.347-.271.522-.115.261-.476.562-.666.776-.46.516-1.39.626-2.005.863-1.272.49-2.917.448-4.245.32-1.237-.119-2.53-.339-3.61-.99-1.067-.644-1.283-2.147-1.283-3.25 0-.518.805-.518.805 0 0 .697.014 1.284.399 1.892.424.672.829.87 1.584 1.138.963.343 2.047.455 3.063.455 1.055 0 2.05-.06 3.073-.34.597-.164 1.452-.434 1.85-.883.237-.266.374-.589.574-.87a.372.372 0 0 1 .38-.32h.068c.356 0 .525.436.284.687z" fill="none" stroke="#0062ae" stroke-width="1.302" stroke-miterlimit="10"/>
    <path d="M253.612 240.946c-.997-1.208-2.178-2.345-3.485-3.213-.457-.304-1.11-.406-1.63-.581a15.59 15.59 0 0 0-2.182-.55c-1.544-.292-3.061-.381-4.634-.412-.715-.014-1.442.173-2.146.28-.778.119-1.57.219-2.322.459-1.375.44-2.69.959-3.961 1.615-1.2.618-2.173 1.827-2.87 2.95a8.374 8.374 0 0 0-1.182 3.263.329.329 0 0 0-.14.28c0 .297.02.596-.04.889-.045.215-.096.42-.123.636a.373.373 0 0 0-.017.11v.09c0 .47.71.467.726 0 .009-.256.083-.496.136-.745.046-.222.05-.45.048-.677a.37.37 0 0 0 .089-.212c.25-2.545 1.946-5.072 4.245-6.16.62-.293 1.195-.593 1.843-.844.55-.213 1.118-.391 1.679-.572 1.21-.387 2.768-.6 4.035-.636 1.368-.037 2.827.053 4.163.329.546.113 1.112.164 1.642.334.588.189 1.165.449 1.76.6 1.25.319 2.397 1.689 3.265 2.606 1.036 1.093 1.58 2.19 1.609 3.707.009.468.734.469.725 0-.024-1.35-.365-2.493-1.233-3.546" fill="#0062ae"/>
    <path d="M253.612 240.946c-.997-1.208-2.178-2.345-3.485-3.213-.457-.304-1.11-.406-1.63-.581a15.59 15.59 0 0 0-2.182-.55c-1.544-.292-3.061-.381-4.634-.412-.715-.014-1.442.173-2.146.28-.778.119-1.57.219-2.322.459-1.375.44-2.69.959-3.961 1.615-1.2.618-2.173 1.827-2.87 2.95a8.374 8.374 0 0 0-1.182 3.263.329.329 0 0 0-.14.28c0 .297.02.596-.04.889-.045.215-.096.42-.123.636a.373.373 0 0 0-.017.11v.09c0 .47.71.467.726 0 .009-.256.083-.496.136-.745.046-.222.05-.45.048-.677a.37.37 0 0 0 .089-.212c.25-2.545 1.946-5.072 4.245-6.16.62-.293 1.195-.593 1.843-.844.55-.213 1.118-.391 1.679-.572 1.21-.387 2.768-.6 4.035-.636 1.368-.037 2.827.053 4.163.329.546.113 1.112.164 1.642.334.588.189 1.165.449 1.76.6 1.25.319 2.397 1.689 3.265 2.606 1.036 1.093 1.58 2.19 1.609 3.707.009.468.734.469.725 0-.024-1.35-.365-2.493-1.233-3.546z" fill="none" stroke="#0062ae" stroke-width="1.302" stroke-miterlimit="10"/>
    <path d="M254.223 244.033c-.164.534-.098 1.054-.542 1.474-.494.466-1.152.59-1.79.723-1.212.25-3.29.387-3.686-1.198-.114-.455-.814-.262-.7.192.393 1.573 2.374 2.122 3.805 1.889.881-.144 1.855-.352 2.604-.855.792-.532.758-1.217 1.01-2.032.138-.45-.563-.64-.7-.193" fill="#0062ae"/>
    <path d="M254.223 244.033c-.164.534-.098 1.054-.542 1.474-.494.466-1.152.59-1.79.723-1.212.25-3.29.387-3.686-1.198-.114-.455-.814-.262-.7.192.393 1.573 2.374 2.122 3.805 1.889.881-.144 1.855-.352 2.604-.855.792-.532.758-1.217 1.01-2.032.138-.45-.563-.64-.7-.193z" fill="none" stroke="#0062ae" stroke-width="1.302" stroke-miterlimit="10"/>
    <path d="M248.25 244.746c-.135-.141-.195-.347-.271-.521-.115-.261-.476-.562-.666-.777-.46-.516-1.39-.626-2.005-.863-1.272-.49-2.917-.447-4.245-.32-1.237.119-2.53.339-3.61.99-1.067.644-1.283 2.147-1.283 3.25 0 .519.805.519.805 0 0-.697.014-1.284.399-1.892.424-.672.829-.87 1.584-1.138.963-.343 2.047-.455 3.063-.455 1.055 0 2.05.06 3.073.34.597.164 1.452.434 1.85.883.237.266.374.589.574.87.03.17.158.32.38.32h.068c.356 0 .525-.436.284-.687" fill="#0062ae"/>
    <path d="M248.25 244.746c-.135-.141-.195-.347-.271-.521-.115-.261-.476-.562-.666-.777-.46-.516-1.39-.626-2.005-.863-1.272-.49-2.917-.447-4.245-.32-1.237.119-2.53.339-3.61.99-1.067.644-1.283 2.147-1.283 3.25 0 .519.805.519.805 0 0-.697.014-1.284.399-1.892.424-.672.829-.87 1.584-1.138.963-.343 2.047-.455 3.063-.455 1.055 0 2.05.06 3.073.34.597.164 1.452.434 1.85.883.237.266.374.589.574.87.03.17.158.32.38.32h.068c.356 0 .525-.436.284-.687z" fill="none" stroke="#0062ae" stroke-width="1.302" stroke-miterlimit="10"/>
    <path d="M234.706 263.901c-2.518-3.345-4.478-7.367-7.4-10.362-.235-.24.133-.609.368-.368 2.963 3.035 4.933 7.081 7.482 10.467.2.268-.251.528-.45.263M239.295 266.022c-3.323-4.358-6.495-8.821-9.799-13.18-.202-.267.25-.527.45-.263 1.318 1.739 2.776 3.336 4.035 5.186a183.115 183.115 0 0 0 5.763 7.994c.203.267-.249.527-.449.263M241.486 265.972c-2.68-1.61-4.107-5.541-5.61-8.146-2.33-4.042-5.918-7.118-8.91-10.665-.213-.254.153-.625.37-.368 2.342 2.779 5.193 5.234 7.348 8.15 2.232 3.019 3.747 8.586 7.065 10.579.287.173.026.623-.263.45M243.99 265.938c-1.075-1.903-2.48-3.585-3.822-5.302-.204-.261.162-.633.368-.368 1.368 1.75 2.808 3.467 3.904 5.407.165.292-.285.555-.45.263M246.979 265.156c-.31-.682-1.09-1.337-1.602-1.888a45.473 45.473 0 0 0-1.785-1.81c-.242-.233.126-.6.368-.368.679.653 1.34 1.323 1.977 2.017.488.532 1.19 1.123 1.492 1.786.138.303-.311.568-.45.263M249.036 264.335a16.894 16.894 0 0 0-2.657-3.715c-.23-.243.137-.613.368-.368 1.085 1.15 2 2.423 2.738 3.82.157.296-.293.56-.45.263M251.54 262.962c-.427-1.286-1.407-1.716-2.344-2.556-.706-.632-1.222-1.436-1.701-2.245-.171-.29.279-.552.45-.263.73 1.235 1.529 2.057 2.672 2.913.7.525 1.152 1.186 1.425 2.012.106.32-.397.456-.502.139M252.605 261.769c-.721-.852-1.441-1.705-2.209-2.516-.656-.693-1.361-1.332-1.935-2.1-.201-.267.251-.527.45-.261.611.816 1.39 1.49 2.082 2.237.682.737 1.331 1.505 1.98 2.272.215.254-.151.624-.368.368M253.42 260.039l-2.045-2.3c-.222-.25.146-.62.368-.368l2.045 2.3c.222.25-.145.619-.368.368M237.745 256.046c-1.608-1.12-2.714-2.918-4-4.38-1.515-1.72-3.097-3.38-4.677-5.039-.231-.243.137-.612.368-.369 1.422 1.494 2.846 2.987 4.22 4.526 1.397 1.562 2.627 3.61 4.352 4.812.273.19.012.642-.263.45M240.31 256.274c-2.472-5.016-6.092-8.66-10.017-12.548-.238-.237.13-.605.37-.37 3.981 3.948 7.591 7.57 10.097 12.655.148.3-.302.564-.45.263M240.479 250.125a68.48 68.48 0 0 1-8.578-8.442c-.216-.254.15-.624.368-.368a68.49 68.49 0 0 0 8.579 8.442c.259.213-.112.58-.369.368M237.934 243.716c-1.564-1.114-3.235-2.37-4.209-4.06-.168-.29.282-.552.45-.262.924 1.603 2.538 2.816 4.022 3.872.27.193.01.645-.263.45M239.443 242.472c-.333-.613-.904-1.099-1.264-1.714-.398-.682-.751-1.393-1.121-2.09-.157-.297.292-.56.449-.264.372.697.724 1.41 1.123 2.091.36.62.925 1.093 1.262 1.714.16.295-.29.558-.45.263M241.454 242.063c-.69-1.722-1.698-3.56-1.941-5.413-.044-.331.477-.328.52 0 .236 1.796 1.253 3.603 1.923 5.275.125.311-.38.446-.502.138M245.418 242.811c-.367-.458-.639-.978-1.003-1.437-.42-.529-.96-.922-1.453-1.378-.92-.849-1.69-1.827-2.347-2.89-.177-.284.273-.546.45-.261a13.486 13.486 0 0 0 2.538 3.029c.917.81 1.427 1.626 2.183 2.569.207.26-.159.63-.368.368M250.489 246.278c-1.012-3.4-3.316-6.022-5.66-8.593-.226-.247.14-.617.368-.368 2.403 2.635 4.758 5.339 5.794 8.822.096.323-.406.46-.502.139M253.199 246.059c-.51-1.62-1.495-2.673-2.332-4.096-.668-1.135-.985-2.4-1.98-3.324-.245-.228.125-.596.37-.368 1.025.955 1.367 2.25 2.06 3.429.853 1.449 1.87 2.584 2.384 4.22.1.32-.401.458-.502.139M227.07 264.471l-.427-.334c-.263-.206.107-.572.368-.368l.428.334c.264.206-.107.572-.368.368M227.523 263.031a7.017 7.017 0 0 1-3.094-1.256c-.27-.194-.01-.646.263-.45a6.689 6.689 0 0 0 2.97 1.204c.33.05.189.551-.14.502M220.703 247.508a12.208 12.208 0 0 1-1.375-2.202c-.146-.3.304-.565.449-.263.36.743.786 1.445 1.294 2.096.203.262-.162.633-.368.37M221.856 245.07a22.966 22.966 0 0 1-1.901-3.626c-.129-.309.375-.444.502-.139a22.178 22.178 0 0 0 1.849 3.502c.182.283-.268.544-.45.263M223.99 240.949a3.15 3.15 0 0 1-1.408-2.007c-.071-.327.43-.467.502-.14a2.628 2.628 0 0 0 1.169 1.697c.28.18.02.632-.263.45M227.228 238.049a4.52 4.52 0 0 1-.521-1.672c-.04-.333.482-.33.52 0 .059.502.211.965.451 1.409.159.295-.29.558-.45.263M230.66 236.137l-1.843-1.738c-.244-.231.125-.598.368-.368l1.844 1.737c.244.23-.125.599-.37.369M236.364 233.888a9.764 9.764 0 0 1-2.464-1.641c-.248-.226.12-.593.369-.368a9.294 9.294 0 0 0 2.359 1.559c.303.14.039.59-.264.45M242.418 233.482l-2.255-1.746c-.549-.425-1.203-.792-1.445-1.473-.112-.317.39-.453.503-.14.234.66 1.218 1.17 1.74 1.578l1.826 1.413c.265.205-.106.57-.368.368M246.448 232.94l-.854-1.635c-.155-.297.294-.56.45-.263l.854 1.635c.154.297-.295.56-.45.263M256.903 254.055l-.967-1.094c-.221-.25.146-.62.368-.368l.967 1.094c.222.25-.145.62-.368.368M260.231 253.321l-.435-.326c-.264-.198-.004-.65.264-.449l.434.325c.264.2.006.651-.263.45" fill="#0062ae"/>
    <path d="M259.197 252.742a13.347 13.347 0 0 1-2.012-2.324c-.19-.278.262-.539.45-.263a12.79 12.79 0 0 0 1.93 2.22c.247.225-.122.593-.368.367" fill="#0062ae"/>
    <path d="M263.395 250.35c-.05-1.058-.557-1.892-.653-2.914-.161-1.698-.294-3.315-.773-4.964-.804-2.777-3.483-5.419-5.919-6.88-2.699-1.619-5.011-3.077-8.169-3.67-2.819-.529-6.412-.687-9.229-.16-2.783.52-5.736 1.675-8.404 2.631-3.249 1.164-6.037 2.91-8.044 5.796-.685.984-.903 2.372-1.393 3.472-.683 1.531-1.039 3.534-1.211 5.191-.324 3.114-.181 5.996.412 9.06.285 1.478.741 2.544 1.562 3.798.883 1.35 1.025 2.752 2.165 4.01 2.275 2.507 4.923 3.354 7.915 4.65 2.64 1.143 5.451 1.034 8.217 1.467a.928.928 0 0 1 .541-.176c2.354 0 4.55-.245 6.876-.465 1.431-.135 2.461-.902 3.765-1.395.606-.229 2.908-1.119 3.341-1.697 1.316-1.755 3.806-2.207 5.092-4.026 1.423-2.01 2.589-3.959 3.338-6.314.819-2.578.697-4.75.571-7.415m1.839 5.996c-.736 2.501-1.441 4.672-2.929 6.796-1.479 2.111-2.405 3.52-4.676 4.92-.325.2-1.385.715-1.599 1-.183.243-.407.644-.695.813-1.31.768-2.842 1.34-4.238 1.965-3.319 1.486-6.485 1.696-10.065 1.715-.196.154-.454.22-.705.2a1.011 1.011 0 0 1-.404.005c-2.901-.54-5.84-.287-8.631-1.496-3.174-1.375-5.818-2.212-8.364-4.668-1.95-1.882-3.112-4.602-4.174-7.059-1.211-2.803-1.407-6.188-1.16-9.193.426-5.17 1.195-12.345 5.999-15.547 2.502-1.668 4.755-2.763 7.598-3.737 3.08-1.056 6.418-2.328 9.694-2.418 6.215-.173 12.033.945 17.01 4.882 2.056 1.626 3.947 3.47 5.226 5.782 1.468 2.661 1.133 5.8 2.051 8.6.354 1.078.171 2.495.247 3.62.09 1.3.186 2.56-.185 3.82M189.172 90.63c-.82-.187-1.359-1.07-1.816-1.714-1.039-1.462-2.235-2.89-3.374-4.271-1.003-1.216-1.974-2.415-2.842-3.736-.785-1.192-1.714-2.54-1.853-3.992-.033-.346.506-.343.538 0 .127 1.323 1.078 2.619 1.78 3.72.818 1.286 1.768 2.472 2.757 3.627.935 1.092 1.765 2.272 2.663 3.392.571.712 1.364 2.244 2.29 2.455.338.079.194.597-.143.52M194.31 89.706c-1.38-.634-2.328-2.22-3.335-3.313-1.345-1.457-2.508-3.039-3.612-4.684-1.269-1.892-2.496-3.774-3.9-5.572-1.139-1.456-2.128-2.998-3.242-4.467-.21-.276.257-.544.464-.27 1.088 1.43 2.041 2.941 3.157 4.357a54.903 54.903 0 0 1 3.196 4.47c1.132 1.772 2.328 3.501 3.69 5.105.594.7 1.243 1.361 1.857 2.046.602.67 1.168 1.482 1.996 1.863.315.145.042.61-.27.465M200.894 89.844c-1.557-1.557-3.165-3.101-4.52-4.841-1.237-1.592-2.188-3.394-3.228-5.117-1.205-1.997-3.021-3.57-4.186-5.561-.551-.941-1.005-1.943-1.638-2.834-.502-.707-.847-2.127-1.622-2.594-.297-.18-.027-.645.27-.465.33.199.65.665.816.994.446.888.986 1.692 1.485 2.547.65 1.11 1.185 2.23 2.016 3.228.783.94 1.623 1.853 2.325 2.856 1.322 1.89 2.355 3.968 3.65 5.878 1.39 2.052 3.267 3.783 5.012 5.528.245.246-.135.626-.38.38M207.71 90.202c-3.193-3.208-6.197-6.594-8.872-10.249a85.913 85.913 0 0 1-3.95-5.939 69.67 69.67 0 0 1-1.75-3.062c-.55-1.01-.723-2.02-1.699-2.773-.27-.208-.003-.676.272-.464 1.351 1.04 1.804 2.834 2.616 4.278 1.258 2.237 2.677 4.373 4.127 6.49 2.805 4.097 6.138 7.824 9.636 11.34.245.244-.135.625-.38.38M214.126 90.147c-.597-.883-1.455-1.63-2.11-2.479a103.499 103.499 0 0 0-2.387-2.99c-1.867-2.237-3.754-4.456-5.568-6.737-1.54-1.936-2.857-4.066-4.062-6.223-.456-.815-.894-1.65-1.256-2.512-.048-.112-.138-.373-.256-.682.198.02.395.036.593.048.068.192.13.363.181.491 1.074 2.6 2.72 5.015 4.297 7.327 1.81 2.652 4.063 5.058 6.124 7.516.848 1.012 1.694 2.023 2.487 3.08.75 1 1.726 1.86 2.422 2.89.195.288-.272.557-.465.271M218.79 89.251c-2.343-3.467-4.36-7.139-6.686-10.617-2.046-3.059-4.742-5.522-6.078-9.001-.125-.324.396-.464.52-.144 1.36 3.545 4.21 6.163 6.299 9.284 2.233 3.342 4.16 6.876 6.41 10.207.195.288-.271.556-.464.271M227.624 99.531c-1.254-.982-2.02-2.396-2.886-3.703-.59-.889-1.331-1.69-1.972-2.544-.52-.693-1.264-1.276-1.643-2.06-.15-.31.314-.585.465-.27.315.651.944 1.061 1.353 1.657.619.901 1.329 1.741 2.013 2.592 1.057 1.315 1.688 2.88 3.05 3.947.273.214-.11.592-.38.381M232.039 97.618c-.111-.455-.452-.802-.69-1.19-.422-.69-.807-1.403-1.228-2.094-.806-1.326-1.707-2.602-2.562-3.897-1.744-2.642-3.515-5.265-5.248-7.915-1.556-2.38-2.817-4.932-4.47-7.258-.786-1.105-1.502-2.239-2.281-3.353-.598-.854-1.416-1.669-1.82-2.638-.132-.32.388-.459.52-.142.427 1.027 1.388 1.972 2.026 2.883.775 1.11 1.497 2.245 2.28 3.346 1.667 2.344 2.93 4.935 4.502 7.337 1.73 2.648 3.504 5.27 5.247 7.91.849 1.286 1.726 2.557 2.526 3.873.535.882 1.469 1.987 1.718 2.995.082.336-.438.48-.52.143M235.654 91.941c-2.711-3.614-5.051-7.525-7.592-11.268-1.36-2.005-2.772-3.968-4.197-5.928-1.287-1.77-2.433-3.595-3.64-5.408-.192-.289.274-.558.466-.27 1.109 1.666 2.147 3.355 3.33 4.984 1.429 1.963 2.855 3.923 4.22 5.93 2.642 3.88 5.065 7.94 7.878 11.69.208.277-.26.544-.465.27M240.001 88.05c-1.682-1.69-2.837-3.837-4.234-5.758-1.66-2.284-3.005-4.814-4.52-7.196-1.508-2.37-3.024-4.811-4.88-6.92-1.634-1.855-2.883-3.804-3.988-6.014-.155-.308.31-.582.465-.27a28.531 28.531 0 0 0 4.203 6.244c1.573 1.786 2.803 3.86 4.114 5.839 1.478 2.23 2.82 4.549 4.244 6.813.715 1.139 1.535 2.206 2.295 3.316.85 1.24 1.617 2.495 2.682 3.565.244.246-.136.627-.38.38M244.665 84.103c-1.774-2.295-3.262-4.785-4.89-7.184-1.846-2.72-3.78-5.385-5.63-8.105-.804-1.183-1.555-2.406-2.371-3.58-.423-.61-.838-.954-1.151-1.627a10.548 10.548 0 0 0-1.09-1.858c-.943-1.299-2.063-2.474-3-3.772-.684-.947-1.835-2.068-2.03-3.233-.055-.34.464-.486.52-.145.1.606.675 1.218 1.022 1.71.463.662.872 1.342 1.42 1.94.92 1 1.727 2.134 2.534 3.228.754 1.023 1.21 2.154 1.987 3.158.952 1.233 1.746 2.615 2.625 3.907 1.675 2.464 3.355 4.924 5.095 7.342 1.849 2.567 3.402 5.332 5.34 7.838.21.272-.17.656-.381.382" fill="#0062ae"/>
    <path d="M187.212 66.457c.434 0 .833.02 1.222.058 1.096.111 4.492.167 10.096.167 4.055 0 15.892-.03 18.849-.049 1.629-.012 2.867-.019 3.474-.019.757 0 1.153.593 1.153 1.18 0 .586-.396 1.18-1.153 1.18h-30.33c-.674 0-1.357-.032-2.018-.061a43.948 43.948 0 0 0-1.987-.061c-1.115 0-2.017.09-2.842.283a13.65 13.65 0 0 1-.888.168c-1.377.231-2.565.43-2.703 1.887-.067.716-.156 1.419-.244 2.119-.181 1.448-.352 2.803-.351 4.244 0 .61.129 1.203.264 1.831.09.418.184.846.238 1.285.13 1.052.147 2.153.147 3.187 0 .95.188 2.097.353 2.991.28 1.536.87 2.122 2.255 2.238 1.42.118 4.525.178 9.225.178 4.772 0 17.626-.059 22.032-.107l.474-.005c2.558-.027 4.632-.049 5.772-.049.757 0 1.154.593 1.154 1.18 0 .586-.397 1.18-1.154 1.18h-32.274c-.53 0-1.12.035-1.746.073a35.94 35.94 0 0 1-2.21.091c-1.475 0-2.56-.191-3.408-.606-1.978-.96-2.322-3.022-2.598-4.679a18.628 18.628 0 0 1-.235-3.087c0-.991-.152-1.922-.314-2.907a34.397 34.397 0 0 1-.222-1.475c-.266-2.162-.128-4.614.424-7.496.419-2.196 1.358-3.38 3.35-4.221.709-.3 1.817-.389 2.625-.455l.935-.082c.857-.079 1.744-.161 2.635-.161" fill="#0062ae"/>
    <path d="M247.939 77.503c.473 0 .926.266 1.128.66.181.352.141.752-.108 1.099-.759 1.055-1.497 2.17-2.147 3.153-1.432 2.162-2.909 4.394-4.761 6.383l-.205.219c-1.445 1.55-2.928 3.144-4.288 4.784-.378.454-.76.955-1.164 1.484-1.072 1.405-2.18 2.858-3.465 3.822-2.1 1.576-4.912 2.516-7.521 2.516-1.324 0-2.538-.241-3.608-.716-3.067-1.363-2.714-5.502-2.456-8.523.067-.787.127-1.511.127-2.102 0-.758.594-1.154 1.181-1.154.586 0 1.18.396 1.18 1.154 0 .617-.059 1.319-.121 2.06-.254 3.05-.543 6.507 2.789 6.794a10.87 10.87 0 0 0 5.822-1.132c1.251-.625 2.143-1.775 3.008-2.887.248-.318.488-.628.734-.926 1.446-1.743 3.003-3.434 4.506-5.07.913-.991 1.816-1.972 2.701-2.97 1.386-1.562 2.53-3.345 3.639-5.07.651-1.014 1.325-2.062 2.05-3.07.235-.328.583-.508.979-.508" fill="#0062ae"/>
    <path d="M227.737 53.623c2.49 0 4.842 1.181 6.622 3.322 1.012 1.216 1.929 2.508 2.816 3.758.383.54.756 1.066 1.14 1.592.227.31.448.629.67.947.609.869 1.233 1.76 1.959 2.507.386.396.663.715.899 1.032.133.18.308.526.476.861.086.172.266.531.313.585.543.542.973 1.117 1.452 1.81.653.945 1.345 1.783 2.077 2.671l.248.302c.177.215.353.423.528.627l.065.075c1.115 1.304 2.169 2.536 2.337 4.49.028.326-.063.613-.262.83a1.147 1.147 0 0 1-.85.351c-.571 0-1.183-.384-1.246-1.115-.124-1.454-1.334-2.712-2.401-3.823-.216-.226-.406-.423-.582-.615-.557-.605-1.016-1.272-1.46-1.917-.504-.731-.981-1.424-1.586-2.028-.501-.501-.884-1.091-1.255-1.662-.361-.556-.734-1.129-1.206-1.604-.865-.867-1.588-1.987-2.287-3.071-.458-.71-.891-1.38-1.36-1.983-.265-.342-.473-.732-.674-1.107-.142-.263-.274-.51-.422-.737-.314-.485-.786-.952-1.243-1.402a19.092 19.092 0 0 1-.665-.68 5.308 5.308 0 0 0-3.898-1.708 5.403 5.403 0 0 0-2.87.827c-.16.101-.314.194-.463.284-.758.457-1.353.817-1.872 1.657-.167.27-.326.997-.432 1.479-.041.188-.078.36-.112.493-.393 1.546-.31 3.312-.227 5.021.032.668.062 1.286.066 1.899.003.32-.107.601-.316.813a1.21 1.21 0 0 1-.858.342c-.585 0-1.18-.395-1.184-1.151a68.261 68.261 0 0 0-.041-1.681c-.12-3.679-.266-8.247 3.045-10.591 1.572-1.112 3.32-1.7 5.059-1.7" fill="#0062ae"/>
    <text style="-inkscape-font-specification:Circe" transform="matrix(1 0 0 -1 0 189.768)" font-weight="700" font-size="16" font-family="Circe" fill="#12243e">
      <tspan y="0" x="0 10.032 19.024 30.672001 38.688 47.312 55.568001 63.807999 67.199997 76 84.991997 93.152 101.2 110 117.408 124.304 132.32001 140.944 286.19199 296.224 305.216 316.86401 324.88 333.504 341.76001 350 353.392 362.19199 371.12 379.87201 388.76801 396.17599 404.20801 413.26401">  </tspan><tspan y="183.008" x="38.751999 50.784 59.712002 68.463997 77.360001 84.767998 92.800003 101.056 311.20001 323.23199 332.224 340.384 348.43201 357.23199 364.64001 371.53601 379.552 388.17599"></tspan>
    </text>
  </g>
</svg>
