<svg xmlns="http://www.w3.org/2000/svg" viewBox="0 0 462.743 198.052">
  <defs>
    <clipPath id="a_1_1">
      <path d="M0 148.539h347.057V0H0z"/>
    </clipPath>
  </defs>
  <g clip-path="url(#a_1_1)" transform="matrix(1.33333 0 0 -1.33333 0 198.052)">
    <path d="M4.43 70.635c-.088-.588-.718-1.219-1.116-1.628-.486-.499-.939-1.034-1.27-1.649-.172-.316.31-.597.48-.28.413.762 1.02 1.376 1.63 1.986.324.326.745.96.814 1.424.052.351-.485.501-.538.147M5.016 64.943c-.983-1.394-2.187-2.553-2.973-4.087-.163-.318.318-.6.48-.28.784 1.527 1.994 2.696 2.974 4.087.208.294-.276.57-.481.28M4.688 57.198c-.462-.588-1.016-1.076-1.565-1.578-.603-.551-1.002-1.333-1.452-2.008-.199-.301.284-.58.481-.281.422.633.807 1.373 1.364 1.894.545.51 1.102.989 1.565 1.578.22.28-.172.677-.394.395M4.559 51.483c-.567-.428-.917-1.006-1.29-1.6-.467-.747-1-1.426-1.254-2.283-.102-.345.435-.491.538-.148.199.67.58 1.234.97 1.805.406.598.728 1.3 1.317 1.745.283.212.006.697-.281.481M4.234 44.926c-.057-.712-.593-1.113-.909-1.699-.264-.493-.43-1.027-.725-1.505-.189-.306.293-.586.481-.28.376.61.53 1.421 1.025 1.948.4.428.64.955.685 1.536.03.358-.529.355-.557 0M6.731 39.55c-.594-.46-.943-1.106-1.344-1.729-.634-.98-1.143-2.116-1.673-3.158-.162-.32.32-.6.482-.28.43.845.891 1.671 1.337 2.508.43.805.856 1.694 1.592 2.264.283.22-.114.613-.394.395M10.003 34.783c-.535-1.674-2.254-2.753-2.786-4.46-.108-.343.43-.488.537-.146.53 1.699 2.247 2.769 2.787 4.458.109.343-.428.489-.538.148M16.39 33.79c-1.35-1.382-2.69-2.872-3.23-4.766-.097-.346.44-.493.539-.148.509 1.787 1.812 3.216 3.086 4.52.252.258-.143.653-.394.395M22.106 33.548c-.76-1.447-1.666-2.816-2.415-4.272-.164-.32.317-.6.48-.282.75 1.457 1.656 2.826 2.416 4.274.167.317-.314.598-.481.28M27.64 33.223c-.057-.52-.55-1.068-.826-1.503-.324-.513-.707-.976-.992-1.516-.168-.316.313-.598.48-.28.348.655.83 1.222 1.205 1.862.282.482.627.858.692 1.437.039.356-.518.353-.558 0M34.524 33.11c-.052-.176-.445-.67-.578-.861-.17-.25-.357-.48-.508-.743-.412-.717-.746-1.491-1.115-2.23-.16-.32.321-.602.481-.281.402.804.774 1.635 1.221 2.415.306.534.86.958 1.037 1.553.102.344-.436.492-.538.148M42.41 33.687c-.774-.086-1.244-.63-1.59-1.29-.535-1.022-1.342-1.877-1.809-2.935-.144-.326.336-.609.481-.28.342.773.866 1.423 1.353 2.11.438.617.668 1.738 1.564 1.837.353.04.357.597 0 .558M47.228 33.42c-.871-.899-1.564-2.002-2.273-3.03-.205-.296.279-.575.481-.28.68.986 1.354 2.056 2.186 2.916.25.257-.144.652-.394.393M53.129 33.177c-.248-.46-.648-.793-.942-1.222-.391-.57-.782-1.135-1.101-1.75-.167-.319.314-.6.48-.28.29.557.637 1.075.994 1.592.33.48.773.862 1.05 1.38.17.315-.311.596-.481.28M59.602 34.225c-.25-.598-.858-.93-1.237-1.437-.466-.618-.938-1.228-1.478-1.784-.25-.258.145-.652.396-.394.572.59 1.069 1.242 1.563 1.898.429.57 1.009.888 1.295 1.57.138.331-.401.473-.538.147M66.27 34.225c-.063.354-.6.203-.537-.148.095-.526-.716-1.083-1.044-1.4-.23-.225-.383-.663-.565-.937a7.925 7.925 0 0 0-.92-1.107c-.25-.258.143-.652.394-.394.308.32.59.655.856 1.008.336.444.55.961.956 1.345.456.432.983.955.86 1.633M69.82 34.225c-.414-1.146-1.22-2.097-1.973-3.034-.222-.279.17-.675.394-.395.817 1.018 1.667 2.038 2.116 3.281.122.34-.417.483-.538.148M75.05 35.035c-.45-.645-.708-1.377-1.116-2.043-.425-.694-.924-1.313-1.3-2.044-.164-.32.317-.6.481-.28.372.723.815 1.389 1.301 2.043.46.618.668 1.405 1.114 2.044.206.295-.277.573-.48.28M37.524 74.046a76.329 76.329 0 0 1-3.065-4.285c-1.112-1.667-1.919-3.44-2.879-5.19-.174-.314.308-.594.481-.28.877 1.597 1.606 3.232 2.601 4.765a71.076 71.076 0 0 0 3.343 4.71c.22.283-.265.56-.48.28M42.15 74.174c-.696-.164-1.106-.87-1.456-1.439-.75-1.224-1.926-2.276-2.812-3.42-1.869-2.42-3.696-4.929-4.844-7.783-.134-.334.404-.477.537-.148 1.005 2.498 2.57 4.7 4.177 6.841.896 1.193 1.816 2.36 2.832 3.452.513.552.945 1.778 1.713 1.96.35.082.202.62-.148.537M45.742 73.917c-2.36-2.042-4.24-4.643-6.244-7.02-2.002-2.371-3.608-4.723-4.945-7.526-.155-.323.326-.605.48-.281 1.394 2.919 3.094 5.323 5.183 7.798 1.9 2.252 3.683 4.699 5.92 6.634.272.237-.123.628-.394.395M48.342 72.43c-2.407-3.058-4.284-6.52-7.182-9.165-2.75-2.51-5.249-5.314-6.794-8.725-.147-.324.333-.608.481-.28 1.525 3.365 4 6.122 6.707 8.61 2.894 2.662 4.77 6.104 7.182 9.166.22.28-.172.676-.394.394M50.9 70.702c-2.363-3.64-5.366-6.68-8.443-9.727-1.421-1.407-2.898-2.74-4.172-4.287-1.046-1.27-2.198-2.845-2.647-4.443-.096-.347.44-.493.538-.148.536 1.913 2.116 3.812 3.42 5.26 1.233 1.37 2.627 2.593 3.929 3.895 2.88 2.88 5.635 5.749 7.856 9.17.196.3-.286.58-.481.28M53.286 68.592c-.438-1.699-2.35-3.396-3.547-4.617-1.596-1.63-3.1-3.325-4.74-4.924-1.802-1.756-3.487-3.657-5.22-5.48-1.493-1.576-2.996-3.103-4.113-4.976-.184-.309.298-.589.481-.28 1.272 2.131 3.073 3.861 4.775 5.647 1.726 1.812 3.41 3.677 5.211 5.413 1.611 1.554 3.041 3.251 4.615 4.828 1.132 1.133 2.665 2.652 3.076 4.241.09.348-.448.496-.538.148M54.101 64.814c-3.48-2.734-6.086-6.581-9.013-9.863-1.582-1.774-3.362-3.357-5.113-4.957-1.408-1.288-3.185-2.551-3.779-4.437-.086-.27.273-.464.466-.27l.186.185a.253.253 0 0 1 .033.332c.833 1.933 3.128 3.466 4.619 4.828 1.624 1.486 3.189 3.013 4.641 4.67 2.681 3.063 5.131 6.586 8.354 9.118.282.222-.115.614-.394.394M50.5 57.075c-.197-1.391-1.633-2.761-2.581-3.688-1.196-1.171-2.47-2.26-3.663-3.434-2.411-2.375-5.015-4.497-7.245-7.06-.235-.27.157-.665.394-.393 2.444 2.808 5.292 5.193 7.971 7.765 1.317 1.264 2.705 2.446 3.966 3.769.697.73 1.551 1.872 1.696 2.893.049.35-.488.502-.538.148M49.395 51.325c-.934-.201-1.333-1.317-1.864-1.996-1.05-1.34-2.196-2.675-3.475-3.803-1.243-1.096-2.508-2.151-3.633-3.371-.738-.8-1.777-1.513-2.184-2.542-.132-.335.408-.478.538-.148.272.688.897 1.076 1.414 1.548.465.426.85.999 1.294 1.455.927.95 1.965 1.794 2.964 2.665 1.033.898 1.936 1.958 2.82 3 .487.572 1.5 2.488 2.273 2.655.352.076.203.613-.148.537M49.457 47.538c-.689-.735-1.226-1.584-1.922-2.314-.855-.898-1.855-1.727-2.638-2.678-.763-.927-1.633-1.791-2.502-2.618-.443-.421-1.005-.82-1.184-1.43-.101-.346.437-.492.538-.148.189.648 1.114 1.249 1.577 1.71.783.787 1.548 1.584 2.252 2.44.679.825 1.611 1.543 2.351 2.329.694.738 1.23 1.576 1.922 2.315.245.262-.147.657-.394.394M48.714 44.38c-.827-.828-1.696-1.626-2.438-2.532-.688-.84-1.523-1.59-2.063-2.54-.18-.313.303-.593.48-.281.559.98 1.465 1.803 2.179 2.675.67.819 1.488 1.536 2.236 2.284.254.254-.14.649-.394.394M17.505 106.425c-.566-.584-1.059-1.229-1.548-1.876-.415-.55-.866-1.135-1.125-1.777-.134-.333.405-.476.538-.147.213.53.621.93.901 1.42.408.713 1.056 1.396 1.628 1.986.251.258-.144.652-.394.394M18.019 103.397c-.924-1.311-2.031-2.47-2.786-3.901-.168-.317.313-.6.481-.281.754 1.43 1.862 2.59 2.786 3.9.208.296-.275.573-.481.282M17.462 98.195c-.936-1.295-1.975-2.52-2.787-3.9-.182-.31.3-.592.48-.282.813 1.381 1.852 2.605 2.788 3.901.21.292-.273.57-.481.281M17.69 93.793c-1.117-1.354-2.302-2.612-3.2-4.144-.182-.31.3-.59.48-.28.418.711.95 1.36 1.39 2.06.262.413.704.673 1.036 1.023.264.278.445.652.689.947.227.275-.165.672-.394.394M18.62 91.007c-.484-.485-.948-.981-1.344-1.543-.47-.666-.506-1.537-1.07-2.172-.239-.267.154-.663.393-.394.393.44.616.95.828 1.494.355.91.905 1.537 1.587 2.22.254.256-.14.65-.394.395M18.992 87.849c-1.183-1.21-2.544-2.747-3.044-4.396-.105-.345.433-.49.537-.147.472 1.556 1.788 3.009 2.9 4.149.252.258-.142.65-.393.394M21.035 87.106a13.765 13.765 0 0 1-1.53-1.915c-.291-.432-.75-.959-.585-1.514.102-.344.64-.197.538.148-.113.379.525 1.082.729 1.378.372.536.787 1.042 1.242 1.509.25.257-.143.652-.394.394M23.636 87.106c-.79-.801-1.49-1.682-1.93-2.724-.14-.331.4-.474.538-.148.4.948 1.07 1.752 1.786 2.478.252.256-.142.65-.394.394M57.188 107.231c-.2-.71-.722-1.225-1.23-1.733-.253-.256.14-.65.396-.396.578.579 1.146 1.174 1.372 1.982.096.345-.441.492-.538.147M57.93 105.188c-.632-1.553-1.966-2.69-2.943-4.02-.214-.29.27-.567.48-.281 1.016 1.382 2.342 2.537 3.002 4.153.135.333-.404.476-.538.148M58.145 100.796c-1.045-1.391-2.332-2.742-3.159-4.272-.17-.316.31-.598.482-.281.82 1.518 2.121 2.89 3.157 4.272.217.287-.267.565-.48.281M58.145 96.895c-.846-1.308-1.86-2.527-2.602-3.901-.17-.316.312-.598.482-.281.738 1.366 1.758 2.596 2.6 3.9.197.304-.286.583-.48.282M58.702 94.294c-.662-.89-1.273-1.825-1.7-2.853-.139-.332.401-.475.537-.148.408.977 1.015 1.873 1.644 2.72.214.288-.27.566-.48.281M60.931 94.108c-.633-1.021-1.47-1.892-1.886-3.038-.122-.339.417-.483.538-.149.395 1.093 1.225 1.933 1.83 2.906.19.306-.294.586-.482.281M63.576 93.793c-.936-.773-1.537-1.77-1.93-2.91-.117-.34.42-.484.537-.146.364 1.052.924 1.95 1.787 2.662.277.23-.12.621-.394.394M65.204 93.365c-.413-.824-.9-1.585-1.3-2.415-.156-.322.324-.605.48-.28.401.83.887 1.587 1.301 2.414.16.32-.32.603-.48.281M29.87 111.801c0-.245-.158-.384-.297-.593-.168-.254-.275-.532-.427-.794-.328-.57-.743-1.058-.938-1.697-.105-.344.433-.49.537-.147.21.687.718 1.21 1.034 1.844.224.448.648.871.648 1.387 0 .36-.557.36-.557 0M36 113.66c-.04-.404-.357-.627-.675-.813-.203-.12-.279-.256-.415-.455-.362-.525-.744-1.036-1.1-1.565-.203-.299.28-.577.48-.28.211.312.43.62.65.928.173.242.4.75.666.89.52.273.893.703.951 1.294.035.357-.522.354-.557 0M41.016 114.774c-.035-.941-.908-1.462-1.262-2.275-.142-.326.338-.61.481-.281.407.935 1.298 1.455 1.338 2.556.013.36-.544.358-.557 0M45.14 115.1c-.208-.391-.475-.742-.66-1.148-.195-.435-.382-.863-.64-1.267-.194-.303.289-.583.482-.28.257.402.449.829.64 1.266.179.408.45.757.66 1.148.169.317-.312.598-.481.28M49.561 114.216c-.001-.475-.154-.747-.418-1.13-.249-.362-.422-.774-.659-1.145-.194-.304.289-.582.481-.28.3.47.507 1.016.886 1.43.257.28.266.771.267 1.125.002.36-.556.36-.557 0M53.687 113.614c-.372-.586-.635-1.172-1.127-1.673-.396-.404-.737-.838-.946-1.366-.132-.334.407-.478.538-.148.24.606.735 1.023 1.16 1.494.365.404.567.955.856 1.412.192.304-.29.583-.482.28M56.145 111.813c-1.179-1.17-2.42-2.283-3.203-3.772-.166-.318.315-.6.482-.281.76 1.448 1.97 2.523 3.115 3.659.255.254-.14.648-.394.394M17.69 61.1c-.441-.435-1.04-.804-1.343-1.358-.172-.315.309-.596.482-.28.275.502.853.848 1.256 1.243.257.252-.138.647-.394.394M20.063 60.3c-.34-.492-.834-.83-1.257-1.244-.258-.252.136-.646.393-.395.46.451.973.821 1.344 1.358.205.296-.278.574-.48.28M23.264 58.313L22.15 57.2c-.255-.254.14-.649.394-.395l1.115 1.115c.254.254-.14.648-.394.394M14.647 46.115c-.206-.581-.561-1.095-.9-1.605-.2-.3.282-.58.48-.281.37.553.734 1.108.958 1.739.12.338-.42.484-.538.147M19.177 44.938c-.655-.673-1.112-1.45-1.53-2.286-.16-.319.32-.603.481-.28.397.791.821 1.532 1.443 2.171.251.258-.143.653-.394.395M62.832 66.3c-.474-.473-.953-.97-1.187-1.609-.123-.338.416-.483.538-.148.198.54.645.965 1.043 1.362.254.255-.14.65-.394.395M65.947 65.13c-.35-.514-.766-.974-1.115-1.487-.202-.298.282-.577.482-.28.348.512.766.972 1.114 1.485.203.299-.28.577-.481.282M69.848 63.829c-.4-.583-.901-1.088-1.301-1.672-.203-.297.28-.575.482-.28.399.583.9 1.088 1.3 1.672.204.297-.28.575-.481.28M60.521 51.243c-.03-.847-.512-1.546-.733-2.342-.097-.346.441-.494.537-.147.237.852.722 1.579.753 2.489.012.359-.545.357-.557 0M63.69 50.202c-.203-.614-.357-1.243-.559-1.857-.11-.343.427-.49.538-.15.201.616.356 1.244.558 1.86.112.34-.427.488-.538.147M61.821 83.194c-.03-.571-.657-1.098-1.033-1.475-.254-.254.14-.65.394-.394.501.5 1.156 1.116 1.197 1.869.02.359-.539.358-.558 0M66.28 83.38c-.03-.307-.342-.768-.545-.996-.232-.259-.377-.6-.532-.907-.16-.32.32-.603.48-.28.206.405.452.765.688 1.15.209.34.428.624.467 1.032.033.358-.524.354-.558 0M71.563 82.834c-.559-.568-.979-1.205-1.187-1.98-.092-.348.445-.496.538-.148.182.685.55 1.232 1.043 1.734.252.256-.142.65-.394.394M81.718 66c-.676-.268-.971-.785-1.366-1.366-.471-.692-1.002-1.357-1.244-2.171-.102-.345.435-.492.537-.148.176.592.535 1.104.885 1.607.369.53.709 1.292 1.336 1.542.33.132.186.67-.148.537M80.594 58.561c-.334-.81-.847-1.524-1.543-2.063-.281-.215-.004-.7.28-.48.826.636 1.404 1.436 1.8 2.396.138.332-.401.474-.537.147M30.251 83.268c-.046-.295-.29-.474-.503-.656-.192-.167-.325-.358-.476-.564a12.334 12.334 0 0 1-1.036-1.686c-.164-.319.317-.6.481-.28.335.656.73 1.266 1.164 1.86.3.41.822.63.908 1.178.055.352-.482.502-.538.148M38.553 83.25c-.614-.443-.846-1.182-1.357-1.717-.248-.259.146-.654.394-.393.465.486.695 1.232 1.244 1.628.29.208.011.691-.28.481M17.09 76.832c-.349-.512-.767-.972-1.115-1.485-.203-.298.281-.577.481-.28.35.511.766.972 1.115 1.485.203.297-.28.576-.48.28" fill="#12243e"/>
    <path d="M2.266 58.274c.1 5.729.475 7.624.33 13.356-.037 1.438-2.265 1.381-2.23-.056.146-5.704-.081-7.656-.33-13.357-.124-2.873.09-5.757.288-8.621.156-2.26-.743-5.248.088-7.401.514-1.331 2.654-.698 2.134.646-.708 1.834.052 4.9.007 6.812-.067 2.878-.338 5.731-.287 8.621M83.031 58.31c.13 2.372.175 1.02.131 3.391l-.186 9.902c-.027 1.437-2.255 1.395-2.228-.042l.164-8.81c.052-2.765.041-1.97-.112-4.738a66.847 66.847 0 0 1-.032-7.148c.071-1.33-.01-2.62.014-3.953.03-1.51-.147-3.649-.119-5.13.027-1.438 2.256-1.396 2.23.042-.02 1.078.138 2.975.138 4.087-.002 1.345.025 2.648 0 3.993-.052 2.75-.15 5.651 0 8.406" fill="#12243e"/>
    <path d="M79.976 80.258c-2.621 3.382-6.371 4.2-10.459 4.2-.09 0-.175-.01-.253-.025-1.398.35-3.292.022-4.529.032-3.188.024-6.579-.022-9.756.316-3.118.332-12.112.234-15.244.234-3.468 0-7.083.324-10.529 0-2.912-.274-9.279-.186-12.216-.186-2.936 0-5.768.44-8.608-.611-2.475-.917-4.351-1.906-5.751-4.19C1.021 77.4.402 74.307.319 71.268c-.039-1.438 2.19-1.434 2.23 0 .081 3.004.756 6.308 2.738 8.686 1.632 1.959 6.232 3.369 8.669 2.685 2-.56 4.81-.04 6.891-.04 2.439 0 8.382.347 10.788.213 5.528-.308 16.924-.13 22.464-.212 2.674-.04 5.303-.222 7.987-.103 1.114.049 2.393-.26 3.53-.268.775-.007 2.65.384 3.338-.034.425-.26.834-.194 1.141.027 3.397-.075 5.969-.848 8.305-3.541 1.813-2.09 2.263-4.565 2.263-7.227 0-1.438 2.229-1.438 2.229 0 0 3.454-.768 6.032-2.916 8.804M79.976 33.02c-2.621-3.383-6.371-4.2-10.459-4.2-.09 0-.175.008-.253.024-1.398-.349-3.292-.022-4.529-.032-3.188-.024-6.579.022-9.756-.315-3.118-.333-12.112-.235-15.244-.235-3.468 0-7.083-.324-10.529 0-2.912.274-9.231-.023-12.168-.023-2.937 0-5.816-.232-8.656.82-2.475.917-4.351 1.906-5.751 4.19C1.021 35.877.402 38.97.319 42.01c-.039 1.44 2.19 1.435 2.23 0 .081-3.004.756-6.308 2.738-8.686 1.632-1.958 6.225-2.962 8.755-2.924 2.664.04 5.443 0 7.524 0 2.44 0 7.663-.068 10.069.066 5.528.308 16.924.13 22.464.212 2.674.04 5.303.222 7.987.103 1.114-.049 2.393.26 3.53.268.775.006 2.65-.384 3.338.034.425.258.834.195 1.141-.027 3.397.075 5.969.848 8.305 3.541 1.813 2.09 2.263 4.566 2.263 7.228 0 1.436 2.229 1.436 2.229 0 0-3.455-.768-6.033-2.916-8.805" fill="#12243e"/>
    <path d="M65.656 109.89c1.438-4.308.905-8.417.89-12.894-.005-.893.054-1.712-.038-2.734.781-.018 1.483-.093 2.275-.093.046 1.555-.022 3.027.014 4.498.108 4.424.762 9.288-1.538 13.333-1.144 2.013-2.199 4.077-4.036 5.52-2.047 1.607-4.4 2.911-6.804 3.9-5.002 2.056-9.79 2.698-15.16 2.698-4.85 0-9.757-.818-14.3-2.548-4.227-1.61-8.449-3.352-10.604-7.664-.37-.74-.918-1.09-1.283-1.872-.525-1.123-.496-2.39-.966-3.526-.879-2.124-.497-5.474-.21-7.704.326-2.55-.093-5.152.215-7.709.351-2.92.234-5.98.234-8.917 0-1.437 2.23-1.437 2.23 0 0 4.391-.373 8.761-.373 13.146 0 2.298-.312 4.58-.238 6.871.038 1.19-.1 2.58.291 3.72.352 1.027.412 3.113 1.293 3.828 1.24 1.006 2.048 2.943 3.158 4.15 1.681 1.827 4.6 2.672 6.846 3.527 4.346 1.656 9.062 2.47 13.706 2.47 8.802 0 21.204-2.433 24.398-12" fill="#12243e"/>
    <path d="M54.097 103.912c-.084-3.169.011-6.376-.15-9.629a34.622 34.622 0 0 1 2.32-.09c.07 3.552-.013 6.442.06 9.673l.001.004v.008c.001.06-.002.118 0 .177.002.08-.005.152-.016.223-.322 7.567-9.516 8.342-15.385 8.32-3.66-.015-6.763-.957-10.089-2.4-2.414-1.048-4.826-2.93-4.976-5.77a1.005 1.005 0 0 1 .184-.672c-.102-3.529.188-7.062.188-10.606 0-2.659-.063-5.8.782-8.339.452-1.357 2.605-.776 2.15.592-.88 2.647-.703 6.051-.703 8.813 0 3.226-.286 6.445-.186 9.654.008.262-.06.475-.176.641.34 4.316 8.903 5.608 12.065 5.837 4.636.336 13.89-.02 13.931-6.436M55.958 67.342c-2.837 5.667-6.856 8.356-13.282 8.474-3.165.058-6.158-.469-8.992-1.91-2.58-1.312-3.915-3.127-4.996-5.758-.932-2.272.047-5.494.757-7.704.694-2.159 2.677-3.65 4.852-4.09 1.403-.285 2 1.863.592 2.148-3.812.773-5.416 6.988-3.514 10.066 1.238 2.002 2.577 3.122 4.785 4.05 2.05.864 4.323.975 6.516.97 4.48-.014 8.099-1.52 10.418-5.47 2.171-3.698 1.726-8.725-3.193-9.616-1.413-.256-.813-2.404.592-2.149 4.978.901 7.731 6.463 5.465 10.99" fill="#12243e"/>
    <path d="M51.55 48.528c-.413 2.839-.238 5.75-.238 8.62 0 1.439-2.23 1.439-2.23 0 0-3.253.28-6.535.28-9.752 0-1.635.117-3.29-.11-4.915-.442-3.163-3.072-3.723-5.742-3.723-1.845 0-3.931.498-5.338 1.656-1.803 1.484-1.406 3.739-1.808 5.746-.428 2.143-.026 4.405-.026 6.57 0 1.437-.26 2.848-.332 4.277.469.645.186 1.814-.855 1.814h-.28a1.125 1.125 0 0 1-1.114-1.114c0-2.383.407-4.707.308-7.104-.095-2.301-.297-5.153.289-7.404 1.114-4.275 3.95-6.453 8.32-6.635 2.02-.085 3.759-.21 5.585.7 1.732.865 2.69 2.85 3.142 4.624.497 1.95.437 4.672.15 6.64M66.577 95.098c0-.92-.116-1.719-.395-2.648-.254-.849-3.613-1.349-4.133-1.323-2.362.118-5.452.363-5.828 3.14.062.6-.29 1.25-1.068 1.25h-.07c-.562 0-1.175-.51-1.114-1.116.43-4.298 4.183-5.454 8.08-5.503 1.841-.023 4.016.335 5.48 1.555 1.402 1.168 1.277 2.827 1.277 4.645 0 1.437-2.229 1.437-2.229 0" fill="#12243e"/>
    <path d="M149.794 87.62c-1.09-.25-1.805-1.421-2.414-2.28-1.38-1.941-2.969-3.84-4.484-5.676-1.333-1.615-2.623-3.21-3.776-4.963-1.045-1.585-2.279-3.377-2.464-5.308-.044-.458.673-.454.716 0 .168 1.76 1.433 3.483 2.365 4.947 1.088 1.708 2.35 3.284 3.665 4.819 1.242 1.45 2.346 3.019 3.54 4.508.757.947 1.812 2.982 3.042 3.264.45.103.26.793-.19.69M156.624 86.392c-1.836-.843-3.095-2.952-4.433-4.403-1.787-1.936-3.333-4.04-4.801-6.226-1.686-2.514-3.317-5.016-5.184-7.406-1.513-1.934-2.826-3.985-4.308-5.935-.279-.368.343-.724.618-.362 1.445 1.903 2.712 3.91 4.195 5.792a72.793 72.793 0 0 1 4.248 5.942c1.504 2.355 3.093 4.653 4.903 6.785.79.93 1.654 1.809 2.47 2.718.799.89 1.552 1.97 2.652 2.477.419.193.056.809-.36.618M165.373 86.574c-2.068-2.068-4.206-4.12-6.005-6.433-1.645-2.116-2.911-4.511-4.291-6.8-1.602-2.656-4.016-4.746-5.564-7.391-.733-1.252-1.336-2.583-2.178-3.767-.667-.94-1.125-2.828-2.155-3.448-.395-.238-.036-.857.36-.618.439.265.862.883 1.083 1.32.592 1.18 1.31 2.25 1.975 3.386.863 1.477 1.573 2.965 2.677 4.29 1.042 1.25 2.159 2.463 3.09 3.796 1.758 2.514 3.13 5.273 4.852 7.812 1.848 2.727 4.343 5.027 6.662 7.348.326.326-.18.832-.506.505M174.433 87.05c-4.244-4.263-8.237-8.762-11.79-13.621-1.865-2.547-3.606-5.2-5.25-7.893a92.42 92.42 0 0 1-2.328-4.07c-.73-1.342-.96-2.687-2.257-3.685-.36-.277-.004-.9.361-.617 1.796 1.38 2.397 3.766 3.477 5.686 1.672 2.974 3.558 5.812 5.485 8.625 3.73 5.446 8.158 10.4 12.808 15.07.325.327-.18.834-.506.506M182.96 86.979c-.793-1.174-1.934-2.168-2.805-3.295a137.7 137.7 0 0 0-3.173-3.975c-2.482-2.972-4.99-5.922-7.4-8.953-2.046-2.572-3.797-5.404-5.397-8.27-.606-1.084-1.188-2.195-1.67-3.34-.063-.147-.183-.496-.34-.905.263.026.525.048.787.063.092.256.171.482.242.653 1.426 3.454 3.613 6.664 5.711 9.737 2.405 3.525 5.4 6.723 8.138 9.989 1.128 1.345 2.252 2.69 3.306 4.094.997 1.328 2.293 2.473 3.218 3.842.26.382-.36.74-.617.36M189.159 85.786c-3.115-4.608-5.796-9.488-8.887-14.11-2.717-4.065-6.301-7.339-8.076-11.964-.166-.43.526-.615.69-.19 1.808 4.711 5.596 8.191 8.37 12.34 2.969 4.44 5.529 9.137 8.52 13.564.26.382-.36.74-.617.36M200.898 99.45c-1.666-1.306-2.683-3.186-3.834-4.922-.783-1.182-1.77-2.245-2.622-3.38-.69-.922-1.68-1.697-2.183-2.74-.2-.412.417-.775.618-.359.418.866 1.254 1.411 1.798 2.204.822 1.198 1.767 2.313 2.675 3.445 1.404 1.748 2.242 3.826 4.054 5.245.363.284-.148.786-.506.506M206.766 96.907c-.148-.604-.6-1.065-.917-1.583-.562-.916-1.072-1.863-1.63-2.782-1.072-1.763-2.27-3.457-3.407-5.178-2.317-3.512-4.672-6.998-6.974-10.52-2.069-3.164-3.745-6.556-5.94-9.646-1.047-1.47-1.997-2.976-3.034-4.456-.794-1.135-1.88-2.22-2.417-3.506-.177-.426.515-.61.69-.19.567 1.365 1.846 2.623 2.692 3.833 1.032 1.472 1.991 2.982 3.033 4.447 2.214 3.114 3.893 6.559 5.981 9.75 2.301 3.519 4.657 7.004 6.975 10.513 1.128 1.71 2.293 3.398 3.355 5.148.712 1.172 1.954 2.64 2.283 3.98.11.448-.58.638-.69.19M211.572 89.362c-3.604-4.803-6.713-10-10.09-14.976-1.808-2.665-3.684-5.274-5.58-7.878-1.71-2.353-3.232-4.778-4.835-7.188-.257-.384.363-.742.617-.36 1.476 2.215 2.854 4.461 4.428 6.625 1.898 2.61 3.793 5.214 5.608 7.882 3.51 5.155 6.732 10.552 10.469 15.535.278.37-.345.725-.617.36M217.35 84.19c-2.235-2.246-3.772-5.1-5.628-7.653-2.207-3.036-3.994-6.398-6.009-9.564-2.002-3.148-4.017-6.392-6.484-9.195-2.173-2.467-3.832-5.056-5.302-7.994-.206-.41.412-.772.618-.36a37.9 37.9 0 0 0 5.587 8.3c2.09 2.374 3.725 5.13 5.468 7.76 1.964 2.964 3.748 6.045 5.641 9.056.95 1.511 2.04 2.931 3.05 4.405 1.13 1.649 2.148 3.317 3.564 4.74.325.327-.18.833-.506.505M223.547 78.945c-2.359-3.052-4.336-6.36-6.499-9.549-2.455-3.617-5.023-7.157-7.48-10.77-1.07-1.574-2.07-3.2-3.154-4.759-.562-.81-1.115-1.269-1.53-2.164a14.206 14.206 0 0 0-1.446-2.468c-1.256-1.727-2.745-3.288-3.99-5.012-.91-1.262-2.438-2.75-2.696-4.3-.074-.45.614-.644.691-.189.132.802.896 1.616 1.356 2.272.616.878 1.16 1.781 1.89 2.576 1.222 1.332 2.294 2.838 3.366 4.291 1.002 1.36 1.61 2.863 2.64 4.197 1.266 1.64 2.323 3.477 3.49 5.194 2.225 3.273 4.458 6.543 6.771 9.757 2.457 3.412 4.522 7.087 7.097 10.418.278.36-.224.87-.506.506" fill="#0062ae"/>
    <path d="M147.19 55.492c.575 0 1.106.026 1.623.077 1.456.148 5.971.222 13.418.222 5.39 0 21.122-.04 25.05-.066 2.167-.014 3.812-.024 4.618-.024 1.007 0 1.534.788 1.534 1.568s-.527 1.568-1.534 1.568h-40.31c-.896 0-1.804-.041-2.68-.08-.904-.041-1.783-.081-2.642-.081-1.482 0-2.682.12-3.777.376-.37.087-.772.155-1.18.223-1.83.307-3.41.57-3.593 2.508-.09.95-.208 1.886-.324 2.815-.242 1.925-.468 3.727-.467 5.642.001.81.171 1.599.352 2.434.12.554.244 1.125.315 1.707.172 1.397.196 2.862.196 4.236 0 1.262.25 2.788.468 3.975.374 2.042 1.158 2.82 2.997 2.974 1.89.157 6.014.237 12.262.237 6.342 0 23.425-.08 29.281-.142l.631-.006c3.398-.038 6.155-.066 7.67-.066 1.008 0 1.534.788 1.534 1.568 0 .779-.526 1.568-1.534 1.568h-42.893c-.704 0-1.49.048-2.32.099-.992.06-1.966.12-2.937.12-1.963 0-3.403-.255-4.53-.805-2.63-1.277-3.086-4.018-3.454-6.22-.21-1.258-.312-2.6-.312-4.102 0-1.32-.203-2.555-.418-3.864a50.438 50.438 0 0 1-.295-1.96c-.354-2.874-.169-6.133.563-9.962.558-2.92 1.807-4.493 4.455-5.611.94-.398 2.413-.518 3.486-.605l1.244-.108c1.14-.106 2.317-.215 3.502-.215" fill="#0062ae"/>
    <path d="M227.899 70.172c.629 0 1.23.354 1.5.88.239.465.186.997-.146 1.458-1.007 1.403-1.988 2.885-2.852 4.191-1.903 2.874-3.866 5.84-6.327 8.483l-.272.291c-1.922 2.063-3.891 4.178-5.7 6.358-.502.604-1.01 1.27-1.547 1.973-1.425 1.868-2.896 3.798-4.605 5.08-2.791 2.094-6.53 3.344-9.996 3.344-1.76 0-3.373-.32-4.795-.952-4.076-1.81-3.607-7.312-3.265-11.328.089-1.046.17-2.007.17-2.794 0-1.006.789-1.533 1.568-1.533.78 0 1.57.527 1.57 1.533 0 .821-.078 1.753-.161 2.738-.338 4.054-.722 8.648 3.706 9.03.409.035.823.052 1.23.052 2.252 0 4.442-.523 6.508-1.556 1.663-.832 2.85-2.36 3.997-3.837.33-.423.649-.835.977-1.23 1.922-2.317 3.99-4.565 5.989-6.738 1.212-1.318 2.413-2.623 3.589-3.949 1.84-2.076 3.364-4.446 4.836-6.737.866-1.348 1.76-2.742 2.724-4.08a1.57 1.57 0 0 1 1.302-.677" fill="#0062ae"/>
    <path d="M201.05 38.435c3.308 0 6.435 1.568 8.801 4.416 1.344 1.616 2.562 3.333 3.741 4.993.51.718 1.006 1.417 1.516 2.116.3.413.596.836.891 1.26.81 1.154 1.64 2.34 2.603 3.331.512.527.882.95 1.195 1.372.177.24.41.7.633 1.144.114.23.352.705.415.778.721.72 1.294 1.484 1.93 2.405.868 1.256 1.788 2.371 2.76 3.55l.33.402c.235.285.47.561.702.833l.086.1c1.482 1.733 2.882 3.37 3.106 5.967.037.434-.083.814-.349 1.104-.27.294-.682.464-1.127.464-.76 0-1.574-.508-1.657-1.48-.166-1.932-1.773-3.606-3.19-5.08-.289-.302-.54-.563-.777-.819-.739-.805-1.349-1.69-1.939-2.546-.67-.974-1.304-1.894-2.108-2.697-.666-.666-1.175-1.45-1.668-2.209-.479-.738-.975-1.5-1.603-2.13-1.149-1.154-2.109-2.643-3.039-4.084-.608-.943-1.184-1.834-1.806-2.634-.353-.455-.63-.973-.898-1.472-.188-.35-.362-.678-.56-.98-.418-.644-1.046-1.263-1.652-1.863a26.55 26.55 0 0 1-.885-.903 7.048 7.048 0 0 0-5.18-2.27 7.174 7.174 0 0 0-3.813 1.1 35.01 35.01 0 0 1-.616.376c-1.007.607-1.799 1.087-2.489 2.203-.22.357-.432 1.325-.573 1.965-.054.25-.104.478-.15.655-.523 2.054-.409 4.403-.3 6.674.041.888.081 1.71.087 2.522.003.427-.143.801-.42 1.082a1.607 1.607 0 0 1-1.14.455c-.778 0-1.568-.526-1.576-1.53a90.165 90.165 0 0 0-.053-2.235c-.158-4.889-.353-10.96 4.047-14.075 2.09-1.478 4.413-2.26 6.724-2.26" fill="#0062ae"/>
    <path d="M302.593 126.593h-.309c-.276 0-.294-.388-.06-.448a22.25 22.25 0 0 0-1.652-2.79c-.17-.245-1.125-1.28-.513-1.512.28-.106.4.339.123.444.254-.096.073-.264.248.034.104.178.226.347.343.517.216.312.438.619.64.94.503.807.963 1.603 1.38 2.469.074.153-.013.346-.2.346M304.216 122.066c-.103-1.953-2.072-3.198-2.164-5.22-.014-.296.451-.295.464 0 .092 2.01 2.06 3.23 2.164 5.22.015.295-.448.294-.464 0M306.39 116.294c-.36-1.232-1.489-2.105-1.555-3.438-.015-.296.45-.295.464 0 .062 1.246 1.195 2.145 1.537 3.316.083.286-.364.407-.447.122M309.782 113.777c-.062-.544-.345-1.117-.66-1.54-.403-.542-.66-1.142-.878-1.775-.097-.282.35-.402.448-.123.268.777.599 1.451 1.177 2.047.157.162.097.472.157.68.07.246.19.453.22.711.033.294-.431.292-.464 0M315.192 110.866v1.07c0 .297-.464.297-.464 0 0-.704.098-1.362-.305-1.971-.296-.451-.57-.861-.622-1.406-.028-.296.436-.293.463 0 .063.644.595 1.176.897 1.726.088.16.03.407.03.58M319.375 110.462c-.346-1.236-1.122-2.271-1.832-3.322-.167-.247.234-.477.4-.232.735 1.085 1.523 2.155 1.879 3.431.079.287-.368.409-.447.123M324.622 109.173c-.056-1.088-.927-2.086-1.514-2.954-.167-.247.235-.477.4-.232.644.952 1.517 1.99 1.578 3.186.015.297-.45.295-.464 0M329.018 110.564c-.215-.216-.399-.426-.541-.697-.145-.277-.113-.592-.276-.862-.387-.644-.834-1.206-1.097-1.92-.104-.278.345-.398.447-.122.226.614.593 1.128.956 1.665.104.152.276.355.288.545.031.465.235.748.551 1.065.211.21-.117.537-.328.326M334.043 113.224c-.052.292-.499.168-.447-.122.228-1.292-1.496-2.382-1.856-3.562-.086-.284.362-.405.448-.122.41 1.343 2.126 2.268 1.855 3.806M338.225 115.62c-.134-1.804-1.017-3.228-1.823-4.796-.136-.264.264-.497.4-.232.865 1.683 1.743 3.097 1.887 5.027.022.296-.442.294-.464 0M316.65 138.42c-1.034-1.033-2.02-2.094-2.83-3.312-.367-.551-.632-1.126-.866-1.741-.28-.73-.433-1.823-.941-2.428-.19-.226.136-.554.327-.326.812.967.9 2.489 1.492 3.61.777 1.477 1.974 2.7 3.146 3.872.21.21-.116.537-.328.326M320.904 141.712c-.854-1.131-1.781-2.233-2.504-3.454-.686-1.161-1.351-2.302-2.134-3.404-.771-1.089-1.527-2.175-2.174-3.344a15.567 15.567 0 0 1-.717-1.476c-.15-.355-.196-.987-.435-1.283-.184-.229.142-.558.328-.326.144.178.19.374.262.592.217.659.46 1.281.775 1.905.599 1.192 1.36 2.287 2.13 3.373a39.82 39.82 0 0 1 2.167 3.386c.769 1.354 1.765 2.558 2.702 3.799.18.237-.223.466-.4.232M323.19 141.68c-.886-.577-1.395-1.332-1.958-2.205-.843-1.304-1.602-2.66-2.425-3.978a87.81 87.81 0 0 0-2.296-3.49c-.766-1.105-1.687-2.12-2.332-3.303a.233.233 0 0 1 .262-.338c.155.04.31.077.464.115.26.065.186.426-.04.448.504.776 1.122 1.457 1.644 2.224.7 1.026 1.409 2.037 2.06 3.094.723 1.173 1.449 2.343 2.156 3.525.748 1.25 1.445 2.694 2.698 3.51.249.162.018.56-.233.397M324.961 141.136c-.55-1.154-1.386-2.056-2.085-3.109-.837-1.262-1.598-2.574-2.415-3.849-.697-1.087-1.47-2.126-2.224-3.172-.37-.513-.658-1.059-1.03-1.57-.266-.363-.57-1.372-.974-1.57-.268-.13-.033-.529.234-.397.264.128.338.293.458.568.294.666.734 1.211 1.133 1.816.756 1.146 1.57 2.268 2.35 3.407.856 1.247 1.615 2.558 2.42 3.837.82 1.302 1.866 2.41 2.533 3.807.127.267-.272.501-.4.232M326.968 139.226c-.77-.822-1.302-1.817-1.973-2.717-.565-.757-1.234-1.56-1.564-2.45-.104-.279.346-.398.447-.122.33.887 1.1 1.806 1.68 2.546.617.788 1.046 1.68 1.738 2.417.204.217-.123.544-.328.326M328.707 138.42c-1.388-1.428-2.377-3.147-3.514-4.766-.172-.244.231-.473.401-.232 1.114 1.586 2.08 3.272 3.441 4.673.207.214-.12.54-.328.326M331.306 137.996c-1.879-1.331-3.196-3.166-4.489-5.032-.17-.245.231-.475.4-.232 1.245 1.796 2.513 3.584 4.322 4.867.242.17.01.57-.233.397M332.465 136.96c-.273-.165-.428-.354-.609-.613-.435-.618-.96-1.166-1.412-1.772-.373-.501-.862-.971-1.193-1.496-.255-.406-.55-.67-.89-.99-.159-.148-.692-1.075-.465-.806-.19-.226.136-.553.328-.325.646.767 1.217 1.601 1.855 2.388.437.538.842 1.101 1.28 1.641.333.411.876 1.296 1.34 1.576.255.153.022.551-.234.397M333.114 135.313c-1.376-1.381-2.193-3.18-3.283-4.767-.168-.245.234-.475.4-.232 1.068 1.555 1.862 3.32 3.21 4.673.21.212-.117.537-.327.326M319.976 130.431c-.686-1.19-1.587-2.286-1.771-3.685-.038-.293.426-.29.464 0 .17 1.297 1.074 2.352 1.707 3.453.149.258-.252.49-.4.232M321.368 129.05c-.37-.545-.758-1.075-1.074-1.653-.291-.53-.628-1.043-.805-1.625-.086-.285.36-.406.447-.122.183.6.564 1.16.865 1.71.28.51.64.977.967 1.458.168.246-.234.477-.4.232M323.722 128.521c-1.092-.972-2.044-1.968-2.378-3.44-.065-.289.382-.412.447-.123.318 1.4 1.222 2.315 2.26 3.237.223.2-.106.523-.329.326M325.81 128.06c-.938-.956-1.636-2.083-2.239-3.27-.135-.263.264-.496.4-.231.586 1.15 1.255 2.247 2.166 3.176.208.213-.119.539-.328.326M326.785 126.977c-.06-.593-.628-1.21-.928-1.714a15.78 15.78 0 0 0-1.322-1.922c-.188-.228.14-.556.327-.325.574.704 1.068 1.46 1.53 2.24.334.565.79 1.05.857 1.72.029.296-.435.294-.464 0M329.404 126.449c-2.174-2.18-3.96-4.655-5.912-7.021-.847-1.027-1.754-2.04-2.442-3.18-.503-.831-1.52-1.584-1.676-2.563-.047-.29.4-.415.447-.122.104.646.555.856.903 1.326.336.453.612.937.902 1.418.755 1.249 1.84 2.356 2.76 3.486 1.753 2.147 3.382 4.36 5.345 6.33.21.212-.117.537-.327.326M330.91 125.183c-.107-.124-.145-.185-.17-.31-.27-.437-.777-.846-1.11-1.187-.555-.572-1.058-1.17-1.571-1.78-.948-1.132-1.894-2.26-2.753-3.46-.757-1.055-1.403-2.116-2.091-3.21-.583-.923-1.4-1.531-1.754-2.587-.095-.282.352-.402.447-.122.357 1.068 1.29 1.819 1.889 2.765.695 1.105 1.38 2.184 2.144 3.25.908 1.269 1.95 2.44 2.948 3.639.73.877 1.965 1.719 2.41 2.778.09.215-.242.39-.388.224M332.358 124.16c-.172-.41-.841-1.067-1.1-1.38-.403-.486-.802-.964-1.19-1.462-.745-.956-1.526-1.884-2.262-2.847-.828-1.083-1.548-2.245-2.346-3.35-.44-.607-.794-1.264-1.274-1.846-.238-.289-.51-.387-.64-.74-.101-.28.347-.4.449-.124.122.335.58.565.788.867.366.532.683 1.1 1.077 1.611.834 1.082 1.53 2.254 2.347 3.35.793 1.064 1.668 2.065 2.474 3.12.644.841 1.717 1.703 2.124 2.68.115.273-.333.391-.447.121M332.822 122.318c-.14-.472-.682-.859-.96-1.245-.406-.567-.823-1.124-1.236-1.686-.794-1.083-1.787-2.003-2.533-3.115-.167-.248.235-.478.4-.232.74 1.104 1.725 2.053 2.534 3.114.569.747 1.084 1.558 1.719 2.25.233.252.425.46.523.791.085.286-.362.407-.447.123M313.344 123.01c-.304-.733-.549-1.485-.815-2.23-.213-.598-.286-1.292-.553-1.86-.125-.267.274-.5.401-.232.243.517.315 1.12.488 1.666.268.852.583 1.708.926 2.532.115.275-.334.393-.447.123M315.723 123.226c-.907-.861-1.418-1.957-2.008-3.04-.474-.871-.967-2.006-1.075-2.993-.03-.295.433-.292.464 0 .101.932.741 2.264 1.183 3.075.518.95.964 1.873 1.763 2.633.217.205-.11.53-.327.325M317.578 122.19c-1.236-1.488-2.455-3.4-3.005-5.289a.205.205 0 0 1-.077-.169v-.115c0-.26.389-.314.455-.061.488 1.858 1.732 3.838 2.955 5.308.189.227-.138.555-.328.326M318.793 120.592c-.087-.372-.373-.562-.556-.866-.3-.496-.593-.996-.87-1.506-.445-.82-1.04-1.534-1.24-2.462-.063-.291.385-.414.447-.123.21.978.896 1.805 1.367 2.674.38.698 1.117 1.383 1.3 2.16.068.29-.38.412-.448.123M320.88 119.901c-.079-.243-.458-.668-.593-.912-.215-.391-.507-.748-.774-1.105-.514-.682-.855-1.56-1.276-2.302-.147-.259.253-.491.4-.232.486.854.892 1.792 1.483 2.578a9.1 9.1 0 0 1 .72 1.105c.16.289.384.429.487.746.092.283-.356.404-.447.122M308.035 140.676c-.138-.251-.385-.421-.58-.626a1.3 1.3 0 0 1-.38-.872c-.01-.296.453-.295.465 0 .02.567.645.81.895 1.266.144.26-.256.493-.4.232M310.353 140.906c-.26-.491-.695-.917-.727-1.497-.016-.297.448-.295.464 0 .026.466.453.868.663 1.265.14.262-.26.495-.4.232M336.3 127.96c-.233-.698-.455-1.394-.472-2.134-.007-.298.456-.297.463 0 .017.697.237 1.354.456 2.01.095.283-.353.403-.447.123M338.875 127.093a8.214 8.214 0 0 1-.951-1.896c-.097-.283.35-.403.447-.123.22.644.527 1.22.903 1.787.166.249-.235.479-.4.232M340.465 125.826c0-.566.041-1.198-.2-1.726-.122-.268.277-.502.4-.232.28.613.264 1.298.264 1.958 0 .297-.464.297-.464 0" fill="#12243e"/>
    <path d="M327.566 115.008c-.015 1.187-1.87 1.188-1.855 0 .009-.854.134-1.756-.683-2.346-.566-.408-1.517-.306-2.175-.304-1.84.007-2.707 1.153-2.707 2.88 0 1.188-1.855 1.188-1.855 0 0-2.455 1.428-4.704 4.173-4.719 1.329-.008 2.679-.039 3.799.77 1.226.883 1.319 2.347 1.303 3.72M329.848 125.559c-.107.014-.103-.01.241-.056-.029.01-.059.018-.089.026-.05.01-.1.017-.152.03" fill="#12243e"/>
    <path d="M323.16 132.85c.94.112 2.932-.144 3.367-1.215.007-.208.05-.384.155-.55.073-.198.176-.38.315-.541.523-.78 1.54-1.126 2.409-1.344 1.855-.464 5.728-.21 5.769 2.443.035 2.265-.073 4.129-1.77 5.875-1.744 1.794-5.088 2.346-7.462 2.354-1.197.004-1.196-1.837 0-1.841 2.323-.008 7.207-.878 7.319-3.972.02-.57.158-1.073.1-1.668-.132-1.38-1.447-1.465-2.498-1.465-.303 0-2.335.144-2.385.544a.904.904 0 0 1-.088.373.996.996 0 0 1-.046.216c-.776 2.31-3.524 2.83-5.704 2.572-.97-.114-2.27-.83-2.715-1.728-.36-.724-.88-2.216-.088-2.89 2.383-2.028 5.562-2.446 8.328-3.748a.927.927 0 0 1 .43-.288c.408-.135.827-.312 1.252-.418.04-.004.094-.015.153-.03.077-.015.154-.035.23-.045l-.141.019a.58.58 0 0 0 .182-.095c.465-.391.983-.894 1.609-1.395 1.913-1.532 1.486-4.827-.045-6.362-1.072-1.074-3.03-1.63-4.594-1.705-.547.207-1.3-.065-1.3-.822v-.115c0-.502.423-.921.928-.921 4.308 0 8.883 2.85 8.083 7.612-.55 3.273-2.604 4.824-5.126 5.788a8.762 8.762 0 0 1-1.898.84c-1.867.56-3.72 1.323-5.49 2.125-1.591.72-.924 2.203.722 2.398M315.28 128.401c.107-.014.103.01-.242.056a.996.996 0 0 1 .089-.026c.05-.01.102-.018.153-.03" fill="#12243e"/>
    <path d="M321.967 121.11c-.94-.112-2.93.144-3.366 1.215a1.074 1.074 0 0 1-.156.55 1.744 1.744 0 0 1-.315.541c-.522.78-1.54 1.126-2.409 1.343-1.855.465-5.728.21-5.768-2.442-.035-2.264.072-4.128 1.77-5.874 1.743-1.795 5.087-2.348 7.462-2.356 1.196-.004 1.195 1.838 0 1.842-2.324.008-7.208.878-7.32 3.972-.019.57-.158 1.073-.1 1.668.133 1.38 1.448 1.464 2.498 1.464.304 0 2.335-.143 2.386-.543 0-.132.034-.255.088-.373.006-.069.021-.14.045-.217.776-2.309 3.525-2.829 5.704-2.57.971.113 2.27.83 2.715 1.727.36.724.881 2.216.088 2.89-2.383 2.028-5.56 2.445-8.328 3.748a.924.924 0 0 1-.429.288c-.408.135-.827.312-1.252.418a.999.999 0 0 0-.154.03c-.077.015-.154.035-.23.045l.141-.019a.625.625 0 0 0-.182.094c-.465.391-.983.895-1.609 1.396-1.912 1.532-1.485 4.827.046 6.362 1.071 1.074 3.028 1.63 4.594 1.705.546-.207 1.3.065 1.3.822v.115a.933.933 0 0 1-.929.921c-4.307 0-8.882-2.85-8.083-7.612.55-3.273 2.605-4.824 5.127-5.788a8.72 8.72 0 0 1 1.898-.84c1.867-.56 3.72-1.323 5.49-2.125 1.59-.72.924-2.203-.722-2.398" fill="#12243e"/>
    <path d="M327.044 139.124c-.12 1.2.02 2.37-.932 3.313-1.022 1.015-2.593 1.25-3.966 1.227-1.232-.02-3.067-.209-3.99-1.126-.862-.856-.909-2.402-.909-3.529 0-1.188 1.855-1.188 1.855 0 0 1.837.646 2.73 2.608 2.762.835.015 1.483.061 2.305-.197 1.206-.379 1.072-1.439 1.174-2.45.118-1.17 1.974-1.182 1.855 0" fill="#12243e"/>
    <path d="M343.596 125.763c-.049-1.028-.545-1.838-.64-2.832-.157-1.65-.288-3.223-.756-4.826-.789-2.7-3.412-5.268-5.796-6.689-2.642-1.573-4.908-2.99-7.998-3.567-2.76-.514-6.28-.668-9.039-.157-2.724.506-5.616 1.63-8.228 2.56-3.182 1.13-5.91 2.827-7.877 5.633-.67.957-.883 2.306-1.363 3.376-.668 1.488-1.017 3.436-1.186 5.046-.317 3.028-.177 5.83.404 8.808.28 1.437.726 2.474 1.53 3.693.864 1.312 1.003 2.675 2.12 3.897 2.226 2.438 4.818 3.261 7.75 4.521 2.584 1.112 5.337 1.006 8.045 1.427a.91.91 0 0 1 .53-.17c2.305 0 4.455-.24 6.733-.453 1.401-.132 2.41-.877 3.686-1.357.593-.223 2.848-1.088 3.272-1.649 1.29-1.706 3.726-2.146 4.985-3.914 1.393-1.956 2.535-3.849 3.268-6.139.802-2.506.683-4.617.56-7.208m1.801 5.83c-.72 2.43-1.41 4.541-2.868 6.606-1.45 2.052-2.356 3.422-4.579 4.783-.318.195-1.357.695-1.566.972-.179.237-.398.627-.68.79-1.283.747-2.784 1.304-4.15 1.911-3.25 1.444-6.35 1.65-9.855 1.667a1.007 1.007 0 0 1-.69.195.986.986 0 0 1-.396.004c-2.84-.525-5.719-.279-8.45-1.454-3.11-1.337-5.698-2.15-8.19-4.538-1.91-1.829-3.048-4.474-4.088-6.863-1.185-2.725-1.377-6.016-1.136-8.937.417-5.028 1.17-12 5.874-15.114 2.451-1.622 4.656-2.686 7.44-3.633 3.015-1.026 6.284-2.263 9.492-2.35 6.086-.169 11.783.918 16.655 4.745 2.013 1.581 3.865 3.372 5.116 5.621 1.44 2.587 1.111 5.638 2.01 8.36.347 1.05.167 2.426.242 3.52.088 1.264.182 2.488-.18 3.714M334.898 83.394c-.977 1.175-2.133 2.28-3.413 3.124-.448.295-1.085.394-1.597.565a15.41 15.41 0 0 1-2.136.535c-1.51.284-2.998.37-4.537.4-.701.014-1.412-.168-2.101-.272-.762-.116-1.538-.213-2.274-.446a25.23 25.23 0 0 1-3.88-1.571c-1.171-.6-2.125-1.775-2.808-2.868a8.14 8.14 0 0 1-1.158-3.171.321.321 0 0 1-.135-.273c0-.29.018-.58-.041-.864-.044-.21-.095-.41-.12-.618a.357.357 0 0 1-.017-.106v-.09c0-.456.695-.452.71 0 .01.25.082.483.134.726.045.216.049.437.047.658a.362.362 0 0 1 .087.206c.246 2.474 1.906 4.93 4.157 5.988.607.285 1.17.577 1.805.82.539.208 1.093.382 1.644.557 1.186.376 2.709.584 3.95.618 1.34.037 2.767-.051 4.078-.32.534-.11 1.087-.16 1.606-.325.576-.183 1.14-.435 1.725-.583 1.222-.31 2.346-1.642 3.196-2.533 1.014-1.063 1.548-2.13 1.575-3.604.008-.455.719-.456.71 0-.023 1.312-.357 2.424-1.207 3.447" fill="#12243e"/>
    <path d="M311.03 76.898h-.017a.829.829 0 0 0-.832.842c0 .172.013.254.038.34.003.088.04.256.078.427l.032.148c.037.176.034.376.03.59v.172c0 .188.059.362.164.504a8.64 8.64 0 0 0 1.205 3.204c.92 1.473 1.932 2.5 3.006 3.048a25.54 25.54 0 0 0 3.955 1.602c.683.217 1.386.321 2.067.422l.283.042c.186.028.374.062.562.096.526.096 1.086.195 1.624.183 1.35-.028 2.955-.097 4.619-.41.628-.118 1.38-.275 2.204-.55.144-.05.3-.092.459-.135.41-.11.874-.238 1.253-.488 1.239-.817 2.424-1.9 3.523-3.222.875-1.054 1.295-2.248 1.323-3.758a.823.823 0 0 0-.834-.85c-.488.008-.87.358-.877.832-.023 1.275-.44 2.223-1.437 3.268l-.31.33c-.761.813-1.708 1.825-2.647 2.063-.37.094-.733.227-1.095.36-.22.081-.438.162-.658.232-.308.098-.637.152-.986.21-.191.031-.381.063-.57.102-1.178.241-2.554.348-3.963.31-1.31-.037-2.77-.265-3.812-.596l-.11-.034c-.505-.16-1.012-.322-1.506-.512-.46-.176-.881-.379-1.31-.586l-.462-.22c-2.05-.963-3.642-3.259-3.873-5.585a.84.84 0 0 0-.084-.3 3.167 3.167 0 0 0-.058-.617l-.045-.196c-.034-.147-.072-.29-.077-.444a.843.843 0 0 0-.861-.824" fill="#12243e"/>
    <path d="M335.497 80.393c-.161-.519-.097-1.025-.531-1.433-.484-.453-1.128-.574-1.754-.703-1.186-.244-3.22-.376-3.608 1.165-.112.442-.797.254-.686-.187.385-1.53 2.325-2.062 3.726-1.836.863.14 1.818.342 2.55.831.776.517.742 1.183.989 1.976.134.436-.552.621-.686.187" fill="#12243e"/>
    <path d="M331.978 76.847c-1.565 0-3.167.763-3.546 2.266a.848.848 0 0 0 .63 1.034c.469.117.91-.141 1.026-.601.308-1.22 2.216-.965 3.023-.8.619.129 1.147.237 1.513.579.174.164.214.35.277.693.03.172.063.347.118.524a.834.834 0 0 0 .616.576.898.898 0 0 0 .85-.257.813.813 0 0 0 .175-.803c-.053-.17-.091-.333-.129-.49-.147-.612-.298-1.245-1.06-1.754-.809-.54-1.843-.762-2.747-.908a4.75 4.75 0 0 0-.746-.06M311.125 78.004h-1.755c-.509 0-.979.12-1.493.056-1.052-.129-1.02-1.066-1.02-1.896 0-.66-.086-1.98.773-2.204 1.017-.264 2.093-.28 3.14-.28.459 0 .459.706 0 .706-.601 0-1.181.053-1.778.088-.344.02-.657.044-.996.121-.561.127-.426 1.166-.426 1.57 0 .386-.14 1.133.494 1.212.305.037.6-.022.902-.056.708-.08 1.448-.023 2.16-.023.458 0 .458.706 0 .706" fill="#12243e"/>
    <path d="M310.77 73.18c-1.119 0-2.211.021-3.266.297-1.169.304-1.155 1.748-1.147 2.524l.001.163c-.001.872-.003 2.213 1.459 2.392.366.044.691.012 1.008-.017.179-.017.36-.035.546-.035h1.754a.83.83 0 0 0 .844-.853.83.83 0 0 0-.844-.853c-.204 0-.411-.005-.619-.01-.521-.01-1.061-.024-1.596.036l-.203.025c-.217.03-.408.053-.582.032-.082-.074-.068-.379-.062-.509l.007-.208-.006-.227c-.008-.185-.03-.749.075-.873.277-.052.576-.073.882-.09l.461-.03c.428-.029.852-.058 1.288-.058a.83.83 0 0 0 .844-.853.831.831 0 0 0-.844-.854M323.547 76.328c-.033.775-.51 1.73-1.385 1.759-1.36.043-2.77.262-4.12-.007-.45-.09-.26-.77.188-.68.785.156 1.633.075 2.43.075.928 0 2.043 0 2.176-1.147.04-.341.012-.7 0-1.04-.027-.793-.677-.946-1.322-.99-.979-.068-1.985-.007-2.969-.001a.357.357 0 0 1-.232.09h-.267a.359.359 0 0 1-.355-.354c0-.192.162-.353.355-.353h.122a.333.333 0 0 1 .234-.088c1.418 0 2.876-.11 4.28.132 1.023.176.894 1.917.865 2.604" fill="#12243e"/>
    <path d="M320.43 73.067c-.345 0-.687.006-1.027.013-.335.006-.668.011-1 .011a.867.867 0 0 0-.384.088.855.855 0 0 0 .027 1.707h.267a.835.835 0 0 0 .38-.091c.25-.002.5-.008.75-.014.675-.016 1.372-.03 2.037.015.841.058.848.287.855.508l.008.186c.012.265.024.539-.004.781-.069.598-.499.704-1.678.704-.206 0-.414.005-.623.01-.576.013-1.176.029-1.71-.076a.856.856 0 0 0-.819.274.9.9 0 0 0-.182.862.803.803 0 0 0 .617.525c1.06.211 2.133.142 3.172.074.356-.023.711-.047 1.062-.058 1.153-.037 1.823-1.18 1.87-2.237l-.5-.021.503-.077c.038-.831.128-2.777-1.284-3.02-.775-.133-1.56-.164-2.337-.164M311.125 72.19h-1.755c-.509 0-.979.119-1.493.056-1.052-.129-1.02-1.066-1.02-1.896 0-.66-.086-1.98.773-2.203 1.017-.266 2.093-.281 3.14-.281.459 0 .459.706 0 .706-.601 0-1.181.054-1.778.088a5.88 5.88 0 0 0-.996.122c-.561.127-.426 1.166-.426 1.568 0 .388-.14 1.135.494 1.213.305.037.6-.022.902-.056.708-.08 1.448-.023 2.16-.023.458 0 .458.706 0 .706" fill="#12243e"/>
    <path d="M310.77 67.366c-1.121 0-2.215.022-3.266.298-1.169.303-1.155 1.747-1.147 2.522l.001.164c-.001.872-.002 2.213 1.459 2.392.364.047.691.014 1.009-.017.179-.017.359-.035.545-.035h1.754a.83.83 0 0 0 .844-.853.83.83 0 0 0-.844-.853c-.204 0-.41-.005-.617-.01-.525-.011-1.064-.023-1.599.037l-.204.025c-.217.028-.405.055-.581.03-.081-.073-.067-.378-.061-.508l.007-.208-.006-.227c-.008-.185-.03-.748.075-.873a7.25 7.25 0 0 1 .882-.091l.488-.031c.419-.028.834-.056 1.261-.056a.83.83 0 0 0 .844-.852.831.831 0 0 0-.844-.854M323.547 70.513c-.033.775-.51 1.73-1.385 1.76-1.36.043-2.77.261-4.12-.007-.45-.09-.26-.77.188-.68.785.155 1.633.074 2.43.074.928 0 2.043.001 2.176-1.147.04-.34.012-.699 0-1.04-.027-.793-.677-.946-1.322-.99-.979-.067-1.985-.007-2.969 0a.357.357 0 0 1-.232.09h-.267a.359.359 0 0 1-.355-.355c0-.192.162-.352.355-.352h.122a.329.329 0 0 1 .234-.089c1.418 0 2.876-.109 4.28.132 1.023.176.894 1.917.865 2.604" fill="#12243e"/>
    <path d="M320.43 67.252c-.345 0-.687.007-1.027.014-.335.005-.668.01-1 .01a.855.855 0 0 0-.385.09.856.856 0 0 0-.827.852c0 .471.384.853.855.853h.267a.847.847 0 0 0 .38-.09c.25-.003.498-.009.748-.014.675-.016 1.374-.03 2.04.014.84.057.847.287.854.508l.008.186c.012.265.024.54-.004.781-.068.598-.499.704-1.677.704-.207 0-.415.005-.625.011-.577.015-1.177.03-1.71-.076a.869.869 0 0 0-1.026.695.803.803 0 0 0 .643.966c1.06.211 2.135.14 3.174.073.356-.023.71-.047 1.061-.057 1.152-.038 1.822-1.18 1.868-2.238l-.5-.02.504-.077c.038-.83.128-2.778-1.284-3.02-.775-.134-1.56-.165-2.337-.165M311.645 71.923c-.055.707-.164 1.393-.164 2.11 0 .454-.711.454-.711 0 0-.78.13-1.522.178-2.296.027-.45.711-.459.711 0v.088a.374.374 0 0 1-.014.098" fill="#12243e"/>
    <path d="M311.314 70.896a.852.852 0 0 0-.865.812c-.02.292-.05.582-.08.871-.048.467-.1.951-.1 1.454 0 .48.369.841.857.841.487 0 .855-.362.855-.84 0-.45.046-.889.094-1.352.023-.224.047-.449.065-.676l.019-.18c0-.553-.351-.915-.816-.929h-.03M317.78 74.033v-1.635c0-.161-.07-.32-.09-.483-.052-.452.659-.446.713 0 .014.123.089.224.089.352v1.766c0 .455-.712.455-.712 0" fill="#12243e"/>
    <path d="M318.004 71.078a.942.942 0 0 0-.106.006.787.787 0 0 0-.705.889c.012.09.033.18.055.269a.894.894 0 0 1 .031.156v1.635c0 .48.37.84.856.84.488 0 .856-.36.856-.84v-1.766c0-.16-.046-.284-.076-.366-.076-.548-.5-.823-.91-.823M329.647 79.7c-.132.137-.191.337-.266.507-.112.254-.465.547-.652.755-.45.502-1.36.609-1.963.839-1.245.477-2.856.435-4.157.31-1.21-.115-2.476-.33-3.534-.962-1.045-.625-1.256-2.087-1.256-3.16 0-.503.787-.503.787 0 0 .678.015 1.249.392 1.84.415.654.81.847 1.55 1.107.944.333 2.005.442 2.999.442 1.034 0 2.009-.06 3.01-.331.584-.16 1.42-.421 1.812-.857.23-.26.366-.574.56-.846a.363.363 0 0 1 .374-.311h.066c.348 0 .514.423.278.667" fill="#12243e"/>
    <path d="M329.288 79.352zm-11.075-2.24a.914.914 0 0 0-.595.214.858.858 0 0 0-.3.664c0 1.76.52 3.001 1.5 3.588 1.182.707 2.556.918 3.743 1.031 1.882.18 3.315.068 4.384-.34.159-.063.343-.113.532-.167.567-.159 1.207-.34 1.625-.807.048-.053.109-.113.173-.177.209-.207.446-.442.564-.708l.053-.129c.036-.088.08-.197.116-.235a.892.892 0 0 0 .177-.972.886.886 0 0 0-.816-.542c-.455 0-.782.236-.9.6-.064.095-.123.195-.183.295-.087.148-.172.298-.29.43-.333.371-1.264.624-1.57.707-1.017.277-2.026.314-2.878.314-1.103 0-2.056-.139-2.833-.414-.674-.237-.961-.377-1.295-.903-.292-.459-.314-.9-.314-1.57 0-.502-.383-.879-.893-.879M334.898 62.622c-.977-1.175-2.133-2.28-3.413-3.124-.448-.295-1.085-.394-1.597-.565a15.41 15.41 0 0 0-2.136-.535c-1.51-.284-2.998-.37-4.537-.4-.701-.014-1.412.169-2.101.272-.762.116-1.538.212-2.274.447a25.125 25.125 0 0 0-3.88 1.57c-1.171.6-2.125 1.775-2.808 2.868a8.14 8.14 0 0 0-1.158 3.17.323.323 0 0 0-.135.274c0 .289.018.58-.041.864-.044.21-.095.41-.12.619a.345.345 0 0 0-.017.105v.089c0 .456.695.453.71 0 .01-.25.082-.482.134-.724.045-.216.049-.438.047-.66a.36.36 0 0 0 .087-.205c.246-2.474 1.906-4.931 4.157-5.988.607-.285 1.17-.577 1.805-.82.539-.208 1.093-.381 1.644-.557 1.186-.377 2.709-.584 3.95-.618 1.34-.037 2.767.052 4.078.32.534.11 1.087.16 1.606.325.576.183 1.14.435 1.725.584 1.222.309 2.346 1.64 3.196 2.532 1.014 1.063 1.548 2.13 1.575 3.604.008.455.719.456.71 0-.023-1.311-.357-2.424-1.207-3.447" fill="#12243e"/>
    <path d="M323.14 57.497c-.525 0-1.038.093-1.534.183-.19.034-.379.068-.567.096l-.287.043c-.679.1-1.383.204-2.063.42a25.58 25.58 0 0 0-3.955 1.603c-1.074.549-2.086 1.575-3.006 3.049a8.61 8.61 0 0 0-1.205 3.204.833.833 0 0 0-.164.504l.001.172c.003.212.006.414-.032.589l-.032.15a5.035 5.035 0 0 0-.094.51.44.44 0 0 0-.02.167c0 .56.356.92.831.93.474.003.861-.345.88-.822.004-.154.042-.3.076-.445l.045-.194a3.21 3.21 0 0 0 .058-.62.86.86 0 0 0 .085-.303c.23-2.323 1.823-4.62 3.872-5.582l.46-.22c.43-.205.85-.41 1.31-.585.481-.186.972-.342 1.462-.497l.156-.05c1.04-.331 2.5-.56 3.812-.595 1.411-.044 2.782.067 3.963.31.19.039.38.07.571.102.35.057.678.11.984.209.221.07.441.15.661.233.361.132.723.265 1.092.359.94.238 1.886 1.25 2.648 2.063l.31.329c.996 1.047 1.413 1.994 1.437 3.269a.832.832 0 0 0 .877.833.825.825 0 0 0 .834-.851c-.028-1.51-.448-2.704-1.323-3.757-1.099-1.322-2.285-2.406-3.523-3.223-.38-.25-.843-.375-1.25-.486-.16-.044-.317-.086-.463-.135a15.79 15.79 0 0 0-2.203-.552c-1.663-.313-3.268-.383-4.619-.41h-.085" fill="#12243e"/>
    <path d="M335.497 65.623c-.161.519-.097 1.024-.531 1.433-.484.453-1.128.574-1.754.703-1.186.243-3.22.376-3.608-1.165-.112-.442-.797-.255-.686.187.385 1.529 2.325 2.062 3.726 1.835.863-.14 1.818-.342 2.55-.83.776-.517.742-1.183.989-1.976.134-.436-.552-.622-.686-.187" fill="#12243e"/>
    <path d="M335.83 64.876a.84.84 0 0 0-.812.6 4.479 4.479 0 0 0-.118.522c-.062.343-.102.529-.278.693-.364.342-.894.45-1.454.566-.863.177-2.775.432-3.079-.785a.828.828 0 0 0-1.028-.603.848.848 0 0 0-.629 1.034c.44 1.744 2.516 2.497 4.292 2.206.95-.153 1.941-.37 2.747-.907.762-.51.913-1.141 1.06-1.754.037-.157.075-.32.128-.49a.81.81 0 0 0-.175-.803.9.9 0 0 0-.654-.28" fill="#12243e"/>
    <path d="M329.647 66.316c-.132-.138-.191-.338-.266-.508-.112-.253-.465-.546-.652-.755-.45-.502-1.36-.608-1.963-.839-1.245-.476-2.856-.434-4.157-.31-1.21.115-2.476.33-3.534.963-1.045.625-1.256 2.087-1.256 3.159 0 .504.787.504.787 0 0-.678.015-1.248.392-1.84.415-.653.81-.846 1.55-1.106.944-.333 2.005-.443 2.999-.443 1.034 0 2.009.06 3.01.331.584.16 1.42.422 1.812.858.23.259.366.574.56.846.03.165.156.311.374.311h.066c.348 0 .514-.424.278-.667" fill="#12243e"/>
    <path d="M324.17 63.324c-.496 0-1.03.027-1.609.082-1.187.113-2.56.324-3.744 1.032-.98.586-1.499 1.827-1.499 3.588 0 .5.384.878.894.878s.894-.377.894-.878c0-.672.021-1.112.313-1.571.334-.527.62-.665 1.295-.903.778-.275 1.731-.415 2.833-.415.852 0 1.86.038 2.88.314.305.083 1.236.337 1.57.709.115.13.201.28.288.428.06.1.12.2.184.297a.853.853 0 0 0 .834.598c.423 0 .743-.213.883-.543a.893.893 0 0 0-.179-.97 1.047 1.047 0 0 1-.115-.235l-.053-.127c-.119-.267-.355-.502-.563-.71-.065-.063-.126-.123-.174-.178-.418-.466-1.059-.647-1.625-.807-.19-.054-.373-.105-.533-.165-.74-.283-1.656-.424-2.774-.424M316.386 84.939c-2.465-3.251-4.387-7.165-7.246-10.073-.23-.234.13-.594.36-.36 2.897 2.948 4.83 6.885 7.324 10.177.2.26-.243.514-.438.256M320.88 87c-3.254-4.236-6.36-8.575-9.595-12.812-.198-.26.242-.514.44-.257 1.29 1.69 2.717 3.242 3.95 5.04a176.951 176.951 0 0 0 5.643 7.773c.2.259-.242.513-.438.257M323.025 86.952c-2.616-1.561-4.021-5.384-5.493-7.92-2.284-3.934-5.796-6.92-8.724-10.367-.21-.248.148-.61.36-.36 2.294 2.703 5.084 5.086 7.195 7.923 2.185 2.936 3.677 8.352 6.919 10.285.28.168.025.607-.257.439M325.477 86.918c-1.054-1.85-2.43-3.486-3.743-5.154-.2-.254.157-.616.359-.36 1.339 1.702 2.748 3.37 3.822 5.258.163.284-.276.54-.438.256M328.404 86.159c-.306-.67-1.066-1.3-1.568-1.835a45.335 45.335 0 0 0-1.748-1.76c-.238-.226.122-.585.359-.36a44.765 44.765 0 0 1 1.936 1.962c.477.516 1.166 1.092 1.46 1.736.135.296-.302.554-.44.257M330.417 85.36a16.417 16.417 0 0 0-2.602-3.61c-.225-.238.133-.598.36-.36a16.884 16.884 0 0 1 2.68 3.714c.155.288-.285.545-.438.256M332.87 84.025c-.42-1.253-1.38-1.669-2.296-2.484-.69-.614-1.196-1.396-1.665-2.183-.168-.282.272-.538.439-.257.715 1.203 1.499 2 2.617 2.832.684.509 1.126 1.152 1.395 1.957.104.311-.386.444-.49.135M333.913 82.865c-.706-.828-1.412-1.658-2.163-2.446-.643-.674-1.332-1.294-1.895-2.04-.197-.262.245-.515.439-.257.599.795 1.362 1.45 2.039 2.176.669.716 1.304 1.463 1.938 2.208.212.247-.146.61-.358.36M334.71 81.184l-2.002-2.236c-.218-.243.141-.604.36-.36l2.001 2.237c.218.243-.14.603-.359.359M319.36 77.302c-1.571-1.088-2.655-2.837-3.915-4.258-1.483-1.673-3.032-3.286-4.58-4.899-.226-.236.133-.596.36-.36 1.393 1.453 2.786 2.904 4.132 4.4 1.367 1.52 2.574 3.512 4.26 4.678.268.185.015.626-.256.44M321.875 77.523c-2.425-4.882-5.97-8.42-9.81-12.198-.234-.23.126-.59.36-.36 3.896 3.834 7.43 7.352 9.887 12.303.145.292-.292.549-.438.256" fill="#12243e"/>
    <path d="M322.04 71.546a66.722 66.722 0 0 1-8.4-8.207c-.212-.246.145-.607.36-.358a66.859 66.859 0 0 0 8.398 8.205c.253.208-.108.565-.359.36M319.546 65.315c-1.529-1.082-3.165-2.301-4.12-3.946-.165-.283.274-.539.438-.256.907 1.56 2.49 2.738 3.94 3.764.263.186.011.627-.258.438M321.025 64.106c-.326-.597-.885-1.067-1.237-1.666-.391-.663-.736-1.355-1.1-2.033-.152-.289.286-.546.44-.257.363.679.709 1.37 1.098 2.033.355.603.907 1.062 1.237 1.666.158.287-.281.544-.438.257M322.994 63.708c-.676-1.673-1.663-3.46-1.901-5.263-.043-.323.465-.32.508 0 .23 1.747 1.227 3.504 1.883 5.128.122.303-.37.435-.49.135M326.875 64.436c-.359-.446-.626-.95-.98-1.396-.413-.516-.941-.898-1.424-1.34-.9-.826-1.654-1.777-2.298-2.81-.174-.278.266-.534.438-.257a13.073 13.073 0 0 0 2.487 2.945c.896.787 1.396 1.58 2.137 2.5.203.251-.154.612-.36.358M331.84 67.805c-.985-3.305-3.255-5.863-5.543-8.354-.22-.24.138-.6.36-.359 2.35 2.557 4.662 5.186 5.673 8.578.094.314-.396.448-.49.135M334.494 67.592c-.498-1.577-1.463-2.599-2.283-3.98-.655-1.106-.967-2.335-1.938-3.233-.241-.223.119-.58.36-.359 1.003.926 1.338 2.188 2.017 3.334.835 1.41 1.83 2.51 2.334 4.102.099.313-.391.447-.49.136M308.91 85.493l-.42-.325c-.257-.2.106-.557.36-.36l.419.326c.258.2-.103.557-.36.359M309.352 84.093a6.923 6.923 0 0 1-3.029-1.22c-.264-.19-.01-.63.257-.44a6.567 6.567 0 0 0 2.908 1.17c.322.048.184.537-.136.49M302.674 69.001a11.897 11.897 0 0 1-1.347-2.14c-.14-.294.296-.55.44-.257.351.723.77 1.405 1.266 2.038.201.255-.157.617-.359.36M303.804 66.631a22.303 22.303 0 0 1-1.86-3.525c-.128-.3.363-.433.49-.135a21.575 21.575 0 0 0 1.808 3.403c.18.276-.26.53-.438.257M305.893 62.626a3.076 3.076 0 0 1-1.378-1.952c-.071-.32.419-.455.489-.136a2.567 2.567 0 0 0 1.145 1.649c.275.175.02.616-.256.439M309.065 59.805a4.442 4.442 0 0 1-.512-1.626c-.038-.324.47-.32.508 0 .059.49.207.936.442 1.37.157.287-.283.544-.438.256M312.424 57.947l-1.805-1.69c-.239-.224.121-.582.36-.36l1.804 1.69c.24.224-.12.584-.359.36M318.01 55.76a9.527 9.527 0 0 1-2.413-1.596c-.243-.219.117-.578.36-.359a9.114 9.114 0 0 0 2.31 1.517c.296.136.038.575-.257.438M323.99 55.406l-2.313-1.778c-.52-.4-1.131-.748-1.362-1.392-.11-.31.38-.441.49-.136.238.666 1.22 1.159 1.759 1.574l1.682 1.294c.256.196.003.637-.256.438M327.883 54.84l-.836-1.59c-.152-.29.286-.547.44-.257l.835 1.59c.153.288-.286.546-.439.256M338.12 75.367l-.945-1.063c-.217-.245.14-.605.359-.36l.946 1.064c.217.243-.141.604-.36.359M341.38 74.653l-.426-.316c-.26-.194-.007-.635.256-.44l.425.318c.26.193.007.634-.256.438" fill="#12243e"/>
    <path d="M340.367 74.09a13.043 13.043 0 0 1-1.97-2.26c-.185-.27.255-.525.44-.257.546.793 1.176 1.51 1.889 2.158.243.22-.118.58-.36.36" fill="#12243e"/>
    <path d="M344.477 71.763c-.049-1.028-.545-1.838-.64-2.832-.157-1.65-.288-3.223-.756-4.826-.788-2.699-3.412-5.268-5.796-6.689-2.642-1.573-4.908-2.992-7.998-3.567-2.761-.515-6.28-.668-9.039-.157-2.724.506-5.616 1.63-8.228 2.558-3.182 1.132-5.91 2.828-7.877 5.635-.67.957-.883 2.307-1.363 3.376-.668 1.488-1.017 3.436-1.186 5.047-.317 3.027-.177 5.83.404 8.807.28 1.437.726 2.474 1.529 3.693.865 1.312 1.004 2.675 2.12 3.897 2.227 2.438 4.819 3.261 7.75 4.521 2.585 1.112 5.338 1.006 8.046 1.427a.91.91 0 0 1 .529-.17c2.306 0 4.456-.24 6.734-.453 1.401-.132 2.409-.877 3.686-1.357.593-.223 2.848-1.088 3.272-1.649 1.289-1.706 3.726-2.146 4.985-3.914 1.393-1.956 2.535-3.849 3.268-6.139.802-2.506.683-4.617.56-7.208m1.801 5.83c-.721 2.43-1.41 4.541-2.868 6.606-1.45 2.052-2.356 3.422-4.579 4.783-.318.195-1.357.695-1.566.972-.179.237-.398.627-.68.79-1.283.747-2.784 1.304-4.15 1.911-3.25 1.444-6.35 1.65-9.855 1.667a1.007 1.007 0 0 1-.691.195.986.986 0 0 1-.395.004c-2.841-.525-5.719-.279-8.451-1.454-3.109-1.337-5.697-2.15-8.19-4.538-1.909-1.829-3.047-4.474-4.087-6.863-1.185-2.725-1.377-6.016-1.136-8.937.417-5.028 1.17-12 5.874-15.114 2.451-1.622 4.656-2.686 7.44-3.633 3.015-1.027 6.284-2.263 9.492-2.352 6.086-.167 11.783.92 16.655 4.747 2.013 1.581 3.866 3.372 5.116 5.621 1.439 2.587 1.111 5.638 2.01 8.36.347 1.05.167 2.426.242 3.52.088 1.264.182 2.488-.181 3.714M344.952 20.725c-.051-1.057-.557-1.89-.653-2.912-.161-1.698-.294-3.316-.773-4.965-.804-2.776-3.484-5.419-5.92-6.88-2.698-1.619-5.01-3.077-8.168-3.67-2.82-.528-6.413-.686-9.23-.16-2.782.52-5.735 1.675-8.403 2.631-3.25 1.164-6.037 2.91-8.045 5.796-.684.984-.902 2.372-1.393 3.472-.682 1.532-1.038 3.534-1.21 5.191-.324 3.114-.181 5.996.412 9.06.285 1.478.74 2.544 1.562 3.798.883 1.35 1.024 2.752 2.164 4.01 2.276 2.507 4.923 3.354 7.916 4.65 2.639 1.143 5.45 1.035 8.217 1.467a.932.932 0 0 1 .54-.176c2.354 0 4.55-.245 6.877-.464 1.43-.136 2.46-.903 3.764-1.396.607-.229 2.909-1.119 3.342-1.696 1.316-1.756 3.806-2.208 5.09-4.027 1.425-2.01 2.59-3.958 3.34-6.314.818-2.577.697-4.75.57-7.415m1.84 5.996c-.736 2.501-1.441 4.672-2.93 6.796-1.48 2.111-2.405 3.521-4.675 4.92-.325.2-1.386.715-1.6 1-.182.243-.406.644-.695.813-1.31.768-2.842 1.34-4.237 1.965-3.32 1.486-6.485 1.697-10.065 1.715-.197.154-.454.22-.706.2a.989.989 0 0 1-.403.005c-2.902-.54-5.84-.287-8.631-1.496-3.175-1.375-5.818-2.212-8.364-4.668-1.95-1.882-3.112-4.6-4.174-7.059-1.211-2.803-1.407-6.188-1.16-9.193.425-5.17 1.195-12.345 5.999-15.547 2.502-1.668 4.754-2.762 7.597-3.737 3.08-1.056 6.419-2.327 9.694-2.418 6.216-.173 12.034.945 17.01 4.882 2.057 1.626 3.948 3.47 5.226 5.782 1.469 2.661 1.134 5.8 2.052 8.6.354 1.078.17 2.495.247 3.62.09 1.301.186 2.56-.185 3.82" fill="#12243e"/>
    <path d="M305.313 26.87c.292.354.629.617 1.043.817.302.146.038.595-.264.45a3.355 3.355 0 0 1-1.148-.9c-.212-.255.154-.626.369-.367M335.414 35.204a2.98 2.98 0 0 1 1.524.537c.273.19.013.643-.262.449a2.48 2.48 0 0 0-1.262-.465c-.33-.027-.334-.547 0-.521M337.557 34.561a1.46 1.46 0 0 0 1.002.481c.333.023.336.544 0 .521a1.997 1.997 0 0 1-1.37-.634c-.23-.243.138-.612.368-.368M324.735 2.306V1.98c0-.335.52-.336.52 0v.326c0 .335-.52.335-.52 0M304.069 24.446l3.283 1.905c.29.168.029.618-.262.449-1.095-.634-2.19-1.27-3.284-1.905-.29-.168-.028-.618.263-.45M302 20.658c-.086-1.178-1.407-1.824-1.403-3.062 0-.335.522-.335.52 0-.004 1.173 1.316 1.868 1.403 3.062.025.335-.496.333-.52 0M302.315 17.409a18.714 18.714 0 0 1-1.223-2.773c-.11-.318.393-.454.502-.138.319.915.708 1.796 1.17 2.647.16.295-.29.559-.45.264M304.668 15.155c-1.047-.997-2.113-2.085-2.34-3.574-.052-.328.45-.47.501-.14.215 1.405 1.221 2.406 2.207 3.346.243.23-.125.599-.368.368M306.5 11.69a7.868 7.868 0 0 1-2.62-2.451c-.188-.278.264-.54.45-.263a7.287 7.287 0 0 0 2.433 2.265c.291.167.028.617-.263.449M307.92 9.507a14.34 14.34 0 0 0-1.635-1.41c-.267-.197-.008-.65.263-.45.617.455 1.197.95 1.74 1.491.237.238-.13.606-.368.37M310.62 7.786a33.99 33.99 0 0 1-2.261-1.551c-.265-.198-.006-.65.263-.45a33.975 33.975 0 0 0 2.262 1.55c.283.18.02.63-.264.45M313.087 5.424l-.768-.75c-.24-.236.128-.604.37-.369l.767.751c.24.234-.129.602-.369.368M319.61 3.206c-.431-.18-.722-.48-.848-.937-.09-.323.412-.46.502-.138.075.27.219.462.485.572.304.127.17.632-.14.503M310.127 33.916a31.318 31.318 0 0 1-1.77-1.63c-.238-.235.13-.604.37-.367a31.727 31.727 0 0 0 1.77 1.629c.254.218-.115.584-.37.368M311.637 32.782l-2.234-1.498c-.529-.354-1.11-.66-1.503-1.17-.204-.265.248-.524.45-.263.424.55 1.216.917 1.785 1.299.59.394 1.177.788 1.765 1.183.277.185.016.636-.263.449M311.474 29.555a23.128 23.128 0 0 1-3.678-2.492c-.259-.214.112-.58.368-.368 1.114.92 2.305 1.72 3.574 2.41.294.16.031.61-.264.45M311.838 26.875a19.975 19.975 0 0 1-3.79-2.131c-.27-.193-.01-.645.263-.45a19.941 19.941 0 0 0 3.79 2.132c.307.13.042.58-.263.449M312.054 24.191a9.76 9.76 0 0 1-3.529-1.909c-.257-.216.113-.583.368-.368a9.084 9.084 0 0 0 3.3 1.775c.32.096.184.599-.139.502M311.681 17.217c-1.093-.504-2.863-.939-3.299-2.213-.108-.317.395-.454.502-.139.197.58.761.836 1.275 1.08.591.28 1.19.548 1.785.823.303.14.04.59-.263.45M311.138 13.875a7.685 7.685 0 0 1-2.405-1.786c-.226-.247.141-.617.368-.368a7.337 7.337 0 0 0 2.3 1.705c.302.143.04.593-.263.449M316.819 19.886a18.957 18.957 0 0 1-3.017-1.35c-.293-.164-.03-.614.264-.45.928.516 1.889.948 2.892 1.298.314.11.178.613-.14.502M317.926 18.319l-2.892-1.74c-.287-.171-.025-.622.263-.448l2.893 1.738c.286.173.025.623-.264.45M319.807 16.352a16.098 16.098 0 0 0-1.816-1.49c-.273-.193-.013-.645.262-.45.68.477 1.321 1 1.923 1.572.243.231-.126.598-.369.368M321.5 14.515l-1.296-1.33c-.335-.344-.655-.67-.77-1.149-.08-.326.423-.464.502-.138.118.492.554.836.895 1.184l1.037 1.065c.235.24-.134.608-.368.368M323.375 12.421l-1.095-1.001c-.248-.228.12-.595.368-.369l1.094 1.002c.248.226-.12.595-.368.368M329.964 31.857c.231.169.468.306.735.41.31.121.175.625-.138.503a3.736 3.736 0 0 1-.86-.463c-.268-.196-.008-.648.263-.45M330.845 30.1c.48.24.921.525 1.344.854.264.206-.107.572-.368.37a7.459 7.459 0 0 0-1.24-.775c-.298-.15-.036-.599.264-.45M325.859 22.065c1.335.746 2.725 1.44 4.008 2.274 1.284.834 2.267 1.898 3.753 2.417.314.11.178.614-.14.502-1.301-.456-2.204-1.222-3.285-2.043-1.405-1.066-3.063-1.841-4.6-2.701-.292-.163-.03-.613.264-.449M334.122 24.72c.61.413 1.325 1.1 2.05 1.276.475.116.904.045 1.174.53.163.292-.286.554-.451.261-.174-.314-.575-.22-.861-.289-.232-.055-.437-.17-.641-.292-.527-.316-1.026-.692-1.534-1.037-.276-.187-.015-.638.263-.45M325.341 18.904c.496.19 1.004.38 1.452.67.45.29.796.78 1.323.923.324.087.187.589-.138.502-.439-.118-.73-.396-1.066-.684-.5-.431-1.098-.675-1.709-.91-.31-.117-.175-.621.138-.501M325.421 16.136c.79.49 1.603.937 2.438 1.344.301.147.038.596-.263.45a27.637 27.637 0 0 1-2.438-1.344c-.284-.176-.023-.627.263-.45M326.52 13.778c.688.264 1.355.572 2.001.93.293.163.031.613-.263.45a14.557 14.557 0 0 0-1.877-.877c-.31-.12-.175-.623.139-.503M328.775 11.822c.44.574.993 1.02 1.636 1.35.298.154.035.604-.263.45a5.374 5.374 0 0 1-1.823-1.537c-.204-.266.248-.525.45-.263M330.82 10.62a26.537 26.537 0 0 0 1.81 1.502c.264.2.005.652-.262.45a27.931 27.931 0 0 1-1.915-1.584c-.25-.225.12-.593.368-.368M334.313 10.458a6.09 6.09 0 0 0 2.905 1.819c.322.092.185.595-.138.503a6.586 6.586 0 0 1-3.135-1.954c-.223-.25.144-.618.368-.368M314.29 25.238c2.01 1.23 3.938 2.388 6.155 3.22.311.117.177.62-.138.503-2.248-.844-4.24-2.023-6.28-3.274-.285-.175-.023-.625.264-.45M317.623 29.718c1.675 1.008 3.627 1.134 5.302 2.178.283.176.022.628-.264.45-1.675-1.044-3.619-1.166-5.3-2.178-.287-.173-.025-.623.263-.45M308.798 18.789a115.099 115.099 0 0 0 6.917 3.88c.298.153.035.603-.263.449a115.434 115.434 0 0 1-6.918-3.88c-.286-.174-.024-.624.264-.45" fill="#12243e"/>
    <path d="M331.408 29.825h1.655l2.556 3.89h-1.074l-1.782-2.868a.624.624 0 0 0-1.055 0l-1.78 2.869h-1.104zm1.915-1.242h-2.174a.763.763 0 0 0-.63.334l-3.23 4.86a.756.756 0 0 0-.034.783.758.758 0 0 0 .666.398h2.276a.755.755 0 0 0 .644-.36l1.395-2.244 1.395 2.245a.753.753 0 0 0 .643.359h2.242c.28 0 .537-.154.668-.402a.752.752 0 0 0-.035-.776l-3.192-4.855a.759.759 0 0 0-.634-.342m-11.893-17.18h2.737l-9.438 10.339a.623.623 0 0 0-.026.807l8.75 10.942h-2.963l-8.054-10.223a.62.62 0 0 0-1.108.385v9.838h-2.421V11.404h2.42v8.085c0 .338.272.614.61.62l.847.015c.168 0 .34-.065.459-.19zm3.556-1.242h-3.703a.899.899 0 0 0-.643.272l-8.07 8.407v-7.802a.884.884 0 0 0-.89-.877h-3.126a.883.883 0 0 0-.888.877v22.819c0 .484.398.878.888.878h3.127c.49 0 .889-.394.889-.878v-8.41l7.05 8.95c.167.21.43.338.7.338h3.885a.88.88 0 0 0 .789-.477.855.855 0 0 0-.095-.947l-8.894-11.122 9.64-10.564a.872.872 0 0 0 .144-.965.898.898 0 0 0-.803-.5m7.828 16.793c-4.608 0-7.705-3.177-7.705-7.907 0-4.855 3.434-8.248 8.35-8.248 1.469 0 2.757.313 3.56.634l-.397 1.353c-.708-.303-1.741-.576-3.163-.576-4.348 0-6.293 3.365-6.293 6.702 0 3.968 2.487 6.633 6.192 6.633 1.446 0 2.48-.295 3.324-.63l.295 1.299c-.877.37-2.367.74-4.163.74m.645-17.398c-5.648 0-9.591 3.904-9.591 9.49 0 5.473 3.595 9.152 8.946 9.152 2.279 0 4.157-.56 5.073-1.038a.756.756 0 0 0 .389-.835l-.51-2.25a.759.759 0 0 0-1.05-.52c-.821.36-1.83.749-3.358.749-3.008 0-4.951-2.116-4.951-5.392 0-2.518 1.325-5.458 5.052-5.458 1.567 0 2.546.37 3.09.682a.77.77 0 0 0 .656.045.751.751 0 0 0 .448-.493l.68-2.31a.756.756 0 0 0-.387-.89c-.861-.43-2.552-.932-4.487-.932" fill="#12243e"/>
  </g>
</svg>
