<svg xmlns="http://www.w3.org/2000/svg" aria-hidden="true" style="width: 0px; height: 0px; overflow: hidden; position: absolute;" version="1.1">

		<symbol id="menu" viewBox="0 0 42.667 32">
			<defs></defs><g  transform="matrix(1.33333 0 0 -1.33333 0 32)"><path d="M30 20H2c-1.1 0-2 .9-2 2s.9 2 2 2h28c1.1 0 2-.9 2-2s-.9-2-2-2m0-10H2c-1.1 0-2 .9-2 2s.9 2 2 2h28c1.1 0 2-.9 2-2s-.9-2-2-2m0-10H2C.9 0 0 .9 0 2s.9 2 2 2h28c1.1 0 2-.9 2-2s-.9-2-2-2" fill="currentColor"></path></g>
		</symbol>		

</svg>
