<svg xmlns="http://www.w3.org/2000/svg" xmlns:xlink="http://www.w3.org/1999/xlink" width="0" height="0" style="position:absolute">
	
		<symbol id="chain" viewBox="0 0 579.904 572.675">
			<g fill="currentColor"><path d="M282.683 260.401c-6.154-4.865-15.64-2.59-22.806-2.032-10.246.793-18.076 2.013-26.722 8.045-6.573 4.584-13.722 9.566-15.58 17.768-.925 4.063-.46 8.364-.673 12.484-.205 4.088-.715 7.6 1.745 11.075 1.086 1.535 3.635.07 2.54-1.481-3.282-4.636-1.609-15.906-.782-21.296 1.205-7.838 9.976-13.044 15.924-17.192 6.69-4.666 13.845-6.18 21.874-6.37 6.479-.152 16.807-3.348 22.4 1.078 1.471 1.162 3.567-.906 2.08-2.079"></path><path d="M292.673 273.398c-4.912-3.553-13.326-2.016-18.943-1.742-7.907.381-16.33 1.69-23.547 5.09-6.89 3.242-14.817 8.68-17.456 16.22-3.28 9.374.18 19.143.418 28.731.044 1.893 2.984 1.897 2.938 0-.173-7.013-1.826-13.879-1.916-20.888-.122-9.625 7.88-16.497 15.662-20.66 6.49-3.473 15.289-5.364 22.6-5.501 5.445-.106 14.065-2.107 18.762 1.288 1.539 1.113 3.003-1.439 1.48-2.538"></path><path d="M295.6 283.686c-3.267 2.498-7.05 2.715-11.018 2.739-3.696.023-8.44 2.184-12.01 3.21-6.875 1.977-12.857 5.249-17.285 10.983-9.445 12.235-5.972 27.04-1.516 40.576.591 1.79 3.427 1.024 2.836-.781-4.956-15.061-7.412-28.621 3.992-41.317 5.227-5.818 14.815-7.228 22.003-9.13 5.143-1.357 10.007-.321 14.48-3.742 1.487-1.134.021-3.69-1.483-2.538"></path><path d="M324.654 293.824c-4.461-1.686-7.71-1.332-12.199.024-5.333 1.606-10.753 2.333-16.178 3.588-8.532 1.97-14.49 6.36-19.631 13.336-5.583 7.573-8.793 17.414-9.64 26.7-.91 9.96 4.601 17.72 8.96 26.117.872 1.685 3.41.2 2.537-1.48-3.925-7.563-8.297-13.947-8.617-22.776-.319-8.752 3.744-18.027 8.14-25.337 4.495-7.474 10.747-11.527 19.035-13.727 3.154-.836 6.409-1.315 9.626-1.844 6.006-.987 10.964-4.119 17.187-1.765 1.777.672 2.537-2.172.78-2.836m-16.608 83.331c-3.296-10.665-10.77-22.367-1.85-32.373 1.26-1.41-.813-3.497-2.077-2.08-9.858 11.06-2.64 23.15 1.09 35.233.557 1.807 3.397 1.035 2.837-.78m36.364 12.58c-8.996-9.494-9.85-20.293-9.858-32.765 0-1.894-2.94-1.894-2.94 0 .013 13.31 1.19 24.79 10.72 34.843 1.306 1.377 3.382-.704 2.078-2.079m29.096-4.639c-9.364-4.589-6.738-16.686-6.62-25.186.026-1.896-2.914-1.895-2.94 0-.134 9.667-2.494 22.546 8.078 27.724 1.692.832 3.186-1.707 1.48-2.538m29.694-17.406c-8.496-9.267-8.379-22.396-8.387-34.235 0-1.894-2.94-1.894-2.94 0 .008 12.707.167 26.41 9.248 36.314 1.287 1.4 3.359-.684 2.079-2.08m32.712-27.275c-2.536-8.088-2.882-16.184-2.888-24.593 0-1.895-2.94-1.895-2.94 0 .008 8.68.377 17.036 2.992 25.373.565 1.803 3.405 1.033 2.836-.78m19.106-51.439c-.633-1.773-3.473-1.008-2.836.78 2.982 8.351 8.476 15.435 8.766 24.595.06 1.892 3 1.897 2.94 0-.302-9.56-5.762-16.667-8.87-25.375m36.363-.65c-4.95-5.024-11.023-11.494-9.91-19.146.271-1.853-2.562-2.653-2.837-.78-1.29 8.898 4.813 16.06 10.668 22.004 1.333 1.352 3.41-.728 2.08-2.078m25.415-47.462c-.05-1.889-2.988-1.895-2.94 0 .182 6.991 2.758 13.596 2.94 20.58.049 1.89 2.986 1.895 2.94 0-.183-6.992-2.76-13.597-2.94-20.578m17.634-33.801c.214-1.884-2.732-1.864-2.937 0-1 8.925 6.928 14.924 7.348 23.513.093 1.887 3.03 1.895 2.939 0-.42-8.55-8.314-14.88-7.35-23.515m17.587-3.33c-1.496-7.022-4.093-13.994-2.94-21.264.293-1.854-2.536-2.651-2.836-.78-1.25 7.884 1.315 15.189 2.94 22.826.396 1.854 3.23 1.067 2.836-.782m-240.98-71.624c-.035-1.894-2.975-1.899-2.94 0 .209 10.588 2.875 20.83 4.462 31.253.287 1.87 3.117 1.073 2.836-.781-1.55-10.16-4.155-20.147-4.357-30.472m29.193.73c-4.472-6.566-4.202-15.146-4.208-22.774 0-1.896-2.939-1.896-2.939 0 .007 8.121-.153 17.266 4.61 24.253 1.062 1.556 3.607.09 2.537-1.48m24.984-24.985c-4.05-7.473-2.823-16.085-2.738-24.245.02-1.896-2.918-1.894-2.94 0-.09 8.76-1.193 17.726 3.142 25.726.9 1.667 3.44.184 2.536-1.481M388.93 68.91v22.045c0 1.893 2.94 1.893 2.94 0V68.91c0-1.895-2.94-1.895-2.94 0m32.133 12.486c-2.899-4.92-1.35-11.484-1.268-16.896.027-1.897-2.912-1.893-2.94 0-.09 6.03-1.567 12.886 1.672 18.378.96 1.633 3.501.156 2.536-1.48m29.595-15.428c-.046-1.891-2.986-1.896-2.94 0 .2 7.937 2.74 15.582 2.94 23.517.045 1.89 2.986 1.897 2.938 0-.2-7.937-2.737-15.583-2.938-23.516m14.749 18.716c-1.373 5.941-1.516 11.952-1.521 18.027 0 1.893 2.938 1.893 2.938 0 .007-5.814.101-11.555 1.419-17.247.424-1.843-2.41-2.627-2.836-.78M280.605 232.476c-6.48 6.336-14.358 12.486-23.947 11.328-1.876-.227-1.857 2.714 0 2.938 10.328 1.252 19.03-5.349 26.027-12.186 1.354-1.328-.726-3.405-2.08-2.08m27.925 16.168c-9.376 8.686-19.819 5.657-31.295 5.448-1.896-.035-1.896 2.905 0 2.938 12.563.231 23.298 3.027 33.374-6.308 1.393-1.293-.691-3.365-2.08-2.08m37.982 4.708c-11.747 16.56-31.708 16.903-50.17 16.908-1.895 0-1.895 2.94 0 2.94 19.72-.009 40.271-.836 52.706-18.366 1.101-1.55-1.453-3.014-2.536-1.482"></path><path d="M375.703 229.107c-.757 35.022-31.352 54.14-63.196 57.317-1.866.186-1.888 3.129 0 2.938 17.24-1.718 33.253-6.672 46.6-18.065 12.364-10.557 19.184-26.073 19.536-42.19.04-1.9-2.9-1.892-2.94 0"></path><path d="M383.052 248.212c-.552 25.874-21.557 45.053-47.03 45.561-1.894.036-1.894 2.976 0 2.939 27.093-.539 49.386-21.019 49.969-48.5.04-1.898-2.9-1.892-2.939 0M103.81 530.395c-.026-1.896-2.969-1.899-2.94 0 .086 6.13 1.328 12.56-1.266 18.364-.772 1.715 1.76 3.21 2.534 1.481 2.867-6.4 1.768-13.06 1.672-19.846m36.743 8.817c-.019-1.893-2.957-1.897-2.94 0 .076 7.459 1.65 16.21-2.739 22.775-1.056 1.58 1.49 3.048 2.539 1.481 4.721-7.061 3.221-16.24 3.14-24.256m41.1-6.268c-.35-1.863-3.184-1.072-2.837.78 1.246 6.632-4.094 14.605-8.44 19.147-1.308 1.369.765 3.449 2.08 2.08 5.177-5.414 10.668-14.195 9.196-22.007m30.917-11.367c-.007 10.024-.238 19.867-5.68 28.652-1 1.616 1.541 3.09 2.54 1.483 5.717-9.227 6.072-19.573 6.077-30.135 0-1.896-2.937-1.896-2.937 0m30.861-19.106c-.027-1.895-2.968-1.897-2.939 0 .134 8.485 3.158 20.426-3.977 26.885-1.407 1.275.676 3.347 2.077 2.079 7.923-7.168 4.987-19.575 4.84-28.964m21.995-26.845c-.467-1.838-3.304-1.056-2.837.78 2.738 10.81 5.184 20.62 1.469 31.553-.608 1.8 2.228 2.566 2.836.781 3.881-11.43 1.4-21.761-1.47-33.114m26.306-23.866c-1.068-1.549-3.617-.082-2.536 1.48 4.107 5.964 5.93 18.256-.943 22.978-1.552 1.065-.086 3.613 1.48 2.537 8.25-5.67 7.12-19.565 1.999-26.995m18.877-25.284c-1.26-1.418-3.33.667-2.078 2.08 4.109 4.635 4.324 15.044 1.24 20.266-.968 1.636 1.573 3.112 2.536 1.48 3.808-6.438 3.336-18.147-1.698-23.824m23.945-15.128c-.024-1.895-2.963-1.898-2.94 0 .11 8.841 1.36 17.613 1.47 26.454.023 1.895 2.962 1.898 2.94 0-.11-8.841-1.36-17.613-1.47-26.454m-241.03-45.561c-.06-1.891-3.002-1.898-2.938 0 .274 8.566 4.133 16.433 4.41 24.986.06 1.89 3 1.896 2.938 0-.275-8.568-4.134-16.435-4.41-24.986m24.984-26.455c-.053-1.892-2.992-1.897-2.938 0 .173 6.028 2.798 11.587 2.938 17.637.047 1.89 2.987 1.896 2.94 0-.14-6.057-2.766-11.634-2.94-17.637M142.022 307c-.03-1.894-2.973-1.898-2.938 0 .114 6.884 1.377 13.684 1.469 20.576.027 1.894 2.965 1.897 2.94 0-.093-6.892-1.356-13.692-1.47-20.576m24.983-22.044v17.636c0 1.893 2.94 1.893 2.94 0v-17.638c0-1.893-2.94-1.893-2.94 0m25.727-23.313c-1.544-1.103-3.015 1.447-1.481 2.537 1.992 1.422 1.12 8.63 1.088 10.714-.05 3.354-.312 6.706-.348 10.062-.02 1.899 2.92 1.894 2.938 0 .05-4.72.432-9.417.346-14.138-.058-2.858.08-7.307-2.543-9.175m24.244-22.245c-.024-1.896-2.964-1.9-2.94 0 .094 7.36 1.125 14.554-1.419 21.653-.639 1.788 2.2 2.552 2.836.78 2.636-7.35 1.619-14.796 1.523-22.435m27.925-9.791c0-1.898-2.94-1.898-2.94 0v.973c0 .037.017.06.021.095.1 4.858.714 11.347-2.53 15.031-1.248 1.416.821 3.503 2.078 2.08 4.168-4.732 3.371-12.3 3.371-18.18"></path></g><path d="M52.71 334.226a6.701 6.701 0 0 1 2.42-2.796c26.04-30.128 46.01-47.546 74.74-74.982 16.934-16.167 33.699-32.413 49.81-49.387 6.873-7.237 17.605-11.258 26.125-16.305 6.616-3.92 13.33-8.373 20.422-11.743a49.288 49.288 0 0 0-3.997-5.176c-1.212-1.794-2.007-3.568-2.484-5.302-21.93 10.3-42.818 24.52-58.425 40.95-31.448 33.127-56.44 53.553-88.677 85.924-10.247 10.288-22.084 21.701-32.844 34.11.15.037.293.107.445.149C15.488 358.024-2.056 396.408 3.8 434.414c6.823 44.315 38.93 75.648 69.373 105.422 13.221 12.926 25.375 18.434 42.403 25.126 18.502 7.277 38.54 5.249 57.928 2.741 21.085-2.732 39.273-12.079 57.29-23.064 22.513-13.719 37.32-28.51 54.756-48.064 25.753-28.885 43.57-47.18 70.74-74.745 12.837-13.023 25.436-26.673 36.1-41.61-6.04 2.669-12.356 4.366-18.824 5.266-22.43 27.65-48.719 53.633-73.68 78.956-14.12 14.327-18.524 18.87-31.61 34.15-1.238.357-2.406 1.111-3.297 2.438-8.506 12.641-27.252 25.058-39.997 33.384-15.008 9.813-31.91 18.28-49.64 21.286-16.436 2.788-36.566 4.787-52.509-.512-18.4-6.112-31.237-13.78-45.025-27.262-12.773-12.494-27.96-24.59-37.973-39.507-9.238-13.752-17.896-30.805-22.587-46.608-10.957-36.914 8.125-77.64 32.607-105.251.142.157.293.309.44.466.784-.946 1.616-1.86 2.414-2.8" fill="currentColor"></path><path d="M52.71 334.226a6.701 6.701 0 0 1 2.42-2.796c26.04-30.128 46.01-47.546 74.74-74.982 16.934-16.167 33.699-32.413 49.81-49.387 6.873-7.237 17.605-11.258 26.125-16.305 6.616-3.92 13.33-8.373 20.422-11.743a49.288 49.288 0 0 0-3.997-5.176c-1.212-1.794-2.007-3.568-2.484-5.302-21.93 10.3-42.818 24.52-58.425 40.95-31.448 33.127-56.44 53.553-88.677 85.924-10.247 10.288-22.084 21.701-32.844 34.11.15.037.293.107.445.149C15.488 358.024-2.056 396.408 3.8 434.414c6.823 44.315 38.93 75.648 69.373 105.422 13.221 12.926 25.375 18.434 42.403 25.126 18.502 7.277 38.54 5.249 57.928 2.741 21.085-2.732 39.273-12.079 57.29-23.064 22.513-13.719 37.32-28.51 54.756-48.064 25.753-28.885 43.57-47.18 70.74-74.745 12.837-13.023 25.436-26.673 36.1-41.61-6.04 2.669-12.356 4.366-18.824 5.266-22.43 27.65-48.719 53.633-73.68 78.956-14.12 14.327-18.524 18.87-31.61 34.15-1.238.357-2.406 1.111-3.297 2.438-8.506 12.641-27.252 25.058-39.997 33.384-15.008 9.813-31.91 18.28-49.64 21.286-16.436 2.788-36.566 4.787-52.509-.512-18.4-6.112-31.237-13.78-45.025-27.262-12.773-12.494-27.96-24.59-37.973-39.507-9.238-13.752-17.896-30.805-22.587-46.608-10.957-36.914 8.125-77.64 32.607-105.251.142.157.293.309.44.466.784-.946 1.616-1.86 2.414-2.8z" fill="none" stroke="currentColor" stroke-width="5.333" stroke-miterlimit="10"></path><path d="M298.913 371.016a85.233 85.233 0 0 0-4.246 5.247c-9.048 10.24-19.673 19.046-29.42 28.6-13.058 12.798-15.613 16.724-28.482 29.716-11.104 11.2-22.702 21.979-35.954 30.603-15.963 10.388-31.863 9.287-49.45 4.119-27.476-8.068-52.727-32.611-48.263-62.772 3.976-26.884 24.694-48.472 42.982-66.79 22-22.04 33.576-34.995 55.642-57.023 9.907-9.887 20.287-20.739 33.73-25.512 19.465-6.914 37.663 4.356 51.12 18.341a205.955 205.955 0 0 0 7.9 8.655 142.125 142.125 0 0 1 9.38 6.481 18.233 18.233 0 0 0 7.498 1.883 77.21 77.21 0 0 0 5.273 2.906 73.766 73.766 0 0 1-3.31-5.748c-8.416-13.178-24.362-35.32-40.132-39.989-.451-.912-1.168-1.752-2.258-2.405-4.973-2.982-13.113-5.238-21.93-4.946-14.867.495-27.727 7.654-39.018 16.647-31.54 25.13-47.485 47.63-75.84 76.036-21.125 21.161-40.591 45.89-43.409 76.694-2.9 31.732 25.12 55.702 51.684 66.73 34.104 14.164 60.62 2.633 86.776-20.454 16.45-14.52 21.459-21.269 36.679-37.036 14.232-14.748 30.229-27.766 43.266-43.64.399-.482.739-.996 1.123-1.484-3.841-1.478-7.633-3.044-11.341-4.86" fill="currentColor"></path><path d="M298.913 371.016a85.233 85.233 0 0 0-4.246 5.247c-9.048 10.24-19.673 19.046-29.42 28.6-13.058 12.798-15.613 16.724-28.482 29.716-11.104 11.2-22.702 21.979-35.954 30.603-15.963 10.388-31.863 9.287-49.45 4.119-27.476-8.068-52.727-32.611-48.263-62.772 3.976-26.884 24.694-48.472 42.982-66.79 22-22.04 33.576-34.995 55.642-57.023 9.907-9.887 20.287-20.739 33.73-25.512 19.465-6.914 37.663 4.356 51.12 18.341a205.955 205.955 0 0 0 7.9 8.655 142.125 142.125 0 0 1 9.38 6.481 18.233 18.233 0 0 0 7.498 1.883 77.21 77.21 0 0 0 5.273 2.906 73.766 73.766 0 0 1-3.31-5.748c-8.416-13.178-24.362-35.32-40.132-39.989-.451-.912-1.168-1.752-2.258-2.405-4.973-2.982-13.113-5.238-21.93-4.946-14.867.495-27.727 7.654-39.018 16.647-31.54 25.13-47.485 47.63-75.84 76.036-21.125 21.161-40.591 45.89-43.409 76.694-2.9 31.732 25.12 55.702 51.684 66.73 34.104 14.164 60.62 2.633 86.776-20.454 16.45-14.52 21.459-21.269 36.679-37.036 14.232-14.748 30.229-27.766 43.266-43.64.399-.482.739-.996 1.123-1.484-3.841-1.478-7.633-3.044-11.341-4.86z" fill="none" stroke="currentColor" stroke-width="5.333" stroke-miterlimit="10"></path><path d="M225.12 162.913c27.977-34.346 43.875-47.03 75.847-77.56 10.066-9.609 20.046-19.267 29.89-29.067-2.551-2.018-5.014-4.151-7.456-6.307-.396-.347-.796-.695-1.19-1.044-25.356 25.71-42.246 39.039-70.817 67.726-19.08 19.16-43.675 42.199-56.468 68.374 6.73-5.192 14.539-9.57 22.947-12.963a351.65 351.65 0 0 0 7.248-9.16" fill="currentColor"></path><path d="M225.12 162.913c27.977-34.346 43.875-47.03 75.847-77.56 10.066-9.609 20.046-19.267 29.89-29.067-2.551-2.018-5.014-4.151-7.456-6.307-.396-.347-.796-.695-1.19-1.044-25.356 25.71-42.246 39.039-70.817 67.726-19.08 19.16-43.675 42.199-56.468 68.374 6.73-5.192 14.539-9.57 22.947-12.963a351.65 351.65 0 0 0 7.248-9.16z" fill="none" stroke="currentColor" stroke-width="5.333" stroke-miterlimit="10"></path><path d="M442.599 83.203c-20.55-7.36-43.803-4.416-66.383 10.976-31.533 21.497-36.836 35.612-63.333 62.138-3.945 3.947-7.773 8.07-11.5 12.28a47.979 47.979 0 0 0 12.09 4.087c3.778-4.041 7.614-7.947 11.353-11.693 20.014-20.054 21.4-24.5 42.274-43.64 16-14.664 35.004-27.816 57.968-24.796 22.627 2.973 48.333 23.877 56.11 45.413 8.487 23.501.702 48.957-15.414 67.203 0 0-50.244 50.649-50.253 50.66-11.105 11.203-22.7 21.98-35.956 30.606-15.963 10.387-31.86 9.287-49.446 4.119-15.646-4.6-30.551-14.547-39.68-27.819-2.887-.663-5.796-2.175-8.526-4.783-3.386-3.23-6.29-4.864-10.366-5.938 6.877 22.256 28.669 39.026 49.618 47.725 34.108 14.163 60.623 2.636 86.775-20.456 8.924-7.873 69.4-69.494 72.297-73.021 20.517-24.975 21.47-60.583 4.178-87.64-11.166-17.481-25.65-29.634-41.807-35.421" fill="currentColor"></path><path d="M442.599 83.203c-20.55-7.36-43.803-4.416-66.383 10.976-31.533 21.497-36.836 35.612-63.333 62.138-3.945 3.947-7.773 8.07-11.5 12.28a47.979 47.979 0 0 0 12.09 4.087c3.778-4.041 7.614-7.947 11.353-11.693 20.014-20.054 21.4-24.5 42.274-43.64 16-14.664 35.004-27.816 57.968-24.796 22.627 2.973 48.333 23.877 56.11 45.413 8.487 23.501.702 48.957-15.414 67.203 0 0-50.244 50.649-50.253 50.66-11.105 11.203-22.7 21.98-35.956 30.606-15.963 10.387-31.86 9.287-49.446 4.119-15.646-4.6-30.551-14.547-39.68-27.819-2.887-.663-5.796-2.175-8.526-4.783-3.386-3.23-6.29-4.864-10.366-5.938 6.877 22.256 28.669 39.026 49.618 47.725 34.108 14.163 60.623 2.636 86.775-20.456 8.924-7.873 69.4-69.494 72.297-73.021 20.517-24.975 21.47-60.583 4.178-87.64-11.166-17.481-25.65-29.634-41.807-35.421z" fill="none" stroke="currentColor" stroke-width="5.333" stroke-miterlimit="10"></path><path d="M324.16 170.54c-17.8-11.08-37.766-13.415-58.222-11.444-19.053 1.833-43.033 6.427-59.024 17.564-6.176 4.303-.405 14.553 5.808 10.227 15.75-10.971 39.067-14.674 57.817-16.48 23.295-2.238 45.162 5.573 62.604 21.066 6.683 5.934 15.097 9.032 21.84 15.087 8.955 8.045 16.04 18.137 22.916 27.927 5.304 7.546 13.196 16.335 16.453 25.017 1.78 4.752 4.25 9.066 7.378 13.03 4.693 5.943 12.956-2.44 8.313-8.312-4.819-6.114-6.163-13.946-11.085-20.094-7.648-9.56-13.727-20.303-21.386-29.88-14.685-18.339-33.63-31.388-53.413-43.708" fill="currentColor"></path><path d="M324.16 170.54c-17.8-11.08-37.766-13.415-58.222-11.444-19.053 1.833-43.033 6.427-59.024 17.564-6.176 4.303-.405 14.553 5.808 10.227 15.75-10.971 39.067-14.674 57.817-16.48 23.295-2.238 45.162 5.573 62.604 21.066 6.683 5.934 15.097 9.032 21.84 15.087 8.955 8.045 16.04 18.137 22.916 27.927 5.304 7.546 13.196 16.335 16.453 25.017 1.78 4.752 4.25 9.066 7.378 13.03 4.693 5.943 12.956-2.44 8.313-8.312-4.819-6.114-6.163-13.946-11.085-20.094-7.648-9.56-13.727-20.303-21.386-29.88-14.685-18.339-33.63-31.388-53.413-43.708z" fill="none" stroke="currentColor" stroke-width="5.333" stroke-miterlimit="10"></path><path d="M516.205 43.816c-19.013-17.796-42.697-32.053-68.21-37.882-50.956-11.654-92.98 9-128.71 44.206-5.403 5.32 2.916 13.632 8.312 8.314 16.29-16.048 34.01-30.422 55.595-38.635 22.823-8.687 48.696-6.296 71.779-.017 25.161 6.836 46.746 25.936 64.762 43.732 16.912 16.702 36.054 30.729 42.836 54.714 3.006 10.624 1.974 23.41 2.366 34.385.454 12.7-1.016 24.334-5.4 36.256-4.458 12.114-12.012 21.172-19.592 31.359-8.394 11.273-14.819 23.098-24.4 33.686-27.574 30.447-58.71 57.444-88.673 85.467-22.396 20.947-41.875 44.922-74.834 46.72-21.986 1.196-38.306-8.944-57.209-18.033-19.24-9.248-36.478-25.547-51.49-40.563-9.207-9.208-18.866-18.047-26.326-28.793-5.036-7.255-6.065-15.955-11.346-22.734-4.656-5.969-12.916 2.414-8.315 8.314 1.924 2.473 3.217 9.257 4.608 12.217 2.253 4.78 5.552 9.57 8.847 13.679 8.308 10.346 18.024 19.438 27.393 28.81 19.008 19.006 39.417 33.73 63.43 45.53 10.045 4.937 17.066 8.405 28.058 11.123 9.937 2.456 20.36 2.614 30.473 1.56 39.853-4.156 59.661-35.527 86.457-59.806 33.633-30.481 69.05-60.05 95.188-97.58 13.779-19.78 31.915-41.148 34.16-66.384 2.048-22.997 2.777-50.086-6.996-71.493-10.72-23.453-34.363-40.937-52.763-58.152" fill="currentColor"></path><path d="M516.205 43.816c-19.013-17.796-42.697-32.053-68.21-37.882-50.956-11.654-92.98 9-128.71 44.206-5.403 5.32 2.916 13.632 8.312 8.314 16.29-16.048 34.01-30.422 55.595-38.635 22.823-8.687 48.696-6.296 71.779-.017 25.161 6.836 46.746 25.936 64.762 43.732 16.912 16.702 36.054 30.729 42.836 54.714 3.006 10.624 1.974 23.41 2.366 34.385.454 12.7-1.016 24.334-5.4 36.256-4.458 12.114-12.012 21.172-19.592 31.359-8.394 11.273-14.819 23.098-24.4 33.686-27.574 30.447-58.71 57.444-88.673 85.467-22.396 20.947-41.875 44.922-74.834 46.72-21.986 1.196-38.306-8.944-57.209-18.033-19.24-9.248-36.478-25.547-51.49-40.563-9.207-9.208-18.866-18.047-26.326-28.793-5.036-7.255-6.065-15.955-11.346-22.734-4.656-5.969-12.916 2.414-8.315 8.314 1.924 2.473 3.217 9.257 4.608 12.217 2.253 4.78 5.552 9.57 8.847 13.679 8.308 10.346 18.024 19.438 27.393 28.81 19.008 19.006 39.417 33.73 63.43 45.53 10.045 4.937 17.066 8.405 28.058 11.123 9.937 2.456 20.36 2.614 30.473 1.56 39.853-4.156 59.661-35.527 86.457-59.806 33.633-30.481 69.05-60.05 95.188-97.58 13.779-19.78 31.915-41.148 34.16-66.384 2.048-22.997 2.777-50.086-6.996-71.493-10.72-23.453-34.363-40.937-52.763-58.152z" fill="none" stroke="currentColor" stroke-width="5.333" stroke-miterlimit="10"></path>
		</symbol>
	
		<symbol id="chewron-left" viewBox="0 0 62.1 116">
			<path d="M55.1 1.2C55.9.4 56.9 0 58 0s2.1.4 2.9 1.2c1.6 1.6 1.6 4.2 0 5.8l-51 51 51 51c1.6 1.6 1.6 4.2 0 5.8-1.6 1.6-4.2 1.6-5.8 0L1.2 60.9c-1.6-1.6-1.6-4.2 0-5.8L55.1 1.2z" fill="currentColor"></path>
		</symbol>
	
		<symbol id="chewron-right" viewBox="0 0 62.1 116">
			<path d="M7 114.8c-.8.8-1.8 1.2-2.9 1.2s-2.1-.4-2.9-1.2c-1.6-1.6-1.6-4.2 0-5.8l51-51-51-51c-1.6-1.6-1.6-4.2 0-5.8S5.4-.4 7 1.2l53.9 53.9c1.6 1.6 1.6 4.2 0 5.8L7 114.8z" fill="currentColor"></path>
		</symbol>
	
		<symbol id="close" viewBox="0 0 24.074 24.049">
			<path d="M24.041 1.987L1.98 24.049 0 22.069 22.061.007l1.98 1.98z" fill="currentColor"></path><path d="M22.094 24.042L.033 1.98 2.013 0l22.061 22.062-1.98 1.98z" fill="currentColor"></path>
		</symbol>
	
		<symbol id="envelope" viewBox="0 0 186.767 119.11">
			<g fill="currentColor"><path d="M0 20.26c1.243-1.08 2.285-.687 3.515.21C32.98 42.008 62.483 63.5 91.944 85.046c1.162.852 1.85.756 2.95-.048 29.367-21.47 58.76-42.9 88.152-64.337.344-.25.676-.52 1.038-.74 1.365-.833 2.51-.245 2.662 1.37.039.422.01.85.01 1.275v93.72c0 2.824-.003 2.824-2.854 2.824-60.414 0-120.829.004-181.242-.03-.887 0-1.773-.457-2.66-.7z"></path><path d="M0 1.054C.8.726 1.59.362 2.408.09c.328-.11.724-.019 1.088-.019C63.429.07 123.365.068 183.3.09c1.186 0 2.78-.56 3.285 1.135.483 1.618-1.048 2.157-2.028 2.873-22.472 16.405-44.957 32.792-67.44 49.186-7.164 5.227-14.36 10.414-21.463 15.723-1.62 1.21-2.74 1.313-4.446.067-26.464-19.388-52.981-38.7-79.488-58.029-3.387-2.47-6.779-4.93-10.15-7.423-.574-.424-1.05-.98-1.571-1.474z"></path></g>
		</symbol>
	
		<symbol id="facebook" viewBox="0 0 9.733 20">
			<path d="M0 6.533h2.133v-2c0-.933 0-2.266.667-3.066C3.467.533 4.4 0 6 0c2.667 0 3.733.4 3.733.4L9.2 3.467S8.4 3.2 7.467 3.2C6.667 3.2 6 3.467 6 4.267v2.266h3.333L9.067 9.6H6V20H2.133V9.6H0z" fill="currentColor"></path>
		</symbol>
	
		<symbol id="hands" viewBox="0 0 540.005 413.55">
			<path d="M31.63 99.279c-5.25 4.208-7.837 11.265-10.458 17.252-3.013 6.877-5.977 13.817-7.31 21.236-.343 1.929 2.609 2.76 2.96.816 1.163-6.487 3.637-12.338 6.13-18.398 2.555-6.205 5.401-14.373 10.845-18.74 1.542-1.237-.64-3.392-2.168-2.168m18.398-11.242c-7.532 7.825-15.066 17.977-18.792 28.27-4.106 11.339-9.68 24.032-10.274 36.18-.096 1.974 2.97 1.967 3.067 0 .535-10.986 5.661-22.313 9.176-32.64 3.688-10.83 11.141-21.486 18.988-29.644 1.373-1.424-.793-3.593-2.167-2.166m19.42-16.35c-4.578 4.986-7.514 10.7-9.896 16.992-3.673 9.715-8.04 19.047-11.96 28.648-6.605 16.192-14.953 31.742-16.41 49.463-.16 1.973 2.908 1.957 3.068 0 1.36-16.543 9.009-31.283 15.357-46.339 3.317-7.869 7.067-15.533 10.227-23.464C63.14 88.68 65.4 80.62 71.613 73.852c1.333-1.453-.83-3.626-2.168-2.168m25.861-21.701c-1.445.613-2.106 1.07-2.625 2.704-1.433 4.519-3.856 8.69-5.53 13.13-4.251 11.283-8.09 22.734-13.3 33.623-8.966 18.74-15.807 37.093-16.098 58.152-.026 1.977 3.038 1.976 3.067 0 .284-20.467 6.744-38.45 15.68-56.604 3.806-7.744 7.008-15.84 9.741-24.018a183.64 183.64 0 0 0 5.707-14.875c.644-1.475 3.218-8.747 4.901-9.467 1.816-.77.253-3.413-1.544-2.645m24.216-11.003c-11.557 12.97-16.84 28.81-22.27 44.995-3.223 9.61-6.986 19.226-11.34 28.38-3.338 7.021-7.955 13.68-9.707 21.326-.44 1.924 2.512 2.742 2.956.814 1.848-8.063 6.961-15.468 10.494-22.902 3.404-7.16 6.01-14.7 8.923-22.066 6.75-17.07 10.53-34.263 23.11-48.379 1.313-1.47-.85-3.648-2.166-2.168m26.333-14c-9.27 14.279-14.946 29.606-22.053 44.972-7.287 15.745-15.056 32.47-18.984 49.419-.444 1.925 2.512 2.741 2.96.813 3.844-16.597 11.37-33.367 18.67-48.686 7.243-15.204 12.822-30.748 22.054-44.971 1.083-1.661-1.573-3.197-2.645-1.547m20.437-2.04c-8.327 12.179-11.023 27.859-15.63 41.684-2.65 7.95-5.266 16.09-9.023 23.595-2.863 5.706-5.952 10.754-8.206 16.844-.684 1.86 2.28 2.653 2.96.813 2.407-6.52 5.911-12.156 9.003-18.328 3.11-6.213 4.877-13.017 7.347-19.482 5.473-14.335 7.429-30.76 16.196-43.58 1.12-1.635-1.54-3.168-2.647-1.547m17.613 10.93c-4.981 5.545-7.29 12.103-9.59 19.073-2.72 8.238-7.304 15.36-10.22 23.506-.667 1.864 2.293 2.663 2.957.814 2.303-6.44 5.893-12.175 8.44-18.5 3.192-7.922 4.696-16.167 10.581-22.724 1.318-1.467-.844-3.642-2.168-2.168m3.64 9.26c-.157 1.354-.99 2.592-1.514 3.824-.391.92-.467 1.877-.784 2.82-.934 2.789-2.048 5.426-3.626 7.913-1.062 1.675 1.59 3.21 2.647 1.547 1.725-2.715 2.901-5.614 3.937-8.647.82-2.4 2.112-4.92 2.404-7.457.224-1.96-2.844-1.94-3.065 0m-28.56 119.163c-.97 2.543-2.747 4.658-3.71 7.19-1.165 3.06-2.406 6.05-3.443 9.164-.627 1.88 2.334 2.677 2.957.813.925-2.773 2.027-5.445 3.067-8.173 1.089-2.867 2.989-5.303 4.086-8.179.703-1.85-2.261-2.643-2.958-.813m13.285 5.11c-.184 1.31-1.067 2.276-1.833 3.31-.772 1.048-.964 2.28-1.662 3.348-1.632 2.498-2.59 5.066-2.692 8.053-.066 1.984 2.998 1.973 3.067 0 .05-1.46.308-2.739.895-4.08.497-1.133 1.949-2.495 2.117-3.683.327-2.337 2.728-3.728 3.067-6.133.269-1.93-2.684-2.767-2.96-.813m19.814.345c-4.25 5.328-7.446 10.427-7.602 17.433-.047 1.98 3.018 1.972 3.066 0 .138-6.15 2.987-10.602 6.704-15.266 1.219-1.531-.937-3.712-2.168-2.167m19.179-8.888c-3.706 6.267-6.972 12.89-9.355 19.783-.645 1.872 2.32 2.67 2.96.813 2.293-6.64 5.47-13.008 9.04-19.05 1.01-1.707-1.639-3.246-2.645-1.547m17.218-14.964c-.453 1.517-.786 3.058-1.15 4.6-.39 1.66-1.458 3.026-1.916 4.597-.966 3.325-1.15 6.8-2.907 9.853-.995 1.715 1.66 3.258 2.645 1.547 1.716-2.984 2.151-6.22 2.912-9.527.34-1.48 1.392-3.034 1.903-4.506.653-1.862.91-3.862 1.472-5.751.567-1.896-2.395-2.703-2.959-.813m30.032-6.808c-3.684 3.901-5.434 9.056-5.557 14.368-.044 1.98 3.021 1.973 3.067 0 .104-4.495 1.534-8.894 4.657-12.2 1.357-1.438-.808-3.608-2.167-2.168m18.155 9.509c-2.03 4.563-1.053 9.787-3.064 14.307-.797 1.789 1.844 3.352 2.647 1.546 2.032-4.561 1.057-9.786 3.064-14.308.797-1.788-1.843-3.35-2.646-1.546m17.219 8.542c-1.387 4.823-4.95 8.462-5.164 13.694-.08 1.98 2.984 1.969 3.067 0 .196-4.794 3.769-8.406 5.056-12.88.546-1.902-2.414-2.711-2.96-.814m13.232 3.474c-.074 4.053-1.014 7.944-1.987 11.856-.477 1.92 2.477 2.733 2.96.813 1.036-4.175 2.013-8.347 2.093-12.67.036-1.978-3.03-1.975-3.066 0m25.605 3.68c-.968 2.9-1.847 5.895-3.333 8.575-1.174 2.107-2.566 3.68-2.854 6.142-.23 1.962 2.84 1.94 3.067 0 .28-2.4 2.587-4.66 3.536-6.862.994-2.29 1.75-4.676 2.544-7.04.626-1.88-2.334-2.68-2.96-.816m17.32-.613c-.28 2.6-3.164 4.492-3.954 7.023-.936 2.986-1.146 6.218-1.156 9.329-.002 1.976 3.063 1.976 3.067 0 .008-3.264.067-7.368 1.87-10.204 1.36-2.133 2.951-3.507 3.238-6.147.213-1.964-2.857-1.944-3.065 0m17.373 1.022c-.119 1.684-.713 3.736-1.247 5.344-.665 2.005-.769 4.197-1.612 6.146-.773 1.794 1.864 3.356 2.65 1.546.861-1.994 1.137-4.095 1.69-6.184.596-2.246 1.424-4.507 1.583-6.854.139-1.973-2.93-1.96-3.064 0m-6.943-135.673c-3.51 5.139-3.612 10.876-5.266 16.716-1.732 6.1-3.774 12.44-4.142 18.804-.117 1.974 2.951 1.96 3.064 0 .364-6.22 2.803-11.937 4.034-17.992 1.106-5.422 1.786-11.34 4.956-15.986 1.116-1.636-1.538-3.166-2.646-1.542m24.767-11.556c-8.155 9.187-7.272 22.923-11.213 34.203-2.24 6.424-4.22 14.012-7.454 19.955-1.296 2.376-3.025 5.922-2.168 8.653.592 1.88 3.551 1.079 2.958-.813-.923-2.931 2.37-5.872 3.066-8.384 1.511-5.486 3.554-10.747 5.6-16.048 1.918-4.96 3.334-9.998 4.496-15.18 1.678-7.471 1.494-14.148 6.883-20.215 1.307-1.475-.853-3.65-2.168-2.17m18.157 7.466c-5.929 10.04-8.229 21.613-12.304 32.397-4.002 10.598-9.096 20.315-10.39 31.739-.227 1.964 2.844 1.94 3.064 0 1.253-11.015 6.208-20.764 10.284-30.924 4.2-10.457 6.193-21.841 11.992-31.667 1.009-1.702-1.646-3.244-2.646-1.544m14.15 14.672c-.719 3.912-3.507 8.954-5.052 12.584-2.532 5.955-4.471 12.127-7.088 18.052-4.2 9.51-7.332 17.52-7.332 28.023 0 1.976 3.066 1.976 3.066 0 0-12.007 4.755-21.064 9.228-31.907 2.383-5.781 4.243-11.728 6.914-17.396 1.218-2.578 2.697-5.69 3.222-8.542.355-1.934-2.598-2.758-2.96-.814m13.29 11.243c-4.74 12.156-7.807 24.781-11.444 37.36-1.894 6.541-6.907 19.572-2.71 26.16 1.059 1.661 3.712.125 2.647-1.547-2.503-3.93-.09-9.587.587-13.721.98-6.043 2.978-11.934 4.68-17.8 2.913-10.053 5.404-19.91 9.2-29.64.717-1.84-2.252-2.633-2.96-.813m19.573 14.966c-5.425 7.795-7.887 16.661-10.65 25.637-3.385 11-7.64 20.627-7.955 32.367-.054 1.979 3.013 1.973 3.066 0 .287-10.777 3.867-19.224 7.098-29.232 3.042-9.427 5.344-18.973 11.086-27.226 1.134-1.627-1.525-3.158-2.646-1.547m17.218 13.652c-4.368 10.916-8.416 22.04-13.217 32.777-3.76 8.392-6.944 16.59-7.276 25.88-.072 1.98 2.995 1.97 3.067 0 .36-10.083 4.454-18.019 8.12-27.184 4.089-10.221 8.174-20.44 12.267-30.661.734-1.84-2.232-2.624-2.96-.813m13.231 15.737c-.576 5.073-3.027 9.89-4.033 14.922-.99 4.94-1.982 9.88-2.943 14.827-1.621 8.315-5.29 16.004-5.29 24.417 0 1.974 3.067 1.974 3.067 0 0-8.582 3.983-17.472 5.635-25.96.977-5.012 1.993-10.014 2.997-15.022.907-4.524 3.107-8.564 3.632-13.184.222-1.966-2.845-1.94-3.065 0m13.284 7.154c-.56 9.794-4.461 19.52-6.459 29.102-1.706 8.184-4.273 16.728-4.78 25.064-.12 1.976 2.946 1.962 3.066 0 1.12-18.336 10.197-35.902 11.24-54.166.112-1.976-2.958-1.964-3.067 0m18.605 8.426c-7.164 15.036-9.405 31.624-14.46 47.373-.605 1.888 2.356 2.692 2.96.817 4.97-15.482 7.106-31.866 14.146-46.645.849-1.773-1.794-3.33-2.646-1.547M109.928 236.904c-1.367 4.973-3.95 9.446-4.14 14.712-.072 1.98 2.994 1.97 3.066 0 .18-4.943 2.744-9.222 4.034-13.898.522-1.91-2.436-2.72-2.96-.813m9.146 13.69c-.073 6.171-1.124 12.12-3.013 17.987-.605 1.888 2.353 2.692 2.96.818 1.968-6.128 3.04-12.367 3.12-18.804.021-1.979-3.044-1.976-3.067 0m12.263 4.09c-.213 6.263-2.853 12.112-3.067 18.392-.066 1.978 3 1.974 3.067 0 .213-6.266 2.853-12.117 3.067-18.394.064-1.982-3-1.974-3.067 0m14.307-8.178v12.267c0 1.973 3.066 1.973 3.066 0v-12.267c0-1.973-3.066-1.973-3.066 0m5.109 41.902c-.14 5.516-1.923 10.817-2.043 16.356-.04 1.973 3.024 1.97 3.067 0 .12-5.534 1.9-10.836 2.041-16.356.05-1.979-3.016-1.974-3.065 0m11.243 10.224c-.227 2.85-1.818 5.293-2.044 8.17-.267 3.36 0 6.854 0 10.223 0 1.976 3.066 1.976 3.066 0v-9.165c0-3.267 1.787-6 2.044-9.23.155-1.973-2.91-1.96-3.066 0m8.177 9.198v11.24c0 1.976 3.067 1.976 3.067 0v-11.24c0-1.975-3.067-1.975-3.067 0m15.33-7.156v7.154c0 1.978 3.067 1.978 3.067 0v-7.154c0-1.976-3.066-1.976-3.066 0m9.408 38.064c-3.048 4.229-4.238 8.893-4.302 14.057-.024 1.978 3.044 1.976 3.067 0 .057-4.664 1.133-8.701 3.88-12.515 1.16-1.602-1.501-3.133-2.645-1.542m8.015 5.477c-1.138 5.026-3.946 9.466-4.138 14.713-.073 1.979 2.992 1.97 3.064 0 .178-4.91 2.962-9.179 4.033-13.901.435-1.923-2.52-2.741-2.959-.813m12.211 7.56v14.306c0 1.98 3.067 1.98 3.067 0v-14.307c0-1.974-3.067-1.974-3.067 0m12.473-3.837c-1.186 2.53-1.23 5.173-1.23 7.927 0 1.977 3.066 1.977 3.066 0 0-2.136-.116-4.4.81-6.382.836-1.78-1.806-3.335-2.646-1.546m4.902 31.432v11.244c0 1.973 3.066 1.973 3.066 0v-11.243c0-1.976-3.066-1.976-3.066 0m12.237 18.044c.297-3.235.027-6.616.027-9.867 0-1.977-3.067-1.977-3.067 0 0 3.524.227 7.126-.099 10.634-.218 2.4-.706 4.82.154 7.146.681 1.836 3.645 1.04 2.957-.816-.832-2.242-.185-4.786.028-7.097m12.29.35c.071-1.978-2.994-1.969-3.066 0-.132 3.614-1.959 6.977-.967 10.627.52 1.907 3.475 1.096 2.956-.814-.869-3.2.956-6.583 1.076-9.814m7.155-7.15v9.198c0 1.978 3.067 1.978 3.067 0v-9.2c0-1.974-3.067-1.974-3.067 0m28.561-7.562c-1-3.194-.97-6.494-.97-9.81 0-1.977-3.063-1.977-3.063 0 0 3.58-.003 7.176 1.077 10.623.59 1.883 3.55 1.08 2.956-.813m12.267-2.04c-.823-2.579-.97-5.083-.973-7.77 0-1.977-3.063-1.977-3.063 0 .001 2.947.173 5.756 1.075 8.582.6 1.878 3.562 1.077 2.96-.814m8.914-8.456c.126-1.474.31-2.94.339-4.424.03-1.98-3.033-1.977-3.067 0-.057 3.296-1.13 6.816.21 9.971.769 1.816 3.409.252 2.646-1.547-.502-1.184-.23-2.76-.128-4m11.578-25.886v12.262c0 1.976 3.066 1.976 3.066 0v-12.266c0-1.975-3.066-1.975-3.066 0m15.327 2.05c-.04-1.974-3.106-1.982-3.064 0 .062 2.764.94 5.426 1.023 8.172.061 1.974 3.13 1.982 3.067 0-.086-2.753-.964-5.408-1.026-8.173m11.246-2.046v7.155c0 1.978 3.064 1.978 3.064 0v-7.155c0-1.976-3.064-1.976-3.064 0m15.78-36.854c-2.93 3.459-1.527 9.227-1.472 13.35.026 1.974 3.094 1.978 3.064 0-.022-1.855-.187-3.707-.24-5.563-.05-1.616-.319-4.283.814-5.617 1.267-1.498-.886-3.68-2.168-2.168m9.824 1.697c-1.629 4.693-3.997 9.543-1.885 14.464.773 1.813 3.413.25 2.645-1.544-1.649-3.848.94-8.49 2.2-12.107.647-1.87-2.314-2.67-2.96-.813m14.255 1.427c.08-1.976-2.987-1.968-3.067 0-.202 4.918-2.873 9.186-.813 14.064.768 1.816 3.41.25 2.65-1.547-1.647-3.896 1.066-8.504 1.23-12.516m13.283-45.988v17.373c0 1.98 3.066 1.98 3.066 0v-17.373c0-1.977-3.066-1.977-3.066 0m14.101 11.49c-1.757-3.923-.867-8.365-.81-12.511.026-1.979-3.04-1.976-3.066 0-.07 4.826-.813 9.506 1.23 14.057.809 1.803 3.449.243 2.646-1.547m10.219-5.106c-1.968-3.296-.851-7.85-.812-11.49.02-1.98-3.044-1.977-3.066 0-.05 4.32-1.106 9.12 1.232 13.036 1.01 1.696 3.66.155 2.646-1.546m-189.827-39.494c-1.329 4-3.193 8.84-2.044 13.08.52 1.907 3.478 1.098 2.96-.814-.986-3.616.907-8.038 2.043-11.45.627-1.88-2.336-2.68-2.957-.814m14.464 8.832c-1.827 2.425-1.547 5.552-1.32 8.426.392 4.94-.814 9.89-.934 14.83-.053 1.978 3.014 1.973 3.064 0 .1-3.983.734-7.92.987-11.888.207-3.147-1.192-7.107.85-9.824 1.191-1.578-1.474-3.103-2.647-1.544m12.054 26.322c-.066 5.807-.956 11.567-1.021 17.374-.024 1.981 3.045 1.978 3.067 0 .066-5.807.953-11.567 1.02-17.374.022-1.98-3.04-1.974-3.067 0m59.275-50.076v14.307c0 1.973 3.066 1.973 3.066 0v-14.307c0-1.976-3.066-1.976-3.066 0m20.494 4.7c-.913 3.856-1.072 7.7-1.075 11.65 0 1.977 3.067 1.977 3.067 0 .004-3.675.113-7.24.967-10.835.456-1.923-2.499-2.74-2.96-.813m18.342 1.426c-.2 2.772-1.02 5.271-1.02 8.08v8.276c0 1.974 3.066 1.974 3.066 0v-8.273c0-2.783.818-5.335 1.022-8.08.147-1.973-2.924-1.957-3.066 0m-41.904-123.662c-.033-1.976-3.101-1.979-3.067 0 .076 4.112.952 8.154 1.027 12.264.035 1.977 3.101 1.98 3.067 0-.076-4.11-.952-8.152-1.027-12.264m16.406 2.658c-1.12 3.43-2.026 7.006-2.096 10.63-.04 1.978 3.027 1.973 3.064 0 .067-3.354.952-6.643 1.991-9.815.616-1.881-2.343-2.684-2.957-.815m17.32 3.474c-.078 4.11-.947 8.154-1.024 12.264-.035 1.98 3.032 1.977 3.066 0 .078-4.11.947-8.155 1.022-12.264.034-1.979-3.03-1.976-3.067 0m56.213 58.253v15.33c0 1.975 3.067 1.975 3.067 0v-15.33c0-1.976-3.067-1.976-3.067 0m18.604 4.34c-.913 1.976-1.138 4.164-2.044 6.13-.82 1.783 1.82 3.342 2.646 1.546.91-1.977 1.14-4.163 2.045-6.133.824-1.78-1.82-3.338-2.647-1.543" fill="currentColor"></path><g transform="matrix(1.33333 0 0 -1.33333 0 413.55)" fill="currentColor"><path d="M282.82 182.91c-14.237-9.497-34.293-3.863-49.504-1.289-9.407 1.59-19.27 4.104-27.868 8.186-5.7 2.707-10.516 7.054-16.322 9.53a4.653 4.653 0 0 1-2.034 1.52 5.323 5.323 0 0 1-1.906.913c-2.262.565-3.999-.47-4.939-2.01-2.072-1.215-3.403-3.249-4.632-5.519-3.022-5.597-12.412-11.116-17.374-15.004-15.014-11.753-40.634-11.277-45.637 9.862-3.617 15.293 13.49 24.635 23.078 33.146 6.09 5.403 12.82 10.135 18.96 15.566 6.86 6.068 12.792 12.884 21.961 15.366 14.81 4.01 31.72 1.12 46.881 1.53 13 .354 27.395 2.926 40.438 1.18 2.425-3.594 9.318-1.622 8.316 3.511l-.296 1.504c-.43 2.188-2.124 3.306-4.164 3.704-17.506 3.42-37.814-.814-55.609-.94-15.645-.113-35.746 3.353-49.374-6.672-15.914-11.71-31.004-25.604-45.973-38.54-11.635-10.058-16.59-21.863-11.63-36.82 3.95-11.902 17.174-21.29 29.88-19.45 8.726 1.265 17.41 3.074 25.16 7.377 7.61 4.226 14.07 11.112 20.957 16.42 3.138 2.42 1.666 4.802 4.217 4.956 7.088-2.608 13.074-8.362 20.077-11.234 10.297-4.225 21.363-5.586 32.061-8.41 14.78-3.902 36.528-5.255 49.92 3.675 4.906 3.273.306 11.243-4.644 7.94m-177.51-71.97c-10.159-8.464-19.058 5.357-24.807 12.254-3.81 4.573-5.984 12.97-.88 17.225 1.006.837 1.612 2.013 1.842 3.258 2.87 2.822 5.658 5.94 9.184 7.644 6.48 3.128 14.35-4.173 18.194-8.252 4.228-4.49 6.775-10.317 8.345-16.214 1.48-5.583-7.947-12.64-11.878-15.915m10.598-2.392c5.016 5.41 10.966 9.1 10.49 17.41-.538 9.38-5.882 18.105-12.17 24.786-5.727 6.078-11.944 9.103-20.225 10.384-8.649 1.334-14.373-6.76-19.942-11.83a3.892 3.892 0 0 1-1.336-1.205c-.813-.788-1.228-1.682-1.327-2.59-.954-.355-2.26-2.7-2.654-3.74-1.307-3.466-1.503-6.314-1.26-9.99.49-7.43 4.98-14.194 9.56-19.692 5.455-6.546 10.998-11.373 19.68-12.53 8.603-1.144 13.523 2.894 19.184 8.997"></path><path d="M136.958 72.96c-10.154-8.465-19.054 5.356-24.805 12.253-3.808 4.573-5.984 12.97-.882 17.223 1.008.84 1.617 2.013 1.843 3.258 2.872 2.823 5.66 5.942 9.184 7.644 6.484 3.128 14.35-4.173 18.192-8.25 4.23-4.49 6.78-10.319 8.345-16.216 1.484-5.583-7.942-12.637-11.877-15.913m10.6-2.394c5.018 5.411 10.967 9.097 10.49 17.411-.536 9.383-5.88 18.106-12.173 24.783-5.725 6.08-11.94 9.107-20.22 10.387-8.65 1.335-14.373-6.758-19.942-11.83a3.824 3.824 0 0 1-1.336-1.204c-.815-.79-1.23-1.682-1.328-2.592-.953-.353-2.263-2.699-2.654-3.742-1.31-3.464-1.504-6.312-1.26-9.99.491-7.43 4.981-14.192 9.56-19.689 5.454-6.547 10.996-11.374 19.678-12.529 8.605-1.144 13.523 2.893 19.184 8.995"></path><path d="M167.213 40.342c-9.298-7.747-17.443 4.902-22.708 11.216-3.486 4.19-5.48 11.876-.81 15.767.922.772 1.482 1.842 1.686 2.984 2.632 2.581 5.183 5.435 8.41 6.997 5.933 2.865 13.14-3.819 16.655-7.555 3.87-4.109 6.203-9.44 7.638-14.843 1.358-5.108-7.273-11.567-10.87-14.566m9.7-2.19c4.593 4.951 10.04 8.326 9.604 15.938-.49 8.587-5.384 16.574-11.143 22.687-5.244 5.565-10.933 8.335-18.512 9.506-7.92 1.221-13.156-6.185-18.256-10.826a3.58 3.58 0 0 1-1.222-1.106c-.746-.719-1.125-1.539-1.213-2.37-.876-.325-2.072-2.473-2.432-3.423-1.197-3.175-1.38-5.78-1.154-9.148.45-6.802 4.56-12.994 8.75-18.023 4.998-5.998 10.07-10.412 18.018-11.472 7.876-1.047 12.38 2.65 17.56 8.237"></path><path d="M195.67 9.78c-8.577-7.146-16.09 4.53-20.943 10.353-3.222 3.863-5.058 10.955-.748 14.543.85.71 1.364 1.702 1.558 2.752 2.423 2.382 4.78 5.017 7.754 6.456 5.478 2.643 12.12-3.526 15.367-6.97 3.568-3.787 5.722-8.71 7.043-13.69 1.254-4.715-6.71-10.674-10.03-13.444m8.95-2.017c4.24 4.57 9.265 7.68 8.862 14.705-.45 7.92-4.97 15.29-10.28 20.927-4.837 5.133-10.085 7.692-17.078 8.77-7.305 1.13-12.138-5.705-16.844-9.987a3.246 3.246 0 0 1-1.123-1.02c-.69-.66-1.04-1.42-1.125-2.188-.805-.297-1.91-2.276-2.24-3.158-1.105-2.923-1.27-5.33-1.067-8.436.417-6.276 4.207-11.984 8.08-16.63 4.605-5.53 9.287-9.606 16.616-10.58 7.268-.97 11.42 2.442 16.2 7.597M78.5 154.134c-1.8 5.695-3.737 11.182-6.853 16.467-4.417 7.496-12.28 13.67-18.827 19.22-.54.456-1.077.906-1.61 1.352a816.24 816.24 0 0 1-7.902-5.792c2.093-1.576 4.12-3.01 5.596-4.258 11.704-9.917 17.844-20.185 22.387-34.76.817-2.626 4.24-4.546 6.757-2.75 2.56 1.83 3.143 3.15 3.427 6.27.22 2.417-1.196 3.817-2.974 4.251m80.077 99.063c-4.129 1.22-8.877 5.595-13.115 9.797a170.642 170.642 0 0 1-7.63-4.985 25.22 25.22 0 0 1 2.058-1.343c6.115-3.616 9.19-10.257 16.244-12.34 5.702-1.685 8.121 7.194 2.443 8.87"></path><path d="M146.268 270.172c-.927-1.394-1.979-1.366-3.717-2.183-7.68-3.612-13.493-11.626-20.666-15.925-7.956-4.772-15.47-11.403-23.024-16.94-7.288-5.34-15.304-10.02-22.379-15.547-13.896-10.849-27.275-22.865-41.489-33.294-.337.398-.697.81-1.077 1.272-2.669 3.24-5.766 6.252-8.432 9.581-2.86 3.578-5.793 6.807-9.005 10.06-1.276 1.294-5.298 6.35-5.907 8.221a4.586 4.586 0 0 1-1.296 2.023c1.55 3.328 8.046 6.136 10.833 8.203 4.787 3.545 9.283 7.492 13.807 11.362 9.74 8.328 19.45 16.434 30.498 23.044 8.973 5.366 18.916 11.92 26.451 19.283 7.202 7.044 16.971 15.092 26.273 20.125 7.13-4.773 13.783-9.149 19.884-15.696 3.125-3.353 9.085-9.372 10.346-10.637 2.748-2.745.898.044-1.1-2.952m7.673 9.682c-.806 1.482-.724 1.65-.305.197-.063.04-.118.08-.185.118-1.767 3.77-7.288 7.458-9.924 10.097-6.516 6.518-13.057 11.194-20.285 16.12-.73 1.967-2.763 3.617-5.154 3.397-2.36 1.082-4.52-.292-5.466-2.325-9.142-4.968-17.772-12.586-25.393-19.152-10.552-9.089-22.187-16.775-33.897-24.315-10.532-6.78-19.65-15.122-29.139-23.236-5.715-4.889-11.819-8.998-17.85-13.418-3.1-2.273-5.21-4.429-6.173-8.087-.503-1.914.16-3.45 1.31-4.45a4.602 4.602 0 0 1 .222-1.825c.88-2.707 2.723-4.197 4.297-6.466 2.215-3.193 3.978-5.899 6.856-8.648 3.441-3.285 6.223-7.35 9.192-11.06 1.322-1.653 5.874-5.16 6.482-6.784.2-.527.49-1.015.856-1.443.38-1.883 1.862-3.468 4.346-3.468h.767c1.994 0 3.301 1.045 3.956 2.426 6.363 4.754 12.302 10.09 18.637 15.016 4 3.111 9.93 5.941 13.391 9.625 4.1 4.361 9.451 8.997 14.627 11.887 19.492 10.88 35.228 28.378 54.133 39.664 6.296 3.758 28.028 17.517 14.7 26.13m103.693-6.73c1.263 1.265 7.222 7.284 10.346 10.637 6.1 6.547 12.755 10.923 19.884 15.696 9.302-5.033 19.073-13.08 26.275-20.125 7.533-7.363 17.476-13.917 26.45-19.283 11.048-6.61 20.758-14.716 30.496-23.044 4.525-3.87 9.02-7.818 13.808-11.362 2.787-2.067 9.283-4.875 10.834-8.204a4.58 4.58 0 0 1-1.295-2.022c-.61-1.872-4.63-6.927-5.91-8.22-3.21-3.254-6.142-6.483-9.004-10.06-2.664-3.33-5.762-6.342-8.433-9.582-.38-.463-.738-.874-1.075-1.272-14.213 10.43-27.593 22.445-41.49 33.294-7.075 5.526-15.09 10.207-22.38 15.547-7.552 5.537-15.067 12.168-23.023 16.94-7.17 4.3-12.984 12.313-20.666 15.925-1.738.817-2.79.79-3.715 2.183-2 2.996-3.85.207-1.102 2.952m8.128-19.4c18.903-11.287 34.64-28.786 54.132-39.664 5.176-2.89 10.526-7.526 14.628-11.887 3.46-3.684 9.39-6.514 13.39-9.625 6.334-4.926 12.274-10.262 18.638-15.016.653-1.382 1.96-2.427 3.954-2.427h.77c2.482 0 3.963 1.585 4.344 3.47.342.405.642.87.855 1.442.61 1.624 5.16 5.13 6.483 6.783 2.97 3.711 5.752 7.776 9.19 11.061 2.88 2.75 4.642 5.454 6.857 8.648 1.574 2.27 3.418 3.76 4.298 6.466.213.657.27 1.262.223 1.825 1.15 1 1.813 2.536 1.31 4.45-.964 3.658-3.074 5.813-6.175 8.087-6.03 4.42-12.135 8.53-17.85 13.418-9.487 8.114-18.606 16.456-29.138 23.236-11.712 7.54-23.345 15.226-33.898 24.315-7.62 6.566-16.25 14.184-25.392 19.152-.946 2.033-3.105 3.407-5.466 2.325-2.39.22-4.425-1.43-5.153-3.397-7.23-4.926-13.77-9.602-20.285-16.12-2.636-2.639-8.158-6.329-9.926-10.097-.067-.038-.12-.078-.184-.118.418 1.453.5 1.285-.305-.198-13.33-8.612 8.403-22.372 14.7-26.129m62.68-118.538c-5.169 7.48-10.304 14.15-17.083 20.376-3.129 2.872-5.92 5.895-9.432 8.282-3.553 2.42-12.884 6.352-13.885 10.95-1.263 5.798-10.128 3.338-8.87-2.443 1.616-7.43 9.097-10.592 15.144-14.245 8.102-4.896 14.668-13.348 21.3-19.976 6.695-6.696 17.274-22.217 8.43-29.523-4.637-3.83-7.65-4.807-13.61-5.55-3.148-.394-4.86.394-7.688-1.395-1.316-.83-2.378-2.34-2.277-3.97.523-8.447 6.064-15.908-.568-23.81-6.86-8.176-14.626-2.828-22.045-2.828-3.366 0-7.076-3.003-6.706-6.705 1.553-15.55-9.235-25.67-24.646-20.478-2.969 1.002-5.675-1.608-5.82-4.434-.943-18.196-13.194-18.428-27.258-17.76-2.699 1.693-7.236.466-7.236-3.702v-.766c0-2.603 2.095-4.47 4.6-4.598 10.824-.543 19.321-.89 29.434 3.884 8.035 3.794 9.086 9.96 9.423 17.107 7.096-1.195 14.644-.24 20.464 4.343 3.534 2.783 7.338 6.304 8.695 10.78.554 1.83 2.155 7.973 1.855 11.233 10.927-3.375 24.37 4.002 29.911 13.183 3.46 5.736 2.13 14.36.365 20.406-.023.116-.064.224-.089.334.888.032 1.772.14 2.654.36 3.613.452 7.518.65 10.751 2.546 6.612 3.873 11.94 9.486 14.092 16.77 2.811 9.52-5.242 14.883-9.905 21.63"></path><path d="M360.26 186.603h-.769c-2.008 0-3.942-1.4-4.435-3.38-3.37-13.49-9.008-28.355-19.512-37.824-1.648-1.484-2.086-3.49-3.955-4.647-.864-.532-5.85-3.204-2.375-3.204-1.892 0-3.474-.962-4.495-2.404-4.858-1.018-4.51-9.093 1.05-9.093 3.025 0 4.4.88 5.87 2.866 6.397 2.405 13.545 11.91 16.496 16.273 7.03 10.408 11.95 21.372 15.198 33.404 2.542 2.48 1.53 8.01-3.074 8.01"></path></g>
		</symbol>
	
		<symbol id="logo" viewBox="0 0 133.065 366.219">
			<defs><clipPath id="a"><path d="M1.678 48.63c0-23.643 19.236-42.878 42.878-42.878a42.64 42.64 0 0 1 17.486 3.73c-1.558 3.845-3.351 8.261-5.056 12.461a29.249 29.249 0 0 0-12.43-2.757c-16.235 0-29.442 13.209-29.442 29.444s13.207 29.443 29.442 29.443C60.792 78.073 74 64.865 74 48.63c0-3.608-.654-7.065-1.847-10.262l12.243-5.591a42.658 42.658 0 0 1 3.038 15.853c0 23.643-19.235 42.878-42.878 42.878-23.642 0-42.878-19.235-42.878-42.878"></path></clipPath><linearGradient id="b" gradientTransform="scale(85.39954 -85.39954) rotate(29 1.613 -.247)" gradientUnits="userSpaceOnUse" x2="1"><stop offset="0" stop-color="#f5ce1f"></stop><stop offset=".18" stop-color="#fee860"></stop><stop offset=".196" stop-color="#fee860"></stop><stop offset=".458" stop-color="#fbde39"></stop><stop offset=".467" stop-color="#fbde39"></stop><stop offset=".748" stop-color="#fdf584"></stop><stop offset=".757" stop-color="#fdf584"></stop><stop offset=".969" stop-color="#ffff28"></stop><stop offset="1" stop-color="#ffff28"></stop></linearGradient><clipPath id="c"><path d="M1.678 48.63c0-23.643 19.236-42.878 42.878-42.878a42.64 42.64 0 0 1 17.486 3.73c-1.558 3.845-3.351 8.261-5.056 12.461a29.249 29.249 0 0 0-12.43-2.757c-16.235 0-29.442 13.209-29.442 29.444s13.207 29.443 29.442 29.443C60.792 78.073 74 64.865 74 48.63c0-3.608-.654-7.065-1.847-10.262l12.243-5.591a42.658 42.658 0 0 1 3.038 15.853c0 23.643-19.235 42.878-42.878 42.878-23.642 0-42.878-19.235-42.878-42.878"></path></clipPath><linearGradient id="d" gradientTransform="scale(85.39954 -85.39954) rotate(29 1.613 -.247)" gradientUnits="userSpaceOnUse" x2="1"><stop offset="0" stop-color="#f5ce1f"></stop><stop offset=".18" stop-color="#fee860"></stop><stop offset=".196" stop-color="#fee860"></stop><stop offset=".458" stop-color="#fbde39"></stop><stop offset=".467" stop-color="#fbde39"></stop><stop offset=".748" stop-color="#fdf584"></stop><stop offset=".757" stop-color="#fdf584"></stop><stop offset=".969" stop-color="#ffff28"></stop><stop offset="1" stop-color="#ffff28"></stop></linearGradient><clipPath id="e"><path d="M0 99.799h274.664V0H0z"></path></clipPath><clipPath id="f"><path d="M1.678 48.63c0-23.643 19.236-42.878 42.878-42.878a42.64 42.64 0 0 1 17.486 3.73c-1.558 3.845-3.351 8.261-5.056 12.461a29.249 29.249 0 0 0-12.43-2.757c-16.235 0-29.442 13.209-29.442 29.444s13.207 29.443 29.442 29.443C60.792 78.073 74 64.865 74 48.63c0-3.608-.654-7.065-1.847-10.262l12.243-5.591a42.658 42.658 0 0 1 3.038 15.853c0 23.643-19.235 42.878-42.878 42.878-23.642 0-42.878-19.235-42.878-42.878"></path></clipPath><linearGradient id="g" gradientTransform="scale(85.39954 -85.39954) rotate(29 1.613 -.247)" gradientUnits="userSpaceOnUse" x2="1"><stop offset="0" stop-color="#46b1dd"></stop><stop offset=".918" stop-color="#0062ae"></stop><stop offset="1" stop-color="#0062ae"></stop></linearGradient><clipPath id="h"><path d="M1.678 48.63c0-.433.009-.864.022-1.295l.014-.386c.014-.31.028-.621.046-.929l.027-.405c.024-.347.053-.692.085-1.038.008-.078.013-.158.022-.237.042-.429.091-.856.147-1.281l.033-.238c.047-.347.099-.693.154-1.038l.055-.334c.058-.339.119-.676.185-1.013.015-.081.03-.163.047-.245.171-.85.367-1.693.587-2.525l.054-.198c.098-.362.199-.722.307-1.08l.053-.182a43.005 43.005 0 0 1 1.316-3.709l.04-.098a42.741 42.741 0 0 1 1.679-3.602l.006-.011c.207-.394.419-.783.637-1.169-.936 4.726 1.488 17.308 8.488 26.78 2.689 13.483 14.613 23.676 28.874 23.676 10.439 0 19.625-5.461 24.856-13.674 8.43-1.735 15.402-4.308 17.235-7.582-.06.307-.124.614-.189.919l-.002.006a42.435 42.435 0 0 1-2.201 7.083l-.005.013a42.76 42.76 0 0 1-3.319 6.467l-.04.065c-.149.238-.301.472-.453.706-.017.026-.035.051-.051.077a40.75 40.75 0 0 1-.471.7l-.027.039a42.977 42.977 0 0 1-2.715 3.536l-.044.051c-.169.198-.341.394-.514.589l-.117.131c-.163.183-.328.364-.495.544-.048.053-.098.105-.147.157-.164.177-.33.351-.496.523l-.15.154c-.171.174-.343.349-.516.52l-.121.117a42.973 42.973 0 0 1-2.468 2.243c-.05.042-.101.087-.153.129-.17.142-.342.281-.514.42l-.235.191a35.95 35.95 0 0 1-.491.383l-.274.21c-.161.122-.322.242-.483.362l-.291.212c-.162.117-.323.234-.487.349l-.297.207c-.164.112-.328.226-.494.338l-.289.19c-.58.382-1.17.751-1.769 1.105-.115.069-.229.138-.345.205-.154.089-.31.176-.464.263l-.389.218c-.151.083-.304.164-.456.246-.136.072-.273.145-.411.216-.149.078-.3.154-.45.231l-.428.213a36.745 36.745 0 0 1-.895.426c-.147.068-.294.136-.441.202-.16.071-.321.142-.481.211-.139.06-.278.121-.418.18-.199.085-.402.167-.604.247a46.228 46.228 0 0 1-1.199.466c-.127.047-.255.091-.382.136-.184.066-.369.133-.556.196-.136.047-.274.092-.409.137-.18.059-.359.119-.539.175-.14.044-.28.088-.422.13-.179.055-.358.109-.538.161-.14.04-.283.082-.424.12a32.02 32.02 0 0 1-.553.151l-.415.109c-.196.049-.391.096-.587.143-.131.031-.259.063-.389.093-.228.053-.459.101-.688.15-.099.02-.197.043-.296.064a51.82 51.82 0 0 1-.984.189l-.257.043c-.248.043-.496.084-.745.124l-.375.054c-.212.032-.422.062-.636.09l-.411.051a55.25 55.25 0 0 1-1.033.113c-.203.019-.407.037-.611.054l-.421.033c-.211.015-.422.028-.633.04l-.403.023c-.232.011-.464.019-.697.026-.115.004-.229.009-.344.012-.346.008-.694.014-1.044.014-23.642 0-42.878-19.235-42.878-42.878"></path></clipPath><linearGradient id="i" gradientTransform="scale(-21.42072 21.42072) rotate(-48.814 2.364 4.282)" gradientUnits="userSpaceOnUse" x2="1"><stop offset="0" stop-color="#46b1dd"></stop><stop offset=".918" stop-color="#0062ae"></stop><stop offset="1" stop-color="#0062ae"></stop></linearGradient><clipPath id="j"><path d="M67.718 66.789A29.296 29.296 0 0 0 74 48.63c0-3.608-.654-7.065-1.847-10.262l12.243-5.591a42.615 42.615 0 0 1 2.986 13.733l.003.049c.013.284.022.57.03.858a34.894 34.894 0 0 1 .015.894l.002.458-.005.461c-.004.228-.007.454-.014.681a43.189 43.189 0 0 1-2.124 12.113 62.224 62.224 0 0 1-.406 1.178c-.046.127-.094.253-.141.38a31.57 31.57 0 0 1-.283.743c-.003.009-.007.017-.009.026-3.566 9.015-10.106 16.543-18.4 21.368l-.247.144c-.191.109-.385.217-.578.323a36.69 36.69 0 0 1-.733.395l-.245.13a42.643 42.643 0 0 1-11.395 3.959c4.207-2.361 12.214-12.393 14.866-23.881"></path></clipPath><linearGradient id="k" gradientTransform="matrix(0 40.9742 40.9742 0 70.142 48.406)" gradientUnits="userSpaceOnUse" x2="1"><stop offset="0" stop-color="#46b1dd"></stop><stop offset=".918" stop-color="#0062ae"></stop><stop offset="1" stop-color="#0062ae"></stop></linearGradient><clipPath id="l"><path d="M0 99.799h274.664V0H0z"></path></clipPath><clipPath id="m"><path d="M58.163 35.871c-.104-.159-.188-.332-.281-.499l-.034-.6c1.009-2.5 11.814-29.094 12.645-31.183.243-.609.693-.933 1.311-1.098a1.27 1.27 0 0 1 .449-.004c.178.035.284.071.434.132.631.257 1.004.662 1.108 1.324.195 1.226.388 2.452.584 3.677l1.153 7.187c.154.982.313 1.964.454 2.946.031.198.109.257.302.271 2.929.256 5.86.516 8.789.774 1.775.156 3.545.326 5.321.46.911.069 1.475.528 1.79 1.338.219.419-.066 1.032-.212 1.243-.264.376-.689.569-1.057.737-1.659.756-25.694 11.734-27.853 12.719-.871.397-1.743.799-2.617 1.194-.19.085-.391.151-.587.224l-.394.003c-.526-.141-1-.371-1.305-.845"></path></clipPath><linearGradient id="n" gradientTransform="matrix(-25.447 22.45324 22.45324 25.447 81.073 12.75)" gradientUnits="userSpaceOnUse" x2="1"><stop offset="0" stop-color="#465053"></stop><stop offset=".448" stop-color="#e0e0e0"></stop><stop offset=".573" stop-color="#e0e0e0"></stop><stop offset=".678" stop-color="#e0e0e0"></stop><stop offset="1" stop-color="#8b9298"></stop></linearGradient><clipPath id="o"><path d="M57.882 35.372c-.081-.269-.059-.36-.034-.6 1.009-2.5 11.814-29.094 12.645-31.183.243-.609.693-.933 1.311-1.098a1.27 1.27 0 0 1 .449-.004c.178.035.284.071.434.132.631.257 1.004.662 1.108 1.324.195 1.226.388 2.452.584 3.677l1.153 7.187c.154.982.313 1.964.454 2.946.031.198-.075.211.118.225l-17.6 18.304c-.317-.272-.529-.743-.622-.91"></path></clipPath><linearGradient id="p" gradientTransform="scale(32.50861 -32.50861) rotate(60 1.713 1.27)" gradientUnits="userSpaceOnUse" x2="1"><stop offset="0" stop-color="#465053"></stop><stop offset=".448" stop-color="#e0e0e0"></stop><stop offset=".573" stop-color="#e0e0e0"></stop><stop offset=".678" stop-color="#e0e0e0"></stop><stop offset="1" stop-color="#8b9298"></stop></linearGradient><clipPath id="q"><path d="M0 99.799h274.664V0H0z"></path></clipPath></defs><g clip-path="url(#a)" transform="matrix(1.33333 0 0 -1.33333 0 133.065)"><path d="M1.678 48.63c0-23.643 19.236-42.878 42.878-42.878a42.64 42.64 0 0 1 17.486 3.73c-1.558 3.845-3.351 8.261-5.056 12.461a29.249 29.249 0 0 0-12.43-2.757c-16.235 0-29.442 13.209-29.442 29.444s13.207 29.443 29.442 29.443C60.792 78.073 74 64.865 74 48.63c0-3.608-.654-7.065-1.847-10.262l12.243-5.591a42.658 42.658 0 0 1 3.038 15.853c0 23.643-19.235 42.878-42.878 42.878-23.642 0-42.878-19.235-42.878-42.878" fill="url(#b)"></path></g><g clip-path="url(#c)" transform="matrix(1.33333 0 0 -1.33333 0 133.065)"><path d="M1.678 48.63c0-23.643 19.236-42.878 42.878-42.878a42.64 42.64 0 0 1 17.486 3.73c-1.558 3.845-3.351 8.261-5.056 12.461a29.249 29.249 0 0 0-12.43-2.757c-16.235 0-29.442 13.209-29.442 29.444s13.207 29.443 29.442 29.443C60.792 78.073 74 64.865 74 48.63c0-3.608-.654-7.065-1.847-10.262l12.243-5.591a42.658 42.658 0 0 1 3.038 15.853c0 23.643-19.235 42.878-42.878 42.878-23.642 0-42.878-19.235-42.878-42.878" fill="url(#d)"></path></g><g clip-path="url(#e)" transform="matrix(1.33333 0 0 -1.33333 0 133.065)"><path d="M42.877 16.5c-16.234 0-29.442 13.207-29.442 29.442 0 16.236 13.208 29.444 29.442 29.444 16.235 0 29.443-13.208 29.443-29.444 0-3.607-.654-6.43-1.846-9.628 3.47-1.847 11.363-5.485 11.363-5.485s2.537 1.897 2.547 1.96c.811 5.597 1.371 8.274 1.371 13.153 0 23.643-19.234 42.878-42.878 42.878C19.234 88.82 0 69.585 0 45.942 0 22.3 19.234 3.065 42.877 3.065a42.64 42.64 0 0 1 17.486 3.73c.538.916 1.659 2.707 1.659 2.707s-5.43 6.587-6.715 9.753a29.285 29.285 0 0 0-12.43-2.756" fill="#00314c"></path></g><g clip-path="url(#f)" transform="matrix(1.33333 0 0 -1.33333 0 133.065)"><path d="M1.678 48.63c0-23.643 19.236-42.878 42.878-42.878a42.64 42.64 0 0 1 17.486 3.73c-1.558 3.845-3.351 8.261-5.056 12.461a29.249 29.249 0 0 0-12.43-2.757c-16.235 0-29.442 13.209-29.442 29.444s13.207 29.443 29.442 29.443C60.792 78.073 74 64.865 74 48.63c0-3.608-.654-7.065-1.847-10.262l12.243-5.591a42.658 42.658 0 0 1 3.038 15.853c0 23.643-19.235 42.878-42.878 42.878-23.642 0-42.878-19.235-42.878-42.878" fill="url(#g)"></path></g><g clip-path="url(#h)" transform="matrix(1.33333 0 0 -1.33333 0 133.065)"><path d="M1.678 48.63c0-.433.009-.864.022-1.295l.014-.386c.014-.31.028-.621.046-.929l.027-.405c.024-.347.053-.692.085-1.038.008-.078.013-.158.022-.237.042-.429.091-.856.147-1.281l.033-.238c.047-.347.099-.693.154-1.038l.055-.334c.058-.339.119-.676.185-1.013.015-.081.03-.163.047-.245.171-.85.367-1.693.587-2.525l.054-.198c.098-.362.199-.722.307-1.08l.053-.182a43.005 43.005 0 0 1 1.316-3.709l.04-.098a42.741 42.741 0 0 1 1.679-3.602l.006-.011c.207-.394.419-.783.637-1.169-.936 4.726 1.488 17.308 8.488 26.78 2.689 13.483 14.613 23.676 28.874 23.676 10.439 0 19.625-5.461 24.856-13.674 8.43-1.735 15.402-4.308 17.235-7.582-.06.307-.124.614-.189.919l-.002.006a42.435 42.435 0 0 1-2.201 7.083l-.005.013a42.76 42.76 0 0 1-3.319 6.467l-.04.065c-.149.238-.301.472-.453.706-.017.026-.035.051-.051.077a40.75 40.75 0 0 1-.471.7l-.027.039a42.977 42.977 0 0 1-2.715 3.536l-.044.051c-.169.198-.341.394-.514.589l-.117.131c-.163.183-.328.364-.495.544-.048.053-.098.105-.147.157-.164.177-.33.351-.496.523l-.15.154c-.171.174-.343.349-.516.52l-.121.117a42.973 42.973 0 0 1-2.468 2.243c-.05.042-.101.087-.153.129-.17.142-.342.281-.514.42l-.235.191a35.95 35.95 0 0 1-.491.383l-.274.21c-.161.122-.322.242-.483.362l-.291.212c-.162.117-.323.234-.487.349l-.297.207c-.164.112-.328.226-.494.338l-.289.19c-.58.382-1.17.751-1.769 1.105-.115.069-.229.138-.345.205-.154.089-.31.176-.464.263l-.389.218c-.151.083-.304.164-.456.246-.136.072-.273.145-.411.216-.149.078-.3.154-.45.231l-.428.213a36.745 36.745 0 0 1-.895.426c-.147.068-.294.136-.441.202-.16.071-.321.142-.481.211-.139.06-.278.121-.418.18-.199.085-.402.167-.604.247a46.228 46.228 0 0 1-1.199.466c-.127.047-.255.091-.382.136-.184.066-.369.133-.556.196-.136.047-.274.092-.409.137-.18.059-.359.119-.539.175-.14.044-.28.088-.422.13-.179.055-.358.109-.538.161-.14.04-.283.082-.424.12a32.02 32.02 0 0 1-.553.151l-.415.109c-.196.049-.391.096-.587.143-.131.031-.259.063-.389.093-.228.053-.459.101-.688.15-.099.02-.197.043-.296.064a51.82 51.82 0 0 1-.984.189l-.257.043c-.248.043-.496.084-.745.124l-.375.054c-.212.032-.422.062-.636.09l-.411.051a55.25 55.25 0 0 1-1.033.113c-.203.019-.407.037-.611.054l-.421.033c-.211.015-.422.028-.633.04l-.403.023c-.232.011-.464.019-.697.026-.115.004-.229.009-.344.012-.346.008-.694.014-1.044.014-23.642 0-42.878-19.235-42.878-42.878" fill="url(#i)"></path></g><g clip-path="url(#j)" transform="matrix(1.33333 0 0 -1.33333 0 133.065)"><path d="M67.718 66.789A29.296 29.296 0 0 0 74 48.63c0-3.608-.654-7.065-1.847-10.262l12.243-5.591a42.615 42.615 0 0 1 2.986 13.733l.003.049c.013.284.022.57.03.858a34.894 34.894 0 0 1 .015.894l.002.458-.005.461c-.004.228-.007.454-.014.681a43.189 43.189 0 0 1-2.124 12.113 62.224 62.224 0 0 1-.406 1.178c-.046.127-.094.253-.141.38a31.57 31.57 0 0 1-.283.743c-.003.009-.007.017-.009.026-3.566 9.015-10.106 16.543-18.4 21.368l-.247.144c-.191.109-.385.217-.578.323a36.69 36.69 0 0 1-.733.395l-.245.13a42.643 42.643 0 0 1-11.395 3.959c4.207-2.361 12.214-12.393 14.866-23.881" fill="url(#k)"></path></g><g clip-path="url(#l)" transform="matrix(1.33333 0 0 -1.33333 0 133.065)"><path d="M57.963 35.496c.132-.004 1.752-1.102 1.884-1.105.194-.077.394-.147.583-.235.867-.41 1.73-.827 2.595-1.24 2.141-1.024 25.976-12.428 27.622-13.213.366-.174 1.317 1.712 1.573 1.33.142-.212-.112-2.917-.34-3.332-.329-.804-.9-1.253-1.813-1.306-1.778-.103-3.55-.24-5.328-.365-2.932-.206-5.868-.414-8.8-.618-.195-.01-.275-.068-.308-.267-.158-.979-.334-1.958-.507-2.937-.426-2.39-.854-4.777-1.28-7.164-.217-1.222-.432-2.444-.65-3.667A1.798 1.798 0 0 0 71.418 0c-1.6-.026-2.036.735-2.414 1.533-.962 2.031-10.273 26.554-11.237 29.072-.896 2.575-.35 3.8.196 4.891" fill="#2a3133"></path></g><g clip-path="url(#m)" transform="matrix(1.33333 0 0 -1.33333 0 133.065)"><path d="M58.163 35.871c-.104-.159-.188-.332-.281-.499l-.034-.6c1.009-2.5 11.814-29.094 12.645-31.183.243-.609.693-.933 1.311-1.098a1.27 1.27 0 0 1 .449-.004c.178.035.284.071.434.132.631.257 1.004.662 1.108 1.324.195 1.226.388 2.452.584 3.677l1.153 7.187c.154.982.313 1.964.454 2.946.031.198.109.257.302.271 2.929.256 5.86.516 8.789.774 1.775.156 3.545.326 5.321.46.911.069 1.475.528 1.79 1.338.219.419-.066 1.032-.212 1.243-.264.376-.689.569-1.057.737-1.659.756-25.694 11.734-27.853 12.719-.871.397-1.743.799-2.617 1.194-.19.085-.391.151-.587.224l-.394.003c-.526-.141-1-.371-1.305-.845" fill="url(#n)"></path></g><g clip-path="url(#o)" transform="matrix(1.33333 0 0 -1.33333 0 133.065)"><path d="M57.882 35.372c-.081-.269-.059-.36-.034-.6 1.009-2.5 11.814-29.094 12.645-31.183.243-.609.693-.933 1.311-1.098a1.27 1.27 0 0 1 .449-.004c.178.035.284.071.434.132.631.257 1.004.662 1.108 1.324.195 1.226.388 2.452.584 3.677l1.153 7.187c.154.982.313 1.964.454 2.946.031.198-.075.211.118.225l-17.6 18.304c-.317-.272-.529-.743-.622-.91" fill="url(#p)"></path></g><g clip-path="url(#q)" fill="#12253f" transform="matrix(1.33333 0 0 -1.33333 0 133.065)"><text style="-inkscape-font-specification:Lato-Black" transform="matrix(1 0 0 -1 98.621 37.2)" font-weight="900" font-size="72.432" font-family="Lato Black"><tspan y="0" x="0 59.031754 128.56609">QMC</tspan></text><text style="-inkscape-font-specification:Lato-Regular" transform="matrix(1 0 0 -1 105.666 6.713)" font-weight="400" font-size="21.596" font-family="Lato"><tspan y="0" x="0 12.093592 24.122396 29.305365 39.606514 50.577129 56.105629 73.870255 86.115013 98.165413 109.28936 119.89285 125.42135 135.72249 140.81908 146.00204 156.30319">quick money click</tspan></text></g>
		</symbol>
	
		<symbol id="man" viewBox="0 0 365.978 487.778">
			<g transform="matrix(1.33333 0 0 -1.33333 0 487.779)" fill="currentColor"><path d="M85.77 352.231c-6.65-1.19-12.129-4.392-17.393-8.534-7.46-5.876-14.903-11.677-21.9-18.117-14.395-13.252-26.28-29.292-39.397-43.78-.993-1.097.628-2.728 1.626-1.625 12.203 13.48 23.33 28.221 36.362 40.907 6.398 6.226 13.254 11.968 20.33 17.404 6.563 5.042 12.598 10.028 20.982 11.524 1.457.262.84 2.48-.61 2.22m35.642 8.048c-10.193-3.616-19.067-9.784-28.353-15.188-10.23-5.953-18.42-15.619-27.133-23.495-8.942-8.079-17.48-16.608-26.118-25.013-8.14-7.917-17.11-16.095-23.71-25.364-.862-1.21 1.135-2.355 1.986-1.158 6.478 9.097 15.384 17.1 23.35 24.896 8.103 7.932 16.136 16.001 24.55 23.604 17.067 15.42 33.84 31.627 56.038 39.5 1.39.49.79 2.715-.61 2.218m23.34-1.952c-.216-.87-2.163-.214-2.646-.347-2.017-.556-4.075-2.396-5.725-3.608-5.31-3.904-10.384-7.99-15.865-11.683-10.4-7.008-21.007-13.663-30.867-21.439-9.987-7.872-19.858-15.67-29.213-24.302-4.557-4.206-8.844-8.69-13.308-12.992-2.354-2.269-4.932-4.315-7.388-6.467-1.96-1.714-4.27-4.947-6.858-5.74-1.414-.434-.81-2.654.61-2.217 3.677 1.127 6.563 5.184 9.352 7.625 5.134 4.494 9.957 9.212 14.834 13.982 10.074 9.858 21.18 18.175 31.97 27.17 11.06 9.218 23.545 16.603 35.418 24.69 5.265 3.588 10.057 7.867 15.33 11.388 2.45 1.637 5.744-.023 6.575 3.33.355 1.437-1.862 2.048-2.218.61m19.504-.307c-4.463-.474-7.9-3.235-11.345-5.92-5.776-4.505-11.6-8.942-17.336-13.502-13.307-10.577-26.55-21.194-40.184-31.352-11.084-8.259-22.256-16.562-33.819-24.13-3.167-2.076-13.193-6.778-10.983-11.907.155-.359.627-.569.992-.569h1.151c1.481 0 1.481 2.3 0 2.3-1.872 0 .753 1.427 1.706 2.338 1.608 1.54 3.563 2.754 5.412 3.98 2.661 1.767 5.26 3.616 7.91 5.392 11.67 7.821 22.944 16.227 34.19 24.641 10.195 7.626 20.122 15.591 30.064 23.542 5.21 4.166 10.432 8.314 15.691 12.416 4.603 3.59 10.532 9.833 16.551 10.472 1.46.154 1.473 2.457 0 2.3m8.385-4.935c-2.684-2.628-5.8-4.68-8.54-7.332-3.968-3.841-8.376-7.203-12.48-10.897a7857.226 7857.226 0 0 0-23.917-21.454c-8.358-7.457-17.656-13.734-26.688-20.335-3.425-2.5-6.983-4.932-10.097-7.82-2.3-2.133-5.124-3.827-7.723-5.566-.819-.547-1.068-1.8-2.027-2.183-1.358-.545-.767-2.768.612-2.22 2.35.943 3.843 3.259 5.982 4.716 4.42 3.012 8.394 6.629 12.688 9.82 8.586 6.378 17.863 12.16 25.864 19.276 8.46 7.523 16.877 15.097 25.294 22.666 7.41 6.666 15.561 12.75 22.658 19.703 1.06 1.038-.566 2.66-1.626 1.626m15.454-3.154c-7.545-2.983-12.276-9.595-17.754-15.244-5.014-5.172-12.207-7.818-14.093-15.453-.354-1.44 1.864-2.05 2.218-.612 1.6 6.479 7.95 9.767 12.737 13.737 6.104 5.052 9.755 12.293 17.502 15.354 1.365.538.772 2.765-.61 2.219m18.122-2.417c-7.7-5.133-15.374-9.886-21.106-17.315-3.036-3.932-7.763-6.942-11.206-10.578-3.916-4.136-7.618-8.461-11.612-12.528-1.04-1.058.587-2.684 1.626-1.625 7.146 7.274 13.393 15.528 21.611 21.664 2.708 2.024 4.915 5.795 7.474 8.187 4.271 3.99 9.524 6.977 14.371 10.21 1.23.818.08 2.81-1.158 1.985m16.096-8.048c-7.246-3.92-12.728-11.116-18.285-17.044-7.927-8.452-16.925-16.063-26.123-23.114-.393-.064-.748-.295-.907-.707-.225-.171-.448-.354-.674-.525-.824-.626-.683-2.212.58-2.144 1.3.07 1.908.446 2.157 1.39a270.035 270.035 0 0 1 22.03 18.926c3.974 3.805 7.582 7.934 11.416 11.873 3.263 3.359 6.867 7.14 10.965 9.36 1.305.706.144 2.69-1.159 1.985m13.563-8.229c-2.688-2.688-5.91-5.27-8.228-8.282-3.433-4.452-8.32-8.099-11.497-12.646-3.357-4.803-7.394-8.84-11.623-12.863-4.249-4.042-9.209-7.077-13.492-11.049-1.089-1.01.542-2.63 1.626-1.626 3.83 3.55 8.307 6.073 12.068 9.693 3.8 3.661 7.804 7.203 11.017 11.412 6.424 8.416 14.27 16.247 21.756 23.736 1.05 1.05-.577 2.674-1.626 1.625m8.048-18.394c-11.23-9.028-21.978-18.584-32.192-28.744-1.054-1.047.574-2.672 1.625-1.625 10.217 10.159 20.963 19.716 32.193 28.743 1.156.929-.483 2.546-1.626 1.626m10.348-8.048c-2.237-2.62-4.08-5.371-6.7-7.653-3.134-2.733-6.81-4.744-9.78-7.638-5.72-5.572-13.807-10.4-18.192-17.137-.813-1.246 1.18-2.396 1.984-1.16 1.82 2.795 4.739 4.708 7.104 7.01 3.444 3.358 7.21 6.383 10.73 9.66 3.017 2.81 6.592 5.018 9.78 7.638 2.714 2.23 4.454 5.023 6.7 7.654.956 1.12-.663 2.754-1.626 1.626m2.3-16.097c-1.603-1.305-3.715-1.415-5.179-2.88-1.926-1.925-3.813-3.846-5.977-5.508-4.315-3.312-8.466-6.874-11.84-11.158-.907-1.15.71-2.792 1.626-1.625 3.83 4.86 8.65 8.754 13.564 12.466 1.55 1.168 2.876 2.823 4.253 4.2 1.288 1.288 3.694 1.665 5.18 2.88 1.147.938-.489 2.554-1.628 1.625M81.476 138.42c-4.303-.47-7.058-2.956-9.997-5.98-4.512-4.636-9.618-8.547-13.902-13.442-3.814-4.358-7.419-8.806-10.75-13.554-3.005-4.28-6.083-7.732-7.85-12.71-.497-1.4 1.724-1.998 2.218-.61 3.164 8.914 11.172 16.516 16.87 23.867 2.756 3.558 6.061 6.677 9.417 9.658 3.885 3.457 8.557 9.878 13.994 10.472 1.457.157 1.474 2.458 0 2.299m.337-16.435c-2.328-1.892-5.01-2.708-7.127-4.827-2.825-2.825-5.659-5.577-8.63-8.246-6-5.385-12.569-11.205-17.83-17.28-5.709-6.587-11.816-12.825-17.635-19.313-4.01-4.474-8.167-9.435-10.01-15.226-.45-1.417 1.77-2.019 2.217-.61 2.146 6.741 7.68 12.313 12.325 17.428 5.367 5.91 10.893 11.671 16.123 17.707 4.8 5.54 11.055 10.648 16.435 15.668 2.442 2.281 4.885 4.502 7.25 6.865 2.56 2.561 5.745 3.965 8.508 6.21 1.15.935-.487 2.552-1.626 1.624m5.983-15.914C73.428 96.164 61.86 82.402 50.77 69.096c-5.503-6.6-12.98-11.762-18.94-17.989-4.402-4.6-9.284-10.814-10.14-17.315-.137-1.043 1.32-1.455 1.962-.813l1.15 1.151c.643.641.28 1.496-.34 1.823 1.815 6.237 7.594 12.174 11.802 16.406 5.656 5.69 12.313 10.534 17.46 16.704 10.507 12.606 21.63 25.644 35.23 35.02 1.212.837.066 2.83-1.158 1.986m14.712-7.078c-7.059-6.569-14.03-13.494-21.333-19.786-7.356-6.34-14.842-12.525-21.219-19.885-6.366-7.348-10.875-16.483-16.166-24.61-2.267-3.48-4.818-6.765-7.059-10.255-1.952-3.04-4.554-8.444-8.449-9.099-1.46-.245-.839-2.46.611-2.217 5.187.873 8.48 8.117 11.035 12.027 6.112 9.348 12.252 18.692 18.34 28.065 5.906 9.095 14.89 16.104 23.047 23.071 7.83 6.693 15.281 14.045 22.82 21.064 1.085 1.012-.544 2.634-1.627 1.625m24.378 2.479c-3.079-1.72-4.23-3.84-6.162-6.73-2.829-4.232-6.2-8.05-9.202-12.163-6.667-9.126-13.256-18.22-20.734-26.711C84 48.156 76.883 40.733 71.285 32.074c-2.585-3.998-5.153-8.07-7.835-12.007-1.668-2.45-4.969-3.902-4.969-6.967 0-1.483 2.3-1.483 2.3 0 0 1.515 4.567 5.675 5.647 7.266 2.367 3.476 4.296 7.184 6.843 10.55 6.516 8.6 13.284 16.669 20.425 24.776 5.857 6.649 11.13 13.743 16.324 20.913 2.936 4.055 5.884 8.036 9.06 11.906 2.945 3.583 4.815 8.655 8.965 10.975 1.295.723.137 2.71-1.159 1.984m-8.282-36.97c-7.729-7.907-15.525-16.537-22.233-25.314-3.768-4.93-7.27-10.05-11.109-14.927-3.198-4.064-6.848-7.098-9.378-11.732-.712-1.3 1.277-2.46 1.986-1.16 2.731 4.996 6.82 8.47 10.273 12.86 3.104 3.947 5.98 8.077 8.958 12.123 6.811 9.247 15.088 18.298 23.13 26.524 1.036 1.06-.589 2.688-1.627 1.626m-2.594-23.502c-.709-4.625-6.144-8.88-8.975-12.59-4.469-5.85-7.473-12.535-12.575-17.947-1.017-1.077.607-2.705 1.625-1.625 4.8 5.089 8.08 11.184 11.925 16.979 3.016 4.545 9.351 8.912 10.217 14.57.22 1.453-1.994 2.075-2.218.613m17.542-8.691c-4.804-4.808-9.503-9.672-13.797-14.945-3.086-3.792-6.732-5.96-8.345-10.856-.464-1.413 1.756-2.011 2.22-.611 1.615 4.917 5.887 7.552 9.006 11.38 3.864 4.747 8.22 9.082 12.542 13.407 1.048 1.049-.578 2.676-1.626 1.626m11.318-4.833c-2.802-5.087-7.624-10.065-11.893-14.014-2.118-1.957-6.36-5.364-5.47-8.717.383-1.433 2.598-.824 2.218.611-.674 2.542 4.977 6.522 6.603 8.08 3.79 3.626 7.98 8.256 10.527 12.881.716 1.297-1.27 2.458-1.985 1.16m45.02 32.425c-8.105-8.105-15.253-17.198-22.136-26.37-3.81-5.08-6.633-11.566-11.099-16.074-2.573-2.595-4.552-5.296-5.044-8.957-.198-1.466 2.106-1.447 2.3 0 .606 4.515 5.533 8.506 8 12.273 3.23 4.93 6.422 9.861 10.058 14.508 6.221 7.948 12.41 15.858 19.546 22.994 1.05 1.05-.577 2.674-1.626 1.625m21.846-4.599c-3.088-2.955-8.3-5.794-10.528-9.43-2.843-4.633-5.952-9.051-9.198-13.411-3.47-4.66-6.21-9.968-9.198-14.95-2.003-3.338-6.135-5.994-7.014-9.854-.33-1.446 1.887-2.057 2.218-.611.483 2.119 2.064 3.29 3.562 4.576 1.468 1.255 2.238 3.095 3.22 4.73 2.683 4.47 5.364 8.94 8.047 13.415 2.347 3.909 5.518 7.455 8.048 11.27 3.42 5.155 8.065 8.427 12.468 12.64 1.074 1.027-.555 2.65-1.625 1.626m41.39 24.144c-5.194-5.336-9.43-11.372-14.255-17.019-5.141-6.02-10.114-12.163-14.61-18.683-5.066-7.348-11.448-13.634-17.288-20.36-5.088-5.864-8.558-12.923-13.633-18.67-.977-1.108.642-2.74 1.626-1.626 4.618 5.232 7.752 11.647 12.252 17.046 5.304 6.366 11.07 12.333 16.49 18.595 2.346 2.711 4.133 6.184 6.27 9.09 2.88 3.917 6.014 7.65 9.147 11.364 5.228 6.205 9.96 12.817 15.627 18.637 1.035 1.062-.59 2.69-1.626 1.626m3.072-17.753c-.283 1.455-2.5.836-2.22-.61.527-2.704-6.657-8.459-8.27-10.614-4.198-5.604-7.956-11.444-12.554-16.747-3.753-4.325-7.707-8.478-11.533-12.735-1.315-1.462-3.432-3.254-4.317-5.01-1.367-2.71-2.76-5.832-5.335-7.636-1.206-.84-.058-2.836 1.158-1.984 3.984 2.787 5.584 7.807 8.71 11.412 5.132 5.92 10.61 11.527 15.67 17.512 4.833 5.717 8.184 12.982 13.6 18.157 2.345 2.24 5.796 4.63 5.091 8.255m3.53-13.798c-.436-2.195-4.325-5.812-5.632-7.73-2.56-3.756-5.18-7.118-7.61-10.966-4.524-7.159-11.246-12.815-15.385-20.12-.732-1.292 1.256-2.452 1.985-1.16 2.181 3.848 5.354 6.765 8.174 10.113 2.627 3.12 4.943 6.624 7.21 10.008 2.488 3.71 5.03 7.317 7.611 10.965 1.906 2.691 5.203 4.944 5.866 8.281.287 1.447-1.93 2.064-2.219.61m4.894-14.439c-6.881-7.061-12.163-15.394-18.395-22.996-.93-1.136.686-2.772 1.626-1.625 6.23 7.6 11.516 15.938 18.396 22.994 1.036 1.064-.588 2.69-1.626 1.627m-95.608 63.002c-4.505-8.825-10.118-16.833-17.066-23.911-1.04-1.058.586-2.685 1.626-1.625 7.082 7.213 12.831 15.378 17.424 24.377.675 1.316-1.31 2.48-1.984 1.159m43.574 33.068c-1.092-3.683-5.686-7.63-8.27-10.332-2.658-2.775-4.589-5.412-6.669-8.667-5.018-7.859-9.708-15.918-14.782-23.74-4.448-6.858-10.47-12.382-14.51-19.36-1.849-3.193-3.857-6.172-5.943-9.208-.676-.983-3.256-5.998-3.905-6.03-1.476-.08-1.483-2.379 0-2.3 3.523.186 5.713 7.214 7.712 9.535 2.501 2.901 4.127 6.911 6.092 10.187 1.405 2.343 4.14 4.318 5.878 6.488 1.184 1.481 2.221 3.086 3.288 4.65 5.973 8.743 11.401 17.803 17.004 26.79 2.993 4.802 6.42 8.83 10.228 12.985 2.19 2.391 5.161 5.237 6.095 8.391.422 1.426-1.796 2.03-2.219.611m16.394-5.241c-5.275-5.566-8.754-12.205-12.468-18.85-2.21-3.95-5.134-7.11-7.993-10.585-2.98-3.625-5.892-7.313-8.665-11.1-.964-1.32-4.113-4.639-3.363-6.573.53-1.368 2.755-.773 2.217.612-.453 1.166 4.393 6.508 5.07 7.402 2.686 3.561 5.513 7.025 8.371 10.448 7.042 8.44 10.861 19.005 18.456 27.02 1.02 1.076-.605 2.704-1.626 1.626m10.168-9.431c-3.465-7.91-8.88-15.276-13.7-22.42-2.337-3.466-4.796-6.843-7.077-10.348-1.618-2.484-4.038-3.603-4.634-6.598-.287-1.448 1.93-2.065 2.22-.61.423 2.14 4.27 5.85 5.521 7.773 2.281 3.51 4.778 6.88 7.118 10.35 4.442 6.581 9.346 13.404 12.537 20.694.59 1.343-1.39 2.514-1.985 1.16m9.083-12.922c-2.418-6.006-6.01-11.283-10.509-15.866-3.027-3.082-5.744-6.286-6.739-10.578-.334-1.444 1.885-2.055 2.22-.61 1.328 5.734 6.22 9.431 10.001 13.603 3.218 3.547 5.467 8.43 7.244 12.84.553 1.377-1.67 1.967-2.218.611M36.444 181.185a24.997 24.997 0 0 1-6.547-6.544c-.84-1.227 1.154-2.377 1.985-1.159a22.107 22.107 0 0 0 5.72 5.72c1.217.83.068 2.824-1.158 1.983m13.796-7.664c-3.537-1.886-6.265-5.335-8.08-8.844-.68-1.313 1.306-2.478 1.986-1.159 1.646 3.181 4.044 6.305 7.252 8.018 1.31.696.15 2.681-1.158 1.984m12.616-8.077c-1.76-3.264-5.378-4.924-6.899-8.433-.584-1.344 1.397-2.516 1.986-1.157 1.507 3.472 5.131 5.153 6.898 8.431.704 1.305-1.282 2.466-1.985 1.16M78.6 154.358c-2.369-1.649-4.37-3.618-6.11-5.919-1.624-2.145-3.406-3.672-4.384-6.265-.524-1.39 1.7-1.984 2.22-.61.811 2.156 2.458 3.288 3.712 5.09a22.975 22.975 0 0 0 5.72 5.72c1.208.84.061 2.837-1.159 1.984m24.116-8.077a136.61 136.61 0 0 1-2.3-3.544c-.84-1.343-1.484-3.25-2.6-4.368-1.458-1.46-3.355-3.242-3.65-5.393-.197-1.449 2.02-2.075 2.22-.61.322 2.36 2.745 3.192 3.716 5.09 1.362 2.663 2.941 5.177 4.598 7.665.825 1.24-1.168 2.39-1.984 1.16m30.073-2.832c-3.182-3.392-4.284-8.065-7.08-11.733-.897-1.178 1.102-2.32 1.987-1.158 2.663 3.496 3.697 8.042 6.719 11.263 1.013 1.08-.608 2.71-1.626 1.628m27.058.946c-5.416-3.272-8.703-8.514-10.493-14.483-.426-1.426 1.795-2.029 2.22-.612 1.616 5.4 4.524 10.142 9.432 13.111 1.27.765.112 2.752-1.159 1.984m20.894 1.307c-.252-2.259-2.634-5.194-4.186-6.796-2.26-2.337-4.12-5.088-5.623-7.956-.69-1.31 1.295-2.47 1.985-1.157a39.35 39.35 0 0 0 2.78 4.501c1.085 1.53 2.687 2.772 3.616 4.383 1.376 2.387 3.407 4.153 3.727 7.025.164 1.474-2.137 1.457-2.3 0m24.864 6.178c-4.854-4.9-9.26-10.177-12.443-16.33-.68-1.315 1.304-2.477 1.985-1.16 3.095 5.985 7.363 11.096 12.084 15.864 1.044 1.053-.582 2.682-1.626 1.626m22.995 12.263c-1.696-1.992-2.983-4.414-4.132-6.747-1.682-3.405-4.245-6.404-6.598-9.35-.916-1.144.701-2.783 1.626-1.625 2.048 2.566 4.078 5.136 5.857 7.898 1.692 2.63 2.835 5.806 4.872 8.197.957 1.124-.662 2.757-1.625 1.627M92.974 243.046c-14.83 0-14.83-22.996 0-22.996s14.83 22.996 0 22.996m80.482 0c-14.83 0-14.83-22.996 0-22.996 14.829 0 14.829 22.996 0 22.996"></path><path d="M126.596 355.077c-29.39 0-60.136-1.546-84.636-19.994-32.99-24.841-34.205-68.727-31.992-92.672 1.23-13.29 4.291-27.873 9.64-45.898 3.76-12.662 14.497-26.398 28.727-36.74 2.09-1.518 4.117-3.116 6.145-4.717 3.741-2.948 7.61-6 11.841-8.494 8.474-4.999 18.331-7.348 26.854-8.986 15.891-3.056 31.285-3.304 48.32-3.304l7.326.003c43.252 0 72.546 9.92 89.548 30.321 11.1 13.317 16.275 26.902 17.87 46.89 1.266 15.83 1.964 31.654 2.075 47.032.091 12.74-.782 31.372-9.394 46.054-7.615 12.982-20.062 25.186-32.485 31.854-22.968 12.326-47.123 19.276-69.854 20.098l-.49.02-.353-.348c-.792-.776-1.819-1.17-3.05-1.17-2.64 0-5.297.011-7.965.025-2.697.011-5.407.026-8.127.026m3.706-230.397c-24.084 0-51.437 1.89-71.693 15.918-12.806 8.87-23.537 18.26-33.774 29.555-8.41 9.29-11.71 16.867-15.92 30.342-9.62 30.778-11.527 62.123-5.368 88.271 6.767 28.704 21.905 49.322 45 61.282 25.336 13.122 52.185 14.191 82.125 14.191l4.14-.004.333.32c.793.757 1.797 1.163 2.982 1.203 1.504.051 3.005.077 4.503.077 20.333 0 41.386-4.662 62.57-13.854 23.82-10.332 40.755-25.229 54.915-48.308 6.475-10.558 7.326-29.438 7.392-37.065.137-15.769.276-32.077-1.406-47.895-.303-2.84-.534-5.634-.76-8.388-.887-10.685-1.719-20.779-6.593-30.926-6.273-13.076-14.636-23.916-24.18-31.343-18.7-14.557-44.828-22.264-77.657-22.908-2.407-.048-4.866-.105-7.365-.165-6.23-.149-12.674-.303-19.244-.303"></path><path d="M27.213 259.362c-8.264 0-16.267.785-23.789 2.333-3.31.682-3.288 3.494-3.2 4.342.227 2.233 1.956 4.61 4.713 4.61a5.48 5.48 0 0 0 1.08-.113c6.811-1.404 14.136-2.115 21.77-2.115 17.076 0 35.814 3.363 58.966 10.583 14.582 4.546 25.66 9.394 35.82 19.487 2.07 2.06 4.923 3.752 7.684 5.392 1.9 1.127 3.861 2.29 5.568 3.574 6.273 4.714 12.112 9.416 17.35 13.977.296.258.622.476 1.023.682l.203.105.148.176c.98 1.163 2.544 1.887 4.083 1.887.945 0 3.206-.316 3.806-3.216 1.432-6.97 6.905-10.893 12.198-14.687a125.12 125.12 0 0 0 3.404-2.498c7.944-6.123 15.665-10.82 23.84-15.79 1.27-.77 2.548-1.577 3.837-2.386 7.965-5.005 16.204-10.184 25.86-10.392 4.581-.099 9.237-.437 13.74-.763 4.53-.332 9.214-.672 13.853-.772 3.082-.063 4.458-2.525 4.434-4.782-.023-2.199-1.348-4.418-4.256-4.418-2.487.046-4.974.068-7.462.067-9.342.03-19.93.062-28.375 2.435-7.73 2.174-14.25 6.045-21.155 10.145-2.66 1.578-5.409 3.213-8.224 4.732-6.263 3.384-11.948 7.61-17.447 11.691-3.763 2.792-7.652 5.683-11.745 8.326-3.564 2.302-6.38 5.207-8.37 8.638l-.682 1.176-1.045-.867c-6.242-5.164-12.8-10.173-19.14-15.014-4.49-3.427-9.129-6.97-13.619-10.539-9.868-7.844-21.662-11.967-32.937-15.249-18.25-5.32-39.882-10.757-61.934-10.757m76.402-166.917c-.736 0-1.475.074-2.193.222-11.343 2.291-15.373 14.978-18.93 26.176-1.146 3.601-2.226 7.003-3.497 9.926-.94 2.154-.161 3.877.387 4.712.978 1.493 2.687 2.498 4.254 2.498 1.415 0 2.513-.804 3.173-2.324 1.272-2.917 2.129-5.719 3.039-8.686.642-2.087 1.304-4.25 2.118-6.427 1.757-4.7 4.165-11.134 8.17-15.019 1.002-.973 2.2-1.464 3.562-1.464 3.903 0 8.206 4.22 10.774 6.74.499.488.928.91 1.267 1.212 2.113 1.885 4.042 4.282 6.086 6.82 3.783 4.697 7.698 9.555 12.79 10.934l.546.15.216.522c.784 1.898 2.706 2.574 4.244 2.574 1.673 0 3.838-.823 4.43-3.144l.099-.388.32-.245c3.794-2.863 7.086-6.386 10.57-10.116 4.372-4.674 8.889-9.507 14.479-12.925.853-.522 1.814-.784 2.86-.784 9.557 0 25.229 23.635 25.497 30.825.113 3.053 2.574 4.446 4.812 4.446 1.329 0 2.546-.473 3.339-1.297.74-.769 1.094-1.799 1.047-3.064-.411-11.082-9.724-22.07-16.693-29.372-.58-.607-1.208-1.3-1.885-2.046-3.873-4.264-9.176-10.107-14.498-10.107h-.001c-.634 0-1.26.085-1.866.254-8.042 2.233-13.654 7.585-19.593 13.251-2.252 2.148-4.581 4.371-7.05 6.405l-.421.347c-1.97 1.62-4.202 3.454-6.098 5.527l-.343.372h-.505c-3.487 0-5.857-3.879-7.761-6.999-.657-1.078-1.278-2.096-1.801-2.715-1.8-2.132-4.135-4.078-6.393-5.96-.833-.694-1.657-1.38-2.447-2.07-4.471-3.903-10.04-8.76-16.104-8.76"></path><path d="M158.511 100.093c-.286 5.017-2.315 10.073-3.229 15.019-1.079 5.829-9.942 3.352-8.87-2.444.575-3.115 1.852-6.51 2.51-9.768-3.615-.365-7.844.257-11.183.2-3.168-.054-6.31-.021-9.472.179-.08.005-.59.038-1.229.073.131.638.223 1.286.377 1.92.704 3.2 2.447 6.056 2.953 9.313.904 5.8-7.958 8.292-8.87 2.445-1.265-8.128-10.73-23.512 4.436-22.687 7.801.429 16.078-.383 23.954-.383 1.72 0 3.657.112 5.196 1.013.673.395 3.307 1.927.766.767.442.204.812.546 1.13.935.965.87 1.604 2.137 1.531 3.418"></path><path d="M160.186 74.032c-.316 4.064-1.615 8.146-2.414 12.143-.477 2.38-2.893 7.771-2.493 10.013 1.031 5.798-7.832 8.28-8.87 2.444-.817-4.6 1.033-7.59 1.92-12.025 1.513-7.586 2.77-14.792 3.184-22.539.198-3.714 2.765-14.565.297-17.442-3.268-3.809-6.357-7.559-10.568-10.399-.58-.389-2.189-.979-3.31-1.44-3.432 3.351-7.02 6.04-10.087 9.874.477-.596-4.349 5.261-4.759 3.621.717 2.88 1.43 5.744 2.203 8.623 1.867 6.935 1.55 14.581 3.08 21.638 1.374 6.343 2.995 12.806 3.698 19.25.644 5.891-8.56 5.828-9.198 0-.908-8.3-3.613-16.544-4.819-24.839-1.017-7-1.586-13.953-3.834-20.695-3.296-9.88 11.858-18.595 17.664-24.403.82-.819 1.727-1.22 2.625-1.32.697-1.085 1.918-1.778 3.692-1.559 8.576 1.06 24.194 14.018 24.194 22.85 0 8.403-1.543 17.736-2.205 26.205"></path><path d="M270.85 46.68c-.693 11.407-6.862 22.408-9.185 33.556-2.492 11.968-11.189 27.368-17.818 37.526-6.672 10.222-14.699 19.728-24.919 26.542-4.952 3.304-9.55-4.67-4.644-7.94 10.683-7.126 19.414-18.12 25.032-29.564 4.9-9.983 11.668-20.307 13.958-31.307 2.208-10.605 8.11-20.817 8.556-31.738.357-8.773 4.738-20.22 3.101-29.187-9.698-.305-19.44-2.39-29.125-2.403-12.903-.023-25.38-.234-38.22-1.473-18.266-1.763-36.462-1.458-54.75-1.433l-.04.003-1.035-.002-1.038.002c-.014 0-.026-.003-.026-.003-18.302-.025-36.495-.33-54.764 1.433-12.84 1.24-25.316 1.45-38.219 1.473-9.685.013-19.426 2.098-29.126 2.403-1.636 8.966 2.744 20.414 3.102 29.187.446 10.92 6.348 21.133 8.555 31.738 2.291 11 9.06 21.324 13.96 31.307 5.618 11.443 14.348 22.438 25.031 29.563 4.906 3.272.307 11.245-4.644 7.94-10.22-6.813-18.249-16.32-24.92-26.54-6.629-10.159-15.326-25.559-17.819-37.527-2.32-11.148-8.489-22.15-9.184-33.556-.673-11.1-6.074-26.19-2.313-37.105.53-1.536 1.593-2.446 2.807-2.873.74-.763 1.783-1.27 3.163-1.27 9.071 0 18.503-1.587 27.518-2.202 12.917-.882 25.717.243 38.638-1.32 19.77-2.385 39.464-1.869 59.28-1.849 19.814-.02 39.508-.537 59.275 1.848 12.921 1.563 25.721.438 38.638 1.32 9.016.615 18.447 2.2 27.52 2.2 1.38 0 2.423.509 3.161 1.272 1.215.427 2.277 1.337 2.807 2.873 3.761 10.916-1.639 26.005-2.313 37.105"></path><path d="M203.153 64.479c-4.545.393-9.067.987-13.6 1.505-.596.066-.967 1.464-1.194 3.053 14.07-.016 28.306-.242 42.327-1.295.085-.982.099-1.95-.04-2.872-9.24-.902-18.086-1.205-27.493-.39m36.224 7.636c-.175 2.676-2.174 4.13-4.265 4.38a5.207 5.207 0 0 1-1.103.22c-15.96 1.36-32.252 1.531-48.29 1.531-.524 0-.987-.095-1.42-.226-2.55.427-5.476-1.028-5.476-4.374 0-4.62.448-9.837 2.927-13.819 3.275-5.262 16.203-4.042 21.403-4.547 10.224-.994 22.016-1.866 32.078.903 6.234 1.715 4.435 11.516 4.146 15.932"></path></g>
		</symbol>
	
		<symbol id="menu" viewBox="0 0 42.667 32">
			<path d="M40 5.333H2.667C1.2 5.333 0 4.133 0 2.667S1.2 0 2.667 0H40c1.467 0 2.667 1.2 2.667 2.667S41.467 5.333 40 5.333m0 13.334H2.667C1.2 18.667 0 17.467 0 16s1.2-2.667 2.667-2.667H40c1.467 0 2.667 1.2 2.667 2.667s-1.2 2.667-2.667 2.667M40 32H2.667C1.2 32 0 30.8 0 29.333s1.2-2.666 2.667-2.666H40c1.467 0 2.667 1.2 2.667 2.666S41.467 32 40 32" fill="currentColor"></path>
		</symbol>
	
		<symbol id="padlock" viewBox="0 0 489.4 489.4">
			<path d="M99 147v51.1h-3.4c-21.4 0-38.8 17.4-38.8 38.8v213.7c0 21.4 17.4 38.8 38.8 38.8h298.2c21.4 0 38.8-17.4 38.8-38.8V236.8c0-21.4-17.4-38.8-38.8-38.8h-1v-51.1C392.8 65.9 326.9 0 245.9 0 164.9.1 99 66 99 147zm168.7 206.2c-3 2.2-3.8 4.3-3.8 7.8.1 15.7.1 31.3.1 47 .3 6.5-3 12.9-8.8 15.8-13.7 7-27.4-2.8-27.4-15.8v-.1c0-15.7 0-31.4.1-47.1 0-3.2-.7-5.3-3.5-7.4-14.2-10.5-18.9-28.4-11.8-44.1 6.9-15.3 23.8-24.3 39.7-21.1 17.7 3.6 30 17.8 30.2 35.5 0 12.3-4.9 22.3-14.8 29.5zM163.3 147c0-45.6 37.1-82.6 82.6-82.6 45.6 0 82.6 37.1 82.6 82.6v51.1H163.3V147z" fill="currentColor"></path>
		</symbol>
	
		<symbol id="pdf" viewBox="0 0 392.528 482.139">
			<path d="M97.218 310.194c0-8.007-5.556-12.782-15.359-12.782-4.003 0-6.714.395-8.132.773v25.69c1.679.378 3.743.504 6.588.504 10.449 0 16.903-5.279 16.903-14.185zm60.685-12.513c-4.39 0-7.227.379-8.905.772v56.896c1.679.394 4.39.394 6.841.394 17.809.126 29.424-9.677 29.424-30.449.126-18.063-10.458-27.613-27.36-27.613z" fill="currentColor"></path><path d="M270.652 0H77.005C48.715 0 25.69 23.041 25.69 51.315v189.754h-5.012C9.26 241.069 0 250.32 0 261.748v125.404c0 11.427 9.259 20.677 20.678 20.677h5.012v22.995c0 28.305 23.025 51.315 51.315 51.315h264.223c28.272 0 51.3-23.011 51.3-51.315V121.449L270.652 0zM54.247 284.379c6.06-1.024 14.578-1.796 26.579-1.796 12.128 0 20.772 2.315 26.58 6.965 5.548 4.382 9.292 11.615 9.292 20.127 0 8.51-2.837 15.745-7.999 20.646-6.714 6.32-16.643 9.157-28.258 9.157-2.585 0-4.902-.128-6.714-.379v31.096h-19.48v-85.816zm286.981 166.334H77.005c-10.954 0-19.874-8.92-19.874-19.889v-22.995h246.31c11.42 0 20.679-9.25 20.679-20.677V261.748c0-11.428-9.259-20.679-20.679-20.679H57.131V51.315c0-10.938 8.921-19.858 19.874-19.858l181.89-.19V98.5c0 19.638 15.934 35.587 35.587 35.587l65.862-.189.741 296.925c0 10.97-8.904 19.89-19.857 19.89zm-211.969-80.912v-85.422c7.225-1.15 16.642-1.796 26.58-1.796 16.516 0 27.226 2.963 35.618 9.282 9.031 6.714 14.704 17.416 14.704 32.781 0 16.643-6.06 28.133-14.453 35.224-9.157 7.612-23.096 11.222-40.125 11.222-10.198 0-17.423-.646-22.324-1.29v-.001zm140.827-50.575v15.996h-31.23v34.973h-19.74v-86.966h53.16v16.122h-33.42v19.875h31.23z" fill="currentColor"></path>
		</symbol>
	
		<symbol id="skype" viewBox="0 0 128 128">
			<path fill="none" d="M0 0h128v128H0z"></path><path clip-rule="evenodd" d="M95.992 93.435c-2.822 3.947-6.992 7.063-12.41 9.274-5.351 2.196-11.763 3.316-19.071 3.316-8.768 0-16.12-1.521-21.863-4.526-4.102-2.181-7.481-5.134-10.047-8.799-2.596-3.68-3.906-7.337-3.906-10.876 0-2.196.858-4.11 2.544-5.676 1.671-1.558 3.816-2.337 6.374-2.337 2.092 0 3.906.616 5.373 1.84 1.407 1.18 2.611 2.923 3.582 5.156 1.084 2.448 2.258 4.511 3.5 6.121 1.204 1.573 2.928 2.886 5.125 3.917 2.213 1.024 5.2 1.558 8.865 1.558 5.05 0 9.189-1.068 12.297-3.16 3.048-2.04 4.523-4.503 4.523-7.515 0-2.367-.775-4.236-2.356-5.705-1.671-1.528-3.861-2.715-6.517-3.546-2.777-.846-6.54-1.773-11.198-2.738-6.344-1.335-11.725-2.916-16-4.718-4.38-1.832-7.91-4.377-10.491-7.56-2.619-3.242-3.951-7.3-3.951-12.071 0-4.54 1.392-8.643 4.147-12.175 2.724-3.509 6.713-6.254 11.853-8.116 5.065-1.847 11.086-2.782 17.912-2.782 5.449 0 10.243.623 14.246 1.855 4.026 1.232 7.413 2.893 10.077 4.948 2.687 2.077 4.689 4.281 5.938 6.581 1.264 2.322 1.912 4.629 1.912 6.863 0 2.152-.843 4.11-2.506 5.809-1.671 1.721-3.786 2.589-6.269 2.589-2.258 0-4.034-.549-5.253-1.617-1.144-1.002-2.333-2.56-3.65-4.785-1.52-2.849-3.364-5.097-5.479-6.685-2.055-1.543-5.479-2.315-10.198-2.315-4.365 0-7.932.861-10.574 2.574-2.544 1.64-3.785 3.531-3.785 5.772 0 1.365.399 2.515 1.227 3.494.858 1.053 2.085 1.959 3.635 2.73a26.829 26.829 0 0 0 4.914 1.877c1.693.467 4.538 1.157 8.444 2.048 4.944 1.039 9.483 2.218 13.494 3.487 4.071 1.276 7.579 2.849 10.453 4.696 2.92 1.877 5.23 4.281 6.879 7.159 1.648 2.901 2.484 6.462 2.484 10.609.001 4.956-1.444 9.475-4.274 13.429zm28.328-15.847a59.501 59.501 0 0 0 1.407-12.924c0-33.237-27.326-60.19-61.05-60.19-3.552 0-7.037.304-10.438.883A35.57 35.57 0 0 0 35.409 0C15.849 0 0 15.624 0 34.914c0 6.44 1.776 12.464 4.862 17.657a59.851 59.851 0 0 0-1.234 12.093c0 33.252 27.334 60.198 61.05 60.198 3.823 0 7.556-.349 11.183-1.009A35.656 35.656 0 0 0 92.598 128C112.151 128 128 112.368 128 93.094a34.342 34.342 0 0 0-3.68-15.506z" fill="currentColor" fill-rule="evenodd"></path>
		</symbol>
	
		<symbol id="times" viewBox="0 0 212.982 212.982">
			<path d="M131.804 106.491l75.936-75.936c6.99-6.99 6.99-18.323 0-25.312-6.99-6.99-18.322-6.99-25.312 0L106.491 81.18 30.554 5.242c-6.99-6.99-18.322-6.99-25.312 0-6.989 6.99-6.989 18.323 0 25.312l75.937 75.936-75.937 75.937c-6.989 6.99-6.989 18.323 0 25.312 6.99 6.99 18.322 6.99 25.312 0l75.937-75.937 75.937 75.937c6.989 6.99 18.322 6.99 25.312 0 6.99-6.99 6.99-18.322 0-25.312l-75.936-75.936z" fill-rule="evenodd" clip-rule="evenodd" fill="currentColor"></path>
		</symbol>
	
		<symbol id="twitter" viewBox="0 0 20 16.133">
			<path d="M20 1.866c-.8.267-1.467.534-2.4.667A5.209 5.209 0 0 0 19.467.266c-.8.534-1.734.8-2.667 1.067C16 .533 14.933 0 13.733 0 11.467 0 9.6 1.866 9.6 4.133c0 .267 0 .667.133.933C6.267 4.933 3.333 3.2 1.2.8c-.4.666-.533 1.333-.533 2 0 1.466.666 2.666 1.866 3.466-.666 0-1.333-.266-1.866-.533 0 2 1.466 3.6 3.333 4-.4.133-.667.133-1.067.133-.266 0-.533 0-.8-.133.534 1.6 2 2.8 3.867 2.8C4.533 13.6 2.8 14.266.933 14.266H0a11.516 11.516 0 0 1 6.267 1.867C13.867 16.133 18 9.866 18 4.4v-.534c.8-.4 1.467-1.066 2-2" fill="currentColor"></path>
		</symbol>
	
		<symbol id="vkontakte" viewBox="0 0 21.968 12.667">
			<path d="M21.167 12.667H17.3c-.133 0-.267 0-.4-.133a1.607 1.607 0 0 1-.667-.667L14.5 10.134l-.533-.534c-.134-.133-.267-.133-.4-.133-.134 0-.267.133-.4.267l-.134.4v.8s0 .666-.133.933l-.133.4c-.134.267-.267.267-.534.267H9.167l-.534-.134C7.7 12 6.9 11.334 6.1 10.534 5.167 9.6 4.367 8.667 3.7 7.6 2.633 6.267 1.7 4.8.9 3.334A21.703 21.703 0 0 1 .1 1.6c-.133-.266-.133-.533 0-.933C.1.534.1.534.233.4S.367.267.5.267h3.333c.267 0 .4.133.534.267.266.266.4.533.666.933l.534 1.067c.4.8.8 1.466 1.333 2.266l.8 1.067c.133.133.267.267.4.267a.287.287 0 0 0 .267-.267v-4c0-.267-.134-.267-.4-.4H7.7c-.267 0-.4-.133-.4-.4 0-.4.133-.8.533-.933L8.367 0H11.7c.133 0 .4 0 .533.134.4.133.667.4.667.8v4.933c0 .267.267.267.533.133.667-.4 1.067-1.066 1.334-1.733.266-.667.533-1.2.8-1.867l.666-1.466c0-.134.134-.267.267-.4.133-.134.133-.134.267-.134h4c.266 0 .533.134.8.4.133.134.133.134.133.267.133.533-.133.933-.4 1.467l-.8 1.2c-.667.8-1.333 1.6-1.867 2.4l-.4.666c-.133.134-.133.267 0 .4.267.267.534.534.8.934l1.867 2 .533.666.134.267c.8.667.266 1.6-.4 1.6" fill="currentColor"></path>
		</symbol>
	
		<symbol id="wallet" viewBox="0 0 502.547 524.7">
			<path d="M46.815 462.11c-4.894 2.968-8.143 7.84-10.771 12.815-3.699 7.003-8.63 13.336-12.263 20.44-.898 1.755 1.744 3.307 2.648 1.547 3.014-5.902 6.404-11.544 10.03-17.083 3.508-5.352 6.228-11.63 11.9-15.073 1.69-1.023.15-3.674-1.544-2.647m24.215 20.68c-6.713 6.821-14.293 15.581-14.751 25.613-.094 1.975 2.973 1.967 3.064 0 .417-9.116 7.783-17.274 13.854-23.446 1.39-1.408-.776-3.578-2.167-2.167m36.792 2.043c-8.606 6.773-14.409 16.577-14.754 27.656-.063 1.98 3.006 1.973 3.064 0 .324-10.314 5.888-19.214 13.857-25.49 1.557-1.218-.63-3.373-2.167-2.166m38.44 2.722c-2.997 7.983-9.838 13.934-10.273 22.891-.093 1.976 2.97 1.968 3.068 0 .41-8.437 7.317-14.493 10.164-22.076.695-1.853-2.267-2.647-2.959-.813m34.748-2.047c-2.194 6.893-2.786 16.247-7.778 21.81-1.315 1.466.846 3.64 2.166 2.167 5.472-6.096 6.17-15.644 8.57-23.162.6-1.89-2.36-2.692-2.96-.814m46.96.406c-.542 10.546-9.763 18.138-12.209 28.21-.466 1.92 2.494 2.736 2.96.816 2.534-10.438 11.748-17.958 12.316-29.026.102-1.976-2.964-1.967-3.066 0m36.848-.407a46.053 46.053 0 0 1-2.04 11.684c-.138 2.76-.119 4.93-1.6 7.4-1.446 2.401-3.058 4.647-4.384 7.124-.93 1.741 1.717 3.29 2.649 1.543 1.517-2.836 6.336-7.755 6.341-10.99.006-5.504.343-10.656 1.99-15.946.588-1.892-2.371-2.699-2.956-.814m42.922 0c-1.978 8.507-1.59 19.068-7.781 25.895-1.328 1.461.836 3.635 2.167 2.168 6.702-7.387 6.429-18.044 8.573-27.25.445-1.922-2.51-2.74-2.96-.813m32.704 4.09c-2.252 6.877-4.099 13.906-8.021 20.072-1.062 1.676 1.589 3.209 2.649 1.546 4.06-6.386 5.997-13.678 8.33-20.805.615-1.883-2.346-2.684-2.958-.813m33.098 5.456c-4.805 5.186-6.424 12.537-8.573 19.072-.617 1.884 2.344 2.684 2.96.813 1.963-5.987 3.376-12.965 7.78-17.717 1.344-1.447-.82-3.62-2.167-2.168m38.387-3.008c-.223 5.77-3.368 10.593-5.92 15.582-.901 1.756 1.747 3.307 2.645 1.547 2.82-5.507 6.099-10.767 6.342-17.128.074-1.979-2.99-1.97-3.067 0m28.613-4.087c-.101 5.994-1.486 12.78-5.68 17.31-1.344 1.449.82 3.622 2.167 2.168 4.768-5.147 6.464-12.632 6.581-19.478.034-1.98-3.034-1.976-3.066 0m-84.379-95.618c-2.232 2.337-3.377 4.75-4.328 7.808-.73 2.34-1.19 4.595-2.297 6.81-.787 1.585-1.307 3.102-1.487 4.862-.203 1.968 2.864 1.947 3.067 0 .201-1.952 1.24-3.623 2.058-5.36.708-1.484.807-2.981 1.307-4.516.94-2.89 1.704-5.193 3.853-7.436 1.363-1.427-.804-3.597-2.173-2.168m21.463 4.6c-4.952 5.213-7.926 12.28-8.11 19.48-.054 1.98 3.012 1.973 3.062 0 .166-6.384 2.826-12.69 7.218-17.312 1.358-1.43-.802-3.605-2.169-2.168m21.067 2.21c-.315 1.794-1.4 2.151-2.128 3.62-.73 1.475-.547 3.202-1.24 4.6-1.69 3.393-2.692 6.783-2.818 10.582-.066 1.981 2.998 1.973 3.063 0 .067-1.92.352-3.7.907-5.533.502-1.664 1.653-3.136 2.106-4.79.438-1.6.547-3.173 1.678-4.56.77-.941 1.18-1.925 1.39-3.104.339-1.933-2.617-2.762-2.958-.813m22.994 3.064c-.177 1.13-.97 2.083-1.585 3.013-.773 1.164-1.128 2.387-1.776 3.588-1.672 3.086-4.04 5.499-4.357 9.134-.172 1.973 2.896 1.96 3.066 0 .166-1.926 1.298-3.51 2.33-5.075.674-1.024 2.016-2.473 2.213-3.712.36-2.28 2.697-3.8 3.068-6.133.299-1.934-2.652-2.766-2.959-.814m24.527 0c-2.279 5.915-8.91 8.79-9.25 15.735-.097 1.976 2.969 1.968 3.065 0 .3-6.103 7.057-9.503 9.144-14.92.71-1.848-2.254-2.643-2.96-.816m20.326-.679c-1.976 1.984-3.904 3.95-5.44 6.296-2.114 3.234-.89 7.298-2.466 10.88-.787 1.79 1.853 3.354 2.649 1.547 1.268-2.884 1.681-5.688 1.739-8.82.054-2.95 3.786-5.83 5.685-7.733 1.4-1.4-.768-3.57-2.167-2.168M193.43 102.92c-2.57 3.724-5.645 7.034-8.4 10.613-1.061 1.376-2.213 2.748-3.043 4.276-.812 1.507-.846 4.035-2.972 4.333-1.95.28-1.118 3.232.816 2.96 3.716-.526 3.394-4.129 5.276-6.529 3.662-4.661 7.6-9.223 10.97-14.107 1.126-1.629-1.532-3.162-2.647-1.546m35.5-6.44c-7.576 7.58-15.167 15.246-20.17 24.837-.912 1.748 1.734 3.3 2.648 1.547 4.886-9.364 12.294-16.818 19.688-24.218 1.4-1.398-.768-3.566-2.166-2.168m39.617-10.422c-2.445 4.098-6.008 5.938-9.252 9.181-2.503 2.504-5.008 5.008-7.507 7.513-5.738 5.743-11.102 11.68-15.434 18.566-1.056 1.677 1.6 3.214 2.646 1.546 4.627-7.353 10.516-13.501 16.627-19.618 5.128-5.142 11.816-9.36 15.565-15.64 1.019-1.702-1.634-3.243-2.645-1.547m39.648-11.49c-.697 8.927-8.036 15.751-12.937 22.78-4.475 6.413-10.235 12.01-15.74 17.525-1.399 1.401.768 3.57 2.166 2.168 6.27-6.278 12.414-12.683 17.498-19.979 5.013-7.187 11.362-13.339 12.08-22.493.154-1.974-2.914-1.959-3.067 0m26.833-2.858c-1.706-1.004-3.248 1.644-1.547 2.646 3.232 1.91-8.869 21.28-10.633 23.824-4.434 6.378-9.358 13.366-14.87 18.893-2.171 2.179-4.971 4.525-6.103 7.461-.185.472.015 1.167.39 1.494.086.069.165.14.245.213 1.488 1.29 3.66-.87 2.166-2.17 2.267 1.971 23.888-28.695 25.41-31.957 1.826-3.926 10.978-16.844 4.942-20.404m32.953-7.876c-.505 11.683-7.057 22.8-13.053 32.576-5.884 9.594-12.893 18.464-18.93 27.971-1.063 1.675 1.587 3.21 2.647 1.547 11.858-18.667 31.402-38.806 32.402-62.094.082-1.973-2.983-1.969-3.066 0m29.576-7.213l-1.533 1.533c-.527.528-.547 1.162-.287 1.68-5.354 9.787-10.442 19.843-16.816 28.987-3.856 5.533-7.266 11.387-10.73 17.165-2.923 4.867-6.139 8.632-7.822 14.162-.573 1.894 2.383 2.702 2.96.816 1.854-6.1 5.82-10.614 9.04-15.983 3.428-5.704 6.928-11.35 10.734-16.813 6.449-9.258 11.364-19.84 16.861-29.69.848-1.518-1.16-3.105-2.407-1.858m13.402 20.605c-2.267 6.484-7.768 11.556-10.183 17.933-4.164 11.014-8.963 21.747-14.19 32.294-.875 1.761 1.771 3.314 2.649 1.541a390.165 390.165 0 0 0 13.506-30.45c2.84-7.214 8.624-13.211 11.176-20.502.651-1.87-2.31-2.67-2.96-.816M145.75 95.622c-3.004 7.216-7.449 13.757-9.196 21.463-.218.961.448 1.94 1.48 1.94 2.231 0 2.611-.448 4.147-1.984 1.26-1.256-.365-3.115-1.723-2.46 2.088-6.302 5.695-12.01 8.254-18.144.76-1.823-2.214-2.612-2.963-.814m22.997-13.798c-1.12 2.786-2.95 4.933-4.584 7.4-1.392 2.082-1.84 4.632-3.074 6.797-1.972 3.45-4.76 5.937-6.566 9.32-.622.133-1.158.596-1.158 1.419v1.533c0 1.767 2.493 2.04 3.01.407 1.523-4.822 5.588-8.024 8.042-12.33 1.262-2.206 1.768-4.668 3.21-6.84 1.539-2.308 3.035-4.297 4.08-6.892.735-1.836-2.23-2.622-2.96-.813m20.084-11.099c-5.226 9.86-12.581 18.404-17.36 28.467-.658.112-1.246.576-1.246 1.435v1.533c0 1.419 2.237 2.24 2.858.773 4.694-11.046 12.79-20.084 18.396-30.66.926-1.746-1.718-3.293-2.648-1.546m22.84-14.964c-.233.793-3.277 5.234-3.837 6.898-1.607 4.774-3.858 8.92-6.459 13.187-4.253 6.967-8.8 13.667-12.544 20.943-.904 1.753 1.743 3.302 2.648 1.542 4.107-7.976 9.13-15.346 13.797-22.993 1.883-3.084 3.383-6.208 4.7-9.565 1.27-3.25 3.68-5.91 4.655-9.197.56-1.9-2.396-2.707-2.96-.814m22.168-11.648c-6.09 3.82-7.672 11.155-9.18 17.735-1.4 6.116-5.47 11.604-8.453 17.061-1.92 3.524-4.07 5.448-4.587 9.453-.253 1.955 2.813 1.928 3.064 0 .43-3.332 3.84-7.3 5.487-10.314 2.173-3.982 4.484-7.876 6.568-11.91 3.366-6.513 1.382-14.818 8.648-19.378 1.67-1.048.136-3.701-1.547-2.647m28.815-15.092c-6.904 7.44-10.38 16.658-14.534 25.756-4.213 9.24-10.746 18.796-17.66 26.368-1.33 1.459.834 3.63 2.17 2.168 5.742-6.29 10.942-13.764 15.485-20.945 6.45-10.207 8.195-22.003 16.708-31.179 1.341-1.444-.82-3.62-2.17-2.168m17.949-3.512c0-1.981-3.044-1.976-3.066 0-.062 4.995-3.358 10.312-5.413 14.803-2.383 5.217-4.899 10.08-8.173 14.78-3.942 5.653-6.832 12.686-11.367 17.846-1.807 2.06-3.484 4.662-4.12 7.35-.452 1.92 2.503 2.738 2.956.814 1.024-4.345 5.23-8.609 7.51-12.394 3.375-5.587 6.878-11.09 10.73-16.367 3.096-4.24 5.036-10.24 7.16-15.026 1.515-3.43 2.987-6.09 3.525-9.456.147-.223.258-.48.258-.82v-1.53zm30.658-13.797c-1.276 11.16-9.964 22.716-15.533 32.147-2.584 4.369-5.595 8.514-8.42 12.725-1.59 2.373-15.437 19.437-12.387 22.13 1.476 1.302 3.654-.86 2.166-2.168 1.166 1.031 1.614-1.165 2.584-2.746 1.377-2.24 2.826-4.434 4.27-6.632 3.32-5.063 6.716-10.076 10.086-15.107 2.74-4.1 5.293-8.253 7.81-12.493 4.914-8.267 11.378-18.12 12.49-27.856.226-1.963-2.844-1.94-3.066 0m12.267-1.533c-.77 11.546-8.941 23.626-13.236 34.337-2.616 6.523-5.496 12.787-9.55 18.544-2.511 3.556-4.345 7.182-4.81 11.502-.21 1.964 2.859 1.944 3.067 0 .66-6.116 5.626-11.384 8.533-16.54 2.72-4.827 4.684-10.115 6.744-15.243 4.15-10.347 11.57-21.318 12.317-32.6.13-1.974-2.933-1.964-3.066 0m4.805 17.624c-.945 2.196-1.492 3.996-1.716 6.376-.45 4.729-3.563 7.61-5.221 11.73-3.167 7.863-9.423 13.752-11.612 22.115-.5 1.914 2.458 2.724 2.96.813 1.938-7.413 6.977-12.966 10.573-19.562 1.8-3.294 3.51-6.732 5.25-10.08 1.69-3.236.92-6.375 2.417-9.85.77-1.792-1.872-3.354-2.651-1.542m6.133 12.26c-2.404 3.514-4.986 6.797-6.685 10.73-1.93 4.463-1.924 9.293-4.044 13.8-.84 1.776 1.805 3.333 2.647 1.544 1.5-3.187 3.004-6.725 3.205-10.286.307-5.378 4.632-10.018 7.525-14.24 1.12-1.636-1.539-3.17-2.648-1.547m-159.43 217.683c-2.653 6.067-8.5 10.24-12.016 15.854-4.132 6.578-9.339 12.23-12.51 19.406-.791 1.79 1.849 3.35 2.646 1.544 3.148-7.117 8.187-12.998 12.51-19.404 3.665-5.437 9.365-9.789 12.018-15.853.784-1.792-1.856-3.353-2.648-1.547m32.746 56.17c-8.906 6.208-14.31 15.574-21.773 23.235-1.381 1.414.787 3.587 2.166 2.168 7.253-7.445 12.502-16.725 21.15-22.757 1.613-1.12.08-3.78-1.544-2.645m149.92-125.465c-10.61 12.464-18.174 27.014-27.835 40.17-1.172 1.595 1.494 3.122 2.648 1.542 9.503-12.938 16.917-27.284 27.355-39.544 1.276-1.497-.883-3.677-2.17-2.168m19.483 24.077c-.6 6.499-5.99 12.004-9.875 16.81-3.28 4.06-6.218 8.275-8.313 13.08-.781 1.793 1.86 3.354 2.65 1.543 4.726-10.837 17.475-19.234 18.603-31.433.187-1.97-2.885-1.952-3.066 0m27.592 13.8c-.29 2.832-2.014 5.683-3.618 7.979-.937 1.346-1.224 3.573-1.7 5.114-1.404 4.574-4.458 8.098-6.733 12.192-.963 1.728 1.684 3.28 2.647 1.547 2.44-4.393 5.101-8.25 7.046-12.923 1.24-2.986 2.264-5.76 3.891-8.613.987-1.72 1.336-3.347 1.535-5.296.2-1.97-2.871-1.947-3.067 0M142.633 393.428c-.208-1.943-3.28-1.965-3.067 0 1.12 10.316-6.034 19.613-10.52 28.353-.902 1.756 1.743 3.307 2.647 1.547 4.72-9.199 12.12-19.01 10.94-29.901m27.801 13.024c-2.026 4.33-2.882 9.686-5.518 13.645-3.003 4.515-5.804 9.12-8.276 13.948-.9 1.755 1.746 3.308 2.646 1.547 2.219-4.334 4.698-8.484 7.36-12.558 3.023-4.634 4.09-10.026 6.436-15.037.83-1.777-1.81-3.336-2.648-1.545" fill="currentColor"></path><g transform="matrix(1.33333 0 0 -1.33333 0 524.701)" fill="currentColor"><path d="M357.262 102.215c-7.186-4.15-13.688-4.562-21.736-4.562-13.983 0-27.99-.262-41.965.126-7.48.207-14.522 2.618-21.227 5.756-5.715 2.675-6.28 12-7.68 17.182-3.439 12.715-3.214 26.98-1.152 40.098.953 6.054.354 16.497 9.364 17.275 5.7.492 11.513 1.072 17.228 1.372 10.76.565 21.346.97 32.166.97 9.744 0 20.996-.611 29.96 4.025 9.704 5.018 11.546 8.24 14.29 17.328 1.344-3.877.633-8.7.633-12.558v-28.34c0-7.253-1.164-14.318-1.13-21.557.038-8.791 1.333-17.19 1.171-25.957-.715-.735-1.192-1.747-1.192-3.074 0-2.67-6.185-6.618-8.73-8.084m18.617 46.25c2.014 10.539.46 22.57.46 33.235 0 12.155 3.087 34.619-15.016 29.612a4.64 4.64 0 0 1-3.377-4.436v-1.15c0-.125.027-.233.035-.354-1.666-5.632-2.596-8.005-7.397-11.42-7.71-5.478-19.388-4.321-28.324-4.321-13.385 0-27.004.516-40.27-1.613-5.39-.865-13.373.448-18.345-2.465-4.51-2.64-6.442-8.457-7.623-13.154-1.723-6.834-2.305-14.433-2.63-21.455-.366-7.96-2.036-18.044.09-25.771 2.846-10.344 4.147-23.823 14.21-29.578 12.994-7.434 27.822-7.142 42.263-7.142 14.262 0 32.362-3.238 45.713 2.785 6.795 3.063 17.88 8.589 19.35 17.153.746.729 1.265 1.74 1.322 3.056.545 12.226-2.758 24.998-.46 37.018m-12.896 107.123c-.002 8.538-.158 19.103-3.695 26.844-5.573 12.188-18.9 18.385-31.576 20.324-7.354 1.128-14.99-.482-22.33-1.07-8.549-.685-17.348-.114-25.924-.114-18.303 0-36.518 1.532-54.84 1.532-38.809 0-150.16 1.533-188.93 1.533-10.309 0-26.408-6.74-31.648-15.812-3.129-5.423-2.362-13.217-2.149-19.147.297-8.26.071-16.563.071-24.827 0-5.93 9.2-5.93 9.2 0 0 12.129-1.595 25.358.282 37.336 1.088 6.942 13.264 10.15 18.746 12.239 8.104 3.088 19.936 1.015 28.494 1.015 29.547 0 131.897-1.536 161.54-1.536 28.413 0 56.728-2.286 85.157-1.417 15.42.47 28.745 3.149 41.606-8.017 6.48-5.616 6.797-20.567 6.797-28.997 0-5.933 9.2-5.933 9.2 0v.114z"></path><path d="M364.516 82.738c-.408 5.884-9.61 5.924-9.2 0 .786-11.29 5.013-48.706-.902-59.144-9.238-16.305-30.228-10.64-44.966-13.793-12.834-2.74-26.118-.49-38.936.766-7.387.726-13.553-.188-20.97-.214-7.694-.027-15.887-.32-23.76.38C211.494 12.005 123.732 9.2 109.273 9.2c-15.033 0-29.922 1.455-44.84 1.558-16.297.113-32.97 3.333-45.502 14.56-9.69 8.685-6.342 27.59-6.236 39.068.054 5.933-9.145 5.93-9.198 0-.11-12.09-2.14-26.53 3.594-37.76 6.39-12.517 21.774-20.45 35.043-23.394 6.748-1.495 15.264-1.33 22.3-1.673C72.177 1.184 79.62 0 87.414 0h31.058c10.246 0 93.336 2.1 103.475 1.876 9.525-.214 18.185-1.88 27.593-.72 7.803.96 16.774.626 24.614-.146 17.252-1.692 33.34.525 50.504.525 15.02 0 28.392 5.262 37.697 17.414 8.203 10.715 3.006 51.63 2.16 63.788"></path><path d="M12.693 63.242c-1.1 9.598-.607 40.517-1.447 50.118-1.098 12.56-1.998 24.538-.817 37.175 1.168 12.493 1.393 24.606 1.362 37.194-.014 6.26-2.008 12.022-1.729 18.398.342 7.802.332 30.532.332 38.344 0 5.93-9.199 5.93-9.199 0 0-10.918-2.797-40.12.166-50.66 3.254-11.58 1.853-27.604.363-39.395C.13 141.813.07 129.136 1.496 116.51c1.197-10.623.78-42.644 1.998-53.268.67-5.822 9.875-5.888 9.2 0m349.523 192.726c-.15 5.92-9.348 5.935-9.197 0 .187-7.495 1.148-14.917 1.148-22.423 0-7.932-1.148-30.641-1.148-38.512 0-5.931 9.197-5.931 9.197 0 0 6.824 1.148 28.559 1.148 35.466 0 8.532-.933 16.954-1.148 25.469M363.25 90.81c-.582 1.948.775 3.4 1.102 5.273.425 2.466-.622 4.945-3.213 5.658-2.237.615-5.23-.741-5.657-3.215-.168-.975-.648-1.838-1.03-2.756-.49-1.188-.585-2.89-.598-4.146-.032-2.444 1.347-4.595 1.462-6.966.29-5.905 9.49-5.932 9.2 0-.106 2.162-.655 4.098-1.266 6.153m-66.168 35.419c-.6.143-1.223.168-1.834.073-.18.032-.348.077-.537.092-2.38.155-6.477.92-8.395 2.472-1.623 1.313-2.033 5.203-2.4 7.108-1.56 8.05 2.957 11.959 10.945 12.367 2.89.147 6.256-1.987 7.854-4.326 1.623-2.377 4.664-4.887 4.61-7.924-.079-4.54-4.774-11.142-10.243-9.863m14.887 20.544c-2.018 1.87-2.928 4.35-5.192 6.124-2.718 2.124-5.363 3.6-8.744 4.339-12.13 2.65-23.748-5.593-23.72-17.94.011-5.107 1.376-11.751 4.6-15.798 3.556-4.472 10.357-5.943 15.798-6.302.273-.018.517.005.767.024 9.372-1.59 19.577 6.524 20.75 15.726.721 5.664.024 9.86-4.259 13.826m8.658 156.138c-2.078 2.144-2.396 6.712-3.414 9.468-1.76 4.763-3.268 11.77-4.313 16.76-1.785 8.52-2.214 18.503-9.226 24.493-6.31 5.393-18.17 1.39-25.213.094-6.05-1.116-11.31-3.955-17.494-4.792-5.942-.803-11.35-2.886-17.246-3.898-27.71-4.765-54.574-13.138-82.155-18.415-13.7-2.622-26.435-6.958-39.712-11.154-10.657-3.368-24.383-8.443-35.575-8.91-5.91-.248-5.933-9.444 0-9.198 9.22.383 17.647 3.985 26.516 6.2 11.926 2.983 23.38 7.187 35.12 10.766 25.206 7.684 52.124 10.683 77.554 17.69 11.123 3.066 23.217 5.35 34.492 7.582 10.852 2.146 21.23 5.008 32.193 6.77 9.756 1.566 8.803-6.883 10.153-12.306 1.457-5.86 3.232-11.572 4.742-17.372 1.72-6.61 2.06-15.115 7.076-20.282 4.137-4.262 10.635 2.248 6.502 6.503"></path><path d="M267.308 347.97c-1.703 2.734-2.6 9.382-3.559 12.696-1.318 4.565-2.986 8.484-5.023 12.77-2.147 4.53-6.996 18.3-12.732 19.655-3.038.72-5.086.637-7.973-.933-5.758-3.13-11.586-4.274-17.764-6.103-10.58-3.127-21.16-8.075-31.31-12.422-21.41-9.168-41.36-22.448-61.768-33.568-11.066-6.031-21.81-12.684-32.875-18.794-5.785-3.194-11.318-6.628-17.246-9.592-3.16-1.58-7.244-5.405-10.396-6.434-5.616-1.831-3.21-10.713 2.443-8.87 6.754 2.202 12.99 7.558 19.496 10.812 10.607 5.304 20.121 12.469 31.043 17.246 8.45 3.696 16.648 10.344 24.55 15.156 9.788 5.968 20.382 10.758 30.635 15.887 18.672 9.334 36.764 18.786 57.133 24.057 1.676.434 10.532 4.912 11.481 3.184 2.5-4.564 4.998-9.242 7.342-13.921 4.07-8.11 3.904-17.96 8.584-25.47 3.125-5.02 11.085-.406 7.94 4.644"></path></g>
		</symbol>
	
</svg>
